<svg xmlns="http://www.w3.org/2000/svg" viewBox="0 0 67 74">
    <g fill="none" fill-rule="evenodd">
        <g>
            <path d="M0 0L54 0 54 63 0 63z" transform="rotate(90 33.5 33.5) rotate(90 25 38)"/>
            <path fill="#BEC0D2" fill-rule="nonzero" d="M46.001 3.032c.786.702 1.249 1.717 1.249 3.155v46.626c0 3.622-.94 6.562-4.563 6.562h-25c-3.622 0-4.562-2.94-4.562-6.563V28h5.25V46.25H42L41.999 28H46zM33.5 51h-7c-.276 0-.5.224-.5.5s.224.5.5.5h7c.276 0 .5-.224.5-.5s-.224-.5-.5-.5z" transform="rotate(90 33.5 33.5) rotate(90 25 38)"/>
        </g>
        <g>
            <path d="M0 0L55 0 55 63 0 63z" transform="rotate(90 33.5 33.5) translate(19)"/>
            <path fill="#43425D" fill-rule="nonzero" d="M40.688 2.625h-21c-3.623 0-6.563.94-6.563 4.563v46.624c0 3.623.94 6.563 4.563 6.563h25c3.622 0 4.562-2.94 4.562-6.563V7.188c0-3.623-2.94-4.563-6.563-4.563zm-10.5 54.125c-2.18 0-2.938-.759-2.938-2.938 0-2.178.759-2.937 2.938-2.937 2.178 0 2.937.759 2.937 2.938 0 2.178-.759 2.937-2.938 2.937zM42 47.25H18.375V10.5H42v36.75zM27.625 6h6c.276 0 .5.224.5.5s-.224.5-.5.5h-6c-.276 0-.5-.224-.5-.5s.224-.5.5-.5z" transform="rotate(90 33.5 33.5) translate(19)"/>
        </g>
        <g>
            <path d="M0 0L24 0 24 24 0 24z" transform="rotate(90 33.5 33.5) translate(10 2)"/>
            <path fill="#43425D" fill-rule="nonzero" d="M9.296 16.768c-.067-3.86 3.016-7.053 6.877-7.12.466-.009 1.79-2.366-.04-2.334-5.157.09-9.26 4.34-9.17 9.495l-3.5.061 4.748 4.585 4.585-4.748-3.5.061z" transform="rotate(90 33.5 33.5) translate(10 2)"/>
        </g>
    </g>
</svg>
