<svg xmlns="http://www.w3.org/2000/svg" viewBox="0 0 15 16">
    <g fill="none" fill-rule="evenodd">
        <path d="M-2-1h19v19H-2z"/>
        <path fill="#FFF" fill-rule="nonzero" d="M6.55 2.88c0-.523.427-.95.95-.95.523 0 .95.427.95.95l-.008 3.095 1.433 1.417V2.958A2.372 2.372 0 0 0 7.5.583c-1.22 0-2.209.919-2.343 2.098L6.55 4.075V2.879zm6.492 4.828h-1.346c0 .46-.08.895-.214 1.299l1.006 1.005a5.15 5.15 0 0 0 .554-2.304zM1.492 1.264L.374 2.38l4.75 4.75v.578A2.372 2.372 0 0 0 7.5 10.083c.182 0 .348-.023.515-.063l1.314 1.314a4.353 4.353 0 0 1-1.829.412c-2.185 0-4.196-1.663-4.196-4.038H1.958c0 2.7 2.154 4.932 4.75 5.32v2.597h1.584v-2.597a5.644 5.644 0 0 0 2.018-.712l3.325 3.325 1.117-1.116-13.26-13.26z"/>
    </g>
</svg>
