<?xml version="1.0" encoding="UTF-8"?>
<svg width="106px" height="87px" viewBox="0 0 106 87" version="1.1" xmlns="http://www.w3.org/2000/svg" xmlns:xlink="http://www.w3.org/1999/xlink">
    <!-- Generator: Sketch 53.2 (72643) - https://sketchapp.com -->
    <title>Group 3</title>
    <desc>Created with Sketch.</desc>
    <defs>
        <path d="M0.757802433,3.55793157 C0.757802433,5.17401337 2.06907936,6.48100849 3.68681201,6.48100849 C5.30159797,6.48100849 6.6128749,5.17401337 6.6128749,3.55793157 C6.6128749,1.94184976 5.30159797,0.634854645 3.68681201,0.634854645 C2.06907936,0.634854645 0.757802433,1.94184976 0.757802433,3.55793157" id="path-1"></path>
        <linearGradient x1="0%" y1="50%" x2="100%" y2="50%" id="linearGradient-3">
            <stop stop-color="#D4EBDE" offset="0%"></stop>
            <stop stop-color="#B0DCDF" offset="100%"></stop>
        </linearGradient>
    </defs>
    <g id="Page-1" stroke="none" stroke-width="1" fill="none" fill-rule="evenodd">
        <g id="Mobile-not-supported-Copy" transform="translate(-469.000000, -73.000000)">
            <g id="Group-4" transform="translate(0.000000, 73.000000)">
                <g id="Group-3" transform="translate(471.000000, 2.000000)">
                    <g id="Group-2" transform="translate(3.000000, 9.000000)">
                        <path d="M80.2645339,7.30769231 C80.2645339,7.30769231 110.632934,66.1192042 97.8665823,74.5459622 C85.0974502,82.9670493 35.1304348,52.0613758 35.1304348,52.0613758 L37.7860361,43.6374533 L65.4877116,44.6780388 L55.0599578,21.0933239 L80.2645339,7.30769231" id="Fill-27" fill="#F0AB85"></path>
                        <path d="M96.1338367,57 C75.7223222,43.9732909 39.3193728,46.3037056 38.9347757,46.3290057 L38.7898551,44.0576244 C40.4007037,43.9564242 76.3103656,41.6484984 97.3405797,55.077197 L96.1338367,57" id="Fill-29" fill="#EC967C"></path>
                        <path d="M23.6137907,2.8440902 C23.4961328,1.24162579 22.1794842,0 20.5967046,0 L3.0236485,0 C1.26158055,0 -0.127903876,1.52290944 0.00936373831,3.30437253 L2.89478503,41.0134286 C3.01804574,42.6102106 4.33189291,43.8461538 5.91187117,43.8461538 L23.3224472,43.8461538 C25.0789124,43.8461538 26.4683968,42.3317682 26.3395333,40.5531463 L23.6137907,2.8440902 Z" id="Fill-33" fill="#A0D2BB"></path>
                        <path d="M32.302318,39.3422554 C31.2238702,39.2540335 27.5532161,38.5909462 21.8520471,33.7529703 C16.7322289,29.4130213 8.91629128,17.0420322 5.85507246,24.0058717 C7.75639828,31.2059182 9.11850023,39.9427336 9.11850023,39.9427336 C10.6996619,44.1546185 17.1169876,47.9566984 21.6077113,49.5219259 L36.1021611,52.6153846 C36.1021611,52.6153846 42.1291112,48.0392286 42.4492754,47.8713223 L41.3146585,44.9486157 C37.9866362,43.5854448 34.9647358,41.6673297 32.302318,39.3422554" id="Fill-34" fill="#F0AB85"></path>
                        <path d="M28.176525,39.6578506 C28.176525,39.6578506 27.7630937,39.7471527 27.0200738,39.7385106 C27.3872471,40.6574582 27.6937066,41.5850479 27.9712549,42.5155184 C30.4287135,45.1196834 32.8052205,47.7958662 35.2308768,50.4230769 C36.6417471,48.7119331 38.6192785,46.3122988 38.7898551,46.1653824 L26.525691,25.5769231 C26.525691,25.5769231 23.336777,26.0954515 24.3515629,31.0819666 C25.3634576,36.0713623 28.176525,39.6578506 28.176525,39.6578506" id="Fill-35" fill="#F0AB85"></path>
                        <g id="Group-38" transform="translate(8.050725, 9.307692)">
                            <mask id="mask-2" fill="white">
                                <use xlink:href="#path-1"></use>
                            </mask>
                            <g id="Clip-37"></g>
                            <path d="M0.757802433,3.55793157 C0.757802433,5.17401337 2.06907936,6.48100849 3.68681201,6.48100849 C5.30159797,6.48100849 6.6128749,5.17401337 6.6128749,3.55793157 C6.6128749,1.94184976 5.30159797,0.634854645 3.68681201,0.634854645 C2.06907936,0.634854645 0.757802433,1.94184976 0.757802433,3.55793157" id="Fill-36" fill="url(#linearGradient-3)" mask="url(#mask-2)"></path>
                        </g>
                    </g>
                    <path d="M0.262295082,0.05 L31.6885246,32" id="Line-7" stroke="#E43E52" stroke-width="2" stroke-linecap="square"></path>
                    <path d="M0.262295082,0.05 L31.6885246,32" id="Line-7" stroke="#E43E52" stroke-width="2" stroke-linecap="square" transform="translate(16.000000, 16.000000) scale(-1, 1) translate(-16.000000, -16.000000) "></path>
                </g>
            </g>
        </g>
    </g>
</svg>