<svg xmlns="http://www.w3.org/2000/svg" width="12" height="16" viewBox="0 0 12 16">
    <path fill="#FFFFFF" fill-rule="nonzero" d="M6 10.105c1.423 0 2.571-1.128 2.571-2.526V2.526C8.571 1.128 7.423 0 6 0 4.577 0 3.429 1.128 3.429 2.526V7.58c0 1.398 1.148 2.526 2.571 2.526zm-.857-7.579c0-.463.386-.842.857-.842s.857.38.857.842V7.58A.852.852 0 0 1 6 8.42a.852.852 0 0 1-.857-.842V2.526zm5.143 5.053c0 2.324-1.92 4.21-4.286 4.21-2.366 0-4.286-1.886-4.286-4.21H0c0 2.973 2.237 5.415 5.143 5.827V16h1.714v-2.594C9.763 12.994 12 10.552 12 7.58h-1.714z"/>
</svg>
