<svg xmlns="http://www.w3.org/2000/svg" width="24" height="20" viewBox="0 0 24 20">
    <g fill="none" fill-rule="evenodd">
        <path fill="#FFF" fill-rule="nonzero" d="M5.217 0v.645H3.789C2.045.645.632 2.09.632 3.871v12.258c0 1.782 1.413 3.226 3.157 3.226l1.428-.001V20H3.789C1.697 20 0 18.267 0 16.129V3.871C0 1.733 1.697 0 3.79 0h1.427zm14.994 0C22.303 0 24 1.733 24 3.871v12.258C24 18.267 22.303 20 20.21 20h-1.428v-.646h1.429c1.744 0 3.157-1.443 3.157-3.225V3.871c0-1.782-1.413-3.226-3.157-3.226h-1.429V0h1.429z"/>
        <path fill="#FFF" fill-rule="nonzero" d="M5.217 0v.645H3.789C2.045.645.632 2.09.632 3.871v12.258c0 1.782 1.413 3.226 3.157 3.226l1.428-.001V20H3.789C1.697 20 0 18.267 0 16.129V3.871C0 1.733 1.697 0 3.79 0h1.427zm14.994 0C22.303 0 24 1.733 24 3.871v12.258C24 18.267 22.303 20 20.21 20h-1.428v-.646h1.429c1.744 0 3.157-1.443 3.157-3.225V3.871c0-1.782-1.413-3.226-3.157-3.226h-1.429V0h1.429z"/>
        <circle cx="12" cy="10" r="5" fill="#F00"/>
    </g>
</svg>
