<svg xmlns="http://www.w3.org/2000/svg" width="24" height="17" viewBox="0 0 24 17">
    <path fill="#FFF" fill-rule="nonzero" d="M5.575 1.329c-2.937.996-6.096 3.92-3.955 7.1.632.94 1.777 1.77 2.785 2.257.81.39 1.575.345 1.24 1.503-.174.605-.637 1.248-2.624 1.792 3.354.524 5.207-1.034 5.884-1.968 1.318 1.614 3.308 2.171 5.424 2.367 2.916.268 1.999.746 3.768 1.298 1.697.53 2.969.485 4.645.09-1.42-.191-2.304-.579-3.108-1.354-.603-.582.028-.718.35-.873 4.783-2.306 3.7-6.999-.993-8.591a10.233 10.233 0 0 0-.747-.222c-.577-1.391-1.967-2.65-4.177-3.4-2.666-.904-5.825-.904-8.492 0zm4.661 6.634H8.97c-.02-1.108.112-1.504 1.011-2.237.57-.463 1.42-1.148.588-1.878-.458-.408-1.303-.376-1.766.014-.238.203-.402.51-.492.925l-1.276-.162c.037-.594.289-1.097.756-1.51.954-.846 2.802-.833 3.752.006 1.473 1.301.465 2.514-.664 3.454-.575.477-.656.638-.643 1.388zM8.97 9.831V8.44h1.266v1.39H8.97zm1.608 1.9c1.158-.119 2.311-.165 3.49-.568 2.982-1.02 4.48-2.97 4.483-4.918a6.562 6.562 0 0 1 1.488.74c1.343.906 2.283 2.278 1.265 3.792-1.5 2.228-3.912 1.24-3.24 3.521-.6-.408-1.28-.91-1.941-1.054-1.274-.275-2.589-.183-3.784-.591a6.181 6.181 0 0 1-1.761-.922z"/>
</svg>
