<svg xmlns="http://www.w3.org/2000/svg" width="22" height="18" viewBox="0 0 22 18">
    <path fill="#FFF" fill-rule="nonzero" d="M20.853 1.767c-.296 0-.574.003-.852.01v-.96h-.31C13.669.817 11.651 2.28 11 3.07 10.349 2.28 8.33.817 2.308.817h-.31v.96a30.45 30.45 0 0 0-.851-.01H.444v13.885h.703c7.429 0 8.945 1.732 9.161 2.054h1.395c.235-.337 1.78-2.054 9.15-2.054h.703V1.767h-.703zM10.535 15.026c-1.037-.778-3.213-1.68-7.762-1.74V1.61c6.37.084 7.6 1.858 7.762 2.146v11.27zm8.692-1.74c-4.549.06-6.725.961-7.762 1.74V3.76c.176-.316 1.44-2.066 7.762-2.149v11.675z"/>
</svg>
