<svg xmlns="http://www.w3.org/2000/svg" width="20" height="16" viewBox="0 0 20 16">
    <path fill="#FFF" fill-rule="nonzero" d="M19.117 6.46c.383.449.383 1.09.383 2.374v4.216c0 1.24 0 1.925-.383 2.375-.427.492-1.13.492-2.195.492H7.91c-2.343-.022-2.514-.364-2.514-2.825 1.492-.47 8.927-2.738 8.97-2.738 1.129-.343 1.874-.578 2.173-1.22.277-.6.064-1.327-.341-2.653l-.15-.514h.853c1.15 0 1.81.022 2.216.492zm-3.686-.108c.34 1.177.554 1.82.298 2.354-.256.578-.937.792-1.939 1.091-.064 0-8.18 2.482-8.245 2.504l-.255.085c-.725.214-1.13.321-1.492.321-.98 0-1.214-.77-1.683-2.332L.922 6.417C.56 5.197.368 4.577.602 4.063c.256-.578.938-.77 1.96-1.091l.171-.043c.064-.021 8.181-2.482 8.245-2.503.682-.214 1.15-.343 1.555-.343 1.002 0 1.236.77 1.705 2.311l1.193 3.958z"/>
</svg>
