<svg xmlns="http://www.w3.org/2000/svg" width="16" height="20" viewBox="0 0 16 20">
    <g fill="#FFF" fill-rule="nonzero">
        <path d="M8.928 13.193v-9.67l2.295 2.134L12.5 4.312 8.626.694C8.278.37 7.722.37 7.351.694L3.5 4.312l1.276 1.345 2.295-2.134v9.67h1.856z"/>
        <path d="M.046 7.952v9.577c0 .904.72 1.623 1.624 1.623h12.66c.905 0 1.624-.719 1.624-1.623V7.952c0-.904-.72-1.623-1.624-1.623h-3.084v1.855H14.1v9.113H1.9V8.184h2.853V6.33H1.67c-.905 0-1.624.719-1.624 1.623z"/>
    </g>
</svg>
