<svg xmlns="http://www.w3.org/2000/svg" width="10" height="22" viewBox="0 0 10 22">
    <path fill="#FFF" fill-rule="nonzero" d="M4.89 4.118a1.953 1.953 0 1 0 0-3.907 1.953 1.953 0 0 0 0 3.907zm-3.84 9.244c-.396 0-.796-.215-.8-.655L.259 6.59c-.042-.987.504-1.58 1.358-1.58h1.462c.218 0 .413.127.504.325l.754 1.642.32.7a.25.25 0 0 0 .229.146.25.25 0 0 0 .228-.146l.32-.7.754-1.642a.555.555 0 0 1 .504-.325h1.462c.854 0 1.4.593 1.358 1.58l.01 6.116a.6.6 0 0 1-.356.555v.78h.2c.24 0 .433.194.433.434v3.666c0 .24-.193.434-.433.434h-1.29a.432.432 0 0 1-.433-.434v-3.666c0-.24.194-.434.434-.434h.2v-.786a.565.565 0 0 1-.327-.516l-.009-4.849-.633-.004-.02 12.493c0 .629-.531.942-1.062.942-.534 0-1.067-.315-1.067-.946v-6.178h-.542v6.178c0 .63-.534.946-1.067.946-.531 0-1.062-.315-1.062-.942l-.02-12.493-.634-.003-.008 4.858c0 .411-.387.62-.776.62zm4.267-8.35c.137 0 .226.141.169.264l-.43.9.196.408-.362.792-.362-.792.195-.408-.429-.9a.184.184 0 0 1 .167-.265h.856z"/>
</svg>
