<svg xmlns="http://www.w3.org/2000/svg" width="14" height="24" viewBox="0 0 14 24">
    <path fill="#3293F6" fill-rule="nonzero" d="M13.39 11.813c-.338 0-.611.288-.611.645 0 1.489-.654 2.955-1.795 4.022-1.067.998-2.47 1.57-3.85 1.57h-.268c-1.38 0-2.783-.572-3.85-1.57-1.14-1.067-1.795-2.533-1.795-4.022 0-.357-.273-.646-.61-.646-.338 0-.611.29-.611.646 0 1.859.804 3.677 2.207 4.989 1.165 1.09 2.667 1.756 4.182 1.873v3.014H3.554c-.337 0-.61.29-.61.646 0 .356.273.645.61.645h6.892c.337 0 .61-.289.61-.645 0-.357-.273-.646-.61-.646H7.61V19.32c1.516-.117 3.018-.784 4.183-1.873C13.196 16.135 14 14.317 14 12.458c0-.357-.273-.646-.61-.646zm-6.276-10.5h.21c1.433 0 2.739 1.499 2.739 3.146v6.832c0 1.647-1.306 3.146-2.739 3.146h-.21c-1.434 0-2.739-1.5-2.739-3.146V4.46c0-1.647 1.305-3.146 2.739-3.146zm-.01 14.437h.229c2.153 0 4.042-2.075 4.042-4.44V4.44C11.375 2.075 9.486 0 7.333 0h-.228C4.95 0 3.062 2.075 3.062 4.44v6.87c0 2.365 1.89 4.44 4.043 4.44z"/>
</svg>
