<svg xmlns="http://www.w3.org/2000/svg" width="100" height="20" viewBox="0 0 100 20">
    <g fill="#FFF" fill-rule="nonzero">
        <path d="M5.453 3.446a1 1 0 0 0-.305.723v1.034c0 .275.102.551.305.723.203.207.44.31.711.31h7.147c.407 0 .813.07 1.186.242.372.172.711.379.982.654.27.276.474.62.643 1 .17.378.238.792.238 1.205v3.136c0 .413-.068.827-.238 1.206-.169.379-.372.723-.643.999s-.61.482-.982.655a2.812 2.812 0 0 1-1.186.24H0v-3.135h10.229c.27 0 .542-.103.711-.31a1 1 0 0 0 .305-.723V10.37c0-.276-.102-.551-.305-.724a.967.967 0 0 0-.711-.31H3.082c-.406 0-.813-.069-1.185-.24-.373-.173-.712-.38-.982-.655-.271-.276-.475-.62-.644-1a2.946 2.946 0 0 1-.237-1.206V3.101c0-.413.068-.827.237-1.206.17-.379.373-.724.644-1 .27-.275.61-.482.982-.654A2.812 2.812 0 0 1 3.082 0h13.311v3.135H6.164a1.337 1.337 0 0 0-.71.31zM23.168 19.672h-5.135V7.192c0-.412.068-.825.238-1.203.17-.378.374-.722.646-.997s.612-.481.986-.653c.375-.172.783-.24 1.19-.24h10.272c.408 0 .816.068 1.19.24.375.172.715.378.987.653s.476.619.646.997c.17.378.238.79.238 1.203v5.192c0 .412-.068.825-.238 1.203-.17.378-.374.722-.646.997s-.612.481-.986.653c-.375.172-.783.24-1.19.24h-7.177V12.35h4.115c.272 0 .544-.103.714-.309a.995.995 0 0 0 .307-.722V8.189c0-.275-.102-.55-.307-.721a.974.974 0 0 0-.714-.31H24.19c-.272 0-.544.103-.714.31a.995.995 0 0 0-.307.721v11.483zM40.164 3.129h-4.918V0h4.918v3.129zm-4.918 1.03h4.918v11.415h-4.918V4.16zM53.279 7.254h-6.256v4.16c0 .275.103.55.31.722.208.206.45.31.726.31h5.22v3.128h-8.365c-.415 0-.83-.069-1.21-.24-.38-.173-.726-.38-1.002-.654-.277-.275-.484-.619-.657-.997a2.883 2.883 0 0 1-.242-1.203V0h5.22v4.16h6.256v3.094zM59.234 11.465c0 .276.102.552.306.725.204.207.442.31.714.31h4.116c.272 0 .544-.103.714-.31.204-.208.306-.45.306-.725V8.322c0-.276-.102-.552-.306-.725a.972.972 0 0 0-.714-.31h-4.116V4.143h7.177c.408 0 .816.069 1.19.242.374.172.714.38.987.656.272.276.476.621.646 1.001.17.38.238.794.238 1.209v5.214c0 .414-.068.829-.238 1.209-.17.38-.374.725-.646 1-.273.277-.613.484-.987.657a2.828 2.828 0 0 1-1.19.242H57.159c-.408 0-.816-.07-1.19-.242-.374-.173-.714-.38-.986-.656s-.477-.622-.647-1.001a2.947 2.947 0 0 1-.238-1.21V0h5.136v11.465zM82.57 8.268c0-.276-.103-.551-.307-.724a.973.973 0 0 0-.714-.31h-4.115c-.273 0-.545.104-.715.31a.998.998 0 0 0-.306.724v3.136c0 .276.102.551.306.724.204.206.442.31.715.31h4.115v3.136h-7.177c-.408 0-.816-.07-1.19-.241-.374-.173-.714-.38-.986-.655-.272-.276-.476-.62-.646-1a2.936 2.936 0 0 1-.239-1.206V7.2c0-.414.068-.827.239-1.206.17-.38.374-.724.646-1 .272-.275.612-.482.986-.654a2.833 2.833 0 0 1 1.19-.242h10.272c.408 0 .816.07 1.19.242s.715.379.987.654c.272.276.476.62.646 1 .17.379.238.792.238 1.206v8.34h-5.136V8.267zM89.344 0h4.918v15.574h-4.918zM95.082 0H100v15.574h-4.918z"/>
    </g>
</svg>
