<svg xmlns="http://www.w3.org/2000/svg" width="16" height="20" viewBox="0 0 16 20">
    <path fill="#FFF" fill-rule="evenodd" d="M3.552 10.584c-1.595 0-2.892 1.277-2.892 2.848a.76.76 0 0 0 .764.754h9.217a.757.757 0 0 0 .758-.754c0-1.571-1.297-2.848-2.892-2.848H3.552zM.993 17.33h10c.21 0 .387.166.387.377a1.65 1.65 0 0 1-1.663 1.641H2.275A1.652 1.652 0 0 1 .61 17.707c0-.21.168-.377.382-.377zM1.64 14.7h8.717c.566 0 1.023.45 1.023 1.009 0 .561-.457 1.015-1.023 1.015H1.64A1.025 1.025 0 0 1 .61 15.708c0-.558.463-1.01 1.029-1.01zM5.389.25l1.534 4.837h8.994l-.63 5.927-.434 4.245-.341 3.16c-.054.544-.528.963-1.094.963h-2.051c.433-.416.711-1 .711-1.635a.988.988 0 0 0-.458-.83c.277-.3.458-.691.458-1.13 0-.494-.233-.921-.576-1.23a1.37 1.37 0 0 0 .564-1.09c0-1.921-1.59-3.492-3.55-3.492h-1.97l-.51-4.888h.058L4.636.487 5.39.25z"/>
</svg>
