<svg xmlns="http://www.w3.org/2000/svg" width="16" height="18" viewBox="0 0 16 18">
    <path fill="#FFF" fill-rule="evenodd" d="M15.046 12.577c-.36-.135-1.531-.811-1.531-3.807V7.42c0-3.74-2.118-5-3.852-5.429 0-.067.023-.135.023-.202 0-2.382-3.604-2.386-3.604 0 0 .067 0 .135.022.202-1.734.428-3.852 1.69-3.852 5.429V8.77c0 2.996-1.17 3.672-1.531 3.807-.428.157-.721.585-.721 1.058v.992c0 .292.18.54.473.63.068.023 1.824.608 4.843.834.758 2.528 4.33 2.556 5.158.022 3.018-.225 4.775-.81 4.843-.833.27-.09.473-.36.473-.631v-1.014c-.023-.495-.316-.9-.744-1.058z"/>
</svg>
