<svg xmlns="http://www.w3.org/2000/svg" width="18" height="16" viewBox="0 0 18 16">
    <path fill="#FFF" fill-rule="nonzero" d="M17.637 6.54C18 6.967 18 7.575 18 8.79v3.994c0 1.175 0 1.824-.363 2.25-.404.466-1.07.466-2.08.466H7.02c-2.22-.02-2.381-.345-2.381-2.676 1.412-.446 8.456-2.594 8.497-2.594 1.07-.325 1.776-.548 2.059-1.156.262-.567.06-1.256-.323-2.513l-.142-.487h.808c1.09 0 1.715.02 2.099.467zm-3.492-.1c.323 1.114.525 1.722.283 2.229-.243.547-.889.75-1.837 1.034-.06 0-7.75 2.351-7.811 2.371l-.242.081c-.687.203-1.07.304-1.413.304-.929 0-1.15-.73-1.595-2.209L.4 6.5C.057 5.345-.125 4.757.097 4.27c.243-.547.888-.73 1.857-1.034l.162-.04c.06-.02 7.75-2.351 7.81-2.372C10.574.622 11.017.5 11.4.5c.949 0 1.17.73 1.615 2.19l1.13 3.75z"/>
</svg>
