<svg xmlns="http://www.w3.org/2000/svg" width="20" height="21" viewBox="0 0 20 21">
    <path fill="#FFF" fill-rule="nonzero" d="M19.162 11.997l-.6-.648c.07-.626.07-1.258 0-1.885l.6-.643c.358-.382 1-.888.8-1.37l-.822-1.998c-.2-.482-1.015-.382-1.537-.4l-.885-.032A8.643 8.643 0 0 0 15.39 3.69l-.028-.886c-.016-.52.086-1.337-.4-1.537l-1.999-.83c-.48-.2-.99.45-1.37.8l-.645.6a8.493 8.493 0 0 0-1.887 0l-.641-.6c-.38-.356-.888-1-1.37-.8l-1.998.822c-.482.2-.38 1.018-.4 1.537l-.032.884a8.643 8.643 0 0 0-1.333 1.329l-.884.028c-.52.016-1.337-.086-1.537.4l-.83 1.999c-.2.48.45.987.8 1.367l.6.645c-.07.627-.07 1.26 0 1.887l-.6.644c-.356.38-1 .885-.8 1.367l.822 1.999c.2.482 1.018.382 1.54.4l.88.03c.394.492.84.94 1.332 1.335l.026.881c.016.52-.086 1.34.4 1.54l1.999.829c.48.2.987-.45 1.367-.8l.647-.6c.626.07 1.258.07 1.883 0l.644.6c.382.358.885 1 1.367.8l1.999-.822c.482-.2.382-1.015.4-1.539l.03-.883c.492-.393.94-.839 1.335-1.33l.883-.027c.52-.016 1.34.086 1.54-.4l.829-1.999c.208-.472-.444-.98-.798-1.363zm-9.142 3.138c-2.53 0-4.58-2.12-4.58-4.737S7.49 5.66 10.02 5.66c2.53 0 4.58 2.12 4.58 4.737 0 2.616-2.05 4.737-4.58 4.737z"/>
</svg>
