<svg xmlns="http://www.w3.org/2000/svg" width="43" height="20" viewBox="0 0 43 20">
    <g fill="#FFF" fill-rule="nonzero">
        <path d="M1.133 10.767c.334.333.767.633 1.234.833.466.2.966.3 1.5.3h9c.366 0 .666.133.9.367.233.233.366.566.366.9v.466c2.134-.3 4.3-.766 6.434-1.4V11.9a3.841 3.841 0 0 0-1.133-2.733 4.023 4.023 0 0 0-1.234-.834c-.467-.2-.967-.3-1.5-.3h-9a1.23 1.23 0 0 1-.9-.366 1.288 1.288 0 0 1-.367-.9v-1.3c0-.367.134-.667.367-.9.233-.234.567-.367.9-.367h12.867V.333h-16.7c-.534 0-1.034.1-1.5.3-.5.2-.9.5-1.234.834A4.023 4.023 0 0 0 .3 2.7c-.2.467-.3.967-.3 1.5v3.867C0 8.6.1 9.1.3 9.567c.2.466.5.866.833 1.2zM12.933 15.833H0V19.7h16.733a3.841 3.841 0 0 0 2.733-1.133c.334-.334.634-.767.834-1.234.2-.466.3-.966.3-1.5V15c-2.6.533-5.167.8-7.667.833zM41.333 6.467a4.023 4.023 0 0 0-1.233-.834 4.72 4.72 0 0 0-.733-.233A37.382 37.382 0 0 1 34.4 9.167h.333c.367 0 .667.133.9.366.234.234.367.567.367.9v3.9c0 .367-.133.667-.367.9a1.288 1.288 0 0 1-.9.367H29.6a1.23 1.23 0 0 1-.9-.367 1.288 1.288 0 0 1-.367-.9V12.4c-1.233.533-2.5 1-3.8 1.4-.866.267-1.733.5-2.633.7v1.1a3.841 3.841 0 0 0 1.133 2.733c.334.334.767.634 1.234.834.466.2.966.3 1.5.3h12.866a3.841 3.841 0 0 0 2.733-1.133C41.7 18 42 17.566 42.2 17.1c.2-.467.3-.967.3-1.5V9.2c0-.533-.1-1.033-.3-1.5-.267-.467-.533-.867-.867-1.233zM33.8 5.333h-4.2v2.834c1.467-.867 2.9-1.8 4.2-2.834zM28.3 8.9V.2h-6.433v11.5c2.266-.767 4.433-1.7 6.433-2.8z"/>
    </g>
</svg>
