<svg xmlns="http://www.w3.org/2000/svg" width="18" height="22" viewBox="0 0 18 22">
    <path fill="#FFF" fill-rule="evenodd" d="M17.25 7.323c.049 1.645.02 3.293.008 4.94a1.206 1.206 0 0 1-.166.581c-.283.474-1.045.566-1.42.08a1.06 1.06 0 0 1-.221-.68c.004-1.279.002-2.558.002-3.838 0-.16.006-.32-.002-.48-.01-.202-.05-.223-.269-.227-.174-.005-.242.069-.224.236.004.037 0 .075 0 .113v7.169c.002.546 0 1.45.002 1.995 0 1.76.002 1.37 0 3.129 0 .187.023.39-.038.56-.3.813-1.166 1.032-1.82.615-.4-.257-.524-.659-.523-1.117.004-2.963.002-4.136.002-7.1 0-.065.003-.131 0-.197-.013-.196-.07-.24-.265-.244-.176-.003-.2.101-.199.238v.253l-.001 7.015c0 .206-.013.403-.098.604-.187.441-.515.692-.978.735-.517.048-.93-.143-1.185-.627-.145-.275-.123-.566-.123-.854-.001-4.601 0-7.41.001-12.01 0-.114.003-.227-.006-.34-.005-.05-.031-.14-.057-.143-.128-.018-.265-.037-.386-.007-.05.012-.09.152-.092.234-.01.404-.003.809-.004 1.213 0 .24-.061.449-.234.641-.254.282-.85.309-1.224.056-.824-.558-1.65-1.111-2.48-1.66-.352-.233-.514-.55-.427-.96.042-.198-.032-.296-.18-.392-.343-.224-.683-.456-1.024-.685l-2.54-1.71a14.724 14.724 0 0 1-.547-.386c-.168-.125-.18-.195-.078-.322.105-.132.171-.134.333-.023.557.382 1.115.761 1.673 1.142l2.23 1.517c.108.073.228.13.334.205.101.073.18.067.305.026.309-.1.62-.109.91.108.315.234.644.45.972.666.146.096.186.07.207-.107.167-1.41 1.156-1.988 2.233-2.162.516-.084 1.056-.026 1.584-.034.138-.002.212.054.282.181.225.399.48.78.714 1.175.05.083.087.086.145.027a.717.717 0 0 0 .103-.126c.21-.344.418-.688.623-1.034.087-.149.193-.237.383-.23.368.016.737.015 1.105.008.44-.008.856.081 1.26.248.997.412 1.376 1.124 1.4 1.985zm-4.973-2.708c-1.07 0-2.03-.858-2.014-1.992.017-1.316 1.005-2.025 1.982-2.012 1.089.015 1.998.75 2.003 1.982.053 1.158-.932 2.021-1.971 2.022z"/>
</svg>
