<svg xmlns="http://www.w3.org/2000/svg" width="17" height="18" viewBox="0 0 17 18">
    <g fill="#FFF" fill-rule="nonzero">
        <path d="M16.774 2.68a.773.773 0 0 0 0-1.094L15.68.493a.772.772 0 0 0-1.093 0l-1.092 1.093 2.185 2.186 1.093-1.093zM0 3.358V15.72c0 .853.692 1.546 1.545 1.546H13.91c.853 0 1.546-.693 1.546-1.546V5.067l-1.546 1.545v9.11H1.545V3.357h9.062l1.546-1.546H1.545C.692 1.812 0 2.504 0 3.358z"/>
        <path d="M5.298 9.783l7.65-7.65 2.186 2.185-7.65 7.65zM3.113 14.153l3.825-1.639-2.186-2.186z"/>
    </g>
</svg>
