<svg xmlns="http://www.w3.org/2000/svg" xmlns:xlink="http://www.w3.org/1999/xlink" width="168" height="35" viewBox="0 0 168 35">
    <defs>
        <path id="a" d="M.861.09H28.34v27.602H.86z"/>
        <path id="b" d="M0 34.962h167.818V0H0z"/>
    </defs>
    <g fill="none" fill-rule="evenodd">
        <mask id="c" fill="#fff">
            <use xlink:href="#b"/>
        </mask>
        <path fill="#FFF" d="M9.085 6.054c-.332.356-.498.79-.498 1.306V9.2c0 .516.166.952.498 1.307.333.357.738.534 1.22.534h12.021c.71 0 1.38.147 2.01.44a5.26 5.26 0 0 1 1.63 1.179 5.669 5.669 0 0 1 1.1 1.747 5.65 5.65 0 0 1 .412 2.155v5.519c0 .76-.136 1.479-.411 2.153a5.676 5.676 0 0 1-1.1 1.749 5.256 5.256 0 0 1-1.631 1.177c-.63.295-1.3.441-2.01.441H.001v-5.52h17.174c.481 0 .886-.179 1.219-.535.33-.354.497-.79.497-1.305V18.4c0-.516-.166-.952-.497-1.306a1.604 1.604 0 0 0-1.219-.533H5.152c-.71 0-1.38-.15-2.01-.442a5.26 5.26 0 0 1-1.63-1.178 5.643 5.643 0 0 1-1.1-1.749A5.661 5.661 0 0 1 0 11.041V5.52c0-.76.137-1.477.41-2.151a5.643 5.643 0 0 1 1.1-1.749A5.26 5.26 0 0 1 3.142.441c.63-.295 1.3-.44 2.01-.44h22.326v5.518H10.304c-.48 0-.886.18-1.219.535M37.88 34.962h-8.588V12.88c0-.76.137-1.477.412-2.152a5.697 5.697 0 0 1 1.099-1.748 5.254 5.254 0 0 1 1.632-1.177c.63-.295 1.3-.443 2.01-.443h17.174c.71 0 1.38.148 2.01.443.63.293 1.173.686 1.63 1.177a5.7 5.7 0 0 1 1.1 1.748c.276.675.412 1.392.412 2.152v9.2c0 .76-.136 1.48-.411 2.154a5.7 5.7 0 0 1-1.1 1.749 5.256 5.256 0 0 1-1.631 1.177c-.63.294-1.3.441-2.01.441H39.597v-5.52h6.87c.48 0 .887-.179 1.219-.533.332-.356.498-.792.498-1.307v-5.52c0-.515-.166-.952-.498-1.308a1.611 1.611 0 0 0-1.219-.533h-6.87c-.48 0-.888.18-1.219.533-.333.356-.498.793-.498 1.309v20.24zM58.357 27.6h8.587V7.36h-8.587zM58.357 5.556h8.587V0h-8.587zM87.707 12.88H77.402v7.36c0 .515.165.952.497 1.307.333.356.74.535 1.219.535h8.589V27.6h-13.74c-.71 0-1.379-.147-2.01-.442a5.234 5.234 0 0 1-1.63-1.177 5.66 5.66 0 0 1-1.1-1.748 5.642 5.642 0 0 1-.411-2.152V0h8.586v7.36h10.305v5.52zM98.093 20.24c0 .516.167.952.499 1.307.332.355.738.534 1.219.534h6.87c.482 0 .886-.179 1.22-.534.33-.355.497-.791.497-1.306v-5.52c0-.514-.167-.952-.498-1.308a1.609 1.609 0 0 0-1.218-.533H99.81V7.36h12.022c.71 0 1.379.148 2.01.443.629.293 1.173.687 1.63 1.177a5.676 5.676 0 0 1 1.1 1.749c.275.674.412 1.391.412 2.151v9.201a5.65 5.65 0 0 1-.412 2.153 5.653 5.653 0 0 1-1.1 1.747 5.238 5.238 0 0 1-1.63 1.179c-.631.295-1.3.44-2.01.44H94.658c-.71 0-1.38-.145-2.008-.44a5.228 5.228 0 0 1-1.632-1.179 5.626 5.626 0 0 1-1.099-1.747 5.65 5.65 0 0 1-.413-2.153V.001h8.587v20.24zM137.96 14.721c0-.515-.166-.95-.497-1.307a1.61 1.61 0 0 0-1.22-.534h-6.87c-.48 0-.888.18-1.219.534-.332.356-.499.792-.499 1.307v5.52c0 .515.167.95.5 1.307a1.6 1.6 0 0 0 1.218.533h6.87v5.52H124.22c-.709 0-1.378-.147-2.009-.442a5.234 5.234 0 0 1-1.63-1.177 5.676 5.676 0 0 1-1.1-1.748 5.668 5.668 0 0 1-.412-2.153V12.88c0-.76.137-1.476.411-2.152a5.653 5.653 0 0 1 1.1-1.747 5.216 5.216 0 0 1 1.631-1.179c.63-.294 1.3-.441 2.01-.441h17.174c.71 0 1.38.147 2.01.441.63.294 1.173.687 1.632 1.179.457.49.823 1.073 1.098 1.747.276.676.413 1.392.413 2.152V27.6h-8.588v-12.88zM148.773 27.6h8.587V0h-8.587zM159.232 27.6h8.587V0h-8.587z" mask="url(#c)"/>
    </g>
</svg>
