<?xml version="1.0" encoding="UTF-8"?>
<svg width="1024px" height="510px" viewBox="0 0 1024 510" version="1.1" xmlns="http://www.w3.org/2000/svg" xmlns:xlink="http://www.w3.org/1999/xlink">
    <!-- Generator: Sketch 53.2 (72643) - https://sketchapp.com -->
    <title>Group</title>
    <desc>Created with Sketch.</desc>
    <defs>
        <polyline id="path-1" points="62.2777143 57 0 57 0 52.2422259 59.5103024 52.2422259 85.9517844 0 90 2.2139236 62.2777143 57"></polyline>
        <linearGradient x1="0%" y1="49.9996008%" x2="100.00073%" y2="49.9996008%" id="linearGradient-3">
            <stop stop-color="#D4EBDE" offset="0%"></stop>
            <stop stop-color="#B0DCDF" offset="100%"></stop>
        </linearGradient>
    </defs>
    <g id="Page-1" stroke="none" stroke-width="1" fill="none" fill-rule="evenodd">
        <g id="Mobile-not-supported-Copy" transform="translate(0.000000, -426.000000)">
            <g id="Group-4" transform="translate(0.000000, 73.000000)">
                <g id="Group" transform="translate(0.000000, 353.000000)">
                    <g id="Group-5" transform="translate(413.000000, 0.000000)">
                        <path d="M69.837831,55.8397732 C72.032631,56.1113683 74.1144633,56.0878443 75.3271364,55.3735706 C83.2740644,47.0246952 80.5490082,22.4357172 80.5490082,22.4357172 L71.2487739,15 L57.0240724,21.1568679 L53.3168892,34.670327 C52.327846,39.129191 53.6834577,46.9477076 56.9710467,50.3287455 C60.6113715,53.2564121 65.0609134,55.2495351 69.837831,55.8397732" id="Fill-40" fill="#F0AB85"></path>
                        <path d="M71.9229154,149.251845 C71.9229154,149.251845 75.0196296,153.62921 81.2130581,155.702129 C87.4042652,157.775048 133.510653,148.349541 133.510653,148.349541 L142.771917,149.295121 C147.614698,150.580417 152.755155,150.320762 157.437991,148.557266 L171,143.450701 L91.4473211,141.834343 L61,105 L71.9229154,149.251845" id="Fill-41" fill="#F0AB85"></path>
                        <path d="M45.2625841,64 C45.2625841,64 26.4001176,87.0153632 21.993404,102.148991 C17.5912499,117.28479 16,159 16,159 L55.6923382,159 C55.6923382,159 67.0886967,139.320637 75.9363197,121.463478 C78.5922024,116.107634 78.6947902,109.917789 76.18481,104.496788 C69.705824,90.5164262 59.9736667,71.2844699 59.9736667,71.2844699 L45.2625841,64" id="Fill-42" fill="#FAD473"></path>
                        <path d="M79.2296908,24.2358734 C82.1474361,24.9626358 77.4901324,-1.2935886 52.8406134,6.4202542 C35.5836399,11.8190606 36.4106809,27.7923702 37.2076898,36.6283872 C38.0670732,46.1734945 32.8714998,52.4713656 26.0079833,59.4518189 C20.2510384,65.3078892 20.3388249,76.0767848 16.5039419,81.871003 C11.7842636,88.9994596 6.78274455,88.5841668 3.04026838,95.8164467 C-0.875470583,103.386704 -1.4137403,112.642432 3.83265685,119.437329 C6.81277677,123.300877 13.7640797,132.616248 24.7604912,129.298324 C30.9332667,127.433924 32.5965895,117.131129 32.8668794,108.447533 C33.1094473,100.720436 37.0228761,93.5433814 43.3481229,88.7255431 C49.2829508,84.2103384 55.7560485,78.0251266 57.4886764,71.5682072 C60.8915575,58.9061949 53.9541156,32.3164109 53.9541156,32.3164109 C53.9541156,32.3164109 60.1754047,35.9148788 79.2296908,24.2358734 Z" id="Fill-53" fill="#1B2441"></path>
                        <path d="M43.3634263,22.8871645 C45.5102251,31.1948964 56.5566092,35.1804982 68.0328228,31.7926111 C79.5113852,28.4022126 85.7380414,19.187863 84.9300558,10.6114106 C83.8660516,-0.652246544 71.7368729,-1.68443452 60.2606593,1.70596395 C48.7844457,5.09636242 41.2189762,14.5794325 43.3634263,22.8871645" id="Fill-56" fill="#1B2441"></path>
                        <polyline id="Fill-39" fill="#EC967C" points="65 56.4925182 56.6264889 74 43 62.5061436 52.6140313 37 65 56.4925182"></polyline>
                        <path d="M51.92198,32.4594714 C53.1181525,31.5031819 55.0177345,32.0878226 56.1631261,33.765676 C57.3122792,35.4457029 57.2727829,37.5821407 56.0766104,38.5406036 C54.8823188,39.4968932 52.9846175,38.9122525 51.8354644,37.2322256 C50.688192,35.5543722 50.7276883,33.4179344 51.92198,32.4594714" id="Fill-54" fill="#F0AB85"></path>
                        <g id="Group-51" transform="translate(111.000000, 85.000000)">
                            <mask id="mask-2" fill="white">
                                <use xlink:href="#path-1"></use>
                            </mask>
                            <g id="Clip-50"></g>
                            <polyline id="Fill-49" fill="url(#linearGradient-3)" mask="url(#mask-2)" points="62.2777143 57 0 57 0 52.2422259 59.5103024 52.2422259 85.9517844 0 90 2.2139236 62.2777143 57"></polyline>
                        </g>
                    </g>
                    <rect id="Rectangle" fill="#F0F0F7" x="0" y="142" width="1024" height="368"></rect>
                    <g id="Group-6" transform="translate(441.000000, 92.000000)" fill="#F0AB85">
                        <path d="M0,14.4420933 C0,14.4420933 19.9008335,61 29.4711122,61 C39.0391998,61 92,38.2384056 92,38.2384056 L90.5911884,30.2930923 L36.5173613,39.499881 C36.5173613,39.499881 31.719076,26.6561687 28.3975232,11.9455609 C27.0829245,6.10931111 22.5869969,1.35180986 16.7326506,0.242239921 C3.94817814,-2.18604508 0,14.4420933 0,14.4420933" id="Fill-52"></path>
                        <path d="M120.195854,35.4731754 C120.329126,34.4155898 119.683099,33.4008792 118.603375,32.9762116 L108.117858,28.8602024 C105.522455,27.8414085 102.604039,27.7229916 99.9205421,28.5294517 L89.5231199,31.6491253 L88.1181238,31.6981254 L87,40.4405614 C89.0781292,39.7504766 90.2933829,39.3237673 90.2933829,39.3237673 L96.8711135,37.1636792 C96.8711135,37.1636792 111.21924,48.1560369 116.346798,38.1743064 C117.882806,48.06212 121,46.9637009 121,46.9637009 L120.195854,35.4731754" id="Fill-55"></path>
                    </g>
                </g>
            </g>
        </g>
    </g>
</svg>