<svg xmlns="http://www.w3.org/2000/svg" width="42" height="42" viewBox="0 0 42 42">
    <path fill="#90949C" fill-rule="nonzero" d="M40.27 4.51l-2.782-2.784a5.91 5.91 0 0 0-8.35 0L4.094 26.773a1.303 1.303 0 0 0-.334.567L.05 40.327a1.314 1.314 0 0 0 1.623 1.622l12.987-3.711c.214-.06.41-.176.568-.334L40.271 12.86A5.858 5.858 0 0 0 42 8.684c0-1.577-.613-3.06-1.73-4.174zm-26.66 31.3L3.22 38.779l2.97-10.389L26.356 8.221l7.421 7.421L13.61 35.811zm24.806-24.806l-2.783 2.784-7.421-7.422 2.783-2.783a3.288 3.288 0 0 1 4.64 0l2.783 2.783a3.275 3.275 0 0 1-.002 4.638z"/>
</svg>
