<svg xmlns="http://www.w3.org/2000/svg" viewBox="0 0 25 18">
    <g fill="none" fill-rule="evenodd">
        <path d="M0 0L26 0 26 26 0 26z" transform="translate(-3 -6)"/>
        <path fill="#7A798C" fill-rule="nonzero" d="M17.333 6.5c.596 0 1.084.453 1.084 1.006v3.52l4.333-4.023v5.082c-.141-.009-.284-.014-.429-.014-3.597 0-6.516 2.907-6.535 6.5H4.333c-.596 0-1.083-.452-1.083-1.006V7.506c0-.553.487-1.006 1.083-1.006z" transform="translate(-3 -6)"/>
        <g>
            <path fill="#EB3134" fill-rule="nonzero" d="M5.5.083C2.505.083.083 2.505.083 5.5c0 2.995 2.422 5.417 5.417 5.417 2.995 0 5.417-2.422 5.417-5.417C10.917 2.505 8.495.083 5.5.083zm2.708 7.362l-.763.763L5.5 6.264 3.555 8.208l-.763-.763L4.736 5.5 2.792 3.555l.763-.763L5.5 4.736l1.945-1.944.763.763L6.264 5.5l1.944 1.945z" transform="translate(-3 -6) translate(17 13)"/>
            <path d="M0 0L13 0 13 13 0 13z" transform="translate(-3 -6) translate(17 13)"/>
        </g>
    </g>
</svg>
