<svg xmlns="http://www.w3.org/2000/svg" viewBox="0 0 20 20">
    <g fill="none" fill-rule="evenodd">
        <path d="M0 0L26 0 26 26 0 26z" transform="translate(-3 -3)"/>
        <path fill="#7A798C" fill-rule="nonzero" d="M3.25 9.75v6.5h4.333L13 21.667V4.333L7.583 9.75H3.25zm7.583-.184v6.868l-2.35-2.35H5.417v-2.167h3.066l2.35-2.351zM17.875 13c0-1.918-1.105-3.564-2.708-4.366v8.721c1.603-.79 2.708-2.438 2.708-4.355zm-2.708-9.5v2.23c3.13.932 5.416 3.836 5.416 7.27 0 3.434-2.285 6.337-5.416 7.27v2.23c4.344-.985 7.583-4.863 7.583-9.5s-3.24-8.515-7.583-9.5z" transform="translate(-3 -3)"/>
    </g>
</svg>
