<svg xmlns="http://www.w3.org/2000/svg" width="32" height="32" viewBox="0 0 32 32">
    <path fill="#69687D" fill-rule="nonzero" d="M15.818 7.182c3.317 0 6 2.344 6 5.241V22.43c0 2.106-1.953 3.812-4.364 3.812-2.41 0-4.363-1.706-4.363-3.812v-8.1c0-1.315 1.222-2.382 2.727-2.382 1.506 0 2.727 1.067 2.727 2.382v7.147h-2.181v-7.233c0-.524-1.091-.524-1.091 0v8.186c0 1.048.981 1.906 2.181 1.906 1.2 0 2.182-.858 2.182-1.906V12.423c0-1.84-1.712-3.335-3.818-3.335-2.105 0-3.818 1.496-3.818 3.335v9.053H9.818v-9.053c0-2.897 2.684-5.241 6-5.241z"/>
</svg>
