<?xml version="1.0" encoding="UTF-8"?>
<svg width="241px" height="32px" viewBox="0 0 241 32" version="1.1" xmlns="http://www.w3.org/2000/svg" xmlns:xlink="http://www.w3.org/1999/xlink">
    <!-- Generator: sketchtool 51.1 (57501) - http://www.bohemiancoding.com/sketch -->
    <title>DB3ED5FB-F397-46F9-A25C-E879F288B5A6</title>
    <desc>Created with sketchtool.</desc>
    <defs></defs>
    <g id="Page-1" stroke="none" stroke-width="1" fill="none" fill-rule="evenodd">
        <g id="Artboard" transform="translate(-33.000000, -76.000000)" fill="#FFFFFF">
            <path d="M43.3076923,81.6153846 C42.8553824,81.6153846 42.4730785,81.7715369 42.1607692,82.0838462 C41.84846,82.3961554 41.6923077,82.7784593 41.6923077,83.2307692 L41.6923077,84.8461538 C41.6923077,85.2984638 41.84846,85.6807677 42.1607692,85.9930769 C42.4730785,86.3053862 42.8553824,86.4615385 43.3076923,86.4615385 L54.6153846,86.4615385 C55.2830803,86.4615385 55.913074,86.5907679 56.5053846,86.8492308 C57.0976953,87.1076936 57.6092286,87.4523055 58.04,87.8830769 C58.4707714,88.3138483 58.8153833,88.8253817 59.0738462,89.4176923 C59.332309,90.010003 59.4615385,90.6399967 59.4615385,91.3076923 L59.4615385,96.1538462 C59.4615385,96.8215418 59.332309,97.4515355 59.0738462,98.0438462 C58.8153833,98.6361568 58.4707714,99.1476902 58.04,99.5784615 C57.6092286,100.009233 57.0976953,100.353845 56.5053846,100.612308 C55.913074,100.870771 55.2830803,101 54.6153846,101 L33.6153846,101 L33.6153846,96.1538462 L49.7692308,96.1538462 C50.2215407,96.1538462 50.6038446,95.9976939 50.9161538,95.6853846 C51.2284631,95.3730754 51.3846154,94.9907715 51.3846154,94.5384615 L51.3846154,92.9230769 C51.3846154,92.470767 51.2284631,92.0884631 50.9161538,91.7761538 C50.6038446,91.4638446 50.2215407,91.3076923 49.7692308,91.3076923 L38.4615385,91.3076923 C37.7938428,91.3076923 37.1638491,91.1784628 36.5715385,90.92 C35.9792278,90.6615372 35.4676945,90.3169252 35.0369231,89.8861538 C34.6061517,89.4553825 34.2615398,88.9438491 34.0030769,88.3515385 C33.7446141,87.7592278 33.6153846,87.1292341 33.6153846,86.4615385 L33.6153846,81.6153846 C33.6153846,80.947689 33.7446141,80.3176953 34.0030769,79.7253846 C34.2615398,79.133074 34.6061517,78.6215406 35.0369231,78.1907692 C35.4676945,77.7599978 35.9792278,77.4153859 36.5715385,77.1569231 C37.1638491,76.8984602 37.7938428,76.7692308 38.4615385,76.7692308 L59.4615385,76.7692308 L59.4615385,81.6153846 L43.3076923,81.6153846 Z M70.1180542,89.6923077 L70.1180542,107.461538 L62.0411311,107.461538 L62.0411311,88.0769231 C62.0411311,87.4092274 62.1703606,86.7792337 62.4288234,86.1869231 C62.6872863,85.5946124 63.0318982,85.0830791 63.4626696,84.6523077 C63.893441,84.2215363 64.4049743,83.8769244 64.997285,83.6184615 C65.5895956,83.3599987 66.2195893,83.2307692 66.887285,83.2307692 L83.0411311,83.2307692 C83.7088268,83.2307692 84.3388205,83.3599987 84.9311311,83.6184615 C85.5234418,83.8769244 86.0349751,84.2215363 86.4657465,84.6523077 C86.8965179,85.0830791 87.2411298,85.5946124 87.4995927,86.1869231 C87.7580555,86.7792337 87.887285,87.4092274 87.887285,88.0769231 L87.887285,96.1538462 C87.887285,96.8215418 87.7580555,97.4515355 87.4995927,98.0438462 C87.2411298,98.6361568 86.8965179,99.1476902 86.4657465,99.5784615 C86.0349751,100.009233 85.5234418,100.353845 84.9311311,100.612308 C84.3388205,100.870771 83.7088268,101 83.0411311,101 L71.7334388,101 L71.7334388,96.1538462 L78.1949773,96.1538462 C78.6472872,96.1538462 79.0295911,95.9976939 79.3419004,95.6853846 C79.6542096,95.3730754 79.8103619,94.9907715 79.8103619,94.5384615 L79.8103619,89.6923077 C79.8103619,89.2399977 79.6542096,88.8576939 79.3419004,88.5453846 C79.0295911,88.2330754 78.6472872,88.0769231 78.1949773,88.0769231 L71.7334388,88.0769231 C71.2811289,88.0769231 70.898825,88.2330754 70.5865157,88.5453846 C70.2742065,88.8576939 70.1180542,89.2399977 70.1180542,89.6923077 Z M90.4668776,101 L90.4668776,83.2307692 L98.5438007,83.2307692 L98.5438007,101 L90.4668776,101 Z M98.5438007,76.7692308 L98.5438007,81.6476923 L90.4668776,81.6476923 L90.4668776,76.7692308 L98.5438007,76.7692308 Z M118.892624,83.2307692 L118.892624,88.0769231 L109.200316,88.0769231 L109.200316,94.5384615 C109.200316,94.9907715 109.356469,95.3730754 109.668778,95.6853846 C109.981087,95.9976939 110.363391,96.1538462 110.815701,96.1538462 L118.892624,96.1538462 L118.892624,101 L105.969547,101 C105.301852,101 104.671858,100.870771 104.079547,100.612308 C103.487237,100.353845 102.975703,100.009233 102.544932,99.5784615 C102.11416,99.1476902 101.769548,98.6361568 101.511086,98.0438462 C101.252623,97.4515355 101.123393,96.8215418 101.123393,96.1538462 L101.123393,76.7692308 L109.200316,76.7692308 L109.200316,83.2307692 L118.892624,83.2307692 Z M129.54914,76.7692308 L129.54914,94.5384615 C129.54914,94.9907715 129.705292,95.3730754 130.017601,95.6853846 C130.329911,95.9976939 130.712215,96.1538462 131.164524,96.1538462 L137.626063,96.1538462 C138.078373,96.1538462 138.460677,95.9976939 138.772986,95.6853846 C139.085295,95.3730754 139.241448,94.9907715 139.241448,94.5384615 L139.241448,89.6923077 C139.241448,89.2399977 139.085295,88.8576939 138.772986,88.5453846 C138.460677,88.2330754 138.078373,88.0769231 137.626063,88.0769231 L131.164524,88.0769231 L131.164524,83.2307692 L142.472217,83.2307692 C143.139912,83.2307692 143.769906,83.3599987 144.362217,83.6184615 C144.954527,83.8769244 145.466061,84.2215363 145.896832,84.6523077 C146.327604,85.0830791 146.672215,85.5946124 146.930678,86.1869231 C147.189141,86.7792337 147.318371,87.4092274 147.318371,88.0769231 L147.318371,96.1538462 C147.318371,96.8215418 147.189141,97.4515355 146.930678,98.0438462 C146.672215,98.6361568 146.327604,99.1476902 145.896832,99.5784615 C145.466061,100.009233 144.954527,100.353845 144.362217,100.612308 C143.769906,100.870771 143.139912,101 142.472217,101 L126.318371,101 C125.650675,101 125.020681,100.870771 124.428371,100.612308 C123.83606,100.353845 123.324527,100.009233 122.893755,99.5784615 C122.462984,99.1476902 122.118372,98.6361568 121.859909,98.0438462 C121.601446,97.4515355 121.472217,96.8215418 121.472217,96.1538462 L121.472217,76.7692308 L129.54914,76.7692308 Z M167.667194,101 L167.667194,89.6923077 C167.667194,89.2399977 167.511042,88.8576939 167.198733,88.5453846 C166.886423,88.2330754 166.504119,88.0769231 166.051809,88.0769231 L159.590271,88.0769231 C159.137961,88.0769231 158.755657,88.2330754 158.443348,88.5453846 C158.131039,88.8576939 157.974886,89.2399977 157.974886,89.6923077 L157.974886,94.5384615 C157.974886,94.9907715 158.131039,95.3730754 158.443348,95.6853846 C158.755657,95.9976939 159.137961,96.1538462 159.590271,96.1538462 L166.051809,96.1538462 L166.051809,101 L154.744117,101 C154.076421,101 153.446428,100.870771 152.854117,100.612308 C152.261806,100.353845 151.750273,100.009233 151.319502,99.5784615 C150.88873,99.1476902 150.544118,98.6361568 150.285656,98.0438462 C150.027193,97.4515355 149.897963,96.8215418 149.897963,96.1538462 L149.897963,88.0769231 C149.897963,87.4092274 150.027193,86.7792337 150.285656,86.1869231 C150.544118,85.5946124 150.88873,85.0830791 151.319502,84.6523077 C151.750273,84.2215363 152.261806,83.8769244 152.854117,83.6184615 C153.446428,83.3599987 154.076421,83.2307692 154.744117,83.2307692 L170.897963,83.2307692 C171.565659,83.2307692 172.195653,83.3599987 172.787963,83.6184615 C173.380274,83.8769244 173.891807,84.2215363 174.322579,84.6523077 C174.75335,85.0830791 175.097962,85.5946124 175.356425,86.1869231 C175.614888,86.7792337 175.744117,87.4092274 175.744117,88.0769231 L175.744117,101 L167.667194,101 Z M178.32371,101 L178.32371,76.7692308 L186.400633,76.7692308 L186.400633,101 L178.32371,101 Z M188.980226,101 L188.980226,76.7692308 L197.057149,76.7692308 L197.057149,101 L188.980226,101 Z M219.447103,96.1538462 L237.216334,96.1538462 L237.216334,101 L211.37018,101 L211.37018,91.3076923 C211.37018,90.6399967 211.49941,90.010003 211.757872,89.4176923 C212.016335,88.8253817 212.360947,88.3138483 212.791719,87.8830769 C213.22249,87.4523055 213.734023,87.1076936 214.326334,86.8492308 C214.918645,86.5907679 215.548638,86.4615385 216.216334,86.4615385 L227.524026,86.4615385 C227.976336,86.4615385 228.35864,86.3053862 228.670949,85.9930769 C228.983259,85.6807677 229.139411,85.2984638 229.139411,84.8461538 L229.139411,83.2307692 C229.139411,82.7784593 228.983259,82.3961554 228.670949,82.0838462 C228.35864,81.7715369 227.976336,81.6153846 227.524026,81.6153846 L211.37018,81.6153846 L211.37018,76.7692308 L232.37018,76.7692308 C233.037876,76.7692308 233.667869,76.8984602 234.26018,77.1569231 C234.852491,77.4153859 235.364024,77.7599978 235.794795,78.1907692 C236.225567,78.6215406 236.570179,79.133074 236.828642,79.7253846 C237.087104,80.3176953 237.216334,80.947689 237.216334,81.6153846 L237.216334,86.4615385 C237.216334,87.1292341 237.087104,87.7592278 236.828642,88.3515385 C236.570179,88.9438491 236.225567,89.4553825 235.794795,89.8861538 C235.364024,90.3169252 234.852491,90.6615372 234.26018,90.92 C233.667869,91.1784628 233.037876,91.3076923 232.37018,91.3076923 L221.062488,91.3076923 C220.610178,91.3076923 220.227874,91.4638446 219.915565,91.7761538 C219.603255,92.0884631 219.447103,92.470767 219.447103,92.9230769 L219.447103,96.1538462 Z M239.795927,101 L239.795927,96.1538462 L244.64208,96.1538462 L244.64208,101 L239.795927,101 Z M247.221673,96.1538462 L247.221673,81.6153846 C247.221673,80.947689 247.350903,80.3176953 247.609365,79.7253846 C247.867828,79.133074 248.21244,78.6215406 248.643212,78.1907692 C249.073983,77.7599978 249.585516,77.4153859 250.177827,77.1569231 C250.770138,76.8984602 251.400131,76.7692308 252.067827,76.7692308 L268.221673,76.7692308 C268.889369,76.7692308 269.519362,76.8984602 270.111673,77.1569231 C270.703984,77.4153859 271.215517,77.7599978 271.646288,78.1907692 C272.07706,78.6215406 272.421672,79.133074 272.680135,79.7253846 C272.938597,80.3176953 273.067827,80.947689 273.067827,81.6153846 L273.067827,96.1538462 C273.067827,96.8215418 272.938597,97.4515355 272.680135,98.0438462 C272.421672,98.6361568 272.07706,99.1476902 271.646288,99.5784615 C271.215517,100.009233 270.703984,100.353845 270.111673,100.612308 C269.519362,100.870771 268.889369,101 268.221673,101 L252.067827,101 C251.400131,101 250.770138,100.870771 250.177827,100.612308 C249.585516,100.353845 249.073983,100.009233 248.643212,99.5784615 C248.21244,99.1476902 247.867828,98.6361568 247.609365,98.0438462 C247.350903,97.4515355 247.221673,96.8215418 247.221673,96.1538462 Z M255.298596,94.5384615 C255.298596,94.9907715 255.454748,95.3730754 255.767058,95.6853846 C256.079367,95.9976939 256.461671,96.1538462 256.913981,96.1538462 L263.375519,96.1538462 C263.827829,96.1538462 264.210133,95.9976939 264.522442,95.6853846 C264.834752,95.3730754 264.990904,94.9907715 264.990904,94.5384615 L264.990904,83.2307692 C264.990904,82.7784593 264.834752,82.3961554 264.522442,82.0838462 C264.210133,81.7715369 263.827829,81.6153846 263.375519,81.6153846 L256.913981,81.6153846 C256.461671,81.6153846 256.079367,81.7715369 255.767058,82.0838462 C255.454748,82.3961554 255.298596,82.7784593 255.298596,83.2307692 L255.298596,94.5384615 Z" id="Spitball-2.0"></path>
        </g>
    </g>
</svg>