<svg xmlns="http://www.w3.org/2000/svg" viewBox="0 0 21 15">
    <g fill="none" fill-rule="evenodd" stroke="#43425D" stroke-linecap="round">
        <path d="M14.118 2.513L5.983 10.38M8.313 4.21c0 .846-.71 1.532-1.584 1.532-.874 0-1.583-.686-1.583-1.531 0-.845.71-1.531 1.583-1.531.874 0 1.583.686 1.583 1.53zM.396 9.57c1.314 0 2.375-1.026 2.375-2.297 0-1.27-1.061-2.296-2.375-2.296M18.604 9.57c-1.314 0-2.375-1.026-2.375-2.297 0-1.27 1.061-2.296 2.375-2.296M14.646 9.57c0 .846-.71 1.532-1.584 1.532-.873 0-1.583-.686-1.583-1.532 0-.845.71-1.53 1.584-1.53.873 0 1.583.685 1.583 1.53z" transform="translate(1 1)"/>
        <path d="M.396 4.977V1.148c0-.423.354-.765.791-.765h16.625c.438 0 .792.342.792.765v3.829M18.604 9.57v3.063c0 .423-.354.765-.791.765H1.188c-.438 0-.792-.342-.792-.765V9.57" transform="translate(1 1)"/>
    </g>
</svg>
