<svg xmlns="http://www.w3.org/2000/svg" width="24" height="24" viewBox="0 0 24 24">
    <path fill="#125FAC" fill-rule="nonzero" d="M12 0C5.36 0 0 5.36 0 12s5.36 12 12 12 12-5.36 12-12S18.64 0 12 0zm1.2 16.8c0 .365-.11.652-.327.86-.218.21-.518.34-.873.34s-.655-.104-.873-.34c-.218-.208-.327-.52-.327-.86v-5.974c0-.365.11-.652.327-.887.218-.209.518-.339.873-.339s.655.104.873.34c.218.208.327.52.327.886V16.8zm-.36-8.761c-.24.232-.504.361-.84.361a.917.917 0 0 1-.456-.103 2.056 2.056 0 0 1-.384-.258c-.12-.104-.192-.233-.264-.387a1.076 1.076 0 0 1-.096-.465c0-.155.024-.284.096-.439a1.36 1.36 0 0 1 .264-.387c.12-.103.24-.206.384-.258A1.32 1.32 0 0 1 12 6c.168 0 .312.026.456.103.144.078.264.155.384.258.12.104.192.233.264.362a.9.9 0 0 1 .096.438c-.024.336-.12.645-.36.878z"/>
</svg>
