<svg xmlns="http://www.w3.org/2000/svg" width="22" height="22" viewBox="0 0 22 22">
    <path fill="#125FAC" fill-rule="nonzero" d="M19.938 0H4.813C3.673 0 2.75.923 2.75 2.063v2.062H1.375a1.375 1.375 0 1 0 0 2.75H2.75v2.75H1.375a1.375 1.375 0 1 0 0 2.75H2.75v2.75H1.375a1.375 1.375 0 1 0 0 2.75H2.75v2.063c0 1.139.923 2.062 2.063 2.062h15.125C21.076 22 22 21.077 22 19.937V2.063C22 .923 21.077 0 19.937 0zM16.57 12H9.43C8.639 12 8 11.328 8 10.5S8.64 9 9.429 9h7.142c.79 0 1.429.672 1.429 1.5s-.64 1.5-1.429 1.5zm0-5H9.43C8.639 7 8 6.328 8 5.5S8.64 4 9.429 4h7.142C17.361 4 18 4.672 18 5.5S17.36 7 16.571 7z"/>
</svg>
