<svg xmlns="http://www.w3.org/2000/svg" width="21" height="21" viewBox="0 0 21 21">
    <path fill="#3293F6" fill-rule="nonzero" d="M12.122 8.867a.353.353 0 0 1-.362-.361V.756a.79.79 0 0 0-.206-.516.79.79 0 0 0-.517-.207H9.59a.79.79 0 0 0-.516.207.663.663 0 0 0-.207.516v7.75a.353.353 0 0 1-.361.361H.756a.79.79 0 0 0-.516.207.79.79 0 0 0-.207.516v1.447a.79.79 0 0 0 .207.517.79.79 0 0 0 .516.206h7.75c.206 0 .361.155.361.362v7.749a.79.79 0 0 0 .207.517.79.79 0 0 0 .516.206h1.447a.79.79 0 0 0 .517-.206.79.79 0 0 0 .206-.517v-7.75c0-.206.155-.36.362-.36h7.749a.79.79 0 0 0 .517-.207.79.79 0 0 0 .206-.517V9.59a.79.79 0 0 0-.206-.516.79.79 0 0 0-.517-.207h-7.75z"/>
</svg>
