<svg xmlns="http://www.w3.org/2000/svg" width="32" height="18" viewBox="0 0 32 18">
    <path fill="#125FAC" fill-rule="nonzero" d="M0 5.977L15.596.017l15.596 5.96-6.29 2.235-1.785.545-7.52 2.3L6.29 8.211l-.758-.27 1.64-.529.154-.38-2.198.493v.547l-.392 6.574c-1.477.875-2.954 0-2.954 0-.348-2.404 2.019-7.32 2.02-7.32l.152-.448 1.048-.247-.174-.18-1.222.103-.283.603L0 5.977zm15.596 6.115l9.305-2.845v4.7c0 .017.006.034.006.051 0 2.197-4.168 3.978-9.308 3.978s-9.308-1.781-9.308-3.978V9.247l9.305 2.845z"/>
</svg>
