<svg xmlns="http://www.w3.org/2000/svg" width="21" height="29" viewBox="0 0 21 29">
    <path fill="#125FAC" fill-rule="nonzero" d="M3.903 0a2.727 2.727 0 0 0-.47.045C2.86.15 2.302.439 1.817.91 1.171 1.537.646 2.474.285 3.744c-.635 2.231-.102 4.674.56 6.564a19.936 19.936 0 0 0 1.443 3.197c.1.305.417.5.737.453l4.36-.658a.672.672 0 0 0 .552-.575c.003-.013 1.424-5.056-.246-9.468C6.958 1.321 5.552.05 4.011.001a2.704 2.704 0 0 0-.108 0zM17.29 6.421c-1.542-.032-3.012 1.164-3.845 3.06-1.898 4.318-.743 9.428-.74 9.441.026.287.23.544.522.604l4.32.884a.678.678 0 0 0 .759-.414c.17-.262.938-1.48 1.608-3.117.76-1.853 1.42-4.264.902-6.526-.294-1.287-.77-2.25-1.382-2.91-.459-.495-1.002-.813-1.57-.948a2.763 2.763 0 0 0-.574-.074zm-9.105 8.592a.643.643 0 0 0-.121.006l-4.809.725a.677.677 0 0 0-.57.683c-.015.125-.128 1.091-.086 2.216.023.601.09 1.241.254 1.825.164.584.423 1.132.906 1.481.855.618 2.017.777 3.117.616 1.1-.162 2.165-.65 2.785-1.513.35-.487.412-1.093.37-1.699-.043-.605-.199-1.231-.384-1.806a14.92 14.92 0 0 0-.843-2.061.684.684 0 0 0-.619-.473zm4.383 6.145a.685.685 0 0 0-.642.44 14.92 14.92 0 0 0-.95 2.014c-.215.564-.404 1.182-.478 1.784-.073.602-.043 1.21.281 1.715.574.895 1.613 1.438 2.702 1.656 1.09.22 2.259.121 3.145-.451.5-.324.788-.858.982-1.432.194-.575.294-1.21.349-1.81.101-1.12.038-2.092.03-2.217a.677.677 0 0 0-.534-.711l-4.764-.975a.643.643 0 0 0-.121-.013z"/>
</svg>
