<svg xmlns="http://www.w3.org/2000/svg" xmlns:xlink="http://www.w3.org/1999/xlink" viewBox="0 0 126 78">
    <defs>
        <path id="prefix__a" d="M0 77.829L124.969 77.829 124.969 0 0 0z"/>
    </defs>
    <g fill="none" fill-rule="evenodd">
        <path fill="#FFF" d="M124.316 74.023c0 1.742-1.415 3.154-3.16 3.154H93.774c-1.745 0-3.16-1.412-3.16-3.154V34.066c0-1.743 1.415-3.154 3.16-3.154h18.957l11.585 11.567v31.544z"/>
        <path stroke="#9EA1B5" stroke-width="1.5" d="M124.316 74.023c0 1.742-1.415 3.154-3.16 3.154H93.774c-1.745 0-3.16-1.412-3.16-3.154V34.066c0-1.743 1.415-3.154 3.16-3.154h18.957l11.585 11.567v31.544z"/>
        <path fill="#D8E5ED" d="M112.821 41.428L123.352 51.804 123.352 42.478 122.3 41.428z"/>
        <path fill="#B2DDC9" d="M112.731 30.913v8.41c0 1.743 1.414 3.156 3.16 3.156h8.424l-11.584-11.566z"/>
        <path stroke="#9EA1B5" stroke-linejoin="bevel" stroke-width="1.5" d="M112.731 30.913v8.41c0 1.743 1.414 3.156 3.16 3.156h8.424l-11.584-11.566z"/>
        <path stroke="#DADBE5" stroke-width="2" d="M95.422 46.373L109.541 46.373M95.422 51.041L118.772 51.041M95.422 53.752L118.772 53.752M95.422 56.467L118.772 56.467M95.422 59.178L118.772 59.178M95.422 61.891L118.772 61.891M95.422 64.603L118.772 64.603M95.422 67.316L114.921 67.316"/>
        <mask id="prefix__b" fill="#fff">
            <use xlink:href="#prefix__a"/>
        </mask>
        <path fill="#FFF" d="M0.653 77.177L56.552 77.177 56.552 28.296 0.653 28.296z" mask="url(#prefix__b)"/>
        <path stroke="#9EA1B5" stroke-width="1.5" d="M0.653 77.177L56.552 77.177 56.552 28.296 0.653 28.296z" mask="url(#prefix__b)"/>
        <path fill="#D8E5ED" d="M0.653 34.006L56.552 34.006 56.552 28.296 0.653 28.296z" mask="url(#prefix__b)"/>
        <path fill="#D8E5ED" stroke="#9EA1B5" stroke-width="1.5" d="M0.653 34.006L56.552 34.006 56.552 28.296 0.653 28.296z" mask="url(#prefix__b)"/>
        <g mask="url(#prefix__b)">
            <g>
                <path fill="#D8E5ED" d="M0.547 0.843L2.208 0.843" transform="translate(1.958 30.249)"/>
                <path stroke="#477CA8" stroke-width="2" d="M0.547 0.843L2.208 0.843" transform="translate(1.958 30.249)"/>
            </g>
        </g>
        <g mask="url(#prefix__b)">
            <g>
                <path fill="#D8E5ED" d="M0.521 0.843L2.181 0.843" transform="translate(5.223 30.249)"/>
                <path stroke="#477CA8" stroke-width="2" d="M0.521 0.843L2.181 0.843" transform="translate(5.223 30.249)"/>
            </g>
        </g>
        <g mask="url(#prefix__b)">
            <g>
                <path fill="#D8E5ED" d="M0.495 0.843L2.157 0.843" transform="translate(8.487 30.249)"/>
                <path stroke="#477CA8" stroke-width="2" d="M0.495 0.843L2.157 0.843" transform="translate(8.487 30.249)"/>
            </g>
        </g>
        <path fill="#9EA1B5" d="M14.072 47.88v-1.173c0-1.297-1.052-2.347-2.35-2.347H7.61c-1.299 0-2.35 1.05-2.35 2.347v1.172h8.812zM11.721 40.547c0-1.133-.92-2.052-2.055-2.052-1.136 0-2.057.919-2.057 2.052 0 1.134.92 2.053 2.057 2.053 1.135 0 2.055-.92 2.055-2.053" mask="url(#prefix__b)"/>
        <g mask="url(#prefix__b)">
            <g>
                <path fill="#D8E5ED" d="M0.518 0.74L28.143 0.74" transform="translate(17.626 40.677)"/>
                <path stroke="#C1C4D4" stroke-width="2" d="M0.518 0.74L28.143 0.74" transform="translate(17.626 40.677)"/>
            </g>
        </g>
        <g mask="url(#prefix__b)">
            <g>
                <path fill="#D8E5ED" d="M0.037 0.74L27.661 0.74" transform="translate(5.223 50.454)"/>
                <path stroke="#C1C4D4" stroke-width="2" d="M0.037 0.74L27.661 0.74" transform="translate(5.223 50.454)"/>
            </g>
        </g>
        <path stroke="#D5D7E2" stroke-width="2" d="M5.259 73.355L12.871 73.355" mask="url(#prefix__b)"/>
        <path stroke="#DEE0E8" stroke-width="2" d="M15.935 73.355L23.547 73.355" mask="url(#prefix__b)"/>
        <path stroke="#D8E5ED" stroke-width="2" d="M26.612 73.355L34.223 73.355" mask="url(#prefix__b)"/>
        <g mask="url(#prefix__b)">
            <g>
                <path fill="#D8E5ED" d="M0.518 0.335L19.011 0.335" transform="translate(17.626 44.588)"/>
                <path stroke="#C1C4D4" stroke-width="2" d="M0.518 0.335L19.011 0.335" transform="translate(17.626 44.588)"/>
            </g>
        </g>
        <path fill="#E3E8F1" d="M5.259 70.495L51.609 70.495 51.609 53.983 5.259 53.983z" mask="url(#prefix__b)"/>
        <path fill="#FFF" d="M26.113 77.177L96.919 77.177 96.919 3.909 26.113 3.909z" mask="url(#prefix__b)"/>
        <path stroke="#9EA1B5" stroke-width="1.5" d="M26.113 77.177L96.919 77.177 96.919 3.909 26.113 3.909z" mask="url(#prefix__b)"/>
        <path fill="#D8E5ED" d="M26.113 9.619L96.919 9.619 96.919 3.909 26.113 3.909z" mask="url(#prefix__b)"/>
        <path fill="#D8E5ED" stroke="#9EA1B5" stroke-width="1.5" d="M26.113 9.619L96.919 9.619 96.919 3.909 26.113 3.909z" mask="url(#prefix__b)"/>
        <g mask="url(#prefix__b)">
            <g>
                <path fill="#D8E5ED" d="M0.547 0.572L2.208 0.572" transform="translate(27.419 6.133)"/>
                <path stroke="#9EA1B5" stroke-width="2" d="M0.547 0.572L2.208 0.572" transform="translate(27.419 6.133)"/>
            </g>
        </g>
        <g mask="url(#prefix__b)">
            <g>
                <path fill="#D8E5ED" d="M0.521 0.572L2.181 0.572" transform="translate(30.683 6.133)"/>
                <path stroke="#9EA1B5" stroke-width="2" d="M0.521 0.572L2.181 0.572" transform="translate(30.683 6.133)"/>
            </g>
        </g>
        <g mask="url(#prefix__b)">
            <g>
                <path fill="#D8E5ED" d="M0.495 0.572L2.157 0.572" transform="translate(33.947 6.133)"/>
                <path stroke="#9EA1B5" stroke-width="2" d="M0.495 0.572L2.157 0.572" transform="translate(33.947 6.133)"/>
            </g>
        </g>
        <path fill="#D8E9C9" d="M30.766 21.31L38.297 21.31 38.297 13.791 30.766 13.791z" mask="url(#prefix__b)"/>
        <g mask="url(#prefix__b)">
            <g>
                <path fill="#D8E5ED" d="M0.18 0.601L27.496 0.601" transform="translate(41.128 15.91)"/>
                <path stroke="#C1C4D4" stroke-width="2" d="M0.18 0.601L27.496 0.601" transform="translate(41.128 15.91)"/>
            </g>
        </g>
        <g mask="url(#prefix__b)">
            <g>
                <path fill="#D8E5ED" d="M0.18 0.787L19.976 0.787" transform="translate(41.128 18.517)"/>
                <path stroke="#C1C4D4" stroke-width="2" d="M0.18 0.787L19.976 0.787" transform="translate(41.128 18.517)"/>
            </g>
        </g>
        <path stroke="#D8E5ED" stroke-width="2" d="M33.993 50.668L40.068 50.668M30.716 50.668L32.456 50.668M45.935 50.668L52.01 50.668M42.658 50.668L44.397 50.668M58.2 50.668L64.274 50.668M54.922 50.668L56.662 50.668" mask="url(#prefix__b)"/>
        <path fill="#E3E8F1" d="M30.766 48.11L92.735 48.11 92.735 23.135 30.766 23.135z" mask="url(#prefix__b)"/>
        <path fill="#F5B1AE" d="M30.766 62.772L38.297 62.772 38.297 55.253 30.766 55.253z" mask="url(#prefix__b)"/>
        <g mask="url(#prefix__b)">
            <g>
                <path fill="#D8E5ED" d="M0.18 0.349L27.496 0.349" transform="translate(41.128 57.624)"/>
                <path stroke="#C1C4D4" stroke-width="2" d="M0.18 0.349L27.496 0.349" transform="translate(41.128 57.624)"/>
            </g>
        </g>
        <g mask="url(#prefix__b)">
            <g>
                <path fill="#D8E5ED" d="M1.157 0.577L20.953 0.577" transform="translate(41.128 60.23)"/>
                <path stroke="#C1C4D4" stroke-width="2" d="M0.18 0.577L19.976 0.577" transform="translate(41.128 60.23)"/>
            </g>
        </g>
        <path stroke="#9EA1B5" stroke-width="1.5" d="M58.839 40.026c0 .85-.692 1.54-1.544 1.54-.852 0-1.544-.69-1.544-1.54 0-.852.692-1.541 1.544-1.541.852 0 1.544.689 1.544 1.54zM66.494 40.026c0 .85-.69 1.54-1.543 1.54s-1.544-.69-1.544-1.54c0-.852.69-1.541 1.544-1.541.852 0 1.543.689 1.543 1.54zM59.057 40.026L63.407 40.026M53.492 29.16L55.566 29.75 57.986 37 57.54 38.438M67.173 36.532c0 .273-.22.468-.493.468h-8.694l-1.68-5.359h12.268l-1.4 4.89z" mask="url(#prefix__b)"/>
        <path fill="#F5B1AE" d="M103.716 16.684c-.572.57-.57 1.494 0 2.065.57.57 1.497.57 2.068 0 .57-.57.57-1.495 0-2.065-.571-.57-1.497-.57-2.068 0zm6.271 5.926h-10.06l-.08-10.123L111.432.922l5.07 5.061 5.07 5.063-11.584 11.564z" mask="url(#prefix__b)"/>
        <path stroke="#9EA1B5" stroke-width="2" d="M104.692 16.684c-.571.57-.57 1.494 0 2.065.571.57 1.497.57 2.068 0s.57-1.495 0-2.065c-.57-.57-1.497-.57-2.068 0zm6.272 5.926h-10.06l-.08-10.123L112.407.922l5.07 5.061 5.071 5.063-11.584 11.564z" mask="url(#prefix__b)"/>
        <path fill="#FFF" d="M108.999 9.153L109.853 11.666 108.263 13.792 110.919 13.758 112.454 15.924 113.243 13.39 115.78 12.602 113.61 11.071 113.644 8.419 111.515 10.006z" mask="url(#prefix__b)"/>
        <g mask="url(#prefix__b)">
            <g>
                <path fill="#D8E5ED" d="M12.059 0.491L0.184 12.349" transform="translate(93.678 17.213)"/>
                <path stroke="#9EA1B5" stroke-width="2" d="M12.059 0.491L0.184 12.349" transform="translate(93.678 17.213)"/>
            </g>
        </g>
        <path fill="#FDF4BB" d="M24.923 45.47c-4.389 0-7.945 3.55-7.945 7.931 0 1.957.713 3.745 1.892 5.129l-1.852 3.504 3.367-2.13c1.286.898 2.848 1.428 4.538 1.428 4.386 0 7.941-3.55 7.941-7.93 0-4.382-3.555-7.931-7.941-7.931" mask="url(#prefix__b)"/>
        <path stroke="#9EA1B5" stroke-width="1.5" d="M24.923 45.47c-4.389 0-7.945 3.55-7.945 7.931 0 1.957.713 3.745 1.892 5.129l-1.852 3.504 3.367-2.13c1.286.898 2.848 1.428 4.538 1.428 4.386 0 7.941-3.55 7.941-7.93 0-4.382-3.555-7.931-7.941-7.931zM27.361 49.49L22.287 57.149" mask="url(#prefix__b)"/>
        <path stroke="#9EA1B5" stroke-width="1.5" d="M23.624 52.195c0 .609-.495 1.102-1.106 1.102-.61 0-1.105-.493-1.105-1.102V50.69c0-.608.495-1.102 1.105-1.102s1.106.494 1.106 1.102v1.505zM28.235 55.949c0 .61-.495 1.103-1.106 1.103-.61 0-1.105-.493-1.105-1.103v-1.504c0-.61.496-1.103 1.105-1.103.61 0 1.106.494 1.106 1.103v1.504z" mask="url(#prefix__b)"/>
        <path stroke="#DADBE5" stroke-width="2" d="M30.766 66.987L91.873 66.987M30.766 70.647L88.646 70.647" mask="url(#prefix__b)"/>
    </g>
</svg>
