<svg xmlns="http://www.w3.org/2000/svg" viewBox="0 0 94 84">
    <g fill="none" fill-rule="evenodd">
        <path fill="#D8E5ED" d="M23.108 19.623h63.455c1.643 0 2.975 1.334 2.975 2.979v40.215c0 1.645-1.332 2.979-2.975 2.979h-5.507v6.249l-9.137-6.25H23.108c-1.643 0-2.975-1.333-2.975-2.978V22.602c0-1.645 1.332-2.98 2.975-2.98" transform="translate(1 1)"/>
        <path fill="#FFF" d="M32.805 25.365L27.998 7.668 54.591 0.423 59.397 18.12z" transform="translate(1 1)"/>
        <path stroke="#9EA1B5" stroke-width="1.5" d="M32.805 25.365L27.998 7.668 54.591 0.423 59.397 18.12z" transform="translate(1 1)"/>
        <path fill="#FFF" d="M50.502 6.656c.252.926-.294 1.88-1.218 2.132-.925.252-1.878-.294-2.13-1.22-.25-.925.295-1.881 1.219-2.133.925-.252 1.878.295 2.13 1.221" transform="translate(1 1)"/>
        <path fill="#D8E9C9" d="M40.236 12.085L45.534 15.254 50.833 18.424 42.569 20.675 34.304 22.927 37.27 17.506z" transform="translate(1 1)"/>
        <path fill="#D8E9C9" d="M49.893 12.55L53.414 14.656 56.935 16.761 51.443 18.257 45.953 19.753 47.922 16.151z" transform="translate(1 1)"/>
        <path fill="#EEE293" d="M51.588 7.08c.281 1.036-.33 2.105-1.365 2.387-1.035.282-2.102-.33-2.384-1.367-.282-1.036.329-2.104 1.364-2.387 1.035-.282 2.103.33 2.385 1.366" transform="translate(1 1)"/>
        <path fill="#FFF" d="M66.681 28.385H3.225c-1.642 0-2.974 1.334-2.974 2.979v40.215c0 1.645 1.332 2.979 2.974 2.979h5.508v6.249l9.137-6.249H66.68c1.643 0 2.975-1.334 2.975-2.98V31.365c0-1.645-1.332-2.979-2.975-2.979" transform="translate(1 1)"/>
        <path stroke="#9EA1B5" stroke-width="1.5" d="M66.681 28.385H3.225c-1.642 0-2.974 1.334-2.974 2.979v40.215c0 1.645 1.332 2.979 2.974 2.979h5.508v6.249l9.137-6.249H66.68c1.643 0 2.975-1.334 2.975-2.98V31.365c0-1.645-1.332-2.979-2.975-2.979z" transform="translate(1 1)"/>
        <path fill="#FFF" d="M79.586 34.612l-.385-.386c-1.4-1.402-1.4-3.675 0-5.077l.053-.053c1.4-1.402 3.67-1.402 5.07 0l.384.386.385-.386c1.4-1.402 3.67-1.402 5.07 0l.053.053c1.4 1.402 1.4 3.675 0 5.077l-.385.386-5.123 5.13-5.122-5.13z" transform="translate(1 1)"/>
        <path stroke="#9EA1B5" stroke-width="2" d="M79.586 34.612l-.385-.386c-1.4-1.402-1.4-3.675 0-5.077l.053-.053c1.4-1.402 3.67-1.402 5.07 0l.384.386.385-.386c1.4-1.402 3.67-1.402 5.07 0l.053.053c1.4 1.402 1.4 3.675 0 5.077l-.385.386-5.123 5.13-5.122-5.13z" transform="translate(1 1)"/>
        <path stroke="#9EA1B5" stroke-width="1.5" d="M28.617 60.105h2.363c.851 1.144 2.208 1.886 3.74 1.886h7.821v-.01h1.862c1.17 0 2.12-.95 2.12-2.122 0-1.173-.95-2.123-2.12-2.123H46.1c1.17 0 2.12-.952 2.12-2.124 0-1.172-.95-2.122-2.12-2.122h.565c1.17 0 2.12-.951 2.12-2.122 0-1.173-.95-2.123-2.12-2.123h1.13c1.17 0 2.119-.951 2.119-2.123 0-1.172-.948-2.123-2.119-2.123H41.86c-.123 0-.242.013-.358.033h-2.375l.746-2.64v-2.99c0-1.47-1.189-2.66-2.655-2.66h-.884c-.037 0-.074.004-.11.006v4.07l-1.03 1.451-3.86 4.223c-.551.583-.952 1.306-1.149 2.11h-1.568" transform="translate(1 1)"/>
        <path fill="#CDD9E1" d="M18.783 47.734L27.631 47.734 27.631 64.434 18.783 64.434" transform="translate(1 1)"/>
        <path stroke="#FFF" stroke-width="3" d="M25.699 62.041L24.604 62.041" transform="translate(1 1)"/>
        <path fill="#FFF" d="M18.314 9.92c0 4.033-3.262 7.3-7.288 7.3-4.024 0-7.287-3.267-7.287-7.3 0-4.03 3.263-7.298 7.287-7.298 4.026 0 7.288 3.269 7.288 7.299" transform="translate(1 1)"/>
        <path stroke="#9EA1B5" stroke-width="1.5" d="M18.314 9.92c0 4.033-3.262 7.3-7.288 7.3-4.024 0-7.287-3.267-7.287-7.3 0-4.03 3.263-7.298 7.287-7.298 4.026 0 7.288 3.269 7.288 7.299z" transform="translate(1 1)"/>
        <path fill="#F5B1AE" d="M14.202 9.921L11.817 11.301 9.431 12.68 9.431 9.921 9.431 7.163 11.817 8.542z" transform="translate(1 1)"/>
    </g>
</svg>
