<svg xmlns="http://www.w3.org/2000/svg" viewBox="0 0 16 16">
    <g fill-rule="evenodd">
        <path fill-rule="nonzero" d="M.0337263 15.8710947l1.065979-3.8937052C.442021 10.838.0962105 9.5454315.0966316 8.2213263.0982736 4.0783368 3.4689474.7078526 7.6104.7078526c2.0100842.000821 3.8965895.7833053 5.3151789 2.2037474 1.4185895 1.420021 2.1994316 3.3077684 2.1985895 5.315579-.0016421 4.1426736-3.3725263 7.5135789-7.5135579 7.5135789 0 0 .0002106 0 0 0h-.0032842c-1.2574105-.0004211-2.4931158-.316-3.5904631-.9146947L.0337263 15.8710947zm4.167558-2.405221l.2281894.1352842c.9586947.5690737 2.057979.8700632 3.1784631.8708842h.0026737c3.4420211 0 6.2436211-2.8018105 6.2450737-6.2454737.0006105-1.6685895-.6484421-3.2376631-1.8277263-4.4181895C10.8490947 2.6280842 9.2810526 1.9776 7.6130737 1.9769684c-3.4449053 0-6.2465053 2.8014105-6.2477263 6.2446526-.0006316 1.1798948.3296631 2.3293685.9547579 3.3234106l.148442.236421-.6307578 2.3044842 2.3634947-.6200631z"/>
        <path d="M11.3959789 10.0137684c-.0470947-.0783158-.1720842-.1252-.3597894-.2195579-.1879158-.0937684-1.110821-.5479158-1.2829053-.6106105-.1720842-.0625053-.2972842-.0939579-.4226947.0939579-.1249895.1881053-.484779.6110105-.5941684.7362105-.109579.125221-.219158.1410527-.4068632.0472842-.1877053-.0941473-.7924421-.2925473-1.5096632-.9321473-.5581684-.4977474-.9350315-1.1126737-1.0444-1.3005685-.109579-.1879158-.0117263-.289579.0822316-.3830315.0845053-.084379.1877053-.2193685.2816632-.3289474.0937473-.109579.1250105-.1881053.1877052-.3133053.0625053-.125221.0312421-.2350105-.015621-.3289473C6.2644 6.3801473 5.8889895 5.456 5.7325263 5.0801895c-.1523368-.365958-.3071579-.316421-.4222947-.322379-.1093684-.0054526-.234779-.0065684-.359979-.0065684-.1250105 0-.3285473.0470737-.5006315.2348842-.1720632.188-.6570737.6421684-.6570737 1.5662948 0 .9241473.6727158 1.8169263.7666736 1.942021.0937474.1254105 1.3237895 2.0217895 3.2072211 2.8349263.4477895.1934527.7974947.3089895 1.0703158.3955579.4496421.1428842.8589684.1227369 1.1823579.0744211.360821-.0540842 1.110821-.4541685 1.2672842-.8926948.1564421-.4387158.1564421-.8145473.1095789-.8928842z"/>
    </g>
</svg>