<?xml version="1.0" encoding="UTF-8"?>
<svg width="199px" height="25px" viewBox="0 0 199 25" version="1.1" xmlns="http://www.w3.org/2000/svg" xmlns:xlink="http://www.w3.org/1999/xlink">
    <!-- Generator: sketchtool 51.1 (57501) - http://www.bohemiancoding.com/sketch -->
    <title>12C3BAFA-C5F6-40F7-BC3D-F1207F02EA21</title>
    <desc>Created with sketchtool.</desc>
    <defs></defs>
    <g id="Page-1" stroke="none" stroke-width="1" fill="none" fill-rule="evenodd">
        <g id="Artboard-Copy" transform="translate(-300.000000, -30.000000)" fill="#3532D5">
            <path d="M307.852857,33.9264284 C307.486388,33.9264284 307.17664,34.0529454 306.923602,34.3059832 C306.670564,34.5590209 306.544047,34.8687694 306.544047,35.2352379 L306.544047,36.5440474 C306.544047,36.9105159 306.670564,37.2202643 306.923602,37.4733021 C307.17664,37.7263399 307.486388,37.8528568 307.852857,37.8528568 L317.014523,37.8528568 C317.5555,37.8528568 318.065931,37.9575606 318.54583,38.1669711 C319.025729,38.3763817 319.440182,38.6555916 319.789199,39.0046092 C320.138217,39.3536268 320.417427,39.768079 320.626837,40.2479782 C320.836248,40.7278774 320.940952,41.238308 320.940952,41.7792853 L320.940952,45.7057137 C320.940952,46.246691 320.836248,46.7571216 320.626837,47.2370208 C320.417427,47.71692 320.138217,48.1313722 319.789199,48.4803898 C319.440182,48.8294074 319.025729,49.1086173 318.54583,49.3180278 C318.065931,49.5274384 317.5555,49.6321421 317.014523,49.6321421 L300,49.6321421 L300,45.7057137 L313.088095,45.7057137 C313.454563,45.7057137 313.764312,45.5791967 314.017349,45.3261589 C314.270387,45.0731212 314.396904,44.7633727 314.396904,44.3969042 L314.396904,43.0880947 C314.396904,42.7216263 314.270387,42.4118778 314.017349,42.15884 C313.764312,41.9058023 313.454563,41.7792853 313.088095,41.7792853 L303.926428,41.7792853 C303.385451,41.7792853 302.875021,41.6745816 302.395121,41.465171 C301.915222,41.2557604 301.50077,40.9765505 301.151752,40.6275329 C300.802735,40.2785153 300.523525,39.8640631 300.314114,39.3841639 C300.104704,38.9042647 300,38.3938341 300,37.8528568 L300,33.9264284 C300,33.3854511 300.104704,32.8750205 300.314114,32.3951213 C300.523525,31.9152221 300.802735,31.5007699 301.151752,31.1517523 C301.50077,30.8027347 301.915222,30.5235248 302.395121,30.3141143 C302.875021,30.1047037 303.385451,30 303.926428,30 L320.940952,30 L320.940952,33.9264284 L307.852857,33.9264284 Z M329.464295,40.4704758 L329.464295,54.86738 L322.920248,54.86738 L322.920248,39.1616663 C322.920248,38.620689 323.024952,38.1102584 323.234362,37.6303592 C323.443773,37.15046 323.722983,36.7360078 324.072,36.3869902 C324.421018,36.0379726 324.83547,35.7587627 325.315369,35.5493522 C325.795268,35.3399416 326.305699,35.2352379 326.846676,35.2352379 L339.934771,35.2352379 C340.475748,35.2352379 340.986179,35.3399416 341.466078,35.5493522 C341.945977,35.7587627 342.36043,36.0379726 342.709447,36.3869902 C343.058465,36.7360078 343.337675,37.15046 343.547085,37.6303592 C343.756496,38.1102584 343.861199,38.620689 343.861199,39.1616663 L343.861199,45.7057137 C343.861199,46.246691 343.756496,46.7571216 343.547085,47.2370208 C343.337675,47.71692 343.058465,48.1313722 342.709447,48.4803898 C342.36043,48.8294074 341.945977,49.1086173 341.466078,49.3180278 C340.986179,49.5274384 340.475748,49.6321421 339.934771,49.6321421 L330.773105,49.6321421 L330.773105,45.7057137 L336.008343,45.7057137 C336.374811,45.7057137 336.68456,45.5791967 336.937597,45.3261589 C337.190635,45.0731212 337.317152,44.7633727 337.317152,44.3969042 L337.317152,40.4704758 C337.317152,40.1040073 337.190635,39.7942588 336.937597,39.5412211 C336.68456,39.2881833 336.374811,39.1616663 336.008343,39.1616663 L330.773105,39.1616663 C330.406636,39.1616663 330.096888,39.2881833 329.84385,39.5412211 C329.590812,39.7942588 329.464295,40.1040073 329.464295,40.4704758 Z M345.840496,49.6321421 L345.840496,35.2352379 L352.384543,35.2352379 L352.384543,49.6321421 L345.840496,49.6321421 Z M352.384543,30 L352.384543,33.9526046 L345.840496,33.9526046 L345.840496,30 L352.384543,30 Z M368.760744,35.2352379 L368.760744,39.1616663 L360.907887,39.1616663 L360.907887,44.3969042 C360.907887,44.7633727 361.034404,45.0731212 361.287442,45.3261589 C361.540479,45.5791967 361.850228,45.7057137 362.216696,45.7057137 L368.760744,45.7057137 L368.760744,49.6321421 L358.290268,49.6321421 C357.749291,49.6321421 357.23886,49.5274384 356.758961,49.3180278 C356.279062,49.1086173 355.864609,48.8294074 355.515592,48.4803898 C355.166574,48.1313722 354.887364,47.71692 354.677954,47.2370208 C354.468543,46.7571216 354.363839,46.246691 354.363839,45.7057137 L354.363839,30 L360.907887,30 L360.907887,35.2352379 L368.760744,35.2352379 Z M377.284087,30 L377.284087,44.3969042 C377.284087,44.7633727 377.410604,45.0731212 377.663642,45.3261589 C377.91668,45.5791967 378.226428,45.7057137 378.592897,45.7057137 L383.828135,45.7057137 C384.194603,45.7057137 384.504352,45.5791967 384.757389,45.3261589 C385.010427,45.0731212 385.136944,44.7633727 385.136944,44.3969042 L385.136944,40.4704758 C385.136944,40.1040073 385.010427,39.7942588 384.757389,39.5412211 C384.504352,39.2881833 384.194603,39.1616663 383.828135,39.1616663 L378.592897,39.1616663 L378.592897,35.2352379 L387.754563,35.2352379 C388.29554,35.2352379 388.805971,35.3399416 389.28587,35.5493522 C389.765769,35.7587627 390.180222,36.0379726 390.529239,36.3869902 C390.878257,36.7360078 391.157467,37.15046 391.366877,37.6303592 C391.576288,38.1102584 391.680992,38.620689 391.680992,39.1616663 L391.680992,45.7057137 C391.680992,46.246691 391.576288,46.7571216 391.366877,47.2370208 C391.157467,47.71692 390.878257,48.1313722 390.529239,48.4803898 C390.180222,48.8294074 389.765769,49.1086173 389.28587,49.3180278 C388.805971,49.5274384 388.29554,49.6321421 387.754563,49.6321421 L374.666468,49.6321421 C374.125491,49.6321421 373.615061,49.5274384 373.135161,49.3180278 C372.655262,49.1086173 372.24081,48.8294074 371.891792,48.4803898 C371.542775,48.1313722 371.263565,47.71692 371.054154,47.2370208 C370.844744,46.7571216 370.74004,46.246691 370.74004,45.7057137 L370.74004,30 L377.284087,30 Z M408.057192,49.6321421 L408.057192,40.4704758 C408.057192,40.1040073 407.930675,39.7942588 407.677637,39.5412211 C407.4246,39.2881833 407.114851,39.1616663 406.748383,39.1616663 L401.513145,39.1616663 C401.146676,39.1616663 400.836928,39.2881833 400.58389,39.5412211 C400.330852,39.7942588 400.204335,40.1040073 400.204335,40.4704758 L400.204335,44.3969042 C400.204335,44.7633727 400.330852,45.0731212 400.58389,45.3261589 C400.836928,45.5791967 401.146676,45.7057137 401.513145,45.7057137 L406.748383,45.7057137 L406.748383,49.6321421 L397.586716,49.6321421 C397.045739,49.6321421 396.535308,49.5274384 396.055409,49.3180278 C395.57551,49.1086173 395.161058,48.8294074 394.81204,48.4803898 C394.463023,48.1313722 394.183813,47.71692 393.974402,47.2370208 C393.764992,46.7571216 393.660288,46.246691 393.660288,45.7057137 L393.660288,39.1616663 C393.660288,38.620689 393.764992,38.1102584 393.974402,37.6303592 C394.183813,37.15046 394.463023,36.7360078 394.81204,36.3869902 C395.161058,36.0379726 395.57551,35.7587627 396.055409,35.5493522 C396.535308,35.3399416 397.045739,35.2352379 397.586716,35.2352379 L410.674811,35.2352379 C411.215788,35.2352379 411.726219,35.3399416 412.206118,35.5493522 C412.686017,35.7587627 413.10047,36.0379726 413.449487,36.3869902 C413.798505,36.7360078 414.077715,37.15046 414.287125,37.6303592 C414.496536,38.1102584 414.60124,38.620689 414.60124,39.1616663 L414.60124,49.6321421 L408.057192,49.6321421 Z M416.580536,49.6321421 L416.580536,30 L423.124583,30 L423.124583,49.6321421 L416.580536,49.6321421 Z M425.103879,49.6321421 L425.103879,30 L431.647927,30 L431.647927,49.6321421 L425.103879,49.6321421 Z M455.238662,45.7057137 L469.635566,45.7057137 L469.635566,49.6321421 L448.694614,49.6321421 L448.694614,41.7792853 C448.694614,41.238308 448.799318,40.7278774 449.008729,40.2479782 C449.218139,39.768079 449.497349,39.3536268 449.846367,39.0046092 C450.195384,38.6555916 450.609836,38.3763817 451.089736,38.1669711 C451.569635,37.9575606 452.080065,37.8528568 452.621043,37.8528568 L461.782709,37.8528568 C462.149177,37.8528568 462.458926,37.7263399 462.711964,37.4733021 C462.965001,37.2202643 463.091518,36.9105159 463.091518,36.5440474 L463.091518,35.2352379 C463.091518,34.8687694 462.965001,34.5590209 462.711964,34.3059832 C462.458926,34.0529454 462.149177,33.9264284 461.782709,33.9264284 L448.694614,33.9264284 L448.694614,30 L465.709137,30 C466.250115,30 466.760545,30.1047037 467.240444,30.3141143 C467.720344,30.5235248 468.134796,30.8027347 468.483813,31.1517523 C468.832831,31.5007699 469.112041,31.9152221 469.321452,32.3951213 C469.530862,32.8750205 469.635566,33.3854511 469.635566,33.9264284 L469.635566,37.8528568 C469.635566,38.3938341 469.530862,38.9042647 469.321452,39.3841639 C469.112041,39.8640631 468.832831,40.2785153 468.483813,40.6275329 C468.134796,40.9765505 467.720344,41.2557604 467.240444,41.465171 C466.760545,41.6745816 466.250115,41.7792853 465.709137,41.7792853 L456.547471,41.7792853 C456.181003,41.7792853 455.871254,41.9058023 455.618216,42.15884 C455.365179,42.4118778 455.238662,42.7216263 455.238662,43.0880947 L455.238662,45.7057137 Z M471.614862,49.6321421 L471.614862,45.7057137 L475.541291,45.7057137 L475.541291,49.6321421 L471.614862,49.6321421 Z M477.520587,45.7057137 L477.520587,33.9264284 C477.520587,33.3854511 477.625291,32.8750205 477.834701,32.3951213 C478.044112,31.9152221 478.323322,31.5007699 478.672339,31.1517523 C479.021357,30.8027347 479.435809,30.5235248 479.915708,30.3141143 C480.395607,30.1047037 480.906038,30 481.447015,30 L494.53511,30 C495.076087,30 495.586518,30.1047037 496.066417,30.3141143 C496.546316,30.5235248 496.960769,30.8027347 497.309786,31.1517523 C497.658804,31.5007699 497.938014,31.9152221 498.147424,32.3951213 C498.356835,32.8750205 498.461538,33.3854511 498.461538,33.9264284 L498.461538,45.7057137 C498.461538,46.246691 498.356835,46.7571216 498.147424,47.2370208 C497.938014,47.71692 497.658804,48.1313722 497.309786,48.4803898 C496.960769,48.8294074 496.546316,49.1086173 496.066417,49.3180278 C495.586518,49.5274384 495.076087,49.6321421 494.53511,49.6321421 L481.447015,49.6321421 C480.906038,49.6321421 480.395607,49.5274384 479.915708,49.3180278 C479.435809,49.1086173 479.021357,48.8294074 478.672339,48.4803898 C478.323322,48.1313722 478.044112,47.71692 477.834701,47.2370208 C477.625291,46.7571216 477.520587,46.246691 477.520587,45.7057137 Z M484.064634,44.3969042 C484.064634,44.7633727 484.191151,45.0731212 484.444189,45.3261589 C484.697227,45.5791967 485.006975,45.7057137 485.373444,45.7057137 L490.608682,45.7057137 C490.97515,45.7057137 491.284899,45.5791967 491.537936,45.3261589 C491.790974,45.0731212 491.917491,44.7633727 491.917491,44.3969042 L491.917491,35.2352379 C491.917491,34.8687694 491.790974,34.5590209 491.537936,34.3059832 C491.284899,34.0529454 490.97515,33.9264284 490.608682,33.9264284 L485.373444,33.9264284 C485.006975,33.9264284 484.697227,34.0529454 484.444189,34.3059832 C484.191151,34.5590209 484.064634,34.8687694 484.064634,35.2352379 L484.064634,44.3969042 Z" id="Spitball-2.0-Copy"></path>
        </g>
    </g>
</svg>