<?xml version="1.0" encoding="UTF-8"?>
<svg width="199px" height="26px" viewBox="0 0 199 26" version="1.1" xmlns="http://www.w3.org/2000/svg" xmlns:xlink="http://www.w3.org/1999/xlink">
    <!-- Generator: sketchtool 51.1 (57501) - http://www.bohemiancoding.com/sketch -->
    <title>4FC84942-6920-4802-9ADD-1806DABDEDD7</title>
    <desc>Created with sketchtool.</desc>
    <defs></defs>
    <g id="Page-1" stroke="none" stroke-width="1" fill="none" fill-rule="evenodd">
        <g id="Artboard-Copy" transform="translate(-30.000000, -29.000000)" fill="#FFFFFF">
            <path d="M38.3913184,33.8495053 C38.0248499,33.8495053 37.7151014,33.9760223 37.4620637,34.2290601 C37.2090259,34.4820979 37.0825089,34.7918463 37.0825089,35.1583148 L37.0825089,36.4671243 C37.0825089,36.8335928 37.2090259,37.1433413 37.4620637,37.396379 C37.7151014,37.6494168 38.0248499,37.7759338 38.3913184,37.7759338 L47.5529847,37.7759338 C48.093962,37.7759338 48.6043926,37.8806375 49.0842918,38.090048 C49.564191,38.2994586 49.9786432,38.5786685 50.3276608,38.9276861 C50.6766784,39.2767037 50.9558883,39.6911559 51.1652989,40.1710551 C51.3747094,40.6509543 51.4794131,41.1613849 51.4794131,41.7023622 L51.4794131,45.6287906 C51.4794131,46.1697679 51.3747094,46.6801985 51.1652989,47.1600977 C50.9558883,47.6399969 50.6766784,48.0544491 50.3276608,48.4034667 C49.9786432,48.7524843 49.564191,49.0316942 49.0842918,49.2411048 C48.6043926,49.4505153 48.093962,49.555219 47.5529847,49.555219 L30.5384615,49.555219 L30.5384615,45.6287906 L43.6265563,45.6287906 C43.9930248,45.6287906 44.3027732,45.5022736 44.555811,45.2492359 C44.8088488,44.9961981 44.9353658,44.6864496 44.9353658,44.3199811 L44.9353658,43.0111717 C44.9353658,42.6447032 44.8088488,42.3349547 44.555811,42.0819169 C44.3027732,41.8288792 43.9930248,41.7023622 43.6265563,41.7023622 L34.46489,41.7023622 C33.9239127,41.7023622 33.4134821,41.5976585 32.9335829,41.3882479 C32.4536837,41.1788374 32.0392315,40.8996275 31.6902139,40.5506099 C31.3411963,40.2015922 31.0619864,39.7871401 30.8525758,39.3072409 C30.6431652,38.8273416 30.5384615,38.3169111 30.5384615,37.7759338 L30.5384615,33.8495053 C30.5384615,33.3085281 30.6431652,32.7980975 30.8525758,32.3181983 C31.0619864,31.8382991 31.3411963,31.4238469 31.6902139,31.0748293 C32.0392315,30.7258117 32.4536837,30.4466018 32.9335829,30.2371912 C33.4134821,30.0277806 33.9239127,29.9230769 34.46489,29.9230769 L51.4794131,29.9230769 L51.4794131,33.8495053 L38.3913184,33.8495053 Z M60.0027568,40.3935527 L60.0027568,54.7904569 L53.4587094,54.7904569 L53.4587094,39.0847432 C53.4587094,38.543766 53.5634131,38.0333354 53.7728237,37.5534362 C53.9822343,37.073537 54.2614442,36.6590848 54.6104618,36.3100672 C54.9594794,35.9610496 55.3739316,35.6818397 55.8538308,35.4724291 C56.33373,35.2630185 56.8441606,35.1583148 57.3851379,35.1583148 L70.4732326,35.1583148 C71.0142099,35.1583148 71.5246405,35.2630185 72.0045397,35.4724291 C72.4844389,35.6818397 72.8988911,35.9610496 73.2479087,36.3100672 C73.5969263,36.6590848 73.8761362,37.073537 74.0855468,37.5534362 C74.2949573,38.0333354 74.399661,38.543766 74.399661,39.0847432 L74.399661,45.6287906 C74.399661,46.1697679 74.2949573,46.6801985 74.0855468,47.1600977 C73.8761362,47.6399969 73.5969263,48.0544491 73.2479087,48.4034667 C72.8988911,48.7524843 72.4844389,49.0316942 72.0045397,49.2411048 C71.5246405,49.4505153 71.0142099,49.555219 70.4732326,49.555219 L61.3115663,49.555219 L61.3115663,45.6287906 L66.5468042,45.6287906 C66.9132727,45.6287906 67.2230211,45.5022736 67.4760589,45.2492359 C67.7290967,44.9961981 67.8556137,44.6864496 67.8556137,44.3199811 L67.8556137,40.3935527 C67.8556137,40.0270842 67.7290967,39.7173358 67.4760589,39.464298 C67.2230211,39.2112602 66.9132727,39.0847432 66.5468042,39.0847432 L61.3115663,39.0847432 C60.9450978,39.0847432 60.6353493,39.2112602 60.3823116,39.464298 C60.1292738,39.7173358 60.0027568,40.0270842 60.0027568,40.3935527 Z M76.3789573,49.555219 L76.3789573,35.1583148 L82.9230047,35.1583148 L82.9230047,49.555219 L76.3789573,49.555219 Z M82.9230047,29.9230769 L82.9230047,33.8756815 L76.3789573,33.8756815 L76.3789573,29.9230769 L82.9230047,29.9230769 Z M99.2992052,35.1583148 L99.2992052,39.0847432 L91.4463484,39.0847432 L91.4463484,44.3199811 C91.4463484,44.6864496 91.5728654,44.9961981 91.8259031,45.2492359 C92.0789409,45.5022736 92.3886894,45.6287906 92.7551579,45.6287906 L99.2992052,45.6287906 L99.2992052,49.555219 L88.8287294,49.555219 C88.2877522,49.555219 87.7773216,49.4505153 87.2974224,49.2411048 C86.8175232,49.0316942 86.403071,48.7524843 86.0540534,48.4034667 C85.7050358,48.0544491 85.4258259,47.6399969 85.2164153,47.1600977 C85.0070047,46.6801985 84.902301,46.1697679 84.902301,45.6287906 L84.902301,29.9230769 L91.4463484,29.9230769 L91.4463484,35.1583148 L99.2992052,35.1583148 Z M107.822549,29.9230769 L107.822549,44.3199811 C107.822549,44.6864496 107.949066,44.9961981 108.202104,45.2492359 C108.455141,45.5022736 108.76489,45.6287906 109.131358,45.6287906 L114.366596,45.6287906 C114.733065,45.6287906 115.042813,45.5022736 115.295851,45.2492359 C115.548889,44.9961981 115.675406,44.6864496 115.675406,44.3199811 L115.675406,40.3935527 C115.675406,40.0270842 115.548889,39.7173358 115.295851,39.464298 C115.042813,39.2112602 114.733065,39.0847432 114.366596,39.0847432 L109.131358,39.0847432 L109.131358,35.1583148 L118.293025,35.1583148 C118.834002,35.1583148 119.344433,35.2630185 119.824332,35.4724291 C120.304231,35.6818397 120.718683,35.9610496 121.067701,36.3100672 C121.416718,36.6590848 121.695928,37.073537 121.905339,37.5534362 C122.114749,38.0333354 122.219453,38.543766 122.219453,39.0847432 L122.219453,45.6287906 C122.219453,46.1697679 122.114749,46.6801985 121.905339,47.1600977 C121.695928,47.6399969 121.416718,48.0544491 121.067701,48.4034667 C120.718683,48.7524843 120.304231,49.0316942 119.824332,49.2411048 C119.344433,49.4505153 118.834002,49.555219 118.293025,49.555219 L105.20493,49.555219 C104.663953,49.555219 104.153522,49.4505153 103.673623,49.2411048 C103.193724,49.0316942 102.779271,48.7524843 102.430254,48.4034667 C102.081236,48.0544491 101.802026,47.6399969 101.592616,47.1600977 C101.383205,46.6801985 101.278502,46.1697679 101.278502,45.6287906 L101.278502,29.9230769 L107.822549,29.9230769 Z M138.595654,49.555219 L138.595654,40.3935527 C138.595654,40.0270842 138.469137,39.7173358 138.216099,39.464298 C137.963061,39.2112602 137.653313,39.0847432 137.286844,39.0847432 L132.051606,39.0847432 C131.685138,39.0847432 131.375389,39.2112602 131.122352,39.464298 C130.869314,39.7173358 130.742797,40.0270842 130.742797,40.3935527 L130.742797,44.3199811 C130.742797,44.6864496 130.869314,44.9961981 131.122352,45.2492359 C131.375389,45.5022736 131.685138,45.6287906 132.051606,45.6287906 L137.286844,45.6287906 L137.286844,49.555219 L128.125178,49.555219 C127.584201,49.555219 127.07377,49.4505153 126.593871,49.2411048 C126.113972,49.0316942 125.699519,48.7524843 125.350502,48.4034667 C125.001484,48.0544491 124.722274,47.6399969 124.512864,47.1600977 C124.303453,46.6801985 124.198749,46.1697679 124.198749,45.6287906 L124.198749,39.0847432 C124.198749,38.543766 124.303453,38.0333354 124.512864,37.5534362 C124.722274,37.073537 125.001484,36.6590848 125.350502,36.3100672 C125.699519,35.9610496 126.113972,35.6818397 126.593871,35.4724291 C127.07377,35.2630185 127.584201,35.1583148 128.125178,35.1583148 L141.213273,35.1583148 C141.75425,35.1583148 142.26468,35.2630185 142.74458,35.4724291 C143.224479,35.6818397 143.638931,35.9610496 143.987949,36.3100672 C144.336966,36.6590848 144.616176,37.073537 144.825587,37.5534362 C145.034997,38.0333354 145.139701,38.543766 145.139701,39.0847432 L145.139701,49.555219 L138.595654,49.555219 Z M147.118997,49.555219 L147.118997,29.9230769 L153.663045,29.9230769 L153.663045,49.555219 L147.118997,49.555219 Z M155.642341,49.555219 L155.642341,29.9230769 L162.186388,29.9230769 L162.186388,49.555219 L155.642341,49.555219 Z M185.777123,45.6287906 L200.174027,45.6287906 L200.174027,49.555219 L179.233076,49.555219 L179.233076,41.7023622 C179.233076,41.1613849 179.337779,40.6509543 179.54719,40.1710551 C179.756601,39.6911559 180.035811,39.2767037 180.384828,38.9276861 C180.733846,38.5786685 181.148298,38.2994586 181.628197,38.090048 C182.108096,37.8806375 182.618527,37.7759338 183.159504,37.7759338 L192.321171,37.7759338 C192.687639,37.7759338 192.997387,37.6494168 193.250425,37.396379 C193.503463,37.1433413 193.62998,36.8335928 193.62998,36.4671243 L193.62998,35.1583148 C193.62998,34.7918463 193.503463,34.4820979 193.250425,34.2290601 C192.997387,33.9760223 192.687639,33.8495053 192.321171,33.8495053 L179.233076,33.8495053 L179.233076,29.9230769 L196.247599,29.9230769 C196.788576,29.9230769 197.299007,30.0277806 197.778906,30.2371912 C198.258805,30.4466018 198.673257,30.7258117 199.022275,31.0748293 C199.371293,31.4238469 199.650503,31.8382991 199.859913,32.3181983 C200.069324,32.7980975 200.174027,33.3085281 200.174027,33.8495053 L200.174027,37.7759338 C200.174027,38.3169111 200.069324,38.8273416 199.859913,39.3072409 C199.650503,39.7871401 199.371293,40.2015922 199.022275,40.5506099 C198.673257,40.8996275 198.258805,41.1788374 197.778906,41.3882479 C197.299007,41.5976585 196.788576,41.7023622 196.247599,41.7023622 L187.085933,41.7023622 C186.719464,41.7023622 186.409716,41.8288792 186.156678,42.0819169 C185.90364,42.3349547 185.777123,42.6447032 185.777123,43.0111717 L185.777123,45.6287906 Z M202.153324,49.555219 L202.153324,45.6287906 L206.079752,45.6287906 L206.079752,49.555219 L202.153324,49.555219 Z M208.059048,45.6287906 L208.059048,33.8495053 C208.059048,33.3085281 208.163752,32.7980975 208.373163,32.3181983 C208.582573,31.8382991 208.861783,31.4238469 209.210801,31.0748293 C209.559818,30.7258117 209.974271,30.4466018 210.45417,30.2371912 C210.934069,30.0277806 211.4445,29.9230769 211.985477,29.9230769 L225.073572,29.9230769 C225.614549,29.9230769 226.124979,30.0277806 226.604879,30.2371912 C227.084778,30.4466018 227.49923,30.7258117 227.848248,31.0748293 C228.197265,31.4238469 228.476475,31.8382991 228.685886,32.3181983 C228.895296,32.7980975 229,33.3085281 229,33.8495053 L229,45.6287906 C229,46.1697679 228.895296,46.6801985 228.685886,47.1600977 C228.476475,47.6399969 228.197265,48.0544491 227.848248,48.4034667 C227.49923,48.7524843 227.084778,49.0316942 226.604879,49.2411048 C226.124979,49.4505153 225.614549,49.555219 225.073572,49.555219 L211.985477,49.555219 C211.4445,49.555219 210.934069,49.4505153 210.45417,49.2411048 C209.974271,49.0316942 209.559818,48.7524843 209.210801,48.4034667 C208.861783,48.0544491 208.582573,47.6399969 208.373163,47.1600977 C208.163752,46.6801985 208.059048,46.1697679 208.059048,45.6287906 Z M214.603096,44.3199811 C214.603096,44.6864496 214.729613,44.9961981 214.982651,45.2492359 C215.235688,45.5022736 215.545437,45.6287906 215.911905,45.6287906 L221.147143,45.6287906 C221.513612,45.6287906 221.82336,45.5022736 222.076398,45.2492359 C222.329436,44.9961981 222.455953,44.6864496 222.455953,44.3199811 L222.455953,35.1583148 C222.455953,34.7918463 222.329436,34.4820979 222.076398,34.2290601 C221.82336,33.9760223 221.513612,33.8495053 221.147143,33.8495053 L215.911905,33.8495053 C215.545437,33.8495053 215.235688,33.9760223 214.982651,34.2290601 C214.729613,34.4820979 214.603096,34.7918463 214.603096,35.1583148 L214.603096,44.3199811 Z" id="Spitball-2.0"></path>
        </g>
    </g>
</svg>