<svg xmlns="http://www.w3.org/2000/svg" width="35" height="39" viewBox="0 0 35 39">
    <g fill="none" fill-rule="evenodd">
        <path fill="#4452FC" fill-rule="nonzero" d="M23.435 3.196C14.03 3.196 6.39 10.5 6.39 19.493c0 8.993 7.64 16.298 17.044 16.298h1.002v5.752c9.745-4.486 16.041-13.421 16.041-22.05 0-8.992-7.64-16.297-17.043-16.297zm2.005 25.846h-3.01v-2.879h3.01v2.879zm.125-6.982h-3.26c0-5.066 4.89-4.677 4.89-7.794 0-1.715-1.467-3.118-3.26-3.118-1.793 0-3.26 1.403-3.26 3.118h-3.26c0-3.445 2.917-6.236 6.52-6.236 3.602 0 6.52 2.79 6.52 6.236 0 3.897-4.89 4.286-4.89 7.794z" transform="translate(-6 -3)"/>
        <path d="M0 0L49 0 49 45.804 0 45.804z" transform="translate(-6 -3)"/>
    </g>
</svg>
