<svg xmlns:xlink="http://www.w3.org/1999/xlink" width="2.324ex" height="1.743ex" viewBox="0 -633.5 1000.5 750.3" role="img" focusable="false" style="vertical-align: -0.271ex;" aria-hidden="true"><g stroke="currentColor" fill="currentColor" stroke-width="0" transform="matrix(1 0 0 -1 0 0)"><path stroke-width="1" d="M944 153Q944 140 929 133H318L328 123Q379 69 414 0Q419 -13 419 -17Q419 -24 399 -24Q388 -24 385 -23T377 -12Q332 77 253 144T72 237Q62 240 59 242T56 250T59 257T70 262T89 268T119 278T160 296Q303 366 377 512Q382 522 385 523T401 525Q419 524 419 515Q419 510 414 500Q379 431 328 377L318 367H929Q944 359 944 347Q944 336 930 328L602 327H274L264 319Q225 289 147 250Q148 249 165 241T210 217T264 181L274 173H930Q931 172 933 171T936 169T938 167T941 164T942 162T943 158T944 153Z"></path></g></svg>