<?xml version="1.0" encoding="UTF-8"?>
<svg viewBox="0 0 20 16" version="1.1" xmlns="http://www.w3.org/2000/svg" xmlns:xlink="http://www.w3.org/1999/xlink">
    <!-- Generator: sketchtool 46.2 (44496) - http://www.bohemiancoding.com/sketch -->
    <title>6B74B50F-B422-4382-B5D2-BF49CCD33F68</title>
    <desc>Created with sketchtool.</desc>
    <defs></defs>
    <g id="Screen-641" stroke="none" stroke-width="1" fill="none" fill-rule="evenodd">
        <g id="Size-641-Copy-12" transform="translate(-26.000000, -203.000000)" fill-rule="nonzero" fill="#f14d4d">
            <g id="Group-2" transform="translate(17.000000, 78.000000)">
                <g id="Group-9">
                    <path class="ic" d="M28.1165164,131.459459 C28.5,131.908784 28.5,132.550676 28.5,133.834459 L28.5,138.04955 C28.5,139.290541 28.5,139.975225 28.1165164,140.42455 C27.6904235,140.916667 26.9873702,140.916667 25.9221379,140.916667 C25.858224,140.916667 17.5494124,140.916667 17.1872335,140.916667 L16.9102731,140.916667 C14.5667621,140.89527 14.396325,140.552928 14.396325,138.092342 C15.8876501,137.621622 23.3229713,135.353604 23.3655805,135.353604 C24.4947267,135.011261 25.2403893,134.775901 25.5386543,134.134009 C25.8156147,133.53491 25.6025683,132.807432 25.19778,131.480856 L25.0486475,130.967342 L25.9008333,130.967342 C27.0512841,130.967342 27.7117281,130.988739 28.1165164,131.459459 Z M24.4308128,131.352477 C24.7716871,132.529279 24.9847336,133.171171 24.7290778,133.706081 C24.4734221,134.283784 23.7916734,134.497748 22.7903551,134.797297 C22.7264412,134.797297 14.6093714,137.279279 14.5454575,137.300676 L14.2898018,137.386261 C13.5654438,137.600225 13.1606556,137.707207 12.7984766,137.707207 C11.8184629,137.707207 11.5841118,136.936937 11.1154096,135.375 L9.92234952,131.416667 C9.56017056,130.197072 9.36842875,129.576577 9.60277985,129.063063 C9.85843559,128.48536 10.5401842,128.292793 11.5628072,127.971847 L11.7332444,127.929054 C11.7971583,127.907658 19.914228,125.447072 19.978142,125.425676 C20.6598906,125.211712 21.1285928,125.083333 21.5333811,125.083333 C22.5346994,125.083333 22.7690505,125.853604 23.2377527,127.394144 L24.4308128,131.352477 Z" id="Shape-Copy-15"></path>
                </g>
            </g>
        </g>
    </g>
</svg>