<!-- Generated by IcoMoon.io -->
<svg version="1.1" xmlns="http://www.w3.org/2000/svg" width="160" height="32" viewBox="0 0 160 32">
<title>normal-logo</title>
<path fill="#fff" d="M8.725 5.514c-0.301 0.291-0.488 0.699-0.488 1.15 0 0.002 0 0.004 0 0.007v-0 1.654c0 0.44 0.163 0.882 0.488 1.157 0.325 0.331 0.704 0.496 1.138 0.496h11.435c0.651 0 1.301 0.112 1.898 0.387 0.595 0.275 1.138 0.606 1.571 1.046 0.432 0.442 0.758 0.992 1.029 1.6 0.272 0.605 0.381 1.267 0.381 1.928v5.018c0 0.661-0.109 1.323-0.381 1.93-0.27 0.606-0.595 1.157-1.029 1.598s-0.976 0.771-1.571 1.048c-0.536 0.243-1.161 0.385-1.82 0.385-0.027 0-0.054-0-0.081-0.001l0.004 0h-21.298v-5.016h16.366c0.432 0 0.867-0.165 1.138-0.496 0.301-0.291 0.488-0.699 0.488-1.15 0-0.002 0-0.004 0-0.007v0-1.656c0-0.442-0.163-0.882-0.488-1.158-0.283-0.305-0.687-0.496-1.135-0.496-0.001 0-0.002 0-0.002 0h-11.435c-0.65 0-1.301-0.11-1.896-0.384-0.597-0.277-1.139-0.608-1.571-1.048-0.434-0.442-0.76-0.992-1.030-1.6-0.24-0.547-0.38-1.184-0.38-1.854 0-0.027 0-0.053 0.001-0.080l-0 0.004v-5.014c0-0.661 0.109-1.323 0.379-1.93 0.272-0.606 0.597-1.158 1.030-1.6 0.432-0.44 0.976-0.771 1.571-1.046 0.537-0.244 1.163-0.386 1.824-0.386 0.025 0 0.051 0 0.076 0.001l-0.004-0h21.298v5.016h-16.366c-0.438 0.053-0.827 0.232-1.139 0.498l0.003-0.002zM37.069 31.475h-8.216v-19.968c0-0.659 0.109-1.32 0.381-1.925s0.598-1.155 1.034-1.595 0.979-0.77 1.578-1.045c0.6-0.275 1.253-0.384 1.904-0.384h16.435c0.653 0 1.306 0.109 1.904 0.384 0.6 0.275 1.144 0.605 1.579 1.045s0.762 0.99 1.034 1.595c0.272 0.605 0.381 1.264 0.381 1.925v8.307c0 0.659-0.109 1.32-0.381 1.925s-0.598 1.155-1.034 1.595-0.979 0.77-1.578 1.045c-0.6 0.275-1.253 0.384-1.904 0.384h-11.483v-5.003h6.584c0.435 0 0.87-0.165 1.142-0.494 0.303-0.29 0.491-0.698 0.491-1.15 0-0.002 0-0.004 0-0.005v0-5.008c0-0.44-0.163-0.88-0.491-1.154-0.285-0.306-0.69-0.496-1.14-0.496-0.001 0-0.002 0-0.002 0h-6.582c-0.435 0-0.87 0.165-1.142 0.496-0.303 0.29-0.491 0.698-0.491 1.15 0 0.001 0 0.002 0 0.004v-0 18.373zM64.262 5.006h-7.869v-5.006h7.869v5.006zM56.394 6.654h7.869v18.264h-7.869v-18.262zM85.246 11.606h-10.010v6.656c0 0.44 0.165 0.88 0.496 1.155 0.333 0.33 0.72 0.496 1.162 0.496h8.352v5.005h-13.384c-0.664 0-1.328-0.11-1.936-0.384-0.608-0.277-1.162-0.608-1.603-1.046-0.443-0.44-0.774-0.99-1.051-1.595-0.245-0.545-0.388-1.181-0.388-1.851 0-0.026 0-0.052 0.001-0.077l-0 0.004v-19.968h8.352v6.656h10.010v4.95zM94.774 18.344c0 0.442 0.163 0.883 0.49 1.16 0.326 0.331 0.707 0.496 1.142 0.496h6.586c0.435 0 0.87-0.165 1.142-0.496 0.326-0.333 0.49-0.72 0.49-1.16v-5.029c0-0.442-0.163-0.883-0.49-1.16-0.285-0.306-0.689-0.496-1.139-0.496-0.001 0-0.003 0-0.004 0h-6.585v-5.030h11.483c0.653 0 1.306 0.11 1.904 0.387 0.598 0.275 1.142 0.608 1.579 1.050 0.435 0.442 0.762 0.994 1.034 1.602s0.381 1.27 0.381 1.934v8.342c0 0.662-0.109 1.326-0.381 1.934s-0.598 1.16-1.034 1.6c-0.437 0.443-0.981 0.774-1.579 1.051-0.539 0.245-1.169 0.388-1.833 0.388-0.025 0-0.050-0-0.075-0.001l0.004 0h-16.435c-0.653 0-1.306-0.112-1.904-0.387-0.598-0.277-1.142-0.608-1.578-1.050s-0.763-0.995-1.035-1.602c-0.241-0.548-0.381-1.186-0.381-1.858 0-0.027 0-0.055 0.001-0.082l-0 0.004v-19.942h8.218v18.344zM132.112 13.229c0-0.442-0.165-0.882-0.491-1.158-0.285-0.306-0.69-0.496-1.139-0.496-0.001 0-0.002 0-0.003 0h-6.584c-0.437 0-0.872 0.166-1.144 0.496-0.302 0.291-0.49 0.699-0.49 1.151 0 0.003 0 0.005 0 0.008v-0 5.018c0 0.442 0.163 0.882 0.49 1.158 0.326 0.33 0.707 0.496 1.144 0.496h6.584v5.018h-11.483c-0.653 0-1.306-0.112-1.904-0.386-0.598-0.277-1.142-0.608-1.578-1.048-0.435-0.442-0.762-0.992-1.034-1.6-0.242-0.548-0.383-1.186-0.383-1.858 0-0.025 0-0.050 0.001-0.076l-0 0.004v-8.435c0-0.662 0.109-1.323 0.382-1.93 0.272-0.608 0.598-1.158 1.034-1.6 0.435-0.44 0.979-0.771 1.578-1.046 0.54-0.245 1.17-0.388 1.834-0.388 0.025 0 0.049 0 0.073 0.001l-0.004-0h16.435c0.653 0 1.306 0.112 1.904 0.387s1.144 0.606 1.579 1.046c0.435 0.442 0.762 0.992 1.034 1.6 0.272 0.606 0.381 1.267 0.381 1.93v13.344h-8.218v-11.637zM142.95 0h7.869v24.918h-7.869zM152.131 0h7.869v24.918h-7.869z"></path>
</svg>
