<?xml version="1.0" encoding="UTF-8"?>
<svg viewBox="0 0 18 22" version="1.1" xmlns="http://www.w3.org/2000/svg" xmlns:xlink="http://www.w3.org/1999/xlink">
    <!-- Generator: sketchtool 46.2 (44496) - http://www.bohemiancoding.com/sketch -->
    <title>BB95E4EB-8D7F-49DB-B09A-42FCBDBF00FD</title>
    <desc>Created with sketchtool.</desc>
    <defs></defs>
    <g id="Screen-641" stroke="none" stroke-width="1" fill="none" fill-rule="evenodd">
        <g id="Size-641-Copy-12" transform="translate(-24.000000, -246.000000)" fill="#52ab15">
            <g id="Group-2" transform="translate(17.000000, 78.000000)">
                <g id="Group-9">
                    <path d="M24.2509383,175.323313 C24.2985334,176.968042 24.2709384,178.616041 24.2580269,180.262405 C24.2567611,180.45795 24.1927102,180.674989 24.0919504,180.844368 C23.8089113,181.318395 23.046883,181.410444 22.6721981,180.924034 C22.5154886,180.721013 22.4501719,180.499535 22.4506782,180.244416 C22.4554884,178.965312 22.453463,177.685975 22.453463,176.405937 C22.453463,176.246137 22.4585263,176.086336 22.4514377,175.926302 C22.4418174,175.724449 22.4015641,175.702956 22.1823228,175.698517 C22.008398,175.694312 21.9402965,175.76767 21.9575118,175.934947 C21.9615624,175.97186 21.9587776,176.010174 21.9587776,176.047788 C21.9587776,178.437317 21.9587776,180.826846 21.9587776,183.216608 C21.9597903,183.762826 21.9587776,184.666493 21.9597903,185.21201 C21.9602966,186.971682 21.9615624,186.581527 21.9602966,188.340966 C21.9597903,188.5281 21.9833346,188.731589 21.9215623,188.900267 C21.6213079,189.713753 20.7564945,189.932661 20.1023147,189.515638 C19.7013005,189.258883 19.5782621,188.857046 19.5787684,188.399138 C19.5825659,185.43559 19.5810469,184.263487 19.5810469,181.299939 C19.5810469,181.233823 19.5843381,181.167706 19.5802874,181.101824 C19.5681355,180.906045 19.5101606,180.86189 19.3159826,180.857918 C19.1402857,180.854881 19.1157287,180.959312 19.1169945,181.09575 C19.1182603,181.180089 19.116235,181.264895 19.116235,181.349468 C19.116235,184.284981 19.116235,185.429282 19.1157287,188.364328 C19.1157287,188.569919 19.1028172,188.766866 19.0177536,188.967551 C18.8306643,189.409105 18.5028149,189.659552 18.0400283,189.703006 C17.522558,189.751133 17.1104045,189.55956 16.8549605,189.076421 C16.7098966,188.800742 16.7321752,188.510345 16.7321752,188.221816 C16.7306562,183.621015 16.7326815,180.81166 16.733441,176.211093 C16.733441,176.098251 16.7362258,175.984709 16.7268587,175.872335 C16.7220486,175.821171 16.6959725,175.73286 16.6698965,175.729122 C16.542301,175.710665 16.404579,175.691508 16.2840722,175.722347 C16.2344518,175.734495 16.1931858,175.873503 16.1919199,175.955506 C16.1822997,176.359679 16.1891351,176.764553 16.1876161,177.168727 C16.1871098,177.409595 16.1268564,177.617523 15.9536912,177.810031 C15.7000193,178.09155 15.103055,178.118651 14.7296358,177.865634 C13.9058352,177.307734 13.0800092,176.754741 12.2506389,176.205486 C11.8982325,175.972794 11.7362066,175.655763 11.8232955,175.245282 C11.865321,175.047634 11.7911435,174.949511 11.6438012,174.853958 C11.2997492,174.629677 10.9600011,174.398387 10.6189871,174.169433 C9.77189522,173.599152 8.92455019,173.029337 8.07847098,172.458589 C7.89366014,172.333365 7.71011513,172.206039 7.53163343,172.072872 C7.36403785,171.947648 7.35213907,171.877794 7.45365845,171.750701 C7.55948164,171.61917 7.62505151,171.617301 7.78682429,171.727806 C8.34378846,172.110018 8.90176529,172.489427 9.45999529,172.869537 C10.2032893,173.375571 10.9463301,173.882307 11.6906368,174.387173 C11.7984853,174.460064 11.9177263,174.516602 12.0235495,174.592063 C12.1250688,174.664721 12.2035502,174.659347 12.3286139,174.618463 C12.6379822,174.518471 12.9498821,174.509359 13.2392503,174.725931 C13.5536819,174.960492 13.8833035,175.175194 14.2111528,175.391766 C14.356723,175.488253 14.3974827,175.46162 14.4182422,175.284531 C14.5848251,173.874363 15.5739429,173.297307 16.6511622,173.122788 C17.1673667,173.038682 17.7071156,173.097323 18.2354721,173.089379 C18.3731942,173.086809 18.4468653,173.143113 18.5174985,173.270206 C18.7420563,173.668772 18.996994,174.050751 19.2311722,174.445112 C19.2812989,174.528283 19.3175016,174.53132 19.376236,174.472213 C19.414464,174.433197 19.451173,174.391845 19.4792744,174.345587 C19.6883891,174.00169 19.8969975,173.658026 20.1018084,173.311791 C20.1894037,173.163205 20.2952269,173.075362 20.485101,173.082838 C20.8529505,173.09779 21.2220659,173.097089 21.5896622,173.089613 C22.0301703,173.08167 22.4458681,173.171382 22.8499203,173.337958 C23.8468861,173.750308 24.2261281,174.462401 24.2509383,175.323313 Z M19.2766962,172.614708 C18.2060591,172.615175 17.2478276,171.756599 17.2625112,170.623044 C17.2797265,169.306794 18.2675784,168.598206 19.2453037,168.611289 C20.3339154,168.62554 21.2425265,169.361229 21.2475898,170.592907 C21.3007546,171.751225 20.316447,172.614007 19.2766962,172.614708 Z" id="Tutor-Copy"></path>
                </g>
            </g>
        </g>
    </g>
</svg>