<svg xmlns="http://www.w3.org/2000/svg" width="32" height="32" viewBox="0 0 32 32">
    <path fill-rule="evenodd" d="M24 16.571h-2.286v2.286h-1.142v-2.286h-2.286v-1.143h2.286v-2.286h1.142v2.286H24v1.143zm-10.371-7a2.6 2.6 0 0 1 .755.915c.408.782.612 1.557.612 2.327 0 .178-.015.397-.044.658a1.986 1.986 0 0 1-.33.763c-.355.35-.8.534-1.331.553-.421 0-.796-.124-1.124-.372a3.053 3.053 0 0 1-.802-.906c-.428-.763-.642-1.497-.642-2.203a2.344 2.344 0 0 1 .44-1.45 1.805 1.805 0 0 1 1.367-.639c.414.013.78.131 1.099.353zm-.136 8.338c.174 0 .325.005.454.019.753.507 1.307.935 1.66 1.284.336.368.503.8.503 1.295 0 .61-.244 1.108-.734 1.495-.502.394-1.23.597-2.182.61-1.063-.013-1.9-.242-2.512-.686-.644-.445-.966-1.01-.966-1.695 0-.349.075-.647.223-.895.129-.235.286-.432.473-.59.193-.152.383-.27.57-.352.186-.077.33-.134.434-.171a8.943 8.943 0 0 1 1.285-.276c.425-.038.689-.051.792-.038zm2.265-8.301a3.677 3.677 0 0 1 .819 1.304c.089.285.133.618.133.999-.012.698-.171 1.256-.479 1.675-.151.203-.31.39-.479.562-.187.171-.385.346-.596.523a2.739 2.739 0 0 0-.335.41.887.887 0 0 0-.18.552.71.71 0 0 0 .185.504c.105.127.207.238.306.333l.686.543c.426.336.8.707 1.122 1.113.303.413.46.952.473 1.619 0 .945-.433 1.783-1.298 2.512-.898.755-2.193 1.146-3.885 1.171-1.416-.013-2.474-.304-3.172-.874C8.353 22.022 8 21.385 8 20.644c0-.361.115-.763.344-1.206.223-.444.625-.833 1.209-1.169a6.464 6.464 0 0 1 2.064-.722 16.316 16.316 0 0 1 1.778-.171 4.1 4.1 0 0 1-.39-.593 1.32 1.32 0 0 1-.199-.737c0-.172.025-.316.076-.431l.123-.334a6.01 6.01 0 0 1-.649.038c-1.077-.013-1.897-.34-2.462-.981-.591-.596-.886-1.291-.886-2.084 0-.958.419-1.827 1.256-2.608.574-.456 1.172-.755 1.792-.894a8.93 8.93 0 0 1 1.725-.181h4.044l-1.249.703h-1.247c.127.077.27.188.429.334zM16 0C7.163 0 0 7.163 0 16c0 8.836 7.163 16 16 16s16-7.164 16-16c0-8.837-7.163-16-16-16z"/>
</svg>
