<!--<svg xmlns="http://www.w3.org/2000/svg" viewBox="0 0 32 32">-->
    <!--<g fill="none">-->
        <!--<ellipse cx="15.886" cy="16.027" fill="#007AB9" rx="15.886" ry="15.747"/>-->
        <!--<path fill="#F1F2F2" d="M25.378 17.294v6.492h-3.797V17.73c0-1.52-.549-2.559-1.923-2.559-1.05 0-1.673.7-1.948 1.376-.1.242-.126.578-.126.918v6.322h-3.797s.05-10.258 0-11.32h3.797v1.604c-.007.013-.018.025-.025.037h.025v-.037c.505-.77 1.405-1.87 3.423-1.87 2.498 0 4.371 1.618 4.371 5.094zM9.814 7.01c-1.299 0-2.149.845-2.149 1.955 0 1.087.825 1.957 2.1 1.957h.024c1.324 0 2.148-.87 2.148-1.957-.025-1.11-.824-1.955-2.123-1.955zM7.891 23.786h3.796v-11.32H7.891v11.32z"/>-->
    <!--</g>-->
<!--</svg>-->
<svg xmlns="http://www.w3.org/2000/svg" width="32" height="32" viewBox="0 0 32 32"><g fill="none" fill-rule="nonzero"><ellipse cx="15.886" cy="16.027" fill="#007AB9" rx="15.886" ry="15.747"></ellipse><path fill="#F1F2F2" d="M25.378 17.294v6.492h-3.797V17.73c0-1.52-.549-2.559-1.923-2.559-1.05 0-1.673.7-1.948 1.376-.1.242-.126.578-.126.918v6.322h-3.797s.05-10.258 0-11.32h3.797v1.604c-.007.013-.018.025-.025.037h.025v-.037c.505-.77 1.405-1.87 3.423-1.87 2.498 0 4.371 1.618 4.371 5.094zM9.814 7.01c-1.299 0-2.149.845-2.149 1.955 0 1.087.825 1.957 2.1 1.957h.024c1.324 0 2.148-.87 2.148-1.957-.025-1.11-.824-1.955-2.123-1.955zM7.891 23.786h3.796v-11.32H7.891v11.32z"></path></g></svg>