<svg xmlns="http://www.w3.org/2000/svg" width="32" height="32" viewBox="0 0 32 32">
    <path fill="#3293F6" fill-rule="evenodd" d="M16 0C7.163 0 0 7.163 0 16c0 8.836 7.163 16 16 16s16-7.164 16-16c0-8.837-7.163-16-16-16zm6.516 8.181L6.693 14.767s-.748.272-.69.773c.06.503.67.733.67.733l3.982 1.42s1.201 4.182 1.438 4.977c.236.794.426.812.426.812.22.102.42-.06.42-.06l2.573-2.487 4.009 3.26c1.084.502 1.479-.543 1.479-.543l2.817-15.073c0-1.004-1.3-.398-1.3-.398zm-2.8 14.259l-4.29-3.488-1.33 1.287.292-2.738 5.717-5.418-7.793 4.627-3.457-1.234 13.189-5.49-2.329 12.454z"/>
</svg>
