<svg xmlns="http://www.w3.org/2000/svg" width="18" height="18" viewBox="0 0 18 18">
    <g fill="none" fill-rule="evenodd">
        <path d="M-1-1h20v20H-1z"/>
        <path fill="#69687D" fill-rule="nonzero" d="M9.833 4.833H8.167v3.334H4.833v1.666h3.334v3.334h1.666V9.833h3.334V8.167H9.833V4.833zM9 .667A8.336 8.336 0 0 0 .667 9c0 4.6 3.733 8.333 8.333 8.333S17.333 13.6 17.333 9 13.6.667 9 .667zm0 15A6.676 6.676 0 0 1 2.333 9 6.676 6.676 0 0 1 9 2.333 6.676 6.676 0 0 1 15.667 9 6.676 6.676 0 0 1 9 15.667z"/>
    </g>
</svg>
