<svg xmlns="http://www.w3.org/2000/svg" width="20" height="19" viewBox="0 0 20 19">
    <path fill="#5D5D5D" fill-rule="nonzero" d="M9.587 15.652l.018.014c.022.02.045.04.07.057.012.008.025.013.037.02.02.012.041.024.063.033.015.006.03.01.046.015.021.006.041.014.063.018a.605.605 0 0 0 .116.012l.013-.001a.58.58 0 0 0 .188-.036l.022-.007a.603.603 0 0 0 .093-.049l.007-.004a.59.59 0 0 0 .09-.073l5.448-5.368a.568.568 0 0 0 0-.812.589.589 0 0 0-.825 0l-4.453 4.388V.575A.579.579 0 0 0 10 0a.579.579 0 0 0-.583.575v13.284L4.963 9.47a.589.589 0 0 0-.824 0 .568.568 0 0 0 0 .813l5.448 5.37zm9.83-1.134a.579.579 0 0 0-.583.575v1.034c0 .95-.785 1.724-1.75 1.724H2.916c-.964 0-1.749-.773-1.749-1.724v-1.034a.579.579 0 0 0-.583-.575.579.579 0 0 0-.583.575v1.034C0 17.711 1.308 19 2.915 19h14.17C18.692 19 20 17.711 20 16.127v-1.034a.579.579 0 0 0-.583-.575z"/>
</svg>
