<svg id="flip" viewBox="0 0 20 19">
  <path fill-rule="evenodd"
        d="M19.998,2.593 L19.998,16.408 C19.998,17.844 18.799,19.007 17.317,19.007 L8.148,19.007 C6.667,19.007 5.467,17.844 5.467,16.408 L5.467,14.151 L7.442,14.562 L7.442,16.340 C7.442,16.750 7.795,17.092 8.219,17.092 L17.247,17.092 C17.670,17.092 18.023,16.750 18.023,16.340 L18.023,2.730 C18.023,2.320 17.670,1.978 17.247,1.978 L8.219,1.978 C7.795,1.978 7.442,2.320 7.442,2.730 L7.442,7.859 L5.467,7.722 L5.467,6.013 C1.518,7.791 2.434,8.680 4.621,9.159 C4.903,9.227 5.185,9.295 5.467,9.295 C6.102,9.364 6.807,9.432 7.442,9.501 C7.866,9.569 8.289,9.569 8.712,9.569 C10.123,9.637 11.181,9.637 11.181,9.637 L11.181,7.517 C11.181,7.175 11.604,7.244 11.745,7.381 L15.836,10.116 L17.459,11.210 C17.600,11.347 17.600,11.552 17.459,11.758 L15.836,12.852 L13.861,14.219 L11.816,15.587 C11.745,15.656 11.604,15.724 11.534,15.724 C11.463,15.724 11.251,15.724 11.251,15.519 L11.251,13.809 C10.193,13.604 9.206,13.467 8.289,13.262 C8.006,13.194 7.795,13.125 7.513,13.125 C6.807,12.989 6.102,12.783 5.538,12.647 C5.044,12.510 4.621,12.373 4.198,12.236 C-5.960,8.748 5.538,4.645 5.538,4.645 L5.538,2.593 C5.538,1.158 6.737,-0.006 8.219,-0.006 L17.388,-0.006 C18.799,-0.006 19.998,1.158 19.998,2.593 Z" />
</svg>