<svg xmlns="http://www.w3.org/2000/svg" width="22" height="22" viewBox="0 0 22 22">
    <g fill="#5D5D5D" fill-rule="nonzero">
        <path d="M11 21.732c5.916 0 10.732-4.816 10.732-10.732C21.732 5.084 16.916.268 11 .268 5.084.268.268 5.084.268 11c0 5.916 4.816 10.732 10.732 10.732zm0-19.978c5.084 0 9.246 4.132 9.246 9.246 0 5.114-4.162 9.246-9.246 9.246-5.084 0-9.246-4.162-9.246-9.246 0-5.084 4.162-9.246 9.246-9.246z"/>
        <path d="M10.108 8.622h1.486v6.838h-1.486zM10.108 6.243h1.486v1.486h-1.486z"/>
    </g>
</svg>
