  <svg id="keyboard" viewBox="0 0 98.1 62.2">
        <path d="M92.4,0H5.6C2.5,0,0,2.5,0,5.6v51c0,3.1,2.5,5.6,5.6,5.6h86.9c3.1,0,5.6-2.5,5.6-5.6v-51C98,2.5,95.5,0,92.4,0z M61.3,11.7
	c0-0.8,0.6-1.4,1.4-1.4h5.7c0.8,0,1.4,0.6,1.4,1.4v5.6c0,0.8-0.6,1.4-1.4,1.4h-5.7c-0.8,0-1.4-0.6-1.4-1.4V11.7z M54.4,26.9H60
	c0.8,0,1.4,0.6,1.4,1.4v5.6c0,0.8-0.6,1.4-1.4,1.4h-5.7c-0.8,0-1.4-0.6-1.4-1.4v-5.6C53,27.5,53.6,26.9,54.4,26.9z M44.8,11.7
	c0-0.8,0.6-1.4,1.4-1.4h5.7c0.8,0,1.4,0.6,1.4,1.4v5.6c0,0.8-0.6,1.4-1.4,1.4h-5.7c-0.8,0-1.4-0.6-1.4-1.4V11.7z M37.9,26.9h5.7
	c0.8,0,1.4,0.6,1.4,1.4v5.6c0,0.8-0.6,1.4-1.4,1.4h-5.7c-0.8,0-1.4-0.6-1.4-1.4v-5.6C36.5,27.5,37.1,26.9,37.9,26.9z M28.3,11.7
	c0-0.8,0.6-1.4,1.4-1.4h5.7c0.8,0,1.4,0.6,1.4,1.4v5.6c0,0.8-0.6,1.4-1.4,1.4h-5.7c-0.8,0-1.4-0.6-1.4-1.4
	C28.3,17.3,28.3,11.7,28.3,11.7z M11.8,11.7c0-0.8,0.6-1.4,1.4-1.4h5.7c0.8,0,1.4,0.6,1.4,1.4v5.6c0,0.8-0.6,1.4-1.4,1.4h-5.7
	c-0.8,0-1.4-0.6-1.4-1.4V11.7z M27,35.2h-5.7c-0.8,0-1.4-0.6-1.4-1.4v-5.6c0-0.8,0.6-1.4,1.4-1.4H27c0.8,0,1.4,0.6,1.4,1.4v5.6
	C28.4,34.6,27.8,35.2,27,35.2z M69.7,50.5c0,0.8-0.6,1.4-1.4,1.4h-1.7h-4H51.8h-5.7H29.7c-0.8,0-1.4-0.6-1.4-1.4v-5.6
	c0-0.8,0.6-1.4,1.4-1.4h16.5h5.7h10.8h4h1.7c0.8,0,1.4,0.6,1.4,1.4L69.7,50.5L69.7,50.5z M76.5,35.2h-5.7c-0.8,0-1.4-0.6-1.4-1.4
	v-5.6c0-0.8,0.6-1.4,1.4-1.4h5.7c0.8,0,1.4,0.6,1.4,1.4v5.6C77.9,34.6,77.3,35.2,76.5,35.2z M86.2,17.3c0,0.8-0.6,1.4-1.4,1.4h-5.7
	c-0.8,0-1.4-0.6-1.4-1.4v-5.6c0-0.8,0.6-1.4,1.4-1.4h5.7c0.8,0,1.4,0.6,1.4,1.4V17.3z" />
    </svg>