<svg viewBox="0 0 27 28">
  <path fill-rule="evenodd"
        d="M26.438,8.191 L19.698,1.423 C19.045,0.764 17.974,0.764 17.317,1.423 C16.661,2.085 16.661,3.154 17.317,3.813 L18.102,4.601 L7.641,12.008 L7.136,11.500 C6.153,10.513 4.550,10.513 3.567,11.500 C3.237,11.831 3.237,12.362 3.567,12.694 L8.203,17.345 L0.476,25.103 C-0.184,25.759 -0.184,26.834 0.476,27.494 C1.133,28.153 2.197,28.153 2.853,27.494 L10.580,19.732 L15.213,24.387 C15.543,24.718 16.078,24.718 16.405,24.387 C17.391,23.396 17.391,21.790 16.405,20.800 L15.903,20.300 L23.273,9.789 L24.058,10.581 C24.711,11.237 25.782,11.237 26.438,10.581 C27.098,9.918 27.098,8.853 26.438,8.191 Z" />
</svg>