<svg xmlns="http://www.w3.org/2000/svg" width="24" height="23" viewBox="0 0 24 23">
    <g fill="#5D5D5D" fill-rule="nonzero">
        <path d="M24 4.754h-5.947V0H5.973v4.728H0v12.695h5.974V23h12.079v-8.84h1.763v-1.028H3.658v1.028h2.29v2.236H1.052V5.782h21.894v10.64H18.29v1.027H24V4.754zm-7.026 9.406v7.812H7.026V14.16h9.948zM7.026 1.028H17v3.7H7.026v-3.7z"/>
        <path d="M5.42 9.583c0 1.065.86 1.917 1.935 1.917A1.918 1.918 0 0 0 9.29 9.583c0-1.064-.86-1.916-1.935-1.916a1.918 1.918 0 0 0-1.936 1.916zm2.938 0c0 .545-.43.97-.98.97-.549 0-1.003-.45-1.003-.97s.43-.97.98-.97 1.003.426 1.003.97zM10.065 19.167h5.419V20.7h-5.419zM10.065 16.1h5.419v1.533h-5.419z"/>
    </g>
</svg>
