<svg id="shuffle" viewBox="0 0 22 20">
  <path fill-rule="evenodd"
        d="M16.589,5.870 L18.007,5.870 L18.007,8.241 L21.982,4.070 L18.007,-0.011 L18.007,2.696 L16.589,2.696 C12.531,2.696 10.240,5.800 8.218,8.537 C6.403,10.999 4.833,13.320 2.300,13.320 L-0.001,13.320 L-0.001,16.494 L2.300,16.494 C6.359,16.494 8.650,13.195 10.672,10.458 C12.487,7.996 14.052,5.870 16.589,5.870 ZM5.946,7.685 C6.118,7.454 6.295,7.219 6.471,6.978 C6.903,6.396 7.355,5.780 7.845,5.168 C6.393,3.769 4.641,2.736 2.300,2.736 L-0.001,2.736 L-0.001,5.910 C-0.001,5.910 0.652,5.880 2.300,5.910 C3.896,5.945 4.896,6.617 5.946,7.685 ZM18.007,13.345 L16.589,13.345 C15.044,13.345 13.856,12.553 12.752,11.375 C12.644,11.526 12.531,11.676 12.418,11.826 C11.933,12.483 11.412,13.190 10.839,13.887 C12.330,15.386 14.136,16.519 16.589,16.519 L18.007,16.519 L18.007,19.241 L21.982,15.160 L18.007,10.989 L18.007,13.345 Z" />
</svg>