<svg xmlns="http://www.w3.org/2000/svg" xmlns:xlink="http://www.w3.org/1999/xlink" width="226" height="256" viewBox="0 0 226 256">
    <defs>
        <path id="prefix__a" d="M0.633 0.482L37.119 0.482 37.119 36.967 0.633 36.967z"/>
    </defs>
    <g fill="none" fill-rule="evenodd">
        <path fill="#FEF4E2" d="M103.601 184.715c-.676 2.945-3.612 4.785-6.558 4.108-2.945-.676-4.784-3.612-4.107-6.557.677-2.946 3.612-4.784 6.558-4.109 2.945.677 4.784 3.614 4.107 6.558" transform="translate(1 1)"/>
        <path fill="#FCE8C6" d="M104.741 228.643c-.677 2.945-3.613 4.784-6.559 4.108-2.945-.676-4.784-3.613-4.107-6.558.677-2.945 3.612-4.784 6.558-4.108 2.945.677 4.784 3.613 4.108 6.558" transform="translate(1 1)"/>
        <path fill="#FEF4E2" d="M39.575 137.571c-.677 2.946-3.613 4.785-6.558 4.108-2.945-.675-4.785-3.612-4.108-6.556.677-2.946 3.612-4.785 6.558-4.11 2.945.677 4.784 3.613 4.108 6.558" transform="translate(1 1)"/>
        <path fill="#FCE8C6" d="M83.884 64.16c-.677 2.945-3.612 4.784-6.558 4.107-2.945-.675-4.784-3.612-4.108-6.557.677-2.946 3.613-4.784 6.558-4.108 2.945.676 4.785 3.613 4.108 6.558" transform="translate(1 1)"/>
        <path fill="#F9C570" d="M115.88 71.51c-.676 2.945-3.611 4.784-6.557 4.107-2.945-.676-4.785-3.612-4.108-6.557.677-2.946 3.612-4.784 6.558-4.108 2.945.676 4.785 3.613 4.108 6.558" transform="translate(1 1)"/>
        <path fill="#FCE8C6" d="M162.898 62.348c-.677 2.945-3.612 4.784-6.558 4.107-2.945-.675-4.784-3.612-4.108-6.557.677-2.946 3.613-4.784 6.56-4.108 2.943.676 4.783 3.613 4.106 6.558" transform="translate(1 1)"/>
        <path fill="#FEF4E2" d="M165.023 134.572c-.602 2.618-3.21 4.254-5.829 3.651-2.618-.6-4.253-3.21-3.65-5.829.6-2.618 3.21-4.252 5.828-3.65 2.617.6 4.252 3.21 3.651 5.828" transform="translate(1 1)"/>
        <path fill="#FCE8C6" d="M69.765 27.857c-.602 2.617-3.21 4.252-5.829 3.65-2.618-.6-4.253-3.21-3.65-5.828.6-2.618 3.21-4.253 5.828-3.651 2.618.6 4.253 3.21 3.651 5.829" transform="translate(1 1)"/>
        <path fill="#FAD18D" d="M70.908 164.107c-.602 2.617-3.211 4.252-5.829 3.65-2.618-.6-4.253-3.21-3.651-5.828.6-2.618 3.21-4.253 5.829-3.651 2.617.6 4.253 3.21 3.651 5.829M131.555 204.236c-.9 3.928-4.816 6.38-8.743 5.478-3.928-.903-6.38-4.817-5.478-8.744.903-3.927 4.817-6.38 8.743-5.477 3.928.902 6.38 4.816 5.478 8.743" transform="translate(1 1)"/>
        <path stroke="#FBDCAA" stroke-width="2" d="M176.662 30.785c-5.326 10.387-18.064 14.49-28.452 9.162-10.387-5.327-14.49-18.065-9.162-28.452 5.327-10.387 18.065-14.489 28.452-9.162 10.387 5.326 14.489 18.064 9.162 28.452zM41.741 178.707c-2.613 11.378-13.955 18.481-25.332 15.87C5.032 191.962-2.072 180.62.541 169.243c2.613-11.377 13.955-18.48 25.332-15.868 11.377 2.613 18.48 13.954 15.868 25.331z" transform="translate(1 1)"/>
        <g transform="translate(1 1) translate(187 138.955)">
            <mask id="prefix__b" fill="#fff">
                <use xlink:href="#prefix__a"/>
            </mask>
            <path fill="#FDEDD3" d="M36.652 22.807c-2.255 9.817-12.04 15.948-21.858 13.693C4.976 34.245-1.155 24.459 1.1 14.641 3.355 4.824 13.142-1.306 22.96.949c9.817 2.254 15.947 12.041 13.692 21.858" mask="url(#prefix__b)"/>
        </g>
        <path fill="#FCE8C6" d="M218.926 84.573c-.902 3.928-4.817 6.38-8.744 5.479-3.927-.904-6.38-4.819-5.477-8.746.902-3.925 4.817-6.379 8.743-5.477 3.927.903 6.379 4.818 5.478 8.745" transform="translate(1 1)"/>
        <path fill="#F9C570" d="M125.368 35.637c-.902 3.927-4.817 6.379-8.744 5.478-3.927-.903-6.38-4.817-5.478-8.745.903-3.926 4.818-6.379 8.744-5.476 3.927.901 6.379 4.816 5.478 8.743" transform="translate(1 1)"/>
        <path fill="#FBDCAA" d="M163.968 171.758c-1.053 4.581-5.62 7.442-10.201 6.39-4.582-1.053-7.444-5.619-6.39-10.202 1.052-4.58 5.618-7.442 10.2-6.389 4.582 1.052 7.442 5.62 6.39 10.201" transform="translate(1 1)"/>
        <path fill="#F9C570" d="M65.48 204.03c-1.052 4.582-5.619 7.442-10.2 6.39-4.582-1.051-7.444-5.618-6.39-10.2 1.052-4.583 5.618-7.444 10.2-6.39 4.581 1.052 7.443 5.618 6.39 10.2M21.998 105.464c-1.053 4.581-5.62 7.442-10.201 6.39-4.581-1.053-7.443-5.619-6.39-10.202 1.052-4.58 5.619-7.442 10.2-6.389 4.582 1.052 7.443 5.62 6.39 10.201M196.758 197.38c-.826 3.6-4.415 5.847-8.015 5.02-3.6-.827-5.847-4.416-5.02-8.015.826-3.6 4.415-5.848 8.014-5.02 3.6.826 5.848 4.414 5.02 8.014" transform="translate(1 1)"/>
        <path fill="#FBDCAA" d="M58.245 68.697C55.41 81.037 43.107 88.745 30.765 85.91c-12.34-2.834-20.047-15.138-17.212-27.478C16.387 46.09 28.689 38.383 41.03 41.216c12.342 2.836 20.049 15.139 17.214 27.48M184.874 237.146c-2.757 12-14.72 19.495-26.721 16.738-12.001-2.756-19.494-14.718-16.738-26.72 2.757-12 14.72-19.495 26.72-16.738 12 2.756 19.495 14.72 16.739 26.72" transform="translate(1 1)"/>
        <path stroke="#FCE8C6" d="M184.874 237.146c-2.757 12-14.72 19.495-26.721 16.738-12.001-2.756-19.494-14.718-16.738-26.72 2.757-12 14.72-19.495 26.72-16.738 12 2.756 19.495 14.72 16.739 26.72z" transform="translate(1 1)"/>
        <path fill="#F9C570" d="M145.886 136.414c-5.411 23.562-28.9 38.275-52.462 32.864-23.562-5.412-38.275-28.9-32.864-52.462 5.412-23.562 28.9-38.275 52.462-32.863 23.562 5.411 38.276 28.9 32.864 52.461M193.023 110.438c-1.429 6.218-7.627 10.1-13.844 8.672-6.218-1.428-10.1-7.626-8.673-13.844 1.43-6.218 7.626-10.1 13.844-8.673 6.218 1.429 10.101 7.627 8.673 13.845" transform="translate(1 1)"/>
        <path stroke="#FCE8C6" stroke-width="2" d="M123.416 87.588L147.884 40.809M52.074 78.687L70.411 96.623M41.105 163.499L65.606 149.165M153.304 212.752L124.091 166.119M146.685 116.637L170.466 110.87" transform="translate(1 1)"/>
        <path stroke="#F9CA7B" stroke-linecap="round" stroke-linejoin="round" stroke-width="2" d="M16.398 166.676L31.898 166.676" transform="translate(1 1)"/>
        <path fill="#F9CA7B" d="M12.898 166.676c0 1.104-.896 2-2 2s-2-.896-2-2 .896-2 2-2 2 .896 2 2" transform="translate(1 1)"/>
        <path stroke="#F9CA7B" stroke-linecap="round" stroke-linejoin="round" stroke-width="2" d="M16.398 173.676L31.898 173.676" transform="translate(1 1)"/>
        <path fill="#F9CA7B" d="M12.898 173.676c0 1.104-.896 2-2 2s-2-.896-2-2 .896-2 2-2 2 .896 2 2" transform="translate(1 1)"/>
        <path stroke="#F9CA7B" stroke-linecap="round" stroke-linejoin="round" stroke-width="2" d="M16.398 180.676L31.898 180.676" transform="translate(1 1)"/>
        <path fill="#F9CA7B" d="M12.898 180.676c0 1.104-.896 2-2 2s-2-.896-2-2 .896-2 2-2 2 .896 2 2" transform="translate(1 1)"/>
        <path stroke="#F9CA7B" stroke-linecap="round" stroke-linejoin="round" stroke-width="2" d="M165.159 18.307c0 4.214-3.416 7.63-7.63 7.63-4.215 0-7.631-3.416-7.631-7.63 0-4.215 3.416-7.631 7.631-7.631 4.214 0 7.63 3.416 7.63 7.63zM169.398 30.176L162.92 23.698" transform="translate(1 1)"/>
        <path stroke="#F9C570" stroke-width="1.8" d="M211.367 153.104c0 1.405-1.099 2.544-2.453 2.544-1.356 0-2.453-1.14-2.453-2.544v-1.454c0-1.404 1.097-2.544 2.453-2.544 1.354 0 2.453 1.14 2.453 2.544v1.454zM204.416 151.559c0 1.129-.915 2.045-2.044 2.045-1.13 0-2.045-.916-2.045-2.045 0-1.13.916-2.044 2.045-2.044s2.044.915 2.044 2.044zM204.43 158.216c-.809-.588-1.8-.933-2.876-.933-2.389 0-4.375 1.71-4.817 3.966-.098.491.311.941.81.941h4.007M208.914 158.1h0c-3.298 0-6.025 2.44-6.477 5.613-.07.49.322.93.817.93h11.32c.495 0 .886-.44.817-.93-.452-3.173-3.18-5.612-6.477-5.612z" transform="translate(1 1)"/>
    </g>
</svg>
