<svg xmlns="http://www.w3.org/2000/svg" xmlns:xlink="http://www.w3.org/1999/xlink" width="190" height="233" viewBox="0 0 205 233">
    <defs>
        <path id="prefix__a" d="M0.567 0.443L33.212 0.443 33.212 33.97 0.567 33.97z"/>
    </defs>
    <g fill="none" fill-rule="evenodd">
        <path fill="#FEF4E2" d="M93.872 167.119c-.618 2.69-3.3 4.371-5.992 3.753-2.69-.618-4.37-3.3-3.752-5.99.619-2.692 3.3-4.371 5.992-3.754 2.69.618 4.37 3.301 3.752 5.99" transform="translate(1 1)"/>
        <path fill="#FCE8C6" d="M94.872 207.12c-.618 2.69-3.3 4.37-5.992 3.752-2.69-.617-4.37-3.3-3.752-5.991.619-2.69 3.3-4.37 5.991-3.753 2.69.618 4.37 3.3 3.753 5.991" transform="translate(1 1)"/>
        <path fill="#FEF4E2" d="M35.872 124.12c-.618 2.69-3.3 4.37-5.991 3.752-2.69-.617-4.371-3.3-3.753-5.99.619-2.692 3.3-4.372 5.991-3.754 2.69.618 4.37 3.3 3.753 5.991" transform="translate(1 1)"/>
        <path fill="#FCE8C6" d="M75.872 58.12c-.619 2.69-3.3 4.37-5.991 3.752-2.69-.617-4.37-3.3-3.753-5.99.618-2.692 3.3-4.372 5.991-3.754 2.69.617 4.371 3.3 3.753 5.992" transform="translate(1 1)"/>
        <path fill="#F9C570" d="M104.872 65.12c-.619 2.69-3.3 4.37-5.991 3.752-2.69-.618-4.371-3.3-3.753-5.99.619-2.692 3.3-4.372 5.991-3.754 2.69.617 4.371 3.3 3.753 5.992" transform="translate(1 1)"/>
        <path fill="#FCE8C6" d="M147.872 56.12c-.619 2.69-3.3 4.37-5.991 3.752-2.69-.617-4.37-3.3-3.753-5.99.618-2.692 3.3-4.372 5.992-3.754 2.69.617 4.37 3.3 3.752 5.992" transform="translate(1 1)"/>
        <path fill="#FEF4E2" d="M149.885 121.507c-.557 2.422-2.97 3.934-5.392 3.378s-3.934-2.97-3.378-5.392c.555-2.422 2.97-3.934 5.393-3.378 2.42.556 3.933 2.97 3.377 5.392" transform="translate(1 1)"/>
        <path fill="#FCE8C6" d="M62.885 24.508c-.557 2.42-2.97 3.933-5.392 3.377s-3.934-2.97-3.378-5.392 2.97-3.934 5.392-3.378c2.422.555 3.934 2.97 3.378 5.393" transform="translate(1 1)"/>
        <path fill="#FAD18D" d="M63.885 149.508c-.557 2.42-2.97 3.933-5.392 3.377s-3.934-2.97-3.378-5.392c.555-2.422 2.97-3.934 5.392-3.378 2.421.555 3.935 2.97 3.378 5.393M119.82 184.566c-.863 3.768-4.619 6.12-8.386 5.255-3.768-.866-6.12-4.62-5.255-8.388.866-3.767 4.62-6.12 8.387-5.254 3.768.866 6.12 4.62 5.255 8.387" transform="translate(1 1)"/>
        <path stroke="#FBDCAA" stroke-width="2" d="M159.903 27.668c-4.787 9.336-16.235 13.022-25.571 8.235-9.336-4.788-13.022-16.236-8.235-25.571 4.788-9.336 16.236-13.022 25.571-8.235 9.336 4.787 13.022 16.235 8.235 25.571zM37.514 162.252c-2.348 10.226-12.542 16.61-22.767 14.262-10.225-2.348-16.61-12.542-14.26-22.767 2.348-10.225 12.541-16.61 22.766-14.26 10.225 2.348 16.609 12.54 14.261 22.765z" transform="translate(1 1)"/>
        <g transform="translate(1 1) translate(170 125)">
            <mask id="prefix__b" fill="#fff">
                <use xlink:href="#prefix__a"/>
            </mask>
            <path fill="#FDEDD3" d="M32.794 20.958c-2.018 9.02-10.774 14.655-19.557 12.583C4.452 31.468-1.033 22.476.984 13.454 3.002 4.433 11.76-1.2 20.544.872c8.783 2.071 14.268 11.065 12.25 20.086" mask="url(#prefix__b)"/>
        </g>
        <path fill="#FCE8C6" d="M198.821 76.567c-.865 3.766-4.62 6.118-8.388 5.254-3.767-.866-6.12-4.621-5.254-8.388.865-3.766 4.621-6.12 8.387-5.254 3.767.865 6.12 4.62 5.255 8.388" transform="translate(1 1)"/>
        <path fill="#F9C570" d="M113.821 32.566c-.865 3.767-4.62 6.12-8.387 5.255-3.767-.866-6.12-4.62-5.255-8.389.866-3.766 4.621-6.119 8.387-5.253 3.767.865 6.12 4.62 5.255 8.387" transform="translate(1 1)"/>
        <path fill="#FBDCAA" d="M148.795 155.79c-.99 4.305-5.28 6.994-9.585 6.005-4.305-.99-6.995-5.28-6.005-9.586.988-4.305 5.28-6.994 9.585-6.004 4.305.989 6.994 5.28 6.005 9.586" transform="translate(1 1)"/>
        <path fill="#F9C570" d="M58.795 184.79c-.988 4.305-5.28 6.994-9.586 6.005-4.304-.988-6.994-5.28-6.004-9.585.99-4.306 5.28-6.995 9.586-6.005 4.304.99 6.994 5.28 6.004 9.586M20.795 95.79c-.99 4.305-5.28 6.994-9.585 6.005-4.305-.99-6.995-5.28-6.005-9.586.988-4.305 5.28-6.994 9.585-6.004 4.305.989 6.994 5.28 6.005 9.586M178.846 179.343c-.74 3.229-3.96 5.245-7.19 4.503-3.228-.741-5.244-3.96-4.502-7.189.74-3.229 3.96-5.245 7.188-4.503 3.23.741 5.246 3.96 4.504 7.189" transform="translate(1 1)"/>
        <path fill="#FBDCAA" d="M53.462 62.7C50.866 74 39.6 81.058 28.3 78.462 16.999 75.866 9.942 64.601 12.538 53.3c2.595-11.3 13.86-18.358 25.161-15.763C49.001 40.133 56.06 51.4 53.462 62.7M167.475 215.088c-2.534 11.032-13.531 17.922-24.564 15.387-11.032-2.533-17.92-13.53-15.386-24.562 2.534-11.033 13.531-17.923 24.564-15.388 11.03 2.533 17.92 13.532 15.386 24.563" transform="translate(1 1)"/>
        <path stroke="#FCE8C6" d="M167.475 215.088c-2.534 11.032-13.531 17.922-24.564 15.387-11.032-2.533-17.92-13.53-15.386-24.562 2.534-11.033 13.531-17.923 24.564-15.388 11.03 2.533 17.92 13.532 15.386 24.563z" transform="translate(1 1)"/>
        <path fill="#F9C570" d="M131.976 123.952c-4.943 21.526-26.402 34.968-47.928 30.025-21.526-4.945-34.968-26.403-30.025-47.93 4.945-21.526 26.403-34.968 47.93-30.023 21.526 4.943 34.968 26.402 30.023 47.928M175.731 100.85c-1.298 5.65-6.93 9.18-12.58 7.881-5.652-1.298-9.18-6.93-7.883-12.58 1.299-5.652 6.93-9.18 12.582-7.883 5.65 1.299 9.18 6.932 7.881 12.582" transform="translate(1 1)"/>
        <path stroke="#FCE8C6" stroke-width="2" d="M112 80L134 37M47 71L64 88M37 148L59 135M139 193L113 150M133 106L154 101" transform="translate(1 1)"/>
        <path stroke="#F9CA7B" stroke-linecap="round" stroke-linejoin="round" stroke-width="2" d="M15 150.5L29 150.5" transform="translate(1 1)"/>
        <path fill="#F9CA7B" d="M12 151c0 1.104-.896 2-2 2s-2-.896-2-2 .896-2 2-2 2 .896 2 2" transform="translate(1 1)"/>
        <path stroke="#F9CA7B" stroke-linecap="round" stroke-linejoin="round" stroke-width="2" d="M15 157.5L29 157.5" transform="translate(1 1)"/>
        <path fill="#F9CA7B" d="M12 157c0 1.104-.896 2-2 2s-2-.896-2-2 .896-2 2-2 2 .896 2 2" transform="translate(1 1)"/>
        <path stroke="#F9CA7B" stroke-linecap="round" stroke-linejoin="round" stroke-width="2" d="M15 163.5L29 163.5" transform="translate(1 1)"/>
        <path fill="#F9CA7B" d="M12 164c0 1.104-.896 2-2 2s-2-.896-2-2 .896-2 2-2 2 .896 2 2" transform="translate(1 1)"/>
        <path stroke="#F9CA7B" stroke-linecap="round" stroke-linejoin="round" stroke-width="2" d="M150 17c0 3.866-3.134 7-7 7s-7-3.134-7-7 3.134-7 7-7 7 3.134 7 7zM154 27L148 21" transform="translate(1 1)"/>
        <path stroke="#F9C570" stroke-width="1.8" d="M191 138.667c0 1.288-1.12 2.333-2.5 2.333-1.382 0-2.5-1.045-2.5-2.333v-1.334c0-1.287 1.118-2.333 2.5-2.333 1.38 0 2.5 1.046 2.5 2.333v1.334zM186 137c0 1.104-.895 2-2 2-1.104 0-2-.896-2-2 0-1.105.896-2 2-2 1.105 0 2 .895 2 2zM186 143.95c-.735-.598-1.635-.95-2.612-.95-2.17 0-3.973 1.741-4.375 4.041-.089.5.283.959.735.959h3.64" transform="translate(1 1)"/>
        <path stroke="#F9C570" stroke-width="1.8" d="M189 144h0c-3.051 0-5.574 2.237-5.993 5.147-.064.45.298.853.756.853h10.474c.458 0 .82-.403.756-.853-.419-2.91-2.943-5.147-5.993-5.147z" transform="translate(1 1)"/>
    </g>
</svg>
