<svg xmlns="http://www.w3.org/2000/svg" xmlns:xlink="http://www.w3.org/1999/xlink" width="229" height="256" viewBox="0 0 229 256">
    <defs>
        <path id="prefix__a" d="M0 251.881L228.53 251.881 228.53 0 0 0z"/>
    </defs>
    <g fill="none" fill-rule="evenodd">
        <path stroke="#5BA9F8" stroke-linecap="round" stroke-width="2" d="M202.97 96.975s0 3.044 4.275 3.044c5.357 0 5.357-7.286 0-8.37-5.356-1.083-5.356-8.369 0-8.369 3.333 0 3.333 3.043 3.333 3.043M207.418 80.277L207.534 83.28M207.535 100.019L207.535 103.062"/>
        <path stroke="#5BA9F8" stroke-linecap="round" stroke-width="1.5" d="M65.203 236.782h-21.5c-.553 0-1-.447-1-1v-13c0-.553.447-1 1-1h21.5c.552 0 1 .447 1 1v13c0 .553-.448 1-1 1z"/>
        <mask id="prefix__b" fill="#fff">
            <use xlink:href="#prefix__a"/>
        </mask>
        <path fill="#5BA9F8" d="M42.702 227.782L66.202 227.782 66.202 224.782 42.702 224.782z" mask="url(#prefix__b)"/>
        <path stroke="#5BA9F8" stroke-linecap="round" stroke-width="1.5" d="M58.029 233.782L63.137 233.782" mask="url(#prefix__b)"/>
        <path fill="#BDDDFC" d="M125.486 72.68c.979-2.86 4.09-4.385 6.949-3.406 2.86.977 4.384 4.09 3.405 6.948-.978 2.86-4.09 4.384-6.948 3.405-2.86-.978-4.384-4.09-3.406-6.948" mask="url(#prefix__b)"/>
        <path fill="#D6E9FD" d="M128.911 28.87c.98-2.858 4.09-4.383 6.948-3.404 2.86.978 4.385 4.089 3.406 6.948-.978 2.859-4.088 4.384-6.948 3.405-2.86-.978-4.385-4.09-3.406-6.948" mask="url(#prefix__b)"/>
        <path fill="#5BA9F8" d="M184.277 126.211c.979-2.859 4.089-4.384 6.948-3.405 2.86.978 4.384 4.09 3.406 6.948-.98 2.86-4.09 4.384-6.95 3.405-2.858-.978-4.383-4.089-3.404-6.948" mask="url(#prefix__b)"/>
        <path fill="#BDDDFC" d="M132.59 194.63c.98-2.86 4.09-4.385 6.948-3.406 2.86.978 4.384 4.09 3.406 6.948-.979 2.86-4.089 4.384-6.949 3.405-2.859-.978-4.384-4.089-3.405-6.948" mask="url(#prefix__b)"/>
        <path fill="#D6E9FD" d="M101.529 184c.978-2.858 4.089-4.385 6.948-3.405 2.86.977 4.384 4.09 3.406 6.948-.98 2.858-4.09 4.385-6.95 3.405-2.858-.978-4.383-4.09-3.404-6.948M53.814 188.234c.979-2.86 4.089-4.384 6.948-3.405 2.86.978 4.384 4.09 3.406 6.948-.98 2.859-4.09 4.384-6.95 3.406-2.858-.978-4.383-4.09-3.404-6.95M59.194 116.18c.87-2.543 3.636-3.898 6.177-3.028 2.54.87 3.896 3.634 3.027 6.176-.87 2.541-3.636 3.897-6.177 3.027-2.542-.869-3.896-3.635-3.027-6.176M142.866 232.202c.869-2.541 3.635-3.896 6.176-3.026 2.542.869 3.897 3.634 3.027 6.176-.87 2.54-3.635 3.897-6.177 3.027-2.541-.87-3.896-3.635-3.026-6.177" mask="url(#prefix__b)"/>
        <path fill="#5BA9F8" d="M155.866 96.569c.869-2.541 3.635-3.896 6.177-3.027 2.54.87 3.896 3.635 3.026 6.176-.87 2.542-3.635 3.897-6.176 3.028-2.542-.87-3.897-3.635-3.027-6.177" mask="url(#prefix__b)"/>
        <path fill="#D6E9FD" d="M99.708 50.364c1.305-3.813 5.453-5.846 9.265-4.541 3.812 1.305 5.845 5.453 4.541 9.265-1.305 3.812-5.453 5.845-9.265 4.54-3.812-1.304-5.846-5.452-4.54-9.264" mask="url(#prefix__b)"/>
        <path stroke="#D6E9FD" stroke-width="2" d="M36.849 218.198c6.376-9.777 19.472-12.536 29.25-6.16 9.777 6.375 12.536 19.47 6.16 29.249-6.375 9.778-19.471 12.536-29.249 6.16-9.778-6.375-12.536-19.471-6.161-29.25zM186.39 85.073c3.779-11.045 15.797-16.935 26.841-13.154 11.045 3.779 16.934 15.796 13.154 26.84-3.779 11.044-15.796 16.934-26.841 13.155-11.044-3.78-16.933-15.797-13.154-26.841z" mask="url(#prefix__b)"/>
        <path fill="#D6E9FD" d="M3.701 83.052c3.262-9.53 13.633-14.612 23.162-11.35 9.53 3.26 14.612 13.63 11.352 23.161-3.262 9.53-13.632 14.613-23.162 11.351C5.524 102.952.44 92.582 3.701 83.052M.395 160.315c1.305-3.812 5.452-5.845 9.265-4.54 3.812 1.305 5.845 5.452 4.54 9.265-1.304 3.812-5.452 5.844-9.264 4.54-3.812-1.304-5.846-5.452-4.541-9.265" mask="url(#prefix__b)"/>
        <path fill="#5BA9F8" d="M88.37 218.695c1.305-3.813 5.453-5.846 9.265-4.541 3.813 1.305 5.844 5.452 4.541 9.265-1.305 3.812-5.453 5.844-9.266 4.54-3.81-1.304-5.844-5.452-4.54-9.264" mask="url(#prefix__b)"/>
        <path fill="#BDDDFC" d="M64.102 79.303c1.522-4.447 6.36-6.818 10.809-5.297 4.448 1.523 6.819 6.361 5.297 10.81-1.522 4.447-6.361 6.818-10.81 5.297-4.446-1.523-6.818-6.362-5.296-10.81" mask="url(#prefix__b)"/>
        <path fill="#5BA9F8" d="M165.406 57.423c1.522-4.447 6.36-6.819 10.809-5.297 4.448 1.522 6.819 6.361 5.297 10.81-1.522 4.446-6.361 6.818-10.808 5.296-4.448-1.522-6.82-6.36-5.298-10.809M198.427 159.97c1.522-4.448 6.361-6.819 10.81-5.298 4.447 1.523 6.818 6.361 5.296 10.81-1.522 4.447-6.36 6.818-10.808 5.297-4.448-1.523-6.819-6.362-5.298-10.81M34.147 50.419c1.196-3.495 4.998-5.358 8.492-4.162 3.495 1.195 5.359 4.998 4.163 8.492-1.196 3.494-5 5.357-8.493 4.161-3.494-1.194-5.358-4.997-4.162-8.491" mask="url(#prefix__b)"/>
        <path fill="#D6E9FD" d="M158.56 192.777c4.1-11.98 17.137-18.37 29.118-14.27 11.98 4.1 18.369 17.136 14.27 29.118-4.1 11.98-17.136 18.369-29.117 14.269-11.981-4.1-18.37-17.136-14.27-29.117M49.782 15.082C53.769 3.434 66.445-2.779 78.094 1.207 89.744 5.194 95.957 17.87 91.97 29.52c-3.986 11.65-16.663 17.863-28.312 13.875-11.65-3.987-17.862-16.663-13.876-28.313" mask="url(#prefix__b)"/>
        <path fill="#5BA9F8" d="M78.42 116.332c7.826-22.873 32.714-35.07 55.587-27.242 22.873 7.827 35.07 32.715 27.243 55.588-7.827 22.873-32.715 35.07-55.589 27.243-22.873-7.827-35.07-32.715-27.242-55.59M28.841 137.278c2.065-6.035 8.633-9.254 14.67-7.188 6.035 2.065 9.254 8.632 7.188 14.668-2.066 6.037-8.633 9.255-14.67 7.19-6.035-2.066-9.253-8.634-7.188-14.67" mask="url(#prefix__b)"/>
        <path stroke="#D6E9FD" d="M95.701 167.227L66.513 211.214M165.735 183.482L149.358 163.741M185.445 100.265L159.589 111.98M78.961 39.636L103.177 89.048M75.572 135.92L51.321 139.188" mask="url(#prefix__b)"/>
        <path stroke="#5BA9F8" stroke-linecap="round" stroke-width="2" d="M71.545 35.37l-6.368-4.896C62.52 27.937 61 24.324 61 20.533v-7.76c0-.464.273-.89.684-1.053 6.283-2.498 12.44-2.542 18.461.094.486.11.834.565.834 1.09v8.045c0 3.547-1.33 6.949-3.696 9.457l-5.738 4.964z" mask="url(#prefix__b)"/>
        <path stroke="#5BA9F8" stroke-linecap="round" stroke-width="2" d="M75.43 17.593L70.99 24.253 67.66 20.923" mask="url(#prefix__b)"/>
        <path stroke="#5BA9F8" stroke-linecap="round" stroke-width="1.6" d="M175.81 196.127h13.423c.607 0 1.047.582.88 1.166l-1.497 5.237h-10.062" mask="url(#prefix__b)"/>
        <path stroke="#5BA9F8" stroke-linecap="round" stroke-width="1.6" d="M169.407 193.383h2.068c.402 0 .756.262.874.646l3.262 10.6c.118.384.473.646.874.646h13.046M179.468 208.934c0 1.011-.818 1.83-1.829 1.83-1.01 0-1.829-.819-1.829-1.83 0-1.01.818-1.829 1.83-1.829 1.01 0 1.828.818 1.828 1.83zM189.53 208.934c0 1.011-.818 1.83-1.828 1.83-1.011 0-1.83-.819-1.83-1.83 0-1.01.819-1.829 1.83-1.829 1.01 0 1.829.818 1.829 1.83z" mask="url(#prefix__b)"/>
    </g>
</svg>
