<?xml version="1.0" encoding="UTF-8"?>
<svg width="58px" height="26px" viewBox="0 0 58 26" version="1.1" xmlns="http://www.w3.org/2000/svg" xmlns:xlink="http://www.w3.org/1999/xlink">
    <!-- Generator: sketchtool 48.1 (47250) - http://www.bohemiancoding.com/sketch -->
    <title>7937F5AC-3737-4808-8F81-E51AC4F25736</title>
    <desc>Created with sketchtool.</desc>
    <defs></defs>
    <g id="Food-and-deals" stroke="none" stroke-width="1" fill="none" fill-rule="evenodd" transform="translate(-498.000000, -249.000000)">
        <g id="Group-5" transform="translate(230.000000, 160.000000)" fill="#2E7C0F">
            <g id="Hooked" transform="translate(265.000000, 82.000000)">
                <g id="Hooked-logo-Copy" transform="translate(3.000000, 7.000000)">
                    <path d="M53.2604988,10.6458296 C54.0837506,8.4641948 54.9070024,6.28263732 55.7302542,4.10107983 C55.6770376,4.08082008 55.623821,4.060483 55.5706043,4.04022325 C54.357021,6.07331234 53.3579097,8.18805905 53.2604988,10.6458296 Z M41.2545716,15.1070729 C42.1552015,14.6232361 43.0247885,14.1237791 43.7731853,13.4369581 C44.0181652,13.2121677 44.2470119,12.9692827 44.3688902,12.6483744 C44.5143183,12.265527 44.3680491,11.9557539 43.9800878,11.8347367 C43.6946602,11.745733 43.4019688,11.7467382 43.1154708,11.8268493 C41.9859941,12.1425766 41.4621622,12.9885372 41.2328567,14.0722018 C41.1628188,14.4035492 41.0964509,14.7494342 41.2545716,15.1070729 Z M19.70842,14.6545536 C19.7239415,14.8129199 19.7263118,15.0081713 19.7643892,15.1959993 C20.018315,16.448856 21.088917,16.8825848 22.0847404,16.0963209 C23.0787289,15.3115263 23.4867229,14.2459562 23.2542825,12.9849028 C23.0238301,11.7347525 21.9238672,11.3270057 20.9254441,12.1066968 C20.1184784,12.7366822 19.7465739,13.5987268 19.70842,14.6545536 Z M51.859281,13.5592899 C51.8468179,13.4205647 51.8437595,13.2911189 51.8221976,13.1649207 C51.7182111,12.5553497 51.5051153,12.0053207 50.8714859,11.7840873 C50.2234819,11.5577503 49.6942213,11.8546098 49.2453209,12.2880293 C48.4563999,13.0498577 48.1296836,14.0026073 48.2759528,15.0919941 C48.4577762,16.4466909 49.6303002,16.9076389 50.6858394,16.0486873 C51.4696375,15.4108918 51.8118754,14.5490019 51.859281,13.5592899 Z M30.6159136,13.5579753 C30.5984041,13.3968253 30.5923637,13.2284838 30.5604796,13.0654005 C30.2914146,11.6861136 29.1421346,11.2683916 28.099976,12.202196 C27.1703675,13.0350882 26.8004509,14.1024368 27.091613,15.3387455 C27.3532613,16.450016 28.3443442,16.8196404 29.2759408,16.1707871 C30.1710656,15.5474518 30.5566566,14.6389335 30.6159136,13.5579753 Z M57.5151515,3.65760782 C57.1973811,4.80707798 56.7622435,5.91455942 56.3408689,7.02706713 C55.4988078,9.25014937 54.6604168,11.4747008 53.810939,13.6949993 C53.7272146,13.9140675 53.7214801,14.1017408 53.7990876,14.3213503 C54.099425,15.1710999 54.4577196,15.9949449 54.8459103,16.8064948 C55.1012889,17.3401304 54.9775756,17.8173171 54.5348684,18.0264101 C54.1016424,18.2310181 53.6688751,18.0411023 53.4167079,17.5303555 C53.3030874,17.3001522 53.1964248,17.0662371 53.090068,16.8323994 C52.9847053,16.6005722 52.8835478,16.3665798 52.7625106,16.0927639 C52.4227195,16.5924528 52.0741354,17.0273415 51.6261525,17.3708293 C49.9917297,18.6237634 48.0126223,18.219187 47.1256788,16.5847974 C47.0060179,16.3643373 46.9291749,16.4347052 46.7946807,16.5534799 C45.7748486,17.4540335 44.5962841,17.9898343 43.2388018,18.0769821 C42.3208153,18.1359055 41.4202618,18.0772914 40.6970205,17.392481 C40.5583974,17.2612566 40.4556343,17.3180148 40.3245043,17.3765515 C39.7438621,17.6356753 39.1879932,17.959058 38.5470236,18.0612074 C37.6801892,18.1994686 37.0488537,17.8053314 36.793628,16.956819 C36.6553107,16.4972629 36.6180744,16.0189936 36.5824437,15.5462146 C36.5222692,14.7475784 36.1666507,14.1996372 35.4253648,13.8850698 C35.1910129,13.7855495 35.1317559,13.8331058 35.0532308,14.0449053 C34.6245159,15.2016442 34.187161,16.3551354 33.745142,17.5067707 C33.5510085,18.0124138 33.1259637,18.2208882 32.6866973,18.0459739 C32.2441431,17.8698223 32.0684365,17.4353976 32.2590529,16.9255788 C32.835031,15.3848325 33.4203372,13.8476434 34.0018969,12.3090623 C34.2790667,11.5757676 34.5562366,10.8426276 34.8328712,10.1092556 C34.8636848,10.0277526 34.920648,9.94957471 34.8726307,9.8515237 C34.7395892,9.83513032 34.6728391,9.94578567 34.5877384,10.0105086 C33.7797022,10.6257245 32.9244135,11.157195 31.9637619,11.4916355 C31.7331566,11.5719012 31.7593061,11.6632248 31.8389781,11.848269 C32.618265,13.6575729 32.0844168,15.9347069 30.5648379,17.2195771 C29.5907292,18.0431128 28.4867904,18.40253 27.2657903,17.8686624 C26.0386734,17.3321657 25.5253166,16.2672142 25.4084083,14.9797149 C25.3275129,14.0882086 25.5352565,13.2437172 25.9418742,12.3764917 C25.5830444,12.3764917 25.2715438,12.3776516 24.9602725,12.376105 C24.6937306,12.3747132 24.8127799,12.5456065 24.8331949,12.6679382 C25.1257333,14.4302272 24.6315681,15.9439862 23.3437415,17.1492866 C22.3914241,18.0404836 21.2575892,18.4034579 19.9959885,17.877555 C18.8771398,17.4112715 18.3137013,16.461847 18.1689613,15.301783 C17.937515,13.4478613 18.5452242,11.8890978 20.0407944,10.7574902 C20.966427,10.0572143 21.9946698,9.90573013 23.1106894,10.3311849 C24.7623158,10.960861 26.4319105,10.892117 28.0870542,10.3223696 C28.7177016,10.1053119 29.3413146,10.0144523 29.9962765,10.1977953 C30.3384379,10.2936038 30.6791466,10.1841084 31.0109858,10.0993577 C31.9414354,9.86165358 32.7480187,9.37248114 33.5074259,8.79956326 C34.6269627,7.95491728 35.6077234,6.96489599 36.4663765,5.851615 C36.6944586,5.5560701 36.9864618,5.43768202 37.3418509,5.52846426 C37.651593,5.60764741 37.8402978,5.82857147 37.9172172,6.14050976 C37.9692869,6.35161326 37.8981021,6.54624605 37.8243176,6.74064685 C37.2637081,8.21844868 36.7049337,9.69702378 36.1458534,11.1755989 C36.096154,11.3070553 36.0492836,11.4395942 36.0030249,11.566411 C36.1144281,11.6733546 36.2063338,11.5985018 36.2955634,11.565947 C37.4774156,11.1346154 38.3290343,10.321519 38.9360554,9.22610059 C39.1736186,8.79739809 39.5148625,8.63160839 39.9087877,8.75069241 C40.422068,8.90588828 40.6334053,9.44625138 40.3550885,9.96929316 C39.6977563,11.2043646 38.7647071,12.1650015 37.5226803,12.8065087 C37.3998845,12.8699944 37.2769358,12.9328615 37.1063521,13.0205507 C38.02755,13.8576959 38.1530219,14.9712089 38.2473743,16.0916813 C38.2742885,16.4109657 38.3890559,16.5096353 38.6774655,16.3506504 C38.699639,16.33851 38.7256357,16.3335611 38.7487268,16.3228126 C39.0490642,16.1827728 39.4290736,16.113101 39.6279478,15.8831296 C39.845096,15.6321252 39.5875765,15.2571652 39.5715963,14.9322359 C39.4645514,12.7576379 40.8293739,10.5314626 43.0827456,10.1882067 C44.3023694,10.0024666 45.4326872,10.5291427 45.8421339,11.5050131 C46.1620453,12.2676922 46.0579823,12.9920942 45.6438715,13.682163 C45.2041463,14.414839 44.5623356,14.9451496 43.8722783,15.4155315 C43.3688614,15.75871 42.8446472,16.0707256 42.2859492,16.4244206 C42.8118456,16.5486083 43.2865897,16.4879837 43.7539172,16.3763231 C44.9210125,16.0977128 45.8118555,15.3965863 46.5542119,14.4732985 C46.6418358,14.364499 46.6518522,14.2433271 46.6676795,14.1147318 C46.7939925,13.0905319 47.1661265,12.167708 47.8560309,11.4037144 C48.8746396,10.2758185 50.0963279,9.78355301 51.6113956,10.3058989 C51.8196744,7.91130468 52.7241274,5.78155648 53.8847235,3.74831273 C54.3127502,2.99854734 54.8078329,2.28752291 55.5579119,1.82147134 C56.3418629,1.33430941 57.1099101,1.59034007 57.4243163,2.42300032 C57.4458782,2.47999053 57.4360912,2.55399275 57.5151515,2.57502577 L57.5151515,3.65760782 Z" id="Fill-1"></path>
                    <path d="M5.04149787,3.66385251 C5.84706564,3.76179351 6.74328036,3.30292035 7.09082274,2.63320944 C6.30321969,2.53687906 5.36770716,2.99736283 5.04149787,3.66385251 Z M18.6760429,6.46740413 C19.1888607,6.48872566 19.6869324,6.32382891 19.9947279,6.0480295 C20.3593367,5.72122714 20.4838921,5.14815339 20.2975082,4.71934513 C20.1976543,4.48964012 20.0725001,4.45650737 19.9115662,4.64126844 C19.4311598,5.19271386 19.0530774,5.81525664 18.6760429,6.46740413 Z M7.03700345,15.5935575 C6.89118985,15.6009971 6.82434614,15.6997817 6.74223242,15.7651268 C5.49742737,16.7560413 4.37059062,17.8726608 3.37137819,19.1218879 C2.72300169,19.9324897 2.10329387,20.7647965 1.70836955,21.7443599 C1.64901114,21.8916165 1.51637166,22.0839705 1.62842657,22.2026962 C1.76488355,22.3474218 1.98322969,22.2635162 2.15703831,22.190118 C2.29431867,22.1321357 2.42860492,22.0606549 2.5524866,21.9769027 C2.96148328,21.7006431 3.30692978,21.3504484 3.62453097,20.9714926 C4.96342622,19.3736047 5.98030394,17.5571327 6.9993524,15.7423481 C7.02128433,15.7033097 7.02278139,15.6522301 7.03700345,15.5935575 Z M9.35662243,0 C10.0341916,0.420371681 10.114434,0.690572271 9.75603793,1.47110914 C9.6686845,1.66116224 9.68867025,1.74522124 9.86786828,1.85458997 C11.8794673,3.08234218 12.4419874,4.98985251 12.2362166,7.23981121 C12.1118109,8.60017109 11.6999698,9.88360472 11.1792925,11.1336755 C11.1210569,11.2734159 11.0660399,11.4145369 10.9992711,11.5804307 C11.2986081,11.6125664 11.5495902,11.491233 11.8103031,11.4419174 C12.8168511,11.2513274 13.8281149,11.0990855 14.8541247,11.1103599 C15.1027114,11.1131209 15.1985232,11.0253805 15.2514443,10.785705 C15.8074522,8.26546903 16.9360106,6.02187611 18.4243872,3.95583481 C18.803293,3.42977581 19.2510635,2.98662537 19.9243661,2.90969912 C20.9750773,2.78982301 21.8449438,3.66385251 21.9326715,4.90962832 C22.0456247,6.51457227 20.967592,7.79102655 19.2838491,8.04987611 C18.887802,8.11077286 18.4901081,8.14053097 18.0911418,8.11169322 C17.9068537,8.09834808 17.795697,8.14030088 17.7150804,8.3299705 C17.3566095,9.17462537 17.0601168,10.0394513 16.833462,10.9308909 C16.7773223,11.1516991 16.8053173,11.2626785 17.0491883,11.2882183 C17.2079514,11.3047847 17.3653673,11.361233 17.5170943,11.4174513 C17.9365704,11.5728378 18.1407693,11.9657522 18.033505,12.392413 C17.9352978,12.7828732 17.5541465,13.0239292 17.1348949,12.9605782 C16.4858448,12.8625605 16.4805302,12.8622537 16.4473703,13.5545133 C16.2943708,16.755351 17.1266611,19.6230206 19.2529348,22.022767 C20.3538725,23.2653215 21.6944893,24.1336755 23.3532314,24.3509558 C25.1992555,24.5927788 26.7034262,23.8591799 28.0788497,22.4877758 C26.7757341,22.4505782 25.7212054,21.9956932 24.8133136,21.1656106 C25.241772,21.2158466 25.668958,21.2855634 26.0987638,21.3128673 C27.8836331,21.4259174 29.5660287,21.0490324 31.1420581,20.1776106 C31.259203,20.1128024 31.3648955,20.0084956 31.5145266,20.0194631 L31.5098108,20.0132507 C31.509212,20.0611091 31.524482,20.116944 31.5059185,20.1556755 C30.5850771,22.0726195 29.403972,23.7676047 27.604656,24.9308555 C26.8486409,25.4196401 26.0271295,25.7367788 25.149628,25.9067375 C25.0712569,25.9219233 24.9677353,25.8872566 24.9260422,26 L23.0547177,26 C22.9648941,25.8592625 22.8082268,25.8963068 22.6841954,25.8708437 C22.1933096,25.7701416 21.7152236,25.6287906 21.2571982,25.4256224 C18.7690103,24.3218112 17.1232179,22.3688968 16.0278194,19.8921475 C15.0726205,17.7324602 14.7561421,15.4485251 14.9014317,13.091115 C14.9143813,12.8798171 14.956299,12.6958997 14.6260476,12.7134631 C13.086771,12.7951445 11.5779595,13.0108909 10.1498395,13.6493097 C9.95559597,13.7361298 9.82639973,13.8591504 9.72355174,14.0475162 C9.09119377,15.2056283 8.45853639,16.3638171 7.80776458,17.511115 C6.96836327,18.9908142 6.09505356,20.4496519 5.01627242,21.7641475 C4.40382534,22.5102478 3.74526883,23.2099469 2.86043176,23.6235693 C1.63875628,24.194649 0.585425152,23.8218289 0,22.6253687 L0,21.8584071 C0.254949248,21.2699174 0.436018605,20.6488319 0.770237159,20.0953923 C2.67756593,16.9377345 5.27773388,14.5369145 8.42118475,12.7276519 C8.58174439,12.635233 8.74926536,12.5681239 8.84552629,12.3763835 C9.71037761,10.6551681 10.4618267,8.89284366 10.6674478,6.94276696 C10.8283817,5.41620649 10.494762,4.09887316 9.1059398,3.24624189 C8.8860966,3.11125664 8.77134699,3.12882006 8.62373691,3.33812389 C8.3306875,3.75366372 7.97513584,4.11421239 7.58253197,4.43234808 C6.82135202,5.04913864 5.97094732,5.38437758 4.98311255,5.28881416 C3.62962097,5.1579705 3.02593169,3.97516224 3.7043991,2.77149263 C3.87424051,2.47023009 4.09161356,2.20769912 4.35457208,1.98727434 C5.34846994,1.1540472 6.4905767,0.861988201 7.74743308,1.05702655 C8.06548339,1.10634218 8.27626938,1.07482006 8.37080869,0.730914454 C8.4639258,0.3919941 8.70719798,0.18100295 8.98235754,0 L9.35662243,0 Z" id="Fill-4"></path>
                    <path d="M31.5395758,19.8581161 C31.5643939,19.8041464 31.5817273,19.7434797 31.6191515,19.7009342 C31.6313636,19.6859645 31.6959697,19.7174797 31.7373333,19.7277221 C31.6628788,19.760813 31.5892121,19.7939039 31.5151515,19.8266009 C31.5151515,19.826207 31.5395758,19.8581161 31.5395758,19.8581161" id="Fill-7"></path>
                </g>
            </g>
        </g>
    </g>
</svg>