<?xml version="1.0" encoding="utf-8"?>
<!-- Generator: Adobe Illustrator 19.1.1, SVG Export Plug-In . SVG Version: 6.00 Build 0)  -->
<svg version="1.1" id="Capa_1" xmlns="http://www.w3.org/2000/svg" xmlns:xlink="http://www.w3.org/1999/xlink" x="0px" y="0px"
	 viewBox="-235 36.9 488.1 488.1" style="enable-background:new -235 36.9 488.1 488.1;" xml:space="preserve">
<style type="text/css">
	.st0{fill:#090509;}
</style>
<path class="st0" d="M9.1,38.9c-133.7,0-242,108.3-242,242s108.3,242,242,242c9.1,0,18-0.5,26.8-1.5v-150h-33V320h33v-41.8
	c0-1.9,0.3-6,0.8-12.2c0.6-6.3,2.9-12.8,7.2-19.7c4.2-6.8,11-13,20.5-18.4c9.4-5.4,23.1-8.1,40.9-8.1h50.1v54.6h-0.1h-36.7
	c-3.6,0-7,1.4-10.1,4.1c-3,2.7-4.6,5.2-4.6,7.6v34h51.4c-0.5,6.7-1.1,13.1-1.8,19.4l-2,16.5c-0.8,5.6-1.6,10.7-2.5,15.5h-45.4v132.3
	c86.7-36.8,147.5-122.7,147.5-222.9C251.1,147.2,142.7,38.9,9.1,38.9z"/>
</svg>
