<svg xmlns="http://www.w3.org/2000/svg" style="display: none;">
    <symbol id="facebook" viewBox="0 0 60.734 60.733" fill="#fff">
        <g>
            <path d="M57.378,0.001H3.352C1.502,0.001,0,1.5,0,3.353v54.026c0,1.853,1.502,3.354,3.352,3.354h29.086V37.214h-7.914v-9.167h7.914
		v-6.76c0-7.843,4.789-12.116,11.787-12.116c3.355,0,6.232,0.251,7.071,0.36v8.198l-4.854,0.002c-3.805,0-4.539,1.809-4.539,4.462
		v5.851h9.078l-1.187,9.166h-7.892v23.52h15.475c1.852,0,3.355-1.503,3.355-3.351V3.351C60.731,1.5,59.23,0.001,57.378,0.001z" />
        </g>
    </symbol>
    <symbol id="google" viewBox="0 0 96.828 96.827" style="enable-background:new 0 0 96.828 96.827;">
        <g>
            <path d="M62.617,0H39.525c-10.29,0-17.413,2.256-23.824,7.552c-5.042,4.35-8.051,10.672-8.051,16.912
			c0,9.614,7.33,19.831,20.913,19.831c1.306,0,2.752-0.134,4.028-0.253l-0.188,0.457c-0.546,1.308-1.063,2.542-1.063,4.468
			c0,3.75,1.809,6.063,3.558,8.298l0.22,0.283l-0.391,0.027c-5.609,0.384-16.049,1.1-23.675,5.787
			c-9.007,5.355-9.707,13.145-9.707,15.404c0,8.988,8.376,18.06,27.09,18.06c21.76,0,33.146-12.005,33.146-23.863
			c0.002-8.771-5.141-13.101-10.6-17.698l-4.605-3.582c-1.423-1.179-3.195-2.646-3.195-5.364c0-2.672,1.772-4.436,3.336-5.992
			l0.163-0.165c4.973-3.917,10.609-8.358,10.609-17.964c0-9.658-6.035-14.649-8.937-17.048h7.663c0.094,0,0.188-0.026,0.266-0.077
			l6.601-4.15c0.188-0.119,0.276-0.348,0.214-0.562C63.037,0.147,62.839,0,62.617,0z M34.614,91.535
			c-13.264,0-22.176-6.195-22.176-15.416c0-6.021,3.645-10.396,10.824-12.997c5.749-1.935,13.17-2.031,13.244-2.031
			c1.257,0,1.889,0,2.893,0.126c9.281,6.605,13.743,10.073,13.743,16.678C53.141,86.309,46.041,91.535,34.614,91.535z
			 M34.489,40.756c-11.132,0-15.752-14.633-15.752-22.468c0-3.984,0.906-7.042,2.77-9.351c2.023-2.531,5.487-4.166,8.825-4.166
			c10.221,0,15.873,13.738,15.873,23.233c0,1.498,0,6.055-3.148,9.22C40.94,39.337,37.497,40.756,34.489,40.756z" />
            <path d="M94.982,45.223H82.814V33.098c0-0.276-0.225-0.5-0.5-0.5H77.08c-0.276,0-0.5,0.224-0.5,0.5v12.125H64.473
			c-0.276,0-0.5,0.224-0.5,0.5v5.304c0,0.275,0.224,0.5,0.5,0.5H76.58V63.73c0,0.275,0.224,0.5,0.5,0.5h5.234
			c0.275,0,0.5-0.225,0.5-0.5V51.525h12.168c0.276,0,0.5-0.223,0.5-0.5v-5.302C95.482,45.446,95.259,45.223,94.982,45.223z" />

        </g>
    </symbol>
</svg>