<svg xmlns="http://www.w3.org/2000/svg" style="display: none;">
    <symbol id="facebook" viewBox="-236 37.6 486.4 486.4">
        <style type="text/css">
            .st0 {
                fill: #090509;
            }
        </style>
        <path class="st0" d="M6,37.6c-133.7,0-242,108.3-242,242s108.3,242,242,242s242-108.3,242-242S139.6,37.6,6,37.6z M68.9,279.6
	l-39.9,0l0,145.9h-54.7V279.6h-36.5v-50.3l36.5,0l-0.1-29.6c0-41,11.1-66,59.4-66h40.2V184H48.7c-18.8,0-19.7,7-19.7,20.1L29,229.3
	h45.2L68.9,279.6z" />
    </symbol>

    <symbol id="google" viewBox="-236 37.6 486.4 486.4">
        <style type="text/css">
            .st0 {
                fill: #090509;
            }
        </style>
        <path class="st0" d="M7.2,38.8c-133.7,0-242,108.3-242,242s108.3,242,242,242s242-108.3,242-242S140.8,38.8,7.2,38.8z M109.4,367.3
	c-31.7,44.5-95.2,57.5-144.8,38.5c-49.8-19-85-71.5-80.8-125.1c1.1-65.6,61.4-123,126.9-120.8c31.4-1.5,60.9,12.2,85,31.4
	c-10.3,11.7-20.9,22.9-32.3,33.4c-28.9-20-70.1-25.7-99-2.6c-41.4,28.6-43.3,96.2-3.5,127C-0.4,384.2,72.8,366.8,83.5,313
	c-24.2-0.4-48.5,0-72.8-0.8c-0.1-14.5-0.1-28.9-0.1-43.4c40.5-0.1,81.1-0.2,121.6,0.1C134.8,303,130.3,339.2,109.4,367.3z" />
    </symbol>

</svg>