<svg xmlns="http://www.w3.org/2000/svg" style="display: none;">
    <symbol id="facebook" viewBox="-235 36.9 488.1 488.1">
        <style type="text/css">
            .st0 {
                fill: #090509;
            }
        </style>
        <path class="st0" d="M9.1,38.9c-133.7,0-242,108.3-242,242s108.3,242,242,242c9.1,0,18-0.5,26.8-1.5v-150h-33V320h33v-41.8
	c0-1.9,0.3-6,0.8-12.2c0.6-6.3,2.9-12.8,7.2-19.7c4.2-6.8,11-13,20.5-18.4c9.4-5.4,23.1-8.1,40.9-8.1h50.1v54.6h-0.1h-36.7
	c-3.6,0-7,1.4-10.1,4.1c-3,2.7-4.6,5.2-4.6,7.6v34h51.4c-0.5,6.7-1.1,13.1-1.8,19.4l-2,16.5c-0.8,5.6-1.6,10.7-2.5,15.5h-45.4v132.3
	c86.7-36.8,147.5-122.7,147.5-222.9C251.1,147.2,142.7,38.9,9.1,38.9z" />
    </symbol>

    <symbol id="google" viewBox="-236 37.6 486.4 486.4">
        <style type="text/css">
            .st0 {
                fill: #090509;
            }
        </style>
        <path class="st0" d="M7.2,38.8c-133.7,0-242,108.3-242,242s108.3,242,242,242s242-108.3,242-242S140.8,38.8,7.2,38.8z M109.4,367.3
	c-31.7,44.5-95.2,57.5-144.8,38.5c-49.8-19-85-71.5-80.8-125.1c1.1-65.6,61.4-123,126.9-120.8c31.4-1.5,60.9,12.2,85,31.4
	c-10.3,11.7-20.9,22.9-32.3,33.4c-28.9-20-70.1-25.7-99-2.6c-41.4,28.6-43.3,96.2-3.5,127C-0.4,384.2,72.8,366.8,83.5,313
	c-24.2-0.4-48.5,0-72.8-0.8c-0.1-14.5-0.1-28.9-0.1-43.4c40.5-0.1,81.1-0.2,121.6,0.1C134.8,303,130.3,339.2,109.4,367.3z" />
    </symbol>

</svg>