<svg xmlns="http://www.w3.org/2000/svg" width="53" height="53" viewBox="0 0 53 53">
    <g fill="#0455A8" fill-rule="evenodd">
        <path d="M48.863 3.937c1.138 1.138 1.385 3.207.564 5.838-.521 1.668-1.506 3.504-2.825 5.321l-8.918-8.892c1.819-1.317 3.654-2.305 5.325-2.825 2.636-.82 4.71-.573 5.848.564l.006-.006zM51.544 13.987c.553.552.759 1.456.501 2.637-.181.833-.618 1.756-1.266 2.645l-2.822-2.823a23.706 23.706 0 0 0 1.95-3.057c.2 0 .396.019.57.047.444.093.794.273 1.07.548l-.003.003zM38.788 1.25c.277.277.457.623.549 1.066a3.1 3.1 0 0 1 .05.582 23.555 23.555 0 0 0-3.055 1.943l-2.833-2.833c.888-.648 1.813-1.083 2.648-1.264 1.183-.257 2.091-.048 2.644.504l-.003.002zM49.529 20.692l-11.79 11.764-.486-4.877 8.083-8.057c.516-.516.97-1.053 1.43-1.588l2.763 2.758zM45.43 16.598l-9.247-9.222a25.3 25.3 0 0 0-1.593 1.43L23.006 20.365l-4.357 4.358c.554.768.736 1.737.585 2.673-.176 1.093-.745 2.177-1.645 3.076l-3.692 3.665-.913.914 4.686 4.687.919-.92.013.02 3.678-3.68c.9-.898 1.985-1.466 3.078-1.641.936-.152 1.907.03 2.676.582l4.373-4.347 11.584-11.553c.518-.518.977-1.055 1.432-1.59l.007-.011zm-9.975.708l.013.018c.804.804 1.045 1.962.87 3.052-.177 1.093-.748 2.175-1.648 3.074l-3.692 3.665-2.923 2.924a.945.945 0 0 1-1.337 0l-4.023-4.023a.945.945 0 0 1 0-1.337l2.587-2.588 4.029-4.002c.9-.899 1.984-1.466 3.077-1.642 1.092-.176 2.246.064 3.05.867l-.003-.008zM34.846 6.029c-.535.46-1.073.915-1.59 1.433l-8.078 8.051-4.91-.483 11.8-11.775 2.778 2.774z"/>
        <path d="M34.123 18.647c.305.306.445.773.342 1.413-.103.642-.476 1.401-1.114 2.039l-3.366 3.34-2.684-2.685 3.36-3.334c.64-.637 1.399-1.014 2.042-1.117.642-.103 1.112.037 1.418.341l.002.003zM35.525 29.308l1.379 13.885a6.71 6.71 0 0 1-1.945 5.402l-1.564 1.564-7.66-7.728 1.916-1.916c.9-.899 1.469-1.983 1.645-3.076a3.885 3.885 0 0 0-.134-1.804l4.585-4.559 1.778-1.768zM23.454 17.245l-1.776 1.776-4.573 4.574a3.917 3.917 0 0 0-1.789-.129c-1.093.177-2.178.744-3.077 1.643l-1.924 1.924-7.735-7.648 1.563-1.564a6.718 6.718 0 0 1 5.407-1.94l13.904 1.364zM25.965 24.091l2.686 2.687-1.247 1.248-2.687-2.687zM27.083 35.71l.013.019c.306.306.445.776.342 1.417-.103.642-.476 1.402-1.115 2.04l-3.363 3.336-2.683-2.684 3.347-3.347c.638-.638 1.398-1.009 2.041-1.112.643-.105 1.117.036 1.423.342l-.005-.011zM17.034 25.676c.304.304.44.774.337 1.413-.103.641-.473 1.398-1.112 2.036l-3.365 3.34-2.684-2.685 3.36-3.334c.639-.638 1.398-1.009 2.042-1.112.64-.102 1.11.034 1.417.337l.005.005zM24.393 43.762l7.666 7.733-1.295 1.295-7.668-7.746.46-.46a.945.945 0 0 0 .065-.066l.772-.756zM8.965 28.357l-.418.418-.337.337-.537.538L0 21.976l1.248-1.248zM18.93 41.16l2.688 2.688-1.25 1.25-2.689-2.688zM8.874 31.117l2.688 2.69-1.247 1.248-2.69-2.69zM16.298 46.495L2.874 49.847 6.23 36.44z"/>
    </g>
</svg>
