<svg xmlns="http://www.w3.org/2000/svg" width="56" height="52" viewBox="0 0 56 52">
    <path fill="#4681BF" fill-rule="nonzero" d="M21.916 37.566l.181.073-.2 1.544-4.636-1.873.928-1.25.181.073 8.321-19.679-.338-.6-.228-.093.262-.648 4.273 1.726-.282.698-.228-.091-.66.197c.065-.032-7.574 19.923-7.574 19.923zm.157-22.923l.66-.196.228.092.281-.697-4.272-1.726-.282.697.228.092.339.6-8.303 19.635-.182-.074-.927 1.247 4.636 1.873.2-1.54-.182-.074c-.091-.037 7.576-19.929 7.576-19.929zm-6.425-2.653l.66-.197.228.092.261-.647-4.317-1.744-.282.697.227.091.34.6L4.46 30.518l-.181-.073-.927 1.247 4.636 1.873.2-1.54-.183-.074 7.642-19.96zM43.4 50.028L.75 32.796 0 34.65l42.601 17.212.75-1.854.049.02zm1.123-2.782L2.8 30.39l-.749 1.855L43.774 49.1l.75-1.855zm6.312-21.04l.661-.196.228.092.261-.647-4.272-1.726-.282.697.227.091.34.6-8.304 19.635-.181-.073-.927 1.247 4.636 1.873.2-1.54-.183-.074 7.596-19.979zm-7.327-2.957l.661-.198.227.092.262-.648-4.272-1.726-.282.698.227.092.339.601-8.321 19.68-.182-.074-.999 1.163 4.636 1.873.201-1.544-.182-.073 7.685-19.936zm-6.535-2.643l.661-.197.227.092.262-.647-4.318-1.744-.282.697.228.091.339.6-8.303 19.635-.182-.073-.927 1.247 4.636 1.873.174-1.609-.182-.073 7.667-19.892zm16.916 3.46L12.165 7.21l-.749 1.854L53.14 25.92l.75-1.854zM39.02.804L12.28 4.254l-.452 1.119.13.392-.099.243 43.083 17.406.098-.243.366-.192.451-1.118L39.021.803z"/>
</svg>
