<svg xmlns="http://www.w3.org/2000/svg" width="72" height="69" viewBox="0 0 72 69">
    <g fill="#0455A8" fill-rule="nonzero">
        <path d="M58.692 69h5.186L64 67.488l-2.464-3.546-6.295-1.463-4.867-6.553 2.61-2.08-2.205-1.323-4.897-5.841-1.379-5.55-3.665 1.695 1.465 1.397s.463 4.208.945 5.124c.482.917-1.963 2.916-1.963 2.916l1.967 4.686-.462.477 2.01 5.32L58.692 69zM0 66.657l.122 1.5 30.782.029c.311.48 1.005.814 1.817.814h16.044l-3.966-2.35-5.632-8.098 2.978-1.781c-.661-1.276-1.866-3.625-2.508-5.018l.085 1.806L37.8 56.46l-.873 3.932 1.398 1.656c-.348 1.033-.437 2.197-.737 3.158-.087.274-1.106 2.242-1.33 2.237-3.183-.081-.907-5.857-.55-7.57l.171-2.381 1.2-5.1 1.647-4.229.046-.303c-.13-1.12-.111-1.72-.058-2.383.05-.621-1.663.908-1.278.269l.139-.898-1.249-.27v.426l-4.961 3.458-.033 3.074v3.84c0 .93-.437 1.95-.597 2.867.964.193 1.467 1.07 2.433 1.258.354 1.396 1.228 2.45.965 4.02-.1.603-2.58-2.638-2.719-2.84-.913-1.328-1.748-2.656-1.748-4.148V50.77l5.176-6.149-.381-2.436-.632-.166V41l-4.822.752-2.34 2.911-3.903 2.685-4.842 5.568-.432 5.395-.985 2.073-4.153 1.262-.476 2.451L0 66.657zm21.49-8.01c.505-1.473 1.284-3.014 1.497-3.666l.172-1.51 1.2-3.243c.543-.889 1.023-2.065 1.757-2.812.974-.993 2.918-1.063 3.517-2.38-.387.85-1.082 2.112-1.65 2.901-.93 1.29-1.108 1.282-.982 3.034l-1.922 1.84-.874 2.503c-.032.09 1.25.94 1.399 1.053-.76 1.337-.683 3.298-1.647 4.44-1.01-.605-1.724.303-2.012 1.175-1.234-.176-1.01-1.713-.455-3.336z"/>
        <path d="M51.784 46l5.86 4.6 4.687 6.6 7.618 4.8L72 67l-5.274-.2-.295-1.1-2.344-2.098-1.76-2.8-4.986-1.996-4.11-2.393 2.91-1.788-2.38-2.175L49 47.098M20.434 46.88l-4.26 4.029-.304 5.303-.913 2.968-3.957.213-.305 2.121L7.043 63 4 60.878l4.87-3.18 2.739-2.97 2.435-5.304 4.565-2.97 3.652-1.484.913-2.97L25 44.122M26.553 30.63c2.952.959 2.872-.066 1.649-1.708-1.59-2.13-2.57-3.897-4.532-5.348-1.962-1.449-3.824-3.314-4.309-4.283-.486-.967-6.916-5.294-8.732-5.955-1.816-.664-2.635-.425.354 1.447 9.816 6.146 16.334 13.977 17.042 15.147.71 1.166.208 1.092-.195.72-.404-.375-1.958-.7-2.712-.91.774.495 1.082.737 1.435.89zM43.453 26.749c1.504-1 6.235-2.536 7.166-2.656-.148.399-.283.414-.12.62-3.589 2.045-5.02 3.021-8.4 6.662-.505.545-1.655.816-2.766 1.11-1.113.294-.248-.345.472-1.04.723-.697 4.107-4.301 5.097-4.503.988-.203 1.05-.741-.308-.262-1.357.475-1.702.444-1.14.069zM42.684 32.998c.721-.696 4.81-3.333 6.208-3.512 2.25-.402 3.016-.011 1.416.194-1.465.189-2.11.687-2.887.974-.773.29-3.937 1.977-4.311 2.215-.378.236-.914.53-.426.13zM53.208 33.985c-1.387-.013-6.76.34-7.677.571-.916.231-3.889 1.069-4.364 1.579-.473.515-.322.383.269.495.59.114 3.166.387 4.551.094 1.383-.293 7.219-1.493 7.684-1.554-.472-.24-.707-.739-.463-1.185zM54.616 34.107c.295.32.3.621.135 1.039 1.893-.282 2.39-.346 2.665-.342-.067-.485-2.131-.746-2.8-.697zM56.467 30.246c.526-.066.976.212.853.835-.122.618-.148.921-.716.733-.566-.192-.783-.805-.594-1.17.19-.362.357-.386.457-.398zM40.875 22.1c.374-.682.007-.982-.459-.923-.465.06-.72.697-1.192 1.738-.473 1.043-2.497 7.263-2.646 7.66-.153.398-.43.357-.49-.617-.059-.97-.183-2.917-.031-3.843.149-.925-.052-.899-.26-.42-.207.48-.285 2.98-1.18-.226-.898-3.204-3.224-10.601-5.54-13.775 1.08 3.56 3.635 10.098 4.202 12.363.571 2.266 1.19 5.433 1.26 5.953.069.519-.123.617-.591.15-.468-.469-1.09-1.596-1.656-2.278 1.122 2.346 2.013 3.968 2.348 3.924.33-.042.404-.504.222-1.388-.185-.88-.436-2.283-.065-2.028.373.253.467-.06.9 1.694.435 1.758.834 4.27 1.358 2.09.528-2.18 1.052-4.359 1.545-5.253.49-.893 1.078-2.63 2.275-4.82z"/>
        <path d="M36.125 24.071c-.061-.975 1.4-7.878 1.946-9.909.161-.612.265-2.935-.27-1.024-.923 3.287-1.799 8.457-1.91 9.15-.112.694.25.873.234 1.783zM38.434 17.434c.208-.48.908-1.325 1.11-1.35.277.57.41.554.031.752-.381.2-.694.389-1.141.598zM32.634 30.478c.81 1.373.873 2-.005.984-.877-1.02-1.549-1.99-1.627-2.584-.08-.593-.341-1.243-.998-1.91-1.642-1.675-5.61-7.125-7.45-8.246-1.841-1.123-3.26-4.185-4.292-4.808 5.19 3.408 11.062 8.917 12.413 11.46-3.038-3.533-4.576-4.922-5.65-5.386-1.077-.466-.862-.344.21.575 3.436 2.953 5.044 5.916 7.399 9.915zM25.958 28.621c1.953.956 6.06 3.069 8.305 8.29-1.379-.198-1.324-.283-1.609-.622.744-.021.61-.533.217-.936-.39-.401-2.342-3.396-7.71-6.63.52-.143.797-.102.797-.102zM31.082 39.509c2.05-.87 1.563-1.747.176-2.515-1.801-.991-3.108-2.018-4.824-2.172-1.713-.159-3.552-.75-4.238-1.34-.686-.59-6.125-.724-7.415-.256-1.292.466-1.643 1.166.82 1.103 8.1-.212 15.097 3.04 15.994 3.679.897.638.589.867.204.767-.387-.1-1.388.517-1.897.772.644-.007.917.032 1.18-.038zM4.25 17.21c.683.332 2.932 1.145 3.908 1.576.975.432 1.54.382 1.032.776-.512.392-3.72-1.306-4.94-2.352zM13.852 22.213c-.547-.408-1.183-1.102-1.755-.9-.566.203.076 1.756 1.015 2.242.942.489 3.043.819 4.292.952-2.983-1.487-3.106-1.869-3.552-2.294zM40.405 34.461c.372-.275.463-1.117.93-1.177.044-.684-.32-.864-.593-.376-.273.487-.093.843-.337 1.553zM50.893 30.283c1.2-.153 1.287-.015 1.405.385.122.399-.025.57-.283.416-.257-.158-.237-.763-1.122-.8zM22.476 24.703c.756.255 1.059.843.851 1.324-.21.48-1.802 1.741-1.94.702-.136-1.04-.045-2.41 1.089-2.026zM24.246.255c.877.49 1.19.3 2.217 1.902.881 1.383.238 2.837-.394 2.166-.63-.676-.754-3.149-1.823-4.068zM47 41.882L50 41l-.833 2.294-1 .706zM53.13 41L52 39.009 53.405 39l.595.55zM62.103 37L61 36.024 62.41 36l.59.266z"/>
    </g>
</svg>
