<?xml version="1.0" encoding="UTF-8"?>
<svg width="51px" height="55px" viewBox="0 0 51 55" version="1.1" xmlns="http://www.w3.org/2000/svg" xmlns:xlink="http://www.w3.org/1999/xlink">
    <!-- Generator: sketchtool 47.1 (45422) - http://www.bohemiancoding.com/sketch -->
    <title>6D40F8E2-49DE-496C-961B-90B1557D59B2</title>
    <desc>Created with sketchtool.</desc>
    <defs></defs>
    <g id="Home-page-Copy" stroke="none" stroke-width="1" fill="none" fill-rule="evenodd" opacity="0.5">
        <g id="Home-page1" transform="translate(-554.000000, -1312.000000)" fill-rule="nonzero" fill="#320161">
            <g id="Group-10" transform="translate(0.000000, 922.000000)">
                <g id="Group-74" transform="translate(630.000000, 249.500000) scale(-1, 1) translate(-630.000000, -249.500000) translate(157.000000, 54.000000)">
                    <path d="M513.486729,372.58655 C513.379254,377.6757 511.631962,381.9294 508.287193,385.26295 C508.181889,384.22675 508.126523,383.16745 508.126523,382.09055 C508.126523,375.91295 509.916153,370.32275 512.791938,366.32315 C513.134991,367.7251 513.542095,369.9724 513.486729,372.58655 Z M533.514088,372.6575 C533.637304,377.71475 535.384053,381.94535 538.712538,385.2624 C538.817299,384.22565 538.873208,383.1669 538.873208,382.09 C538.873208,375.9135 537.083578,370.32385 534.209422,366.3248 C533.863112,367.74435 533.450579,370.02465 533.514088,372.6575 Z M531.446541,372.63165 C531.36132,368.58915 532.279205,365.38045 532.604888,364.3778 C530.054787,361.6861 526.905428,360.09275 523.500408,360.09275 C520.095388,360.09275 516.94603,361.6861 514.395929,364.3778 C514.721069,365.38045 515.639496,368.58915 515.554276,372.63165 C515.425631,378.7207 513.050313,383.92425 508.674757,387.74235 C512.332181,390.38675 517.619652,391 523.499866,391 C529.380622,391 534.66755,390.38675 538.325517,387.7418 C533.949961,383.92425 531.575186,378.7207 531.446541,372.63165 Z M532.799755,343.5867 C532.79867,343.58615 532.797584,343.58615 532.796498,343.5856 C532.797041,343.58615 532.797041,343.58725 532.797041,343.58835 C532.797584,343.5878 532.79867,343.58725 532.799755,343.5867 Z M514.20269,343.5856 C514.202147,343.58615 514.201061,343.58615 514.200519,343.5867 C514.201061,343.5867 514.201604,343.58725 514.20269,343.5878 C514.20269,343.58725 514.20269,343.58615 514.20269,343.5856 Z M543.370353,377.74115 C543.058783,380.96635 542.156097,383.43035 540.784427,385.3031 C540.886474,384.246 540.939669,383.17405 540.939669,382.09055 C540.939669,375.71715 539.163609,369.71225 535.938801,365.183 C532.641256,360.5498 528.223361,357.99835 523.499866,357.99835 C518.77637,357.99835 514.359018,360.5498 511.060388,365.183 C507.835579,369.71225 506.059519,375.71715 506.059519,382.09055 C506.059519,383.17295 506.111628,384.24435 506.21259,385.2998 C504.843091,383.42815 503.940406,380.9647 503.629921,377.74115 C502.440633,375.91955 491.954713,359.309 503.03772,344.294 C506.437312,339.68885 511.32582,341.68865 514.200519,343.5867 C514.161979,343.60815 514.241229,343.56415 514.20269,343.5856 C514.436096,339.51065 518.773114,336 523.499866,336 C528.22716,336 532.563092,339.51065 532.796498,343.5856 C532.759045,343.5647 532.837752,343.60815 532.799755,343.5867 C535.673911,341.6881 540.562962,339.68885 543.962011,344.294 C555.045018,359.3079 544.560183,375.9179 543.370353,377.74115 Z M516.925946,342.35195 C518.836079,341.6914 521.01273,341.32675 523.499866,341.32675 C525.987001,341.32675 528.163652,341.69195 530.073785,342.35195 C529.336112,339.90885 526.669308,338.09495 523.499866,338.09495 C520.330423,338.09495 517.663619,339.90885 516.925946,342.35195 Z M526.955367,354.2413 C526.955367,353.3536 525.407828,352.6342 523.499866,352.6342 C521.591904,352.6342 520.044365,353.3536 520.044365,354.2413 C520.044365,355.129 521.591904,355.8484 523.499866,355.8484 C525.407828,355.8484 526.955367,355.129 526.955367,354.2413 Z M543.439832,371.1131 C545.135557,365.7825 547.464736,356.339 541.272409,347.59235 C539.273799,344.76975 537.652981,345.5722 536.609708,346.6975 C538.864523,349.2088 540.39035,352.4219 541.417338,355.9408 C537.098776,350.2549 530.711582,346.6502 523.597571,346.6502 C516.306605,346.6502 509.779909,350.43585 505.459719,356.36705 C506.487793,352.6815 508.043474,349.31 510.388937,346.69695 C509.346207,345.5722 507.724847,344.76975 505.726779,347.5918 C499.533909,356.339 501.863088,365.7825 503.559356,371.11365 C503.634263,368.4577 503.805247,365.67635 504.164584,362.92305 C507.59783,354.5526 515.017441,348.74405 523.597571,348.74405 C531.944294,348.74405 539.192921,354.2402 542.741784,362.24435 C543.165173,365.21765 543.358954,368.23935 543.439832,371.1131 Z" id="Shape"></path>
                </g>
            </g>
        </g>
    </g>
</svg>