<svg xmlns="http://www.w3.org/2000/svg" width="66" height="52" viewBox="0 0 66 52">
    <g fill-rule="nonzero">
        <path d="M4.937 12.733L35.887 23l20.261-10.417a.747.747 0 0 0 .324-1.012.763.763 0 0 0-1.023-.32l-.223.113c-.748-1.28-.406-2.736-.157-3.45l1.521-.78a.746.746 0 0 0-.163-1.39l.01-.007L32.298 0 5.417 5.279a.762.762 0 0 0-.607.388c-.074.133-1.777 3.299-.013 6.788l.14.278zm49.409-.915l-18.587 9.555L6.024 11.51c-.05-.115-.092-.23-.134-.343l29.993 9.607.102.032 18.171-9.361c.057.124.119.249.19.373zM34.707 2.385l13.455 3.31-6.36 2.666-14.325-4.123 7.23-1.853zM5.782 7.308l30.506 10.24 17.589-9.021a6.168 6.168 0 0 0-.078.546L36 17.98 5.613 8.026c.047-.267.106-.507.17-.718zm-.236 1.233l30.393 9.955.103.033 17.73-8.871c.001.08.008.161.012.243l.064.542c.031.173.07.346.125.521l-18.034 9.292-30.24-9.686c-.05-.194-.087-.385-.126-.575l-.045-.55a6.2 6.2 0 0 1 .018-.904z"/>
        <path d="M37.2 23.985L14.645 16l-7.178 2.086a.708.708 0 0 0-.587.361c-.079.139-1.901 3.46-.056 8.806.076.22.25.39.466.457L40.4 37.97a.703.703 0 0 0 .58-.08l16.798-10.778a.747.747 0 0 0 .227-1.01.704.704 0 0 0-.484-.332c-.836-3.011-.237-4.852-.225-4.889.02-.055.031-.11.037-.165l1.282-.68a.744.744 0 0 0 .307-.987.708.708 0 0 0-.56-.393l-6.178-2.483-14.982 7.812zm19.004 2.408L40.5 36.47 8.047 26.414c-.07-.223-.13-.439-.188-.653l32.459 9.84.106.033 15.63-9.779c.046.176.098.355.15.538zm-.273-1.07L40.354 35.07 7.718 25.176a12.365 12.365 0 0 1-.27-1.776L40.03 33.705l.105.033 15.656-9.162c.038.24.086.49.14.746zm-15.856 7.851L7.422 22.847c-.01-.485.012-.925.056-1.319L40.03 31.823l.104.033 15.509-9.074c.002.375.02.787.072 1.24l-15.64 9.152zm15.58-10.998l-15.58 9.117L7.551 21.007c.11-.649.266-1.135.387-1.441l32.558 9.854a.7.7 0 0 0 .527-.05l14.682-7.79c-.021.181-.038.378-.05.596z"/>
        <path d="M64.751 32.036c-1.381-2.903-.585-5.212-.549-5.314.008-.02.004-.04.01-.062l1.368-.869a.897.897 0 0 0 .275-1.248c-.161-.247-.371-.37-.696-.486l-1.781-.62-.034-.012-1.935-.674-.014.009-2.226-.76-1.4.718s-.288 2.369.434 3.643h.064c.097.009.31.064.63.346.431.383.216 1.228.198 1.296L40.354 39.659 8.35 30.373l-.608.218-6.207 2.506h-.01l-.047.003a.913.913 0 0 0-.751.525c-.062.135-1.498 3.343-.156 6.642l.158.389 34.217 11.21.406.134 29.977-18.3a.898.898 0 0 0 .298-1.244.915.915 0 0 0-.876-.42zm-62.607 3.07l33.154 9.867 5.736-3.511a.902.902 0 0 0 .18-.15L61.425 28.43l1.193-.758c-.04.366-.06.792-.04 1.268l-27.7 17.297L1.918 36.19c.06-.418.143-.79.226-1.083zm-.278 1.542L34.845 46.7l.1.03 27.67-17.277c.05.507.148 1.056.314 1.637L34.952 48.56 2.175 37.784a.228.228 0 0 0-.29.143.226.226 0 0 0-.01.08 6.99 6.99 0 0 1-.009-1.358zm33.25 13.369L2.132 39.209a6.023 6.023 0 0 1-.252-1.179.223.223 0 0 0 .151.181l32.88 10.812.104.034L63.068 31.54c.125.367.282.746.468 1.13l-28.42 17.348z"/>
    </g>
</svg>
