<svg xmlns="http://www.w3.org/2000/svg" width="63" height="50" viewBox="0 0 63 50">
    <g fill="#8C3FBF" fill-rule="nonzero" opacity=".5">
        <path d="M41.49 2.59a61.203 61.203 0 0 0-4.533 1.1c-5.68 1.628-8.972 3.678-9.816 6.105-2-1.61-5.88-1.605-11.56.024a61.203 61.203 0 0 0-4.427 1.47l-.001-.005c-.064.026-.132.05-.202.07-.107.053-.22.1-.346.136l-.039.01a2.253 2.253 0 0 1-.366.14c-.04.012-.079.02-.117.028-.073.036-.15.069-.23.099a2.18 2.18 0 0 1-.265.11l.004.013a77.178 77.178 0 0 0-4.828 2.095l-.175.086-.33.773L.438 15.94l9.585 33.428.523-.186c.085-.03 8.57-3.046 11.847-4.39l.158-.066c3.31-1.357 7.43-3.049 9.676-2.097l.17.073 7.725-2.216.107-.151c1.42-2.026 6.067-2.804 9.46-3.373l.023-.005c3.495-.585 12.288-2.535 12.376-2.554l.542-.12L53.044.856 49.223 1.95l-.69-.48-.194.02c-.036.003-2.243.239-5.205.781l-1.644.319zM4.153 17.745l.807-1.892 7.446 25.966-.655 2.424-7.598-26.498zm29.853 21.24c-.344-.017-3.996-.144-8.766 1.224a31.26 31.26 0 0 0-4.492 1.667c-4.662 2.156-7.223 3.055-8.417 3.413l.814-3.014.008.007c.022-.018 2.34-1.934 11.162-4.487 5.665-1.638 8.738-.03 10.132 1.18l-.441.01zm.717-.86c-1.657-1.303-4.935-2.762-10.587-1.14l-.051.014c-6.87 1.988-9.879 3.605-10.962 4.295L5.52 14.773c1.18-.555 5.698-2.625 10.348-3.958 5.855-1.68 9.69-1.577 11.108.29l7.748 27.02zm-6.746-27.306c.21-2.334 3.41-4.454 9.265-6.133 4.65-1.333 9.58-1.972 10.875-2.126l7.602 26.512c-1.315.006-4.72.263-11.522 2.16l-.168.047c-5.715 1.64-7.67 4.51-8.33 6.472l-7.722-26.932zm21.585 22.794a31.264 31.264 0 0 0-4.692.967c-4.77 1.368-7.8 3.412-8.083 3.607l-.405.239c.463-1.74 2.13-4.754 8.037-6.396 8.141-2.27 11.344-2.148 11.796-2.114l2.295 2.13c-1.208.33-3.85.925-8.948 1.567zm8.885-2.76l-1.84-1.709L49.16 3.177l1.688 1.177 7.598 26.498z"/>
        <path d="M26.079 13.533c-5.075-2.106-17.327 3.818-17.45 3.878l-.356-.757c.516-.252 12.692-6.136 18.088-3.894l-.282.773z"/>
        <path d="M26.586 15.302C21.512 13.196 9.26 19.12 9.136 19.18l-.355-.757c.515-.252 12.691-6.136 18.088-3.894l-.283.773z"/>
        <path d="M27.093 17.071c-5.074-2.107-17.326 3.818-17.45 3.877l-.355-.757c.515-.252 12.691-6.136 18.088-3.894l-.283.774z"/>
        <path d="M27.6 18.84c-5.074-2.107-17.326 3.817-17.449 3.877l-.356-.757c.516-.252 12.691-6.136 18.088-3.894l-.282.774z"/>
        <path d="M28.108 20.609c-5.075-2.107-17.327 3.817-17.45 3.877l-.356-.757c.516-.252 12.691-6.136 18.088-3.895l-.282.775z"/>
        <path d="M28.615 22.378c-5.074-2.107-17.327 3.817-17.45 3.877l-.356-.757c.516-.252 12.692-6.136 18.088-3.895l-.282.775z"/>
        <path d="M29.122 24.147c-5.074-2.107-17.326 3.817-17.45 3.877l-.356-.757c.516-.252 12.692-6.136 18.089-3.894l-.283.774z"/>
        <path d="M29.63 25.916c-5.075-2.107-17.327 3.817-17.45 3.877l-.356-.757c.515-.252 12.691-6.136 18.088-3.894l-.283.774z"/>
        <path d="M30.137 27.685c-5.075-2.107-17.327 3.817-17.45 3.876l-.356-.756c.516-.252 12.692-6.136 18.088-3.894l-.282.774z"/>
        <path d="M30.644 29.454c-5.075-2.107-17.327 3.817-17.45 3.876l-.356-.756c.516-.252 12.692-6.136 18.088-3.895l-.282.775z"/>
        <path d="M31.151 31.222c-5.074-2.106-17.327 3.818-17.45 3.877l-.356-.756c.516-.252 12.692-6.136 18.089-3.895l-.283.774z"/>
        <path d="M31.658 32.991c-5.074-2.106-17.326 3.818-17.449 3.877l-.356-.756c.515-.252 12.691-6.136 18.088-3.895l-.283.774z"/>
        <g>
            <path d="M30.096 12.381c3.187-4.475 16.717-5.944 16.852-5.958l-.099-.83c-.57.059-14.014 1.52-17.403 6.282l.65.506z"/>
            <path d="M30.603 14.15C33.79 9.675 47.32 8.206 47.456 8.192l-.1-.83c-.57.059-14.014 1.521-17.402 6.282l.649.506z"/>
            <path d="M31.11 15.92c3.187-4.477 16.717-5.945 16.853-5.96l-.1-.83c-.57.06-14.014 1.522-17.402 6.282l.65.507z"/>
            <path d="M31.618 17.688c3.187-4.476 16.716-5.944 16.852-5.959l-.099-.83c-.57.06-14.014 1.522-17.403 6.282l.65.507z"/>
            <path d="M32.125 19.457c3.187-4.476 16.716-5.944 16.852-5.96l-.099-.83c-.57.06-14.014 1.522-17.403 6.283l.65.507z"/>
            <path d="M32.632 21.226c3.187-4.476 16.717-5.944 16.852-5.959l-.099-.83c-.57.06-14.014 1.522-17.403 6.282l.65.507z"/>
            <path d="M33.14 22.995c3.186-4.476 16.716-5.944 16.852-5.96l-.1-.83c-.57.06-14.014 1.523-17.402 6.283l.65.507z"/>
            <path d="M33.646 24.764c3.187-4.476 16.717-5.945 16.853-5.96l-.1-.83c-.57.06-14.013 1.523-17.402 6.283l.65.507z"/>
            <path d="M34.154 26.533c3.187-4.476 16.716-5.945 16.852-5.96l-.099-.83c-.57.06-14.014 1.523-17.403 6.283l.65.507z"/>
            <path d="M34.66 28.302c3.188-4.476 16.718-5.945 16.853-5.96l-.099-.83c-.57.06-14.014 1.522-17.403 6.283l.65.507z"/>
            <path d="M35.168 30.07c3.187-4.475 16.717-5.944 16.853-5.958l-.1-.831c-.57.06-14.014 1.522-17.403 6.283l.65.506z"/>
            <path d="M35.675 31.84c3.187-4.476 16.717-5.945 16.853-5.96l-.1-.83c-.57.06-14.014 1.522-17.402 6.283l.65.507z"/>
        </g>
    </g>
</svg>
