<svg xmlns="http://www.w3.org/2000/svg" width="62" height="72" viewBox="0 0 62 72">
    <g fill="#8C3FBF" fill-rule="nonzero" opacity=".5">
        <path d="M56.218 14.148c.946.401 1.394 1.477 1.002 2.401L36.906 64.405c-.392.925-1.477 1.35-2.424.948L1.862 51.506C.915 51.104.466 50.029.86 49.104L21.173 1.25c.393-.925 1.478-1.35 2.424-.948l32.62 13.847zm-21.55 45.21l-16.354-6.943a.9.9 0 0 0-1.181.47.899.899 0 0 0 .482 1.177l16.355 6.942a.9.9 0 0 0 1.181-.47.9.9 0 0 0-.482-1.177zm10.719-32.423l-22.875-9.71c-1.538-.653-3.362.176-4.073 1.851L9.585 39.783c-.71 1.675-.04 3.563 1.498 4.216l22.875 9.71c1.538.652 3.362-.176 4.073-1.851l8.853-20.707c.712-1.676.041-3.563-1.497-4.216zm5.387-5.518L34.42 14.474a.9.9 0 0 0-1.181.47.899.899 0 0 0 .482 1.177l16.355 6.942a.899.899 0 0 0 1.181-.47.9.9 0 0 0-.482-1.176zm1.831-4.314l-25.7-10.91a.9.9 0 0 0-1.182.47.9.9 0 0 0 .483 1.177l25.7 10.91a.899.899 0 0 0 1.181-.47.9.9 0 0 0-.482-1.177z"/>
        <path d="M59.677 19.545c.34.144.531.238.778.408 1.019.697 1.388 1.863.815 3.214-.232.546-2.754 6.35-9.98 22.965l-.008.018a16284.775 16284.775 0 0 0-9.964 22.928c-.76 1.79-3.182 3.049-4.759 2.38-.312-.133-2.764-1.14-16.318-6.698l-.137-.056A6922.89 6922.89 0 0 1 3.636 57.94c-.882-.374-1.43-1.325-2.085-3a27.319 27.319 0 0 1-.355-.964 41.262 41.262 0 0 1-.892-2.924c-.182-.699.24-1.409.943-1.584.703-.176 1.42.249 1.603.948l.06.223c.05.184.109.39.174.613.184.637.386 1.281.597 1.888.108.309.214.6.32.87.213.543.416.987.597 1.301.136.22.071.127.187.284 5.433 2.239 10.871 4.466 16.307 6.696l.137.056c13.747 5.638 16.02 6.57 16.349 6.71-.065-.028-.06-.028 0-.037.138-.023.311-.082.489-.175.392-.203.705-.51.827-.797.223-.525 2.604-6.004 9.972-22.948l.009-.019c7.188-16.529 9.743-22.41 9.97-22.944l.034-.092c-.081-.047-.01-.007-.22-.1l-2.994-1.272a1.31 1.31 0 0 1-.703-1.714 1.31 1.31 0 0 1 1.722-.685l2.993 1.27z"/>
        <g>
            <path d="M34.947 48.616l-.83 1.952-20.507-8.705.828-1.952zM19.214 29.859l3.612 1.533-3.845 9.057-3.612-1.533zM25.188 29.216l3.612 1.533-4.988 11.75-3.612-1.532zM28.191 35.974l3.612 1.533-3.015 7.105-3.612-1.534zM35.412 33.555l3.612 1.533-4.988 11.751-3.612-1.533z"/>
            <path d="M38.988 28.963l.661 2.009-1.079.363-2.374.799-2.374.799-1.08.363-.756.254-.447-.659-.639-.942-1.151-1.696-1.66-2.446-.282-.416-.568.065-2.16.25-3.116.36-1.2.14-.23-2.106 1.199-.138 2.638-.305 2.637-.305 1.2-.139.63-.073.357.526.64.942 1.15 1.696 1.66 2.446.192.283.324-.109 2.374-.799 2.374-.799 1.08-.363z"/>
            <path d="M37.263 27.566l5.332.741-3.326 4.27z"/>
        </g>
    </g>
</svg>
