<svg xmlns="http://www.w3.org/2000/svg" width="70" height="51" viewBox="0 0 70 51">
    <g fill="#52AB15" fill-rule="nonzero">
        <path d="M16.259 10.204c2.873 0 5.211-2.288 5.211-5.102C21.47 2.29 19.133 0 16.26 0s-5.21 2.289-5.21 5.102c0 2.814 2.337 5.102 5.21 5.102zm10.803 35.461c.292 1.518-.763 3.02-2.359 3.315-.117.02-.224.02-.316.02-.054 0-.104-.016-.149-.017l-.086-.029c-1.386 0-2.633-1.089-2.898-2.465l-1.645-12.313H9.88c-2.357 0-4.126-1.201-4.735-3.396-.203-.732-.194-1.403.024-2.15l.032-.097 4.474-14.372c.407-1.392 1.573-2.382 3.039-2.635 1.37-.24 2.722.312 3.609 1.335l4.303 4.201h7.264c1.434 0 2.672.713 3.013 2.01.234.894.037 1.633-.543 2.366-.567.716-1.41 1.07-2.313 1.07h-8.28c-.9 0-1.827-.29-2.611-1.028l-1.348-1.223-2.626 8.474h7.807c1.844 0 3.579 1.556 4.122 3.111h.025l.047.352 1.878 13.471z"/>
        <path d="M50 26.94V23H19v3.94h11.625V49h7.75V26.94zM17.174 35.546H5.29c-.39 0-.746-.001-1.039.225-.74-.753-1.267-1.782-1.498-2.83.623-.293 1.047-1.022 1.047-1.79V18.54C3.8 17.504 3.03 17 2.054 17H1.66C.682 17 0 17.504 0 18.54v12.61c0 .878.515 1.61 1.28 1.818.293 1.605 1.22 3.06 2.411 4.13 0 .018.109.034.109.053v.417c0 1.037.512 2.01 1.49 2.01h5.35v6.06c-2.28.399-3.905 2.019-4.657 4.289-.14.42.14.88.536 1.027.392.148.724-.073.864-.494.536-1.62 1.737-2.792 3.257-3.17v2.77c0 .445.34.806.76.806s.76-.36.76-.806v-2.872c2.28.193 3.478 1.45 4.081 3.273.11.332.474.539.787.539a.914.914 0 0 0 .287-.046c.396-.149.482-.608.343-1.028-.818-2.466-2.458-4.152-5.498-4.35v-5.999h5.014c.978 0 1.826-.972 1.826-2.01v-.416c0-1.038-.848-1.605-1.826-1.605z"/>
        <path d="M53.74 10.198c2.874 0 5.212-2.287 5.212-5.099C58.952 2.287 56.614 0 53.74 0c-2.874 0-5.21 2.287-5.21 5.1 0 2.811 2.336 5.098 5.21 5.098zm6.379 23.957h-9.727l-1.64 12.265c-.273 1.418-1.518 2.56-2.904 2.56l-.086.007c-.044.002-.094.01-.15.01-.091 0-.196.01-.31-.01-1.602-.297-2.657-1.775-2.356-3.331l1.94-13.848a4.33 4.33 0 0 1 4.124-3.095h7.808l-2.628-8.497-1.331 1.177c-.8.752-1.727 1.1-2.627 1.1h-8.28c-.902 0-1.745-.27-2.313-.988-.58-.73-.777-1.522-.543-2.415.343-1.297 1.58-2.039 3.013-2.039h7.264l4.303-4.204c.887-1.021 2.23-1.663 3.61-1.423 1.466.253 2.631 1.27 3.041 2.673l4.503 14.455c.218.743.227 1.472.023 2.203-.608 2.194-2.377 3.4-4.734 3.4z"/>
        <path d="M68.114 17h-.392c-.978 0-1.522.504-1.522 1.54v12.61c0 .769.312 1.43.935 1.721-.232 1.048-.809 2.146-1.55 2.9-.292-.226-.711-.225-1.1-.225H52.6c-.978 0-1.6.567-1.6 1.605v.417c0 1.037.622 2.01 1.6 2.01h5.21c-.007 0 .03-.046.03 0v5.979c-2.28.107-4.786 1.826-5.628 4.37-.14.42.056.88.452 1.027.393.148.85-.073.988-.494.63-1.897 1.908-3.185 4.188-3.29v2.89c0 .445.34.806.76.806s.76-.36.76-.806v-2.712c1.52.433 2.6 1.571 3.11 3.112.11.333.389.54.703.54a.671.671 0 0 0 .245-.046.832.832 0 0 0 .49-1.027c-.725-2.19-2.268-3.764-4.548-4.232v-6.118c0-.045-.072 0-.079 0h5.204c.978 0 1.715-.972 1.715-2.01v-.416c0-.019.024-.036.024-.055 1.191-1.069 2.075-2.524 2.368-4.129.767-.207 1.408-.94 1.408-1.817V18.54c0-1.036-.908-1.54-1.886-1.54z"/>
    </g>
</svg>
