<svg xmlns="http://www.w3.org/2000/svg" xmlns:xlink="http://www.w3.org/1999/xlink" width="87" height="68" viewBox="0 0 87 68">
    <defs>
        <path id="a" d="M51.94 60.44a22.576 22.576 0 0 0 10.363 2.497c12.292 0 22.256-9.736 22.256-21.746 0-9.452-6.173-17.496-14.795-20.493v-.04c0-6.657-5.396-12.053-12.052-12.053-1.07 0-2.107.14-3.094.4C51.293 3.926 45.552.57 39.028.57c-10.285 0-18.622 8.337-18.622 18.62 0 2.778.608 5.414 1.699 7.781C9.883 27.052 0 36.985 0 49.226c0 12.292 9.964 22.256 22.256 22.256 7.76 0 14.591-3.97 18.574-9.991a8.95 8.95 0 0 0 4.893 1.446c2.412 0 4.603-.95 6.217-2.496z"/>
    </defs>
    <g fill="none" fill-rule="evenodd">
        <use fill="#FFF" transform="rotate(14 43.366 50.2)" xlink:href="#a"/>
        <g fill="#125FAC" fill-rule="nonzero">
            <path d="M27.241 31.864l20.69 6.863 13.542-6.963a.5.5 0 0 0 .217-.677.51.51 0 0 0-.684-.214l-.149.076c-.5-.855-.271-1.829-.105-2.305l1.017-.522a.499.499 0 0 0-.11-.93l.008-.004-16.137-3.835-17.967 3.528a.51.51 0 0 0-.407.26c-.049.09-1.187 2.205-.008 4.538l.093.185zm33.028-.612L47.844 37.64l-19.876-6.593c-.034-.077-.062-.154-.09-.23l20.049 6.422.069.022 12.146-6.258c.038.083.079.167.127.25zM47.14 24.947l8.994 2.213-4.251 1.782-9.576-2.756 4.833-1.24zm-19.335 3.291l20.392 6.845 11.757-6.03c-.022.115-.039.238-.052.365L48.005 35.37l-20.312-6.653a4.34 4.34 0 0 1 .113-.48zm-.158.824l20.317 6.655.068.022 11.852-5.93c0 .053.005.108.008.162l.043.363c.02.115.047.23.083.348l-12.055 6.21-20.213-6.473c-.033-.13-.059-.258-.085-.385l-.03-.367a4.144 4.144 0 0 1 .012-.605z"/>
            <path d="M48.808 39.386L33.73 34.048l-4.798 1.394a.473.473 0 0 0-.393.242c-.052.093-1.27 2.312-.037 5.886.051.148.167.26.312.306l22.132 6.858a.47.47 0 0 0 .388-.054l11.228-7.204a.5.5 0 0 0 .152-.675.47.47 0 0 0-.324-.222c-.558-2.013-.158-3.244-.15-3.268a.49.49 0 0 0 .025-.11l.857-.455a.497.497 0 0 0 .205-.66.473.473 0 0 0-.374-.262l-4.13-1.66-10.015 5.222zm12.703 1.61L51.013 47.73 29.32 41.009a10.418 10.418 0 0 1-.126-.436l21.697 6.578.071.021 10.449-6.536c.03.117.065.237.1.36zm-.183-.716l-10.412 6.516L29.1 40.182a8.265 8.265 0 0 1-.18-1.187l21.78 6.888.07.022 10.464-6.124c.026.16.058.328.094.499zM50.73 45.528l-21.827-6.903a6.71 6.71 0 0 1 .038-.882l21.759 6.882.07.022 10.366-6.065c.002.25.015.526.049.828l-10.455 6.118zm10.415-7.351L50.729 44.27l-21.74-6.876c.074-.434.177-.758.258-.963l21.764 6.587a.468.468 0 0 0 .352-.034l9.814-5.207c-.014.121-.026.253-.033.399z"/>
            <path d="M67.224 44.767c-.923-1.94-.391-3.484-.367-3.552.005-.013.002-.027.006-.041l.915-.58a.6.6 0 0 0 .184-.836c-.108-.164-.248-.247-.465-.324l-1.191-.415-.022-.008-1.294-.45-.01.006-1.488-.508-.936.48s-.192 1.583.291 2.435h.043c.064.006.207.042.42.231.29.256.145.821.133.866l-12.528 7.792-21.393-6.207-.406.146-4.149 1.675h-.006l-.032.002a.61.61 0 0 0-.502.35c-.041.09-1.001 2.235-.104 4.44l.106.26L47.3 58.023l.271.09L67.611 45.88a.6.6 0 0 0 .198-.832.611.611 0 0 0-.585-.28zm-41.85 2.053l22.162 6.595 3.834-2.347a.603.603 0 0 0 .12-.1L65 42.357l.798-.507c-.026.245-.04.53-.026.848L47.256 54.26l-22.033-6.716c.04-.279.096-.529.151-.724zm-.185 1.03l22.044 6.72.067.02 18.496-11.55c.033.34.099.706.21 1.095L47.305 55.813l-21.91-7.204a.153.153 0 0 0-.194.095.15.15 0 0 0-.007.054 4.672 4.672 0 0 1-.005-.908zm22.226 8.937l-22.05-7.225a4.026 4.026 0 0 1-.168-.788.149.149 0 0 0 .101.121l21.979 7.227.069.023 18.753-11.71c.083.245.189.499.313.756L47.415 56.787z"/>
        </g>
    </g>
</svg>
