<svg xmlns="http://www.w3.org/2000/svg" xmlns:xlink="http://www.w3.org/1999/xlink" width="87" height="68" viewBox="0 0 87 68">
    <defs>
        <path id="a" d="M51.94 60.44a22.576 22.576 0 0 0 10.363 2.497c12.292 0 22.256-9.736 22.256-21.746 0-9.452-6.173-17.496-14.795-20.493v-.04c0-6.657-5.396-12.053-12.052-12.053-1.07 0-2.107.14-3.094.4C51.293 3.926 45.552.57 39.028.57c-10.285 0-18.622 8.337-18.622 18.62 0 2.778.608 5.414 1.699 7.781C9.883 27.052 0 36.985 0 49.226c0 12.292 9.964 22.256 22.256 22.256 7.76 0 14.591-3.97 18.574-9.991a8.95 8.95 0 0 0 4.893 1.446c2.412 0 4.603-.95 6.217-2.496z"/>
    </defs>
    <g fill="none" fill-rule="evenodd">
        <use fill="#FFF" transform="rotate(14 43.366 50.2)" xlink:href="#a"/>
        <g fill="#125FAC" fill-rule="nonzero">
            <path d="M44.463 33.161H58.46a9.337 9.337 0 0 0-7.298-4.697c-.038 1.675-2.559 3.026-5.665 3.026s-5.627-1.351-5.664-3.026a9.337 9.337 0 0 0-7.298 4.697H44.463z"/>
            <path d="M38.178 21.071c.005.066.01.132.017.198.45 5.015 3.432 8.89 7.042 8.89 3.66 0 6.67-3.976 7.06-9.086a7.725 7.725 0 0 0 0-2.25c-.524-3.551-3.485-6.272-7.06-6.272-3.574 0-6.537 2.722-7.06 6.275a7.687 7.687 0 0 0 0 2.245zM60.087 54.107H30.89c-.411 0-.743.292-.743.653 0 .36.332.652.743.652h29.197c.41 0 .744-.292.744-.652 0-.36-.333-.653-.744-.653z"/>
            <path d="M61.689 33.868H28.636c-.969 0-1.754.794-1.754 1.773l3.507 16.692c0 .98.785 1.774 1.754 1.774h26.04c.968 0 1.753-.794 1.753-1.774l3.507-16.692c0-.979-.786-1.773-1.754-1.773zM44.912 46.655c-1.367 0-2.475-1.121-2.475-2.504 0-.502.149-.969.401-1.362a2.462 2.462 0 0 1 2.572-1.093c.304.063.586.186.838.35.016.01.032.018.047.026.083.059.157.13.231.195.044.037.094.072.135.112.042.043.075.093.114.138.065.077.132.149.188.233l.022.038c.003.004.004.008.005.011a2.506 2.506 0 0 1 .396 1.35c0 1.385-1.106 2.506-2.474 2.506z"/>
        </g>
    </g>
</svg>
