<svg xmlns="http://www.w3.org/2000/svg" xmlns:xlink="http://www.w3.org/1999/xlink" width="87" height="68" viewBox="0 0 87 68">
    <defs>
        <path id="a" d="M51.94 60.44a22.576 22.576 0 0 0 10.363 2.497c12.292 0 22.256-9.736 22.256-21.746 0-9.452-6.173-17.496-14.795-20.493v-.04c0-6.657-5.396-12.053-12.052-12.053-1.07 0-2.107.14-3.094.4C51.293 3.926 45.552.57 39.028.57c-10.285 0-18.622 8.337-18.622 18.62 0 2.778.608 5.414 1.699 7.781C9.883 27.052 0 36.985 0 49.226c0 12.292 9.964 22.256 22.256 22.256 7.76 0 14.591-3.97 18.574-9.991a8.95 8.95 0 0 0 4.893 1.446c2.412 0 4.603-.95 6.217-2.496z"/>
    </defs>
    <g fill="none" fill-rule="evenodd">
        <use fill="#FFF" transform="rotate(14 43.366 50.2)" xlink:href="#a"/>
        <path fill="#125FAC" fill-rule="nonzero" d="M32.323 26.16c-5.748 1.963-11.931 7.72-7.74 13.984 1.236 1.849 3.477 3.486 5.45 4.443 1.584.769 3.083.68 2.428 2.96-.343 1.192-1.247 2.458-5.137 3.53 6.564 1.032 10.19-2.037 11.515-3.875 2.581 3.177 6.474 4.275 10.616 4.66 5.708.528 3.912 1.469 7.375 2.558 3.32 1.043 5.81.953 9.09.177-2.778-.378-4.508-1.14-6.082-2.668-1.18-1.145.055-1.413.686-1.719 9.36-4.541 7.239-13.783-1.945-16.919-.479-.163-.967-.309-1.462-.437-1.128-2.74-3.85-5.217-8.174-6.694-5.219-1.782-11.401-1.782-16.62 0zm9.122 13.066h-2.478c-.04-2.182.219-2.963 1.979-4.407 1.117-.91 2.777-2.26 1.15-3.697-.896-.805-2.55-.74-3.456.026-.466.4-.787 1.007-.962 1.823l-2.498-.32c.073-1.17.565-2.159 1.48-2.975 1.866-1.664 5.484-1.64 7.343.013 2.882 2.564.91 4.952-1.3 6.803-1.126.94-1.284 1.257-1.258 2.734zm-2.478 3.678v-2.738h2.478v2.738h-2.478zm3.147 3.742c2.266-.234 4.523-.325 6.829-1.118 5.838-2.01 8.768-5.848 8.774-9.686 1.046.373 2.03.855 2.914 1.455 2.628 1.787 4.468 4.489 2.475 7.469-2.936 4.388-7.656 2.444-6.34 6.935-1.174-.804-2.506-1.793-3.8-2.075-2.493-.543-5.067-.36-7.405-1.165-1.245-.428-2.45-1.04-3.447-1.815z"/>
    </g>
</svg>
