<svg xmlns="http://www.w3.org/2000/svg" width="65" height="67" viewBox="0 0 65 67">
    <g fill="#F14D4D" fill-rule="nonzero" opacity=".5">
        <path d="M17 14.23L.384 24.215a.757.757 0 0 0-.255 1.04L11.303 43.85c.216.36.68.477 1.037.263l16.616-9.984a.756.756 0 0 0 .255-1.04L18.038 14.493A.757.757 0 0 0 17 14.231zm10.527 18.985l-15.323 9.207-10.39-17.294 15.322-9.207 10.391 17.294z"/>
        <path d="M3.985 25.662l13.266-7.971 3.985 6.633-13.266 7.97zM8.768 33.621l13.265-7.97 1.196 1.99-13.266 7.97zM11.159 37.6l9.285-5.58 1.196 1.99-9.286 5.58zM38.888 1.08l-16.616 9.983a.757.757 0 0 0-.255 1.04l11.174 18.595c.216.36.68.477 1.037.263l16.616-9.984a.756.756 0 0 0 .255-1.04L39.926 1.343a.757.757 0 0 0-1.038-.263zm10.528 18.983l-15.324 9.208-10.39-17.294 15.323-9.208 10.39 17.294z"/>
        <path d="M25.21 12.908l13.266-7.97 3.985 6.632-13.265 7.971zM29.993 20.868l13.265-7.97 1.196 1.989-13.266 7.97zM32.384 24.847l9.285-5.58 1.196 1.99-9.286 5.58zM30.152 36.119l-16.616 9.983a.757.757 0 0 0-.255 1.04l11.174 18.596c.216.36.68.477 1.037.262l16.616-9.983a.756.756 0 0 0 .255-1.04L31.189 36.381a.757.757 0 0 0-1.037-.262zm10.527 18.984L25.356 64.31 14.964 47.015l15.323-9.207L40.68 55.103z"/>
        <path d="M17.137 47.55l13.265-7.971 3.985 6.632-13.265 7.971zM22.318 56.173l13.265-7.971 1.196 1.99-13.266 7.97zM24.31 59.489l9.286-5.58 1.196 1.99-9.286 5.58zM52.04 22.967l-16.616 9.984a.757.757 0 0 0-.255 1.04l11.173 18.595c.217.36.681.477 1.038.263l16.616-9.984a.756.756 0 0 0 .255-1.04L53.077 23.23a.757.757 0 0 0-1.037-.263zm10.527 18.984l-15.323 9.207-10.392-17.294 15.324-9.207L62.567 41.95z"/>
        <path d="M38.362 34.796l13.265-7.97 3.986 6.632-13.266 7.97zM43.543 43.42l13.266-7.972 1.195 1.99-13.266 7.97zM45.536 46.736l9.285-5.58 1.196 1.99-9.286 5.579z"/>
    </g>
</svg>
