<?xml version="1.0" encoding="utf-8"?>
<!-- Generator: Adobe Illustrator 22.0.1, SVG Export Plug-In . SVG Version: 6.00 Build 0)  -->
<svg version="1.1" id="Layer_1" xmlns="http://www.w3.org/2000/svg" xmlns:xlink="http://www.w3.org/1999/xlink" x="0px" y="0px"
	 viewBox="0 0 50.4 56.2" style="enable-background:new 0 0 50.4 56.2;" xml:space="preserve">
<g>
	<path d="M32.4,18.1c-0.1,0-0.2,0-0.3,0h-8.4c-0.8,0-1.5-0.7-1.5-1.5s0.7-1.5,1.5-1.5h8.4c0.8,0,1.5,0.7,1.5,1.5
		C33.6,17.3,33.1,17.9,32.4,18.1z"/>
	<path d="M32.4,28.5c-0.1,0-0.2,0-0.3,0h-8.4c-0.8,0-1.5-0.7-1.5-1.5s0.7-1.5,1.5-1.5h8.4c0.8,0,1.5,0.7,1.5,1.5
		C33.6,27.7,33.1,28.3,32.4,28.5z"/>
	<path d="M29.9,39.8c-0.1,0-0.2,0-0.3,0h-5.7c-0.8,0-1.5-0.7-1.5-1.5s0.7-1.5,1.5-1.5h5.7c0.8,0,1.5,0.7,1.5,1.5
		C31,39,30.5,39.6,29.9,39.8z"/>
	<g>
		<path d="M9.1,54.2C4,53,0.2,48.5,0.1,43L0,11.7C0,5.4,5.1,0.2,11.4,0.1l20-0.1C37.7,0,42.9,5.1,43,11.4c0,0.3,0,0.6,0,0.9l-3-0.2
			c0-0.2,0-0.5,0-0.7c0-4.7-3.9-8.5-8.5-8.5L11.5,3C6.8,3,3,6.9,3,11.5l0.1,31.3c0,4.7,3.9,8.5,8.5,8.5L29,51.2v3l-17.4,0.1
			C10.8,54.5,9.9,54.4,9.1,54.2z"/>
	</g>
	<rect x="46.2" y="11.9" transform="matrix(0.3399 -0.9405 0.9405 0.3399 18.6597 52.9921)" width="1.8" height="2.7"/>
	<rect x="38.6" y="24.2" transform="matrix(0.3378 -0.9412 0.9412 0.3378 7.8441 60.6137)" width="16.8" height="1.1"/>
	<path d="M30.8,56.2l4.3-5.1l-4.5-1.5c-0.1,2.3-0.1,4.3-0.2,6.4C30.5,56.3,30.7,56.2,30.8,56.2z"/>
	<polygon points="40.9,35.6 35.5,50 31.1,48.5 36.6,34.2 	"/>
	<polygon points="44.3,14.3 48.6,15.8 41.6,33.9 37.3,32.6 	"/>
	<path d="M19.2,10.8L19.2,10.8c-0.4-0.3-1.1-0.2-1.6,0.2l-5.2,4.9l-2.8-1.5c-0.5-0.3-1.2-0.2-1.6,0.2l0.1-0.1
		c-0.4,0.4-0.4,1.1,0.1,1.5l3.6,2c0.3,0.2,0.6,0.3,0.9,0.3c0.3,0,0.7-0.2,0.9-0.4l5.9-5.5C19.7,11.8,19.7,11.2,19.2,10.8z"/>
	<path d="M19.2,21.8L19.2,21.8c-0.4-0.3-1.1-0.2-1.6,0.2l-5.2,4.9l-2.8-1.5c-0.5-0.3-1.2-0.2-1.6,0.2l0.1-0.1
		c-0.4,0.4-0.4,1.1,0.1,1.5l3.6,2c0.3,0.2,0.6,0.3,0.9,0.3c0.3,0,0.7-0.2,0.9-0.4l5.9-5.5C19.7,22.8,19.7,22.2,19.2,21.8z"/>
	<path d="M19.2,32.8L19.2,32.8c-0.4-0.3-1.1-0.2-1.6,0.2l-5.2,4.9l-2.8-1.5c-0.5-0.3-1.2-0.2-1.6,0.2l0.1-0.1
		c-0.4,0.4-0.4,1.1,0.1,1.5l3.6,2c0.3,0.2,0.6,0.3,0.9,0.3c0.3,0,0.7-0.2,0.9-0.4l5.9-5.5C19.7,33.8,19.7,33.2,19.2,32.8z"/>
</g>
</svg>
