<?xml version="1.0" encoding="utf-8"?>
<!-- Generator: Adobe Illustrator 22.0.1, SVG Export Plug-In . SVG Version: 6.00 Build 0)  -->
<svg version="1.1" id="Layer_1" xmlns="http://www.w3.org/2000/svg" xmlns:xlink="http://www.w3.org/1999/xlink" x="0px" y="0px"
	 viewBox="0 0 53.4 51.5" style="enable-background:new 0 0 53.4 51.5;" xml:space="preserve">
<path id="SVGID_1_" d="M43.4,16.4c-1-0.9-2.5-1.3-3.8-1.2c-1.3-0.1-2.6,0.3-3.7,1.1c-0.8,0.6-1.3,1.6-1.3,2.7c0,0.1,0,0.2,0.2,0.4
	c0.1,0.1,0.2,0.2,0.4,0.2l2.2,0.1c0.3,0,0.7-0.3,0.8-0.5c0.1-0.3,0.2-0.6,0.4-0.7c0.3-0.3,0.7-0.5,1.1-0.4c0.4,0,1,0.2,1.3,0.5
	c0.3,0.3,0.5,0.9,0.4,1.4c0,0.5-0.1,1-0.4,1.5c-0.3,0.4-0.7,0.8-1.1,1.1c-0.7,0.5-1.3,1-1.9,1.6c-0.3,0.4-0.4,1-0.5,1.5
	c0,0.1,0,0.3,0.2,0.4c0.1,0.1,0.2,0.2,0.4,0.2l2.4,0c0.3,0,0.5-0.2,0.5-0.4c0-0.3,0.1-0.6,0.3-0.9c0.2-0.4,0.5-0.7,0.9-0.9
	c0.8-0.4,1.5-0.9,2-1.7c0.5-0.7,0.8-1.5,0.8-2.4C44.8,18.4,44.2,17.2,43.4,16.4z M40.8,28.2c0-0.4-0.3-0.8-0.8-0.8l-1.9,0
	c-0.4,0-0.8,0.3-0.8,0.8l0,1.3c0,0.4,0.3,0.8,0.8,0.8l1.9,0c0.4,0,0.8-0.3,0.8-0.8L40.8,28.2z M53.3,30.3c0,2.5-2.1,4.5-4.6,4.5
	l-9.5,0l-6,8.1c-0.2,0.2-0.7,0.4-1.1,0.2c-0.4-0.2-0.6-0.5-0.5-0.9l0.1-7.5l-2.2-0.1c-2.5,0-4.5-2.1-4.5-4.6l0.1-14.4
	c0-2.5,2.1-4.5,4.6-4.5l19.2,0.1c2.5,0,4.5,2.1,4.5,4.6L53.3,30.3z"/>
<path id="SVGID_3_" d="M7.1,50.5c-1.4-0.6-2.7-1.4-3.8-2.5C1.2,45.7,0,42.9,0,39.7l0.3-28.3c0-3,1.3-6,3.5-8.1S8.8,0,12,0l21.1,0.2
	c4.2,0,7.6,3.4,7.5,7.7l-3-0.1c0-2.5-2-4.6-4.6-4.6L11.9,3c-2.3,0-4.5,0.9-6,2.5s-2.5,3.7-2.6,6L3.1,39.8c0,2.3,0.9,4.5,2.5,6
	c1.6,1.6,3.7,2.5,6,2.6l18,0.1c4.7,0,8.6-3.7,8.6-8.5c0-0.1,0-0.2,0-0.3l3-0.1c0.1,0.1,0,0.3,0,0.4c0,6.4-5.3,11.5-11.6,11.4
	l-18.1-0.1C10,51.3,8.5,51,7.1,50.5z"/>
</svg>
