<svg xmlns="http://www.w3.org/2000/svg" width="56" height="55" viewBox="0 0 56 55">
    <g fill="none" fill-rule="evenodd">
        <path fill="#F14D4D" fill-rule="nonzero" d="M55.218 18.516a4.529 4.529 0 0 1-2.502 5.896l-8.834 3.569-2.353 9.831a.918.918 0 0 1-1.695-.014l-2.842-7.033-2.091.845a4.529 4.529 0 0 1-5.896-2.504l-5.379-13.313a4.529 4.529 0 0 1 2.502-5.896l17.816-7.198a4.529 4.529 0 0 1 5.895 2.503l5.379 13.314zm-12.36 2.922a.754.754 0 0 0-.98-.416l-1.792.723a.754.754 0 0 0-.416.982l.47 1.163a.754.754 0 0 0 .981.417l1.79-.724a.754.754 0 0 0 .417-.981l-.47-1.164zM40.663 9.513a5.605 5.605 0 0 0-4.016.294 5.829 5.829 0 0 0-2.989 2.364 3.534 3.534 0 0 0-.234 3.004.483.483 0 0 0 .634.297l2.052-.785a.79.79 0 0 0 .52-.807c-.035-.273.012-.55.134-.797.182-.37.496-.659.88-.807.445-.213.96-.22 1.41-.017.442.234.778.628.94 1.1.203.475.267.998.184 1.508-.09.504-.295.98-.6 1.392a7.567 7.567 0 0 0-1.08 2.215 3.216 3.216 0 0 0 .139 1.634.536.536 0 0 0 .717.345l2.184-.882a.536.536 0 0 0 .319-.643 2.657 2.657 0 0 1-.13-.888c.044-.432.208-.843.472-1.188a5.418 5.418 0 0 0 1.163-2.293 3.982 3.982 0 0 0-.16-2.502 4.214 4.214 0 0 0-2.539-2.544z"/>
        <path stroke="#F14D4D" stroke-width="3" d="M33.106 4.781l.017.04 12.791 29.22a8.5 8.5 0 0 1-4.568 11.368l-16.814 6.793a8.5 8.5 0 0 1-11.065-4.697L2.852 21.234A8.5 8.5 0 0 1 7.55 10.168l9.829-3.97 9.767-3.947a4.58 4.58 0 0 1 5.961 2.53z"/>
        <path fill="#F14D4D" d="M21.307 53.577l15.672-14.274a2.199 2.199 0 0 1 2.098-.368 2.21 2.21 0 0 1 1.43 1.584 3.208 3.208 0 0 0 2.153 2.551c1.138.38 3.02-.164 3.876-1.004.856-.84 1.8-2.344 1.446-3.491l.724-2.027c.821 3.582.026 7.06-2.507 8.165l-24.42 10.013c-1.185.274-5.77.175-6.045-1.014l5.573-.135z"/>
    </g>
</svg>
