<svg xmlns="http://www.w3.org/2000/svg" width="53" height="58" viewBox="0 0 53 58">
    <g fill="none" fill-rule="evenodd" opacity=".5">
        <path fill="#F14D4D" fill-rule="nonzero" d="M25.095 12.424l.05.069c-.355-.483-1.06-.665-1.61-.417l-6.511 2.955-2.17-2.335a1.364 1.364 0 0 0-1.571-.3l.075-.04c-.54.278-.712.894-.39 1.401l2.747 3.022c.175.271.469.471.808.55.339.078.69.027.967-.14l7.314-3.342c.521-.305.65-.932.291-1.423z"/>
        <path stroke="#F14D4D" stroke-linecap="round" stroke-width="4" d="M28.114 17.773l8.171 1.887"/>
        <path fill="#F14D4D" fill-rule="nonzero" d="M22.552 23.44l.05.069c-.355-.483-1.06-.665-1.61-.417l-6.511 2.954-2.17-2.334a1.364 1.364 0 0 0-1.571-.3l.075-.04c-.54.278-.712.894-.39 1.4l2.747 3.023c.175.27.469.47.808.55.339.077.69.027.967-.14l7.313-3.343c.522-.304.65-.932.292-1.422z"/>
        <path stroke="#F14D4D" stroke-linecap="round" stroke-width="4" d="M25.767 27.942l8.17 1.886"/>
        <path fill="#F14D4D" fill-rule="nonzero" d="M20.009 34.456l.05.068c-.355-.483-1.06-.665-1.61-.416l-6.511 2.954-2.17-2.334a1.364 1.364 0 0 0-1.572-.3l.076-.04c-.541.278-.712.893-.39 1.4l2.747 3.022c.175.272.469.472.808.55.339.078.69.027.966-.14l7.314-3.342c.522-.304.65-.932.292-1.422z"/>
        <path stroke="#F14D4D" stroke-linecap="round" stroke-width="4" d="M23.25 38.963l5.602 1.294"/>
        <path stroke="#F14D4D" stroke-width="3" d="M24.3 53.286L44.99 17.76a8.5 8.5 0 0 0-6.232-10.717l-19.496-4.5a8.5 8.5 0 0 0-10.195 6.37L2.024 39.418a8.5 8.5 0 0 0 6.37 10.194L24.3 53.286z"/>
        <g fill="#F14D4D">
            <path d="M48.336 16.935l2.407 1.194.81-1.634-2.407-1.193zM51.802 20.407l.964.479-7.456 15.02-.964-.478zM28.826 57.489l4.847-4.602-4.284-1.997c-.353 2.238-.577 4.28-.965 6.36.072.315.237.277.402.239zM41.233 38.204l-7.081 13.743-4.12-2.035 7.118-13.585zM47.046 17.455l4.12 2.035-9.068 17.187-4.084-1.877z"/>
        </g>
    </g>
</svg>
