<?xml version="1.0" encoding="UTF-8"?>
<svg width="54px" height="86px" viewBox="0 0 54 86" version="1.1" xmlns="http://www.w3.org/2000/svg" xmlns:xlink="http://www.w3.org/1999/xlink">
    <!-- Generator: sketchtool 47.1 (45422) - http://www.bohemiancoding.com/sketch -->
    <title>BA070CCB-AF62-48AB-B60B-18284A1EB71D</title>
    <desc>Created with sketchtool.</desc>
    <defs></defs>
    <g id="Home-page-Copy" stroke="none" stroke-width="1" fill="none" fill-rule="evenodd" opacity="0.5">
        <g id="Home-page1" transform="translate(-589.000000, -2345.000000)" fill-rule="nonzero" fill="#2CBFA5">
            <g id="food" transform="translate(0.000000, 1962.000000)">
                <g id="Group-79" transform="translate(192.000000, 23.000000)">
                    <g id="Group" transform="translate(397.000000, 360.000000)">
                        <path d="M24.648,13.198 C26.995,14.06 29.073,14.368 29.744,14.451 C30.341,13.835 31.206,12.82 32.05,11.831 C32.298,11.54 32.541,11.255 32.779,10.977 C33.428,10.139 34.061,9.456 34.66,8.899 C34.756,8.806 34.845,8.725 34.925,8.657 C35.508,8.141 36.054,7.743 36.54,7.441 C37.517,6.768 38.365,6.342 38.958,6.49 C38.962,6.491 38.966,6.494 38.97,6.495 C38.988,6.5 39.002,6.51 39.019,6.516 C39.067,6.536 39.111,6.561 39.151,6.594 C39.159,6.601 39.171,6.603 39.178,6.61 C37.59,3.327 35.665,2.446 33.364,2.285 C30.026,2.043 27.55,4.217 25.368,6.116 C23.485,7.755 21.982,10.47 21.383,11.592 C22.004,11.937 23.237,12.592 24.648,13.198 Z" id="Shape"></path>
                        <path d="M24.801,25.898 C24.94,25.481 25.065,25.103 25.171,24.763 C25.736,22.969 27.248,19.751 27.897,18.399 C23.546,17.78 20.208,16.031 19.017,15.335 C18.549,16.248 18.103,17.209 17.83,18.029 C17.699,18.424 17.523,18.922 17.314,19.511 C16.269,22.471 14.36,27.879 13.33,33.813 C13.679,33.784 14.163,33.756 14.74,33.756 C16.682,33.756 20.041,34.105 22.23,36.185 C22.98,31.417 24.064,28.118 24.801,25.898 Z" id="Shape"></path>
                        <path d="M20.687,12.389 L19.498,14.455 C20.629,15.112 24.036,16.908 28.357,17.457 C28.703,16.748 29.004,16.009 29.204,15.49 C28.214,15.451 27.072,15.169 25.941,14.777 C24.77,14.43 23.416,13.906 21.976,13.123 C21.912,13.09 21.849,13.051 21.785,13.017 C21.598,12.913 21.413,12.809 21.223,12.696 C21.044,12.593 20.864,12.5 20.687,12.389 Z" id="Shape"></path>
                        <path d="M43.895,12.371 L53.562,15.798 C53.476,15.005 53.386,14.414 53.333,14.096 L43.773,10.594 C43.854,11.132 43.886,11.766 43.895,12.371 Z" id="Shape"></path>
                        <path d="M11.366,40.584 C10.965,41.135 8.41,44.752 8.482,47.525 C8.55,50.169 8.708,56.129 15.195,61.903 C15.149,61.784 15.103,61.666 15.059,61.559 C14.119,59.226 14.095,58.069 14.077,57.14 L14.066,56.769 C14.129,55.465 14.377,54.178 14.817,52.893 C12.989,48.997 13.531,46.235 14.321,44.598 C15.228,42.72 16.795,41.62 17.945,41.364 C20,40.903 22.511,42.469 23.323,43.029 C24.027,42.648 24.652,42.337 25.105,42.122 C22.867,40.263 20.645,39.769 17.401,39.242 C17.118,39.196 16.848,39.18 16.578,39.166 C16.499,39.165 16.421,39.161 16.342,39.161 C15.509,39.161 14.741,39.267 14.014,39.438 C12.764,39.775 11.835,40.309 11.409,40.56 L11.366,40.584 Z" id="Shape"></path>
                        <path d="M35.361,43.958 C35.533,43.799 35.692,43.519 35.712,43.018 C35.72,42.97 35.734,42.91 35.753,42.844 C35.754,42.841 35.754,42.838 35.755,42.835 L35.755,42.834 C36.041,41.818 37.459,38.886 37.961,37.862 L37.743,37.46 L35.319,42.623 C35.242,43.163 35.262,43.76 35.361,43.958 Z" id="Shape"></path>
                        <path d="M11.532,38.465 C11.517,38.789 11.507,39.082 11.504,39.311 C11.707,39.198 11.926,39.111 12.139,39.015 C12.034,38.178 12.073,36.803 12.126,35.77 L11.719,36.178 C11.641,37.213 11.578,37.946 11.532,38.465 Z" id="Shape"></path>
                        <path d="M23.422,48.442 C27.809,45.339 32.821,44.442 34.404,44.227 C34.186,43.582 34.293,42.7 34.341,42.396 C34.349,42.35 34.362,42.305 34.382,42.263 L34.908,41.143 C31.282,40.625 27.427,42.168 26.283,42.678 C26.274,42.682 26.262,42.681 26.253,42.684 C26.242,42.69 26.235,42.7 26.224,42.705 C26.173,42.727 21.184,44.934 19.407,47.067 C16.64,50.386 15.22,53.561 15.064,56.771 L15.076,57.119 C15.093,57.967 15.114,59.022 15.986,61.185 C16.026,61.285 16.069,61.394 16.112,61.504 C16.301,60.716 16.547,59.911 16.739,59.316 C15.622,58.376 16.386,55.986 16.487,55.69 C16.579,55.491 18.251,52.1 23.422,48.442 Z" id="Shape"></path>
                        <path d="M13.185,34.832 C13.101,36.013 13.031,37.712 13.106,38.647 C13.362,38.566 13.617,38.485 13.885,38.425 C14.734,38.21 15.721,38.093 16.804,38.174 C19.007,38.25 20.941,38.838 21.903,39.19 L22.051,37.441 C20.186,35.111 16.687,34.758 14.741,34.758 C14.045,34.757 13.501,34.8 13.185,34.832 Z" id="Shape"></path>
                        <path d="M41.604,25.558 C41.717,25.023 41.831,24.483 41.941,23.922 L42.06,23.095 C42.319,21.298 42.572,19.537 42.742,17.836 C42.84,16.386 42.899,14.717 42.899,12.726 C42.899,12.693 42.898,12.65 42.897,12.611 C42.853,11.908 42.768,11.224 42.649,10.556 C42.635,10.564 42.622,10.574 42.608,10.582 C42.532,10.631 42.424,10.702 42.301,10.784 C42.434,12.147 42.876,17.755 41.763,23.262 C40.562,29.202 39.552,33.485 38.269,36.332 L38.425,36.619 C39.059,34.785 40.365,30.872 41.234,27.371 C41.352,26.76 41.477,26.164 41.604,25.558 Z" id="Shape"></path>
                        <path d="M19.357,45.693 C20.198,44.929 21.288,44.2 22.34,43.583 C21.387,42.989 19.568,42.03 18.164,42.339 C17.278,42.537 15.981,43.464 15.224,45.033 C15.193,45.098 15.161,45.164 15.131,45.233 C15.309,45.072 15.487,44.945 15.657,44.851 C17.025,44.096 18.648,45.14 19.357,45.693 Z" id="Shape"></path>
                        <path d="M20.79,72.756 C20.495,72.476 20.185,72.142 19.895,71.771 C19.839,71.725 19.782,71.682 19.726,71.628 C19.685,71.801 19.66,71.916 19.647,71.972 L19.637,72.018 L18.567,75.921 L18.797,76.053 L20.222,76.746 L20.264,76.746 L21.547,73.417 C21.408,73.307 21.225,73.15 21.03,72.976 C20.949,72.903 20.868,72.831 20.79,72.756 Z" id="Shape"></path>
                        <path d="M15.341,51.566 C16.099,49.864 17.193,48.161 18.639,46.426 C18.643,46.421 18.648,46.417 18.652,46.412 C17.999,45.92 16.898,45.305 16.14,45.725 C16.113,45.74 13.668,47.166 15.341,51.566 Z" id="Shape"></path>
                        <path d="M7.912,43.933 C3.986,45.654 3.225,49.946 3.087,51.221 C3.089,51.4 3.095,51.55 3.101,51.709 C3.794,56.537 6.277,61.37 9.917,64.974 C12.844,67.871 16.449,68.906 18.146,69.251 C17.414,67.784 16.677,65.876 15.904,63.791 C7.746,57.4 7.559,50.504 7.483,47.551 C7.446,46.118 7.994,44.543 8.642,43.195 C8.402,43.451 8.195,43.677 8.096,43.795 C8.045,43.855 7.983,43.902 7.912,43.933 Z" id="Shape"></path>
                        <path d="M43.749,17.707 C43.572,20.418 43.26,22.391 42.929,24.082 C42.774,25.162 42.509,26.406 42.188,27.697 C41.587,30.804 39.759,35.928 39.174,37.53 L49.232,40.681 C50.785,37.399 51.918,33.29 53.219,26.259 C53.893,22.62 53.843,19.218 53.663,16.894 L43.933,13.445 C43.965,14.826 43.885,16.257 43.749,17.707 Z" id="Shape"></path>
                        <path d="M50.286,59.721 C50.381,59.041 50.434,58.478 50.466,58.137 C50.468,58.131 50.474,58.068 50.476,58.043 C50.46,54.966 48.33,52.857 47.417,51.955 C47.284,51.824 47.175,51.714 47.095,51.627 C46.65,51.146 46.279,50.878 45.979,50.663 C45.802,50.535 45.662,50.425 45.54,50.312 C45.537,50.31 45.533,50.311 45.53,50.309 C45.521,50.302 45.512,50.29 45.503,50.283 C45.498,50.278 45.488,50.272 45.483,50.267 C45.48,50.264 45.479,50.26 45.476,50.257 C44.867,49.73 44.252,48.277 43.456,46.287 L43.282,45.85 C42.851,44.78 42.927,43.958 43.072,43.437 C41.666,43.08 40.145,42.726 39.731,42.726 C39.608,42.803 39.578,43.244 39.639,43.57 C39.653,43.637 40.018,45.407 40.206,46.783 C40.303,47.492 40.105,48.17 39.65,48.691 C39.263,49.134 38.709,49.43 38.339,49.335 C38.195,49.312 37.979,49.299 37.737,49.299 C36.732,49.299 35.155,49.515 33.049,49.941 L32.932,49.965 C24.961,51.585 20.139,58.7 19.938,59.002 C19.565,59.56 19.208,60.023 18.604,60.023 C18.316,60.023 18.025,59.911 17.647,59.76 C17.149,61.338 16.729,63.067 16.834,63.431 C17.235,64.518 17.708,65.783 18.212,66.984 C17.869,61.73 21.713,55.948 28.25,52.636 C31.612,50.932 35.167,50.032 38.53,50.032 C43.442,50.032 47.222,51.932 48.9,55.244 C49.803,57.026 50.129,59.122 49.858,61.288 C50.023,60.797 50.168,60.275 50.286,59.721 Z M40.09,48.471 L40.298,47.496 L43.732,48.537 L43.975,49.62 L40.09,48.471 Z" id="Shape"></path>
                        <path d="M48.012,55.697 C46.509,52.733 43.055,51.032 38.533,51.032 C35.326,51.032 31.927,51.895 28.705,53.528 C21.098,57.383 17.315,64.7 20.095,70.187 C20.447,70.881 20.931,71.504 21.51,72.06 C21.595,72.14 21.679,72.217 21.757,72.287 C23.549,73.864 26.24,74.789 29.432,74.894 C29.558,74.896 29.678,74.899 29.81,74.899 C30.603,74.899 31.324,74.864 31.676,74.844 C34.456,74.612 37.276,73.807 39.923,72.467 C48.184,68.281 50.523,60.653 48.012,55.697 Z" id="Shape"></path>
                        <path d="M44.033,43.686 C43.935,44.025 43.87,44.631 44.21,45.477 L44.386,45.916 C44.612,46.481 44.888,47.17 45.166,47.798 L44.963,45.266 C44.883,44.265 44.587,43.902 44.491,43.809 C44.348,43.77 44.189,43.728 44.033,43.686 Z" id="Shape"></path>
                        <path d="M25.552,78.345 L26.286,78.945 L30.329,75.913 C30.23,75.914 30.131,75.922 30.032,75.922 C30.031,75.922 30.032,75.922 30.031,75.922 C29.84,75.922 29.661,75.9 29.472,75.895 C28.671,75.885 28.001,75.839 27.492,75.756 L25.033,77.78 L25.11,77.985 L25.552,78.345 Z" id="Shape"></path>
                        <path d="M48.788,41.591 L40.608,39.028 L38.799,38.461 L36.707,43.154 C36.701,43.265 36.681,43.444 36.638,43.644 C36.638,43.646 36.637,43.648 36.637,43.65 C36.546,44.07 36.337,44.583 35.873,44.828 C35.563,45.049 35.229,45.15 34.987,45.163 C34.947,45.167 28.95,45.758 24,49.259 C19.06,52.753 17.427,56.036 17.411,56.069 C17.19,56.731 16.872,58.389 17.515,58.634 L17.956,58.808 C18.244,58.924 18.493,59.024 18.606,59.024 C18.684,59.024 18.853,58.831 19.108,58.449 C19.319,58.133 24.365,50.688 32.737,48.987 L32.853,48.963 C35.668,48.393 37.565,48.19 38.546,48.359 C38.573,48.332 39.35,47.903 39.215,46.919 C39.032,45.578 38.662,43.783 38.658,43.765 C38.622,43.575 38.472,42.637 38.922,42.095 C39.121,41.854 39.401,41.727 39.731,41.727 C40.627,41.727 44.414,42.753 44.842,42.87 C45.08,42.978 45.819,43.433 45.959,45.187 L46.318,49.674 C46.389,49.731 46.47,49.788 46.562,49.853 C46.878,50.082 47.314,50.395 47.828,50.95 C47.9,51.029 48,51.127 48.12,51.246 C48.69,51.811 49.697,52.807 50.459,54.207 C49.995,51.348 48.573,49.578 47.775,48.583 C47.644,48.421 47.529,48.278 47.435,48.152 C46.329,46.677 47.041,45.139 47.071,45.075 L48.788,41.591 Z" id="Shape"></path>
                        <path d="M2.555,55.266 C2.168,55.807 1.701,55.944 1.348,55.962 C1.52,57.435 2.22,61.337 4.956,64.359 C8.556,68.335 10.342,70.306 16.594,71.611 C16.825,71.632 17.889,71.546 18.735,71.456 L18.915,70.619 C18.866,70.544 18.818,70.456 18.769,70.377 C17.637,70.226 12.962,69.397 9.214,65.686 C6.19,62.693 3.951,58.879 2.793,54.903 C2.724,55.017 2.647,55.137 2.555,55.266 Z" id="Shape"></path>
                        <path d="M14.17,24.519 C13.39,27.183 12.252,31.1 11.862,34.619 L12.246,34.234 C13.269,27.961 15.283,22.258 16.371,19.179 C16.577,18.597 16.751,18.104 16.882,17.714 C17.56,15.678 19.163,12.941 19.814,11.87 L19.783,11.853 C19.775,11.849 19.77,11.841 19.762,11.836 C19.755,11.832 19.746,11.832 19.74,11.827 L19.377,11.578 C18.458,13.597 15.252,20.704 14.608,23.007 C14.485,23.448 14.335,23.957 14.17,24.519 Z" id="Shape"></path>
                        <path d="M1.266,54.969 C1.393,54.969 1.561,54.937 1.742,54.684 C2.214,54.022 2.204,53.825 2.143,52.731 C2.122,52.334 2.094,51.841 2.086,51.2 C2.244,49.714 3.078,45.029 7.404,43.064 C7.576,42.867 7.874,42.548 8.186,42.218 C6.814,42.658 4.868,43.525 3.533,45.137 C1.308,47.824 0.76,51.592 0.644,52.683 C0.523,53.846 0.568,54.467 0.602,54.722 C0.765,54.832 1.026,54.969 1.266,54.969 Z" id="Shape"></path>
                        <path d="M18.676,85.413 L19.49,85.413 C20.218,84.499 23.301,80.672 25.043,79.222 L24.673,78.92 C23.83,79.563 21.307,81.65 18.676,85.413 Z" id="Shape"></path>
                        <path d="M29.211,1.942 C27.673,2.782 26.357,3.822 25.243,4.902 C27.398,3.048 30.01,1.042 33.433,1.289 C37.339,1.563 39.63,3.915 41.297,9.379 C41.424,9.53 41.53,9.65 41.626,9.752 L41.806,9.907 C41.832,9.889 41.855,9.874 41.883,9.855 C40.494,2.417 37.725,1.233 35.233,0.714 C35.035,0.673 34.832,0.642 34.625,0.621 C34.619,0.62 34.612,0.619 34.605,0.618 C34.394,0.597 34.179,0.586 33.962,0.586 C32.023,0.586 30.304,1.42 29.569,1.776 C29.408,1.856 29.286,1.914 29.211,1.942 Z" id="Shape"></path>
                        <path d="M42.986,9.301 C43.042,9.296 43.095,9.3 43.149,9.315 C43.165,9.319 43.181,9.313 43.196,9.319 L52.207,12.62 C51.944,11.27 51.284,8.593 49.958,7.053 C49.466,6.422 48.773,5.65 48.377,5.4 C48.116,5.258 43.689,3.291 39.588,1.909 C40.917,3.301 42.05,5.57 42.796,9.344 C42.819,9.335 42.845,9.323 42.866,9.316 C42.878,9.312 42.891,9.315 42.904,9.312 C42.931,9.302 42.958,9.302 42.986,9.301 Z" id="Shape"></path>
                        <path d="M15.506,85.394 C15.531,85.394 15.557,85.394 15.582,85.394 C15.952,85.394 16.327,85.4 16.588,85.405 C17.406,83.415 19.12,79.12 19.533,77.524 L18.835,77.184 C18.236,78.733 16.414,83.407 15.506,85.394 Z" id="Shape"></path>
                    </g>
                </g>
            </g>
        </g>
    </g>
</svg>