<svg xmlns="http://www.w3.org/2000/svg" width="66" height="67" viewBox="0 0 66 67">
    <g fill="#F5A623" fill-rule="nonzero" opacity=".5">
        <path d="M49.43.548a3.49 3.49 0 0 0-.26.137l-.146.087-.121.072L25.98 14.078a28.82 28.82 0 0 0-.963-1.623c-.248-.376-.74-.846-1.324-.937-.423-.063-.872.087-1.151.248l-.109.063c-.28.162-.634.475-.79.873-.214.551-.054 1.213.15 1.615.281.559.593 1.088.922 1.646L1.717 28.086c-.04.024-.08.045-.123.069l-.146.083a3.52 3.52 0 0 0-.251.157c-.781.551-1.034 1.526-.6 2.323.453.832 1.53 1.14 2.404.68.198-.104.41-.22.665-.367l.29-.169c.887 1.537 12.868 22.299 14.083 24.445.815 1.442 2.126 2.469 3.693 2.895a5.906 5.906 0 0 0 4.537-.598c.043-.025 12.16-7.056 12.886-7.472.29.488.56.947.79 1.424.005.008.006.018.01.027a1.646 1.646 0 0 0-.406 2.114l.024.04c.007.013.018.024.024.036.056.119.134.232.237.346.435.477.972.595 1.532.4.157-.036.312-.095.458-.18l1.311-.757-.007.04c-.041.217-.07.374-.11.524-.421 1.58-.845 3.16-1.267 4.74l-1.26 4.709c-.338 1.276.107 2.277 1.136 2.553.438.117.865.065 1.238-.15.48-.278.83-.794 1.02-1.497l.22-.826c.882-3.28 1.795-6.67 2.679-10.01.086-.326.133-.654.184-1.002.007-.055.017-.112.024-.17l.066.014.02-.063.16.064c.325.13.633.254.958.342 3.334.904 6.726 1.808 10.008 2.685l.826.222c.703.188 1.327.142 1.805-.134.373-.216.632-.56.75-.998.276-1.028-.368-1.916-1.644-2.26-1.57-.42-3.139-.844-4.708-1.263l-4.739-1.272c-.148-.04-.3-.094-.51-.168-.012-.003-.024-.01-.035-.013l1.31-.757c.147-.085.275-.189.385-.306.448-.389.616-.913.42-1.529a1.49 1.49 0 0 0-.181-.377c-.007-.012-.012-.026-.02-.038l-.023-.04a1.646 1.646 0 0 0-2.034-.707c-.004-.008-.012-.014-.017-.022-.3-.437-.562-.9-.84-1.396.724-.42 13.197-7.587 13.241-7.612a5.903 5.903 0 0 0 2.787-3.63c.414-1.57.18-3.22-.66-4.647-3.2-5.434-7.51-12.918-10.604-18.297-1.196-2.078-2.326-4.043-3.526-6.12l.293-.168c.253-.146.46-.272.65-.392.834-.527 1.108-1.614.611-2.422C51.27.416 50.3.146 49.431.548zM61.473 30.77c.673 1.165.399 2.177.03 2.39L25.004 54.234c-1.968 1.137-2.98.867-3.655-.298l-4.632-8.023.002-.001c-1.292-2.233-8.504-14.729-9.697-16.794l40.12-23.163c4.43 7.67 9.904 17.146 14.33 24.817z"/>
        <path d="M13.978 34.604l13.426-7.751 1.293 2.24-13.426 7.752zM25.703 36.657l5.552-3.206 1.289 2.233-5.552 3.205zM21.273 47.166l9.581-5.532 1.294 2.24-9.582 5.532zM17.798 41.22l4.44-2.563 1.289 2.233-4.44 2.563zM44.587 22.233l2.882-5.742c-4.84-2.017-10.433-.246-13.242 4.141l5.785 2.904a4.427 4.427 0 0 1 4.575-1.303zM52.982 31.32c.384-.764.67-1.554.859-2.352l-6.456-.75a4.423 4.423 0 0 1-8.243-3.191l-5.727-2.873c-2.284 5.227-.1 11.387 5.06 13.978 5.334 2.677 11.829.523 14.507-4.812zM54.104 27.263a10.813 10.813 0 0 0-5.099-9.986l-2.892 5.763a4.424 4.424 0 0 1 1.632 3.484l6.359.739zm-6.636-4.451l1.951-3.887a9.644 9.644 0 0 1 3.596 7.095l-4.243-.492a5.588 5.588 0 0 0-1.304-2.716z"/>
    </g>
</svg>
