<svg xmlns="http://www.w3.org/2000/svg" width="90" height="80" viewBox="0 0 90 80">
    <g fill="#F5A623" fill-rule="nonzero" opacity=".5">
        <g transform="rotate(14 17.995 65.005)">
            <ellipse cx="14.539" cy="36.802" rx="1.061" ry="1.037"/>
            <ellipse cx="12.591" cy="8.298" rx="1.591" ry="1.556"/>
            <ellipse cx="13.358" cy="1.556" rx="1.591" ry="1.556"/>
            <ellipse cx="17.071" cy="5.302" rx="1.591" ry="1.556"/>
            <path d="M28.791 63.984l-5.175-22.826h3.512v-2.535h-2.64c.303-.965.468-1.99.468-3.053 0-4.515-2.955-8.344-7.073-9.77V13.787h1.437v-2.27H9.373v2.27h1.437v12.011c-4.117 1.426-7.073 5.256-7.073 9.77 0 1.063.165 2.089.469 3.054H1.665v2.535h3.513L0 63.984l2.532.549 4.806-21.191a10.696 10.696 0 0 0 7.009 2.6c2.729 0 5.21-1.017 7.09-2.673l4.823 21.264 2.531-.549zM14.54 29.282a1.05 1.05 0 0 1 1.06 1.037 1.05 1.05 0 0 1-1.06 1.037 1.05 1.05 0 0 1-1.061-1.037 1.05 1.05 0 0 1 1.06-1.037zm-4.863 1.145c.83 0 1.503.658 1.503 1.47 0 .81-.673 1.469-1.503 1.469-.83 0-1.503-.66-1.503-1.47 0-.811.673-1.47 1.503-1.47zM4.8 35.569c4.369 0 19.096-3.94 19.096 0a9.077 9.077 0 0 1-.536 3.055h-2.328c.289-.311.47-.72.47-1.174 0-.967-.801-1.75-1.79-1.75s-1.79.784-1.79 1.75c0 .453.18.863.47 1.174h-6.62a1.804 1.804 0 0 0-1.277-.526c-.501 0-.953.202-1.278.526H5.335a9.115 9.115 0 0 1-.536-3.055zm9.548 9.335a9.626 9.626 0 0 1-6.744-2.734l.23-1.011h1.484a1.796 1.796 0 0 0 2.353 0h3.37a1.013 1.013 0 0 0-.103.44 1.05 1.05 0 0 0 1.061 1.038 1.05 1.05 0 0 0 1.061-1.038c0-.158-.04-.306-.103-.44h4.004l.21.928a9.628 9.628 0 0 1-6.823 2.817z"/>
            <path d="M6.881 64.612h15.031c0-2.005-2.808-3.658-6.454-3.932v-6.267h-2.122v6.267c-3.649.273-6.455 1.927-6.455 3.932z"/>
            <ellipse cx="14.397" cy="49.745" rx="1.503" ry="3.544"/>
        </g>
        <path d="M57.037 49.623l3.083.769-.749 3.002-3.083-.769zM69.538 52.74l3.083.769-.749 3.002-3.082-.769zM39.938 45.36l7.681 1.915-.748 3.002-7.681-1.915zM82.039 55.857l7.681 1.915-.748 3.002-7.682-1.915zM66.004 66.915l3.083.769-.749 3.002-3.082-.769zM36.404 59.535l7.681 1.915-.748 3.002-7.681-1.915zM78.504 70.032l7.682 1.915-.748 3.002-7.682-1.915zM53.503 63.798l3.082.769-.748 3.002-3.083-.769zM56.976 44.14l1.345.336.416-1.668-9.418-2.348-.416 1.668 1.345.335-6.57 26.35c-.459 1.842.675 3.71 2.533 4.174 1.857.463 3.736-.654 4.195-2.497l6.57-26.35zM49.06 70.156a2.074 2.074 0 0 1-2.517 1.498 2.074 2.074 0 0 1-1.52-2.505l3.66-14.676 4.036 1.007-3.659 14.676zM69.477 47.257l1.345.336.416-1.668-9.418-2.348-.416 1.668 1.345.335-6.57 26.35c-.459 1.842.675 3.71 2.533 4.174 1.857.463 3.736-.655 4.195-2.497l6.57-26.35zM61.56 73.271a2.074 2.074 0 0 1-2.517 1.498 2.074 2.074 0 0 1-1.52-2.504l1.96-7.86 4.037 1.005-1.96 7.861zM81.978 50.374l1.345.336.416-1.668-9.419-2.348-.415 1.667 1.345.336-6.57 26.35c-.459 1.842.675 3.71 2.533 4.173 1.857.464 3.735-.654 4.195-2.496l6.57-26.35zm-7.916 26.014a2.074 2.074 0 0 1-2.517 1.498 2.074 2.074 0 0 1-1.52-2.504l2.792-11.197 4.036 1.007-2.791 11.196z"/>
    </g>
</svg>
