<svg xmlns="http://www.w3.org/2000/svg" width="25" height="55" viewBox="0 0 25 55">
    <path fill="#F49C20" fill-rule="nonzero" d="M12 10a5 5 0 1 0 0-10 5 5 0 0 0 0 10zM2.095 34.504c-1.036 0-2.083-.555-2.095-1.688l.023-15.748C-.087 14.528 1.344 13 3.578 13h3.828c.57 0 1.083.326 1.321.835l1.972 4.229.838 1.802c.117.252.36.378.6.378a.653.653 0 0 0 .599-.378l.837-1.802 1.973-4.229c.238-.509.75-.835 1.32-.835h3.829c2.234 0 3.665 1.528 3.555 4.068l.023 15.748c0 .686-.39 1.167-.931 1.43v2.008h.523c.629 0 1.135.498 1.135 1.116v9.442c0 .618-.506 1.116-1.135 1.116h-3.374a1.123 1.123 0 0 1-1.134-1.116V37.37c0-.618.506-1.116 1.134-1.116h.524V34.23c-.5-.258-.856-.698-.856-1.328l-.023-12.485-1.658-.012-.052 32.17c0 1.62-1.39 2.426-2.781 2.426-1.397 0-2.793-.813-2.793-2.438V36.655h-1.42v15.907c0 1.625-1.396 2.438-2.792 2.438-1.39 0-2.781-.813-2.781-2.426l-.053-32.17-1.658-.005-.023 12.508c0 1.059-1.012 1.597-2.03 1.597zM13.544 13c.336 0 .553.36.412.671l-1.048 2.284.478 1.037L12.501 19l-.885-2.008.478-1.037-1.048-2.284c-.147-.31.076-.671.407-.671h2.09z"/>
</svg>
