<svg xmlns="http://www.w3.org/2000/svg" width="73" height="58" viewBox="0 0 73 58">
    <g fill="#F5A623" fill-rule="nonzero">
        <path d="M61.416 31.17H58.81v5.087c0 .843-.553 1.47-1.391 1.92v5.46h.177v1.478h1.864V36.96h1.11v-3.966h.846c.51 0 .924-.408.924-.912a.919.919 0 0 0-.924-.912zM34.32 31.17h-.558v5.044c0 .253-.05.483-.131.698h.82a1.933 1.933 0 0 1-.13-.698V31.17zM46.624 31.17h-.558v5.044c0 .253-.05.483-.131.698h.82a1.933 1.933 0 0 1-.13-.698V31.17zM71.478 26.259a.834.834 0 0 0-.957.679l-1.63 10.088h-6.535a.827.827 0 0 0-.836.817c0 .45.374.817.836.817v-.001h3.306v5.848h-3.314v1.428h7.771v-1.428h-3.314v-5.848h2.8a.83.83 0 0 0 .826-.689l1.742-10.778a.818.818 0 0 0-.695-.933zM33.63 30.257c0-2.192-1.426-4.065-3.442-4.829a53.24 53.24 0 0 1 .14 3.882c0 1.438-.05 2.994-.15 4.625-.107 1.753-1.636 3.126-3.48 3.126a3.555 3.555 0 0 1-2.09-.66V37.6c.788.25 1.75.403 2.752.456v5.516h-2.752v1.543h7.818v-1.543h-3.445v-5.516c2.435-.129 4.65-.839 4.65-2.131v-5.668zM45.115 29.921c0-2.934-2.388-5.313-5.332-5.313s-5.332 2.379-5.332 5.313v5.796c0 1.322 2.164 2.048 4.54 2.18v5.64h-3.363v1.578h8.31v-1.578h-3.363v-5.64c2.377-.132 4.54-.858 4.54-2.18v-5.796z"/>
        <path d="M53.699 37.896c2.377-.131 4.54-.857 4.54-2.179v-5.796c0-2.934-2.387-5.313-5.332-5.313s-5.332 2.379-5.332 5.313v5.796c0 1.322 2.163 2.048 4.54 2.18v5.64h-3.363v1.578h8.31v-1.578H53.7v-5.64zM9.208 54.428a2.994 2.994 0 0 0 2.998 2.99 2.994 2.994 0 0 0 2.997-2.99V32.589h1.124v21.839a2.994 2.994 0 0 0 2.997 2.99 2.994 2.994 0 0 0 2.998-2.99V18.149c.144.295.289.632.432 1.026.683 1.89 1.258 4.99 1.256 9.83a75.7 75.7 0 0 1-.137 4.41 1.936 1.936 0 0 0 1.938 2.047c1.02 0 1.875-.793 1.935-1.822.097-1.677.143-3.217.143-4.634-.01-7.301-1.178-11.343-2.772-13.773-.797-1.207-1.728-1.98-2.589-2.409-.829-.416-1.557-.51-1.994-.516-.029-.001-.057-.004-.086-.004h-9.366c-.026 0-.052.003-.078.004a4.492 4.492 0 0 0-1.702.377 5.652 5.652 0 0 0-1.5.949c-.66.57-1.31 1.355-1.865 2.394-.991 1.84-1.759 4.459-2.105 8.326v.005a46.713 46.713 0 0 0-.127 1.885 58.602 58.602 0 0 0-.064 2.763c0 1.416.046 2.956.145 4.633a1.937 1.937 0 0 0 2.049 1.82 1.937 1.937 0 0 0 1.823-2.046 75.048 75.048 0 0 1-.138-4.408c0-1.088.03-2.086.082-3.004.025-.452.056-.885.093-1.298l.001-.008c.018-.204.038-.4.058-.595.306-2.92.886-4.793 1.455-5.958v7.366l-1.136.767c-.015.296-.027.596-.037.902l1.104-.746 4.35 6.41-8.13 5.494-4.35-6.41 2.164-1.461a76.43 76.43 0 0 1-.013-.869L0 31.733l5.166 7.612 2.588-1.749 1.454-.983v17.815zm5.636-40.144h1.842l.461 1.814-.07.11a2.048 2.048 0 0 1-2.623.002l-.07-.112.46-1.814zm-.055 2.946c.314.118.645.18.976.179h.002c.33 0 .66-.061.974-.179l1.328 9.755-2.304 2.903-2.303-2.903 1.327-9.755zM16.865 10.592a5.332 5.332 0 1 0-1.74-10.52 5.332 5.332 0 0 0 1.74 10.52z"/>
        <path d="M8.507 29.389l.82-.573 2.82 4.033-.82.573zM8.203 31.99c.011.3.024.6.04.906l1.17 1.555.43-.28-1.64-2.18zM59.06 22.967V5.742H29.53v17.225h29.53zM30.251 6.482h28.085v14.479H30.252V6.482z"/>
        <path d="M56.671 8.203a.753.753 0 0 0-.746.759c0 .026.004.05.007.074l-6.005 2.834a.738.738 0 0 0-.536-.23.753.753 0 0 0-.641 1.14l-4.543 5.44a.732.732 0 0 0-.678.074l-3.663-2.851a.753.753 0 0 0-.707-.995.753.753 0 0 0-.723.94l-4.425 2.94a.732.732 0 0 0-.453-.16.753.753 0 0 0-.747.759c0 .42.334.76.747.76a.753.753 0 0 0 .722-.942l4.425-2.939a.733.733 0 0 0 .865.034l3.663 2.852a.753.753 0 0 0 .706.995.753.753 0 0 0 .641-1.144l4.542-5.438a.733.733 0 0 0 .27.053c.413 0 .746-.34.746-.76 0-.026-.004-.05-.007-.075l6.005-2.834a.738.738 0 0 0 .536.232c.412 0 .747-.34.747-.76 0-.418-.335-.758-.748-.758z"/>
    </g>
</svg>
