<?xml version="1.0" encoding="UTF-8"?>
<svg width="58px" height="51px" viewBox="0 0 58 51" version="1.1" xmlns="http://www.w3.org/2000/svg" xmlns:xlink="http://www.w3.org/1999/xlink">
    <!-- Generator: sketchtool 47.1 (45422) - http://www.bohemiancoding.com/sketch -->
    <title>3CD5D58C-293E-4D55-BD2D-BF2F84F3BD28</title>
    <desc>Created with sketchtool.</desc>
    <defs></defs>
    <g id="Home-page-Copy" stroke="none" stroke-width="1" fill="none" fill-rule="evenodd" opacity="0.5">
        <g id="Home-page1" transform="translate(-162.000000, -1033.000000)" fill-rule="nonzero" fill="#320161">
            <g id="Group-10" transform="translate(0.000000, 922.000000)">
                <g id="Group-74" transform="translate(630.000000, 249.500000) scale(-1, 1) translate(-630.000000, -249.500000) translate(157.000000, 54.000000)">
                    <g id="Group" transform="translate(914.000000, 81.917694) rotate(20.000000) translate(-914.000000, -81.917694) translate(887.500000, 62.917694)">
                        <path d="M31.3505745,34.3063675 L31.3505745,34.3063675 C31.3505745,34.8717159 30.8895366,35.2828784 30.2556095,35.2828784 L22.3027065,35.2828784 C21.7264091,35.2828784 21.2077415,34.8717159 21.2077415,34.3063675 L21.2077415,34.3063675 C21.2077415,34.1521816 21.0348523,33.9979957 20.8619632,33.9979957 L0.345778395,33.9979957 C0.172889197,33.9979957 0,34.1521816 0,34.3063675 L0,35.2828784 C0,35.2828784 0,37.2359001 2.18992983,37.2359001 L50.4260159,37.2359001 C52.6159457,37.2359001 52.6159457,35.2828784 52.6159457,35.2828784 L52.6159457,34.3063675 C52.6159457,34.1521816 52.4430565,33.9979957 52.2701673,33.9979957 L31.6963529,33.9979957 C31.4658339,33.9979957 31.3505745,34.1521816 31.3505745,34.3063675 Z" id="Shape"></path>
                        <path d="M46.4051318,0 L6.21081398,0 C5.01523229,0 4.04738044,0.958361869 4.04738044,2.14222065 L4.04738044,2.87508561 L4.04738044,29.4273468 C4.04738044,30.6112056 5.01523229,31.5695674 6.21081398,31.5695674 L6.95093598,31.5695674 L45.6650098,31.5695674 L46.4051318,31.5695674 C47.6007134,31.5695674 48.5685653,30.6112056 48.5685653,29.4273468 L48.5685653,2.81871138 L48.5685653,2.08584642 C48.5116328,0.958361869 47.6007134,0 46.4051318,0 Z M45.6650098,28.6381076 L6.95093598,28.6381076 L6.95093598,2.81871138 L45.6650098,2.81871138 L45.6650098,28.6381076 Z" id="Shape"></path>
                        <circle id="Oval" cx="9.71371306" cy="26.7127109" r="1.61895218"></circle>
                        <g transform="translate(11.332665, 23.474807)" id="Oval">
                            <ellipse cx="1.80833903" cy="3.39979957" rx="1.46927547" ry="1.40309189"></ellipse>
                            <ellipse cx="5.70757008" cy="3.12997421" rx="1.75182844" ry="1.67291725"></ellipse>
                            <ellipse cx="10.0588859" cy="2.80618377" rx="2.09089201" ry="1.99670768"></ellipse>
                            <ellipse cx="14.918797" cy="2.48239334" rx="2.42995558" ry="2.32049812"></ellipse>
                            <ellipse cx="19.7787082" cy="2.80618377" rx="2.09089201" ry="1.99670768"></ellipse>
                            <ellipse cx="24.1865346" cy="3.12997421" rx="1.75182844" ry="1.67291725"></ellipse>
                            <ellipse cx="28.0857656" cy="3.39979957" rx="1.46927547" ry="1.40309189"></ellipse>
                        </g>
                        <circle id="Oval" cx="43.7117088" cy="26.7127109" r="1.61895218"></circle>
                    </g>
                </g>
            </g>
        </g>
    </g>
</svg>