<svg xmlns="http://www.w3.org/2000/svg" width="33" height="32" viewBox="0 0 33 32">
    <path fill="#3293F6" fill-rule="evenodd" d="M.922 16c0 8.836 7.163 16 16 16s16-7.164 16-16c0-8.837-7.163-16-16-16s-16 7.163-16 16zm23.738 1.174v5.79h-3.357v-5.402c0-1.357-.485-2.283-1.7-2.283-.928 0-1.48.624-1.722 1.228-.089.216-.112.516-.112.818v5.639h-3.357s.045-9.15 0-10.097h3.357v1.431c-.007.01-.016.022-.022.033h.022v-.033c.446-.687 1.243-1.668 3.026-1.668 2.209 0 3.865 1.443 3.865 4.544zM10.9 8C9.75 8 9 8.753 9 9.744c0 .97.73 1.746 1.855 1.746h.023c1.17 0 1.899-.777 1.899-1.746C12.755 8.754 12.049 8 10.9 8zM9.2 22.964h3.356V12.867H9.199v10.097z"/>
</svg>
