<svg xmlns="http://www.w3.org/2000/svg" width="32" height="32" viewBox="0 0 32 32">
    <path fill="#3293F6" fill-rule="evenodd" d="M16 0C7.163 0 0 7.163 0 16c0 8.836 7.163 16 16 16s16-7.164 16-16c0-8.837-7.163-16-16-16zm-3.093 11.8v11.606a.704.704 0 0 1-.124.42.416.416 0 0 1-.36.174.722.722 0 0 1-.327-.08l-4.601-2.305a.841.841 0 0 1-.352-.331.872.872 0 0 1-.143-.46V9.544c0-.132.033-.244.099-.336a.33.33 0 0 1 .287-.139c.092 0 .237.05.435.149l5.056 2.533c.02.02.03.036.03.05zm.633 1l5.284 8.568-5.284-2.632V12.8zm11.19.178v10.428a.575.575 0 0 1-.138.401.481.481 0 0 1-.376.153.935.935 0 0 1-.465-.128l-4.363-2.177 5.343-8.677zm-.029-1.188c0 .02-.846 1.404-2.538 4.151a3549.734 3549.734 0 0 1-2.973 4.824l-3.859-6.274 3.206-5.214A.56.56 0 0 1 19.05 9c.093 0 .179.02.258.06l5.353 2.67c.026.014.04.034.04.06z"/>
</svg>
