<svg xmlns="http://www.w3.org/2000/svg" width="18" height="15" viewBox="0 0 18 15">
    <g fill="#FFF" fill-rule="nonzero">
        <path d="M16.521 12.273H1.443c-.794 0-1.443.613-1.443 1.363S.65 15 1.443 15h15.114c.794 0 1.443-.614 1.443-1.364 0-.75-.685-1.363-1.479-1.363zM16.521 6.136H1.443C.649 6.136 0 6.75 0 7.5c0 .75.65 1.364 1.443 1.364h15.114C17.351 8.864 18 8.25 18 7.5c0-.75-.685-1.364-1.479-1.364zM16.521 0H1.443C.649 0 0 .614 0 1.364c0 .75.65 1.363 1.443 1.363h15.114c.794 0 1.443-.613 1.443-1.363S17.315 0 16.521 0z"/>
    </g>
</svg>
