<svg xmlns="http://www.w3.org/2000/svg" width="48" height="53" viewBox="0 0 48 53">
    <path fill="#320161" fill-rule="nonzero" d="M45.315 8.328L17.263.285c-1.274-.366-2.601.36-2.963 1.62l-.294 1.028 4.37 1.253c1.096.314 1.735 1.452 1.424 2.537-.31 1.084-1.456 1.711-2.553 1.397l-4.37-1.253-.251.878 4.37 1.253c1.096.315 1.735 1.453 1.424 2.538-.31 1.085-1.456 1.711-2.553 1.397l-4.37-1.253-.251.879 4.37 1.253c1.096.314 1.735 1.452 1.424 2.537-.31 1.085-1.456 1.712-2.553 1.397l-4.37-1.253-.252.879 4.37 1.253c1.097.314 1.736 1.453 1.425 2.537-.311 1.085-1.456 1.712-2.553 1.397l-4.37-1.253-.252.88 4.37 1.252c1.096.315 1.736 1.453 1.425 2.538-.311 1.085-1.457 1.711-2.553 1.397l-4.37-1.253-.252.878 4.37 1.253c1.096.315 1.736 1.453 1.424 2.538-.31 1.085-1.456 1.711-2.552 1.397l-4.37-1.253-.252.879 4.37 1.253c1.096.314 1.735 1.453 1.424 2.537-.31 1.085-1.456 1.712-2.553 1.397l-4.37-1.253-.251.88 4.37 1.252c1.096.315 1.735 1.453 1.424 2.537-.311 1.086-1.456 1.712-2.553 1.397l-4.37-1.253-.286.999c-.361 1.261.38 2.58 1.654 2.945l28.051 8.043c1.275.366 2.602-.36 2.963-1.62l11.37-39.653c.362-1.26-.379-2.58-1.653-2.945zM36.982 29.44l-18.016-5.166 3.322-11.583 18.015 5.166-3.321 11.583zM10.543 4.07a1.38 1.38 0 0 1 1.711-.937l5.936 1.702a1.38 1.38 0 0 1 .955 1.701 1.38 1.38 0 0 1-1.711.937L11.498 5.77a1.38 1.38 0 0 1-.955-1.701zm-1.38 4.813a1.38 1.38 0 0 1 1.711-.936l5.936 1.702a1.38 1.38 0 0 1 .955 1.7 1.38 1.38 0 0 1-1.711.937l-5.936-1.702a1.38 1.38 0 0 1-.955-1.701zm-1.38 4.813a1.38 1.38 0 0 1 1.711-.936l5.936 1.702a1.38 1.38 0 0 1 .955 1.7 1.38 1.38 0 0 1-1.712.937l-5.935-1.702a1.379 1.379 0 0 1-.955-1.7zm-1.38 4.813a1.38 1.38 0 0 1 1.71-.936l5.937 1.702a1.38 1.38 0 0 1 .954 1.7 1.38 1.38 0 0 1-1.71.938L7.356 20.21a1.38 1.38 0 0 1-.954-1.702zm-1.38 4.814a1.38 1.38 0 0 1 1.71-.936l5.936 1.702a1.38 1.38 0 0 1 .955 1.7 1.38 1.38 0 0 1-1.711.937l-5.936-1.702a1.38 1.38 0 0 1-.955-1.701zm-1.38 4.813a1.38 1.38 0 0 1 1.71-.936L11.29 28.9a1.38 1.38 0 0 1 .955 1.7 1.38 1.38 0 0 1-1.711.937l-5.936-1.702a1.38 1.38 0 0 1-.955-1.7zm-1.38 4.813a1.38 1.38 0 0 1 1.71-.936l5.936 1.702a1.38 1.38 0 0 1 .955 1.7 1.38 1.38 0 0 1-1.711.937L3.217 34.65a1.38 1.38 0 0 1-.955-1.7zm5.51 8.217l-5.936-1.702a1.38 1.38 0 0 1-.955-1.702 1.38 1.38 0 0 1 1.711-.936l5.936 1.702a1.38 1.38 0 0 1 .955 1.701 1.38 1.38 0 0 1-1.712.937zM37.06 21.193l-13.87-3.977.214-.751 13.871 3.977-.215.751zm-1.39 4.846l-13.87-3.977.215-.75 13.87 3.977-.214.75z" opacity=".5"/>
</svg>
