<?xml version="1.0" encoding="UTF-8"?>
<svg width="56px" height="60px" viewBox="0 0 56 60" version="1.1" xmlns="http://www.w3.org/2000/svg" xmlns:xlink="http://www.w3.org/1999/xlink">
    <!-- Generator: sketchtool 47.1 (45422) - http://www.bohemiancoding.com/sketch -->
    <title>3B723A16-36DB-44DE-AC01-BA4DD44BAAEF</title>
    <desc>Created with sketchtool.</desc>
    <defs></defs>
    <g id="Home-page-Copy" stroke="none" stroke-width="1" fill="none" fill-rule="evenodd" opacity="0.5">
        <g id="Home-page1" transform="translate(-212.000000, -2401.000000)">
            <g id="food" transform="translate(0.000000, 1962.000000)">
                <g id="Group-79" transform="translate(192.000000, 23.000000)">
                    <g id="Group" transform="translate(20.000000, 416.000000)">
                        <path d="M47.502,33.888 C47.03,33.1446667 45.3386667,32.806 45.9453333,33.888 C46.42,34.7 48.176,35.0386667 47.502,33.888 Z" id="Shape"></path>
                        <path d="M8.402,40.0446667 C8.808,40.788 10.5686667,41.2613333 9.89466667,40.0446667 C9.48866667,39.3693333 7.728,38.894 8.402,40.0446667 Z" id="Shape"></path>
                        <path d="M19.636,35.1066667 C20.716,34.4986667 21.0513333,33.076 20.4446667,31.996 C19.7706667,30.778 18.3486667,30.4393333 17.2686667,31.0473333 C16.118,31.792 15.776,33.1446667 16.3873333,34.296 C16.9973333,35.376 18.4833333,35.8493333 19.636,35.1066667 Z" id="Shape"></path>
                        <path d="M42.4313333,29.898 C42.0253333,29.6286667 41.7493333,29.29 41.3446667,29.02 C41.21,28.7473333 40.6673333,28.274 40.2626667,28.6793333 C39.9933333,28.8813333 40.4666667,29.424 40.738,29.6953333 C41.0753333,30.1686667 41.614,30.506 42.0893333,30.912 C42.3606667,31.0466667 42.9,31.4526667 43.1053333,30.9793333 C43.1713333,30.6413333 42.7013333,30.1006667 42.4313333,29.898 Z" id="Shape"></path>
                        <path d="M44.1186667,39.6386667 C44.528,40.4493333 46.2853333,40.788 45.608,39.6386667 C45.1326667,38.8253333 43.4413333,38.4206667 44.1186667,39.6386667 Z" id="Shape"></path>
                        <path d="M43.7126667,34.5653333 C42.9713333,34.9713333 42.7013333,35.918 43.172,36.6633333 C43.578,37.4733333 44.528,37.61 45.204,37.2713333 C46.016,36.798 46.286,35.8493333 45.88,35.106 C45.4026667,34.4306667 44.4573333,34.1593333 43.7126667,34.5653333 Z" id="Shape"></path>
                        <path d="M25.1806667,51.8146667 C24.37,51.8146667 23.1486667,53.0986667 24.5046667,53.0986667 C25.2466667,53.0986667 26.5326667,51.8146667 25.1806667,51.8146667 Z" id="Shape"></path>
                        <path d="M24.9113333,45.658 C24.8406667,45.186 24.096,45.3886667 23.8266667,45.456 C23.2186667,45.5233333 22.61,45.7273333 22.0673333,45.9966667 C21.798,46.064 21.122,46.47 21.528,46.8106667 C21.7973333,47.08 22.4093333,47.0126667 22.7426667,46.8106667 C23.218,46.6033333 23.5546667,46.538 24.03,46.3353333 C24.3,46.3346667 25.048,45.996 24.9113333,45.658 Z" id="Shape"></path>
                        <path d="M13.004,35.4433333 C13.4086667,35.7146667 13.68,35.984 14.0186667,36.39 C14.224,36.5266667 14.7646667,37.0013333 15.102,36.7306667 C15.3713333,36.458 14.9653333,35.8493333 14.696,35.6473333 C14.288,35.2426667 13.7493333,34.768 13.3426667,34.4306667 C13.0733333,34.2953333 12.534,33.888 12.328,34.2953333 C12.262,34.7673333 12.734,35.31 13.004,35.4433333 Z" id="Shape"></path>
                        <path d="M11.72,30.778 C12.4633333,30.372 12.7346667,29.4246667 12.2626667,28.68 C11.7873333,27.9353333 10.9066667,27.6653333 10.1666667,28.1393333 C9.35266667,28.544 9.22,29.4253333 9.55333333,30.2373333 C10.03,30.98 10.9753333,31.2493333 11.72,30.778 Z" id="Shape"></path>
                        <path d="M11.2466667,25.704 C10.9066667,24.9593333 9.08333333,24.622 9.82466667,25.7713333 C10.2993333,26.518 11.9913333,26.8553333 11.2466667,25.704 Z" id="Shape"></path>
                        <path d="M36.2746667,9.402 C35.2573333,9.402 34.5173333,10.214 34.5173333,11.2266667 C34.5173333,12.108 35.2573333,12.92 36.2746667,12.92 C37.22,12.92 38.0306667,12.108 38.0306667,11.2266667 C38.0306667,10.2146667 37.22,9.402 36.2746667,9.402 Z" id="Shape"></path>
                        <path d="M31.9426667,16.166 C32.0793333,16.7086667 32.8893333,16.506 33.1593333,16.4386667 C33.9053333,16.2333333 34.652,16.0306667 35.2573333,15.76 C35.5266667,15.6253333 36.2746667,15.2206667 35.8686667,14.882 C35.5266667,14.5453333 34.7866667,14.7473333 34.3806667,14.882 C33.9053333,15.084 33.4306667,15.2206667 32.8893333,15.3553333 C32.6893333,15.4226667 31.8786667,15.692 31.9426667,16.166 Z" id="Shape"></path>
                        <path d="M33.636,18.872 C32.214,18.872 30.9286667,20.0226667 30.9286667,21.5793333 C30.9286667,22.998 32.214,24.1493333 33.636,24.1493333 C35.0566667,24.1493333 36.2746667,22.9986667 36.2746667,21.5793333 C36.2746667,20.0226667 35.0566667,18.872 33.636,18.872 Z" id="Shape"></path>
                        <path d="M23.4893333,43.29 C24.7766667,43.29 25.8566667,42.208 25.8566667,40.99 C25.8566667,39.6386667 24.7766667,38.6226667 23.4893333,38.6226667 C22.138,38.6226667 21.122,39.6386667 21.122,40.99 C21.122,42.2086667 22.138,43.29 23.4893333,43.29 Z" id="Shape"></path>
                        <path d="M31.6733333,9.20133333 C32.6893333,9.20133333 33.972,7.77933333 32.4853333,7.77933333 C31.604,7.77933333 30.118,9.20133333 31.6733333,9.20133333 Z" id="Shape"></path>
                        <path d="M41.21,12.108 C40.1973333,12.108 38.8426667,13.6613333 40.398,13.6613333 C41.3453333,13.662 42.7013333,12.108 41.21,12.108 Z" id="Shape"></path>
                        <path d="M39.658,34.9713333 C40.128,35.6473333 41.82,35.984 41.21,34.8353333 C40.738,34.1593333 38.976,33.752 39.658,34.9713333 Z" id="Shape"></path>
                        <path d="M46.8246667,30.98 C47.5706667,30.6413333 47.8406667,29.6286667 47.3673333,28.882 C47.096,28.4773333 45.1333333,27.1933333 44.594,27.126 C43.4413333,27.126 44.0513333,29.3566667 44.7286667,30.4386667 C45.1326667,31.182 46.1506667,31.4533333 46.8246667,30.98 Z" id="Shape"></path>
                        <path d="M41.0093333,32.1306667 C40.398,31.0473333 36.9486667,29.5613333 35.798,30.1693333 C34.718,30.7773333 34.3806667,32.2653333 34.9873333,33.4146667 C35.5973333,34.498 37.0853333,34.8353333 38.1653333,34.2286667 C39.316,33.6166667 41.6146667,33.3473333 41.0093333,32.1306667 Z" id="Shape"></path>
                        <path d="M47.03,25.298 C46.5546667,24.4873333 44.8633333,24.1486667 45.4733333,25.298 C45.9446667,26.0426667 47.6366667,26.518 47.03,25.298 Z" id="Shape"></path>
                        <path d="M45.744,17.2493333 C44.7986667,17.2493333 43.4406667,18.7353333 44.9333333,18.7353333 C45.8793333,18.7353333 47.2306667,17.2493333 45.744,17.2493333 Z" id="Shape"></path>
                        <path d="M7.998,36.458 C8.47333333,37.2026667 9.35266667,37.474 10.096,37.002 C10.9066667,36.5273333 11.112,35.6473333 10.706,34.972 C10.3,34.16 9.284,33.956 8.53933333,34.296 C7.86266667,34.7673333 7.59333333,35.7146667 7.998,36.458 Z" id="Shape"></path>
                        <path d="M31.604,42.48 C32.6886667,43.088 34.106,42.7513333 34.718,41.6693333 C35.4626667,40.5166667 31.6733333,37.7446667 30.5913333,37.0693333 C27.8853333,35.58 28.9,40.99 31.604,42.48 Z" id="Shape"></path>
                        <path d="M32.5546667,45.4553333 C32.89,44.6433333 32.42,42.9533333 31.7426667,44.1006667 C31.3346667,44.9146667 31.8786667,46.6033333 32.5546667,45.4553333 Z" id="Shape"></path>
                        <path d="M29.8466667,50.3926667 C29.4406667,51.1373333 30.052,52.8293333 30.6573333,51.6766667 C31.134,50.866 30.5913333,49.2446667 29.8466667,50.3926667 Z" id="Shape"></path>
                        <path d="M17.268,19.01 C17.738,18.3313333 17.4686667,17.3186667 16.7253333,16.98 C15.91,16.5066667 15.0353333,16.776 14.5586667,17.5193333 C14.154,18.1953333 14.424,19.2113333 15.1013333,19.686 C15.9106667,20.0226667 16.862,19.7526667 17.268,19.01 Z" id="Shape"></path>
                        <path d="M21.528,26.8553333 C22.61,27.5986667 24.03,27.1266667 24.64,26.0433333 C25.3813333,24.8926667 24.9113333,23.5393333 23.826,22.7966667 C22.7426667,22.188 21.322,22.5926667 20.7153333,23.6746667 C19.9713333,24.7586667 20.4446667,26.2433333 21.528,26.8553333 Z" id="Shape"></path>
                        <path d="M19.636,16.2333333 C20.042,15.4226667 19.4993333,13.7986667 18.8206667,15.0166667 C18.4833333,15.692 19.024,17.384 19.636,16.2333333 Z" id="Shape"></path>
                        <path d="M34.1066667,47.5533333 C33.3653333,47.08 32.42,47.3493333 31.9433333,48.094 C31.6046667,48.77 31.7426667,49.786 32.5546667,50.1226667 C33.296,50.596 34.2466667,50.3246667 34.6526667,49.582 C35.0566667,48.8373333 34.7866667,47.89 34.1066667,47.5533333 Z" id="Shape"></path>
                        <path d="M40.2633333,45.7266667 C39.4526667,45.2533333 38.5713333,45.5226667 38.1653333,46.266 C37.6953333,47.08 37.9646667,47.958 38.706,48.4313333 C39.452,48.8373333 40.398,48.566 40.804,47.8906667 C41.2793333,47.0793333 41.0093333,46.1986667 40.2633333,45.7266667 Z" id="Shape"></path>
                        <path d="M22.8793333,19.9553333 C22.4733333,20.6313333 23.0126667,22.3226667 23.69,21.1706667 C24.096,20.4946667 23.5553333,18.7353333 22.8793333,19.9553333 Z" id="Shape"></path>
                        <path d="M35.798,49.1066667 C35.326,49.8526667 35.8686667,51.5413333 36.6086667,50.3926667 C36.9486667,49.6493333 36.408,47.9573333 35.798,49.1066667 Z" id="Shape"></path>
                        <path d="M19.636,50.0553333 C19.636,50.9333333 20.2426667,51.676 21.122,51.676 C21.9326667,51.676 22.6786667,50.9326667 22.6786667,50.0553333 C22.6786667,49.2446667 21.9326667,48.4986667 21.122,48.4986667 C20.2426667,48.4986667 19.636,49.2446667 19.636,50.0553333 Z" id="Shape"></path>
                        <path d="M37.4913333,41.5986667 C37.154,41.5313333 36.8846667,42.1413333 36.814,42.4126667 C36.6086667,43.0206667 36.5446667,43.6293333 36.408,44.3066667 C36.408,44.578 36.408,45.254 36.814,45.1186667 C37.22,44.982 37.4253333,44.374 37.4913333,44.0353333 C37.4913333,43.56 37.5606667,43.088 37.7606667,42.684 C37.83,42.4126667 37.9646667,41.6693333 37.4913333,41.5986667 Z" id="Shape"></path>
                        <path d="M17.538,47.89 C16.6566667,47.89 15.506,49.2446667 16.726,49.2446667 C17.6746667,49.2446667 18.8206667,47.89 17.538,47.89 Z" id="Shape"></path>
                        <path d="M19.0946667,43.2226667 C19.9706667,43.2226667 21.122,41.8713333 19.7706667,41.8713333 C18.8906667,41.8713333 17.7386667,43.2226667 19.0946667,43.2226667 Z" id="Shape"></path>
                        <path d="M12.8033333,44.712 C13.614,44.712 14.8306667,43.3586667 13.4793333,43.3586667 C12.598,43.3593333 11.4466667,44.712 12.8033333,44.712 Z" id="Shape"></path>
                        <path d="M21.3226667,17.8573333 C22.0673333,18.3306667 23.0126667,18.0593333 23.4893333,17.318 C23.8266667,16.5733333 23.69,15.6246667 22.8793333,15.1513333 C22.138,14.7466667 21.122,15.0166667 20.7813333,15.692 C20.3113333,16.506 20.5813333,17.384 21.3226667,17.8573333 Z" id="Shape"></path>
                        <path d="M25.5873333,15.0166667 C25.9933333,14.2733333 25.382,12.582 24.7766667,13.7293333 C24.3,14.476 24.8406667,16.166 25.5873333,15.0166667 Z" id="Shape"></path>
                        <path d="M27.0733333,54.7226667 L27.0733333,33.3473333 L8.744,43.8986667 C12.5333333,50.1226667 19.3646667,54.386 27.0733333,54.7226667 Z M24.5053333,53.0986667 C23.1493333,53.0986667 24.3706667,51.8146667 25.1813333,51.8146667 C26.5326667,51.8146667 25.2466667,53.0986667 24.5053333,53.0986667 Z M22.7426667,46.81 C22.4086667,47.012 21.7973333,47.0793333 21.528,46.81 C21.122,46.47 21.7973333,46.064 22.0673333,45.996 C22.61,45.7266667 23.218,45.5226667 23.8266667,45.4553333 C24.096,45.388 24.8413333,45.186 24.9113333,45.6573333 C25.048,45.996 24.3,46.3346667 24.03,46.3346667 C23.5553333,46.5373333 23.218,46.6033333 22.7426667,46.81 Z M23.4893333,38.6226667 C24.7766667,38.6226667 25.8566667,39.6386667 25.8566667,40.99 C25.8566667,42.208 24.7766667,43.29 23.4893333,43.29 C22.138,43.29 21.122,42.208 21.122,40.99 C21.122,39.6386667 22.138,38.6226667 23.4893333,38.6226667 Z M22.6786667,50.0553333 C22.6786667,50.9333333 21.9326667,51.676 21.122,51.676 C20.2426667,51.676 19.636,50.9326667 19.636,50.0553333 C19.636,49.2446667 20.2426667,48.4986667 21.122,48.4986667 C21.9326667,48.4986667 22.6786667,49.2446667 22.6786667,50.0553333 Z M19.7706667,41.8713333 C21.122,41.8713333 19.9713333,43.2226667 19.0946667,43.2226667 C17.7386667,43.2226667 18.8906667,41.8713333 19.7706667,41.8713333 Z M17.538,47.89 C18.8206667,47.89 17.6746667,49.2446667 16.726,49.2446667 C15.506,49.2446667 16.6566667,47.89 17.538,47.89 Z M13.4786667,43.3593333 C14.83,43.3593333 13.6133333,44.7126667 12.8026667,44.7126667 C11.4466667,44.712 12.598,43.3593333 13.4786667,43.3593333 Z" id="Shape" fill="#2CBFA5" fill-rule="nonzero"></path>
                        <path d="M8.94466667,21.1026667 L27.4153333,31.792 L27.4153333,10.5513333 C20.1746667,10.8226667 13.1373333,14.5446667 8.94466667,21.1026667 Z M24.7766667,13.7293333 C25.382,12.5813333 25.9933333,14.2733333 25.5873333,15.0166667 C24.8406667,16.166 24.3,14.476 24.7766667,13.7293333 Z M20.782,15.692 C21.122,15.0166667 22.138,14.7466667 22.88,15.1513333 C23.6906667,15.6246667 23.8266667,16.5733333 23.49,17.318 C23.0133333,18.0593333 22.068,18.3306667 21.3233333,17.8573333 C20.5813333,17.384 20.3113333,16.506 20.782,15.692 Z M23.69,21.17 C23.0126667,22.3226667 22.4733333,20.6306667 22.8793333,19.9546667 C23.5553333,18.7353333 24.096,20.4946667 23.69,21.17 Z M20.716,23.674 C21.3226667,22.592 22.7433333,22.188 23.8266667,22.796 C24.9113333,23.5393333 25.382,24.892 24.6406667,26.0426667 C24.0306667,27.126 22.6106667,27.598 21.5286667,26.8546667 C20.4446667,26.2433333 19.9713333,24.7586667 20.716,23.674 Z M18.8206667,15.0166667 C19.4993333,13.798 20.042,15.4226667 19.636,16.2333333 C19.024,17.384 18.4833333,15.692 18.8206667,15.0166667 Z M14.5593333,17.5186667 C15.036,16.7753333 15.9106667,16.506 16.726,16.9793333 C17.4693333,17.318 17.7386667,18.3306667 17.2686667,19.0093333 C16.8626667,19.7526667 15.9106667,20.022 15.102,19.6853333 C14.424,19.2106667 14.1546667,18.1946667 14.5593333,17.5186667 Z" id="Shape" fill="#2CBFA5" fill-rule="nonzero"></path>
                        <path d="M46.486,44.168 L27.9526667,33.6166667 L27.9526667,54.79 C35.2573333,54.5206667 42.2953333,50.7306667 46.486,44.168 Z M30.5913333,37.0693333 C31.6733333,37.7453333 35.4626667,40.5166667 34.718,41.6693333 C34.1066667,42.7513333 32.6893333,43.088 31.604,42.48 C28.9,40.99 27.8853333,35.58 30.5913333,37.0693333 Z M30.6573333,51.6766667 C30.052,52.8293333 29.4406667,51.1373333 29.8466667,50.3926667 C30.5913333,49.2446667 31.134,50.866 30.6573333,51.6766667 Z M31.742,44.1006667 C32.4193333,42.9533333 32.8893333,44.6433333 32.554,45.4553333 C31.8786667,46.6033333 31.3346667,44.9146667 31.742,44.1006667 Z M34.652,49.582 C34.246,50.3253333 33.296,50.5966667 32.554,50.1226667 C31.742,49.7853333 31.604,48.7693333 31.9426667,48.094 C32.4193333,47.3493333 33.3646667,47.0793333 34.106,47.5533333 C34.7866667,47.89 35.0566667,48.8373333 34.652,49.582 Z M36.6086667,50.3926667 C35.8686667,51.542 35.326,49.8533333 35.798,49.1066667 C36.408,47.9573333 36.9486667,49.6493333 36.6086667,50.3926667 Z M37.7613333,42.6833333 C37.5606667,43.088 37.492,43.5593333 37.492,44.0346667 C37.426,44.3733333 37.2206667,44.9813333 36.8146667,45.118 C36.4086667,45.2526667 36.4086667,44.5773333 36.4086667,44.306 C36.5453333,43.6286667 36.6093333,43.0206667 36.8146667,42.412 C36.8853333,42.1406667 37.1546667,41.5306667 37.492,41.598 C37.9646667,41.6693333 37.83,42.4126667 37.7613333,42.6833333 Z M40.804,47.89 C40.398,48.5653333 39.4526667,48.8366667 38.706,48.4306667 C37.9646667,47.9573333 37.6946667,47.0793333 38.1653333,46.2653333 C38.5713333,45.522 39.4526667,45.2526667 40.2633333,45.726 C41.0093333,46.1986667 41.2793333,47.0793333 40.804,47.89 Z" id="Shape" fill="#2CBFA5" fill-rule="nonzero"></path>
                        <path d="M28.0893333,55.872 L28.0893333,60 C37.1546667,59.7286667 45.8793333,55.0613333 50.9513333,46.8773333 L47.502,44.8473333 C43.106,51.6766667 35.732,55.602 28.0893333,55.872 Z" id="Shape" fill="#2CBFA5" fill-rule="nonzero"></path>
                        <path d="M7.728,44.5773333 L4.14266667,46.6026667 C9.014,54.3853333 17.4033333,59.6606667 27.0733333,59.9306667 L27.0733333,55.872 C18.8906667,55.5346667 11.7873333,51.1373333 7.728,44.5773333 Z" id="Shape" fill="#2CBFA5" fill-rule="nonzero"></path>
                        <path d="M48.112,21.6466667 C51.8966667,28.8146667 51.6253333,37.2026667 48.0413333,44.0346667 L51.4906667,46.0633333 C55.8206667,38.0813333 56.1613333,28.1386667 51.6253333,19.5486667 L48.112,21.6466667 Z" id="Shape" fill="#2CBFA5" fill-rule="nonzero"></path>
                        <path d="M29.5113333,5.884 L29.5113333,30.1693333 L50.3426667,18.1266667 C45.9446667,11.094 38.3,6.292 29.5113333,5.884 Z M32.4853333,7.77933333 C33.9713333,7.77933333 32.6893333,9.20133333 31.6733333,9.20133333 C30.118,9.20133333 31.604,7.77933333 32.4853333,7.77933333 Z M34.3806667,14.8813333 C34.7866667,14.7466667 35.5266667,14.5446667 35.8686667,14.8813333 C36.2746667,15.22 35.5266667,15.6246667 35.2573333,15.7593333 C34.652,16.0306667 33.906,16.2326667 33.1593333,16.438 C32.89,16.5053333 32.0793333,16.708 31.9426667,16.1653333 C31.8786667,15.692 32.6886667,15.422 32.8893333,15.3546667 C33.4306667,15.2206667 33.906,15.084 34.3806667,14.8813333 Z M33.636,24.1493333 C32.214,24.1493333 30.9286667,22.9986667 30.9286667,21.5793333 C30.9286667,20.0226667 32.214,18.872 33.636,18.872 C35.0566667,18.872 36.2746667,20.0226667 36.2746667,21.5793333 C36.2746667,22.998 35.0566667,24.1493333 33.636,24.1493333 Z M36.2746667,12.9206667 C35.2573333,12.9206667 34.5173333,12.1086667 34.5173333,11.2273333 C34.5173333,10.2146667 35.2573333,9.40266667 36.2746667,9.40266667 C37.22,9.40266667 38.0306667,10.2146667 38.0306667,11.2273333 C38.0306667,12.108 37.22,12.9206667 36.2746667,12.9206667 Z M40.398,13.662 C38.8426667,13.662 40.1973333,12.1086667 41.21,12.1086667 C42.7013333,12.108 41.3453333,13.662 40.398,13.662 Z M44.934,18.7353333 C43.4413333,18.7353333 44.7993333,17.2493333 45.7446667,17.2493333 C47.2306667,17.2493333 45.8793333,18.7353333 44.934,18.7353333 Z" id="Shape" fill="#2CBFA5" fill-rule="nonzero"></path>
                        <path d="M7.39266667,21.374 L3.87266667,19.2793333 C-0.386666667,27.3266667 -0.792666667,37.2026667 3.804,45.794 L7.322,43.764 C3.53266667,36.458 3.804,28.1386667 7.39266667,21.374 Z" id="Shape" fill="#2CBFA5" fill-rule="nonzero"></path>
                        <path d="M47.096,22.1873333 L28.63,32.874 L46.9606667,43.4926667 C50.4086667,37.0693333 50.68,29.0873333 47.096,22.1873333 Z M47.03,25.298 C47.6366667,26.518 45.9453333,26.0426667 45.4733333,25.298 C44.8633333,24.1493333 46.5546667,24.488 47.03,25.298 Z M44.5933333,27.126 C45.1326667,27.1933333 47.0953333,28.4773333 47.3666667,28.882 C47.84,29.628 47.5706667,30.6413333 46.824,30.98 C46.15,31.4533333 45.132,31.182 44.728,30.4386667 C44.0513333,29.3573333 43.4413333,27.126 44.5933333,27.126 Z M34.9873333,33.4146667 C34.3806667,32.2653333 34.718,30.7773333 35.798,30.1693333 C36.9486667,29.5613333 40.398,31.0473333 41.0093333,32.1306667 C41.6146667,33.3473333 39.316,33.6166667 38.1653333,34.2286667 C37.0853333,34.8353333 35.5973333,34.498 34.9873333,33.4146667 Z M39.658,34.9713333 C38.976,33.7513333 40.738,34.1593333 41.21,34.8353333 C41.82,35.984 40.1286667,35.6473333 39.658,34.9713333 Z M42.09,30.9126667 C41.6146667,30.5066667 41.0753333,30.1693333 40.7386667,29.696 C40.4673333,29.4246667 39.994,28.882 40.2633333,28.68 C40.668,28.274 41.21,28.7473333 41.3453333,29.0206667 C41.75,29.29 42.026,29.6286667 42.432,29.8986667 C42.7013333,30.1006667 43.172,30.642 43.106,30.9806667 C42.9,31.4533333 42.3606667,31.0473333 42.09,30.9126667 Z M44.1186667,39.6386667 C43.4413333,38.4206667 45.1333333,38.8246667 45.608,39.6386667 C46.2853333,40.788 44.528,40.4493333 44.1186667,39.6386667 Z M45.2033333,37.2713333 C44.5273333,37.61 43.5773333,37.4733333 43.1713333,36.6633333 C42.7013333,35.9186667 42.9706667,34.9713333 43.712,34.5653333 C44.4566667,34.1593333 45.402,34.4306667 45.8786667,35.106 C46.2853333,35.8493333 46.0153333,36.798 45.2033333,37.2713333 Z M45.9446667,33.888 C45.338,32.806 47.0293333,33.1446667 47.5013333,33.888 C48.176,35.0386667 46.42,34.7 45.9446667,33.888 Z" id="Shape" fill="#2CBFA5" fill-rule="nonzero"></path>
                        <path d="M51.426,17.384 L55.4853333,15.084 C50.004,6.292 40.4673333,0.338666667 29.5113333,0 L29.5113333,4.66733333 C38.7766667,5.006 46.7553333,10.0106667 51.426,17.384 Z" id="Shape" fill="#2CBFA5" fill-rule="nonzero"></path>
                        <path d="M8.26733333,43.088 L26.802,32.4006667 L8.47266667,21.8493333 C4.95466667,28.274 4.68333333,36.2553333 8.26733333,43.088 Z M8.402,40.0446667 C7.728,38.894 9.48866667,39.3686667 9.89466667,40.0446667 C10.5693333,41.2613333 8.80866667,40.788 8.402,40.0446667 Z M17.268,31.0473333 C18.348,30.4386667 19.77,30.778 20.444,31.996 C21.0506667,33.076 20.7153333,34.498 19.6353333,35.1066667 C18.4826667,35.85 16.9966667,35.3766667 16.3866667,34.296 C15.776,33.1446667 16.1173333,31.792 17.268,31.0473333 Z M13.3426667,34.4306667 C13.7486667,34.7673333 14.288,35.2426667 14.696,35.6473333 C14.9653333,35.8493333 15.372,36.458 15.102,36.7306667 C14.7646667,37.002 14.224,36.5266667 14.0186667,36.39 C13.68,35.984 13.4086667,35.7146667 13.004,35.4433333 C12.7346667,35.31 12.2626667,34.7673333 12.328,34.2953333 C12.5333333,33.888 13.0726667,34.296 13.3426667,34.4306667 Z M11.2466667,25.704 C11.9913333,26.8546667 10.3,26.518 9.82466667,25.7713333 C9.08266667,24.6226667 10.906,24.9593333 11.2466667,25.704 Z M10.166,28.1386667 C10.906,27.6653333 11.7873333,27.9346667 12.262,28.6793333 C12.734,29.424 12.4626667,30.3713333 11.7193333,30.7773333 C10.9746667,31.2493333 10.0293333,30.9793333 9.55266667,30.2366667 C9.21933333,29.4246667 9.35266667,28.5433333 10.166,28.1386667 Z M8.53866667,34.296 C9.28333333,33.956 10.2993333,34.16 10.7053333,34.972 C11.1113333,35.648 10.906,36.5273333 10.0953333,37.002 C9.352,37.474 8.47266667,37.2026667 7.99733333,36.458 C7.59333333,35.7146667 7.86266667,34.7673333 8.53866667,34.296 Z" id="Shape" fill="#2CBFA5" fill-rule="nonzero"></path>
                        <path d="M27.3446667,9.402 L27.3446667,5.34333333 C18.278,5.61266667 9.55333333,10.282 4.41266667,18.466 L7.93266667,20.564 C12.328,13.662 19.7,9.67333333 27.3446667,9.402 Z" id="Shape" fill="#2CBFA5" fill-rule="nonzero"></path>
                    </g>
                </g>
            </g>
        </g>
    </g>
</svg>