<?xml version="1.0" encoding="UTF-8"?>
<svg width="16px" height="27px" viewBox="0 0 16 27" version="1.1" xmlns="http://www.w3.org/2000/svg" xmlns:xlink="http://www.w3.org/1999/xlink">
    <!-- Generator: sketchtool 47.1 (45422) - http://www.bohemiancoding.com/sketch -->
    <title>11C637EB-B76A-4E99-89FD-1D7582FC284F</title>
    <desc>Created with sketchtool.</desc>
    <defs></defs>
    <g id="Home-page" stroke="none" stroke-width="1" fill="none" fill-rule="evenodd">
        <g id="Artboard" transform="translate(-55.000000, -39.000000)">
            <g id="recording" transform="translate(55.000000, 39.000000)">
                <path d="M15.3022931,13.5 C14.9168799,13.5 14.6045863,13.8302806 14.6045863,14.2376727 C14.6045863,15.9394343 13.8568306,17.6147382 12.553142,18.8338652 C11.3335504,19.9744055 9.7298479,20.6285736 8.15321643,20.6285736 L7.84669054,20.6285736 C6.2701521,20.6285736 4.6664496,19.9745038 3.44685799,18.8338652 C2.14307642,17.6147382 1.39541374,15.9395327 1.39541374,14.2376727 C1.39541374,13.8302806 1.08312015,13.5 0.69770687,13.5 C0.312293595,13.5 0,13.8302806 0,14.2376727 C0,16.3619732 0.9193916,18.4400463 2.52234988,19.9389972 C3.8539467,21.1843854 5.5703056,21.9467455 7.3022001,22.0805101 L7.3022001,25.5246547 L4.06167729,25.5246547 C3.67626401,25.5246547 3.36397042,25.8549353 3.36397042,26.2623273 C3.36397042,26.6697194 3.67626401,27 4.06167729,27 L11.9380436,27 C12.3234569,27 12.6357505,26.6697194 12.6357505,26.2623273 C12.6357505,25.8549353 12.3234569,25.5246547 11.9380436,25.5246547 L8.69770687,25.5246547 L8.69770687,22.0805101 C10.4296014,21.9466471 12.1459603,21.184287 13.4776501,19.9389972 C15.0807014,18.439948 16,16.3618749 16,14.2376727 C16,13.8302806 15.6876134,13.5 15.3022931,13.5 Z" id="Mic-Copy" fill="#3293F6" fill-rule="nonzero"></path>
                <path d="M8.11970749,18 L8.38037448,18 C10.8412183,18 13,15.6286539 13,12.9252182 L13,5.07458716 C12.999918,2.37134607 10.8412183,0 8.38029251,0 L8.11962552,0 C5.65869969,0 3.5,2.37134607 3.5,5.07458716 L3.5,12.9252182 C3.5,15.6285566 5.65869969,18 8.11970749,18 Z" id="Path" fill="#FF0000"></path>
            </g>
        </g>
    </g>
</svg>