<?xml version="1.0" encoding="UTF-8"?>
<svg width="64px" height="63px" viewBox="0 0 64 63" version="1.1" xmlns="http://www.w3.org/2000/svg" xmlns:xlink="http://www.w3.org/1999/xlink">
    <!-- Generator: sketchtool 47.1 (45422) - http://www.bohemiancoding.com/sketch -->
    <title>37325C7F-0409-4DD8-B39B-5296E0D0FB45</title>
    <desc>Created with sketchtool.</desc>
    <defs></defs>
    <g id="Home-page-Copy" stroke="none" stroke-width="1" fill="none" fill-rule="evenodd" opacity="0.5">
        <g id="Home-page1" transform="translate(-362.000000, -2001.000000)" fill-rule="nonzero" fill="#2CBFA5">
            <g id="food" transform="translate(0.000000, 1962.000000)">
                <g id="Group-79" transform="translate(192.000000, 23.000000)">
                    <g id="Group" transform="translate(197.500000, 40.000000) rotate(-31.000000) translate(-197.500000, -40.000000) translate(170.000000, 11.000000)">
                        <path d="M21.1538462,0 C15.3186212,0 10.5769231,4.75641442 10.5769231,10.6097496 L10.5769231,24.0266693 C10.5664167,24.77402 11.2420494,25.4633708 11.9871795,25.4633708 C12.7323096,25.4633708 13.4079705,24.77402 13.3974359,24.0266693 L13.3974359,10.6097496 C13.3974359,6.27489593 16.8324045,2.82926657 21.1538462,2.82926657 C25.4752878,2.82926657 28.9102564,6.27489593 28.9102564,10.6097496 L28.9102564,21.2194993 L31.7307692,21.2194993 L31.7307692,10.6097496 C31.7307692,4.75641442 26.9890712,0 21.1538462,0 Z M3.52564103,15.5609661 L0,58 L42.3076923,58 L42.0653045,55.1707334 L23.974359,55.1707334 L22.431891,55.1707334 L22.5641026,53.6234783 L25.3846154,22.5015107 L25.5168269,21.2194993 L26.7948718,21.2194993 L27.5,21.2194993 L27.5,15.5609661 L14.8076923,15.5609661 L14.8076923,21.2416029 C15.2476006,21.8316606 15.5128205,22.5479531 15.5128205,23.3414209 C15.5128205,25.2946051 13.9343417,26.8780041 11.9871795,26.8780041 C10.0400173,26.8780041 8.46153846,25.2946051 8.46153846,23.3414209 C8.46153846,22.5479531 8.72675833,21.8316606 9.16666667,21.2416029 L9.16666667,15.5609661 L3.52564103,15.5609661 Z M33.1410256,15.5609661 L33.1410256,21.2194993 L39.2447917,21.2194993 L38.7820513,15.5609661 L33.1410256,15.5609661 Z M26.7948718,22.6341042 L23.974359,53.7561001 L55,53.7561001 L52.1794872,22.6341042 L26.7948718,22.6341042 Z M32.2816506,25.4633708 C33.0770282,25.3755221 33.863359,26.0976216 33.8461538,26.9001431 L33.8461538,29.7072636 C33.8461538,32.8665641 36.3376609,35.3658675 39.4871795,35.3658675 C42.6366981,35.3658675 45.1282051,32.8665641 45.1282051,29.7072636 L45.1282051,26.9001431 C45.1176705,26.1527923 45.7933314,25.4633708 46.5384615,25.4633708 C47.2835917,25.4633708 47.9592244,26.1527923 47.9487179,26.9001431 L47.9487179,29.7072636 C47.9487179,34.3851022 44.1504814,38.195134 39.4871795,38.195134 C34.8238776,38.195134 31.025641,34.3851022 31.025641,29.7072636 L31.025641,26.9001431 C31.0106218,26.2010313 31.5886859,25.539761 32.2816506,25.4633708 Z" id="Shape"></path>
                    </g>
                </g>
            </g>
        </g>
    </g>
</svg>