<svg xmlns="http://www.w3.org/2000/svg" width="31" height="69" viewBox="0 0 31 69">
    <path fill="#F5A623" fill-rule="nonzero" d="M15.064 12.769c3.502 0 6.341-2.859 6.341-6.385S18.565 0 15.064 0C11.56 0 8.722 2.858 8.722 6.384c0 3.526 2.84 6.385 6.342 6.385zM2.597 42.983c-1.284 0-2.582-.704-2.597-2.142l.029-19.988c-.137-3.225 1.638-5.165 4.408-5.165h4.747a1.8 1.8 0 0 1 1.638 1.06l2.445 5.368 1.04 2.288c.143.32.446.48.742.48s.599-.16.743-.48l1.04-2.288 2.445-5.367a1.8 1.8 0 0 1 1.637-1.06h4.747c2.77 0 4.545 1.939 4.408 5.164l.03 19.988c0 .871-.484 1.481-1.155 1.816v2.549h.65c.778 0 1.406.632 1.406 1.416v11.984c0 .785-.628 1.417-1.407 1.417H25.41c-.78 0-1.407-.632-1.407-1.417V46.622c0-.784.628-1.416 1.407-1.416h.65V42.635c-.621-.327-1.061-.886-1.061-1.685l-.03-15.849-2.055-.014-.065 40.833c0 2.056-1.724 3.08-3.449 3.08-1.731 0-3.462-1.031-3.462-3.094V45.714h-1.76v20.192c0 2.063-1.732 3.094-3.464 3.094-1.724 0-3.448-1.031-3.448-3.08L7.2 25.087l-2.056-.007-.029 15.877c0 1.344-1.255 2.026-2.518 2.026zM16.45 15.688c.447 0 .736.465.548.865l-1.392 2.941.634 1.337-1.175 2.585-1.176-2.585.635-1.337-1.393-2.941c-.195-.4.101-.865.541-.865h2.778z"/>
</svg>
