<svg xmlns="http://www.w3.org/2000/svg" width="61" height="50" viewBox="0 0 61 50">
    <path fill="#F14D4D" fill-rule="nonzero" d="M58.977 20.076c1.208 1.421 1.208 3.452 1.208 7.515v13.337c0 3.927 0 6.093-1.208 7.515C57.634 50 55.418 50 52.062 50H23.663c-7.385-.068-7.922-1.15-7.922-8.937 4.7-1.49 28.13-8.666 28.264-8.666 3.559-1.083 5.908-1.828 6.848-3.859.873-1.895.202-4.197-1.074-8.395l-.47-1.624h2.686c3.625 0 5.706.067 6.982 1.557zm-11.218-.304c1.09 3.712 1.772 5.736.954 7.424-.817 1.822-2.998 2.496-6.201 3.441-.205 0-26.169 7.828-26.373 7.896l-.818.27c-2.317.674-3.612 1.012-4.77 1.012-3.135 0-3.885-2.43-5.384-7.356L1.351 19.975C.192 16.128-.421 14.17.329 12.552c.818-1.822 2.998-2.43 6.27-3.442l.544-.135c.205-.067 26.169-7.828 26.373-7.895C35.697.405 37.196 0 38.491 0c3.203 0 3.953 2.43 5.452 7.288l3.816 12.484z"/>
</svg>
