<svg xmlns="http://www.w3.org/2000/svg" width="32" height="40" viewBox="0 0 32 40">
    <path fill="#52AB15" fill-rule="evenodd" d="M31.714 12.82c.09 3.104.038 6.215.014 9.323-.003.37-.123.779-.313 1.099-.532.894-1.965 1.068-2.67.15-.295-.383-.418-.801-.417-1.283.01-2.414.006-4.83.006-7.246 0-.301.009-.603-.004-.905-.018-.381-.094-.422-.506-.43-.328-.008-.456.13-.423.446.007.07.002.142.002.213V27.72c.002 1.03 0 2.736.002 3.766.001 3.322.003 2.585.001 5.907-.001.353.043.737-.073 1.055-.565 1.536-2.191 1.95-3.422 1.162-.754-.485-.985-1.243-.984-2.108.007-5.594.004-7.806.004-13.4 0-.125.006-.25-.001-.374-.023-.37-.132-.453-.497-.46-.33-.007-.377.19-.375.448.003.16-.001.32-.001.479l-.001 13.242c0 .388-.024.76-.184 1.138-.352.834-.969 1.307-1.84 1.389-.973.09-1.748-.271-2.228-1.183-.273-.52-.231-1.069-.231-1.613-.003-8.685 0-13.988.002-22.673 0-.213.006-.427-.012-.639-.01-.097-.058-.263-.107-.27-.24-.035-.5-.071-.726-.013-.093.023-.17.285-.173.44-.018.763-.005 1.527-.008 2.29-.001.455-.115.847-.44 1.21-.477.532-1.6.583-2.302.106a542.653 542.653 0 0 0-4.663-3.134c-.663-.44-.968-1.038-.804-1.813.08-.373-.06-.558-.337-.738-.647-.424-1.286-.86-1.928-1.292-1.593-1.077-3.187-2.153-4.778-3.23a27.693 27.693 0 0 1-1.029-.728c-.315-.236-.337-.368-.146-.608.199-.249.322-.252.626-.043 1.048.721 2.097 1.437 3.147 2.155 1.398.955 2.796 1.912 4.196 2.865.203.137.427.244.626.386.19.137.338.127.574.05.582-.189 1.168-.206 1.712.203.592.443 1.212.848 1.828 1.257.274.182.35.132.39-.203.313-2.661 2.173-3.75 4.2-4.08.97-.159 1.986-.048 2.98-.063.258-.005.397.101.53.341.422.752.902 1.473 1.342 2.218.094.157.162.163.273.051.072-.074.14-.152.194-.239.393-.65.785-1.298 1.17-1.951.165-.28.364-.447.721-.433.692.029 1.387.027 2.078.013a5.847 5.847 0 0 1 2.37.469c1.875.778 2.589 2.123 2.635 3.748zm-8.73-4.585c-2.211.001-4.19-1.765-4.16-4.097C18.859 1.431 20.9-.027 22.919 0c2.248.03 4.125 1.543 4.136 4.077.11 2.382-1.924 4.157-4.071 4.158z"/>
</svg>
