<?xml version="1.0" encoding="UTF-8"?>
<svg width="41px" height="50px" viewBox="0 0 41 50" version="1.1" xmlns="http://www.w3.org/2000/svg" xmlns:xlink="http://www.w3.org/1999/xlink">
    <!-- Generator: sketchtool 47.1 (45422) - http://www.bohemiancoding.com/sketch -->
    <title>0BBEAE96-7993-4F1F-8291-F07BEC4E6387</title>
    <desc>Created with sketchtool.</desc>
    <defs></defs>
    <g id="Home-page-Copy" stroke="none" stroke-width="1" fill="none" fill-rule="evenodd">
        <g id="Home-page1" transform="translate(-652.000000, -1087.000000)" fill-rule="nonzero" fill="#320161">
            <g id="Group-10" transform="translate(0.000000, 922.000000)">
                <g id="Group-74" transform="translate(630.000000, 249.500000) scale(-1, 1) translate(-630.000000, -249.500000) translate(157.000000, 54.000000)">
                    <path d="M410,114.125 L410,157.875 C410,159.60089 411.412025,161 413.153846,161 L447.846154,161 C449.587975,161 451,159.60089 451,157.875 L451,125.307292 C450.999264,124.478769 450.666502,123.684447 450.074872,123.098958 L438.789359,111.916667 C438.198465,111.330448 437.396811,111.000729 436.560641,111 L413.153846,111 C411.412025,111 410,112.39911 410,114.125 Z M416.212121,117.097561 L432.881313,117.097561 L432.881313,125.761179 C432.881313,127.5011 434.302847,128.911585 436.056397,128.911585 L444.787879,128.911585 L444.787879,154.902439 L416.212121,154.902439 L416.212121,117.097561 Z" id="Shape-Copy-6" transform="translate(430.500000, 136.000000) scale(-1, 1) translate(-430.500000, -136.000000) "></path>
                </g>
            </g>
        </g>
    </g>
</svg>