<svg xmlns="http://www.w3.org/2000/svg" width="63" height="50" viewBox="0 0 63 50">
    <path fill="#8C3FBF" fill-rule="nonzero" d="M60.903 2.813c-.883 0-1.712.01-2.542.03V0h-.925c-17.97 0-23.994 4.334-25.937 6.674C29.556 4.334 23.532 0 5.562 0h-.925v2.843c-.83-.023-1.658-.03-2.54-.03H0v41.108h2.097c22.17 0 26.694 5.127 27.34 6.079h4.16c.701-.996 5.314-6.08 27.308-6.08H63V2.814h-2.097zM30 42c-3.074-2.319-9.523-5.009-23-5.188V2c18.876.248 22.522 5.537 23 6.399V42zm26-5.188C42.523 36.99 36.074 39.678 33 42V8.408c.52-.943 4.269-6.161 23-6.408v34.812z"/>
</svg>
