<svg xmlns="http://www.w3.org/2000/svg" width="50" height="63" viewBox="0 0 50 63">
    <path fill="#2CBFA5" fill-rule="evenodd" d="M9.606 34.03c-5.21 0-9.448 4.204-9.448 9.376a2.493 2.493 0 0 0 2.497 2.483h30.11a2.482 2.482 0 0 0 2.478-2.483c0-5.172-4.237-9.376-9.448-9.376H9.606zM1.248 56.243h32.664c.69 0 1.268.547 1.268 1.242 0 2.992-2.426 5.404-5.434 5.404H5.434C2.436 62.889 0 60.477 0 57.485c0-.695.55-1.242 1.248-1.242zm2.112-8.665H31.84a3.328 3.328 0 0 1 3.341 3.323 3.338 3.338 0 0 1-3.341 3.342H3.36C1.512 54.243 0 52.74 0 50.901c0-1.838 1.512-3.323 3.36-3.323zM15.607 0l5.012 15.927H50l-2.055 19.516-1.42 13.98L45.41 59.83c-.178 1.79-1.724 3.17-3.572 3.17h-6.702c1.416-1.369 2.323-3.293 2.323-5.385 0-1.154-.593-2.125-1.498-2.731.905-.988 1.498-2.277 1.498-3.724 0-1.623-.76-3.032-1.882-4.048 1.072-.812 1.844-2.095 1.844-3.59 0-6.327-5.198-11.497-11.599-11.497H19.39l-1.67-16.098h.191L13.15.783 15.607 0z"/>
</svg>
