<svg xmlns="http://www.w3.org/2000/svg" width="53" height="65" viewBox="0 0 53 65">
    <g fill="#52AB15" fill-rule="nonzero" opacity=".5">
        <path d="M27.104 29.26h.002l2.495.53 2.678.57 14.188 3.015a13.206 13.206 0 0 0-8.715-8.644c-.544 2.306-4.43 3.434-8.727 2.52-4.297-.913-7.387-3.524-6.946-5.851A13.207 13.207 0 0 0 10.6 25.75l13.934 2.962 2.57.546z"/>
        <path d="M21.964 10.685l-.035.279c-.851 7.07 2.135 13.307 7.13 14.368 5.062 1.076 10.398-3.538 12.439-10.492a10.927 10.927 0 0 0 .662-3.114c.319-5.067-2.978-9.702-7.923-10.753C29.29-.08 24.392 2.817 22.624 7.579a10.872 10.872 0 0 0-.557 2.171c-.048.313-.083.625-.103.935zM42.561 62.832L2.167 54.246c-.569-.121-1.115.186-1.22.685-.106.498.267 1 .836 1.121l40.394 8.586c.567.12 1.115-.186 1.221-.684.105-.499-.269-1.001-.837-1.122z"/>
        <path d="M50.728 35.303l-4.61-.98-.341-.073-14.172-3.012-2.675-.569-2.493-.53h-.001l-2.567-.545-13.918-2.959-.236-.05L5 25.583c-1.34-.285-2.66.583-2.948 1.938l-.057 24.124C1.707 53 2.56 54.329 3.9 54.615l36.024 7.657c1.34.284 2.66-.583 2.948-1.939l9.76-22.061c.288-1.354-.565-2.684-1.905-2.97zM24.27 45.9a1.326 1.326 0 0 1-1.013-1.579 1.337 1.337 0 0 1 1.567-1.03 1.297 1.297 0 0 1 .652.356l.021.019c.037.04.067.084.099.127.019.024.041.048.058.074.017.026.028.056.044.084.025.047.052.092.072.142l.007.022.002.007a1.335 1.335 0 0 1 .056.747 1.325 1.325 0 0 1-1.565 1.03z"/>
    </g>
</svg>
