<svg xmlns="http://www.w3.org/2000/svg" width="79" height="66" viewBox="0 0 79 66">
    <g fill="#52AB15" fill-rule="nonzero" transform="rotate(12 22.728 34.757)">
        <path d="M70.284 0h-39.49C29.24 0 28 1.208 28 2.717V4h45V2.717A2.727 2.727 0 0 0 70.284 0zM28 36.28c0 1.508 1.241 2.713 2.793 2.713h12.259L32.966 57h4.887l10.164-18.007h5.12L63.303 57h4.888L57.948 38.993h12.259c1.552 0 2.793-1.205 2.793-2.712V35H28v1.28zM52.678 17.641l-17.245 1.522c-.702.913-1.794 1.522-3.043 1.522H32V34h38V6H32.078v7.457l20.6-.077v4.261z"/>
        <circle cx="11.5" cy="7.5" r="5.5"/>
        <path d="M31.542 18.743c.935 0 1.636-.599 1.87-1.422L50 15.898V15l-28.115.075c-.078 0-5.452-.075-5.841-.075h-1.246l-2.103 3.893 1.012.674-1.557 2.695-.624-4.417-.233-1.348h-1.246l-.234 1.348-.623 4.417-1.558-2.695 1.013-.674L6.542 15h-.311C2.804 15 0 17.695 0 20.99v13.55c0 1.048.857 1.872 1.947 1.872s1.947-.824 1.947-1.872V20.914c0-.748.39-1.422.935-1.796v35.786c0 1.123.934 2.096 2.18 2.096 1.169 0 2.181-.898 2.181-2.096V37.61h2.804v17.294c0 1.123.934 2.096 2.18 2.096 1.169 0 2.181-.898 2.181-2.096V21.738l1.558-3.07H31.23l.311.075z"/>
    </g>
</svg>
