<svg xmlns="http://www.w3.org/2000/svg" width="44" height="55" viewBox="0 0 44 55">
    <path fill="#52AB15" fill-rule="evenodd" d="M43.93 17.557c.124 4.277.052 8.562.019 12.843a3.132 3.132 0 0 1-.433 1.514c-.738 1.232-2.723 1.472-3.699.207-.408-.528-.578-1.104-.577-1.767.012-3.327.007-6.653.007-9.982 0-.416.013-.831-.005-1.247-.025-.525-.13-.581-.701-.593-.453-.01-.63.18-.586.615.01.096.003.196.003.294v18.642c.003 1.42 0 3.77.003 5.189.001 4.575.005 3.56.001 8.136-.001.487.06 1.016-.1 1.455-.783 2.115-3.036 2.684-4.74 1.6-1.045-.668-1.365-1.713-1.364-2.904.01-7.706.006-10.754.006-18.46 0-.172.008-.344-.002-.516-.032-.509-.183-.624-.689-.634-.458-.008-.521.264-.518.619.003.219-.002.44-.002.66l-.001 18.24c0 .536-.034 1.048-.256 1.57-.487 1.148-1.341 1.799-2.547 1.912-1.348.125-2.422-.373-3.087-1.63-.378-.716-.32-1.471-.32-2.222-.004-11.964.001-19.27.003-31.233 0-.293.007-.588-.017-.88-.013-.134-.08-.363-.149-.373-.332-.048-.69-.098-1.005-.018-.129.032-.236.393-.24.607-.025 1.05-.007 2.104-.011 3.155-.001.626-.158 1.167-.61 1.667-.66.732-2.216.803-3.188.145a751.98 751.98 0 0 0-6.459-4.317c-.918-.605-1.34-1.43-1.113-2.497.11-.514-.084-.77-.468-1.018-.896-.583-1.781-1.184-2.67-1.78-2.207-1.483-4.414-2.965-6.618-4.449A38.36 38.36 0 0 1 .372 9.104c-.437-.325-.468-.507-.203-.838.275-.342.446-.346.868-.06 1.45.995 2.904 1.981 4.359 2.97 1.936 1.316 3.872 2.633 5.811 3.946.281.19.592.337.868.533.264.19.468.175.794.069.806-.26 1.619-.284 2.373.28.819.61 1.678 1.168 2.532 1.73.379.252.485.182.54-.278.433-3.667 3.01-5.168 5.817-5.622 1.345-.218 2.75-.066 4.127-.086.359-.007.55.14.735.47.585 1.036 1.25 2.03 1.86 3.055.13.216.224.224.377.07.1-.101.195-.208.269-.329a257.94 257.94 0 0 0 1.622-2.688c.228-.386.503-.615.998-.595.958.038 1.92.037 2.878.017 1.147-.02 2.23.213 3.283.646 2.597 1.072 3.585 2.924 3.65 5.163zM31.557 11c-2.954.001-5.597-2.358-5.557-5.472C26.048 1.91 28.773-.035 31.47 0c3.004.04 5.51 2.061 5.524 5.445.147 3.183-2.568 5.553-5.437 5.555z"/>
</svg>
