<svg xmlns="http://www.w3.org/2000/svg" width="32" height="32" viewBox="0 0 32 32">
    <path fill="#FFF" fill-rule="evenodd" d="M22.362 12.737c.006.141.01.282.01.425 0 4.337-3.302 9.339-9.34 9.339A9.294 9.294 0 0 1 8 21.027c.257.03.518.045.783.045a6.584 6.584 0 0 0 4.077-1.405 3.285 3.285 0 0 1-3.067-2.279 3.312 3.312 0 0 0 1.483-.057 3.283 3.283 0 0 1-2.633-3.218v-.042c.442.246.949.394 1.487.411a3.282 3.282 0 0 1-1.016-4.383 9.32 9.32 0 0 0 6.766 3.43 3.283 3.283 0 0 1 5.593-2.994 6.568 6.568 0 0 0 2.085-.796 3.299 3.299 0 0 1-1.443 1.816A6.587 6.587 0 0 0 24 11.038a6.682 6.682 0 0 1-1.638 1.699M16 0C7.163 0 0 7.163 0 16c0 8.836 7.163 16 16 16s16-7.164 16-16c0-8.837-7.163-16-16-16"/>
</svg>
