<svg xmlns="http://www.w3.org/2000/svg" style="display: none;">
    <symbol id="eye" viewBox="0 0 932.15 932.15">
        <g>
            <path d="M466.075,161.525c-205.6,0-382.8,121.2-464.2,296.1c-2.5,5.3-2.5,11.5,0,16.9c81.4,174.899,258.601,296.1,464.2,296.1
		s382.8-121.2,464.2-296.1c2.5-5.3,2.5-11.5,0-16.9C848.875,282.725,671.675,161.525,466.075,161.525z M466.075,676.226
		c-116.1,0-210.1-94.101-210.1-210.101c0-116.1,94.1-210.1,210.1-210.1c116.1,0,210.1,94.1,210.1,210.1
		S582.075,676.226,466.075,676.226z" />
            <circle cx="466.075" cy="466.025" r="134.5" />
        </g>
    </symbol>

    <symbol id="like" viewBox="0 0 502.641 502.641">
        <g>
            <path d="M494.812,235.513c-15.207-36.929-43.94-55.674-85.442-55.674c0,0-27.244,0-49.742,0
			c8.413-19.004,17.774-46.571,17.774-79.79c0-9.103-0.712-18.551-2.438-28.171c-6.536-38.612-32.895-59.147-70.364-55.027
			c-14.841,1.704-19.931,15.79-32.227,49.936c-10.203,28.301-24.181,67.064-44.457,98.233
			c-14.905,22.908-41.459,40.984-63.763,52.115v-2.826H0V458.21h164.197v-13.439c25.842-1.273,40.531-0.518,43.983,0.582
			l29.379,17.062l21.959,13.697c21.334,11.497,114.649,12.597,154.663,6.665c51.446-7.507,63.871-49.677,64.389-51.489
			C482.625,417.311,518.022,291.834,494.812,235.513z M447.572,422.424c-0.302,0.928-7.787,24.03-38.072,28.366
			c-43.055,6.407-122.91,2.524-134.753-3.128c0.086,0.065-19.478-12.209-19.478-12.209l-36.908-20.73
			c-8.564-2.869-27.977-3.193-54.164-2.028V252.036c26.446-10.699,67.409-33.672,90.77-69.415
			c22.347-34.298,37.059-75.088,47.801-104.92c0,0,9.47-23.577,11.756-29.034c16.351,0.086,25.367,9.081,28.732,28.56
			c1.337,7.636,1.855,15.207,1.855,22.52c0,48.34-24.828,86.822-25.195,87.297l-16.372,24.957l105.826,0.043
			c28.301,0,45.428,11.023,55.631,35.743C481.05,286.722,457.754,387.091,447.572,422.424z" />
        </g>
    </symbol>
    <symbol id="share" viewBox="0 0 473.932 473.932">
        <g>

            <path d="M385.513,301.214c-27.438,0-51.64,13.072-67.452,33.09l-146.66-75.002
			c1.92-7.161,3.3-14.56,3.3-22.347c0-8.477-1.639-16.458-3.926-24.224l146.013-74.656c15.725,20.924,40.553,34.6,68.746,34.6
			c47.758,0,86.391-38.633,86.391-86.348C471.926,38.655,433.292,0,385.535,0c-47.65,0-86.326,38.655-86.326,86.326
			c0,7.809,1.381,15.229,3.322,22.412L155.892,183.74c-15.833-20.039-40.079-33.154-67.56-33.154
			c-47.715,0-86.326,38.676-86.326,86.369s38.612,86.348,86.326,86.348c28.236,0,53.043-13.719,68.832-34.664l145.948,74.656
			c-2.287,7.744-3.947,15.79-3.947,24.289c0,47.693,38.676,86.348,86.326,86.348c47.758,0,86.391-38.655,86.391-86.348
			C471.904,339.848,433.271,301.214,385.513,301.214z" />
        </g>

    </symbol>
    <symbol id="anonymous" viewBox="0 0 31.828 31.828">
        <g>
            <path d="M31.655,10.747c0-0.004,0.004-0.007,0.004-0.012c0.069-0.569-0.335-1.087-0.904-1.157c-0.568-0.07-1.087,0.336-1.155,0.905
		c-0.07,0.569,0.335,1.087,0.903,1.157c0.122,0.015,0.238-0.001,0.353-0.027c-0.034,1.113-0.211,2.436-1.175,2.994
		c-1.475-4.997-7.07-8.719-13.766-8.719S3.624,9.611,2.148,14.606c-0.965-0.558-1.142-1.88-1.176-2.994
		c0.113,0.025,0.229,0.042,0.352,0.027c0.569-0.07,0.975-0.588,0.904-1.157C2.16,9.915,1.642,9.508,1.073,9.579
		c-0.569,0.07-0.974,0.587-0.904,1.157c0,0.004,0.004,0.007,0.004,0.012c-0.199,0.825-0.236,2.141-0.057,3.608
		c0.294,2.407,1.052,4.294,1.692,4.216c0.007-0.002,0.017-0.008,0.023-0.009c0.526,4.905,4.068,4.879,8.92,4.558
		c-0.021,0.074-0.058,0.143-0.058,0.221c0,0.598,0.628,1.082,1.401,1.082c0.361,0,0.686-0.113,0.935-0.288
		c0.598,0.928,1.66,1.806,2.885,1.806s2.287-0.878,2.884-1.806c0.249,0.175,0.573,0.288,0.936,0.288
		c0.772,0,1.401-0.484,1.401-1.082c0-0.078-0.037-0.146-0.058-0.221c4.851,0.321,8.394,0.348,8.92-4.558
		c0.006,0.001,0.016,0.007,0.021,0.009c0.641,0.078,1.397-1.81,1.691-4.216C31.893,12.888,31.854,11.572,31.655,10.747z
		 M10.287,17.497c-2.639,0-6.194,0.85-6.194,0.85c0.657-1.98,3.115-5.734,6.123-5.734c2.64,0,3.434,3.623,3.434,5.734
		C13.648,18.348,12.927,17.497,10.287,17.497z M21.542,17.497c-2.639,0-3.361,0.85-3.361,0.85c0-2.111,0.794-5.734,3.434-5.734
		c3.009,0,5.467,3.754,6.123,5.734C27.736,18.348,24.182,17.497,21.542,17.497z" />
        </g>
    </symbol>

    <symbol id="settings" viewBox="0 0 268.765 268.765">
        <g>
            <path d="M267.92,119.461c-0.425-3.778-4.83-6.617-8.639-6.617
			c-12.315,0-23.243-7.231-27.826-18.414c-4.682-11.454-1.663-24.812,7.515-33.231c2.889-2.641,3.24-7.062,0.817-10.133
			c-6.303-8.004-13.467-15.234-21.289-21.5c-3.063-2.458-7.557-2.116-10.213,0.825c-8.01,8.871-22.398,12.168-33.516,7.529
			c-11.57-4.867-18.866-16.591-18.152-29.176c0.235-3.953-2.654-7.39-6.595-7.849c-10.038-1.161-20.164-1.197-30.232-0.08
			c-3.896,0.43-6.785,3.786-6.654,7.689c0.438,12.461-6.946,23.98-18.401,28.672c-10.985,4.487-25.272,1.218-33.266-7.574
			c-2.642-2.896-7.063-3.252-10.141-0.853c-8.054,6.319-15.379,13.555-21.74,21.493c-2.481,3.086-2.116,7.559,0.802,10.214
			c9.353,8.47,12.373,21.944,7.514,33.53c-4.639,11.046-16.109,18.165-29.24,18.165c-4.261-0.137-7.296,2.723-7.762,6.597
			c-1.182,10.096-1.196,20.383-0.058,30.561c0.422,3.794,4.961,6.608,8.812,6.608c11.702-0.299,22.937,6.946,27.65,18.415
			c4.698,11.454,1.678,24.804-7.514,33.23c-2.875,2.641-3.24,7.055-0.817,10.126c6.244,7.953,13.409,15.19,21.259,21.508
			c3.079,2.481,7.559,2.131,10.228-0.81c8.04-8.893,22.427-12.184,33.501-7.536c11.599,4.852,18.895,16.575,18.181,29.167
			c-0.233,3.955,2.67,7.398,6.595,7.85c5.135,0.599,10.301,0.898,15.481,0.898c4.917,0,9.835-0.27,14.752-0.817
			c3.897-0.43,6.784-3.786,6.653-7.696c-0.451-12.454,6.946-23.973,18.386-28.657c11.059-4.517,25.286-1.211,33.281,7.572
			c2.657,2.89,7.047,3.239,10.142,0.848c8.039-6.304,15.349-13.534,21.74-21.494c2.48-3.079,2.13-7.559-0.803-10.213
			c-9.353-8.47-12.388-21.946-7.529-33.524c4.568-10.899,15.612-18.217,27.491-18.217l1.662,0.043
			c3.853,0.313,7.398-2.655,7.865-6.588C269.044,139.917,269.058,129.639,267.92,119.461z M134.595,179.491
			c-24.718,0-44.824-20.106-44.824-44.824c0-24.717,20.106-44.824,44.824-44.824c24.717,0,44.823,20.107,44.823,44.824
			C179.418,159.385,159.312,179.491,134.595,179.491z" />
        </g>
    </symbol>


</svg>

