<svg xmlns="http://www.w3.org/2000/svg" style="display: none;">
    <symbol id="eye" viewBox="0 0 932.15 932.15">
        <g>
            <path d="M466.075,161.525c-205.6,0-382.8,121.2-464.2,296.1c-2.5,5.3-2.5,11.5,0,16.9c81.4,174.899,258.601,296.1,464.2,296.1
		s382.8-121.2,464.2-296.1c2.5-5.3,2.5-11.5,0-16.9C848.875,282.725,671.675,161.525,466.075,161.525z M466.075,676.226
		c-116.1,0-210.1-94.101-210.1-210.101c0-116.1,94.1-210.1,210.1-210.1c116.1,0,210.1,94.1,210.1,210.1
		S582.075,676.226,466.075,676.226z" />
            <circle cx="466.075" cy="466.025" r="134.5" />
        </g>
    </symbol>

    <symbol id="like" viewBox="0 0 502.641 502.641">
        <g>
            <path d="M494.812,235.513c-15.207-36.929-43.94-55.674-85.442-55.674c0,0-27.244,0-49.742,0
			c8.413-19.004,17.774-46.571,17.774-79.79c0-9.103-0.712-18.551-2.438-28.171c-6.536-38.612-32.895-59.147-70.364-55.027
			c-14.841,1.704-19.931,15.79-32.227,49.936c-10.203,28.301-24.181,67.064-44.457,98.233
			c-14.905,22.908-41.459,40.984-63.763,52.115v-2.826H0V458.21h164.197v-13.439c25.842-1.273,40.531-0.518,43.983,0.582
			l29.379,17.062l21.959,13.697c21.334,11.497,114.649,12.597,154.663,6.665c51.446-7.507,63.871-49.677,64.389-51.489
			C482.625,417.311,518.022,291.834,494.812,235.513z M447.572,422.424c-0.302,0.928-7.787,24.03-38.072,28.366
			c-43.055,6.407-122.91,2.524-134.753-3.128c0.086,0.065-19.478-12.209-19.478-12.209l-36.908-20.73
			c-8.564-2.869-27.977-3.193-54.164-2.028V252.036c26.446-10.699,67.409-33.672,90.77-69.415
			c22.347-34.298,37.059-75.088,47.801-104.92c0,0,9.47-23.577,11.756-29.034c16.351,0.086,25.367,9.081,28.732,28.56
			c1.337,7.636,1.855,15.207,1.855,22.52c0,48.34-24.828,86.822-25.195,87.297l-16.372,24.957l105.826,0.043
			c28.301,0,45.428,11.023,55.631,35.743C481.05,286.722,457.754,387.091,447.572,422.424z" />
        </g>
    </symbol>
    <symbol id="share" viewBox="0 0 473.932 473.932">
        <g>

            <path d="M385.513,301.214c-27.438,0-51.64,13.072-67.452,33.09l-146.66-75.002
			c1.92-7.161,3.3-14.56,3.3-22.347c0-8.477-1.639-16.458-3.926-24.224l146.013-74.656c15.725,20.924,40.553,34.6,68.746,34.6
			c47.758,0,86.391-38.633,86.391-86.348C471.926,38.655,433.292,0,385.535,0c-47.65,0-86.326,38.655-86.326,86.326
			c0,7.809,1.381,15.229,3.322,22.412L155.892,183.74c-15.833-20.039-40.079-33.154-67.56-33.154
			c-47.715,0-86.326,38.676-86.326,86.369s38.612,86.348,86.326,86.348c28.236,0,53.043-13.719,68.832-34.664l145.948,74.656
			c-2.287,7.744-3.947,15.79-3.947,24.289c0,47.693,38.676,86.348,86.326,86.348c47.758,0,86.391-38.655,86.391-86.348
			C471.904,339.848,433.271,301.214,385.513,301.214z" />
        </g>

    </symbol>
    <symbol id="anonymous" viewBox="0 0 31.828 31.828">
        <g>
            <path d="M31.655,10.747c0-0.004,0.004-0.007,0.004-0.012c0.069-0.569-0.335-1.087-0.904-1.157c-0.568-0.07-1.087,0.336-1.155,0.905
		c-0.07,0.569,0.335,1.087,0.903,1.157c0.122,0.015,0.238-0.001,0.353-0.027c-0.034,1.113-0.211,2.436-1.175,2.994
		c-1.475-4.997-7.07-8.719-13.766-8.719S3.624,9.611,2.148,14.606c-0.965-0.558-1.142-1.88-1.176-2.994
		c0.113,0.025,0.229,0.042,0.352,0.027c0.569-0.07,0.975-0.588,0.904-1.157C2.16,9.915,1.642,9.508,1.073,9.579
		c-0.569,0.07-0.974,0.587-0.904,1.157c0,0.004,0.004,0.007,0.004,0.012c-0.199,0.825-0.236,2.141-0.057,3.608
		c0.294,2.407,1.052,4.294,1.692,4.216c0.007-0.002,0.017-0.008,0.023-0.009c0.526,4.905,4.068,4.879,8.92,4.558
		c-0.021,0.074-0.058,0.143-0.058,0.221c0,0.598,0.628,1.082,1.401,1.082c0.361,0,0.686-0.113,0.935-0.288
		c0.598,0.928,1.66,1.806,2.885,1.806s2.287-0.878,2.884-1.806c0.249,0.175,0.573,0.288,0.936,0.288
		c0.772,0,1.401-0.484,1.401-1.082c0-0.078-0.037-0.146-0.058-0.221c4.851,0.321,8.394,0.348,8.92-4.558
		c0.006,0.001,0.016,0.007,0.021,0.009c0.641,0.078,1.397-1.81,1.691-4.216C31.893,12.888,31.854,11.572,31.655,10.747z
		 M10.287,17.497c-2.639,0-6.194,0.85-6.194,0.85c0.657-1.98,3.115-5.734,6.123-5.734c2.64,0,3.434,3.623,3.434,5.734
		C13.648,18.348,12.927,17.497,10.287,17.497z M21.542,17.497c-2.639,0-3.361,0.85-3.361,0.85c0-2.111,0.794-5.734,3.434-5.734
		c3.009,0,5.467,3.754,6.123,5.734C27.736,18.348,24.182,17.497,21.542,17.497z" />
        </g>
    </symbol>

    <symbol id="settings" viewBox="0 0 268.765 268.765">
        <g>
            <path d="M267.92,119.461c-0.425-3.778-4.83-6.617-8.639-6.617
			c-12.315,0-23.243-7.231-27.826-18.414c-4.682-11.454-1.663-24.812,7.515-33.231c2.889-2.641,3.24-7.062,0.817-10.133
			c-6.303-8.004-13.467-15.234-21.289-21.5c-3.063-2.458-7.557-2.116-10.213,0.825c-8.01,8.871-22.398,12.168-33.516,7.529
			c-11.57-4.867-18.866-16.591-18.152-29.176c0.235-3.953-2.654-7.39-6.595-7.849c-10.038-1.161-20.164-1.197-30.232-0.08
			c-3.896,0.43-6.785,3.786-6.654,7.689c0.438,12.461-6.946,23.98-18.401,28.672c-10.985,4.487-25.272,1.218-33.266-7.574
			c-2.642-2.896-7.063-3.252-10.141-0.853c-8.054,6.319-15.379,13.555-21.74,21.493c-2.481,3.086-2.116,7.559,0.802,10.214
			c9.353,8.47,12.373,21.944,7.514,33.53c-4.639,11.046-16.109,18.165-29.24,18.165c-4.261-0.137-7.296,2.723-7.762,6.597
			c-1.182,10.096-1.196,20.383-0.058,30.561c0.422,3.794,4.961,6.608,8.812,6.608c11.702-0.299,22.937,6.946,27.65,18.415
			c4.698,11.454,1.678,24.804-7.514,33.23c-2.875,2.641-3.24,7.055-0.817,10.126c6.244,7.953,13.409,15.19,21.259,21.508
			c3.079,2.481,7.559,2.131,10.228-0.81c8.04-8.893,22.427-12.184,33.501-7.536c11.599,4.852,18.895,16.575,18.181,29.167
			c-0.233,3.955,2.67,7.398,6.595,7.85c5.135,0.599,10.301,0.898,15.481,0.898c4.917,0,9.835-0.27,14.752-0.817
			c3.897-0.43,6.784-3.786,6.653-7.696c-0.451-12.454,6.946-23.973,18.386-28.657c11.059-4.517,25.286-1.211,33.281,7.572
			c2.657,2.89,7.047,3.239,10.142,0.848c8.039-6.304,15.349-13.534,21.74-21.494c2.48-3.079,2.13-7.559-0.803-10.213
			c-9.353-8.47-12.388-21.946-7.529-33.524c4.568-10.899,15.612-18.217,27.491-18.217l1.662,0.043
			c3.853,0.313,7.398-2.655,7.865-6.588C269.044,139.917,269.058,129.639,267.92,119.461z M134.595,179.491
			c-24.718,0-44.824-20.106-44.824-44.824c0-24.717,20.106-44.824,44.824-44.824c24.717,0,44.823,20.107,44.823,44.824
			C179.418,159.385,159.312,179.491,134.595,179.491z" />
        </g>
    </symbol>
    <symbol id="corner" viewBox="0 0 70 70">
        <rect width="70" height="70" />
        <polygon style="fill:#f5f5f5;" points="5,5 5,70 70,5" />
    </symbol>
    <symbol id="item-video" viewBox="180 -179 459 459">
        <g style="fill:#91CD37;">
            <path d="M588.1-179h-357c-28,0-51,23-51,51v357c0,28,23,51,51,51h357c28,0,51-23,51-51v-357
			C639.1-156,616.1-179,588.1-179z" />
        </g>
        <g>
            <path d="M582.6-88.7h16l-0.1-12.7l-377.8-0.1v12.7h17.1V-60h-17.1v220.9h17.1v28.8h-17.1v12.7l377.8,0.1v-12.7h-16V161
	h16l0.1-220.9h-16V-88.7z M506.8-88.7h34.1v28.8h-34.1V-88.7z M431-88.7h34.1v28.8H431V-88.7z M355.2-88.8h34.1V-60h-34.1V-88.8z
	 M279.5-88.8h34.1V-60h-34.1V-88.8z M313.5,189.8l-34.1,0l0-28.8l34.1,0L313.5,189.8z M389.3,189.7l-34.1,0l0-28.8l34.1,0
	L389.3,189.7z M465,189.7l-34.1,0l0-28.8l34.1,0L465,189.7z M540.8,189.8l-34.1,0l0-28.8l34.1,0L540.8,189.8z M552.6,135.1H266.7
	V-34.1h285.9V135.1z" />
            <polygon points="409.6,74.8 367.5,99.1 367.5,50.5 367.5,1.9 409.6,26.2 451.7,50.5 " />
        </g>
    </symbol>

    <symbol id="item-excel" viewBox="180 -179 459 459">
        <g style="fill:#207245;">
            <path d="M588-179H231c-28.1,0-51,22.9-51,51v357c0,28,22.9,51,51,51h357c28,0,51-23,51-51v-357
				C639-156.1,616-179,588-179z" />
        </g>
        <g>
            <polygon points="516.6,178 465.6,178 409.5,81.1 353.4,178 302.4,178 384,50.5 302.4,-77 353.4,-77 409.5,19.9
	465.6,-77 516.6,-77 435,50.5 " />
        </g>
    </symbol>

    <symbol id="item-word" viewBox="180 -179 459 459">
        <g style="fill:#295496;">
            <path d="M588-179H231c-28.1,0-51,22.9-51,51v357c0,28,22.9,51,51,51h357c28,0,51-23,51-51v-357
				C639-156.1,616.1-179,588-179z" />
        </g>
        <g>
            <polygon points="498.8,178 460.5,178 409.5,-13.3 358.5,178 320.3,178 259,-77 302.4,-77 340.6,114.3 391.6,-77
	427.3,-77 478.3,114.3 516.6,-77 560,-77 " />
        </g>
    </symbol>

    <symbol id="item-ppt" viewBox="180 -179 459 459">
        <g>
            <path style="fill:#D24625;" d="M588-179H231c-28,0-51,23-51,51v357c0,28,23,51,51,51h357c28,0,51-23,51-51v-357C639-156,616-179,588-179z" />
        </g>
        <g>
            <path d="M517.3-72.8l-99.7,99.7l0,0L417.5-114C454.2-114.5,489.2-100.8,517.3-72.8z" />
            <path d="M399.9,215c-77.9,0-141-63.1-141-141S322-67,399.9-67V74h141C540.9,151.9,477.8,215,399.9,215z" />
            <path d="M419.1,51.8L419.1,51.8l98.2-101.1c26.4,25.6,42.8,61.4,42.8,101.1H419.1z" />
        </g>
    </symbol>

    <symbol id="item-link" viewBox="180 -179 459 459">
        <g style="fill:#0B0080;">
            <path d="M588-179H231c-28,0-51,23-51,51v357c0,28,23,51,51,51h357c28,0,51-23,51-51v-357C639-156,616-179,588-179z" />
        </g>
        <g>
            <path d="M498.7-39.1c-15.4-15.5-40.3-16.3-54.9-2.6L399.2,2.9c-14.6,14.6-13.7,39.5,2.6,54.9
	c5.2,5.1,11.2,8.6,17.2,10.3c0.8,7.7-1.7,14.6-6.9,19.7l-10.3,10.3c-8.5-3.4-17.1-9.4-24-16.3c-29.2-29.2-30.1-75.6-2.6-103.9
	l44.6-44.6c28.3-28.3,74.6-26.6,103.8,2.6c29.2,29.2,30.1,75.6,2.6,103.9l-45.5,44.6c-2.6,2.6-4.3,4.3-6.9,6
	c3.5-15.5,2.6-30.9-1.7-46.4l29.2-28.3C515.9,1.1,515.1-23.8,498.7-39.1z" />
            <path d="M293.4,60.3L338,15.7c2.6-2.6,4.3-4.3,6.9-6c-3.5,15.5-2.6,30.9,1.7,46.4l-29.2,29.2
	c-14.6,14.6-13.7,39.5,2.6,54.9c15.5,15.5,40.4,16.3,55,2.6l44.7-44.7c14.6-14.6,13.7-39.5-2.6-54.9c-5.2-5.1-11.2-8.6-17.2-10.3
	c-0.8-7.7,1.7-14.6,6.9-19.7l11.2-12c8.5,3.4,17.1,9.4,24,16.3c29.2,29.2,30.1,75.6,2.6,103.9L400,166
	c-28.3,28.3-74.7,26.6-103.9-2.6S265.2,88.7,293.4,60.3z" />
        </g>
    </symbol>

    <symbol id="item-pdf" viewBox="180 -179 459 459">
        <g style="fill:#DA251C;">
            <path d="M588-179H231c-28.1,0-51,22.9-51,51v357c0,28,22.9,51,51,51h357c28,0,51-23,51-51v-357
				C639-156.1,616-179,588-179z" />
        </g>
        <g>
            <path d="M567.6,91.3c-7.6-12.8-28-17.8-58.6-17.8c-10.2,0-20.4,2.5-33.2,2.5c-10.2-5.1-15.3-10.2-23-15.3
	C437.5,45.4,422.3,22.5,412-5.6c0,0,0,0,0-2.6c10.2-33.1,17.9-74,0-91.8c-5.1-2.5-10.2-5.1-15.3-5.1h-5.1
	c-10.2,0-17.8,10.2-20.4,20.4C361-49,366.2-31.1,376.3-0.5c-7.6,23-15.3,48.5-28,74c-10.2,17.8-17.8,33.1-25.5,45.9
	c-10.2,5.1-17.8,10.2-23,12.8c-30.6,17.9-45.9,40.8-48.4,53.6c0,5.1,0,7.6,2.5,12.8v2.5l12.8,7.6c2.5,2.6,5.1,2.6,10.2,2.6
	c20.4,0,45.9-25.5,76.5-79.1c2.5-2.5,2.5-2.5,5.1-2.5c25.5-10.2,58.7-15.3,102-20.4C486,121.9,516.6,127,537,127
	c10.2,0,17.8-2.6,23-5.1c5.1-5.1,7.7-12.8,10.2-15.3C570.1,101.5,570.1,96.4,567.6,91.3z M269.3,188.2c2.5-7.7,15.3-25.5,33.2-40.8
	c2.5-2.5,7.6-5.1,12.8-7.6C299.8,170.3,284.5,185.6,269.3,188.2z M391.7-92.3c2.5,0,2.5-2.5,2.5-2.5l2.5,2.5c0,2.5,0,2.5,0,2.5
	c2.5,2.5,2.5,12.8,0,25.5v5.1c0,7.7-2.5,12.8-5.1,23C386.5-59.2,386.5-77,391.7-92.3z M358.5,111.7H356h-2.5
	c5.1-10.2,10.2-17.9,15.3-28c10.2-22.9,20.4-43.3,25.5-61.2c10.2,22.9,25.5,43.3,38.3,58.6c2.5,2.5,5.1,5.1,10.2,7.6
	C422.3,91.3,391.7,98.9,358.5,111.7z M552.3,106.6h-2.5c-2.5,0-2.5,0-5.1,0c-12.8,0-30.6-5.1-48.5-12.8c0-2.5,0-2.5,0-2.5
	c2.5,0,2.5,0,5.1,0c35.7,0,45.9,7.7,48.5,10.2c0,2.5,2.5,2.5,2.5,2.5C552.3,106.6,552.3,106.6,552.3,106.6z" />
        </g>
    </symbol>

    <symbol id="item-audio" viewBox="180 -179 459 459">
        <g style="fill:#25AAE1;">
            <path class="st0" d="M588-179H231c-28,0-51,23-51,51v357c0,28,23,51,51,51h357c28,0,51-23,51-51v-357C639-156,616-179,588-179z" />
        </g>
        <g>
            <polygon points="242.3,166.9 273.3,166.9 273.3,197.9 242.3,197.9 242.3,166.9 " />
            <polygon points="242.3,128.9 273.3,128.9 273.3,159.9 242.3,159.9 242.3,128.9 " />
            <polygon points="242.3,91 273.3,91 273.3,122 242.3,122 242.3,91 " />
            <polygon points="242.3,53 273.3,53 273.3,84 242.3,84 242.3,53 " />
            <polygon points="242.3,15.1 273.3,15.1 273.3,46.1 242.3,46.1 242.3,15.1 " />
            <polygon points="242.3,-22.9 273.3,-22.9 273.3,8.1 242.3,8.1 242.3,-22.9 " />
            <polygon points="242.3,-60.8 273.3,-60.8 273.3,-29.8 242.3,-29.8 242.3,-60.8 " />
            <polygon points="242.3,-98.7 273.3,-98.7 273.3,-67.7 242.3,-67.7 242.3,-98.7 " />
            <rect x="280.2" y="166.9" width="31" height="31" />
            <rect x="280.2" y="128.9" width="31" height="31" />
            <rect x="280.2" y="91" width="31" height="31" />
            <rect x="280.2" y="53" width="31" height="31" />
            <rect x="280.2" y="15.1" width="31" height="31" />
            <rect x="318.2" y="166.9" width="31" height="31" />
            <rect x="318.2" y="128.9" width="31" height="31" />
            <rect x="318.2" y="91" width="31" height="31" />
            <rect x="356.1" y="166.9" width="31" height="31" />
            <rect x="356.1" y="128.9" width="31" height="31" />
            <rect x="356.1" y="91" width="31" height="31" />
            <rect x="356.1" y="53" width="31" height="31" />
            <rect x="356.1" y="15.1" width="31" height="31" />
            <rect x="356.1" y="-22.9" width="31" height="31" />
            <rect x="394.1" y="166.9" width="31" height="31" />
            <rect x="394.1" y="128.9" width="31" height="31" />
            <rect x="432" y="166.9" width="31" height="31" />
            <rect x="432" y="128.9" width="31" height="31" />
            <rect x="432" y="91" width="31" height="31" />
            <rect x="432" y="53" width="31" height="31" />
            <rect x="432" y="15.1" width="31" height="31" />
            <rect x="432" y="-22.9" width="31" height="31" />
            <rect x="432" y="-60.8" width="31" height="31" />
            <rect x="470" y="166.9" width="31" height="31" />
            <polygon points="507.9,166.9 538.9,166.9 538.9,197.9 507.9,197.9 507.9,166.9 " />
            <polygon points="507.9,128.9 538.9,128.9 538.9,159.9 507.9,159.9 507.9,128.9 " />
            <polygon points="507.9,91 538.9,91 538.9,122 507.9,122 507.9,91 " />
            <rect x="545.8" y="166.9" width="31" height="31" />
            <rect x="545.8" y="128.9" width="31" height="31" />
            <rect x="545.8" y="91" width="31" height="31" />
            <rect x="545.8" y="53" width="31" height="31" />
        </g>
    </symbol>

    <symbol id="item-text" viewBox="180 -179 459 459">
        <g style="fill:#7F2587;">
            <path d="M588-179H231c-28,0-51,23-51,51v357c0,28,23,51,51,51h357c28,0,51-23,51-51v-357C639-156,616-179,588-179z" />
        </g>
        <g>
            <polygon points="541.4,8.8 492.8,8.8 492.8,-38 454.6,-38 454.6,142.5 475.4,142.5 475.4,192.8 345.3,192.8
	345.3,142.5 364.4,142.5 364.4,-38 327.9,-38 327.9,8.8 277.6,8.8 277.6,-91.8 541.4,-91.8 " />
        </g>
    </symbol>

    <symbol id="item-image" viewBox="180 -179 459 459">
        <g style="fill:#FA9D1C;">
            <path class="st0" d="M588-179H231c-28,0-51,23-51,51v357c0,28,23,51,51,51h357c28,0,51-23,51-51v-357C639-156,616-179,588-179z" />
        </g>
        <g>
            <path d="M302.8-74.3c27.6,0,49.9,22.4,49.9,49.9s-22.4,49.9-49.9,49.9s-49.9-22.4-49.9-49.9S275.2-74.3,302.8-74.3z" />
            <path d="M545.4,174.3H277.1c-18,0-23.2-11.2-11.6-25l46.9-55.2c11.7-13.7,32.4-17.3,46.1-8s32.8,4.5,42.3-10.8l47-75.1
	c9.6-15.3,24.6-14.9,33.4,0.8l80.9,144.7C571,161.5,563.4,174.3,545.4,174.3z" />
        </g>
    </symbol>


</svg>
