<svg xmlns="http://www.w3.org/2000/svg" style="display: none;">
    <svg id="eye" viewBox="0 0 932.15 932.15">
        <g>
            <path d="M466.075,161.525c-205.6,0-382.8,121.2-464.2,296.1c-2.5,5.3-2.5,11.5,0,16.9c81.4,174.899,258.601,296.1,464.2,296.1
		s382.8-121.2,464.2-296.1c2.5-5.3,2.5-11.5,0-16.9C848.875,282.725,671.675,161.525,466.075,161.525z M466.075,676.226
		c-116.1,0-210.1-94.101-210.1-210.101c0-116.1,94.1-210.1,210.1-210.1c116.1,0,210.1,94.1,210.1,210.1
		S582.075,676.226,466.075,676.226z" />
            <circle cx="466.075" cy="466.025" r="134.5" />
        </g>
    </svg>
    <svg id="arrow" viewBox="0 0 451.846 451.847">
        <g>
            <path d="M345.441,248.292L151.154,442.573c-12.359,12.365-32.397,12.365-44.75,0c-12.354-12.354-12.354-32.391,0-44.744
		L278.318,225.92L106.409,54.017c-12.354-12.359-12.354-32.394,0-44.748c12.354-12.359,32.391-12.359,44.75,0l194.287,194.284
		c6.177,6.18,9.262,14.271,9.262,22.366C354.708,234.018,351.617,242.115,345.441,248.292z" />
        </g>
    </svg>

    <svg id="like" viewBox="0 0 502.641 502.641">
        <g>
            <path d="M494.812,235.513c-15.207-36.929-43.94-55.674-85.442-55.674c0,0-27.244,0-49.742,0
			c8.413-19.004,17.774-46.571,17.774-79.79c0-9.103-0.712-18.551-2.438-28.171c-6.536-38.612-32.895-59.147-70.364-55.027
			c-14.841,1.704-19.931,15.79-32.227,49.936c-10.203,28.301-24.181,67.064-44.457,98.233
			c-14.905,22.908-41.459,40.984-63.763,52.115v-2.826H0V458.21h164.197v-13.439c25.842-1.273,40.531-0.518,43.983,0.582
			l29.379,17.062l21.959,13.697c21.334,11.497,114.649,12.597,154.663,6.665c51.446-7.507,63.871-49.677,64.389-51.489
			C482.625,417.311,518.022,291.834,494.812,235.513z M447.572,422.424c-0.302,0.928-7.787,24.03-38.072,28.366
			c-43.055,6.407-122.91,2.524-134.753-3.128c0.086,0.065-19.478-12.209-19.478-12.209l-36.908-20.73
			c-8.564-2.869-27.977-3.193-54.164-2.028V252.036c26.446-10.699,67.409-33.672,90.77-69.415
			c22.347-34.298,37.059-75.088,47.801-104.92c0,0,9.47-23.577,11.756-29.034c16.351,0.086,25.367,9.081,28.732,28.56
			c1.337,7.636,1.855,15.207,1.855,22.52c0,48.34-24.828,86.822-25.195,87.297l-16.372,24.957l105.826,0.043
			c28.301,0,45.428,11.023,55.631,35.743C481.05,286.722,457.754,387.091,447.572,422.424z" />
        </g>
    </svg>

    <svg id="activeLike" viewBox="-54 145.4 502.6 502.6">
        <g>
            <path d="M440.8,380.9c-15.2-36.9-43.9-55.7-85.4-55.7c0,0-27.2,0-49.7,0c8.4-19,17.8-46.6,17.8-79.8
			c0-9.1-0.7-18.6-2.4-28.2c-6.5-38.6-32.9-59.1-70.4-55c-14.8,1.7-19.9,15.8-32.2,49.9c-10.2,28.3-24.2,67.1-44.5,98.2
			c-14.9,22.9-41.5,41-63.8,52.1v-2.8H-54v243.9h164.2v-13.4c25.8-1.3,40.5-0.5,44,0.6l29.4,17.1l22,13.7
			c21.3,11.5,114.6,12.6,154.7,6.7c51.4-7.5,63.9-49.7,64.4-51.5C428.6,562.7,464,437.2,440.8,380.9z" />
        </g>
    </svg>

    <svg id="anonymous" viewBox="0 0 31.828 31.828">
        <g>
            <path d="M31.655,10.747c0-0.004,0.004-0.007,0.004-0.012c0.069-0.569-0.335-1.087-0.904-1.157c-0.568-0.07-1.087,0.336-1.155,0.905
		c-0.07,0.569,0.335,1.087,0.903,1.157c0.122,0.015,0.238-0.001,0.353-0.027c-0.034,1.113-0.211,2.436-1.175,2.994
		c-1.475-4.997-7.07-8.719-13.766-8.719S3.624,9.611,2.148,14.606c-0.965-0.558-1.142-1.88-1.176-2.994
		c0.113,0.025,0.229,0.042,0.352,0.027c0.569-0.07,0.975-0.588,0.904-1.157C2.16,9.915,1.642,9.508,1.073,9.579
		c-0.569,0.07-0.974,0.587-0.904,1.157c0,0.004,0.004,0.007,0.004,0.012c-0.199,0.825-0.236,2.141-0.057,3.608
		c0.294,2.407,1.052,4.294,1.692,4.216c0.007-0.002,0.017-0.008,0.023-0.009c0.526,4.905,4.068,4.879,8.92,4.558
		c-0.021,0.074-0.058,0.143-0.058,0.221c0,0.598,0.628,1.082,1.401,1.082c0.361,0,0.686-0.113,0.935-0.288
		c0.598,0.928,1.66,1.806,2.885,1.806s2.287-0.878,2.884-1.806c0.249,0.175,0.573,0.288,0.936,0.288
		c0.772,0,1.401-0.484,1.401-1.082c0-0.078-0.037-0.146-0.058-0.221c4.851,0.321,8.394,0.348,8.92-4.558
		c0.006,0.001,0.016,0.007,0.021,0.009c0.641,0.078,1.397-1.81,1.691-4.216C31.893,12.888,31.854,11.572,31.655,10.747z
		 M10.287,17.497c-2.639,0-6.194,0.85-6.194,0.85c0.657-1.98,3.115-5.734,6.123-5.734c2.64,0,3.434,3.623,3.434,5.734
		C13.648,18.348,12.927,17.497,10.287,17.497z M21.542,17.497c-2.639,0-3.361,0.85-3.361,0.85c0-2.111,0.794-5.734,3.434-5.734
		c3.009,0,5.467,3.754,6.123,5.734C27.736,18.348,24.182,17.497,21.542,17.497z" />
        </g>
    </svg>

    <svg id="settings" viewBox="0 0 268.765 268.765">
        <g>
            <path d="M267.92,119.461c-0.425-3.778-4.83-6.617-8.639-6.617
			c-12.315,0-23.243-7.231-27.826-18.414c-4.682-11.454-1.663-24.812,7.515-33.231c2.889-2.641,3.24-7.062,0.817-10.133
			c-6.303-8.004-13.467-15.234-21.289-21.5c-3.063-2.458-7.557-2.116-10.213,0.825c-8.01,8.871-22.398,12.168-33.516,7.529
			c-11.57-4.867-18.866-16.591-18.152-29.176c0.235-3.953-2.654-7.39-6.595-7.849c-10.038-1.161-20.164-1.197-30.232-0.08
			c-3.896,0.43-6.785,3.786-6.654,7.689c0.438,12.461-6.946,23.98-18.401,28.672c-10.985,4.487-25.272,1.218-33.266-7.574
			c-2.642-2.896-7.063-3.252-10.141-0.853c-8.054,6.319-15.379,13.555-21.74,21.493c-2.481,3.086-2.116,7.559,0.802,10.214
			c9.353,8.47,12.373,21.944,7.514,33.53c-4.639,11.046-16.109,18.165-29.24,18.165c-4.261-0.137-7.296,2.723-7.762,6.597
			c-1.182,10.096-1.196,20.383-0.058,30.561c0.422,3.794,4.961,6.608,8.812,6.608c11.702-0.299,22.937,6.946,27.65,18.415
			c4.698,11.454,1.678,24.804-7.514,33.23c-2.875,2.641-3.24,7.055-0.817,10.126c6.244,7.953,13.409,15.19,21.259,21.508
			c3.079,2.481,7.559,2.131,10.228-0.81c8.04-8.893,22.427-12.184,33.501-7.536c11.599,4.852,18.895,16.575,18.181,29.167
			c-0.233,3.955,2.67,7.398,6.595,7.85c5.135,0.599,10.301,0.898,15.481,0.898c4.917,0,9.835-0.27,14.752-0.817
			c3.897-0.43,6.784-3.786,6.653-7.696c-0.451-12.454,6.946-23.973,18.386-28.657c11.059-4.517,25.286-1.211,33.281,7.572
			c2.657,2.89,7.047,3.239,10.142,0.848c8.039-6.304,15.349-13.534,21.74-21.494c2.48-3.079,2.13-7.559-0.803-10.213
			c-9.353-8.47-12.388-21.946-7.529-33.524c4.568-10.899,15.612-18.217,27.491-18.217l1.662,0.043
			c3.853,0.313,7.398-2.655,7.865-6.588C269.044,139.917,269.058,129.639,267.92,119.461z M134.595,179.491
			c-24.718,0-44.824-20.106-44.824-44.824c0-24.717,20.106-44.824,44.824-44.824c24.717,0,44.823,20.107,44.823,44.824
			C179.418,159.385,159.312,179.491,134.595,179.491z" />
        </g>
    </svg>
    <!--<symbol id="corner" viewBox="0 0 70 70">
        <rect width="70" height="70" />
        <polygon style="fill:#f5f5f5;" points="5,5 5,70 70,5" />
    </symbol>-->
    <svg id="comment" viewBox="0 0 371.117 371.117">
        <g>
            <path d="M316.33,64.556c-34.982-27.607-81.424-42.811-130.772-42.811c-49.348,0-95.79,15.204-130.771,42.811
	C19.457,92.438,0,129.615,0,169.238c0,23.835,7.308,47.508,21.133,68.46c12.759,19.335,31.07,36.42,53.088,49.564
	c-1.016,7.116-6.487,27.941-35.888,52.759c-1.513,1.278-2.13,3.328-1.572,5.229c0.558,1.9,2.185,3.292,4.148,3.55
	c0.178,0.023,4.454,0.572,12.052,0.572c21.665,0,65.939-4.302,120.063-32.973c4.177,0.221,8.387,0.333,12.534,0.333
	c49.348,0,95.789-15.204,130.772-42.811c35.33-27.882,54.787-65.059,54.787-104.683C371.117,129.615,351.66,92.438,316.33,64.556z" />
        </g>
    </svg>

    <svg id="whatsapp" viewBox="-57 149.2 497 495.8">
        <g>
            <path style="fill:#fff" d="M-57,645c13.5-43.5,29.1-84.8,43.3-127.4c-94.5-165.4,22.5-351.6,181-367.1c149.6-14.6,272.3,92.9,272.7,239.6
	c0.4,154.8-149.7,284.8-318.6,231.9c-12.7-4-28.5-17-43.3-17.8c-20.7-1.2-47.9,13.7-68.8,20.4C-13.7,632-33.6,639.4-57,645z" />
            <path style="fill:#fff" d="M136.7,275.4c14.3,30,36.5,74.4,0,94.3c18.6,39.2,49.2,66.3,89.2,84.1c13.3-8.8,22-22.2,33.1-33.1
	c23.2,9.1,44.9,19.7,63.7,33.1c1.9,43.8-35,60.1-66.3,58.6c-65.9-3-156.6-86.3-178.4-147.8C65.1,328.1,80,258.3,136.7,275.4z" />
            <path style="fill:#14a049;" d="M9.3,581.3c7.1-23.5,14.8-46.4,22.9-68.8C-60.2,381.4,30,202.2,180,191.3c131.4-9.6,229.2,99.3,216.6,221.7
	C382.7,548.2,219.5,641,83.1,558.3C57.4,564.8,34.3,574,9.3,581.3z M78.1,364.6c21.9,61.5,112.5,144.8,178.4,147.8
	c31.3,1.4,68.2-14.8,66.3-58.6c-18.8-13.5-40.5-24.1-63.7-33.1c-11.1,11-19.8,24.3-33.1,33.1c-40-17.8-70.7-44.9-89.2-84.1
	c36.5-19.9,14.3-64.3,0-94.3C80,258.3,65.1,328.1,78.1,364.6z" />
        </g>
    </svg>

    <svg id="fbgrey" viewBox="-63 155 484 484">
        <g>
            <path style="fill: #585f66" d="M180,155C46.3,155-62,263.3-62,397S46.3,639,180,639s242-108.3,242-242S313.6,155,180,155z" />
            <path style="fill: #888b8e" d="M242.9,397H203v145.9h-54.7V397h-36.5v-50.3h36.5l-0.1-29.6c0-41,11.1-66,59.4-66h40.2v50.3h-25.1
	c-18.8,0-19.7,7-19.7,20.1v25.2h45.2L242.9,397z" />
        </g>
    </svg>

    <svg id="facebook-colored" viewBox="-63 155 484 484">
        <g>
            <path style="fill: #3A5795" d="M180,155C46.3,155-62,263.3-62,397S46.3,639,180,639s242-108.3,242-242S313.6,155,180,155z" />
            <path style="fill: #FFFFFF" d="M242.9,397H203v145.9h-54.7V397h-36.5v-50.3h36.5l-0.1-29.6c0-41,11.1-66,59.4-66h40.2v50.3h-25.1
	c-18.8,0-19.7,7-19.7,20.1v25.2h45.2L242.9,397z" />
        </g>
    </svg>
    <svg id="facebook-transparent" viewBox="-63 155 484 484">
        <g>
            <path d="M180,155C46.3,155-62,263.3-62,397S46.3,639,180,639s242-108.3,242-242S313.6,155,180,155z" />
            <path style="fill: #FFFFFF" d="M242.9,397H203v145.9h-54.7V397h-36.5v-50.3h36.5l-0.1-29.6c0-41,11.1-66,59.4-66h40.2v50.3h-25.1
	c-18.8,0-19.7,7-19.7,20.1v25.2h45.2L242.9,397z" />
        </g>
    </svg>
    <svg id="flashcard-arrow" viewBox="0 0 21 16">
        <path fill-rule="evenodd"
              d="M20.889,13.220 C20.814,13.296 20.726,13.333 20.625,13.333 L4.500,13.333 L4.500,15.619 C4.500,15.722 4.462,15.811 4.388,15.887 C4.314,15.962 4.226,15.999 4.125,15.999 C4.031,15.999 3.937,15.960 3.844,15.881 L0.105,12.071 C0.035,12.000 -0.000,11.912 -0.000,11.810 C-0.000,11.698 0.035,11.607 0.105,11.535 L3.855,7.726 C3.925,7.655 4.015,7.619 4.124,7.619 C4.226,7.619 4.314,7.657 4.388,7.732 C4.462,7.807 4.500,7.897 4.500,8.000 L4.500,10.285 L20.625,10.285 C20.726,10.285 20.814,10.323 20.889,10.398 C20.963,10.474 21.000,10.563 21.000,10.666 L21.000,12.952 C21.000,13.055 20.963,13.144 20.889,13.220 ZM17.144,8.273 C17.074,8.345 16.984,8.381 16.875,8.381 C16.773,8.381 16.685,8.343 16.611,8.267 C16.537,8.192 16.500,8.103 16.500,8.000 L16.500,5.714 L0.374,5.714 C0.273,5.714 0.185,5.676 0.111,5.601 C0.037,5.525 -0.000,5.436 -0.000,5.333 L-0.000,3.047 C-0.000,2.944 0.037,2.855 0.111,2.779 C0.185,2.704 0.273,2.666 0.374,2.666 L16.500,2.666 L16.500,0.381 C16.500,0.269 16.535,0.178 16.605,0.107 C16.675,0.035 16.765,-0.001 16.874,-0.001 C16.968,-0.001 17.062,0.039 17.156,0.119 L20.894,3.916 C20.965,3.988 21.000,4.079 21.000,4.190 C21.000,4.301 20.965,4.393 20.894,4.464 L17.144,8.273 Z" />
    </svg>
    <svg id="flashcard-icon" viewBox="0 0 43 36">
        <path fill-rule="evenodd"
              d="M42.126,34.550 C41.183,35.631 39.596,35.632 37.193,35.634 C37.051,35.634 18.334,35.634 17.538,35.634 L16.930,35.634 C11.666,35.620 11.287,34.822 11.282,29.322 C14.649,28.300 31.360,23.221 31.492,23.179 C34.033,22.404 35.712,21.893 36.363,20.448 C36.964,19.111 36.472,17.481 35.575,14.523 L35.225,13.367 L37.191,13.367 C39.757,13.372 41.252,13.426 42.154,14.483 C42.997,15.469 42.997,16.912 42.996,19.786 L42.996,29.216 C42.996,32.012 42.996,33.552 42.126,34.550 ZM30.201,21.951 C30.069,21.992 11.825,27.536 11.663,27.585 L11.090,27.759 C9.455,28.250 8.534,28.486 7.729,28.486 C5.495,28.486 4.972,26.761 3.931,23.323 L1.235,14.431 C0.405,11.689 -0.012,10.313 0.517,9.144 C1.095,7.866 2.622,7.400 4.932,6.696 L5.298,6.585 C5.446,6.541 23.697,0.994 23.833,0.953 C25.378,0.487 26.457,0.181 27.346,0.181 C29.580,0.181 30.103,1.905 31.144,5.341 L33.839,14.236 C34.639,16.873 35.079,18.325 34.543,19.516 C33.962,20.804 32.466,21.261 30.201,21.951 Z" />
    </svg>
    <svg id="shuffle" viewBox="0 0 22 20">
        <path fill-rule="evenodd"
              d="M16.589,5.870 L18.007,5.870 L18.007,8.241 L21.982,4.070 L18.007,-0.011 L18.007,2.696 L16.589,2.696 C12.531,2.696 10.240,5.800 8.218,8.537 C6.403,10.999 4.833,13.320 2.300,13.320 L-0.001,13.320 L-0.001,16.494 L2.300,16.494 C6.359,16.494 8.650,13.195 10.672,10.458 C12.487,7.996 14.052,5.870 16.589,5.870 ZM5.946,7.685 C6.118,7.454 6.295,7.219 6.471,6.978 C6.903,6.396 7.355,5.780 7.845,5.168 C6.393,3.769 4.641,2.736 2.300,2.736 L-0.001,2.736 L-0.001,5.910 C-0.001,5.910 0.652,5.880 2.300,5.910 C3.896,5.945 4.896,6.617 5.946,7.685 ZM18.007,13.345 L16.589,13.345 C15.044,13.345 13.856,12.553 12.752,11.375 C12.644,11.526 12.531,11.676 12.418,11.826 C11.933,12.483 11.412,13.190 10.839,13.887 C12.330,15.386 14.136,16.519 16.589,16.519 L18.007,16.519 L18.007,19.241 L21.982,15.160 L18.007,10.989 L18.007,13.345 Z" />
    </svg>
    <svg id="image-icon" viewBox="0 0 23 19">
        <path fill-rule="evenodd"
              d="M21.083,15.722 L21.083,2.850 C21.083,2.326 20.655,1.900 20.126,1.900 L2.873,1.900 C2.344,1.900 1.916,2.325 1.916,2.850 L1.916,15.200 L7.486,7.608 C7.797,7.184 8.302,7.184 8.614,7.608 L12.841,13.371 L15.536,9.697 C15.848,9.274 16.351,9.273 16.663,9.697 L21.083,15.722 ZM-0.000,1.900 C-0.000,0.850 0.860,-0.000 1.916,-0.000 L21.083,-0.000 C22.142,-0.000 23.000,0.850 23.000,1.900 L23.000,17.100 C23.000,18.149 22.140,19.000 21.083,19.000 L1.916,19.000 C0.858,19.000 -0.000,18.149 -0.000,17.100 L-0.000,1.900 ZM17.250,7.410 C18.308,7.410 19.166,6.559 19.166,5.510 C19.166,4.460 18.308,3.610 17.250,3.610 C16.191,3.610 15.333,4.460 15.333,5.510 C15.333,6.559 16.191,7.410 17.250,7.410 Z" />
    </svg>
    <svg id="pin" viewBox="0 0 27 28">
        <path fill-rule="evenodd"
              d="M26.438,8.191 L19.698,1.423 C19.045,0.764 17.974,0.764 17.317,1.423 C16.661,2.085 16.661,3.154 17.317,3.813 L18.102,4.601 L7.641,12.008 L7.136,11.500 C6.153,10.513 4.550,10.513 3.567,11.500 C3.237,11.831 3.237,12.362 3.567,12.694 L8.203,17.345 L0.476,25.103 C-0.184,25.759 -0.184,26.834 0.476,27.494 C1.133,28.153 2.197,28.153 2.853,27.494 L10.580,19.732 L15.213,24.387 C15.543,24.718 16.078,24.718 16.405,24.387 C17.391,23.396 17.391,21.790 16.405,20.800 L15.903,20.300 L23.273,9.789 L24.058,10.581 C24.711,11.237 25.782,11.237 26.438,10.581 C27.098,9.918 27.098,8.853 26.438,8.191 Z" />
    </svg>
    <svg id="flip" viewBox="0 0 20 19">
        <path fill-rule="evenodd"
              d="M19.998,2.593 L19.998,16.408 C19.998,17.844 18.799,19.007 17.317,19.007 L8.148,19.007 C6.667,19.007 5.467,17.844 5.467,16.408 L5.467,14.151 L7.442,14.562 L7.442,16.340 C7.442,16.750 7.795,17.092 8.219,17.092 L17.247,17.092 C17.670,17.092 18.023,16.750 18.023,16.340 L18.023,2.730 C18.023,2.320 17.670,1.978 17.247,1.978 L8.219,1.978 C7.795,1.978 7.442,2.320 7.442,2.730 L7.442,7.859 L5.467,7.722 L5.467,6.013 C1.518,7.791 2.434,8.680 4.621,9.159 C4.903,9.227 5.185,9.295 5.467,9.295 C6.102,9.364 6.807,9.432 7.442,9.501 C7.866,9.569 8.289,9.569 8.712,9.569 C10.123,9.637 11.181,9.637 11.181,9.637 L11.181,7.517 C11.181,7.175 11.604,7.244 11.745,7.381 L15.836,10.116 L17.459,11.210 C17.600,11.347 17.600,11.552 17.459,11.758 L15.836,12.852 L13.861,14.219 L11.816,15.587 C11.745,15.656 11.604,15.724 11.534,15.724 C11.463,15.724 11.251,15.724 11.251,15.519 L11.251,13.809 C10.193,13.604 9.206,13.467 8.289,13.262 C8.006,13.194 7.795,13.125 7.513,13.125 C6.807,12.989 6.102,12.783 5.538,12.647 C5.044,12.510 4.621,12.373 4.198,12.236 C-5.960,8.748 5.538,4.645 5.538,4.645 L5.538,2.593 C5.538,1.158 6.737,-0.006 8.219,-0.006 L17.388,-0.006 C18.799,-0.006 19.998,1.158 19.998,2.593 Z" />
    </svg>
    <svg id="keyboard" viewBox="0 0 98.1 62.2">
        <path d="M92.4,0H5.6C2.5,0,0,2.5,0,5.6v51c0,3.1,2.5,5.6,5.6,5.6h86.9c3.1,0,5.6-2.5,5.6-5.6v-51C98,2.5,95.5,0,92.4,0z M61.3,11.7
	c0-0.8,0.6-1.4,1.4-1.4h5.7c0.8,0,1.4,0.6,1.4,1.4v5.6c0,0.8-0.6,1.4-1.4,1.4h-5.7c-0.8,0-1.4-0.6-1.4-1.4V11.7z M54.4,26.9H60
	c0.8,0,1.4,0.6,1.4,1.4v5.6c0,0.8-0.6,1.4-1.4,1.4h-5.7c-0.8,0-1.4-0.6-1.4-1.4v-5.6C53,27.5,53.6,26.9,54.4,26.9z M44.8,11.7
	c0-0.8,0.6-1.4,1.4-1.4h5.7c0.8,0,1.4,0.6,1.4,1.4v5.6c0,0.8-0.6,1.4-1.4,1.4h-5.7c-0.8,0-1.4-0.6-1.4-1.4V11.7z M37.9,26.9h5.7
	c0.8,0,1.4,0.6,1.4,1.4v5.6c0,0.8-0.6,1.4-1.4,1.4h-5.7c-0.8,0-1.4-0.6-1.4-1.4v-5.6C36.5,27.5,37.1,26.9,37.9,26.9z M28.3,11.7
	c0-0.8,0.6-1.4,1.4-1.4h5.7c0.8,0,1.4,0.6,1.4,1.4v5.6c0,0.8-0.6,1.4-1.4,1.4h-5.7c-0.8,0-1.4-0.6-1.4-1.4
	C28.3,17.3,28.3,11.7,28.3,11.7z M11.8,11.7c0-0.8,0.6-1.4,1.4-1.4h5.7c0.8,0,1.4,0.6,1.4,1.4v5.6c0,0.8-0.6,1.4-1.4,1.4h-5.7
	c-0.8,0-1.4-0.6-1.4-1.4V11.7z M27,35.2h-5.7c-0.8,0-1.4-0.6-1.4-1.4v-5.6c0-0.8,0.6-1.4,1.4-1.4H27c0.8,0,1.4,0.6,1.4,1.4v5.6
	C28.4,34.6,27.8,35.2,27,35.2z M69.7,50.5c0,0.8-0.6,1.4-1.4,1.4h-1.7h-4H51.8h-5.7H29.7c-0.8,0-1.4-0.6-1.4-1.4v-5.6
	c0-0.8,0.6-1.4,1.4-1.4h16.5h5.7h10.8h4h1.7c0.8,0,1.4,0.6,1.4,1.4L69.7,50.5L69.7,50.5z M76.5,35.2h-5.7c-0.8,0-1.4-0.6-1.4-1.4
	v-5.6c0-0.8,0.6-1.4,1.4-1.4h5.7c0.8,0,1.4,0.6,1.4,1.4v5.6C77.9,34.6,77.3,35.2,76.5,35.2z M86.2,17.3c0,0.8-0.6,1.4-1.4,1.4h-5.7
	c-0.8,0-1.4-0.6-1.4-1.4v-5.6c0-0.8,0.6-1.4,1.4-1.4h5.7c0.8,0,1.4,0.6,1.4,1.4V17.3z" />
    </svg>
    <svg id="podium" viewBox="0 0 327.9 147.1" style="enable-background:new 0 0 327.9 147.1;">
        <path d="M319.3,69.1h-97.8V8.6c0-4.8-3.9-8.6-8.6-8.6h-106c-4.8,0-8.6,3.9-8.6,8.6v32.8H8.6c-4.8,0-8.6,3.9-8.6,8.6v88.4
	c0,4.8,3.9,8.6,8.6,8.6h310.6c4.8,0,8.6-3.9,8.6-8.6V77.7C327.9,73,324,69.1,319.3,69.1z M167.2,105.1c4.5,0,8.2,3.7,8.2,8.2
	c0,4.5-3.7,8.2-8.2,8.2h-17.5c-4.5,0-8.2-3.7-8.2-8.2c0-4.5,3.7-8.2,8.2-8.2h0.6V54.6h-0.6c-4.5,0-8.2-3.7-8.2-8.2
	c0-4.5,3.7-8.2,8.2-8.2h17.5c4.5,0,8.2,3.7,8.2,8.2c0,4.5-3.7,8.2-8.2,8.2h-0.6v50.5H167.2z" />
    </svg>
</svg>
