<svg xmlns="http://www.w3.org/2000/svg" style="display: none;">
    <!-- Generator: Adobe Illustrator 19.1.1, SVG Export Plug-In . SVG Version: 6.00 Build 0)  -->
    <symbol id="FF" viewBox="-38 40.2 21.8 21.8">
        <g>
            <path style="fill:#030104" d="M-38,49.4L-38,49.4C-38,49.5-38,49.5-38,49.4z" />
        </g>
        <g>
            <path style="fill:#030104" d="M-38,49.4L-38,49.4L-38,49.4z" />
        </g>
        <g>
            <path style="fill:#EC8840" d="M-16.4,48.5c-0.1,0.8-0.2,1.1-0.3,1.2c0,0,0-4-1.4-5.3c0.2,2.3,0,1.4,0,1.4c-1.8-3.1-5.2-5.2-9-5.2
						c-3.2,0-6.1,1.5-8,3.8c0,0,0,0-0.1,0c-0.3-0.3-0.5-1.6-0.5-1.6l0,0l0,0l0,0l0,0l0,0l0,0l0,0l0,0l0,0l0,0l0,0l0,0l0,0l0,0l0,0
						l0,0c0,0-0.6,0.7-0.8,1.5c-0.1,0.6,0,0,0,0l0,0l0,0l0,0c-0.2,0.7-0.2,1.4-0.2,2.4l0,0c0,0-1,1.1-1.1,2.2c0,0.2-0.1,0.4-0.1,0.4
						l0,0v0.1l0,0c0,0.1,0,0.2,0,0.2l0.6-0.5c0,0.1,0,0.1,0,0.2c-0.2,0.5-0.3,1.1-0.4,1.6c-0.2,1.8,0.2,3.5,1.1,5.2
						c0,0,0.4,0.7,0.6,1l0.1,0.1l0,0c2,2.7,5.1,4.4,8.6,4.4c3.1,0,6-1.4,7.9-3.5l0,0c0.1-0.2,0.2-0.3,0.4-0.5
						c0.3-0.4,0.6-0.8,0.9-1.3l0,0c0.8-1.4,1.4-2.8,1.6-4.3C-16.1,50.8-16.1,49.6-16.4,48.5z" />
        </g>
        <g>
            <path style="fill:#EC8840" d="M-35.1,44.3L-35.1,44.3L-35.1,44.3L-35.1,44.3L-35.1,44.3L-35.1,44.3L-35.1,44.3z" />
        </g>
        <g>
            <path style="fill:#030104" d="M-37.9,49c0,0.1,0,0.3,0,0.4C-38,49.2-37.9,49-37.9,49L-37.9,49z" />
        </g>
        <g>
            <path style="fill:#030104" d="M-38,49.4L-38,49.4L-38,49.4L-38,49.4z" />
        </g>
        <g>
            <path style="fill:#2394BC" d="M-20.7,48.1c-0.2-0.3-0.5-0.6-0.9-0.7c0.5,1.8,0.5,3.3,0.1,4.5c-0.3-0.8-0.5-1.2-0.7-1.4
		c0.3,2.4-0.1,4.2-1.2,5.4c0.2-0.7,0.3-1.3,0.2-1.7c-1.3,1.9-2.7,2.9-4.3,3c-0.6,0-1.2-0.1-1.8-0.3l0,0c-0.1,0-0.1,0-0.2-0.1l0,0
		c0,0-0.1,0-0.1-0.1c0,0-0.1,0-0.1-0.1c0,0-0.1,0-0.1-0.1c0,0-0.1,0-0.1-0.1c0,0-0.1,0-0.1-0.1c0,0-0.1,0-0.1-0.1c0,0-0.1,0-0.1-0.1
		c0,0-0.1,0-0.1-0.1l-0.1-0.1l-0.1-0.1l-0.1-0.1l-0.1-0.1l-0.1-0.1l-0.1-0.1l-0.1-0.1l-0.1-0.1l-0.1-0.1c0,0,0,0-0.1-0.1l0,0
		c0,0,0,0,0.1,0c0,0,0,0,0.1,0c0,0,0,0,0.1,0h0.1c0,0,0,0,0.1,0h0.1c0,0,0,0,0.1,0c0,0,0,0,0.1,0c0,0,0,0,0.1,0c0,0,0,0,0.1,0h0.1
		h0.1h0.1h0.1h0.1h0.1h0.1h0.1h0.1h0.1h0.1h0.1h0.1h0.1h0.1h0.1h0.1h0.1h0.1h0.1h0.1h0.1h0.1h0.1l0,0h0.1l0.1-0.1l0.1-0.1l0.1-0.1
		l0.1-0.1l0.1-0.1l0.1-0.1l0.1-0.1l0.1-0.1l0.1-0.1l0.1-0.1l0.1-0.1l0.1-0.1l0,0l0,0c0.2-0.1,0.3-0.1,0.5,0c0.3,0,0.5-0.2,0.3-0.5
		c-0.2-0.2-0.4-0.4-0.7-0.6c-0.7-0.4-1.4-0.3-2.2,0.2c-0.7,0.4-1.4,0.4-2.1,0c-0.4-0.3-0.9-0.7-1.3-1.2l-0.2-0.2l0,0l0,0l0,0l0,0
		c0-0.1,0-0.1,0-0.2c0-0.1,0-0.1,0-0.2c0-0.1,0.1-0.2,0.1-0.2c0.1-0.1,0.2-0.2,0.3-0.2h0.1h-0.1c-0.1,0-0.1,0-0.2,0
		c-0.1,0-0.1,0-0.2,0h-0.1h-0.1c-0.1,0-0.1,0-0.2,0l0,0c-0.1,0-0.1,0-0.2,0c0.1,0,0.1,0,0.2,0c0.1,0,0.2,0,0.3,0s0.3,0,0.6,0
		c0.5,0,1,0.1,1.6,0.3c0.1-0.6,0-1.1-0.4-1.7l0,0c0-0.1-0.1-0.1-0.1-0.2c0,0,0,0,0.1,0.1c0,0,0,0.1,0.1,0.1l0,0l0,0c0,0,0,0,0.1-0.1
		c0,0,0,0,0.1-0.1c0,0,0,0,0.1-0.1c0,0,0,0,0.1-0.1c0,0,0,0,0.1-0.1c0,0,0,0,0.1-0.1c0,0,0,0,0.1-0.1c0,0,0,0,0.1-0.1
		c0,0,0,0,0.1-0.1c0,0,0,0,0.1-0.1c0,0,0,0,0.1-0.1c0,0,0,0,0.1,0c0,0,0,0,0.1-0.1c0,0,0,0,0.1-0.1c0,0,0,0,0.1,0c0,0,0,0,0.1,0
		c0,0,0,0,0.1,0c0,0,0,0,0.1,0c0,0,0,0,0.1,0c0,0,0,0,0.1,0l0,0c0,0,0,0,0.1,0c0,0,0,0,0.1,0c0,0,0,0,0.1-0.1c0,0,0-0.1,0.1-0.1
		c0-0.1,0.1-0.1,0.1-0.2l0,0l0,0l0,0c0.1-0.2,0.1-0.3-0.1-0.4c-0.4,0-1.2-0.1-1.2-0.1l0,0c-0.9-0.4-1.4-1.2-1.4-1.2l0,0l0,0l0,0l0,0
		l0,0l0,0l0,0l0,0l0,0l0,0l0,0l0,0c-0.2-1.4,1.7-2.3,1.7-2.3s-2.2,0.6-2.9,1.4H-32h0.1l0,0l0,0l0,0l0,0l0,0l0,0
		c-1.3-0.3-2.4,0.2-2.4,0.2l0,0l0,0l0,0l0,0c-0.2-0.1-0.4-0.2-0.5-0.4c1.9-2.3,4.7-3.7,7.9-3.7c2.4,0,4.7,0.9,6.4,2.3
		c-0.3-0.1-0.6-0.3-0.9-0.4c-0.9-0.3-2-0.4-3.2-0.5c0.5,0.1,1,0.2,1.4,0.4c0,0,0,0,0.1,0c0.5,0.2,0.9,0.6,1,0.9
		c-0.5-0.1-1-0.1-1.4,0.1C-21.9,45-20.5,46.4-20.7,48.1z" />
        </g>
    </symbol>


    <symbol id="IE" viewBox="193 -193.4 486.4 486.4">
        <g style="fill:#62B1F6">
            <path d="M560.1,84.3h118c0.9-8.2,1.3-16.5,1.3-25.1c0-40.1-10.8-77.7-29.6-110.1c19.4-51.7,18.7-95.5-7.3-121.7
			c-24.7-24.6-91.1-20.6-166.2,12.6c-5.6-0.4-11.2-0.6-16.8-0.6c-103,0-189.5,70.9-213.4,166.4c32.3-41.4,66.3-71.4,111.7-93.2
			c-4.1,3.9-28.2,27.8-32.3,31.9C205.9,64.2,168.1,220.6,208.7,261.2c30.9,30.9,86.9,25.7,151.2-5.8c29.9,15.2,63.8,23.8,99.6,23.8
			c96.6,0,178.4-62.2,208-148.7H548.6c-16.4,30.2-48.4,50.7-85.1,50.7s-68.7-20.5-85.1-50.7c-7.3-13.6-11.5-29.3-11.5-45.8v-0.4
			L560.1,84.3L560.1,84.3z M367.1,26.3c2.7-48.6,43.1-87.3,92.4-87.3s89.7,38.7,92.4,87.3L367.1,26.3L367.1,26.3z M641.5-148.2
			c16.8,16.9,16.3,48.1,2,87c-24.6-37.5-60.3-67-102.4-83.8C586.1-164.3,622.8-166.9,641.5-148.2z M239.7,253.5
			c-21.4-21.4-14.9-66.3,12.6-120.4c17.2,48.1,50.6,88.5,93.7,114.6C298.3,269.3,259.3,273,239.7,253.5z" />
        </g>
    </symbol>

    <symbol id="chrome" viewBox="-261 62.4 435.8 436.6">
        <g style="fill:#FFFFFF">
            <path d="M-146.7,282.5c0-56.6,45.9-102.5,102.5-102.5S58.3,225.9,58.3,282.5S12.4,385-44.2,385
	S-146.7,339.1-146.7,282.5z" />
        </g>
        <g style="fill:#E6312A">
            <path d="M-43.7,62.4c0,0,128.5-5.8,196.6,123.3c-36,0-207.5,0-207.5,0s-39.2-1.3-72.6,46.3
	c-9.6,19.9-19.9,40.5-8.3,80.9c-16.7-28.2-88.7-153.5-88.7-153.5S-173.4,67.6-43.7,62.4z" />
        </g>
        <g style="fill:#FEDA00">
            <path d="M146.2,390.3c0,0-59.2,114.1-205.1,108.5c18-31.1,103.8-179.7,103.8-179.7s20.7-33.3-3.7-86
	c-12.4-18.3-25.1-37.5-65.9-47.7c32.8-0.3,177.3,0,177.3,0S206.7,275.3,146.2,390.3z" />
        </g>
        <g style="fill:#65B54C">
            <path d="M-232.6,391.1c0,0-69.2-108.4,8.6-231.9c18,31.2,103.7,179.7,103.7,179.7s18.5,34.6,76.3,39.8
	c22.1-1.6,45-3,74.3-33.2C14.2,374.1-58.4,499-58.4,499S-163.3,501-232.6,391.1z" />
        </g>
        <g style="fill:#FFFFFF">
            <path d="M-141.4,282.5c0-53.7,43.5-97.2,97.2-97.2S53,228.8,53,282.5s-43.5,97.2-97.2,97.2S-141.4,336.2-141.4,282.5z" />
        </g>
        <g style="fill:#146CB5">
            <path d="M-125.1,282.5c0-44.7,36.2-80.9,80.9-80.9s80.9,36.2,80.9,80.9s-36.2,80.9-80.9,80.9S-125.1,327.2-125.1,282.5z
	" />
        </g>
    </symbol>
</svg>

