<svg xmlns="http://www.w3.org/2000/svg" style="display: none;">
    <!-- Generator: Adobe Illustrator 19.1.0, SVG Export Plug-In . SVG Version: 6.00 Build 0)  -->
    <symbol id="createBox" viewBox="-224 26 510 510" xml:space="preserve">
<g>
    <path style="fill:#F5F5F5" d="M-20,87.9h-153c-28.1,0-51,22.9-51,51v306c0,28,22.9,51,51,51h408c28,0,51-23,51-51v-255c0-28.1-23-51-51-51
			H31L-20,87.9z" />
	</g>
<g>
    <path style="fill:#212427" d="M31,197.4c-36.1,0-65.4,29.3-65.4,65.4v37.3c0,0.4-0.5,1.1-0.9,1.3c-3.5,1.2-6.4,2.2-9,3.2
			c-3.1,1.2-5.5,4.7-5.5,8.1v85.8c0,3.4,2.3,6.9,5.5,8.1C-20.3,416.2,5.1,421,31,421s51.3-4.8,75.4-14.4c3.1-1.2,5.5-4.7,5.5-8.1
			v-85.8c0-3.4-2.4-6.9-5.5-8.1c-2.6-1-5.5-2-9-3.2c-0.4-0.1-0.9-0.9-0.9-1.3v-37.3C96.4,226.8,67.1,197.4,31,197.4z M13.2,338.9
			c0-9.8,8-17.8,17.8-17.8c9.8,0,17.8,8,17.8,17.8c0,6.5-3.7,12-8.9,15.1v29.4c0,4.9-4,8.9-8.9,8.9c-4.9,0-8.9-4-8.9-8.9v-29.4
			C16.9,350.8,13.2,345.4,13.2,338.9z M73.9,262.8V295c-14.1-3-28.5-4.6-42.9-4.6c-14.4,0-28.8,1.5-42.9,4.6v-32.2
			c0-23.7,19.2-42.9,42.9-42.9C54.7,219.9,73.9,239.2,73.9,262.8z" />
	</g>
</symbol>

    <symbol id="createClass" viewBox="-224 26 510 510">
        <g>
            <path style="fill:#3293f6" d="M-20,88.5h-153c-28.1,0-51,22.9-51,51v306c0,28,22.9,51,51,51h408c28,0,51-23,51-51v-255c0-28.1-23-51-51-51
			H31L-20,88.5z" />
        </g>
        <g>
            <path style="fill:#F5F5F5" d="M91.6,358.9c-8.3,0-16,2.8-22.1,7.5L6.3,328.5c0.3-1.9,0.5-3.9,0.5-5.9c0-2-0.2-4-0.5-5.9l63.2-37.9
			c6.1,4.7,13.8,7.5,22.1,7.5c20.1,0,36.3-16.3,36.3-36.3s-16.3-36.3-36.3-36.3s-36.3,16.3-36.3,36.3c0,2,0.2,4,0.5,5.9l-63.2,37.9
			c-6.1-4.7-13.8-7.5-22.1-7.5c-20.1,0-36.3,16.3-36.3,36.3s16.3,36.3,36.3,36.3c8.3,0,16-2.8,22.1-7.5l63.2,37.9
			c-0.3,1.9-0.5,3.9-0.5,5.9c0,20.1,16.3,36.3,36.3,36.3s36.3-16.3,36.3-36.3S111.6,358.9,91.6,358.9z" />
        </g>
    </symbol>
</svg>