<svg xmlns="http://www.w3.org/2000/svg" style="display: none;">
    <symbol id="logo" viewBox="0 0 284.5 55.3">
        <g id="XMLID_2_">
            <g>
                <g id="XMLID_170_">
                    <g>
                        <path d="M15.4,9.6c-0.6,0.6-0.8,1.3-0.8,2.1v2.9c0,0.8,0.3,1.5,0.8,2.1c0.6,0.6,1.3,0.8,2.1,0.8h20.4
					c1.2,0,2.3,0.2,3.4,0.7c1.1,0.5,2,1.1,2.8,1.9c0.8,0.8,1.4,1.7,1.9,2.8c0.5,1.1,0.7,2.2,0.7,3.4v8.7c0,1.2-0.2,2.3-0.7,3.4
					s-1.1,2-1.9,2.8c-0.8,0.8-1.7,1.4-2.8,1.9c-1.1,0.5-2.2,0.7-3.4,0.7H0v-8.7h29.1c0.8,0,1.5-0.3,2.1-0.8c0.6-0.6,0.8-1.3,0.8-2.1
					v-2.9c0-0.8-0.3-1.5-0.8-2.1c-0.6-0.6-1.3-0.8-2.1-0.8H8.7c-1.2,0-2.3-0.2-3.4-0.7c-1.1-0.5-2-1.1-2.8-1.9
					c-0.8-0.8-1.4-1.7-1.9-2.8C0.2,19.8,0,18.7,0,17.5V8.7c0-1.2,0.2-2.3,0.7-3.4c0.5-1.1,1.1-2,1.9-2.8c0.8-0.8,1.7-1.4,2.8-1.9
					C6.4,0.2,7.5,0,8.7,0h37.9v8.7H17.5C16.7,8.7,16,9,15.4,9.6z" />
                    </g>
                </g>
                <g id="XMLID_168_">
                    <g>
                        <path d="M64.2,55.3H49.7V20.4c0-1.2,0.2-2.3,0.7-3.4c0.5-1.1,1.1-2,1.9-2.8c0.8-0.8,1.7-1.4,2.8-1.9
					c1.1-0.5,2.2-0.7,3.4-0.7h29.1c1.2,0,2.3,0.2,3.4,0.7c1.1,0.5,2,1.1,2.8,1.9c0.8,0.8,1.4,1.7,1.9,2.8c0.5,1.1,0.7,2.2,0.7,3.4
					v14.6c0,1.2-0.2,2.3-0.7,3.4c-0.5,1.1-1.1,2-1.9,2.8c-0.8,0.8-1.7,1.4-2.8,1.9c-1.1,0.5-2.2,0.7-3.4,0.7H67.1v-8.7h11.6
					c0.8,0,1.5-0.3,2.1-0.8c0.6-0.6,0.8-1.3,0.8-2.1v-8.7c0-0.8-0.3-1.5-0.8-2.1c-0.6-0.6-1.3-0.8-2.1-0.8H67.1
					c-0.8,0-1.5,0.3-2.1,0.8c-0.6,0.6-0.8,1.3-0.8,2.1V55.3z" />
                    </g>
                </g>
                <g id="XMLID_165_">
                    <g>
                        <path d="M113.5,8.8H98.9V0h14.6V8.8z M98.9,11.6h14.6v32H98.9V11.6z" />
                    </g>
                </g>
                <g id="XMLID_163_">
                    <g>
                        <path d="M148.7,20.4h-17.5V32c0,0.8,0.3,1.5,0.8,2.1c0.6,0.6,1.3,0.8,2.1,0.8h14.6v8.7h-23.3
					c-1.2,0-2.3-0.2-3.4-0.7c-1.1-0.5-2-1.1-2.8-1.9c-0.8-0.8-1.4-1.7-1.9-2.8c-0.5-1.1-0.7-2.2-0.7-3.4V0h14.6v11.6h17.5V20.4z" />
                    </g>
                </g>
                <g id="XMLID_160_">
                    <g>
                        <path d="M166.3,32c0,0.8,0.3,1.5,0.8,2.1c0.6,0.6,1.3,0.8,2.1,0.8h11.6c0.8,0,1.5-0.3,2.1-0.8
					c0.6-0.6,0.8-1.3,0.8-2.1v-8.7c0-0.8-0.3-1.5-0.8-2.1c-0.6-0.6-1.3-0.8-2.1-0.8h-11.6v-8.7h20.4c1.2,0,2.3,0.2,3.4,0.7
					c1.1,0.5,2,1.1,2.8,1.9c0.8,0.8,1.4,1.7,1.9,2.8c0.5,1.1,0.7,2.2,0.7,3.4v14.6c0,1.2-0.2,2.3-0.7,3.4c-0.5,1.1-1.1,2-1.9,2.8
					c-0.8,0.8-1.7,1.4-2.8,1.9c-1.1,0.5-2.2,0.7-3.4,0.7h-29.1c-1.2,0-2.3-0.2-3.4-0.7c-1.1-0.5-2-1.1-2.8-1.9
					c-0.8-0.8-1.4-1.7-1.9-2.8c-0.5-1.1-0.7-2.2-0.7-3.4V0h14.6V32z" />
                    </g>
                </g>
                <g id="XMLID_157_">
                    <g>
                        <path d="M233.9,23.3c0-0.8-0.3-1.5-0.8-2.1c-0.6-0.6-1.3-0.8-2.1-0.8h-11.6c-0.8,0-1.5,0.3-2.1,0.8
					c-0.6,0.6-0.8,1.3-0.8,2.1V32c0,0.8,0.3,1.5,0.8,2.1c0.6,0.6,1.3,0.8,2.1,0.8H231v8.7h-20.4c-1.2,0-2.3-0.2-3.4-0.7
					c-1.1-0.5-2-1.1-2.8-1.9c-0.8-0.8-1.4-1.7-1.9-2.8c-0.5-1.1-0.7-2.2-0.7-3.4V20.4c0-1.2,0.2-2.3,0.7-3.4s1.1-2,1.9-2.8
					c0.8-0.8,1.7-1.4,2.8-1.9c1.1-0.5,2.2-0.7,3.4-0.7h29.1c1.2,0,2.3,0.2,3.4,0.7c1.1,0.5,2,1.1,2.8,1.9c0.8,0.8,1.4,1.7,1.9,2.8
					s0.7,2.2,0.7,3.4v23.3h-14.6V23.3z" />
                    </g>
                </g>
                <g id="XMLID_155_">
                    <g>
                        <path d="M252.3,0h14.6v43.7h-14.6V0z" />
                    </g>
                </g>
                <g id="XMLID_153_">
                    <g>
                        <path d="M270,0h14.6v43.7H270V0z" />
                    </g>
                </g>
            </g>
        </g>
    </symbol>

    <symbol id="headerMenu" viewBox="0 0 124 124">
        <g>
            <path d="M112,6H12C5.4,6,0,11.4,0,18s5.4,12,12,12h100c6.6,0,12-5.4,12-12S118.6,6,112,6z" />
            <path d="M112,50H12C5.4,50,0,55.4,0,62c0,6.6,5.4,12,12,12h100c6.6,0,12-5.4,12-12C124,55.4,118.6,50,112,50z" />
            <path d="M112,94H12c-6.6,0-12,5.4-12,12s5.4,12,12,12h100c6.6,0,12-5.4,12-12S118.6,94,112,94z" />
        </g>
    </symbol>
    <symbol id="headerInvite" viewBox="-2603 1201.4 462 433.3">
        <g>
            <path d="M-2220.7,1473.6c-44.5,0.1-80.4,36.2-80.3,80.7c0.1,44.5,36.3,80.4,80.7,80.3c44.5-0.1,80.4-36.3,80.3-80.7
		C-2140.1,1509.4-2176.3,1473.5-2220.7,1473.6z M-2171,1568.6l-34.9,0.1l0.1,34.9l-26.9,0.1l-0.1-34.9l-34.9,0.1l-0.1-26.9l34.9-0.1
		l-0.1-34.9l26.9-0.1l0.1,34.9l34.9-0.1L-2171,1568.6z" />
            <path d="M-2325,1554.4c-0.1-22.3,6.9-43,18.8-60c-27.5-11.2-42.2-27.6-25.7-58.6c81-152.7,21.5-234.4-64.1-234.4
		c-87.2,0-145.3,84.8-64.1,234.4c27.4,50.5-29.6,62.4-87.4,75.7c-59,13.6-54.5,44.7-54.5,101.2h294.9
		C-2318.3,1596-2324.9,1576-2325,1554.4z" />
        </g>
    </symbol>
    <symbol id="headerHelp" viewBox="0 0 91.999 92">
        <path d="M45.385,0.004C19.982,0.344-0.334,21.215,0.004,46.619c0.34,25.393,21.209,45.715,46.611,45.377
	c25.398-0.342,45.718-21.213,45.38-46.615C91.655,19.986,70.785-0.335,45.385,0.004z M45.249,74l-0.254-0.004
	c-3.912-0.116-6.67-2.998-6.559-6.852c0.109-3.788,2.934-6.538,6.717-6.538l0.227,0.004c4.021,0.119,6.748,2.972,6.635,6.937
	C51.903,71.346,49.122,74,45.249,74z M61.704,41.341c-0.92,1.307-2.943,2.93-5.492,4.916l-2.807,1.938
	c-1.541,1.198-2.471,2.325-2.82,3.434c-0.275,0.873-0.41,1.104-0.434,2.88l-0.004,0.451H39.429l0.031-0.907
	c0.131-3.728,0.223-5.921,1.768-7.733c2.424-2.846,7.771-6.289,7.998-6.435c0.766-0.577,1.412-1.234,1.893-1.936
	c1.125-1.551,1.623-2.772,1.623-3.972c0-1.665-0.494-3.205-1.471-4.576c-0.939-1.323-2.723-1.993-5.303-1.993
	c-2.559,0-4.311,0.812-5.359,2.478c-1.078,1.713-1.623,3.512-1.623,5.35v0.457H27.935l0.02-0.477
	c0.285-6.769,2.701-11.643,7.178-14.487C37.946,18.918,41.446,18,45.53,18c5.346,0,9.859,1.299,13.412,3.861
	c3.6,2.596,5.426,6.484,5.426,11.556C64.368,36.254,63.472,38.919,61.704,41.341z" />
    </symbol>
    <symbol id="headerNotification" viewBox="0 0 80 88.516">
        <g>
            <path d="M63.254,36.822C51.852,12.287,45.926,2.97,27.295,3.355c-6.635,0.137-5.041-4.805-10.1-2.93
		c-5.055,1.876-0.717,4.62-5.889,8.863C-3.207,21.2-1.869,32.221,4.861,58.487c2.838,11.062-6.836,11.605-3.008,22.33
		c2.793,7.819,23.393,11.093,45.127,3.028c21.734-8.063,35.453-24.07,32.66-31.889C75.811,41.231,68.059,47.152,63.254,36.822z
		 M44.621,77.238c-19.41,7.202-35.363,2.965-36.037,1.083C7.422,75.073,14.85,64.24,37.041,56.005
		c22.193-8.234,34.576-5.181,35.871-1.553C73.678,56.594,64.033,70.036,44.621,77.238z M38.383,59.764
		c-10.148,3.766-17.201,8.073-21.764,11.951c3.211,2.918,9.23,3.63,15.23,1.404c7.637-2.833,12.326-9.337,10.471-14.526
		c-0.021-0.063-0.055-0.119-0.078-0.181C40.99,58.826,39.705,59.274,38.383,59.764z" />
        </g>
    </symbol>
    <symbol id="searchIcon" viewBox="-2819 1402.4 30.2 30.2">
        <path d="M-2798.9,1405.9c-4.6-4.6-12.1-4.6-16.7,0c-4.6,4.6-4.6,12.1,0,16.7c4.1,4.1,10.5,4.5,15.1,1.3c0.1,0.5,0.3,0.9,0.7,1.3
	l6.7,6.7c1,1,2.6,1,3.5,0c1-1,1-2.6,0-3.5l-6.7-6.7c-0.4-0.4-0.8-0.6-1.3-0.7C-2794.4,1416.4-2794.8,1410.1-2798.9,1405.9z
	 M-2800.9,1420.6c-3.4,3.4-9,3.4-12.5,0c-3.4-3.4-3.4-9,0-12.5c3.4-3.4,9-3.4,12.5,0C-2797.6,1411.5-2797.6,1417.1-2800.9,1420.6z" />
    </symbol>

    <symbol id="houseMenu" viewBox="0 0 306.773 306.773">
        <g>
            <path d="M302.93,149.794c5.561-6.116,5.024-15.49-1.199-20.932L164.63,8.898
		c-6.223-5.442-16.2-5.328-22.292,0.257L4.771,135.258c-6.092,5.585-6.391,14.947-0.662,20.902l3.449,3.592
		c5.722,5.955,14.971,6.665,20.645,1.581l10.281-9.207v134.792c0,8.27,6.701,14.965,14.965,14.965h53.624
		c8.264,0,14.965-6.695,14.965-14.965v-94.3h68.398v94.3c-0.119,8.264,5.794,14.959,14.058,14.959h56.828
		c8.264,0,14.965-6.695,14.965-14.965V154.024c0,0,2.84,2.488,6.343,5.567c3.497,3.073,10.842,0.609,16.403-5.513L302.93,149.794z" />
        </g>
    </symbol>

    <symbol id="universityMenu" viewBox="-2818 1401.7 31.9 31.9">
        <g>

            <path d="M-2810.8,1419.2v4.5c0,0,3.8,4.2,9.2,4.2c6.8,0,9.2-4.2,9.2-4.2v-4.9l-7.9,4.6c-0.6,0.3-1.3,0.4-1.9,0.1
			L-2810.8,1419.2z" />
            <path d="M-2801.4,1413.9c-1,0-2-0.2-2.5-0.6l-9.5,3.3l11.3,5.7c0.6,0.3,1.3,0.3,1.8-0.1l13.2-7.7
			c0.6-0.4,1-1,1-1.7c0-0.7-0.4-1.4-1.1-1.7l-13.7-6.8c-0.6-0.3-1.3-0.3-1.8,0.1l-13.2,7.7c-0.6,0.4-1,1-1,1.7
			c0,0.7,0.4,1.4,1.1,1.7v7c-0.7,0.2-1.2,0.9-1.2,1.7c0,0.6,0.3,1.1,0.7,1.4c-0.1,1-0.6,1.7-1.1,2.2c-0.4,0.4-0.7,1-0.6,1.5
			c0,0.6,0.3,1.1,0.8,1.5l0.2,0.2c0.4,0.3,1,0.4,1.6,0.3c0.5-0.1,1-0.5,1.3-0.9c0.9-1.7,0.5-3.8,0.2-4.8c0.3-0.3,0.5-0.8,0.5-1.2
			c0-0.8-0.5-1.4-1.2-1.6v-6.7l10.3-3.6c0.1-0.4,0.5-0.8,0.5-0.8c0,0.1,0,1.6,2.2,1.6c1.3,0,2.3-0.4,2.3-1.2c0-0.2,0-0.3-0.1-0.5
			c0.4,0.4,0.6,0.9,0.6,1.3C-2798.7,1413.4-2799.9,1413.9-2801.4,1413.9z" />
        </g>
    </symbol>


    <symbol id="userMenu" viewBox="0 0 50 50">
        <g>
            <path d="M47.374,46.125c-4.482-1.975-7.068-3.614-11.768-5.162c-0.351-0.115-0.77-0.34-0.909-0.611
		c-0.382-0.725-0.65-1.496-0.922-2.262c-0.173-0.486-0.326-0.945-0.95-1.18c-0.167-0.062-0.32-0.344-0.316-0.524
		c0.032-1.772-0.598-3.061,0.18-3.757c1.417-1.273,1.095-2.834,1.804-3.607c0.708-0.772,2.462-6.253,2.126-6.958
		c-0.336-0.702-1.521-0.373-1.245-0.714c1.09-1.344,1.426-4.059,1.37-6.285c0.194,0.403,0.301,0.841,0.301,1.32v0.461l6.937-4.508
		L25,0L6.021,12.336l1.715,1.114v2.496c-0.329,0.084-0.578,0.368-0.578,0.723c0,0.275,0.156,0.509,0.379,0.642L6.02,25.955h3.799
		L8.3,17.311c0.222-0.132,0.377-0.366,0.377-0.642c0-0.355-0.249-0.639-0.577-0.723v-2.258l4.856,3.156v-0.303
		c0.036,0.451,0.102,0.916,0.212,1.399c0.375,1.644,1.098,1.542,1.684,3.406c0.009,0.028,0.001,0.065,0.001,0.098v0.1
		c-0.046,0.212-0.216,0.451-0.359,0.49c-0.697,0.193-0.714,0.577-0.62,1.074c0.065,0.342,0.598,2.884,0.906,3.794
		c0.232,0.677,0.681,1.315,0.805,2.005c0.25,1.376,0.842,2.573,1.923,3.61c0.179,0.174,0.313,0.461,0.293,0.686
		c-0.084,1.061-0.209,2.12-0.376,3.171c-0.033,0.208-0.286,0.511-0.491,0.549c-0.819,0.147-0.946,0.688-1.141,1.237
		c-0.259,0.723-0.535,1.445-0.86,2.145c-0.103,0.219-0.356,0.445-0.606,0.541c-1.457,0.547-2.94,1.047-4.408,1.575
		c-1.561,0.567-5.697,3.103-7.233,3.81c-0.903,0.418-0.4,3.77-0.4,3.77c17.865,0,27.484,0,45.347,0
		C47.633,50,48.27,46.521,47.374,46.125z" />
        </g>
    </symbol>
    <symbol id="settingMenu" viewBox="0 0 268.765 268.765">
        <g>

            <path d="M267.92,119.461c-0.425-3.778-4.83-6.617-8.639-6.617
			c-12.315,0-23.243-7.231-27.826-18.414c-4.682-11.454-1.663-24.812,7.515-33.231c2.889-2.641,3.24-7.062,0.817-10.133
			c-6.303-8.004-13.467-15.234-21.289-21.5c-3.063-2.458-7.557-2.116-10.213,0.825c-8.01,8.871-22.398,12.168-33.516,7.529
			c-11.57-4.867-18.866-16.591-18.152-29.176c0.235-3.953-2.654-7.39-6.595-7.849c-10.038-1.161-20.164-1.197-30.232-0.08
			c-3.896,0.43-6.785,3.786-6.654,7.689c0.438,12.461-6.946,23.98-18.401,28.672c-10.985,4.487-25.272,1.218-33.266-7.574
			c-2.642-2.896-7.063-3.252-10.141-0.853c-8.054,6.319-15.379,13.555-21.74,21.493c-2.481,3.086-2.116,7.559,0.802,10.214
			c9.353,8.47,12.373,21.944,7.514,33.53c-4.639,11.046-16.109,18.165-29.24,18.165c-4.261-0.137-7.296,2.723-7.762,6.597
			c-1.182,10.096-1.196,20.383-0.058,30.561c0.422,3.794,4.961,6.608,8.812,6.608c11.702-0.299,22.937,6.946,27.65,18.415
			c4.698,11.454,1.678,24.804-7.514,33.23c-2.875,2.641-3.24,7.055-0.817,10.126c6.244,7.953,13.409,15.19,21.259,21.508
			c3.079,2.481,7.559,2.131,10.228-0.81c8.04-8.893,22.427-12.184,33.501-7.536c11.599,4.852,18.895,16.575,18.181,29.167
			c-0.233,3.955,2.67,7.398,6.595,7.85c5.135,0.599,10.301,0.898,15.481,0.898c4.917,0,9.835-0.27,14.752-0.817
			c3.897-0.43,6.784-3.786,6.653-7.696c-0.451-12.454,6.946-23.973,18.386-28.657c11.059-4.517,25.286-1.211,33.281,7.572
			c2.657,2.89,7.047,3.239,10.142,0.848c8.039-6.304,15.349-13.534,21.74-21.494c2.48-3.079,2.13-7.559-0.803-10.213
			c-9.353-8.47-12.388-21.946-7.529-33.524c4.568-10.899,15.612-18.217,27.491-18.217l1.662,0.043
			c3.853,0.313,7.398-2.655,7.865-6.588C269.044,139.917,269.058,129.639,267.92,119.461z M134.595,179.491
			c-24.718,0-44.824-20.106-44.824-44.824c0-24.717,20.106-44.824,44.824-44.824c24.717,0,44.823,20.107,44.823,44.824
			C179.418,159.385,159.312,179.491,134.595,179.491z" />



        </g>

    </symbol>

    <symbol id="logOffMenu" viewBox="-2649 1232.7 369.9 369.9">
<g>
    <path d="M-2458.2,1405.4h137.4c-6.2-73.6-68.1-131.6-143.2-131.6c-79.3,0-143.9,64.5-143.9,143.9c0,79.3,64.5,143.9,143.9,143.9
			c74.4,0,135.9-56.9,143.1-129.4h-137.3l10.6,10.6c5.2,5.2,5.2,13.6,0,18.8c-5.2,5.2-13.6,5.2-18.9,0l-33.3-33.3c0,0,0,0,0,0
			l-9.4-9.4l9.4-9.4c0,0,0,0,0,0l31.1-31.1c2.6-2.6,6-3.9,9.4-3.9c3.4,0,6.8,1.3,9.4,3.9c5.2,5.2,5.2,13.6,0,18.8L-2458.2,1405.4z" />
</g>
</symbol>

</svg>
