<svg xmlns="http://www.w3.org/2000/svg" style="display: none;">
    <symbol id="logo" viewBox="0 0 284.5 55.3">
        <g>
            <path d="M15.4,9.6c-0.6,0.6-0.8,1.3-0.8,2.1v2.9c0,0.8,0.3,1.5,0.8,2.1c0.6,0.6,1.3,0.8,2.1,0.8h20.4
					c1.2,0,2.3,0.2,3.4,0.7c1.1,0.5,2,1.1,2.8,1.9c0.8,0.8,1.4,1.7,1.9,2.8c0.5,1.1,0.7,2.2,0.7,3.4v8.7c0,1.2-0.2,2.3-0.7,3.4
					s-1.1,2-1.9,2.8c-0.8,0.8-1.7,1.4-2.8,1.9c-1.1,0.5-2.2,0.7-3.4,0.7H0v-8.7h29.1c0.8,0,1.5-0.3,2.1-0.8c0.6-0.6,0.8-1.3,0.8-2.1
					v-2.9c0-0.8-0.3-1.5-0.8-2.1c-0.6-0.6-1.3-0.8-2.1-0.8H8.7c-1.2,0-2.3-0.2-3.4-0.7c-1.1-0.5-2-1.1-2.8-1.9
					c-0.8-0.8-1.4-1.7-1.9-2.8C0.2,19.8,0,18.7,0,17.5V8.7c0-1.2,0.2-2.3,0.7-3.4c0.5-1.1,1.1-2,1.9-2.8c0.8-0.8,1.7-1.4,2.8-1.9
					C6.4,0.2,7.5,0,8.7,0h37.9v8.7H17.5C16.7,8.7,16,9,15.4,9.6z" />
            <path d="M64.2,55.3H49.7V20.4c0-1.2,0.2-2.3,0.7-3.4c0.5-1.1,1.1-2,1.9-2.8c0.8-0.8,1.7-1.4,2.8-1.9
					c1.1-0.5,2.2-0.7,3.4-0.7h29.1c1.2,0,2.3,0.2,3.4,0.7c1.1,0.5,2,1.1,2.8,1.9c0.8,0.8,1.4,1.7,1.9,2.8c0.5,1.1,0.7,2.2,0.7,3.4
					v14.6c0,1.2-0.2,2.3-0.7,3.4c-0.5,1.1-1.1,2-1.9,2.8c-0.8,0.8-1.7,1.4-2.8,1.9c-1.1,0.5-2.2,0.7-3.4,0.7H67.1v-8.7h11.6
					c0.8,0,1.5-0.3,2.1-0.8c0.6-0.6,0.8-1.3,0.8-2.1v-8.7c0-0.8-0.3-1.5-0.8-2.1c-0.6-0.6-1.3-0.8-2.1-0.8H67.1
					c-0.8,0-1.5,0.3-2.1,0.8c-0.6,0.6-0.8,1.3-0.8,2.1V55.3z" />
            <path d="M113.5,8.8H98.9V0h14.6V8.8z M98.9,11.6h14.6v32H98.9V11.6z" />
            <path d="M148.7,20.4h-17.5V32c0,0.8,0.3,1.5,0.8,2.1c0.6,0.6,1.3,0.8,2.1,0.8h14.6v8.7h-23.3
					c-1.2,0-2.3-0.2-3.4-0.7c-1.1-0.5-2-1.1-2.8-1.9c-0.8-0.8-1.4-1.7-1.9-2.8c-0.5-1.1-0.7-2.2-0.7-3.4V0h14.6v11.6h17.5V20.4z" />
            <path d="M166.3,32c0,0.8,0.3,1.5,0.8,2.1c0.6,0.6,1.3,0.8,2.1,0.8h11.6c0.8,0,1.5-0.3,2.1-0.8
					c0.6-0.6,0.8-1.3,0.8-2.1v-8.7c0-0.8-0.3-1.5-0.8-2.1c-0.6-0.6-1.3-0.8-2.1-0.8h-11.6v-8.7h20.4c1.2,0,2.3,0.2,3.4,0.7
					c1.1,0.5,2,1.1,2.8,1.9c0.8,0.8,1.4,1.7,1.9,2.8c0.5,1.1,0.7,2.2,0.7,3.4v14.6c0,1.2-0.2,2.3-0.7,3.4c-0.5,1.1-1.1,2-1.9,2.8
					c-0.8,0.8-1.7,1.4-2.8,1.9c-1.1,0.5-2.2,0.7-3.4,0.7h-29.1c-1.2,0-2.3-0.2-3.4-0.7c-1.1-0.5-2-1.1-2.8-1.9
					c-0.8-0.8-1.4-1.7-1.9-2.8c-0.5-1.1-0.7-2.2-0.7-3.4V0h14.6V32z" />
            <path d="M233.9,23.3c0-0.8-0.3-1.5-0.8-2.1c-0.6-0.6-1.3-0.8-2.1-0.8h-11.6c-0.8,0-1.5,0.3-2.1,0.8
					c-0.6,0.6-0.8,1.3-0.8,2.1V32c0,0.8,0.3,1.5,0.8,2.1c0.6,0.6,1.3,0.8,2.1,0.8H231v8.7h-20.4c-1.2,0-2.3-0.2-3.4-0.7
					c-1.1-0.5-2-1.1-2.8-1.9c-0.8-0.8-1.4-1.7-1.9-2.8c-0.5-1.1-0.7-2.2-0.7-3.4V20.4c0-1.2,0.2-2.3,0.7-3.4s1.1-2,1.9-2.8
					c0.8-0.8,1.7-1.4,2.8-1.9c1.1-0.5,2.2-0.7,3.4-0.7h29.1c1.2,0,2.3,0.2,3.4,0.7c1.1,0.5,2,1.1,2.8,1.9c0.8,0.8,1.4,1.7,1.9,2.8
					s0.7,2.2,0.7,3.4v23.3h-14.6V23.3z" />
            <path d="M252.3,0h14.6v43.7h-14.6V0z" />
            <path d="M270,0h14.6v43.7H270V0z" />
        </g>
    </symbol>
    <symbol id="smallLogo" viewBox="0 0 96.5 43.8">
        <g>
            <path d="M2.6,23.7c0.8,0.8,1.7,1.4,2.8,1.9c1.1,0.5,2.2,0.7,3.4,0.7h20.5c0.8,0,1.5,0.3,2.1,0.8
			c0.6,0.6,0.8,1.3,0.8,2.1v1c4.8-0.7,9.7-1.7,14.6-3.2v-0.8c0-1.2-0.2-2.3-0.7-3.4c-0.5-1.1-1.1-2-1.9-2.8
			c-0.8-0.8-1.7-1.4-2.8-1.9c-1.1-0.5-2.2-0.7-3.4-0.7H17.5c-0.8,0-1.5-0.3-2.1-0.8c-0.6-0.6-0.8-1.3-0.8-2.1v-2.9
			c0-0.8,0.3-1.5,0.8-2.1c0.6-0.6,1.3-0.8,2.1-0.8h29.2V0h-38C7.6,0,6.4,0.2,5.3,0.7c-1.1,0.5-2,1.1-2.8,1.9
			C1.8,3.4,1.2,4.3,0.7,5.3C0.2,6.4,0,7.6,0,8.8v8.8c0,1.2,0.2,2.3,0.7,3.4C1.2,22,1.8,23,2.6,23.7z" />
            <path d="M29.4,35.1c0,0-0.1,0-0.1,0H0v8.8h38c1.2,0,2.3-0.2,3.4-0.7c1.1-0.5,2-1.1,2.8-1.9c0.8-0.8,1.4-1.7,1.9-2.8
			c0.5-1.1,0.7-2.2,0.7-3.4v-1.9C40.9,34.4,35.1,35,29.4,35.1z" />
            <path d="M93.9,14.3c-0.8-0.8-1.7-1.4-2.8-1.9c-0.5-0.2-1.1-0.4-1.6-0.5c-3.4,3.1-7.2,6-11.3,8.6h0.7
			c0.8,0,1.5,0.3,2.1,0.8c0.6,0.6,0.8,1.3,0.8,2.1v8.8c0,0.8-0.3,1.5-0.8,2.1c-0.6,0.6-1.3,0.8-2.1,0.8H67.2c-0.8,0-1.5-0.3-2.1-0.8
			c-0.6-0.6-0.8-1.3-0.8-2.1v-4.4c-2.8,1.2-5.7,2.2-8.7,3.2c-2,0.6-4,1.2-6,1.6v2.5c0,1.2,0.2,2.3,0.7,3.4c0.5,1.1,1.1,2,1.9,2.8
			c0.8,0.8,1.7,1.4,2.8,1.9c1.1,0.5,2.2,0.7,3.4,0.7h29.2c1.2,0,2.3-0.2,3.4-0.7c1.1-0.5,2-1.1,2.8-1.9c0.8-0.8,1.4-1.7,1.9-2.8
			c0.5-1.1,0.7-2.2,0.7-3.4V20.5c0-1.2-0.2-2.3-0.7-3.4C95.3,16,94.7,15,93.9,14.3z" />
            <path d="M76.8,11.7h-9.6v6.5C70.6,16.2,73.8,14,76.8,11.7z" />
            <path d="M64.3,19.8V0H49.7v26.1C54.9,24.4,59.7,22.3,64.3,19.8z" />
        </g>
    </symbol>

    <symbol id="headerMenu" viewBox="0 0 124 124">
        <g>
            <path d="M112,6H12C5.4,6,0,11.4,0,18s5.4,12,12,12h100c6.6,0,12-5.4,12-12S118.6,6,112,6z" />
            <path d="M112,50H12C5.4,50,0,55.4,0,62c0,6.6,5.4,12,12,12h100c6.6,0,12-5.4,12-12C124,55.4,118.6,50,112,50z" />
            <path d="M112,94H12c-6.6,0-12,5.4-12,12s5.4,12,12,12h100c6.6,0,12-5.4,12-12S118.6,94,112,94z" />
        </g>
    </symbol>
    <symbol id="invite" viewBox="-223 25 512 512">
        <path d="M83,486.6h-255.9c0-56.5-4.5-87.6,54.5-101.2c57.8-13.3,114.8-25.2,87.4-75.7
	C-112.3,160.2-54.2,75.3,33,75.3c85.5,0,151.7,84.4,64.1,234.4C75.8,346.2,53,377.5,53,411C53,440.3,64.4,466.9,83,486.6z M239,411
	c0,41.7-33.8,75.5-75.5,75.5c-41.7,0-75.5-33.8-75.5-75.5s33.8-75.5,75.5-75.5C205.2,335.6,239,369.4,239,411z M209.9,399.5h-32.7
	v-32.7H152v32.7h-32.7v25.2H152v32.7h25.2v-32.7h32.7V399.5z" />
    </symbol>
    <symbol id="headerHelp" viewBox="0 0 91.999 92">
        <path d="M45.385,0.004C19.982,0.344-0.334,21.215,0.004,46.619c0.34,25.393,21.209,45.715,46.611,45.377
	c25.398-0.342,45.718-21.213,45.38-46.615C91.655,19.986,70.785-0.335,45.385,0.004z M45.249,74l-0.254-0.004
	c-3.912-0.116-6.67-2.998-6.559-6.852c0.109-3.788,2.934-6.538,6.717-6.538l0.227,0.004c4.021,0.119,6.748,2.972,6.635,6.937
	C51.903,71.346,49.122,74,45.249,74z M61.704,41.341c-0.92,1.307-2.943,2.93-5.492,4.916l-2.807,1.938
	c-1.541,1.198-2.471,2.325-2.82,3.434c-0.275,0.873-0.41,1.104-0.434,2.88l-0.004,0.451H39.429l0.031-0.907
	c0.131-3.728,0.223-5.921,1.768-7.733c2.424-2.846,7.771-6.289,7.998-6.435c0.766-0.577,1.412-1.234,1.893-1.936
	c1.125-1.551,1.623-2.772,1.623-3.972c0-1.665-0.494-3.205-1.471-4.576c-0.939-1.323-2.723-1.993-5.303-1.993
	c-2.559,0-4.311,0.812-5.359,2.478c-1.078,1.713-1.623,3.512-1.623,5.35v0.457H27.935l0.02-0.477
	c0.285-6.769,2.701-11.643,7.178-14.487C37.946,18.918,41.446,18,45.53,18c5.346,0,9.859,1.299,13.412,3.861
	c3.6,2.596,5.426,6.484,5.426,11.556C64.368,36.254,63.472,38.919,61.704,41.341z" />
    </symbol>
    <symbol id="headerNotification" viewBox="0 0 80 88.516">
        <g>
            <path d="M63.254,36.822C51.852,12.287,45.926,2.97,27.295,3.355c-6.635,0.137-5.041-4.805-10.1-2.93
		c-5.055,1.876-0.717,4.62-5.889,8.863C-3.207,21.2-1.869,32.221,4.861,58.487c2.838,11.062-6.836,11.605-3.008,22.33
		c2.793,7.819,23.393,11.093,45.127,3.028c21.734-8.063,35.453-24.07,32.66-31.889C75.811,41.231,68.059,47.152,63.254,36.822z
		 M44.621,77.238c-19.41,7.202-35.363,2.965-36.037,1.083C7.422,75.073,14.85,64.24,37.041,56.005
		c22.193-8.234,34.576-5.181,35.871-1.553C73.678,56.594,64.033,70.036,44.621,77.238z M38.383,59.764
		c-10.148,3.766-17.201,8.073-21.764,11.951c3.211,2.918,9.23,3.63,15.23,1.404c7.637-2.833,12.326-9.337,10.471-14.526
		c-0.021-0.063-0.055-0.119-0.078-0.181C40.99,58.826,39.705,59.274,38.383,59.764z" />
        </g>
    </symbol>
    <symbol id="searchIcon" viewBox="-2819 1402.4 30.2 30.2">
        <path d="M-2798.9,1405.9c-4.6-4.6-12.1-4.6-16.7,0c-4.6,4.6-4.6,12.1,0,16.7c4.1,4.1,10.5,4.5,15.1,1.3c0.1,0.5,0.3,0.9,0.7,1.3
	l6.7,6.7c1,1,2.6,1,3.5,0c1-1,1-2.6,0-3.5l-6.7-6.7c-0.4-0.4-0.8-0.6-1.3-0.7C-2794.4,1416.4-2794.8,1410.1-2798.9,1405.9z
	 M-2800.9,1420.6c-3.4,3.4-9,3.4-12.5,0c-3.4-3.4-3.4-9,0-12.5c3.4-3.4,9-3.4,12.5,0C-2797.6,1411.5-2797.6,1417.1-2800.9,1420.6z" />
    </symbol>

    <symbol id="houseMenu" viewBox="0 0 306.773 306.773">
        <g>
            <path d="M302.93,149.794c5.561-6.116,5.024-15.49-1.199-20.932L164.63,8.898
		c-6.223-5.442-16.2-5.328-22.292,0.257L4.771,135.258c-6.092,5.585-6.391,14.947-0.662,20.902l3.449,3.592
		c5.722,5.955,14.971,6.665,20.645,1.581l10.281-9.207v134.792c0,8.27,6.701,14.965,14.965,14.965h53.624
		c8.264,0,14.965-6.695,14.965-14.965v-94.3h68.398v94.3c-0.119,8.264,5.794,14.959,14.058,14.959h56.828
		c8.264,0,14.965-6.695,14.965-14.965V154.024c0,0,2.84,2.488,6.343,5.567c3.497,3.073,10.842,0.609,16.403-5.513L302.93,149.794z" />
        </g>
    </symbol>

    <symbol id="universityMenu" viewBox="-2818 1401.7 31.9 31.9">
        <g>

            <path d="M-2810.8,1419.2v4.5c0,0,3.8,4.2,9.2,4.2c6.8,0,9.2-4.2,9.2-4.2v-4.9l-7.9,4.6c-0.6,0.3-1.3,0.4-1.9,0.1
			L-2810.8,1419.2z" />
            <path d="M-2801.4,1413.9c-1,0-2-0.2-2.5-0.6l-9.5,3.3l11.3,5.7c0.6,0.3,1.3,0.3,1.8-0.1l13.2-7.7
			c0.6-0.4,1-1,1-1.7c0-0.7-0.4-1.4-1.1-1.7l-13.7-6.8c-0.6-0.3-1.3-0.3-1.8,0.1l-13.2,7.7c-0.6,0.4-1,1-1,1.7
			c0,0.7,0.4,1.4,1.1,1.7v7c-0.7,0.2-1.2,0.9-1.2,1.7c0,0.6,0.3,1.1,0.7,1.4c-0.1,1-0.6,1.7-1.1,2.2c-0.4,0.4-0.7,1-0.6,1.5
			c0,0.6,0.3,1.1,0.8,1.5l0.2,0.2c0.4,0.3,1,0.4,1.6,0.3c0.5-0.1,1-0.5,1.3-0.9c0.9-1.7,0.5-3.8,0.2-4.8c0.3-0.3,0.5-0.8,0.5-1.2
			c0-0.8-0.5-1.4-1.2-1.6v-6.7l10.3-3.6c0.1-0.4,0.5-0.8,0.5-0.8c0,0.1,0,1.6,2.2,1.6c1.3,0,2.3-0.4,2.3-1.2c0-0.2,0-0.3-0.1-0.5
			c0.4,0.4,0.6,0.9,0.6,1.3C-2798.7,1413.4-2799.9,1413.9-2801.4,1413.9z" />
        </g>
    </symbol>
    <symbol id="blog" viewBox="-445 248 67 67">
        <g>
            <path d="M-384.5,266l2.2-4c1.8-3.1-3.4-6.7-5.8-8.1c-2.5-1.3-8.1-4.3-9.9-0.9l-3.1,5.4c-3.1-0.7-6.7-1.1-10.3-1.1
				c-18.6,0-33.6,10.1-33.6,22.4c0,12.3,15,22.4,33.6,22.4c0,0,0,0,0.2,0c0.2,2.7-2.9,7.2-7.4,9.4c17.7,0,25.8-13.2,25.8-13.2
				c9-4,14.8-10.8,14.8-18.6C-377.6,274.5-380.3,269.8-384.5,266z M-397,282.3l-6.5,3.6l-5.4,2.9v-6v-7.4l13-21.5
				c0.4-0.9,3.6,0,6.9,1.8s5.6,4,4.9,4.9L-397,282.3z" />
        </g>
        <polygon points="-408.3,288 -408.3,285 -408.3,282.1 -405.8,283.6 -403.2,285.1 -405.8,286.5 " />
    </symbol>


    <symbol id="userMenu" viewBox="0 0 50 50">
        <g>
            <path d="M47.374,46.125c-4.482-1.975-7.068-3.614-11.768-5.162c-0.351-0.115-0.77-0.34-0.909-0.611
		c-0.382-0.725-0.65-1.496-0.922-2.262c-0.173-0.486-0.326-0.945-0.95-1.18c-0.167-0.062-0.32-0.344-0.316-0.524
		c0.032-1.772-0.598-3.061,0.18-3.757c1.417-1.273,1.095-2.834,1.804-3.607c0.708-0.772,2.462-6.253,2.126-6.958
		c-0.336-0.702-1.521-0.373-1.245-0.714c1.09-1.344,1.426-4.059,1.37-6.285c0.194,0.403,0.301,0.841,0.301,1.32v0.461l6.937-4.508
		L25,0L6.021,12.336l1.715,1.114v2.496c-0.329,0.084-0.578,0.368-0.578,0.723c0,0.275,0.156,0.509,0.379,0.642L6.02,25.955h3.799
		L8.3,17.311c0.222-0.132,0.377-0.366,0.377-0.642c0-0.355-0.249-0.639-0.577-0.723v-2.258l4.856,3.156v-0.303
		c0.036,0.451,0.102,0.916,0.212,1.399c0.375,1.644,1.098,1.542,1.684,3.406c0.009,0.028,0.001,0.065,0.001,0.098v0.1
		c-0.046,0.212-0.216,0.451-0.359,0.49c-0.697,0.193-0.714,0.577-0.62,1.074c0.065,0.342,0.598,2.884,0.906,3.794
		c0.232,0.677,0.681,1.315,0.805,2.005c0.25,1.376,0.842,2.573,1.923,3.61c0.179,0.174,0.313,0.461,0.293,0.686
		c-0.084,1.061-0.209,2.12-0.376,3.171c-0.033,0.208-0.286,0.511-0.491,0.549c-0.819,0.147-0.946,0.688-1.141,1.237
		c-0.259,0.723-0.535,1.445-0.86,2.145c-0.103,0.219-0.356,0.445-0.606,0.541c-1.457,0.547-2.94,1.047-4.408,1.575
		c-1.561,0.567-5.697,3.103-7.233,3.81c-0.903,0.418-0.4,3.77-0.4,3.77c17.865,0,27.484,0,45.347,0
		C47.633,50,48.27,46.521,47.374,46.125z" />
        </g>
    </symbol>
    <symbol id="settingMenu" viewBox="0 0 268.765 268.765">
        <g>

            <path d="M267.92,119.461c-0.425-3.778-4.83-6.617-8.639-6.617
			c-12.315,0-23.243-7.231-27.826-18.414c-4.682-11.454-1.663-24.812,7.515-33.231c2.889-2.641,3.24-7.062,0.817-10.133
			c-6.303-8.004-13.467-15.234-21.289-21.5c-3.063-2.458-7.557-2.116-10.213,0.825c-8.01,8.871-22.398,12.168-33.516,7.529
			c-11.57-4.867-18.866-16.591-18.152-29.176c0.235-3.953-2.654-7.39-6.595-7.849c-10.038-1.161-20.164-1.197-30.232-0.08
			c-3.896,0.43-6.785,3.786-6.654,7.689c0.438,12.461-6.946,23.98-18.401,28.672c-10.985,4.487-25.272,1.218-33.266-7.574
			c-2.642-2.896-7.063-3.252-10.141-0.853c-8.054,6.319-15.379,13.555-21.74,21.493c-2.481,3.086-2.116,7.559,0.802,10.214
			c9.353,8.47,12.373,21.944,7.514,33.53c-4.639,11.046-16.109,18.165-29.24,18.165c-4.261-0.137-7.296,2.723-7.762,6.597
			c-1.182,10.096-1.196,20.383-0.058,30.561c0.422,3.794,4.961,6.608,8.812,6.608c11.702-0.299,22.937,6.946,27.65,18.415
			c4.698,11.454,1.678,24.804-7.514,33.23c-2.875,2.641-3.24,7.055-0.817,10.126c6.244,7.953,13.409,15.19,21.259,21.508
			c3.079,2.481,7.559,2.131,10.228-0.81c8.04-8.893,22.427-12.184,33.501-7.536c11.599,4.852,18.895,16.575,18.181,29.167
			c-0.233,3.955,2.67,7.398,6.595,7.85c5.135,0.599,10.301,0.898,15.481,0.898c4.917,0,9.835-0.27,14.752-0.817
			c3.897-0.43,6.784-3.786,6.653-7.696c-0.451-12.454,6.946-23.973,18.386-28.657c11.059-4.517,25.286-1.211,33.281,7.572
			c2.657,2.89,7.047,3.239,10.142,0.848c8.039-6.304,15.349-13.534,21.74-21.494c2.48-3.079,2.13-7.559-0.803-10.213
			c-9.353-8.47-12.388-21.946-7.529-33.524c4.568-10.899,15.612-18.217,27.491-18.217l1.662,0.043
			c3.853,0.313,7.398-2.655,7.865-6.588C269.044,139.917,269.058,129.639,267.92,119.461z M134.595,179.491
			c-24.718,0-44.824-20.106-44.824-44.824c0-24.717,20.106-44.824,44.824-44.824c24.717,0,44.823,20.107,44.823,44.824
			C179.418,159.385,159.312,179.491,134.595,179.491z" />



        </g>

    </symbol>

    <symbol id="logOffMenu" viewBox="-82.6 266 287.1 287.8">
        <g>
            <path d="M67.1,397.6h137.4C198.3,324,136.4,266,61.3,266C-18,266-82.6,330.5-82.6,409.9c0,79.3,64.5,143.9,143.9,143.9
			c74.4,0,135.9-56.9,143.1-129.4H67.1L77.7,435c5.2,5.2,5.2,13.6,0,18.8c-5.2,5.2-13.6,5.2-18.9,0l-33.3-33.3l0,0l-9.4-9.4l9.4-9.4
			l0,0l31.1-31.1c2.6-2.6,6-3.9,9.4-3.9s6.8,1.3,9.4,3.9c5.2,5.2,5.2,13.6,0,18.8L67.1,397.6z" />
        </g>
    </symbol>
    <symbol id="close" viewBox="0 0 212.982 212.982">
        <g>
            <path d="M131.804,106.491l75.936-75.936c6.99-6.99,6.99-18.323,0-25.312
		c-6.99-6.99-18.322-6.99-25.312,0l-75.937,75.937L30.554,5.242c-6.99-6.99-18.322-6.99-25.312,0c-6.989,6.99-6.989,18.323,0,25.312
		l75.937,75.936L5.242,182.427c-6.989,6.99-6.989,18.323,0,25.312c6.99,6.99,18.322,6.99,25.312,0l75.937-75.937l75.937,75.937
		c6.989,6.99,18.322,6.99,25.312,0c6.99-6.99,6.99-18.322,0-25.312L131.804,106.491z" />
        </g>
    </symbol>
    <symbol id="add" viewBox="0 0 357 357">
        <g>
            <path d="M357,204H204v153h-51V204H0v-51h153V0h51v153h153V204z" />
        </g>
    </symbol>
    <symbol id="delete" viewBox="0 0 459 459">
        <g>
            <path d="M76.5,408c0,28.05,22.95,51,51,51h204c28.05,0,51-22.95,51-51V102h-306V408z M408,25.5h-89.25L293.25,0h-127.5l-25.5,25.5
			H51v51h357V25.5z" />
        </g>
    </symbol>
    <symbol id="edit" viewBox="0 0 528.899 528.899">
        <g>
            <path d="M328.883,89.125l107.59,107.589l-272.34,272.34L56.604,361.465L328.883,89.125z M518.113,63.177l-47.981-47.981
		c-18.543-18.543-48.653-18.543-67.259,0l-45.961,45.961l107.59,107.59l53.611-53.611
		C532.495,100.753,532.495,77.559,518.113,63.177z M0.3,512.69c-1.958,8.812,5.998,16.708,14.811,14.565l119.891-29.069
		L27.473,390.597L0.3,512.69z" />
        </g>
    </symbol>
    <symbol id="ThreeDots" viewBox="0 0 408 408">
        <g>
            <path d="M204,102c28.05,0,51-22.95,51-51S232.05,0,204,0s-51,22.95-51,51S175.95,102,204,102z M204,153c-28.05,0-51,22.95-51,51
			s22.95,51,51,51s51-22.95,51-51S232.05,153,204,153z M204,306c-28.05,0-51,22.95-51,51s22.95,51,51,51s51-22.95,51-51
			S232.05,306,204,306z" />
        </g>
    </symbol>
    <symbol id="arrow" viewBox="0 0 612 612">
        <g>
            <path d="M277.58,179.679l-0.057,0.077c-5.125-4.705-11.857-7.631-19.335-7.631c-15.835,0-28.688,12.852-28.688,28.688
				c0,8.377,3.634,15.835,9.352,21.076l-0.057,0.077L330.48,306l-91.686,84.055l0.057,0.076c-5.718,5.221-9.352,12.68-9.352,21.057
				c0,15.836,12.852,28.688,28.688,28.688c7.478,0,14.21-2.926,19.335-7.611l0.057,0.076l114.75-105.188
				c5.91-5.451,9.295-13.101,9.295-21.152s-3.385-15.702-9.295-21.152L277.58,179.679z M306,0C137.012,0,0,137.012,0,306
				s137.012,306,306,306s306-137.012,306-306S474.988,0,306,0z M306,554.625C168.912,554.625,57.375,443.088,57.375,306
				S168.912,57.375,306,57.375S554.625,168.912,554.625,306S443.088,554.625,306,554.625z" />
        </g>
    </symbol>
    <symbol id="sideMenuArrow" viewBox="12.8 194.1 67.3 60.8">
        <g>
            <polygon points="12.8,254.9 31.8,224.5 12.8,194.1 80,224.5 " />
        </g>
    </symbol>
    <symbol id="info" viewBox="0 0 45.999 45.999">
        <g>
            <path d="M39.264,6.736c-8.982-8.981-23.545-8.982-32.528,0c-8.982,8.982-8.981,23.545,0,32.528c8.982,8.98,23.545,8.981,32.528,0
			C48.245,30.281,48.244,15.719,39.264,6.736z M25.999,33c0,1.657-1.343,3-3,3s-3-1.343-3-3V21c0-1.657,1.343-3,3-3s3,1.343,3,3V33z
			 M22.946,15.872c-1.728,0-2.88-1.224-2.844-2.735c-0.036-1.584,1.116-2.771,2.879-2.771c1.764,0,2.88,1.188,2.917,2.771
			C25.897,14.648,24.746,15.872,22.946,15.872z" />
        </g>
    </symbol>
    <symbol id="gmail" viewBox="-468 273.4 21.5 15.6">
        <rect x="-467.1" y="273.5" style="fill:#F5F5F5" width="19.4" height="15.1" />
        <g>
            <path style="fill:#ED1921" d="M-468,273.5V289h21.5v-15.6H-468V273.5z M-452.3,274l-5,5l-5.5-5H-452.3z M-465.1,276.5l6,5.2l-6,4.6
		C-465.1,286.3-465.1,276.5-465.1,276.5z M-449.4,288.5h-15.7v-1.4l6.4-4.9l1.4,1.4l1.5-1.4l6.3,4.9v1.4H-449.4z M-449.4,286.3
		l-5.8-4.7l5.8-5.8V286.3z" />
        </g>
    </symbol>

    <symbol id="lock" viewBox="0 0 15.804 15.804">
        <g>
            <path d="M12.639,6.909V4.785C12.639,2.147,10.493,0,7.854,0S3.071,2.147,3.071,4.785v2.124H2.141v8.895
		h11.521V6.909H12.639z M8.981,11.512v1.881c0,0.49-0.397,0.887-0.887,0.887c-0.491,0-0.888-0.396-0.888-0.887v-1.881
		c-0.309-0.256-0.51-0.639-0.51-1.071c0-0.772,0.626-1.397,1.398-1.397S9.49,9.669,9.49,10.441
		C9.491,10.874,9.29,11.256,8.981,11.512z M10.899,6.909H4.811V4.785c0-1.679,1.366-3.045,3.045-3.045
		c1.678,0,3.044,1.366,3.044,3.045V6.909z" />
        </g>
    </symbol>

</svg>
