<svg xmlns="http://www.w3.org/2000/svg" style="display: none;">
    <svg id="logo" viewBox="0 0 284.5 55.3">
        <g>
            <path d="M15.4,9.6c-0.6,0.6-0.8,1.3-0.8,2.1v2.9c0,0.8,0.3,1.5,0.8,2.1c0.6,0.6,1.3,0.8,2.1,0.8h20.4
					c1.2,0,2.3,0.2,3.4,0.7c1.1,0.5,2,1.1,2.8,1.9c0.8,0.8,1.4,1.7,1.9,2.8c0.5,1.1,0.7,2.2,0.7,3.4v8.7c0,1.2-0.2,2.3-0.7,3.4
					s-1.1,2-1.9,2.8c-0.8,0.8-1.7,1.4-2.8,1.9c-1.1,0.5-2.2,0.7-3.4,0.7H0v-8.7h29.1c0.8,0,1.5-0.3,2.1-0.8c0.6-0.6,0.8-1.3,0.8-2.1
					v-2.9c0-0.8-0.3-1.5-0.8-2.1c-0.6-0.6-1.3-0.8-2.1-0.8H8.7c-1.2,0-2.3-0.2-3.4-0.7c-1.1-0.5-2-1.1-2.8-1.9
					c-0.8-0.8-1.4-1.7-1.9-2.8C0.2,19.8,0,18.7,0,17.5V8.7c0-1.2,0.2-2.3,0.7-3.4c0.5-1.1,1.1-2,1.9-2.8c0.8-0.8,1.7-1.4,2.8-1.9
					C6.4,0.2,7.5,0,8.7,0h37.9v8.7H17.5C16.7,8.7,16,9,15.4,9.6z" />
            <path d="M64.2,55.3H49.7V20.4c0-1.2,0.2-2.3,0.7-3.4c0.5-1.1,1.1-2,1.9-2.8c0.8-0.8,1.7-1.4,2.8-1.9
					c1.1-0.5,2.2-0.7,3.4-0.7h29.1c1.2,0,2.3,0.2,3.4,0.7c1.1,0.5,2,1.1,2.8,1.9c0.8,0.8,1.4,1.7,1.9,2.8c0.5,1.1,0.7,2.2,0.7,3.4
					v14.6c0,1.2-0.2,2.3-0.7,3.4c-0.5,1.1-1.1,2-1.9,2.8c-0.8,0.8-1.7,1.4-2.8,1.9c-1.1,0.5-2.2,0.7-3.4,0.7H67.1v-8.7h11.6
					c0.8,0,1.5-0.3,2.1-0.8c0.6-0.6,0.8-1.3,0.8-2.1v-8.7c0-0.8-0.3-1.5-0.8-2.1c-0.6-0.6-1.3-0.8-2.1-0.8H67.1
					c-0.8,0-1.5,0.3-2.1,0.8c-0.6,0.6-0.8,1.3-0.8,2.1V55.3z" />
            <path d="M113.5,8.8H98.9V0h14.6V8.8z M98.9,11.6h14.6v32H98.9V11.6z" />
            <path d="M148.7,20.4h-17.5V32c0,0.8,0.3,1.5,0.8,2.1c0.6,0.6,1.3,0.8,2.1,0.8h14.6v8.7h-23.3
					c-1.2,0-2.3-0.2-3.4-0.7c-1.1-0.5-2-1.1-2.8-1.9c-0.8-0.8-1.4-1.7-1.9-2.8c-0.5-1.1-0.7-2.2-0.7-3.4V0h14.6v11.6h17.5V20.4z" />
            <path d="M166.3,32c0,0.8,0.3,1.5,0.8,2.1c0.6,0.6,1.3,0.8,2.1,0.8h11.6c0.8,0,1.5-0.3,2.1-0.8
					c0.6-0.6,0.8-1.3,0.8-2.1v-8.7c0-0.8-0.3-1.5-0.8-2.1c-0.6-0.6-1.3-0.8-2.1-0.8h-11.6v-8.7h20.4c1.2,0,2.3,0.2,3.4,0.7
					c1.1,0.5,2,1.1,2.8,1.9c0.8,0.8,1.4,1.7,1.9,2.8c0.5,1.1,0.7,2.2,0.7,3.4v14.6c0,1.2-0.2,2.3-0.7,3.4c-0.5,1.1-1.1,2-1.9,2.8
					c-0.8,0.8-1.7,1.4-2.8,1.9c-1.1,0.5-2.2,0.7-3.4,0.7h-29.1c-1.2,0-2.3-0.2-3.4-0.7c-1.1-0.5-2-1.1-2.8-1.9
					c-0.8-0.8-1.4-1.7-1.9-2.8c-0.5-1.1-0.7-2.2-0.7-3.4V0h14.6V32z" />
            <path d="M233.9,23.3c0-0.8-0.3-1.5-0.8-2.1c-0.6-0.6-1.3-0.8-2.1-0.8h-11.6c-0.8,0-1.5,0.3-2.1,0.8
					c-0.6,0.6-0.8,1.3-0.8,2.1V32c0,0.8,0.3,1.5,0.8,2.1c0.6,0.6,1.3,0.8,2.1,0.8H231v8.7h-20.4c-1.2,0-2.3-0.2-3.4-0.7
					c-1.1-0.5-2-1.1-2.8-1.9c-0.8-0.8-1.4-1.7-1.9-2.8c-0.5-1.1-0.7-2.2-0.7-3.4V20.4c0-1.2,0.2-2.3,0.7-3.4s1.1-2,1.9-2.8
					c0.8-0.8,1.7-1.4,2.8-1.9c1.1-0.5,2.2-0.7,3.4-0.7h29.1c1.2,0,2.3,0.2,3.4,0.7c1.1,0.5,2,1.1,2.8,1.9c0.8,0.8,1.4,1.7,1.9,2.8
					s0.7,2.2,0.7,3.4v23.3h-14.6V23.3z" />
            <path d="M252.3,0h14.6v43.7h-14.6V0z" />
            <path d="M270,0h14.6v43.7H270V0z" />
        </g>
    </svg>
    <svg id="smallLogo" viewBox="0 0 96.5 43.8">
        <g>
            <path d="M2.6,23.7c0.8,0.8,1.7,1.4,2.8,1.9c1.1,0.5,2.2,0.7,3.4,0.7h20.5c0.8,0,1.5,0.3,2.1,0.8
			c0.6,0.6,0.8,1.3,0.8,2.1v1c4.8-0.7,9.7-1.7,14.6-3.2v-0.8c0-1.2-0.2-2.3-0.7-3.4c-0.5-1.1-1.1-2-1.9-2.8
			c-0.8-0.8-1.7-1.4-2.8-1.9c-1.1-0.5-2.2-0.7-3.4-0.7H17.5c-0.8,0-1.5-0.3-2.1-0.8c-0.6-0.6-0.8-1.3-0.8-2.1v-2.9
			c0-0.8,0.3-1.5,0.8-2.1c0.6-0.6,1.3-0.8,2.1-0.8h29.2V0h-38C7.6,0,6.4,0.2,5.3,0.7c-1.1,0.5-2,1.1-2.8,1.9
			C1.8,3.4,1.2,4.3,0.7,5.3C0.2,6.4,0,7.6,0,8.8v8.8c0,1.2,0.2,2.3,0.7,3.4C1.2,22,1.8,23,2.6,23.7z" />
            <path d="M29.4,35.1c0,0-0.1,0-0.1,0H0v8.8h38c1.2,0,2.3-0.2,3.4-0.7c1.1-0.5,2-1.1,2.8-1.9c0.8-0.8,1.4-1.7,1.9-2.8
			c0.5-1.1,0.7-2.2,0.7-3.4v-1.9C40.9,34.4,35.1,35,29.4,35.1z" />
            <path d="M93.9,14.3c-0.8-0.8-1.7-1.4-2.8-1.9c-0.5-0.2-1.1-0.4-1.6-0.5c-3.4,3.1-7.2,6-11.3,8.6h0.7
			c0.8,0,1.5,0.3,2.1,0.8c0.6,0.6,0.8,1.3,0.8,2.1v8.8c0,0.8-0.3,1.5-0.8,2.1c-0.6,0.6-1.3,0.8-2.1,0.8H67.2c-0.8,0-1.5-0.3-2.1-0.8
			c-0.6-0.6-0.8-1.3-0.8-2.1v-4.4c-2.8,1.2-5.7,2.2-8.7,3.2c-2,0.6-4,1.2-6,1.6v2.5c0,1.2,0.2,2.3,0.7,3.4c0.5,1.1,1.1,2,1.9,2.8
			c0.8,0.8,1.7,1.4,2.8,1.9c1.1,0.5,2.2,0.7,3.4,0.7h29.2c1.2,0,2.3-0.2,3.4-0.7c1.1-0.5,2-1.1,2.8-1.9c0.8-0.8,1.4-1.7,1.9-2.8
			c0.5-1.1,0.7-2.2,0.7-3.4V20.5c0-1.2-0.2-2.3-0.7-3.4C95.3,16,94.7,15,93.9,14.3z" />
            <path d="M76.8,11.7h-9.6v6.5C70.6,16.2,73.8,14,76.8,11.7z" />
            <path d="M64.3,19.8V0H49.7v26.1C54.9,24.4,59.7,22.3,64.3,19.8z" />
        </g>
    </svg>

    <svg id="headerMenu" viewBox="0 0 124 124">
        <g>
            <path d="M112,6H12C5.4,6,0,11.4,0,18s5.4,12,12,12h100c6.6,0,12-5.4,12-12S118.6,6,112,6z" />
            <path d="M112,50H12C5.4,50,0,55.4,0,62c0,6.6,5.4,12,12,12h100c6.6,0,12-5.4,12-12C124,55.4,118.6,50,112,50z" />
            <path d="M112,94H12c-6.6,0-12,5.4-12,12s5.4,12,12,12h100c6.6,0,12-5.4,12-12S118.6,94,112,94z" />
        </g>
    </svg>
    <svg id="invite" viewBox="-223 25 512 512">
        <path d="M83,486.6h-255.9c0-56.5-4.5-87.6,54.5-101.2c57.8-13.3,114.8-25.2,87.4-75.7
	C-112.3,160.2-54.2,75.3,33,75.3c85.5,0,151.7,84.4,64.1,234.4C75.8,346.2,53,377.5,53,411C53,440.3,64.4,466.9,83,486.6z M239,411
	c0,41.7-33.8,75.5-75.5,75.5c-41.7,0-75.5-33.8-75.5-75.5s33.8-75.5,75.5-75.5C205.2,335.6,239,369.4,239,411z M209.9,399.5h-32.7
	v-32.7H152v32.7h-32.7v25.2H152v32.7h25.2v-32.7h32.7V399.5z" />
    </svg>
    <svg id="headerHelp" viewBox="0 0 91.999 92">
        <path d="M45.385,0.004C19.982,0.344-0.334,21.215,0.004,46.619c0.34,25.393,21.209,45.715,46.611,45.377
	c25.398-0.342,45.718-21.213,45.38-46.615C91.655,19.986,70.785-0.335,45.385,0.004z M45.249,74l-0.254-0.004
	c-3.912-0.116-6.67-2.998-6.559-6.852c0.109-3.788,2.934-6.538,6.717-6.538l0.227,0.004c4.021,0.119,6.748,2.972,6.635,6.937
	C51.903,71.346,49.122,74,45.249,74z M61.704,41.341c-0.92,1.307-2.943,2.93-5.492,4.916l-2.807,1.938
	c-1.541,1.198-2.471,2.325-2.82,3.434c-0.275,0.873-0.41,1.104-0.434,2.88l-0.004,0.451H39.429l0.031-0.907
	c0.131-3.728,0.223-5.921,1.768-7.733c2.424-2.846,7.771-6.289,7.998-6.435c0.766-0.577,1.412-1.234,1.893-1.936
	c1.125-1.551,1.623-2.772,1.623-3.972c0-1.665-0.494-3.205-1.471-4.576c-0.939-1.323-2.723-1.993-5.303-1.993
	c-2.559,0-4.311,0.812-5.359,2.478c-1.078,1.713-1.623,3.512-1.623,5.35v0.457H27.935l0.02-0.477
	c0.285-6.769,2.701-11.643,7.178-14.487C37.946,18.918,41.446,18,45.53,18c5.346,0,9.859,1.299,13.412,3.861
	c3.6,2.596,5.426,6.484,5.426,11.556C64.368,36.254,63.472,38.919,61.704,41.341z" />
    </svg>
    <svg id="headerNotification" viewBox="0 0 80 88.516">
        <g>
            <path d="M63.254,36.822C51.852,12.287,45.926,2.97,27.295,3.355c-6.635,0.137-5.041-4.805-10.1-2.93
		c-5.055,1.876-0.717,4.62-5.889,8.863C-3.207,21.2-1.869,32.221,4.861,58.487c2.838,11.062-6.836,11.605-3.008,22.33
		c2.793,7.819,23.393,11.093,45.127,3.028c21.734-8.063,35.453-24.07,32.66-31.889C75.811,41.231,68.059,47.152,63.254,36.822z
		 M44.621,77.238c-19.41,7.202-35.363,2.965-36.037,1.083C7.422,75.073,14.85,64.24,37.041,56.005
		c22.193-8.234,34.576-5.181,35.871-1.553C73.678,56.594,64.033,70.036,44.621,77.238z M38.383,59.764
		c-10.148,3.766-17.201,8.073-21.764,11.951c3.211,2.918,9.23,3.63,15.23,1.404c7.637-2.833,12.326-9.337,10.471-14.526
		c-0.021-0.063-0.055-0.119-0.078-0.181C40.99,58.826,39.705,59.274,38.383,59.764z" />
        </g>
    </svg>
    <svg id="searchIcon" viewBox="0 0 512 512">
        <g>
            <path d="M495,466.2L377.2,348.4c29.2-35.6,46.8-81.2,46.8-130.9C424,103.5,331.5,11,217.5,11C103.4,11,11,103.5,11,217.5   S103.4,424,217.5,424c49.7,0,95.2-17.5,130.8-46.7L466.1,495c8,8,20.9,8,28.9,0C503,487.1,503,474.1,495,466.2z M217.5,382.9   C126.2,382.9,52,308.7,52,217.5S126.2,52,217.5,52C308.7,52,383,126.3,383,217.5S308.7,382.9,217.5,382.9z" />
        </g>
    </svg>
    <svg id="houseMenu" viewBox="0 0 306.773 306.773">
        <g>
            <path d="M302.93,149.794c5.561-6.116,5.024-15.49-1.199-20.932L164.63,8.898
		c-6.223-5.442-16.2-5.328-22.292,0.257L4.771,135.258c-6.092,5.585-6.391,14.947-0.662,20.902l3.449,3.592
		c5.722,5.955,14.971,6.665,20.645,1.581l10.281-9.207v134.792c0,8.27,6.701,14.965,14.965,14.965h53.624
		c8.264,0,14.965-6.695,14.965-14.965v-94.3h68.398v94.3c-0.119,8.264,5.794,14.959,14.058,14.959h56.828
		c8.264,0,14.965-6.695,14.965-14.965V154.024c0,0,2.84,2.488,6.343,5.567c3.497,3.073,10.842,0.609,16.403-5.513L302.93,149.794z" />
        </g>
    </svg>

    <svg id="universityMenu" viewBox="-2818 1401.7 31.9 31.9">
        <g>

            <path d="M-2810.8,1419.2v4.5c0,0,3.8,4.2,9.2,4.2c6.8,0,9.2-4.2,9.2-4.2v-4.9l-7.9,4.6c-0.6,0.3-1.3,0.4-1.9,0.1
			L-2810.8,1419.2z" />
            <path d="M-2801.4,1413.9c-1,0-2-0.2-2.5-0.6l-9.5,3.3l11.3,5.7c0.6,0.3,1.3,0.3,1.8-0.1l13.2-7.7
			c0.6-0.4,1-1,1-1.7c0-0.7-0.4-1.4-1.1-1.7l-13.7-6.8c-0.6-0.3-1.3-0.3-1.8,0.1l-13.2,7.7c-0.6,0.4-1,1-1,1.7
			c0,0.7,0.4,1.4,1.1,1.7v7c-0.7,0.2-1.2,0.9-1.2,1.7c0,0.6,0.3,1.1,0.7,1.4c-0.1,1-0.6,1.7-1.1,2.2c-0.4,0.4-0.7,1-0.6,1.5
			c0,0.6,0.3,1.1,0.8,1.5l0.2,0.2c0.4,0.3,1,0.4,1.6,0.3c0.5-0.1,1-0.5,1.3-0.9c0.9-1.7,0.5-3.8,0.2-4.8c0.3-0.3,0.5-0.8,0.5-1.2
			c0-0.8-0.5-1.4-1.2-1.6v-6.7l10.3-3.6c0.1-0.4,0.5-0.8,0.5-0.8c0,0.1,0,1.6,2.2,1.6c1.3,0,2.3-0.4,2.3-1.2c0-0.2,0-0.3-0.1-0.5
			c0.4,0.4,0.6,0.9,0.6,1.3C-2798.7,1413.4-2799.9,1413.9-2801.4,1413.9z" />
        </g>
    </svg>
    <svg id="blog" viewBox="-445 248 67 67">
        <g>
            <path d="M-384.5,266l2.2-4c1.8-3.1-3.4-6.7-5.8-8.1c-2.5-1.3-8.1-4.3-9.9-0.9l-3.1,5.4c-3.1-0.7-6.7-1.1-10.3-1.1
				c-18.6,0-33.6,10.1-33.6,22.4c0,12.3,15,22.4,33.6,22.4c0,0,0,0,0.2,0c0.2,2.7-2.9,7.2-7.4,9.4c17.7,0,25.8-13.2,25.8-13.2
				c9-4,14.8-10.8,14.8-18.6C-377.6,274.5-380.3,269.8-384.5,266z M-397,282.3l-6.5,3.6l-5.4,2.9v-6v-7.4l13-21.5
				c0.4-0.9,3.6,0,6.9,1.8s5.6,4,4.9,4.9L-397,282.3z" />
        </g>
        <polygon points="-408.3,288 -408.3,285 -408.3,282.1 -405.8,283.6 -403.2,285.1 -405.8,286.5 " />
    </svg>


    <svg id="userMenu" viewBox="0 0 50 50">
        <g>
            <path d="M47.374,46.125c-4.482-1.975-7.068-3.614-11.768-5.162c-0.351-0.115-0.77-0.34-0.909-0.611
		c-0.382-0.725-0.65-1.496-0.922-2.262c-0.173-0.486-0.326-0.945-0.95-1.18c-0.167-0.062-0.32-0.344-0.316-0.524
		c0.032-1.772-0.598-3.061,0.18-3.757c1.417-1.273,1.095-2.834,1.804-3.607c0.708-0.772,2.462-6.253,2.126-6.958
		c-0.336-0.702-1.521-0.373-1.245-0.714c1.09-1.344,1.426-4.059,1.37-6.285c0.194,0.403,0.301,0.841,0.301,1.32v0.461l6.937-4.508
		L25,0L6.021,12.336l1.715,1.114v2.496c-0.329,0.084-0.578,0.368-0.578,0.723c0,0.275,0.156,0.509,0.379,0.642L6.02,25.955h3.799
		L8.3,17.311c0.222-0.132,0.377-0.366,0.377-0.642c0-0.355-0.249-0.639-0.577-0.723v-2.258l4.856,3.156v-0.303
		c0.036,0.451,0.102,0.916,0.212,1.399c0.375,1.644,1.098,1.542,1.684,3.406c0.009,0.028,0.001,0.065,0.001,0.098v0.1
		c-0.046,0.212-0.216,0.451-0.359,0.49c-0.697,0.193-0.714,0.577-0.62,1.074c0.065,0.342,0.598,2.884,0.906,3.794
		c0.232,0.677,0.681,1.315,0.805,2.005c0.25,1.376,0.842,2.573,1.923,3.61c0.179,0.174,0.313,0.461,0.293,0.686
		c-0.084,1.061-0.209,2.12-0.376,3.171c-0.033,0.208-0.286,0.511-0.491,0.549c-0.819,0.147-0.946,0.688-1.141,1.237
		c-0.259,0.723-0.535,1.445-0.86,2.145c-0.103,0.219-0.356,0.445-0.606,0.541c-1.457,0.547-2.94,1.047-4.408,1.575
		c-1.561,0.567-5.697,3.103-7.233,3.81c-0.903,0.418-0.4,3.77-0.4,3.77c17.865,0,27.484,0,45.347,0
		C47.633,50,48.27,46.521,47.374,46.125z" />
        </g>
    </svg>
    <svg id="settingMenu" viewBox="0 0 268.765 268.765">
        <g>

            <path d="M267.92,119.461c-0.425-3.778-4.83-6.617-8.639-6.617
			c-12.315,0-23.243-7.231-27.826-18.414c-4.682-11.454-1.663-24.812,7.515-33.231c2.889-2.641,3.24-7.062,0.817-10.133
			c-6.303-8.004-13.467-15.234-21.289-21.5c-3.063-2.458-7.557-2.116-10.213,0.825c-8.01,8.871-22.398,12.168-33.516,7.529
			c-11.57-4.867-18.866-16.591-18.152-29.176c0.235-3.953-2.654-7.39-6.595-7.849c-10.038-1.161-20.164-1.197-30.232-0.08
			c-3.896,0.43-6.785,3.786-6.654,7.689c0.438,12.461-6.946,23.98-18.401,28.672c-10.985,4.487-25.272,1.218-33.266-7.574
			c-2.642-2.896-7.063-3.252-10.141-0.853c-8.054,6.319-15.379,13.555-21.74,21.493c-2.481,3.086-2.116,7.559,0.802,10.214
			c9.353,8.47,12.373,21.944,7.514,33.53c-4.639,11.046-16.109,18.165-29.24,18.165c-4.261-0.137-7.296,2.723-7.762,6.597
			c-1.182,10.096-1.196,20.383-0.058,30.561c0.422,3.794,4.961,6.608,8.812,6.608c11.702-0.299,22.937,6.946,27.65,18.415
			c4.698,11.454,1.678,24.804-7.514,33.23c-2.875,2.641-3.24,7.055-0.817,10.126c6.244,7.953,13.409,15.19,21.259,21.508
			c3.079,2.481,7.559,2.131,10.228-0.81c8.04-8.893,22.427-12.184,33.501-7.536c11.599,4.852,18.895,16.575,18.181,29.167
			c-0.233,3.955,2.67,7.398,6.595,7.85c5.135,0.599,10.301,0.898,15.481,0.898c4.917,0,9.835-0.27,14.752-0.817
			c3.897-0.43,6.784-3.786,6.653-7.696c-0.451-12.454,6.946-23.973,18.386-28.657c11.059-4.517,25.286-1.211,33.281,7.572
			c2.657,2.89,7.047,3.239,10.142,0.848c8.039-6.304,15.349-13.534,21.74-21.494c2.48-3.079,2.13-7.559-0.803-10.213
			c-9.353-8.47-12.388-21.946-7.529-33.524c4.568-10.899,15.612-18.217,27.491-18.217l1.662,0.043
			c3.853,0.313,7.398-2.655,7.865-6.588C269.044,139.917,269.058,129.639,267.92,119.461z M134.595,179.491
			c-24.718,0-44.824-20.106-44.824-44.824c0-24.717,20.106-44.824,44.824-44.824c24.717,0,44.823,20.107,44.823,44.824
			C179.418,159.385,159.312,179.491,134.595,179.491z" />



        </g>

    </svg>

    <svg id="logOffMenu" viewBox="-82.6 266 287.1 287.8">
        <g>
            <path d="M67.1,397.6h137.4C198.3,324,136.4,266,61.3,266C-18,266-82.6,330.5-82.6,409.9c0,79.3,64.5,143.9,143.9,143.9
			c74.4,0,135.9-56.9,143.1-129.4H67.1L77.7,435c5.2,5.2,5.2,13.6,0,18.8c-5.2,5.2-13.6,5.2-18.9,0l-33.3-33.3l0,0l-9.4-9.4l9.4-9.4
			l0,0l31.1-31.1c2.6-2.6,6-3.9,9.4-3.9s6.8,1.3,9.4,3.9c5.2,5.2,5.2,13.6,0,18.8L67.1,397.6z" />
        </g>
    </svg>
    <svg id="close" viewBox="0 0 212.982 212.982">
        <g>
            <path d="M131.804,106.491l75.936-75.936c6.99-6.99,6.99-18.323,0-25.312
		c-6.99-6.99-18.322-6.99-25.312,0l-75.937,75.937L30.554,5.242c-6.99-6.99-18.322-6.99-25.312,0c-6.989,6.99-6.989,18.323,0,25.312
		l75.937,75.936L5.242,182.427c-6.989,6.99-6.989,18.323,0,25.312c6.99,6.99,18.322,6.99,25.312,0l75.937-75.937l75.937,75.937
		c6.989,6.99,18.322,6.99,25.312,0c6.99-6.99,6.99-18.322,0-25.312L131.804,106.491z" />
        </g>
    </svg>
    <svg id="add" viewBox="0 0 357 357">
        <g>
            <path d="M357,204H204v153h-51V204H0v-51h153V0h51v153h153V204z" />
        </g>
    </svg>
    <svg id="delete" viewBox="0 0 459 459">
        <g>
            <path d="M76.5,408c0,28.05,22.95,51,51,51h204c28.05,0,51-22.95,51-51V102h-306V408z M408,25.5h-89.25L293.25,0h-127.5l-25.5,25.5
			H51v51h357V25.5z" />
        </g>
    </svg>
    <svg id="edit" viewBox="0 0 528.899 528.899">
        <g>
            <path d="M328.883,89.125l107.59,107.589l-272.34,272.34L56.604,361.465L328.883,89.125z M518.113,63.177l-47.981-47.981
		c-18.543-18.543-48.653-18.543-67.259,0l-45.961,45.961l107.59,107.59l53.611-53.611
		C532.495,100.753,532.495,77.559,518.113,63.177z M0.3,512.69c-1.958,8.812,5.998,16.708,14.811,14.565l119.891-29.069
		L27.473,390.597L0.3,512.69z" />
        </g>
    </svg>
    <svg id="ThreeDots" viewBox="0 0 408 408">
        <g>
            <path d="M204,102c28.05,0,51-22.95,51-51S232.05,0,204,0s-51,22.95-51,51S175.95,102,204,102z M204,153c-28.05,0-51,22.95-51,51
			s22.95,51,51,51s51-22.95,51-51S232.05,153,204,153z M204,306c-28.05,0-51,22.95-51,51s22.95,51,51,51s51-22.95,51-51
			S232.05,306,204,306z" />
        </g>
    </svg>
    <svg id="arrow" viewBox="0 0 129 129">
        <g>
            <g>
                <path d="M64.5,122.6c32,0,58.1-26,58.1-58.1S96.5,6.4,64.5,6.4S6.4,32.5,6.4,64.5S32.5,122.6,64.5,122.6z M64.5,14.6    c27.5,0,49.9,22.4,49.9,49.9S92,114.4,64.5,114.4S14.6,92,14.6,64.5S37,14.6,64.5,14.6z" />
                <path d="m51.1,93.5c0.8,0.8 1.8,1.2 2.9,1.2 1,0 2.1-0.4 2.9-1.2l26.4-26.4c0.8-0.8 1.2-1.8 1.2-2.9 0-1.1-0.4-2.1-1.2-2.9l-26.4-26.4c-1.6-1.6-4.2-1.6-5.8,0-1.6,1.6-1.6,4.2 0,5.8l23.5,23.5-23.5,23.5c-1.6,1.6-1.6,4.2 0,5.8z" />
            </g>
        </g>
    </svg>
    <svg id="sideMenuArrow" viewBox="12.8 194.1 67.3 60.8">
        <g>
            <polygon points="12.8,254.9 31.8,224.5 12.8,194.1 80,224.5 " />
        </g>
    </svg>
    <svg id="info" viewBox="0 0 45.999 45.999">
        <g>
            <path d="M39.264,6.736c-8.982-8.981-23.545-8.982-32.528,0c-8.982,8.982-8.981,23.545,0,32.528c8.982,8.98,23.545,8.981,32.528,0
			C48.245,30.281,48.244,15.719,39.264,6.736z M25.999,33c0,1.657-1.343,3-3,3s-3-1.343-3-3V21c0-1.657,1.343-3,3-3s3,1.343,3,3V33z
			 M22.946,15.872c-1.728,0-2.88-1.224-2.844-2.735c-0.036-1.584,1.116-2.771,2.879-2.771c1.764,0,2.88,1.188,2.917,2.771
			C25.897,14.648,24.746,15.872,22.946,15.872z" />
        </g>
    </svg>
    <svg id="gmail" viewBox="-468 273.4 21.5 15.6">
        <rect x="-467.1" y="273.5" style="fill:#F5F5F5" width="19.4" height="15.1" />
        <g>
            <path style="fill:#ED1921" d="M-468,273.5V289h21.5v-15.6H-468V273.5z M-452.3,274l-5,5l-5.5-5H-452.3z M-465.1,276.5l6,5.2l-6,4.6
		C-465.1,286.3-465.1,276.5-465.1,276.5z M-449.4,288.5h-15.7v-1.4l6.4-4.9l1.4,1.4l1.5-1.4l6.3,4.9v1.4H-449.4z M-449.4,286.3
		l-5.8-4.7l5.8-5.8V286.3z" />
        </g>
    </svg>
    <svg id="closed-lock" viewBox="0 0 330 330">
        <g>
            <path id="XMLID_510_" d="M65,330h200c8.284,0,15-6.716,15-15V145c0-8.284-6.716-15-15-15h-15V85c0-46.869-38.131-85-85-85
		S80,38.131,80,85v45H65c-8.284,0-15,6.716-15,15v170C50,323.284,56.716,330,65,330z M180,234.986V255c0,8.284-6.716,15-15,15
		s-15-6.716-15-15v-20.014c-6.068-4.565-10-11.824-10-19.986c0-13.785,11.215-25,25-25s25,11.215,25,25
		C190,223.162,186.068,230.421,180,234.986z M110,85c0-30.327,24.673-55,55-55s55,24.673,55,55v45H110V85z" />
        </g>
    </svg>
    <svg id="opened-lock" viewBox="-22 156.1 330 342.9">
        <g>
            <path id="XMLID_510_" d="M58,299H43c-8.3,0-15,6.7-15,15v170c0,8.3,6.7,15,15,15h200c8.3,0,15-6.7,15-15V314c0-8.3-6.7-15-15-15
		h-15 M158,404v20c0,8.3-6.7,15-15,15s-15-6.7-15-15v-20c-6.1-4.6-10-11.8-10-20c0-13.8,11.2-25,25-25s25,11.2,25,25
		C168,392.2,164.1,399.4,158,404z M198,299H88" />
        </g>
        <path d="M143,159c-46.9,0-85,38.1-85,85v72.8h30V244c0-30.3,24.7-55,55-55c30.3,0,55,24.7,55,55v22.8h30V244
	C228,197.1,189.9,159,143,159z" />
    </svg>

    <svg id="share" viewBox="0 0 525.152 525.152">
        <g>
            <path d="M420.735,371.217c-20.021,0-37.942,7.855-51.596,20.24L181.112,282.094c1.357-6.061,2.407-12.166,2.407-18.468
		c0-6.302-1.072-12.385-2.407-18.468l185.904-108.335c14.179,13.129,32.931,21.334,53.719,21.334
		c43.828,0,79.145-35.251,79.145-79.079C499.88,35.338,464.541,0,420.735,0c-43.741,0-79.079,35.338-79.079,79.057
		c0,6.389,1.072,12.385,2.407,18.468L158.158,205.947c-14.201-13.194-32.931-21.378-53.741-21.378
		c-43.828,0-79.145,35.317-79.145,79.057s35.317,79.079,79.145,79.079c20.787,0,39.54-8.206,53.719-21.334l187.698,109.604
		c-1.291,5.58-2.101,11.4-2.101,17.199c0,42.45,34.594,76.979,76.979,76.979c42.428,0,77.044-34.507,77.044-76.979
		S463.163,371.217,420.735,371.217z" />
        </g>
    </svg>
    <svg id="gmailgrey" viewBox="0 0 405 293.9">
        <g>
            <path d="M0,1.9v292h405V0H0V1.9z M295.7,11.3l-94.2,94.2L98,11.3H295.7z M54.6,58.4l113,98L54.6,243
		C54.6,243,54.6,58.4,54.6,58.4z M350.4,284.4H54.6v-26.4l120.6-92.3l26.4,26.4l28.3-26.4l118.7,92.3v26.4H350.4z M350.4,243
		l-109.3-88.5L350.4,45.2V243z" />
        </g>
    </svg>

    <svg id="chat" viewBox="0 0 554.962 554.962">
        <g>
            <path d="M530.5,148.633H404.826v162.155c0,23.611-19.211,42.822-42.822,42.822H168.49v54.297
			c0,13.506,10.949,24.461,24.461,24.461h190.118l79.443,66.354c10.367,8.66,15.942,5.098,12.454-7.949l-15.521-58.012
			c-0.036-0.135-0.109-0.258-0.146-0.393h71.2c13.507,0,24.462-10.949,24.462-24.461V173.088
			C554.955,159.582,544.007,148.633,530.5,148.633z" />
            <path d="M24.461,335.243h37.394c-0.037,0.135-0.11,0.258-0.147,0.393l-15.521,58.012c-2.203,8.225-0.795,12.68,3.134,12.68
			c2.307,0,5.483-1.529,9.314-4.73l79.444-66.354h30.417h193.515c13.507,0,24.461-10.947,24.461-24.461V148.633V75.97
			c0-13.507-10.948-24.461-24.461-24.461H24.461C10.955,51.509,0,62.458,0,75.97v234.812C0,324.296,10.949,335.243,24.461,335.243z" />
        </g>
    </svg>
    <svg id="exit" viewBox="0 0 32 32">
        <g>
            <polygon points="8,0 8,8 12,8 12,4 28,4 28,28 12,28 12,24 8,24 8,32 32,32 32,0 		" />
            <polygon points="14,22 20,16 14,10 14,14 0,14 0,18 14,18 		" />
        </g>
    </svg>
    <svg id="intercom" viewBox="-163 309 49 49">

        <path d="M-138.5,310c-13,0-23.5,10.5-23.5,23.5s10.5,23.5,23.5,23.5s23.5-10.5,23.5-23.5S-125.5,310-138.5,310z
	 M-124.5,337.3c-0.5,2.1-2,4-4.2,4.7c-2.1,0.6-5.2,0.9-8.5,0.9c-1.3,1-2.7,1.9-4.1,2.7c-1.7,1-6.3,2.3-4.2,0.3
	c1.5-1.4,1.8-2.5,1.8-3.2c-1.4-0.2-2.7-0.4-3.7-0.7c-2.2-0.7-3.7-2.6-4.2-4.7c-0.6-2.9-0.6-5.8,0-8.7c0.5-2.1,2-4,4.2-4.7
	c4.5-1.3,14.1-1.3,18.7,0c2.2,0.7,3.7,2.6,4.2,4.7C-123.9,331.5-123.9,334.5-124.5,337.3z" />
    </svg>

    <svg id="sad-student-smiley" viewBox="-177.9 309.2 172.7 159.5">
        <path id="smiley-sad-2-icon" d="M-99.2,363.9c-28.9,0-52.4,23.5-52.4,52.4c0,28.9,23.5,52.4,52.4,52.4c28.9,0,52.4-23.5,52.4-52.4
	C-46.8,387.3-70.3,363.9-99.2,363.9z M-99.2,458.5c-23.3,0-42.2-18.9-42.2-42.2c0-23.3,18.9-42.2,42.2-42.2
	c23.3,0,42.2,18.9,42.2,42.2C-57,439.6-75.9,458.5-99.2,458.5z M-113.6,397.3c-4.4,0-7.9,3.5-7.9,7.9s3.5,7.9,7.9,7.9
	c4.4,0,7.9-3.5,7.9-7.9C-105.7,400.9-109.2,397.3-113.6,397.3z M-83.9,397.3c-4.4,0-7.9,3.5-7.9,7.9s3.5,7.9,7.9,7.9
	c4.4,0,7.9-3.5,7.9-7.9C-76,400.9-79.5,397.3-83.9,397.3z M-72.7,436.4l-2.2,2.2c-8.9-5.4-14.6-7.8-23.7-7.8s-14.8,2.3-23.7,7.8
	l-2.2-2.2c4.7-6.7,14.4-14.9,26-14.9C-87.1,421.5-77.4,429.6-72.7,436.4z" />
        <g>
            <g>
                <path d="M-143.8,364.3v24.6c0,0,23.6-9.8,44.5-9.8c20.9,0,44.5,9.8,44.5,9.8v-25c0,0-22.5-11.9-44.9-11.9
			C-122,352.1-143.8,364.3-143.8,364.3z" />
                <path d="M-29.8,358.5L-29.8,358.5l8.8-4.8l-8.9-4.9l-12.9-7.2l-58.4-32.4l-76.8,43.9l29,13.2v-4.3c0,0,24.3-13.7,49.3-13.7
			s50,13.3,50,13.3v7.5l16-8.6" />
            </g>
            <path d="M-34.5,355.2c0,0,3.2,21.7,4,23.4c0.5,1,1.2,2,1.2,2s-0.9,0.3-0.8,1.8c0.1,1.5,0.9,1.2,0.9,1.2s0.8,1.9,0,2.7
		c-0.8,0.8-1.1,7.1,0.2,9.4c1.3,2.3,0.8,4.1,1.3,5.1c0.6,1-0.6,1,0,2c0.5,1,0.8,0.9-0.3,1.7c-1,0.8-1.6,1.8-1.2,1.6
		c0.4-0.2,1.3-0.6-0.2,0.7c-1.6,1.3-0.7,1.3-0.3,1.1c0.4-0.2,1.1,0.1,0.9,0.9c-0.3,0.8-1.1,2.4-0.4,2.6c0.6,0.2,0,1.1-1.1,1.6
		c-1.1,0.5-3.3,2.6-3.2,3.2c0,0,1.1-1.1,1.7-0.9c0.6,0.2-2,2-1.1,2.3c0.9,0.3,0.4-1,1.5-1.5c1.1-0.5-1,2.4-0.1,2.6
		c0.9,0.3-0.2-1.6,1-2.5c1.1-0.9-0.3,2,0.4,2.6c0.7,0.5-0.2-1.1,0.6-2.4c0.7-1,2-1.8,2.4-2.7c0.1-0.9,0-1.5,0.1-0.7
		c0,0.2,0,0.5-0.1,0.7c0,0.6-0.2,1.4-0.5,1.9c-0.8,1.2-1.1,3.5-0.7,3.7c0.5,0.1-0.5-1.8,0.8-2.7c0.7-0.5,1.1-1.5,1.3-2.2
		c0.1-0.5,0.2-0.8,0.2-0.8s0,0.4-0.2,0.8c-0.1,0.9-0.3,2.3-0.1,3.5c0.3,1.9,1.3,2.4,1.3,2.4s-0.7-1.7-0.9-2.9
		c-0.1-1.3,0.2-1,0.6-2.3c0.4-1.4,0.7-1.4,1-0.3c0.3,1.1-0.2,2.5,0.8,2.8c0.5,0.1,1,0.2,1.2,0.1c0-0.1,0-0.2,0.1-0.3
		c0-0.1-0.1-0.1-0.2-0.2c-0.7-0.6-1.4-1.1-1-2.2c0.4-1.2,1-0.6,1.3,1.2c0.1,0.5,0,0.9,0,1.2c0.1,0.2,0.1,0.3-0.1,0.3
		c-0.1,0.6-0.2,1,0.7,1.4c1.5,0.7,0-0.4,0.3-1.3c0.3-0.9,0.1-0.9,0.1-2.1c0-1.2,1.3,3.5,1.9,4c0.7,0.5,2.1,1.4,2.1,1.4
		s-1.8-1.8-2.2-3c-0.2-0.7-0.2-1.2-0.2-1.7c-2.3-2.1-2.7-5.6-2.5-8.8c0-2.2,0.4-4.7,1.5-7.4c0,0-1.2,3.5-1.5,7.4
		c0,5.3,2.5,8.7,2.5,8.8c0-0.4-0.1-0.8-0.3-1.2c-0.6-1,1.9,0.8,2.1,2.2c0.2,1.4,1.7,2.9,1.7,2.9s-1.1-1.9-1.1-3.4
		c-0.1-1.5-1.7-2.6-1.7-2.6s2.2,1.1,2.5,2.5c0.3,1.5,2.3,2.5,2.2,2.3c-0.1-0.2-1.8-1.9-1.9-4c-0.1-2.1-2.4-3.8-2.4-3.8
		s-0.6-2.5-1.3-3.1c-0.6-0.5,2.6,0.4,4,2.3c1.4,1.9,3.8,2.8,4.9,3.9c1.1,1.2,2.5,2.2,2.5,2.2s0.8-0.6,0-1.3
		c-0.7-0.7,0.8-0.7,1.1-0.2c0.3,0.6,2,0.2,2,0.2s-1.2-0.2-1.6-0.8c-0.4-0.7,0.7-1,0.4-1.1c-0.3-0.1-1.5-0.8-1.7-1.5
		c-0.2-0.7,2.7-0.3,2.7-0.3s-1.2-1.4-2.6-1.1c-1.4,0.3-3.3-0.8-3.8-2.4c-0.5-1.6-2.2-2.1-2.2-2.1s1.6-0.9,2.5,0.7
		c0.9,1.7,3,3.4,3.4,3.2c0.3-0.2-1.4-0.9-2.2-2.4c-0.9-1.5-1.3-2.6-3-2.6c-1.7,0-3.2,0.5-3.9-0.5c-0.8-0.9-1.6-2.7-1.6-4
		c0-1.3,0.7-2.6-0.3-3.8c-1-1.2-0.3-3.1-1.3-4.9c-1-1.7-2-3.9-3-4.6c-1-0.7-1.7-0.6-1.7-1.8c0-1.2-0.3-1.9-0.1-2.6
		c0.3-0.8,0-1.7-0.4-2.3c-0.3-0.6-0.9-1.2-1.2-1.7c-0.3-0.6-1.4-4.8-1.6-5.7c-0.2-1-2.6-18.3-2.6-18.3 M-26.9,410c0,0,0.5-3.4,3-8
		c2.5-4.6-0.7-10.9-0.7-10.9c2.6,2.8,2.8,8.5,0.7,12C-25.9,406.6-26.9,410-26.9,410z M-26.3,393.3c0.3-1.6,0.8-3.3,1.8-4.9
		C-24.5,388.4-25.6,390.6-26.3,393.3c-0.7,4.1,0.3,7.7,0.3,7.7C-27.2,398.7-26.9,395.8-26.3,393.3z" />
        </g>
    </svg>
    <svg id="star" viewBox="0 0 55.867 55.867">
        <path d="M55.818,21.578c-0.118-0.362-0.431-0.626-0.808-0.681L36.92,18.268L28.83,1.876c-0.168-0.342-0.516-0.558-0.896-0.558
	s-0.729,0.216-0.896,0.558l-8.091,16.393l-18.09,2.629c-0.377,0.055-0.689,0.318-0.808,0.681c-0.117,0.361-0.02,0.759,0.253,1.024
	l13.091,12.76l-3.091,18.018c-0.064,0.375,0.09,0.754,0.397,0.978c0.309,0.226,0.718,0.255,1.053,0.076l16.182-8.506l16.18,8.506
	c0.146,0.077,0.307,0.115,0.466,0.115c0.207,0,0.413-0.064,0.588-0.191c0.308-0.224,0.462-0.603,0.397-0.978l-3.09-18.017
	l13.091-12.761C55.838,22.336,55.936,21.939,55.818,21.578z" />
    </svg>
    <svg id="group" viewBox="0 0 80.13 80.13">
        <path d="M48.355,17.922c3.705,2.323,6.303,6.254,6.776,10.817c1.511,0.706,3.188,1.112,4.966,1.112
		c6.491,0,11.752-5.261,11.752-11.751c0-6.491-5.261-11.752-11.752-11.752C53.668,6.35,48.453,11.517,48.355,17.922z M40.656,41.984
		c6.491,0,11.752-5.262,11.752-11.752s-5.262-11.751-11.752-11.751c-6.49,0-11.754,5.262-11.754,11.752S34.166,41.984,40.656,41.984
		z M45.641,42.785h-9.972c-8.297,0-15.047,6.751-15.047,15.048v12.195l0.031,0.191l0.84,0.263
		c7.918,2.474,14.797,3.299,20.459,3.299c11.059,0,17.469-3.153,17.864-3.354l0.785-0.397h0.084V57.833
		C60.688,49.536,53.938,42.785,45.641,42.785z M65.084,30.653h-9.895c-0.107,3.959-1.797,7.524-4.47,10.088
		c7.375,2.193,12.771,9.032,12.771,17.11v3.758c9.77-0.358,15.4-3.127,15.771-3.313l0.785-0.398h0.084V45.699
		C80.13,37.403,73.38,30.653,65.084,30.653z M20.035,29.853c2.299,0,4.438-0.671,6.25-1.814c0.576-3.757,2.59-7.04,5.467-9.276
		c0.012-0.22,0.033-0.438,0.033-0.66c0-6.491-5.262-11.752-11.75-11.752c-6.492,0-11.752,5.261-11.752,11.752
		C8.283,24.591,13.543,29.853,20.035,29.853z M30.589,40.741c-2.66-2.551-4.344-6.097-4.467-10.032
		c-0.367-0.027-0.73-0.056-1.104-0.056h-9.971C6.75,30.653,0,37.403,0,45.699v12.197l0.031,0.188l0.84,0.265
		c6.352,1.983,12.021,2.897,16.945,3.185v-3.683C17.818,49.773,23.212,42.936,30.589,40.741z" />
    </svg>
    <svg id="crowd" viewBox="0 0 97.968 97.968">
        <g>
            <path d="M49.541,38.655c1.617,0,3.158,0.338,4.559,0.946c0.105-2.286,0.893-4.4,2.157-6.15c-0.89-0.186-1.808-0.285-2.748-0.285
			h-8.906c-0.938,0-1.856,0.098-2.739,0.282c1.347,1.869,2.152,4.15,2.165,6.62C45.666,39.168,47.544,38.655,49.541,38.655z" />
            <circle cx="49.054" cy="21.954" r="10.496" />
            <path d="M65.539,50.36c5.342,0,9.67-4.33,9.67-9.67c0-5.342-4.328-9.67-9.67-9.67c-5.292,0-9.583,4.251-9.663,9.524
			c3.049,1.912,5.187,5.146,5.577,8.9C62.695,50.026,64.076,50.36,65.539,50.36z" />
            <path d="M32.571,31.019c-5.343,0-9.671,4.329-9.671,9.67s4.328,9.669,9.671,9.669c1.892,0,3.651-0.553,5.143-1.492
			c0.475-3.091,2.132-5.794,4.499-7.634c0.01-0.181,0.027-0.36,0.027-0.543C42.24,35.348,37.91,31.019,32.571,31.019z" />
            <path d="M71.82,30.813c3.049,1.912,5.187,5.146,5.576,8.901c1.241,0.581,2.623,0.916,4.086,0.916c5.342,0,9.67-4.329,9.67-9.67
			c0-5.341-4.328-9.67-9.67-9.67C76.191,21.289,71.9,25.541,71.82,30.813z" />
            <circle cx="49.541" cy="50.673" r="9.671" />
            <path d="M69.643,51.019h-8.144c-0.089,3.258-1.479,6.192-3.679,8.301c6.068,1.806,10.509,7.434,10.509,14.082v3.092
			c8.04-0.297,12.674-2.573,12.979-2.729l0.646-0.328h0.067V63.401C82.023,56.573,76.469,51.019,69.643,51.019z" />
            <path d="M85.585,41.289h-8.142c-0.088,3.258-1.479,6.192-3.678,8.301c6.068,1.806,10.508,7.433,10.508,14.081v3.092
			c8.039-0.296,12.674-2.572,12.979-2.729l0.646-0.327h0.069V53.671C97.967,46.844,92.413,41.289,85.585,41.289z" />
            <path d="M41.256,59.319c-2.189-2.099-3.575-5.017-3.677-8.254c-0.301-0.022-0.6-0.047-0.908-0.047h-8.203
			c-6.828,0-12.383,5.555-12.383,12.383v10.037l0.025,0.155l0.691,0.218c5.227,1.633,9.893,2.383,13.944,2.621v-3.031
			C30.747,66.754,35.186,61.126,41.256,59.319z" />
            <path d="M53.643,61.003h-8.206c-6.828,0-12.383,5.557-12.383,12.382v10.037l0.026,0.157l0.69,0.216
			c6.516,2.035,12.177,2.715,16.835,2.715c9.101,0,14.375-2.595,14.701-2.76l0.646-0.328h0.068V73.385
			C66.023,66.558,60.469,61.003,53.643,61.003z" />
            <path d="M16.486,40.938c1.463,0,2.844-0.335,4.086-0.916c0.39-3.755,2.527-6.99,5.576-8.902c-0.08-5.271-4.371-9.523-9.662-9.523
			c-5.343,0-9.671,4.329-9.671,9.671C6.815,36.609,11.143,40.938,16.486,40.938z" />
            <path d="M24.202,49.899c-2.198-2.109-3.589-5.044-3.677-8.303h-8.143C5.554,41.597,0,47.152,0,53.979v10.037h0.069l0.646,0.327
			c0.306,0.154,4.939,2.433,12.979,2.728v-3.092C13.694,57.332,18.133,51.704,24.202,49.899z" />
            <path d="M27.796,30.063c1.16-0.47,2.93-1.047,4.62-1.047c1.967,0,3.891,0.506,5.607,1.469c0.382-0.375,0.732-0.783,1.05-1.22
			c-1.63-2.141-2.52-4.765-2.52-7.464c0-1.818,0.406-3.622,1.18-5.261c-1.762-1.592-4.01-2.461-6.399-2.461
			c-4.348,0-8.133,2.943-9.241,7.088C25.341,23.057,27.457,26.361,27.796,30.063z" />
            <path d="M59.117,28.718c0.336,0.534,0.729,1.037,1.175,1.505c1.588-0.792,3.334-1.208,5.092-1.208
			c1.729,0,3.386,0.442,4.472,0.812c0.34-4.013,2.767-7.555,6.4-9.35c-1.332-3.805-4.938-6.402-9.021-6.402
			c-2.64,0-5.14,1.084-6.945,2.992c0.634,1.512,0.955,3.101,0.955,4.73C61.244,24.292,60.51,26.67,59.117,28.718z" />
        </g>
    </svg>
    <svg id="documents" viewBox="0 0 256.61 256.61">
        <g>
            <g id="_x38_7_36_">
                <g>
                    <path d="M60.859,112.533c-6.853,0-6.853,10.646,0,10.646c27.294,0,54.583,0,81.875,0c6.865,0,6.865-10.646,0-10.646
				C115.442,112.533,88.153,112.533,60.859,112.533z" />
                    <path d="M142.734,137.704c-27.292,0-54.581,0-81.875,0c-6.853,0-6.853,10.634,0,10.634c27.294,0,54.583,0,81.875,0
				C149.6,148.338,149.6,137.704,142.734,137.704z" />
                    <path d="M142.734,161.018c-27.292,0-54.581,0-81.875,0c-6.853,0-6.853,10.633,0,10.633c27.294,0,54.583,0,81.875,0
				C149.6,171.65,149.6,161.018,142.734,161.018z" />
                    <path d="M142.734,186.184c-27.292,0-54.581,0-81.875,0c-6.853,0-6.853,10.629,0,10.629c27.294,0,54.583,0,81.875,0
				C149.6,196.812,149.6,186.184,142.734,186.184z" />
                    <path d="M141.17,209.934c-27.302,0-54.601,0-81.89,0c-6.848,0-6.848,10.633,0,10.633c27.289,0,54.588,0,81.89,0
				C148.015,220.566,148.015,209.934,141.17,209.934z" />
                    <path d="M25.362,58.087V256.61h152.877V85.63l-28.406-27.543H25.362z M165.026,243.393H38.585V71.305h104.443v20.97h21.988
				v151.118H165.026z" />
                    <polygon points="51.204,27.667 51.204,50.645 64.427,50.645 64.427,40.88 168.875,40.88 168.875,61.85 190.868,61.85
				190.868,212.971 185.059,212.971 185.059,226.188 204.086,226.188 204.086,55.205 175.68,27.667 			" />
                    <polygon points="202.837,0 78.363,0 78.363,22.983 91.581,22.983 91.581,13.218 196.032,13.218 196.032,34.188 218.025,34.188
				218.025,185.306 212.221,185.306 212.221,198.523 231.248,198.523 231.248,27.543 			" />
                </g>
            </g>
        </g>
    </svg>
    <svg id="user" viewBox="0 0 60 60" style="enable-background:new 0 0 60 60;">
        <path d="M48.014,42.889l-9.553-4.776C37.56,37.662,37,36.756,37,35.748v-3.381c0.229-0.28,0.47-0.599,0.719-0.951
	c1.239-1.75,2.232-3.698,2.954-5.799C42.084,24.97,43,23.575,43,22v-4c0-0.963-0.36-1.896-1-2.625v-5.319
	c0.056-0.55,0.276-3.824-2.092-6.525C37.854,1.188,34.521,0,30,0s-7.854,1.188-9.908,3.53C17.724,6.231,17.944,9.506,18,10.056
	v5.319c-0.64,0.729-1,1.662-1,2.625v4c0,1.217,0.553,2.352,1.497,3.109c0.916,3.627,2.833,6.36,3.503,7.237v3.309
	c0,0.968-0.528,1.856-1.377,2.32l-8.921,4.866C8.801,44.424,7,47.458,7,50.762V54c0,4.746,15.045,6,23,6s23-1.254,23-6v-3.043
	C53,47.519,51.089,44.427,48.014,42.889z" />
    </svg>
    <svg id="docs" viewBox="0 0 45.1 45.1" style="enable-background:new 0 0 45.1 45.1;">
<g>
    <g id="_x35_1_80_">
    <g>
    <path d="M26.7-0.2H8.4v45.1h34.7V16L26.7-0.2z M38.1,39.8H13.4v-35h11.7v12.8h13C38.1,17.5,38.1,39.8,38.1,39.8z" />
		</g>
	</g>
</g>
</svg>
</svg>
