<svg xmlns="http://www.w3.org/2000/svg" style="display: none;">
    <symbol id="logo" viewBox="0 0 284.5 55.3">
        <g id="XMLID_2_">
            <g>
                <g id="XMLID_170_">
                    <g>
                        <path d="M15.4,9.6c-0.6,0.6-0.8,1.3-0.8,2.1v2.9c0,0.8,0.3,1.5,0.8,2.1c0.6,0.6,1.3,0.8,2.1,0.8h20.4
					c1.2,0,2.3,0.2,3.4,0.7c1.1,0.5,2,1.1,2.8,1.9c0.8,0.8,1.4,1.7,1.9,2.8c0.5,1.1,0.7,2.2,0.7,3.4v8.7c0,1.2-0.2,2.3-0.7,3.4
					s-1.1,2-1.9,2.8c-0.8,0.8-1.7,1.4-2.8,1.9c-1.1,0.5-2.2,0.7-3.4,0.7H0v-8.7h29.1c0.8,0,1.5-0.3,2.1-0.8c0.6-0.6,0.8-1.3,0.8-2.1
					v-2.9c0-0.8-0.3-1.5-0.8-2.1c-0.6-0.6-1.3-0.8-2.1-0.8H8.7c-1.2,0-2.3-0.2-3.4-0.7c-1.1-0.5-2-1.1-2.8-1.9
					c-0.8-0.8-1.4-1.7-1.9-2.8C0.2,19.8,0,18.7,0,17.5V8.7c0-1.2,0.2-2.3,0.7-3.4c0.5-1.1,1.1-2,1.9-2.8c0.8-0.8,1.7-1.4,2.8-1.9
					C6.4,0.2,7.5,0,8.7,0h37.9v8.7H17.5C16.7,8.7,16,9,15.4,9.6z" />
                    </g>
                </g>
                <g id="XMLID_168_">
                    <g>
                        <path d="M64.2,55.3H49.7V20.4c0-1.2,0.2-2.3,0.7-3.4c0.5-1.1,1.1-2,1.9-2.8c0.8-0.8,1.7-1.4,2.8-1.9
					c1.1-0.5,2.2-0.7,3.4-0.7h29.1c1.2,0,2.3,0.2,3.4,0.7c1.1,0.5,2,1.1,2.8,1.9c0.8,0.8,1.4,1.7,1.9,2.8c0.5,1.1,0.7,2.2,0.7,3.4
					v14.6c0,1.2-0.2,2.3-0.7,3.4c-0.5,1.1-1.1,2-1.9,2.8c-0.8,0.8-1.7,1.4-2.8,1.9c-1.1,0.5-2.2,0.7-3.4,0.7H67.1v-8.7h11.6
					c0.8,0,1.5-0.3,2.1-0.8c0.6-0.6,0.8-1.3,0.8-2.1v-8.7c0-0.8-0.3-1.5-0.8-2.1c-0.6-0.6-1.3-0.8-2.1-0.8H67.1
					c-0.8,0-1.5,0.3-2.1,0.8c-0.6,0.6-0.8,1.3-0.8,2.1V55.3z" />
                    </g>
                </g>
                <g id="XMLID_165_">
                    <g>
                        <path d="M113.5,8.8H98.9V0h14.6V8.8z M98.9,11.6h14.6v32H98.9V11.6z" />
                    </g>
                </g>
                <g id="XMLID_163_">
                    <g>
                        <path d="M148.7,20.4h-17.5V32c0,0.8,0.3,1.5,0.8,2.1c0.6,0.6,1.3,0.8,2.1,0.8h14.6v8.7h-23.3
					c-1.2,0-2.3-0.2-3.4-0.7c-1.1-0.5-2-1.1-2.8-1.9c-0.8-0.8-1.4-1.7-1.9-2.8c-0.5-1.1-0.7-2.2-0.7-3.4V0h14.6v11.6h17.5V20.4z" />
                    </g>
                </g>
                <g id="XMLID_160_">
                    <g>
                        <path d="M166.3,32c0,0.8,0.3,1.5,0.8,2.1c0.6,0.6,1.3,0.8,2.1,0.8h11.6c0.8,0,1.5-0.3,2.1-0.8
					c0.6-0.6,0.8-1.3,0.8-2.1v-8.7c0-0.8-0.3-1.5-0.8-2.1c-0.6-0.6-1.3-0.8-2.1-0.8h-11.6v-8.7h20.4c1.2,0,2.3,0.2,3.4,0.7
					c1.1,0.5,2,1.1,2.8,1.9c0.8,0.8,1.4,1.7,1.9,2.8c0.5,1.1,0.7,2.2,0.7,3.4v14.6c0,1.2-0.2,2.3-0.7,3.4c-0.5,1.1-1.1,2-1.9,2.8
					c-0.8,0.8-1.7,1.4-2.8,1.9c-1.1,0.5-2.2,0.7-3.4,0.7h-29.1c-1.2,0-2.3-0.2-3.4-0.7c-1.1-0.5-2-1.1-2.8-1.9
					c-0.8-0.8-1.4-1.7-1.9-2.8c-0.5-1.1-0.7-2.2-0.7-3.4V0h14.6V32z" />
                    </g>
                </g>
                <g id="XMLID_157_">
                    <g>
                        <path d="M233.9,23.3c0-0.8-0.3-1.5-0.8-2.1c-0.6-0.6-1.3-0.8-2.1-0.8h-11.6c-0.8,0-1.5,0.3-2.1,0.8
					c-0.6,0.6-0.8,1.3-0.8,2.1V32c0,0.8,0.3,1.5,0.8,2.1c0.6,0.6,1.3,0.8,2.1,0.8H231v8.7h-20.4c-1.2,0-2.3-0.2-3.4-0.7
					c-1.1-0.5-2-1.1-2.8-1.9c-0.8-0.8-1.4-1.7-1.9-2.8c-0.5-1.1-0.7-2.2-0.7-3.4V20.4c0-1.2,0.2-2.3,0.7-3.4s1.1-2,1.9-2.8
					c0.8-0.8,1.7-1.4,2.8-1.9c1.1-0.5,2.2-0.7,3.4-0.7h29.1c1.2,0,2.3,0.2,3.4,0.7c1.1,0.5,2,1.1,2.8,1.9c0.8,0.8,1.4,1.7,1.9,2.8
					s0.7,2.2,0.7,3.4v23.3h-14.6V23.3z" />
                    </g>
                </g>
                <g id="XMLID_155_">
                    <g>
                        <path d="M252.3,0h14.6v43.7h-14.6V0z" />
                    </g>
                </g>
                <g id="XMLID_153_">
                    <g>
                        <path d="M270,0h14.6v43.7H270V0z" />
                    </g>
                </g>
            </g>
        </g>
    </symbol>

    <symbol id="headerMenu" viewBox="0 0 124 124">
        <g>
            <path d="M112,6H12C5.4,6,0,11.4,0,18s5.4,12,12,12h100c6.6,0,12-5.4,12-12S118.6,6,112,6z" />
            <path d="M112,50H12C5.4,50,0,55.4,0,62c0,6.6,5.4,12,12,12h100c6.6,0,12-5.4,12-12C124,55.4,118.6,50,112,50z" />
            <path d="M112,94H12c-6.6,0-12,5.4-12,12s5.4,12,12,12h100c6.6,0,12-5.4,12-12S118.6,94,112,94z" />
        </g>
    </symbol>
    <symbol id="headerInvite" viewBox="-2603 1201.4 462 433.3">
        <g>
            <path d="M-2220.7,1473.6c-44.5,0.1-80.4,36.2-80.3,80.7c0.1,44.5,36.3,80.4,80.7,80.3c44.5-0.1,80.4-36.3,80.3-80.7
		C-2140.1,1509.4-2176.3,1473.5-2220.7,1473.6z M-2171,1568.6l-34.9,0.1l0.1,34.9l-26.9,0.1l-0.1-34.9l-34.9,0.1l-0.1-26.9l34.9-0.1
		l-0.1-34.9l26.9-0.1l0.1,34.9l34.9-0.1L-2171,1568.6z" />
            <path d="M-2325,1554.4c-0.1-22.3,6.9-43,18.8-60c-27.5-11.2-42.2-27.6-25.7-58.6c81-152.7,21.5-234.4-64.1-234.4
		c-87.2,0-145.3,84.8-64.1,234.4c27.4,50.5-29.6,62.4-87.4,75.7c-59,13.6-54.5,44.7-54.5,101.2h294.9
		C-2318.3,1596-2324.9,1576-2325,1554.4z" />
        </g>
    </symbol>
    <symbol id="headerHelp" viewBox="0 0 91.999 92">
<path d="M45.385,0.004C19.982,0.344-0.334,21.215,0.004,46.619c0.34,25.393,21.209,45.715,46.611,45.377
	c25.398-0.342,45.718-21.213,45.38-46.615C91.655,19.986,70.785-0.335,45.385,0.004z M45.249,74l-0.254-0.004
	c-3.912-0.116-6.67-2.998-6.559-6.852c0.109-3.788,2.934-6.538,6.717-6.538l0.227,0.004c4.021,0.119,6.748,2.972,6.635,6.937
	C51.903,71.346,49.122,74,45.249,74z M61.704,41.341c-0.92,1.307-2.943,2.93-5.492,4.916l-2.807,1.938
	c-1.541,1.198-2.471,2.325-2.82,3.434c-0.275,0.873-0.41,1.104-0.434,2.88l-0.004,0.451H39.429l0.031-0.907
	c0.131-3.728,0.223-5.921,1.768-7.733c2.424-2.846,7.771-6.289,7.998-6.435c0.766-0.577,1.412-1.234,1.893-1.936
	c1.125-1.551,1.623-2.772,1.623-3.972c0-1.665-0.494-3.205-1.471-4.576c-0.939-1.323-2.723-1.993-5.303-1.993
	c-2.559,0-4.311,0.812-5.359,2.478c-1.078,1.713-1.623,3.512-1.623,5.35v0.457H27.935l0.02-0.477
	c0.285-6.769,2.701-11.643,7.178-14.487C37.946,18.918,41.446,18,45.53,18c5.346,0,9.859,1.299,13.412,3.861
	c3.6,2.596,5.426,6.484,5.426,11.556C64.368,36.254,63.472,38.919,61.704,41.341z" />
</symbol>
    <symbol id="headerNotification" viewBox="0 0 80 88.516">
<g>
    <path d="M63.254,36.822C51.852,12.287,45.926,2.97,27.295,3.355c-6.635,0.137-5.041-4.805-10.1-2.93
		c-5.055,1.876-0.717,4.62-5.889,8.863C-3.207,21.2-1.869,32.221,4.861,58.487c2.838,11.062-6.836,11.605-3.008,22.33
		c2.793,7.819,23.393,11.093,45.127,3.028c21.734-8.063,35.453-24.07,32.66-31.889C75.811,41.231,68.059,47.152,63.254,36.822z
		 M44.621,77.238c-19.41,7.202-35.363,2.965-36.037,1.083C7.422,75.073,14.85,64.24,37.041,56.005
		c22.193-8.234,34.576-5.181,35.871-1.553C73.678,56.594,64.033,70.036,44.621,77.238z M38.383,59.764
		c-10.148,3.766-17.201,8.073-21.764,11.951c3.211,2.918,9.23,3.63,15.23,1.404c7.637-2.833,12.326-9.337,10.471-14.526
		c-0.021-0.063-0.055-0.119-0.078-0.181C40.99,58.826,39.705,59.274,38.383,59.764z" />
</g>
</symbol>
    <symbol id="searchIcon" viewBox="-2819 1402.4 30.2 30.2">
<path d="M-2798.9,1405.9c-4.6-4.6-12.1-4.6-16.7,0c-4.6,4.6-4.6,12.1,0,16.7c4.1,4.1,10.5,4.5,15.1,1.3c0.1,0.5,0.3,0.9,0.7,1.3
	l6.7,6.7c1,1,2.6,1,3.5,0c1-1,1-2.6,0-3.5l-6.7-6.7c-0.4-0.4-0.8-0.6-1.3-0.7C-2794.4,1416.4-2794.8,1410.1-2798.9,1405.9z
	 M-2800.9,1420.6c-3.4,3.4-9,3.4-12.5,0c-3.4-3.4-3.4-9,0-12.5c3.4-3.4,9-3.4,12.5,0C-2797.6,1411.5-2797.6,1417.1-2800.9,1420.6z" />
</symbol>

</svg>
