<svg xmlns="http://www.w3.org/2000/svg" style="display: none;">

    <symbol id="download" viewBox="0 0 537.794 537.795">
        <g>
            <path d="M463.091,466.114H74.854c-11.857,0-21.497,9.716-21.497,21.497v28.688c0,11.857,9.716,21.496,21.497,21.496h388.084
			c11.857,0,21.496-9.716,21.496-21.496v-28.688C484.665,475.677,474.949,466.114,463.091,466.114z" />
            <path d="M253.94,427.635c4.208,4.208,9.716,6.35,15.147,6.35c5.508,0,11.016-2.142,15.147-6.35l147.033-147.033
			c8.339-8.338,8.339-21.955,0-30.447l-20.349-20.349c-8.339-8.339-21.956-8.339-30.447,0l-75.582,75.659V21.497
			C304.889,9.639,295.173,0,283.393,0h-28.688c-11.857,0-21.497,9.562-21.497,21.497v284.044l-75.658-75.659
			c-8.339-8.338-22.032-8.338-30.447,0l-20.349,20.349c-8.338,8.338-8.338,22.032,0,30.447L253.94,427.635z" />
        </g>
    </symbol>
    <symbol id="info" viewBox="0 0 45.818 45.818">
        <g>
            <path d="M22.909,0C10.258,0,0,10.257,0,22.908c0,12.652,10.258,22.91,22.909,22.91s22.909-10.258,22.909-22.91
		C45.818,10.257,35.561,0,22.909,0z M26.411,35.417c0,1.921-1.573,3.478-3.492,3.478c-1.92,0-3.492-1.557-3.492-3.478V20.201
		c0-1.92,1.572-3.477,3.492-3.477c1.919,0,3.492,1.556,3.492,3.477V35.417z M22.909,13.851c-2.119,0-3.837-1.718-3.837-3.836
		c0-2.12,1.718-3.836,3.837-3.836c2.118,0,3.837,1.716,3.837,3.836C26.746,12.133,25.027,13.851,22.909,13.851z" />
        </g>
    </symbol>
    <symbol id="print" viewBox="0 0 16 16">
        <g>
            <path d="M4,12.5v3h8v-3v-2H4V12.5z M5,11.5h6v1H5V11.5z M5,13.5h6v1H5V13.5z" />
            <polygon points="12,3.5 12,0.5 4,0.5 4,3.5 4,5.5 12,5.5 		" />
            <path d="M14,3.5h-1v2v1H3v-1v-2H2c-1,0-2,1-2,2v5c0,1,1,2,2,2h1v-2v-1h10v1v2h1c1,0,2-1,2-2v-5
			C16,4.5,15,3.5,14,3.5z" />
        </g>
    </symbol>
    <symbol id="share" viewBox="0 0 525.152 525.152">
        <g>
            <path d="M420.735,371.217c-20.021,0-37.942,7.855-51.596,20.24L181.112,282.094c1.357-6.061,2.407-12.166,2.407-18.468
		c0-6.302-1.072-12.385-2.407-18.468l185.904-108.335c14.179,13.129,32.931,21.334,53.719,21.334
		c43.828,0,79.145-35.251,79.145-79.079C499.88,35.338,464.541,0,420.735,0c-43.741,0-79.079,35.338-79.079,79.057
		c0,6.389,1.072,12.385,2.407,18.468L158.158,205.947c-14.201-13.194-32.931-21.378-53.741-21.378
		c-43.828,0-79.145,35.317-79.145,79.057s35.317,79.079,79.145,79.079c20.787,0,39.54-8.206,53.719-21.334l187.698,109.604
		c-1.291,5.58-2.101,11.4-2.101,17.199c0,42.45,34.594,76.979,76.979,76.979c42.428,0,77.044-34.507,77.044-76.979
		S463.163,371.217,420.735,371.217z" />
        </g>
    </symbol>
    <symbol id="rename" viewBox="0 0 268.725 268.725">
        <g>
            <path d="M161.359,56.337c-7.041-7.049-18.458-7.049-25.498,0l-6.374,6.381
		l-89.243,89.337l0.023,0.023l-2.812,2.82c0,0-8.968,9.032-29.216,74.399c-0.142,0.457-0.283,0.911-0.426,1.374
		c-0.361,1.171-0.726,2.361-1.094,3.567c-0.326,1.066-0.656,2.154-0.987,3.249c-0.279,0.923-0.556,1.836-0.839,2.779
		c-0.642,2.14-1.292,4.318-1.955,6.567c-1.455,4.937-5.009,16.07-0.99,20.1c3.87,3.882,15.12,0.467,20.043-0.993
		c2.232-0.662,4.395-1.311,6.519-1.952c0.981-0.296,1.932-0.586,2.891-0.878c1.031-0.314,2.057-0.626,3.062-0.935
		c1.269-0.39,2.52-0.775,3.75-1.157c0.367-0.114,0.727-0.227,1.091-0.34c62.192-19.365,73.357-28.453,74.285-29.284
		c0.007-0.005,0.007-0.005,0.012-0.01c0.039-0.036,0.066-0.06,0.066-0.06l2.879-2.886l0.193,0.193l89.245-89.337l-0.001-0.001
		l6.374-6.381c7.041-7.048,7.041-18.476,0-25.525L161.359,56.337z M103.399,219.782c-0.078,0.053-0.184,0.122-0.296,0.193
		c-0.062,0.04-0.137,0.087-0.211,0.133c-0.075,0.047-0.157,0.098-0.244,0.151c-0.077,0.047-0.157,0.095-0.243,0.147
		c-2.969,1.777-11.682,6.362-32.828,14.017c-2.471,0.894-5.162,1.842-7.981,2.819l-30.06-30.091c0.98-2.84,1.929-5.551,2.826-8.041
		c7.638-21.235,12.219-29.974,13.986-32.939c0.043-0.071,0.082-0.136,0.121-0.2c0.062-0.102,0.12-0.197,0.174-0.284
		c0.043-0.069,0.088-0.141,0.126-0.2c0.071-0.111,0.14-0.217,0.193-0.296l2.2-2.206l54.485,54.542L103.399,219.782z M263.351,56.337
		l-50.997-51.05c-7.041-7.048-18.456-7.048-25.498,0l-12.748,12.763c-7.041,7.048-7.041,18.476,0,25.524l50.996,51.05
		c7.04,7.048,18.457,7.048,25.498,0l12.749-12.762C270.392,74.813,270.392,63.385,263.351,56.337z" />
        </g>
    </symbol>

</svg>