<svg xmlns="http://www.w3.org/2000/svg" style="display: none;">
    <svg id="closedUni" viewBox="-450 105.7 133.8 143.6">
        <path d="M-328.1,186v-24.7c0-30.6-24.9-55.6-55.6-55.6c-30.6,0-55.5,24.9-55.5,55.6V186H-450v63.3h133.8V186H-328.1z
	 M-419,161.3c0-20.3,17.2-36.6,37.7-35.3c18.7,1.2,33,17.1,33,35.9V186l0,0H-419V161.3z M-408.6,229.8l-4.7,3.3l-6.3-9.1l-6.3,9.1
	l-4.7-3.3l6.5-8.9l-10.4-3.3l1.9-5.3l10.1,3.7v-10.6h5.8V216l10.1-3.7l1.9,5.3l-10.4,3.3L-408.6,229.8z M-370.8,229.8l-4.7,3.3
	l-6.3-9.1l-6.3,9.1l-4.7-3.3l6.5-8.9l-10.4-3.3l1.9-5.3l10.1,3.7v-10.6h5.8V216l10.1-3.7l1.9,5.3l-10.4,3.3L-370.8,229.8z
	 M-335.6,229.8l-4.7,3.3l-6.3-9.1l-6.3,9.1l-4.7-3.3l6.5-8.9l-10.4-3.3l1.9-5.3l10.1,3.7v-10.6h5.8V216l10.1-3.7l1.9,5.3l-10.4,3.3
	L-335.6,229.8z" />
    </svg>
    <svg id="info" viewBox="0 0 202.978 202.978">
        <g>
            <path d="M100.942,0.001C44.9,0.304-0.297,45.98,0.006,102.031
					c0.293,56.051,45.998,101.238,102.02,100.945c56.081-0.303,101.248-45.978,100.945-102.02
					C202.659,44.886,157.013-0.292,100.942,0.001z M101.948,186.436c-46.916,0.234-85.108-37.576-85.372-84.492
					c-0.244-46.907,37.537-85.157,84.453-85.411c46.926-0.254,85.167,37.596,85.421,84.483
					C186.695,147.951,148.855,186.182,101.948,186.436z M116.984,145.899l-0.42-75.865l-39.149,0.254l0.078,16.6l10.63-0.059
					l0.313,59.237l-11.275,0.039l0.088,15.857l49.134-0.264l-0.098-15.847L116.984,145.899z M102.065,58.837
					c9.575-0.039,15.349-6.448,15.3-14.323c-0.254-8.07-5.882-14.225-15.095-14.186c-9.184,0.059-15.173,6.292-15.134,14.362
					C87.185,52.555,93.028,58.906,102.065,58.837z" />

        </g>
    </svg>
    <svg id="filter" viewBox="0 0 971.986 971.986" style="enable-background:new 0 0 971.986 971.986;">
<g>
    <path d="M370.216,459.3c10.2,11.1,15.8,25.6,15.8,40.6v442c0,26.601,32.1,40.101,51.1,21.4l123.3-141.3
		c16.5-19.8,25.6-29.601,25.6-49.2V500c0-15,5.7-29.5,15.8-40.601L955.615,75.5c26.5-28.8,6.101-75.5-33.1-75.5h-873
		c-39.2,0-59.7,46.6-33.1,75.5L370.216,459.3z" />
</g>
</svg>
</svg>
