<svg xmlns="http://www.w3.org/2000/svg" style="display: none;">
    <svg id="q-mark" viewBox="1 1 27 27">
        <path fill-rule="evenodd" opacity="0.6" fill="rgb(255, 255, 255)"
              d="M14.282,0.958 C6.836,1.057 0.882,7.175 0.981,14.621 C1.081,22.065 7.197,28.022 14.642,27.922 C22.086,27.822 28.041,21.704 27.942,14.259 C27.842,6.815 21.726,0.858 14.282,0.958 ZM14.242,22.648 L14.167,22.646 C13.021,22.612 12.213,21.767 12.245,20.638 C12.277,19.527 13.105,18.721 14.214,18.721 L14.280,18.723 C15.459,18.757 16.258,19.594 16.225,20.756 C16.192,21.869 15.377,22.648 14.242,22.648 ZM19.064,13.074 C18.795,13.457 18.201,13.933 17.454,14.515 L16.632,15.084 C16.180,15.435 15.908,15.765 15.805,16.090 C15.725,16.346 15.686,16.414 15.678,16.934 L15.677,17.067 L12.536,17.067 L12.545,16.800 C12.583,15.708 12.610,15.065 13.063,14.534 C13.773,13.700 15.341,12.690 15.407,12.648 C15.632,12.478 15.821,12.286 15.962,12.080 C16.292,11.625 16.438,11.268 16.438,10.916 C16.438,10.428 16.293,9.976 16.006,9.574 C15.731,9.187 15.209,8.990 14.452,8.990 C13.702,8.990 13.189,9.228 12.882,9.717 C12.565,10.219 12.406,10.746 12.406,11.285 L12.406,11.419 L9.167,11.419 L9.173,11.279 C9.257,9.295 9.965,7.866 11.276,7.033 C12.101,6.502 13.127,6.233 14.324,6.233 C15.891,6.233 17.213,6.613 18.255,7.364 C19.310,8.125 19.845,9.265 19.845,10.752 C19.845,11.583 19.582,12.365 19.064,13.074 Z" />
    </svg>
    <svg id="checkmark" viewBox="0 0 12 12">
        <path fill-rule="evenodd" fill="rgb(245, 245, 245)"
              d="M11.309,1.677 L5.740,11.252 C5.691,11.336 5.583,11.365 5.499,11.315 L0.095,8.133 C0.011,8.084 -0.017,7.976 0.032,7.891 L0.800,6.571 C0.849,6.486 0.957,6.458 1.041,6.507 L4.981,8.827 L9.692,0.725 C9.742,0.641 9.849,0.613 9.933,0.662 L11.246,1.435 C11.330,1.484 11.357,1.592 11.309,1.677 Z" />
    </svg>
    <svg id="class-invite" viewBox="0 0 53 38">
        <path fill-rule="evenodd" fill="rgb(65, 144, 185)"
              d="M43.109,19.994 C40.396,19.994 37.940,18.892 36.151,17.109 C36.151,18.947 36.151,20.811 36.151,21.395 C36.151,22.457 33.867,23.003 33.867,23.003 L25.604,24.145 C24.853,24.427 23.921,24.498 23.204,24.516 L40.777,24.516 L40.777,25.077 L40.777,25.563 L40.777,26.292 L18.406,26.292 C17.605,26.292 16.928,26.824 16.693,27.561 L39.121,27.561 L39.121,28.772 L16.600,28.772 L16.600,29.835 L39.121,29.835 L39.121,31.050 L16.600,31.050 L16.600,32.054 L39.121,32.054 L39.121,33.266 L16.600,33.266 L16.600,34.331 L39.121,34.331 L39.121,35.543 L16.811,35.543 C17.112,36.123 17.710,36.528 18.405,36.528 L40.777,36.528 L40.777,37.008 L40.777,37.744 L40.777,37.994 L18.410,37.994 C18.359,37.994 18.306,37.996 18.247,37.996 C17.559,37.996 16.194,38.000 15.170,37.621 L6.911,36.480 C6.911,36.480 4.627,35.933 4.627,34.871 C4.627,33.810 4.627,28.497 4.627,26.828 C4.627,25.318 6.479,24.693 6.835,24.552 L6.835,24.524 L-0.000,24.524 L-0.000,24.268 L-0.000,23.535 L-0.000,23.054 L22.372,23.054 C23.067,23.054 23.664,22.649 23.966,22.069 L1.657,22.069 L1.657,20.852 L24.178,20.852 L24.178,19.791 L1.657,19.791 L1.657,18.575 L24.178,18.575 L24.178,17.573 L1.657,17.573 L1.657,16.358 L24.178,16.358 L24.178,15.296 L1.657,15.296 L1.657,14.080 L24.085,14.080 C23.850,13.348 23.173,12.812 22.371,12.812 L-0.000,12.812 L-0.000,12.087 L-0.000,11.598 L-0.000,11.037 L33.259,11.037 C33.224,10.697 33.205,10.351 33.205,10.001 C33.205,4.481 37.639,0.007 43.109,0.007 C48.579,0.020 53.014,4.494 53.014,10.001 C53.014,15.520 48.579,19.994 43.109,19.994 ZM48.519,4.454 C48.431,4.391 48.311,4.412 48.249,4.500 L42.300,12.956 L38.200,10.020 C38.113,9.958 37.992,9.978 37.930,10.066 L36.960,11.445 C36.898,11.533 36.919,11.655 37.006,11.717 L42.630,15.745 C42.717,15.808 42.838,15.787 42.900,15.699 L49.931,5.705 C49.992,5.616 49.972,5.495 49.885,5.432 L48.519,4.454 Z" />
    </svg>
    <svg id="create-quiz" viewBox="0 0 41 40">
        <path fill-rule="evenodd" fill="rgb(65, 144, 185)"
              d="M40.429,7.094 L37.495,10.069 L31.078,3.554 L34.013,0.577 C34.391,0.192 34.889,-0.000 35.387,-0.000 C35.884,-0.000 36.382,0.193 36.761,0.578 L40.429,4.305 C41.188,5.073 41.188,6.323 40.429,7.094 ZM18.446,29.412 L12.029,22.896 L29.705,4.949 L36.122,11.465 L18.446,29.412 ZM17.061,30.805 L9.274,32.195 L10.644,24.289 L17.061,30.805 ZM4.189,11.106 L4.189,35.716 L28.383,35.716 L28.381,21.737 L32.581,17.472 L32.581,37.226 C32.581,38.745 31.358,39.988 29.866,39.988 L2.705,39.988 C1.210,39.988 -0.012,38.745 -0.012,37.226 L-0.012,9.598 C-0.012,8.078 1.210,6.835 2.705,6.835 L25.471,6.835 L21.263,11.106 L4.189,11.106 Z" />
    </svg>
    <svg id="upload-doc" viewBox="0 0 28 40">
        <path fill-rule="evenodd" fill="rgb(65, 144, 185)"
              d="M27.354,39.271 C26.933,39.756 26.422,39.999 25.820,39.999 L2.173,39.999 C1.571,39.999 1.060,39.756 0.639,39.271 C0.218,38.785 0.007,38.194 0.007,37.500 L0.007,2.497 C0.007,1.803 0.218,1.213 0.639,0.727 C1.060,0.241 1.571,-0.002 2.173,-0.002 L16.617,-0.002 C17.218,-0.002 17.881,0.171 18.602,0.518 C19.324,0.866 19.896,1.283 20.317,1.768 L26.452,7.158 C26.873,7.644 27.234,8.303 27.535,9.136 C27.836,9.970 27.986,10.734 27.986,11.428 L27.986,37.500 C27.986,38.194 27.775,38.784 27.354,39.271 ZM24.421,9.527 L18.264,4.112 C18.083,3.904 17.774,3.713 17.338,3.539 L17.338,10.595 L24.917,10.595 C24.767,10.091 24.601,9.736 24.421,9.527 ZM25.098,13.929 L16.616,13.929 C16.014,13.929 15.503,13.685 15.081,13.200 C14.660,12.713 14.449,12.123 14.449,11.429 L14.449,3.331 L2.895,3.331 L2.895,36.666 L25.098,36.666 L25.098,13.929 ZM13.353,18.588 C17.131,18.598 20.194,21.681 20.194,25.476 C20.194,29.279 17.131,32.362 13.353,32.362 C9.574,32.362 6.511,29.279 6.511,25.476 C6.511,21.672 9.574,18.588 13.353,18.588 ZM9.680,25.089 C9.924,25.335 10.318,25.335 10.563,25.089 L12.727,22.907 L12.727,29.559 C12.727,29.907 13.007,30.188 13.353,30.188 C13.699,30.188 13.977,29.906 13.977,29.559 L13.977,22.907 L16.142,25.089 C16.264,25.212 16.423,25.274 16.584,25.274 C16.744,25.274 16.903,25.212 17.025,25.089 C17.269,24.843 17.269,24.446 17.025,24.200 L13.794,20.947 C13.678,20.828 13.519,20.762 13.353,20.762 C13.186,20.762 13.028,20.828 12.911,20.947 L9.680,24.200 C9.435,24.446 9.435,24.843 9.680,25.089 Z" />
    </svg>
    <svg id="arrow-right" viewBox="0 0 451.846 451.847">
<g>
    <path d="M345.441,248.292L151.154,442.573c-12.359,12.365-32.397,12.365-44.75,0c-12.354-12.354-12.354-32.391,0-44.744
		L278.318,225.92L106.409,54.017c-12.354-12.359-12.354-32.394,0-44.748c12.354-12.359,32.391-12.359,44.75,0l194.287,194.284
		c6.177,6.18,9.262,14.271,9.262,22.366C354.708,234.018,351.617,242.115,345.441,248.292z" />
</g>
</svg>
</svg>