<svg xmlns="http://www.w3.org/2000/svg" style="display: none;">


    <symbol id="clock" viewBox="0 0 20.7 24.2">
        <g>
            <path class="st0" d="M20.7,7.6l-3-3.6l-2.1,1.7c-0.9-0.6-1.9-1.1-3-1.3V2.7h1.6V0H7.5v2.7h1.9v1.3C4.2,4.4,0,8.8,0,14.1
		c0,5.6,4.5,10.1,10.1,10.1c5.6,0,10.1-4.5,10.1-10.1c0-1.8-0.5-3.5-1.3-5L20.7,7.6z M10.1,22.4c-4.6,0-8.3-3.7-8.3-8.3
		c0-4.6,3.7-8.3,8.3-8.3c4.6,0,8.3,3.7,8.3,8.3C18.4,18.7,14.7,22.4,10.1,22.4z" />
            <path class="st0" d="M10.1,8C10.1,8,10.1,8,10.1,8c-3.5,0-6.3,2.8-6.3,6.2c0,3.4,2.8,6.3,6.2,6.3c3.4,0,6.3-2.8,6.3-6.2l-6.2,0
		L10.1,8z" />
        </g>

    </symbol>

    <symbol id="quiz" viewBox="-438 240.7 81.3 81.3">
        <path style="fill:#3293F6" d="M-438,281.4c0-22.4,18.2-40.6,40.6-40.6s40.6,18.2,40.6,40.6c0,22.4-18.2,40.6-40.6,40.6
	C-419.8,322-438,303.8-438,281.4z" />
        <circle style="fill:#FFFFFF" cx="-412.4" cy="261.5" r="7.2" />
        <circle style="fill:#FFFFFF" cx="-412.4" cy="281.4" r="7.2" />
        <circle style="fill:#FFFFFF" cx="-412.4" cy="300.8" r="7.2" />
        <circle style="fill:#3A444B" cx="-412.4" cy="281.4" r="4.5" />
        <path style="fill:#3A444B" d="M-392.3,310.3l5.6-6.6c-1.3-0.5-2.8-1-4-1.3c-1.2-0.2-3-0.3-4.5-0.3L-392.3,310.3z" />
        <path style="fill:#FFFFFF" d="M-395.2,302.2c1.5,0,3.3,0,4.5,0.3c1.2,0.2,2.7,0.7,4,1.3l4.1-4.8l-14.7-2.7" />
        <path style="fill:#E5AD23" d="M-390,297.6l7.7-41.7c0.3-1.9-0.9-3.7-2.8-4.1l-0.5-0.1c-1.9-0.3-3.7,0.9-4,2.8l-7.7,41.7L-390,297.6z" />
        <g>
            <path style="fill:#FBD324" d="M-385.9,251.7c-0.1,0-0.3,0-0.4,0C-386.1,251.7-386,251.7-385.9,251.7z" />
            <path style="fill:#FBD324" d="M-377.8,253.2l-7.7-1.4c0,0,0,0,0,0l0.5,0.1c1.9,0.3,3.1,2.2,2.8,4.1l-7.7,41.7l7.2,1.3l7.7-41.7
		C-374.7,255.3-375.9,253.5-377.8,253.2z" />
            <path style="fill:#FBD324" d="M-386.9,251.8c0.1,0,0.2,0,0.2,0C-386.8,251.7-386.9,251.7-386.9,251.8z" />
        </g>
        <path style="fill:#E25C6A" d="M-375.9,262l0.9-4.8c0.4-1.9-0.9-3.7-2.8-4.1l-7.7-1.4c-1.9-0.3-3.7,0.9-4.1,2.8l-0.9,4.8L-375.9,262z" />
        <rect x="-390.7" y="260.6" transform="matrix(-0.9835 -0.181 0.181 -0.9835 -807.5433 448.398)" style="fill:#FFFFFF" width="14.8" height="0.9" />
    </symbol>

    <symbol id="correct" viewBox="0 0 29.9 27.7">
        <path d="M27.5,11.8c1.3,8.4-5.2,15.9-13.7,15.9C6.2,27.7,0,21.5,0,13.8C0,6.2,6.2,0,13.8,0
	c3.4,0,6.4,1.2,8.8,3.2l-2.2,2.2c-1.8-1.4-4.1-2.3-6.6-2.3C7.9,3.1,3.1,7.9,3.1,13.8c0,5.9,4.8,10.7,10.7,10.7
	c5.6,0,10.2-4.3,10.7-9.8L27.5,11.8z M26.2,2.6L14.6,14.2l-5-5l-3.7,3.7l8.7,8.7L29.9,6.4L26.2,2.6z" />
    </symbol>


    <symbol id="wrong" viewBox="0 0 32.4 27.7">
        <g>
            <path d="M23.2,19c-1.8,3.3-5.3,5.6-9.4,5.6c-5.9,0-10.7-4.8-10.7-10.7c0-4.1,2.3-7.7,5.7-9.5L13.1,0
		C5.8,0.4,0,6.4,0,13.8c0,7.6,6.2,13.8,13.8,13.8c5,0,9.4-2.7,11.8-6.6L23.2,19z" />
            <path d="M24.8,12.4l7.3,8.8l-1.3,1.2c-1.7-1.2-5.2-3.9-9-7.3c-3.7,3.3-7.2,6-9,7.2L11.6,21
		l7.2-8.5c-2.7-2.5-5.4-5.3-7.4-7.9L15,0.7l6.8,8.2l6.7-8l3.9,3.4C30.5,6.9,27.7,9.7,24.8,12.4z" />
        </g>
    </symbol>

    <symbol id="star" viewBox="0 0 15.2 14.5">
        <polygon points="7.6,0 10,4.8 15.2,5.5 11.4,9.2 12.3,14.5 7.6,12 2.9,14.5 3.8,9.2 0,5.5 5.3,4.8 " />
    </symbol>


    <symbol id="pause" viewBox="0 0 232.679 232.679">
        <g>
            <path d="M80.543,0H35.797c-9.885,0-17.898,8.014-17.898,17.898v196.883
		c0,9.885,8.013,17.898,17.898,17.898h44.746c9.885,0,17.898-8.013,17.898-17.898V17.898C98.44,8.014,90.427,0,80.543,0z M196.882,0
		h-44.746c-9.886,0-17.899,8.014-17.899,17.898v196.883c0,9.885,8.013,17.898,17.899,17.898h44.746
		c9.885,0,17.898-8.013,17.898-17.898V17.898C214.781,8.014,206.767,0,196.882,0z" />
        </g>
    </symbol>

    <symbol id="play" viewBox="0 0 163.861 163.861">
        <g>
            <path d="M34.857,3.613C20.084-4.861,8.107,2.081,8.107,19.106v125.637c0,17.042,11.977,23.975,26.75,15.509L144.67,97.275
		c14.778-8.477,14.778-22.211,0-30.686L34.857,3.613z" />
        </g>
    </symbol>
</svg>
