<svg xmlns="http://www.w3.org/2000/svg" style="display: none;">


    <symbol id="clock" viewBox="0 0 20.7 24.2">
        <g>
            <path class="st0" d="M20.7,7.6l-3-3.6l-2.1,1.7c-0.9-0.6-1.9-1.1-3-1.3V2.7h1.6V0H7.5v2.7h1.9v1.3C4.2,4.4,0,8.8,0,14.1
        c0,5.6,4.5,10.1,10.1,10.1c5.6,0,10.1-4.5,10.1-10.1c0-1.8-0.5-3.5-1.3-5L20.7,7.6z M10.1,22.4c-4.6,0-8.3-3.7-8.3-8.3
        c0-4.6,3.7-8.3,8.3-8.3c4.6,0,8.3,3.7,8.3,8.3C18.4,18.7,14.7,22.4,10.1,22.4z" />
            <path class="st0" d="M10.1,8C10.1,8,10.1,8,10.1,8c-3.5,0-6.3,2.8-6.3,6.2c0,3.4,2.8,6.3,6.2,6.3c3.4,0,6.3-2.8,6.3-6.2l-6.2,0
        L10.1,8z" />
        </g>

    </symbol>

    <!--<symbol id="quiz" viewBox="-438 240.7 81.3 81.3">
        <path style="fill:#3293F6" d="M-438,281.4c0-22.4,18.2-40.6,40.6-40.6s40.6,18.2,40.6,40.6c0,22.4-18.2,40.6-40.6,40.6
	C-419.8,322-438,303.8-438,281.4z" />
        <circle style="fill:#FFFFFF" cx="-412.4" cy="261.5" r="7.2" />
        <circle style="fill:#FFFFFF" cx="-412.4" cy="281.4" r="7.2" />
        <circle style="fill:#FFFFFF" cx="-412.4" cy="300.8" r="7.2" />
        <circle style="fill:#3A444B" cx="-412.4" cy="281.4" r="4.5" />
        <path style="fill:#3A444B" d="M-392.3,310.3l5.6-6.6c-1.3-0.5-2.8-1-4-1.3c-1.2-0.2-3-0.3-4.5-0.3L-392.3,310.3z" />
        <path style="fill:#FFFFFF" d="M-395.2,302.2c1.5,0,3.3,0,4.5,0.3c1.2,0.2,2.7,0.7,4,1.3l4.1-4.8l-14.7-2.7" />
        <path style="fill:#E5AD23" d="M-390,297.6l7.7-41.7c0.3-1.9-0.9-3.7-2.8-4.1l-0.5-0.1c-1.9-0.3-3.7,0.9-4,2.8l-7.7,41.7L-390,297.6z" />
        <g>
            <path style="fill:#FBD324" d="M-385.9,251.7c-0.1,0-0.3,0-0.4,0C-386.1,251.7-386,251.7-385.9,251.7z" />
            <path style="fill:#FBD324" d="M-377.8,253.2l-7.7-1.4c0,0,0,0,0,0l0.5,0.1c1.9,0.3,3.1,2.2,2.8,4.1l-7.7,41.7l7.2,1.3l7.7-41.7
		C-374.7,255.3-375.9,253.5-377.8,253.2z" />
            <path style="fill:#FBD324" d="M-386.9,251.8c0.1,0,0.2,0,0.2,0C-386.8,251.7-386.9,251.7-386.9,251.8z" />
        </g>
        <path style="fill:#E25C6A" d="M-375.9,262l0.9-4.8c0.4-1.9-0.9-3.7-2.8-4.1l-7.7-1.4c-1.9-0.3-3.7,0.9-4.1,2.8l-0.9,4.8L-375.9,262z" />
        <rect x="-390.7" y="260.6" transform="matrix(-0.9835 -0.181 0.181 -0.9835 -807.5433 448.398)" style="fill:#FFFFFF" width="14.8" height="0.9" />
    </symbol>-->

    <symbol id="correct" viewBox="0 0 29.9 27.7">
        <path d="M27.5,11.8c1.3,8.4-5.2,15.9-13.7,15.9C6.2,27.7,0,21.5,0,13.8C0,6.2,6.2,0,13.8,0
	c3.4,0,6.4,1.2,8.8,3.2l-2.2,2.2c-1.8-1.4-4.1-2.3-6.6-2.3C7.9,3.1,3.1,7.9,3.1,13.8c0,5.9,4.8,10.7,10.7,10.7
	c5.6,0,10.2-4.3,10.7-9.8L27.5,11.8z M26.2,2.6L14.6,14.2l-5-5l-3.7,3.7l8.7,8.7L29.9,6.4L26.2,2.6z" />
    </symbol>


    <symbol id="wrong" viewBox="0 0 32.4 27.7">
        <g>
            <path d="M23.2,19c-1.8,3.3-5.3,5.6-9.4,5.6c-5.9,0-10.7-4.8-10.7-10.7c0-4.1,2.3-7.7,5.7-9.5L13.1,0
		C5.8,0.4,0,6.4,0,13.8c0,7.6,6.2,13.8,13.8,13.8c5,0,9.4-2.7,11.8-6.6L23.2,19z" />
            <path d="M24.8,12.4l7.3,8.8l-1.3,1.2c-1.7-1.2-5.2-3.9-9-7.3c-3.7,3.3-7.2,6-9,7.2L11.6,21
		l7.2-8.5c-2.7-2.5-5.4-5.3-7.4-7.9L15,0.7l6.8,8.2l6.7-8l3.9,3.4C30.5,6.9,27.7,9.7,24.8,12.4z" />
        </g>
    </symbol>

    <symbol id="star" viewBox="0 0 15.2 14.5">
        <polygon points="7.6,0 10,4.8 15.2,5.5 11.4,9.2 12.3,14.5 7.6,12 2.9,14.5 3.8,9.2 0,5.5 5.3,4.8 " />
    </symbol>


    <symbol id="pause" viewBox="0 0 232.679 232.679">
        <g>
            <path d="M80.543,0H35.797c-9.885,0-17.898,8.014-17.898,17.898v196.883
		c0,9.885,8.013,17.898,17.898,17.898h44.746c9.885,0,17.898-8.013,17.898-17.898V17.898C98.44,8.014,90.427,0,80.543,0z M196.882,0
		h-44.746c-9.886,0-17.899,8.014-17.899,17.898v196.883c0,9.885,8.013,17.898,17.899,17.898h44.746
		c9.885,0,17.898-8.013,17.898-17.898V17.898C214.781,8.014,206.767,0,196.882,0z" />
        </g>
    </symbol>

    <symbol id="play" viewBox="0 0 163.861 163.861">
        <g>
            <path d="M34.857,3.613C20.084-4.861,8.107,2.081,8.107,19.106v125.637c0,17.042,11.977,23.975,26.75,15.509L144.67,97.275
		c14.778-8.477,14.778-22.211,0-30.686L34.857,3.613z" />
        </g>
    </symbol>

    <symbol id="arrow" viewBox="0 0 612 612">
        <g>
            <path d="M277.58,179.679l-0.057,0.077c-5.125-4.705-11.857-7.631-19.335-7.631c-15.835,0-28.688,12.852-28.688,28.688
				c0,8.377,3.634,15.835,9.352,21.076l-0.057,0.077L330.48,306l-91.686,84.055l0.057,0.076c-5.718,5.221-9.352,12.68-9.352,21.057
				c0,15.836,12.852,28.688,28.688,28.688c7.478,0,14.21-2.926,19.335-7.611l0.057,0.076l114.75-105.188
				c5.91-5.451,9.295-13.101,9.295-21.152s-3.385-15.702-9.295-21.152L277.58,179.679z M306,0C137.012,0,0,137.012,0,306
				s137.012,306,306,306s306-137.012,306-306S474.988,0,306,0z M306,554.625C168.912,554.625,57.375,443.088,57.375,306
				S168.912,57.375,306,57.375S554.625,168.912,554.625,306S443.088,554.625,306,554.625z" />
        </g>
    </symbol>
    <symbol id="bald" viewBox="0 0 222.522 222.523">
        <g>
            <path d="M187.771,97.921c-5.427-10.448,2.293-16.698,2.813-22.097c2.394-24.905-6.012-40.152-17.449-52.216
		C154.245,3.626,129.958-0.13,114.058,0.003C73.354,0.298,56.88,13.213,44.417,27.113C18.493,56.049,23.978,81.454,23.978,81.454
		c0.618,15.063,21.409,42.495,21.409,42.495c16.571,23.826,8.429,42.209,8.429,42.209c33.467,7.524,60.902,56.365,60.902,56.365
		c1.211-7.235,17.292-37.771,17.292-37.771c6.721-8.446,18.005-5.479,24.099-4.734c17.472,2.152,21.816-2.99,21.816-2.99
		c3.818-2.335,2.01-12.059,2.01-12.059c-1.4-5.029,0.881-7.488,2.306-9.457c3.83-5.35,1.613-7.832,1.613-7.832
		c-1.206-1.519-0.396-2.316-0.396-2.316c4.215-1.407,4.522-3.712,4.522-3.712l-0.106-7.737c-0.697-5.314,1.708-5.639,1.708-5.639
		c9.652-0.178,9.439-6.426,9.439-6.426C199.409,118.417,187.771,97.921,187.771,97.921z M62.02,94.442
		c-1.031-1.968-1.279-4.335-0.449-7.276c0.594-2.078,1.058-3.801,0.449-5.157c-0.617-1.386-1.938-1.895-3.96-1.082
		c-1.306,0.585-2.669,1.773-3.396,2.946l-3.281-3.712c1.061-1.475,3.083-3.345,5.896-4.604c5.234-2.35,8.917-0.52,10.391,2.772
		c1.351,3.015,0.37,5.834-0.387,8.184c-0.745,2.281-0.641,4.096,0.189,5.863l0.319,0.715l-5.269,2.367L62.02,94.442z
		 M69.074,103.417c-2.098,0.931-4.217,0.03-5.143-2.027c-0.939-2.113-0.145-4.268,1.913-5.187c2.143-0.958,4.206-0.08,5.181,2.007
		C71.956,100.27,71.211,102.455,69.074,103.417z M114.046,121.017c-6.851,1.655-12.735-2.252-14.352-8.987
		c-1.664-6.851,1.927-12.927,8.663-14.549c6.978-1.69,12.711,2.131,14.496,8.952C124.484,113.144,121.045,119.327,114.046,121.017z
		 M118.06,69.1c-3.505,6.457-4.22,11.978-2.68,17.771l0.567,2.335L98.734,93.37l-0.945-3.328
		c-1.986-6.508-1.404-13.763,2.719-22.165c2.946-5.92,5.313-10.87,4.247-15.265c-1.1-4.533-4.794-6.786-11.322-5.471
		c-4.273,1.035-9.073,3.842-11.878,6.978l-7.799-13.03c3.992-3.851,11.136-8.311,20.312-10.533
		c17.073-4.141,27.125,3.419,29.731,14.168C126.175,54.536,121.665,62.471,118.06,69.1z M150.545,76.181
		c-0.774,3.449-3.753,5.521-7.353,4.708c-3.529-0.786-5.344-3.91-4.575-7.383c0.792-3.529,3.818-5.509,7.282-4.734
		C149.493,69.584,151.267,72.634,150.545,76.181z M164.95,47.999c-1.135,5.065-5.001,7.693-8.163,9.927
		c-3.073,2.179-4.663,4.558-5.255,7.566l-0.271,1.199l-8.86-1.974l0.325-1.75c0.567-3.431,2.465-6.652,6.26-9.581
		c2.695-2.051,4.911-3.795,5.42-6.059c0.52-2.338-0.662-4.2-3.967-5.089c-2.198-0.491-5.035-0.281-7.039,0.532l-0.639-7.767
		c2.701-0.866,7.004-1.3,11.732-0.248C163.266,36.718,166.186,42.472,164.95,47.999z" />
        </g>
    </symbol>
</svg>
