<svg xmlns="http://www.w3.org/2000/svg" style="display: none;">
    <symbol id="close" viewBox="0 0 212.982 212.982">
        <g>
            <path d="M131.804,106.491l75.936-75.936c6.99-6.99,6.99-18.323,0-25.312
		c-6.99-6.99-18.322-6.99-25.312,0l-75.937,75.937L30.554,5.242c-6.99-6.99-18.322-6.99-25.312,0c-6.989,6.99-6.989,18.323,0,25.312
		l75.937,75.936L5.242,182.427c-6.989,6.99-6.989,18.323,0,25.312c6.99,6.99,18.322,6.99,25.312,0l75.937-75.937l75.937,75.937
		c6.989,6.99,18.322,6.99,25.312,0c6.99-6.99,6.99-18.322,0-25.312L131.804,106.491z" />
        </g>
    </symbol>

    <symbol id="clock" viewBox="0 0 20.7 24.2">
        <g>
            <path class="st0" d="M20.7,7.6l-3-3.6l-2.1,1.7c-0.9-0.6-1.9-1.1-3-1.3V2.7h1.6V0H7.5v2.7h1.9v1.3C4.2,4.4,0,8.8,0,14.1
		c0,5.6,4.5,10.1,10.1,10.1c5.6,0,10.1-4.5,10.1-10.1c0-1.8-0.5-3.5-1.3-5L20.7,7.6z M10.1,22.4c-4.6,0-8.3-3.7-8.3-8.3
		c0-4.6,3.7-8.3,8.3-8.3c4.6,0,8.3,3.7,8.3,8.3C18.4,18.7,14.7,22.4,10.1,22.4z" />
            <path class="st0" d="M10.1,8C10.1,8,10.1,8,10.1,8c-3.5,0-6.3,2.8-6.3,6.2c0,3.4,2.8,6.3,6.2,6.3c3.4,0,6.3-2.8,6.3-6.2l-6.2,0
		L10.1,8z" />
        </g>

    </symbol>

</svg>