<svg xmlns="http://www.w3.org/2000/svg" style="display: none;">


    <symbol id="clock" viewBox="0 0 20.7 24.2">
        <g>
            <path class="st0" d="M20.7,7.6l-3-3.6l-2.1,1.7c-0.9-0.6-1.9-1.1-3-1.3V2.7h1.6V0H7.5v2.7h1.9v1.3C4.2,4.4,0,8.8,0,14.1
        c0,5.6,4.5,10.1,10.1,10.1c5.6,0,10.1-4.5,10.1-10.1c0-1.8-0.5-3.5-1.3-5L20.7,7.6z M10.1,22.4c-4.6,0-8.3-3.7-8.3-8.3
        c0-4.6,3.7-8.3,8.3-8.3c4.6,0,8.3,3.7,8.3,8.3C18.4,18.7,14.7,22.4,10.1,22.4z" />
            <path class="st0" d="M10.1,8C10.1,8,10.1,8,10.1,8c-3.5,0-6.3,2.8-6.3,6.2c0,3.4,2.8,6.3,6.2,6.3c3.4,0,6.3-2.8,6.3-6.2l-6.2,0
        L10.1,8z" />
        </g>

    </symbol>
    <symbol id="correct" viewBox="0 0 29.9 27.7">
        <g>
            <path d="M27.5,11.8c1.3,8.4-5.2,15.9-13.7,15.9C6.2,27.7,0,21.5,0,13.8C0,6.2,6.2,0,13.8,0
	c3.4,0,6.4,1.2,8.8,3.2l-2.2,2.2c-1.8-1.4-4.1-2.3-6.6-2.3C7.9,3.1,3.1,7.9,3.1,13.8c0,5.9,4.8,10.7,10.7,10.7
	c5.6,0,10.2-4.3,10.7-9.8L27.5,11.8z M26.2,2.6L14.6,14.2l-5-5l-3.7,3.7l8.7,8.7L29.9,6.4L26.2,2.6z" />
        </g>
    </symbol>


    <symbol id="wrong" viewBox="0 0 32.4 27.7">
        <g>
            <path d="M23.2,19c-1.8,3.3-5.3,5.6-9.4,5.6c-5.9,0-10.7-4.8-10.7-10.7c0-4.1,2.3-7.7,5.7-9.5L13.1,0
		C5.8,0.4,0,6.4,0,13.8c0,7.6,6.2,13.8,13.8,13.8c5,0,9.4-2.7,11.8-6.6L23.2,19z" />
            <path d="M24.8,12.4l7.3,8.8l-1.3,1.2c-1.7-1.2-5.2-3.9-9-7.3c-3.7,3.3-7.2,6-9,7.2L11.6,21
		l7.2-8.5c-2.7-2.5-5.4-5.3-7.4-7.9L15,0.7l6.8,8.2l6.7-8l3.9,3.4C30.5,6.9,27.7,9.7,24.8,12.4z" />
        </g>
    </symbol>




    <symbol id="pause" viewBox="0 0 232.679 232.679">
        <g>
            <path d="M80.543,0H35.797c-9.885,0-17.898,8.014-17.898,17.898v196.883
		c0,9.885,8.013,17.898,17.898,17.898h44.746c9.885,0,17.898-8.013,17.898-17.898V17.898C98.44,8.014,90.427,0,80.543,0z M196.882,0
		h-44.746c-9.886,0-17.899,8.014-17.899,17.898v196.883c0,9.885,8.013,17.898,17.899,17.898h44.746
		c9.885,0,17.898-8.013,17.898-17.898V17.898C214.781,8.014,206.767,0,196.882,0z" />
        </g>
    </symbol>

    <symbol id="play" viewBox="0 0 163.861 163.861">
        <g>
            <path d="M34.857,3.613C20.084-4.861,8.107,2.081,8.107,19.106v125.637c0,17.042,11.977,23.975,26.75,15.509L144.67,97.275
		c14.778-8.477,14.778-22.211,0-30.686L34.857,3.613z" />
        </g>
    </symbol>

   
    <symbol id="bald" viewBox="0 0 222.522 222.523">
        <g>
            <path d="M187.771,97.921c-5.427-10.448,2.293-16.698,2.813-22.097c2.394-24.905-6.012-40.152-17.449-52.216
		C154.245,3.626,129.958-0.13,114.058,0.003C73.354,0.298,56.88,13.213,44.417,27.113C18.493,56.049,23.978,81.454,23.978,81.454
		c0.618,15.063,21.409,42.495,21.409,42.495c16.571,23.826,8.429,42.209,8.429,42.209c33.467,7.524,60.902,56.365,60.902,56.365
		c1.211-7.235,17.292-37.771,17.292-37.771c6.721-8.446,18.005-5.479,24.099-4.734c17.472,2.152,21.816-2.99,21.816-2.99
		c3.818-2.335,2.01-12.059,2.01-12.059c-1.4-5.029,0.881-7.488,2.306-9.457c3.83-5.35,1.613-7.832,1.613-7.832
		c-1.206-1.519-0.396-2.316-0.396-2.316c4.215-1.407,4.522-3.712,4.522-3.712l-0.106-7.737c-0.697-5.314,1.708-5.639,1.708-5.639
		c9.652-0.178,9.439-6.426,9.439-6.426C199.409,118.417,187.771,97.921,187.771,97.921z M62.02,94.442
		c-1.031-1.968-1.279-4.335-0.449-7.276c0.594-2.078,1.058-3.801,0.449-5.157c-0.617-1.386-1.938-1.895-3.96-1.082
		c-1.306,0.585-2.669,1.773-3.396,2.946l-3.281-3.712c1.061-1.475,3.083-3.345,5.896-4.604c5.234-2.35,8.917-0.52,10.391,2.772
		c1.351,3.015,0.37,5.834-0.387,8.184c-0.745,2.281-0.641,4.096,0.189,5.863l0.319,0.715l-5.269,2.367L62.02,94.442z
		 M69.074,103.417c-2.098,0.931-4.217,0.03-5.143-2.027c-0.939-2.113-0.145-4.268,1.913-5.187c2.143-0.958,4.206-0.08,5.181,2.007
		C71.956,100.27,71.211,102.455,69.074,103.417z M114.046,121.017c-6.851,1.655-12.735-2.252-14.352-8.987
		c-1.664-6.851,1.927-12.927,8.663-14.549c6.978-1.69,12.711,2.131,14.496,8.952C124.484,113.144,121.045,119.327,114.046,121.017z
		 M118.06,69.1c-3.505,6.457-4.22,11.978-2.68,17.771l0.567,2.335L98.734,93.37l-0.945-3.328
		c-1.986-6.508-1.404-13.763,2.719-22.165c2.946-5.92,5.313-10.87,4.247-15.265c-1.1-4.533-4.794-6.786-11.322-5.471
		c-4.273,1.035-9.073,3.842-11.878,6.978l-7.799-13.03c3.992-3.851,11.136-8.311,20.312-10.533
		c17.073-4.141,27.125,3.419,29.731,14.168C126.175,54.536,121.665,62.471,118.06,69.1z M150.545,76.181
		c-0.774,3.449-3.753,5.521-7.353,4.708c-3.529-0.786-5.344-3.91-4.575-7.383c0.792-3.529,3.818-5.509,7.282-4.734
		C149.493,69.584,151.267,72.634,150.545,76.181z M164.95,47.999c-1.135,5.065-5.001,7.693-8.163,9.927
		c-3.073,2.179-4.663,4.558-5.255,7.566l-0.271,1.199l-8.86-1.974l0.325-1.75c0.567-3.431,2.465-6.652,6.26-9.581
		c2.695-2.051,4.911-3.795,5.42-6.059c0.52-2.338-0.662-4.2-3.967-5.089c-2.198-0.491-5.035-0.281-7.039,0.532l-0.639-7.767
		c2.701-0.866,7.004-1.3,11.732-0.248C163.266,36.718,166.186,42.472,164.95,47.999z" />
        </g>
    </symbol>
    <symbol id="rank" viewBox="0 0 402.083 402.084">
        <g>

            <path d="M318.034,45.671c0.243-11.669-4.746-30.608-37.938-35.906c0.003-0.151,0.008-0.301,0.012-0.452
				c0.051-2.452-0.891-4.821-2.604-6.574C275.787,0.987,273.436,0,270.982,0H131.103c-2.453,0-4.804,0.987-6.52,2.739
				c-1.716,1.753-2.655,4.122-2.605,6.574c0.003,0.151,0.009,0.301,0.013,0.452c-33.189,5.297-38.181,24.233-37.939,35.9
				c0.472,22.788,20.728,44.711,29.415,53.078c10.08,9.711,20.668,17.186,30.61,21.824c0.649,1.35,1.31,2.684,1.985,3.987
				c10.087,19.39,22.748,32.638,36.726,38.79v73.788H159.33c-7.031,0-12.728,5.699-12.728,12.729v15.973
				c0,7.029,5.696,12.729,12.728,12.729h83.429c7.028,0,12.729-5.698,12.729-12.729v-15.973c0-7.029-5.698-12.729-12.729-12.729
				h-23.461v-73.788c13.979-6.152,26.642-19.4,36.727-38.79c0.677-1.303,1.335-2.636,1.984-3.984
				c9.942-4.637,20.53-12.111,30.61-21.821C297.305,90.381,317.56,68.461,318.034,45.671z M126.129,85.597
				c-14.473-13.94-23.603-29.386-23.829-40.31c-0.184-8.876,6.695-14.629,20.484-17.18c1.553,23.628,5.107,45.133,10.539,63.887
				C130.896,90.003,128.483,87.865,126.129,85.597z M275.955,85.602c-2.356,2.27-4.77,4.407-7.194,6.397
				c5.434-18.755,8.987-40.261,10.541-63.892c13.789,2.552,20.668,8.306,20.482,17.184
				C299.557,56.217,290.427,71.663,275.955,85.602z" />
            <path d="M115.724,340.473l-27.782-4.037L75.517,311.26c-0.841-1.703-2.575-2.781-4.475-2.781s-3.633,1.078-4.475,2.781
				l-12.424,25.176l-27.783,4.037c-1.881,0.272-3.441,1.591-4.028,3.396s-0.099,3.788,1.263,5.114l20.104,19.598l-4.747,27.67
				c-0.32,1.871,0.449,3.763,1.984,4.879c1.537,1.116,3.574,1.265,5.256,0.38l24.85-13.062l24.851,13.062
				c0.729,0.385,1.526,0.573,2.321,0.573c1.034,0,2.063-0.321,2.933-0.953c1.537-1.116,2.307-3.008,1.985-4.879l-4.746-27.671
				l20.104-19.598c1.359-1.326,1.85-3.31,1.263-5.114C119.166,342.061,117.604,340.745,115.724,340.473z" />
            <path d="M245.724,340.473l-27.781-4.037l-12.426-25.176c-0.841-1.703-2.574-2.781-4.475-2.781c-1.9,0-3.633,1.078-4.475,2.781
				l-12.424,25.176l-27.783,4.037c-1.881,0.272-3.441,1.591-4.028,3.396s-0.099,3.788,1.263,5.114l20.104,19.598l-4.746,27.671
				c-0.32,1.871,0.449,3.763,1.984,4.879c1.537,1.116,3.574,1.265,5.256,0.38l24.849-13.063l24.851,13.062
				c0.729,0.385,1.526,0.573,2.321,0.573c1.034,0,2.063-0.321,2.934-0.953c1.536-1.116,2.308-3.008,1.984-4.879l-4.746-27.671
				l20.104-19.598c1.357-1.326,1.85-3.31,1.263-5.114C249.167,342.061,247.604,340.745,245.724,340.473z" />
            <path d="M379.752,343.868c-0.587-1.809-2.147-3.123-4.028-3.396l-27.781-4.037l-12.426-25.177
				c-0.842-1.704-2.573-2.782-4.475-2.782s-3.634,1.078-4.475,2.782l-12.427,25.177l-27.78,4.037
				c-1.882,0.271-3.442,1.588-4.029,3.396c-0.587,1.807-0.097,3.788,1.263,5.114l20.104,19.598l-4.746,27.671
				c-0.321,1.871,0.448,3.763,1.983,4.879c0.87,0.632,1.898,0.953,2.935,0.953c0.795,0,1.592-0.188,2.321-0.573l24.851-13.062
				l24.85,13.062c0.73,0.385,1.527,0.573,2.321,0.573c1.035,0,2.065-0.321,2.937-0.953c1.533-1.116,2.305-3.008,1.982-4.879
				l-4.746-27.671l20.104-19.598C379.851,347.656,380.339,345.675,379.752,343.868z M351.406,361.419l-3.767,3.67l0.891,5.183
				l3.028,17.663l-15.862-8.34l-4.653-2.445V324.79l7.931,16.07l2.327,4.716l5.203,0.756l17.736,2.577L351.406,361.419z" />

        </g>
    </symbol>
    <!--TODO: can we do this in css-->
    <symbol id="checkmark" viewBox="0 0 26.953 26.953">
        <g>
            <path d="M0.213,5.981h1.678c0.121,0,0.217-0.098,0.217-0.222c0.004-1.345,1.068-2.442,2.377-2.444
		c0.121,0,0.217-0.098,0.217-0.222V1.369C4.701,1.246,4.605,1.146,4.484,1.146C2.012,1.146,0,3.217,0,5.759
		C0,5.883,0.094,5.981,0.213,5.981z" />
            <path d="M0.213,10.833h1.678c0.121,0,0.217-0.098,0.217-0.221v-3.53c0-0.121-0.096-0.222-0.217-0.222H0.213
		C0.094,6.86,0,6.96,0,7.082v3.53C0,10.735,0.094,10.833,0.213,10.833z" />
            <path d="M0.213,15.438h1.678c0.121,0,0.217-0.097,0.217-0.221v-3.529c0-0.121-0.096-0.223-0.217-0.223H0.213
		C0.094,11.465,0,11.567,0,11.688v3.529C0,15.341,0.094,15.438,0.213,15.438z" />
            <path d="M0.213,20.14h1.678c0.121,0,0.217-0.096,0.217-0.221v-3.526c0-0.119-0.096-0.221-0.217-0.221H0.213
		C0.094,16.172,0,16.274,0,16.393v3.526C0,20.044,0.094,20.14,0.213,20.14z" />
            <path d="M23.818,10.833c0.119,0,0.213-0.098,0.213-0.221v-0.48l-0.758,0.7h0.545V10.833z" />
            <path d="M23.818,11.465h-0.91l-0.984,1.025v2.727c0,0.124,0.098,0.221,0.215,0.221h1.68
		c0.119,0,0.213-0.097,0.213-0.221v-3.529C24.031,11.567,23.938,11.465,23.818,11.465z" />
            <path d="M23.816,16.172h-1.674c-0.121,0-0.217,0.102-0.217,0.221v3.526c0,0.125,0.096,0.221,0.217,0.221
		h1.674c0.119,0,0.215-0.096,0.215-0.221v-3.526C24.031,16.274,23.936,16.172,23.816,16.172z" />
            <path d="M18.211,23.638h-3.432c-0.117,0-0.217,0.1-0.217,0.221v1.725c0,0.125,0.1,0.223,0.217,0.223h3.432
		c0.121,0,0.217-0.098,0.217-0.223v-1.725C18.428,23.738,18.332,23.638,18.211,23.638z" />
            <path d="M13.729,23.638h-3.432c-0.117,0-0.215,0.1-0.215,0.221v1.725c0,0.125,0.098,0.223,0.215,0.223h3.432
		c0.121,0,0.217-0.098,0.217-0.223v-1.725C13.945,23.738,13.85,23.638,13.729,23.638z" />
            <path d="M9.154,23.638H5.723c-0.117,0-0.215,0.1-0.215,0.221v1.725c0,0.125,0.098,0.223,0.215,0.223h3.432
		c0.123,0,0.217-0.098,0.217-0.223v-1.725C9.371,23.738,9.277,23.638,9.154,23.638z" />
            <path d="M14.779,3.315h3.432c0.121,0,0.217-0.098,0.217-0.222V1.369c0-0.123-0.096-0.223-0.217-0.223h-3.432
		c-0.117,0-0.217,0.1-0.217,0.223v1.725C14.562,3.217,14.662,3.315,14.779,3.315z" />
            <path d="M10.297,3.315h3.432c0.121,0,0.217-0.098,0.217-0.222V1.369c-0.001-0.123-0.096-0.223-0.217-0.223
		h-3.432c-0.117,0-0.215,0.1-0.215,0.223v1.725C10.082,3.217,10.18,3.315,10.297,3.315z" />
            <path d="M5.723,3.315h3.432c0.123,0,0.217-0.098,0.217-0.222V1.369C9.371,1.246,9.277,1.146,9.154,1.146
		H5.723c-0.118,0-0.215,0.1-0.215,0.223v1.725C5.508,3.217,5.605,3.315,5.723,3.315z" />
            <path d="M4.484,23.584c-1.309-0.006-2.373-1.098-2.377-2.443c0-0.121-0.096-0.219-0.217-0.219H0.213
		C0.094,20.921,0,21.019,0,21.14c0,2.545,2.012,4.611,4.484,4.611c0.121,0,0.217-0.098,0.217-0.223v-1.722
		C4.701,23.685,4.605,23.584,4.484,23.584z" />
            <path d="M23.768,20.921h-1.674c-0.121,0-0.217,0.098-0.217,0.219c-0.004,1.346-1.07,2.438-2.379,2.443
		c-0.117,0-0.215,0.102-0.215,0.223v1.723c0,0.125,0.098,0.223,0.215,0.223c2.475,0,4.484-2.066,4.484-4.611
		C23.982,21.019,23.889,20.921,23.768,20.921z" />
            <path d="M19.498,3.315c1.299,0.002,1.484,0.188,2.154,1.43l1.596-1.5c-0.562-1.621-1.893-2.099-3.75-2.099
		c-0.117,0-0.215,0.1-0.215,0.223v1.725C19.283,3.217,19.381,3.315,19.498,3.315z" />
            <path d="M26.701,5.528l-1.832-1.832c-0.336-0.336-0.883-0.336-1.219,0L12.67,14.677l-5.223-5.26
		c-0.34-0.337-0.885-0.337-1.223,0l-1.829,1.829c-0.338,0.337-0.338,0.885,0,1.221l5.809,5.852l0.02,0.027l1.264,1.266l0.295,0.295
		l0,0l0.271,0.27c0.336,0.336,0.883,0.336,1.221,0L26.701,6.749C27.037,6.413,27.037,5.863,26.701,5.528z" />
        </g>
    </symbol>
</svg>
