<svg xmlns="http://www.w3.org/2000/svg" style="display: none;">
    <svg id="facebook" viewBox="-236 37.6 482 482">

        <path d="M6,37.6c-133.7,0-242,108.3-242,242s108.3,242,242,242s242-108.3,242-242S139.6,37.6,6,37.6z M68.9,279.6
	l-39.9,0l0,145.9h-54.7V279.6h-36.5v-50.3l36.5,0l-0.1-29.6c0-41,11.1-66,59.4-66h40.2V184H48.7c-18.8,0-19.7,7-19.7,20.1L29,229.3
	h45.2L68.9,279.6z" />
    </svg>
    <svg id="google" viewBox="-236 37.6 486.4 486.4">

        <path d="M7.2,38.8c-133.7,0-242,108.3-242,242s108.3,242,242,242s242-108.3,242-242S140.8,38.8,7.2,38.8z M109.4,367.3
	c-31.7,44.5-95.2,57.5-144.8,38.5c-49.8-19-85-71.5-80.8-125.1c1.1-65.6,61.4-123,126.9-120.8c31.4-1.5,60.9,12.2,85,31.4
	c-10.3,11.7-20.9,22.9-32.3,33.4c-28.9-20-70.1-25.7-99-2.6c-41.4,28.6-43.3,96.2-3.5,127C-0.4,384.2,72.8,366.8,83.5,313
	c-24.2-0.4-48.5,0-72.8-0.8c-0.1-14.5-0.1-28.9-0.1-43.4c40.5-0.1,81.1-0.2,121.6,0.1C134.8,303,130.3,339.2,109.4,367.3z" />
    </svg>

    <svg id="instagram" viewBox="-236 37.6 486.4 486.4">

        <g>
            <path d="M5.8,39.3c-133.7,0-242,108.3-242,242s108.3,242,242,242s242-108.3,242-242S139.4,39.3,5.8,39.3z M135,375
		c0,19.6-15.2,34-33.4,34H-90c-18.2,0-33-14.3-33-34V183.4c0-19.6,14.8-32.4,33-32.4h191.7c18.2,0,33.4,12.7,33.4,32.4V375z" />
            <path d="M64.7,231h29.1c6.4,0,11.2-6.3,11.2-12.7v-27.8c0-6.4-4.8-10.5-11.2-10.5H64.7c-6.4,0-11.7,4.1-11.7,10.5v27.8
		C53,224.7,58.3,231,64.7,231z" />
            <path d="M6,328.8c28.6,0,51.8-22.5,51.8-50.2c0-27.7-23.2-50.2-51.8-50.2c-28.6,0-51.8,22.5-51.8,50.2
		S-22.6,328.8,6,328.8z" />
            <path d="M82.9,260c2.1,7,3.3,14.1,3.3,21.8c0,42.9-35.9,77.5-80.2,77.5c-44.3,0-80.1-34.5-80.1-77.4
		c0-7.7,1.2-14.9,3.3-21.9H-94v108.2c0,5.6,4.1,10.8,9.8,10.8H95.3c5.6,0,10.7-5.1,10.7-10.8V260h-0.4H82.9z" />
        </g>
    </svg>
    <svg id="twitter" viewBox="-236 37.6 486.4 486.4">
        <path d="M8.4,37.6c-133.7,0-242,108.3-242,242s108.3,242,242,242s242-108.3,242-242S142,37.6,8.4,37.6z M135.8,225.1
	c0.1,2.6,0.2,5.3,0.2,7.9c0,80.8-61.5,173.9-173.9,173.9c-34.5,0-66.7-10.1-93.7-27.5c4.8,0.6,9.6,0.9,14.6,0.9
	c28.6,0,55-9.8,75.9-26.2c-26.7-0.5-49.3-18.2-57.1-42.5c3.7,0.7,7.6,1.1,11.5,1.1c5.6,0,11-0.7,16.1-2.1c-28-5.6-49-30.3-49-59.9
	c0-0.3,0-0.5,0-0.8c8.2,4.6,17.7,7.3,27.7,7.6c-16.4-11-27.2-29.7-27.2-50.9c0-11.2,3-21.7,8.3-30.7c30.1,37,75.2,61.3,126,63.9
	c-1-4.5-1.6-9.1-1.6-13.9c0-33.8,27.4-61.1,61.1-61.1c17.6,0,33.5,7.4,44.6,19.3c13.9-2.7,27-7.8,38.8-14.8
	c-4.6,14.3-14.3,26.3-26.9,33.8c12.4-1.5,24.1-4.8,35.1-9.6C158.1,205.7,147.8,216.4,135.8,225.1z" />
    </svg>
    <svg id="youtube" viewBox="-236 37.6 486.4 486.4">

        <g>
            <path d="M37.6,306.1c-4.9,0-9.6,2.7-13.6,7.9v-31H11v98h13v-8.3c4,5.4,8.9,8.1,13.6,8.1c5.2,0,8.5-2.8,10.3-8.2
		c0.9-3.1,1.1-7.9,1.1-14.7v-29c0-6.9-0.2-11.7-1.1-14.6C46.1,308.8,42.9,306.1,37.6,306.1z M36,359c0,6.6-1.8,9.8-5.6,9.8
		c-2.2,0-4.4-1-6.4-3.3v-44.4c2-2.2,4.2-3.2,6.4-3.2c3.8,0,5.6,3.4,5.6,9.9V359z" />
            <path d="M-2.5,239.7c4.3,0,6.5-3.4,6.5-10.2v-31c0-6.8-2.2-10.2-6.5-10.2c-4.3,0-6.5,3.4-6.5,10.2v31
		C-9,236.3-6.8,239.7-2.5,239.7z" />
            <polygon points="-87,297 -71,297 -71,381 -56,381 -56,297 -41,297 -41,283 -87,283 	" />
            <path d="M-14,308v54.6c-3,4.1-5.6,6.2-8.3,6.2c-1.8,0-2.5-1-2.8-3.1c-0.1-0.4,0.1-2,0.1-5.1V308h-14v56.5
		c0,5.1,0.6,8.6,1.3,10.8c1.3,3.7,4.3,5.4,8.5,5.4c4.9,0,10.1-2.9,15.1-8.9v9.2h13.3l0-73H-14z" />
            <path d="M79.6,306.1c-6.7,0-11.9,2.5-15.7,7.5c-2.8,3.7-3.9,9.4-3.9,17.2v25.5c0,7.7,1.3,13.5,4.1,17.1
		c3.8,5,9,7.5,15.9,7.5c6.9,0,12.3-2.6,15.9-7.9c1.6-2.3,2.5-5,2.9-7.9c0.1-1.3,0.1-4.2,0.1-8.5V355H85.8c0,6-0.2,8-0.3,8.7
		c-0.8,3.5-2.6,5.2-5.8,5.2c-4.5,0-6.7-3.5-6.7-10.2V347h26.3H99v-16.3c0-7.8-1.2-13.5-4-17.2C91.4,308.5,86.2,306.1,79.6,306.1z
		 M86,336H73v-8c0-6.7,2.1-10.1,6.5-10.1c4.4,0,6.5,3.4,6.5,10.1V336z" />
            <path d="M6.3,37.3c-133.7,0-242,108.3-242,242s108.3,242,242,242s242-108.3,242-242S139.9,37.3,6.3,37.3z M28,178h13
		v53.3c0,3.1,0.2,4.7,0.4,5.2c0.3,2.1,1.4,3.1,3.2,3.1c2.7,0,5.5-2.1,8.5-6.2V178h13v74H53v-9.3c-5,6.1-10.3,9-15.2,9
		c-4.3,0-7.3-1.7-8.6-5.5c-0.7-2.2-1.2-5.7-1.2-10.9V178z M-22,201.2c0-7.9,1.2-13.6,4-17.3c3.7-5,8.8-7.5,15.5-7.5
		c6.7,0,11.8,2.5,15.5,7.5c2.8,3.7,4,9.5,4,17.3v25.8c0,7.8-1.3,13.6-4.1,17.3c-3.7,5-8.8,7.5-15.5,7.5c-6.6,0-11.7-2.5-15.4-7.5
		c-2.8-3.7-4-9.5-4-17.3V201.2z M-57.9,153l10.5,38.8l10.1-38.8h15L-40,210.8V252h-15v-41.2c-1-7.1-4.3-17-9-30.7
		c-3.1-9.2-6.3-18-9.5-27H-57.9z M111.7,386.2c-2.7,11.6-12.2,20.2-23.6,21.5c-27.1,3-54.5,3-81.8,3c-27.3,0-54.7,0-81.8-3
		c-11.4-1.3-20.9-9.8-23.6-21.5c-3.8-16.5-3.8-34.6-3.8-51.6s0-35.1,3.9-51.6c2.7-11.6,12.2-20.2,23.6-21.5c27.1-3,54.5-3,81.8-3
		c27.3,0,54.7,0,81.8,3c11.4,1.3,20.9,9.8,23.6,21.5c3.8,16.5,3.8,34.6,3.8,51.6C115.5,351.6,115.5,369.7,111.7,386.2z" />
        </g>
    </svg>


    <svg id="google-colored" viewBox="-63 155 484 484">
        <g>
            <path style="fill: #DD4B39" d="M179.8,154.7c-133.7,0-242,108.3-242,242s108.3,242,242,242s242-108.3,242-242S313.4,154.7,179.8,154.7z" />
            <path style="fill: #FFFFFF" d="M282,483.2c-31.7,44.5-95.2,57.5-144.8,38.5c-49.8-19-85-71.5-80.8-125.1c1.1-65.6,61.4-123,126.9-120.8
	c31.4-1.5,60.9,12.2,85,31.4c-10.3,11.7-20.9,22.9-32.3,33.4c-28.9-20-70.1-25.7-99-2.6c-41.4,28.6-43.3,96.2-3.5,127
	c38.7,35.1,111.9,17.7,122.6-36.1c-24.2-0.4-48.5,0-72.8-0.8c-0.1-14.5-0.1-28.9-0.1-43.4c40.5-0.1,81.1-0.2,121.6,0.1
	C307.4,418.9,302.9,455.1,282,483.2z" />
        </g>
    </svg>

</svg>