<svg xmlns="http://www.w3.org/2000/svg" style="display: none;">
    <!-- Generator: Adobe Illustrator 19.1.0, SVG Export Plug-In . SVG Version: 6.00 Build 0)  -->
    <symbol id="createBox" viewBox="-224 26 510 510" xml:space="preserve">
<g>
    <path style="fill:#F5F5F5" d="M-20,87.9h-153c-28.1,0-51,22.9-51,51v306c0,28,22.9,51,51,51h408c28,0,51-23,51-51v-255c0-28.1-23-51-51-51
			H31L-20,87.9z" />
	</g>
<g>
    <path style="fill:#212427" d="M31,197.4c-36.1,0-65.4,29.3-65.4,65.4v37.3c0,0.4-0.5,1.1-0.9,1.3c-3.5,1.2-6.4,2.2-9,3.2
			c-3.1,1.2-5.5,4.7-5.5,8.1v85.8c0,3.4,2.3,6.9,5.5,8.1C-20.3,416.2,5.1,421,31,421s51.3-4.8,75.4-14.4c3.1-1.2,5.5-4.7,5.5-8.1
			v-85.8c0-3.4-2.4-6.9-5.5-8.1c-2.6-1-5.5-2-9-3.2c-0.4-0.1-0.9-0.9-0.9-1.3v-37.3C96.4,226.8,67.1,197.4,31,197.4z M13.2,338.9
			c0-9.8,8-17.8,17.8-17.8c9.8,0,17.8,8,17.8,17.8c0,6.5-3.7,12-8.9,15.1v29.4c0,4.9-4,8.9-8.9,8.9c-4.9,0-8.9-4-8.9-8.9v-29.4
			C16.9,350.8,13.2,345.4,13.2,338.9z M73.9,262.8V295c-14.1-3-28.5-4.6-42.9-4.6c-14.4,0-28.8,1.5-42.9,4.6v-32.2
			c0-23.7,19.2-42.9,42.9-42.9C54.7,219.9,73.9,239.2,73.9,262.8z" />
	</g>
</symbol>

    <symbol id="createClass" viewBox="-224 26 510 510">
        <g>
            <path style="fill:#3293f6" d="M-20,88.5h-153c-28.1,0-51,22.9-51,51v306c0,28,22.9,51,51,51h408c28,0,51-23,51-51v-255c0-28.1-23-51-51-51
			H31L-20,88.5z" />
        </g>
        <g>
            <path style="fill:#F5F5F5" d="M91.6,358.9c-8.3,0-16,2.8-22.1,7.5L6.3,328.5c0.3-1.9,0.5-3.9,0.5-5.9c0-2-0.2-4-0.5-5.9l63.2-37.9
			c6.1,4.7,13.8,7.5,22.1,7.5c20.1,0,36.3-16.3,36.3-36.3s-16.3-36.3-36.3-36.3s-36.3,16.3-36.3,36.3c0,2,0.2,4,0.5,5.9l-63.2,37.9
			c-6.1-4.7-13.8-7.5-22.1-7.5c-20.1,0-36.3,16.3-36.3,36.3s16.3,36.3,36.3,36.3c8.3,0,16-2.8,22.1-7.5l63.2,37.9
			c-0.3,1.9-0.5,3.9-0.5,5.9c0,20.1,16.3,36.3,36.3,36.3s36.3-16.3,36.3-36.3S111.6,358.9,91.6,358.9z" />
        </g>
    </symbol>
    <symbol id="googleDrive" viewBox="-223 25 512 512">
        <g style="fill:#0BA25E">
            <path d="M-55.9,60.1l0.4,0l0,0.5l-0.6,0L-55.9,60.1z" />
            <path d="M-57.6,63.4c0.4-0.6,1.2-1.7,1.5-2.2l0.7-0.1c0.5,6.3,2.4,12.4,3.8,18.6c6,26.8,12.1,53.6,18.4,80.3
		c4.1,18.3,8.8,36.6,12.6,55c3.3,11.4,5.1,23.1,8.3,34.6c2.1,10.6,5.3,21,7,31.7c-0.7,1.2-1.4,2.4-2.1,3.5c-0.2,0.3-0.5,0.8-0.7,1.1
		l-0.3,0.4c0,0.1-0.1,0.3-0.2,0.3c-0.4,0.7-1.2,2.1-1.6,2.9c-0.1,0.1-0.2,0.4-0.3,0.5l-0.7,1.3c-0.1,0.2-0.3,0.4-0.3,0.6l-0.8,1.5
		c0,0.1-0.1,0.2-0.2,0.3l-1,1.8c-0.1,0.1-0.3,0.5-0.4,0.6c-0.1,0.2-0.3,0.5-0.4,0.7l-1,1.7c-0.1,0.1-0.2,0.4-0.3,0.5l-0.6,1
		c-0.1,0.2-0.3,0.5-0.4,0.7c-0.4,0.7-1.2,2.1-1.6,2.8c-0.1,0.1-0.2,0.4-0.3,0.5l-0.6,1c-0.1,0.2-0.3,0.6-0.4,0.7
		c-0.4,0.6-1.1,1.9-1.5,2.6c-0.1,0.1-0.3,0.5-0.4,0.6l-0.8,1.4c-0.1,0.1-0.2,0.4-0.3,0.5l-0.8,1.3c-0.1,0.1-0.2,0.4-0.3,0.6
		c-0.4,0.7-1.2,2-1.6,2.7c-0.1,0.1-0.3,0.5-0.4,0.6l-0.7,1.3c-0.1,0.1-0.2,0.4-0.3,0.5l-0.8,1.4c-0.1,0.1-0.2,0.4-0.3,0.5
		c-0.4,0.7-1.3,2.1-1.7,2.9c-0.1,0.1-0.2,0.4-0.3,0.5l-0.6,1c-0.1,0.2-0.3,0.5-0.4,0.7c-0.4,0.7-1.1,2-1.5,2.6
		c-0.1,0.1-0.2,0.4-0.3,0.5l-0.8,1.5c-0.1,0.1-0.2,0.3-0.2,0.4l-0.8,1.5c-0.1,0.1-0.2,0.4-0.3,0.5c-0.4,0.7-1.2,2-1.6,2.6
		c-0.1,0.2-0.3,0.5-0.4,0.7l-0.6,1.1c-0.1,0.1-0.2,0.4-0.3,0.6l-1,1.8c-0.1,0.1-0.3,0.4-0.3,0.6c-0.1,0.1-0.3,0.4-0.3,0.6
		c-1.7,2.9-3.2,5.8-5.1,8.5c-10.7,17.4-20.5,35.3-30.8,52.9c-16.7,29-33.5,57.9-50.2,86.9c-2.5,4.5-5.4,8.8-7.5,13.5
		c-0.1,0.2-0.3,0.5-0.4,0.6c-4-5.8-7.1-12.2-10.8-18.2c-16.7-29-33.5-58-50.2-87c-9.3-16.3-19-32.4-28-48.9
		c35.8-61.9,71.5-123.8,107.3-185.7c0-0.1,0.1-0.2,0.1-0.2l1-1.7c0-0.1,0.1-0.2,0.2-0.3l1-1.7c0.1-0.2,0.3-0.5,0.4-0.6
		c0.1-0.2,0.3-0.5,0.4-0.7l1-1.8c0.1-0.1,0.2-0.4,0.3-0.5l0.7-1.2c0.1-0.2,0.4-0.6,0.5-0.8c0.4-0.5,1.1-1.6,1.5-2.2
		c0-0.2,0.1-0.5,0.2-0.7l0.9-1.7c0-0.1,0.1-0.2,0.2-0.3l1-1.7c0.1-0.2,0.3-0.5,0.4-0.7c0.1-0.2,0.3-0.6,0.5-0.8l0.8-1.5
		c0.1-0.2,0.3-0.5,0.4-0.6l0.7-1.2c0.1-0.1,0.2-0.4,0.3-0.5c0.4-0.7,1.2-2,1.6-2.7c0.1-0.1,0.2-0.4,0.3-0.6l0.7-1.3
		c0.1-0.1,0.2-0.3,0.2-0.4l1-1.7c0.1-0.2,0.4-0.6,0.5-0.8l0.7-1c0.1-0.2,0.4-0.6,0.6-0.8c0.1-0.2,0.4-0.6,0.5-0.8l0.5-1
		c0.2-0.4,0.5-1.2,0.7-1.6l0.5-0.8c0.1-0.1,0.3-0.4,0.4-0.5c0.4-0.3,1.1-1,1.5-1.3l-0.1-1.2c0.1-0.1,0.2-0.4,0.3-0.6l0.9-1.7
		c0.1-0.1,0.2-0.4,0.3-0.5l0.8-1.2c0.1-0.2,0.4-0.6,0.6-0.8c0.3-0.6,1-1.7,1.4-2.2c0.1-0.2,0.3-0.6,0.4-0.8l0.5-1.1
		c0.2-0.3,0.5-0.9,0.7-1.2l0.7-0.9c0.1-0.2,0.4-0.6,0.6-0.8c0.1-0.2,0.4-0.6,0.5-0.8l0.5-1c0.1-0.2,0.3-0.7,0.4-0.9l0.9-1.7
		c0.1-0.2,0.4-0.6,0.5-0.8l0.7-1c0.1-0.2,0.4-0.6,0.6-0.8c0.1-0.2,0.4-0.6,0.5-0.8l0.5-1c0.1-0.3,0.4-0.9,0.6-1.1l0.7-1.1
		c0.1-0.2,0.4-0.6,0.5-0.8c0.4-0.6,1.1-1.7,1.5-2.2c0-0.2,0.1-0.5,0.2-0.7l0.9-1.7c0-0.1,0.1-0.2,0.1-0.3l1-1.7
		c0.1-0.2,0.3-0.5,0.4-0.7c0.1-0.2,0.3-0.5,0.4-0.7l1-1.8c0-0.1,0.1-0.2,0.2-0.3l0.9-1.6c0.1-0.1,0.1-0.2,0.2-0.3l1-1.7
		c0.1-0.2,0.3-0.5,0.4-0.6c0.1-0.2,0.3-0.5,0.4-0.7l1-1.7c0.1-0.1,0.2-0.3,0.2-0.4l0.8-1.3c0.1-0.2,0.4-0.6,0.5-0.8
		c0.4-0.5,1.1-1.7,1.5-2.2c0-0.2,0.1-0.5,0.2-0.7l0.8-1.6c0.1-0.1,0.2-0.4,0.3-0.5l0.8-1.2c0.1-0.2,0.4-0.6,0.5-0.8
		c0.4-0.6,1.1-1.7,1.4-2.2c0.1-0.2,0.1-0.5,0.2-0.6l0.9-1.7c0-0.1,0.1-0.2,0.2-0.3l1-1.7c0.1-0.2,0.3-0.5,0.3-0.6
		c0.1-0.2,0.3-0.5,0.4-0.6l1-1.8c0.1-0.1,0.1-0.2,0.2-0.3l0.9-1.6C-57.7,63.5-57.6,63.4-57.6,63.4z" />
        </g>
        <g style="fill:#089156;">
            <path d="M-56,60.6l0.6,0l0.1,0.4l-0.7,0.1L-56,60.6z" />
            <path d="M-55.4,61c2.1,2.8,3.7,5.9,5.4,8.9c27.8,48.1,55.6,96.2,83.3,144.3c-12.8,22.4-25.8,44.7-38.7,67
		c-1.7-10.7-5-21.1-7-31.7c-3.2-11.4-5-23.2-8.3-34.6c-3.8-18.4-8.4-36.6-12.6-55c-6.3-26.7-12.4-53.5-18.4-80.3
		C-53,73.5-54.8,67.4-55.4,61z" />
            <path d="M-57.7,63.6c0,0,0.1-0.2,0.1-0.2C-57.6,63.4-57.7,63.5-57.7,63.6z" />
            <path d="M-58.9,65.5c0.1-0.1,0.1-0.2,0.2-0.3C-58.7,65.3-58.8,65.4-58.9,65.5z" />
            <path d="M-60.2,67.9c0.1-0.2,0.3-0.5,0.4-0.6C-59.9,67.4-60.1,67.8-60.2,67.9z" />
            <path d="M-60.6,68.5c0.1-0.2,0.3-0.5,0.3-0.6C-60.3,68.1-60.5,68.4-60.6,68.5z" />
            <path d="M-61.7,70.5c0-0.1,0.1-0.2,0.2-0.3C-61.6,70.3-61.7,70.5-61.7,70.5z" />
            <path d="M-62.8,72.8c0.1-0.2,0.1-0.5,0.2-0.6C-62.7,72.3-62.8,72.7-62.8,72.8z" />
            <path d="M-64.2,75.1c0.4-0.6,1.1-1.7,1.4-2.2C-63.2,73.4-63.9,74.5-64.2,75.1z" />
            <path d="M-64.8,75.8c0.1-0.2,0.4-0.6,0.5-0.8C-64.4,75.3-64.6,75.7-64.8,75.8z" />
            <path d="M-65.8,77.5c0.1-0.1,0.2-0.4,0.3-0.5C-65.6,77.2-65.7,77.4-65.8,77.5z" />
            <path d="M-66.8,79.8c0-0.2,0.1-0.5,0.2-0.7C-66.7,79.3-66.8,79.7-66.8,79.8z" />
            <path d="M-68.3,82c0.4-0.5,1.1-1.7,1.5-2.2C-67.2,80.4-67.9,81.5-68.3,82z" />
            <path d="M-68.8,82.8c0.1-0.2,0.4-0.6,0.5-0.8C-68.4,82.2-68.6,82.6-68.8,82.8z" />
            <path d="M-69.8,84.5c0.1-0.1,0.2-0.3,0.2-0.4C-69.6,84.2-69.8,84.4-69.8,84.5z" />
            <path d="M-71.2,86.9c0.1-0.2,0.3-0.5,0.4-0.7C-70.9,86.4-71.1,86.8-71.2,86.9z" />
            <path d="M-71.5,87.6c0.1-0.2,0.3-0.5,0.4-0.6C-71.3,87.1-71.4,87.4-71.5,87.6z" />
            <path d="M-72.7,89.6c0.1-0.1,0.1-0.2,0.2-0.3C-72.6,89.3-72.7,89.5-72.7,89.6z" />
            <path d="M-73.8,91.5c0-0.1,0.1-0.2,0.2-0.3C-73.7,91.3-73.8,91.4-73.8,91.5z" />
            <path d="M-75.2,93.9c0.1-0.2,0.3-0.5,0.4-0.7C-74.9,93.4-75.1,93.7-75.2,93.9z" />
            <path d="M-75.6,94.6c0.1-0.2,0.3-0.5,0.4-0.7C-75.3,94.1-75.5,94.4-75.6,94.6z" />
            <path d="M-76.8,96.5c0-0.1,0.1-0.2,0.1-0.3C-76.6,96.3-76.7,96.5-76.8,96.5z" />
            <path d="M-77.8,98.9c0-0.2,0.1-0.5,0.2-0.7C-77.7,98.4-77.8,98.7-77.8,98.9z" />
            <path d="M-79.3,101.1c0.4-0.6,1.1-1.7,1.5-2.2C-78.2,99.4-78.9,100.5-79.3,101.1z" />
            <path d="M-79.8,101.9c0.1-0.2,0.4-0.6,0.5-0.8C-79.4,101.3-79.6,101.7-79.8,101.9z" />
            <path d="M-81,104.1c0.1-0.3,0.4-0.9,0.6-1.1C-80.6,103.3-80.9,103.8-81,104.1z" />
            <path d="M-82,106c0.1-0.2,0.4-0.6,0.5-0.8C-81.6,105.4-81.9,105.8-82,106z" />
            <path d="M-82.6,106.8c0.1-0.2,0.4-0.6,0.6-0.8C-82.2,106.2-82.4,106.6-82.6,106.8z" />
            <path d="M-83.7,108.6c0.1-0.2,0.4-0.6,0.5-0.8C-83.4,107.9-83.6,108.4-83.7,108.6z" />
            <path d="M-85.1,111.2c0.1-0.2,0.3-0.7,0.4-0.9C-84.7,110.5-84.9,110.9-85.1,111.2z" />
            <path d="M-86,113c0.1-0.2,0.4-0.6,0.5-0.8C-85.7,112.4-85.9,112.8-86,113z" />
            <path d="M-86.6,113.8c0.1-0.2,0.4-0.6,0.6-0.8C-86.2,113.2-86.4,113.6-86.6,113.8z" />
            <path d="M-87.9,115.9c0.2-0.3,0.5-0.9,0.7-1.2C-87.4,115-87.8,115.6-87.9,115.9z" />
            <path d="M-88.8,117.8c0.1-0.2,0.3-0.6,0.4-0.8C-88.6,117.3-88.7,117.7-88.8,117.8z" />
            <path d="M-90.2,120.1c0.3-0.6,1-1.7,1.4-2.2C-89.2,118.4-89.9,119.5-90.2,120.1z" />
            <path d="M-90.8,120.9c0.1-0.2,0.4-0.6,0.6-0.8C-90.3,120.3-90.6,120.7-90.8,120.9z" />
            <path d="M-91.8,122.6c0.1-0.1,0.2-0.4,0.3-0.5C-91.6,122.2-91.7,122.4-91.8,122.6z" />
            <path d="M-92.9,124.8c0.1-0.1,0.2-0.4,0.3-0.6C-92.7,124.4-92.8,124.7-92.9,124.8z" />
            <path d="M-94.3,127.3c0.4-0.6,1.1-1.8,1.4-2.4l0.1,1.2C-93.2,126.3-93.9,126.9-94.3,127.3z" />
            <path d="M-94.7,127.8c0.1-0.1,0.3-0.4,0.4-0.5C-94.4,127.4-94.6,127.7-94.7,127.8z" />
            <path d="M-96,130.1c0.2-0.4,0.5-1.2,0.7-1.6C-95.4,129-95.8,129.8-96,130.1z" />
            <path d="M-97,132c0.1-0.2,0.4-0.6,0.5-0.8C-96.7,131.4-96.9,131.8-97,132z" />
            <path d="M-97.6,132.8c0.1-0.2,0.4-0.6,0.6-0.8C-97.2,132.2-97.4,132.6-97.6,132.8z" />
            <path d="M-98.7,134.6c0.1-0.2,0.4-0.6,0.5-0.8C-98.4,133.9-98.6,134.4-98.7,134.6z" />
            <path d="M-99.9,136.6c0.1-0.1,0.2-0.3,0.2-0.4C-99.8,136.3-99.9,136.6-99.9,136.6z" />
            <path d="M-101,138.5c0.1-0.1,0.2-0.4,0.3-0.6C-100.7,138.1-100.9,138.4-101,138.5z" />
            <path d="M-102.9,141.8c0.1-0.1,0.2-0.4,0.3-0.5C-102.6,141.4-102.8,141.6-102.9,141.8z" />
            <path d="M-103.9,143.6c0.1-0.2,0.3-0.5,0.4-0.6C-103.7,143.1-103.8,143.5-103.9,143.6z" />
            <path d="M-105.2,145.9c0.1-0.2,0.3-0.6,0.5-0.8C-104.9,145.3-105.1,145.7-105.2,145.9z" />
            <path d="M-105.6,146.5c0.1-0.2,0.3-0.5,0.4-0.7C-105.3,146-105.5,146.4-105.6,146.5z" />
            <path d="M-106.8,148.5c0-0.1,0.1-0.2,0.2-0.3C-106.7,148.3-106.7,148.4-106.8,148.5z" />
            <path d="M-107.8,150.9c0-0.2,0.1-0.5,0.2-0.7C-107.7,150.3-107.8,150.7-107.8,150.9z" />
            <path d="M-109.3,153c0.4-0.5,1.1-1.6,1.5-2.2C-108.2,151.4-108.9,152.5-109.3,153z" />
            <path d="M-109.8,153.8c0.1-0.2,0.4-0.6,0.5-0.8C-109.4,153.2-109.7,153.6-109.8,153.8z" />
            <path d="M-110.8,155.5c0.1-0.1,0.2-0.4,0.3-0.5C-110.6,155.1-110.7,155.4-110.8,155.5z" />
            <path d="M-112.2,157.9c0.1-0.2,0.3-0.5,0.4-0.7C-111.9,157.4-112.1,157.8-112.2,157.9z" />
            <path d="M-112.6,158.6c0.1-0.2,0.3-0.5,0.4-0.6C-112.3,158.1-112.5,158.4-112.6,158.6z" />
            <path d="M-113.7,160.5c0-0.1,0.1-0.2,0.2-0.3C-113.6,160.3-113.7,160.5-113.7,160.5z" />
            <path d="M-114.8,162.4c0-0.1,0.1-0.2,0.1-0.2C-114.7,162.3-114.8,162.4-114.8,162.4z" />
            <path d="M-8.1,285.9c0.2-0.3,0.5-0.8,0.7-1.1C-7.6,285-7.9,285.6-8.1,285.9z" />
            <path d="M-8.5,286.6c0-0.1,0.1-0.3,0.2-0.3C-8.4,286.4-8.5,286.5-8.5,286.6z" />
            <path d="M-10.4,290c0.1-0.1,0.2-0.4,0.3-0.5C-10.2,289.6-10.3,289.9-10.4,290z" />
            <path d="M-11.4,291.9c0.1-0.1,0.3-0.4,0.3-0.6C-11.2,291.4-11.4,291.7-11.4,291.9z" />
            <path d="M-12.5,293.6c0.1-0.1,0.1-0.2,0.2-0.3C-12.3,293.4-12.4,293.5-12.5,293.6z" />
            <path d="M-13.9,296.1c0.1-0.2,0.3-0.5,0.4-0.6C-13.6,295.6-13.8,295.9-13.9,296.1z" />
            <path d="M-14.3,296.7c0.1-0.2,0.3-0.5,0.4-0.7C-13.9,296.2-14.1,296.6-14.3,296.7z" />
            <path d="M-15.6,299c0.1-0.1,0.2-0.4,0.3-0.5C-15.3,298.6-15.5,298.9-15.6,299z" />
            <path d="M-16.6,300.8c0.1-0.2,0.3-0.6,0.4-0.7C-16.3,300.2-16.5,300.6-16.6,300.8z" />
            <path d="M-18.5,304.1c0.1-0.1,0.2-0.4,0.3-0.5C-18.3,303.7-18.4,303.9-18.5,304.1z" />
            <path d="M-19.6,305.9c0.1-0.2,0.3-0.6,0.4-0.7C-19.2,305.3-19.4,305.7-19.6,305.9z" />
            <path d="M-21.4,309c0.1-0.1,0.3-0.5,0.4-0.6C-21.1,308.6-21.3,308.9-21.4,309z" />
            <path d="M-22.4,310.9c0.1-0.1,0.2-0.4,0.3-0.5C-22.2,310.5-22.4,310.8-22.4,310.9z" />
            <path d="M-23.5,312.8c0.1-0.1,0.2-0.4,0.3-0.6C-23.3,312.4-23.4,312.7-23.5,312.8z" />
            <path d="M-25.5,316.1c0.1-0.2,0.3-0.5,0.4-0.6C-25.2,315.6-25.4,315.9-25.5,316.1z" />
            <path d="M-26.4,317.8c0.1-0.1,0.2-0.3,0.3-0.5C-26.2,317.5-26.4,317.7-26.4,317.8z" />
            <path d="M-27.5,319.8c0.1-0.1,0.2-0.4,0.3-0.5C-27.3,319.4-27.5,319.6-27.5,319.8z" />
            <path d="M-29.5,323.1c0.1-0.1,0.2-0.4,0.3-0.5C-29.3,322.8-29.4,323-29.5,323.1z" />
            <path d="M-30.5,324.8c0.1-0.2,0.3-0.5,0.4-0.7C-30.2,324.3-30.4,324.7-30.5,324.8z" />
            <path d="M-32.3,327.9c0.1-0.1,0.2-0.4,0.3-0.5C-32.1,327.6-32.2,327.8-32.3,327.9z" />
            <path d="M-33.4,329.8c0.1-0.1,0.2-0.3,0.2-0.4C-33.2,329.5-33.3,329.7-33.4,329.8z" />
            <path d="M-34.5,331.8c0.1-0.1,0.2-0.4,0.3-0.5C-34.3,331.4-34.4,331.6-34.5,331.8z" />
            <path d="M-36.5,335.1c0.1-0.2,0.3-0.5,0.4-0.7C-36.2,334.5-36.4,334.9-36.5,335.1z" />
            <path d="M-37.4,336.7c0.1-0.1,0.2-0.4,0.3-0.6C-37.1,336.3-37.3,336.6-37.4,336.7z" />
            <path d="M-38.7,339.1c0.1-0.1,0.3-0.4,0.3-0.6C-38.5,338.7-38.6,339-38.7,339.1z" />
            <path d="M-39.1,339.7c0.1-0.1,0.2-0.4,0.3-0.6C-38.8,339.3-39,339.5-39.1,339.7z" />
        </g>
        <g style="fill:#10985B">
            <path d="M124.3,63.2c0.1,0.1,0.2,0.4,0.3,0.5C124.5,63.6,124.4,63.3,124.3,63.2z" />
            <path d="M132.4,77.3c0,0.1,0.1,0.2,0.2,0.3C132.5,77.6,132.5,77.4,132.4,77.3z" />
            <path d="M147.4,103.3c0,0.1,0.1,0.2,0.2,0.3C147.6,103.6,147.5,103.4,147.4,103.3z" />
            <path d="M150.3,108.2c0.1,0.1,0.2,0.4,0.3,0.5C150.5,108.6,150.4,108.4,150.3,108.2z" />
            <path d="M154.4,115.4c0,0.1,0.1,0.2,0.2,0.3C154.5,115.6,154.5,115.4,154.4,115.4z" />
            <path d="M158.4,122.2c0.1,0.1,0.2,0.4,0.3,0.5C158.6,122.6,158.4,122.4,158.4,122.2z" />
            <path d="M162.4,129.2c0.1,0.1,0.2,0.4,0.3,0.5C162.6,129.6,162.5,129.3,162.4,129.2z" />
        </g>
        <g style="fill:#F9C941">
            <path d="M286.3,344.2c0-0.1-0.1-0.2-0.1-0.3l-1-1.7c-0.1-0.2-0.3-0.5-0.4-0.7c-0.1-0.2-0.3-0.5-0.4-0.7l-1-1.7
		c0-0.1-0.1-0.2-0.2-0.3l-1-1.7c0-0.1-0.1-0.2-0.2-0.3l-1-1.7c-0.1-0.2-0.3-0.5-0.4-0.6c-0.1-0.2-0.3-0.5-0.4-0.6l-1-1.8
		c-0.1-0.2-0.4-0.6-0.5-0.8l-0.7-1c-0.2-0.2-0.4-0.6-0.6-0.8c-0.1-0.2-0.3-0.6-0.5-0.8l-0.5-1c-0.1-0.2-0.3-0.6-0.4-0.8
		c-0.7-1.3-1.4-2.5-2.1-3.8c-0.1-0.2-0.3-0.5-0.4-0.6c-0.1-0.2-0.3-0.6-0.4-0.7l-0.9-1.6c-0.1-0.1-0.2-0.3-0.2-0.4l-0.9-1.6
		c0-0.1-0.1-0.2-0.2-0.3l-1-1.7c-0.1-0.2-0.3-0.5-0.4-0.6c-0.1-0.2-0.3-0.5-0.4-0.6l-1-1.8c-0.1-0.2-0.3-0.5-0.4-0.6l-0.6-1
		c-0.1-0.2-0.3-0.5-0.5-0.7c-0.4-0.6-1.3-2-1.8-2.6l-0.1-0.1l-0.1-0.2l-0.3-0.5c-0.2-0.5-0.6-1.4-0.8-1.8l-0.7-1
		c-0.1-0.2-0.4-0.6-0.5-0.8c-0.2-0.3-0.6-1-0.8-1.3l-0.6-0.9l-0.2-0.3l-0.1-0.3l-0.3-0.5c-0.1-0.3-0.4-1-0.6-1.4l-1-1.8
		c-0.1-0.2-0.3-0.5-0.4-0.7c-0.1-0.2-0.3-0.5-0.4-0.7l-1-1.7c0-0.1-0.1-0.2-0.2-0.3l-1-1.7c0-0.1-0.1-0.2-0.2-0.3l-1-1.7
		c-0.1-0.2-0.3-0.5-0.4-0.6c-0.1-0.2-0.3-0.5-0.4-0.7l-1-1.7c-0.1-0.1-0.2-0.3-0.2-0.4l-0.8-1.4c-0.1-0.1-0.2-0.4-0.3-0.5
		c-0.4-0.7-1.2-2-1.6-2.6c-0.1-0.1-0.2-0.4-0.3-0.5c-17.1-30-34.5-59.9-51.8-89.8c0-0.1,0-0.2,0.1-0.3
		c-11.9-20.7-23.8-41.3-35.8-61.9c-0.1-0.1-0.2-0.4-0.3-0.5c-1.2-2.2-2.5-4.3-3.7-6.5c-0.1-0.1-0.2-0.4-0.3-0.5
		c-1.3-2.2-2.5-4.4-3.8-6.6c0-0.1-0.1-0.2-0.2-0.3c-1.3-2.2-2.5-4.4-3.8-6.6c-0.1-0.1-0.2-0.4-0.3-0.5c-0.9-1.5-1.8-3.1-2.7-4.6
		c0-0.1-0.1-0.2-0.2-0.3c-4.9-8.6-9.8-17.2-14.8-25.7c-0.1-0.1-0.1-0.2-0.2-0.3c-2.6-4.5-5.2-9.1-7.8-13.6c-0.1-0.1-0.2-0.4-0.3-0.5
		c-0.6-1-1.1-2-1.6-3c-26.9-0.4-53.8,0-80.7-0.1c-32.5,0-65-0.1-97.5,0.1l0,0.5l0,0.4c2.1,2.8,3.7,5.9,5.5,8.9
		c27.8,48.1,55.6,96.2,83.3,144.3c0.6,1,1.2,2.1,1.8,3.1c0.1,0.1,0.2,0.4,0.3,0.5c0.4,0.7,1.1,2,1.5,2.7c0.1,0.1,0.2,0.3,0.3,0.5
		l0.8,1.5c0,0.1,0.1,0.3,0.2,0.3l1,1.8c0.1,0.2,0.3,0.5,0.4,0.6c0.1,0.2,0.3,0.5,0.4,0.7l1,1.6c0,0.1,0.2,0.3,0.2,0.4
		c0.6,1.1,1.3,2.3,2,3.4c0.1,0.2,0.3,0.5,0.3,0.6c0.4,0.7,1.2,2,1.5,2.6c0.1,0.2,0.3,0.4,0.3,0.6l0.9,1.5c0.2,0.3,0.6,1,0.8,1.3
		l0.3,0.5c0,0.1,0.1,0.3,0.2,0.3c0.4,0.8,1.3,2.4,1.8,3.2c0.2,0.3,0.6,0.8,0.8,1.1l0.3,0.5c0,0.1,0.1,0.3,0.2,0.3
		c0.9,1.7,1.8,3.4,2.8,5.1c0.2,0.3,0.6,0.8,0.8,1.1l0.3,0.5c0,0.1,0.1,0.3,0.2,0.3c0.4,0.7,1.2,2.1,1.6,2.9c0.1,0.1,0.3,0.5,0.4,0.6
		l0.6,1.1c0.1,0.2,0.3,0.5,0.4,0.7l0.8,1.5c0.1,0.2,0.3,0.5,0.4,0.7c0.1,0.2,0.3,0.5,0.4,0.6l1,1.8c0,0.1,0.1,0.2,0.2,0.3l1,1.7
		c0.1,0.1,0.2,0.4,0.3,0.5l0.6,1c0.1,0.2,0.3,0.5,0.4,0.7c0.4,0.7,1.3,2.2,1.7,2.9c0.2,0.3,0.5,0.9,0.7,1.1l0.3,0.5
		c0,0.1,0.2,0.3,0.2,0.3c0.5,0.7,1.3,2.1,1.8,2.8l0.1,0.1l0.1,0.1c0.6,1.3,1.2,2.6,1.9,3.9c0.1,0.2,0.3,0.4,0.3,0.6
		c0.1,0.2,0.3,0.5,0.4,0.7l1,1.6c0,0.1,0.2,0.3,0.2,0.4l0.7,1.2c11.5,4.2,23.5,7.3,35.1,11.1c12.5,3.7,24.9,7.7,37.5,11.3
		c0.1,0,0.1-0.1,0.2-0.1c22.6,7.2,45.3,13.9,67.9,21.2c25.1,6.9,49.7,15.5,74.7,22.6l0-0.9L286.3,344.2z" />
            <polygon points="287.9,347.1 287.4,347.1 287.6,347.9 288.2,347.9 	" />
        </g>
        <g style="fill:#E3B73A">
            <path d="M35.2,217.3c0.1,0.1,0.2,0.4,0.3,0.5C35.5,217.7,35.3,217.4,35.2,217.3z" />
            <path d="M37.1,220.5c0.1,0.1,0.2,0.3,0.3,0.5C37.3,220.9,37.1,220.6,37.1,220.5z" />
            <path d="M38.2,222.5c0,0.1,0.1,0.3,0.2,0.3C38.3,222.7,38.2,222.5,38.2,222.5z" />
            <path d="M39.4,224.6c0.1,0.1,0.3,0.4,0.4,0.6C39.6,225,39.5,224.7,39.4,224.6z" />
            <path d="M39.7,225.1c0.1,0.2,0.3,0.5,0.4,0.7C40,225.6,39.8,225.3,39.7,225.1z" />
            <path d="M41,227.4c0,0.1,0.2,0.3,0.2,0.4C41.2,227.7,41.1,227.5,41,227.4z" />
            <path d="M43.2,231.2c0.1,0.2,0.3,0.5,0.4,0.6C43.5,231.7,43.3,231.4,43.2,231.2z" />
            <path d="M45.1,234.5c0.1,0.1,0.3,0.4,0.3,0.6C45.4,234.9,45.2,234.6,45.1,234.5z" />
            <path d="M46.3,236.5c0.2,0.3,0.6,1,0.8,1.3C46.9,237.5,46.5,236.8,46.3,236.5z" />
            <path d="M47.4,238.3c0,0.1,0.1,0.3,0.2,0.3C47.5,238.5,47.4,238.4,47.4,238.3z" />
            <path d="M49.3,241.8c0.2,0.3,0.6,0.8,0.8,1.1C49.9,242.6,49.5,242,49.3,241.8z" />
            <path d="M50.3,243.3c0,0.1,0.1,0.3,0.2,0.3C50.5,243.6,50.4,243.4,50.3,243.3z" />
            <path d="M53.3,248.7c0.2,0.3,0.6,0.8,0.8,1.1C53.9,249.6,53.5,249,53.3,248.7z" />
            <path d="M54.4,250.3c0,0.1,0.1,0.3,0.2,0.3C54.5,250.6,54.4,250.4,54.4,250.3z" />
            <path d="M56.1,253.5c0.1,0.1,0.3,0.4,0.4,0.6C56.4,253.9,56.2,253.6,56.1,253.5z" />
            <path d="M57.1,255.2c0.1,0.2,0.3,0.5,0.4,0.7C57.4,255.8,57.2,255.4,57.1,255.2z" />
            <path d="M58.3,257.4c0.1,0.2,0.3,0.5,0.4,0.7C58.6,257.9,58.4,257.6,58.3,257.4z" />
            <path d="M58.7,258.1c0.1,0.2,0.3,0.5,0.4,0.6C59,258.6,58.8,258.3,58.7,258.1z" />
            <path d="M60.1,260.5c0,0.1,0.1,0.2,0.2,0.3C60.3,260.7,60.2,260.6,60.1,260.5z" />
            <path d="M61.3,262.5c0.1,0.1,0.2,0.4,0.3,0.5C61.5,262.9,61.3,262.6,61.3,262.5z" />
            <path d="M62.2,264c0.1,0.2,0.3,0.6,0.4,0.7C62.5,264.6,62.3,264.2,62.2,264z" />
            <path d="M64.4,267.7c0.2,0.3,0.5,0.9,0.7,1.1C64.9,268.6,64.5,268,64.4,267.7z" />
            <path d="M65.3,269.3c0.1,0.1,0.2,0.3,0.2,0.3C65.5,269.6,65.4,269.4,65.3,269.3z" />
            <path d="M67.3,272.5L67.3,272.5l0.1,0.2C67.4,272.6,67.3,272.5,67.3,272.5z" />
            <path d="M69.4,276.5c0.1,0.2,0.3,0.4,0.3,0.6C69.6,277,69.5,276.7,69.4,276.5z" />
            <path d="M69.7,277.1c0.1,0.2,0.3,0.5,0.4,0.7C70,277.6,69.8,277.3,69.7,277.1z" />
            <path d="M71.1,279.4c0,0.1,0.1,0.3,0.2,0.4C71.2,279.7,71.1,279.5,71.1,279.4z" />
            <path d="M71.9,281c11.5,4.2,23.5,7.3,35.1,11.1c12.5,3.7,24.9,7.7,37.5,11.3c22.8,7.3,45.8,14,68.5,21.4
		c-0.3,4.9,0.6,9.9-0.6,14.6c-0.9,4.6-6.5,5.4-8.8,9.1c-30.8,0-61.5,0.1-92.3,0l-0.7-0.1C98,325.8,84.8,303.5,71.9,281z" />
        </g>
        <g style="fill:#E8B835">
            <path d="M250.6,282.1c0.1,0.1,0.2,0.4,0.3,0.5C250.8,282.5,250.7,282.2,250.6,282.1z" />
            <path d="M252.5,285.2c0.1,0.1,0.2,0.4,0.3,0.5C252.7,285.6,252.6,285.4,252.5,285.2z" />
            <path d="M253.6,287.1c0.1,0.1,0.1,0.3,0.2,0.4C253.8,287.4,253.7,287.2,253.6,287.1z" />
            <path d="M254.8,289.2c0.1,0.2,0.3,0.5,0.4,0.7C255.1,289.8,254.9,289.4,254.8,289.2z" />
            <path d="M255.2,289.9c0.1,0.1,0.3,0.5,0.4,0.6C255.5,290.4,255.3,290.1,255.2,289.9z" />
            <path d="M256.6,292.3c0,0.1,0.1,0.2,0.2,0.3C256.7,292.5,256.6,292.3,256.6,292.3z" />
            <path d="M257.7,294.2c0,0.1,0.1,0.2,0.2,0.3C257.8,294.4,257.7,294.3,257.7,294.2z" />
            <path d="M258.8,296.2c0.1,0.2,0.3,0.5,0.4,0.7C259.1,296.7,258.9,296.4,258.8,296.2z" />
            <path d="M259.2,296.9c0.1,0.2,0.3,0.5,0.4,0.7C259.5,297.4,259.3,297,259.2,296.9z" />
            <path d="M260.6,299.3c0.1,0.4,0.4,1,0.6,1.4C261,300.3,260.8,299.6,260.6,299.3z" />
            <path d="M261.5,301.2c0.1,0.1,0.3,0.4,0.3,0.6l-0.2-0.3L261.5,301.2z" />
            <path d="M262.4,302.7c0.2,0.3,0.6,1,0.8,1.3C263,303.7,262.6,303,262.4,302.7z" />
            <path d="M263.2,304c0.1,0.2,0.4,0.6,0.5,0.8C263.6,304.6,263.3,304.2,263.2,304z" />
            <path d="M264.4,305.9c0.2,0.4,0.6,1.4,0.8,1.8C265,307.2,264.6,306.3,264.4,305.9z" />
            <path d="M265.5,308.2c0,0.1,0.1,0.3,0.2,0.3l-0.1-0.1L265.5,308.2z" />
            <path d="M267.4,311.1c0.1,0.2,0.3,0.5,0.5,0.7C267.8,311.7,267.5,311.3,267.4,311.1z" />
            <path d="M268.5,312.9c0.1,0.2,0.3,0.5,0.4,0.6C268.8,313.3,268.6,313,268.5,312.9z" />
            <path d="M269.9,315.3c0.1,0.2,0.3,0.5,0.4,0.6C270.1,315.7,269.9,315.4,269.9,315.3z" />
            <path d="M270.2,315.9c0.1,0.2,0.3,0.5,0.4,0.6C270.5,316.4,270.3,316.1,270.2,315.9z" />
            <path d="M271.6,318.2c0,0.1,0.1,0.2,0.2,0.3C271.7,318.5,271.6,318.3,271.6,318.2z" />
            <path d="M272.7,320.1c0.1,0.1,0.2,0.3,0.2,0.4C272.8,320.5,272.7,320.2,272.7,320.1z" />
            <path d="M273.8,322.2c0.1,0.2,0.3,0.5,0.4,0.7C274.1,322.7,273.9,322.3,273.8,322.2z" />
            <path d="M274.3,322.9c0.1,0.2,0.3,0.5,0.4,0.6C274.5,323.4,274.3,323,274.3,322.9z" />
            <path d="M213.1,324.8c25.1,6.9,49.7,15.5,74.7,22.6l0.2,0.8c-28.1,0.6-56.2,0.1-84.3,0.3c2.3-3.7,7.9-4.4,8.8-9.1
		C213.7,334.6,212.7,329.6,213.1,324.8z" />
            <path d="M276.7,327.3c0.1,0.2,0.3,0.6,0.4,0.8C277,327.9,276.8,327.5,276.7,327.3z" />
            <path d="M277.6,329.2c0.1,0.2,0.4,0.6,0.5,0.8C277.9,329.8,277.7,329.4,277.6,329.2z" />
            <path d="M278,330c0.2,0.2,0.4,0.6,0.6,0.8C278.5,330.6,278.2,330.2,278,330z" />
            <path d="M279.3,331.7c0.1,0.2,0.4,0.6,0.5,0.8C279.7,332.3,279.5,331.9,279.3,331.7z" />
            <path d="M280.8,334.3c0.1,0.2,0.3,0.5,0.4,0.6C281.1,334.7,280.9,334.4,280.8,334.3z" />
            <path d="M281.2,334.9c0.1,0.2,0.3,0.5,0.4,0.6C281.5,335.4,281.3,335,281.2,334.9z" />
            <path d="M282.6,337.2c0,0.1,0.1,0.2,0.2,0.3C282.7,337.5,282.6,337.3,282.6,337.2z" />
            <path d="M283.7,339.2c0,0.1,0.1,0.2,0.2,0.3C283.8,339.4,283.7,339.3,283.7,339.2z" />
            <path d="M284.8,341.1c0.1,0.2,0.3,0.5,0.4,0.7C285.1,341.7,284.9,341.3,284.8,341.1z" />
            <path d="M285.2,341.8c0.1,0.2,0.3,0.5,0.4,0.7C285.5,342.4,285.3,342,285.2,341.8z" />
            <path d="M286.6,344.2c0,0.1,0.1,0.2,0.1,0.3C286.7,344.5,286.6,344.3,286.6,344.2z" />
            <path d="M287.8,346.5c0.1,0.2,0.4,0.7,0.5,0.9l-0.5,0L287.8,346.5z" />
        </g>
        <g style="fill:#296AD9;">
            <path d="M-74.9,401.1c10.3-17.6,20.1-35.5,30.8-52.9c51.6,0.2,103.3-0.3,154.9,0.2l0.7,0.1
		c-26.1,0.8-52.3-0.2-78.4,0.4c-5,3.2-8.3,8.4-13.1,11.9C15.5,364,12.2,368.5,8,372c-5.9,4.4-10.3,10.4-16.4,14.7
		c-7,7.4-15,13.6-22,20.9c-5.3,4-9.7,9-14.6,13.5c-5.4,3.9-9.5,9.2-14.6,13.5c-0.1,0.1-0.4,0.3-0.5,0.5c-0.3,0.2-0.8,0.6-1.1,0.9
		c-0.1,0.1-0.4,0.3-0.5,0.4c-4,3.1-7,7.1-10.9,10.3c-0.1,0.1-0.4,0.3-0.5,0.4c-0.1,0.1-0.4,0.3-0.5,0.4
		c-5.7,4.7-10.3,10.6-16.2,14.9c-6,6-12.8,11.1-18.5,17.4c-8.4,6.9-15.7,15.1-24.4,21.8c2.2-4.7,5-9,7.5-13.5
		C-108.4,459-91.6,430-74.9,401.1z" />
            <path d="M-133.1,502.2c0.1-0.2,0.3-0.5,0.4-0.6l0,0.7L-133.1,502.2z" />
        </g>
        <g style="fill:#2A71E9">
            <path d="M111.4,348.5c30.8,0.1,61.5,0,92.3,0c28.1-0.2,56.2,0.4,84.3-0.3l0.6,0l0.4,0.1v0.1
		c-29.7,51.3-59.2,102.6-88.9,153.9c-110.9,0-221.9,0.1-332.8-0.1l0-0.7c8.7-6.6,16-14.8,24.4-21.8c5.7-6.3,12.5-11.4,18.5-17.4
		c6-4.4,10.5-10.3,16.2-14.9c0.1-0.1,0.4-0.3,0.5-0.4c0.1-0.1,0.4-0.3,0.5-0.4c3.9-3.1,6.9-7.2,10.9-10.3c0.1-0.1,0.4-0.3,0.5-0.4
		c0.3-0.2,0.8-0.7,1.1-0.9c0.1-0.1,0.4-0.3,0.5-0.5c5-4.3,9.2-9.6,14.6-13.5c4.9-4.4,9.3-9.4,14.6-13.5c7-7.3,15.1-13.5,22-20.9
		c6-4.3,10.4-10.3,16.4-14.7c4.2-3.5,7.5-8,11.9-11.2c4.8-3.5,8.1-8.7,13.1-11.9C59.1,348.2,85.3,349.3,111.4,348.5z" />
        </g>
        <g style="fill:#286EE6">
            <path d="M-60,435.1c0.1-0.1,0.4-0.3,0.5-0.5C-59.6,434.7-59.9,434.9-60,435.1z" />
            <path d="M-61.1,435.9c0.3-0.2,0.8-0.7,1.1-0.9C-60.3,435.3-60.8,435.7-61.1,435.9z" />
            <path d="M-61.6,436.3c0.1-0.1,0.4-0.3,0.5-0.4C-61.2,436-61.4,436.2-61.6,436.3z" />
            <path d="M-73,447c0.1-0.1,0.4-0.3,0.5-0.4C-72.6,446.7-72.9,446.9-73,447z" />
            <path d="M-73.5,447.5c0.1-0.1,0.4-0.3,0.5-0.4C-73.1,447.1-73.4,447.4-73.5,447.5z" />
        </g>
    </symbol>

    <symbol id="dropbox" viewBox="-141.9 223.3 125.9 117.1">
        <g style="fill:#007EE5" transform="matrix(1.25,0,0,-1.25,0,212.5)">
            <g transform="translate(76.1162,130.9785)">
                <path d="M-160-139.6l-29.6-19.3l20.5-16.4l29.9,18.4L-160-139.6z" />
            </g>
            <g transform="translate(46.4863,78.8198)">
                <path d="M-160-139.6l29.6-19.3l20.7,17.3l-29.9,18.4L-160-139.6z" />
            </g>
            <g transform="translate(96.8486,76.7798)">
                <path d="M-160-139.6l20.7-17.3l29.6,19.3l-20.5,16.4L-160-139.6z" />
            </g>
            <g transform="translate(147.2109,111.6328)">
                <path d="M-160-139.6l-29.6,19.3l-20.7-17.3l29.9-18.4L-160-139.6z" />
            </g>
            <g transform="translate(96.9092,73.0566)">
                <path d="M-160-139.6l-20.8-17.3l-8.9,5.8v-6.5l29.7-17.8l29.7,17.8v6.5l-8.9-5.8L-160-139.6z" />
            </g>
        </g>
    </symbol>
    <symbol id="file" viewBox="0 0 30.34 30.34">
        <g>
            <path d="M22.562,12.491c0,0,1.227-0.933,0.293-1.866c-0.934-0.933-1.842,0.271-1.842,0.271l-9.389,9.391
		c0,0-2.199,2.838-3.871,1.122c-1.67-1.718,1.121-3.872,1.121-3.872l12.311-12.31c0,0,2.873-3.165,5.574-0.466
		c2.697,2.7-0.477,5.579-0.477,5.579L12.449,24.173c0,0-4.426,5.113-8.523,1.015s1.066-8.474,1.066-8.474L15.494,6.209
		c0,0,1.176-0.982,0.295-1.866c-0.885-0.883-1.865,0.295-1.865,0.295L1.873,16.689c0,0-4.549,4.989,0.531,10.068
		c5.08,5.082,10.072,0.533,10.072,0.533l16.563-16.565c0,0,3.314-3.655-0.637-7.608s-7.607-0.639-7.607-0.639L6.543,16.728
		c0,0-3.65,2.969-0.338,6.279c3.312,3.314,6.227-0.39,6.227-0.39L22.562,12.491z" />
        </g>
    </symbol>
    <symbol id="link" viewBox="0 0 457.03 457.03">
        <g>
            <path d="M421.512,207.074l-85.795,85.767c-47.352,47.38-124.169,47.38-171.529,0c-7.46-7.439-13.296-15.821-18.421-24.465
		l39.864-39.861c1.895-1.911,4.235-3.006,6.471-4.296c2.756,9.416,7.567,18.33,14.972,25.736c23.648,23.667,62.128,23.634,85.762,0
		l85.768-85.765c23.666-23.664,23.666-62.135,0-85.781c-23.635-23.646-62.105-23.646-85.768,0l-30.499,30.532
		c-24.75-9.637-51.415-12.228-77.373-8.424l64.991-64.989c47.38-47.371,124.177-47.371,171.557,0
		C468.869,82.897,468.869,159.706,421.512,207.074z M194.708,348.104l-30.521,30.532c-23.646,23.634-62.128,23.634-85.778,0
		c-23.648-23.667-23.648-62.138,0-85.795l85.778-85.767c23.665-23.662,62.121-23.662,85.767,0
		c7.388,7.39,12.204,16.302,14.986,25.706c2.249-1.307,4.56-2.369,6.454-4.266l39.861-39.845
		c-5.092-8.678-10.958-17.03-18.421-24.477c-47.348-47.371-124.172-47.371-171.543,0L35.526,249.96
		c-47.366,47.385-47.366,124.172,0,171.553c47.371,47.356,124.177,47.356,171.547,0l65.008-65.003
		C246.109,360.336,219.437,357.723,194.708,348.104z" />
        </g>
    </symbol>
</svg>