<svg xmlns="http://www.w3.org/2000/svg" style="display: none;">
    <svg id="googleDrive" viewBox="-223 25 512 512">
        <path d="M33.4 221.2C5.7 173.1-22.1 125-49.9 76.9c-1.7-3-3.3-6.1-5.4-8.9l0.1 0 -0.1-0.4h-0.1v-0.5h-0.4l-0.2 0.5h0.1v0.5l0.6-0.1c0.4 4.3 1.3 8.4 2.3 12.5 -1-4.1-2-8.2-2.3-12.4l-0.7 0.1c-0.3 0.5-1.1 1.6-1.5 2.2 0 0-0.1 0.1-0.1 0.2l0.1-0.2c0 0 0 0.1 0.7-0.1l-0.9 1.6c-0.1 0.1-0.1 0.2-0.2 0.3l-1 1.8c-0.1 0.1-0.3 0.4-0.4 0.6 0 0.1-0.2 0.4-0.3 0.6l-1 1.7c-0.1 0.1-0.2 0.2-0.2 0.3l-0.9 1.7c-0.1 0.1-0.1 0.4-0.2 0.6 -0.3 0.5-1 1.6-1.4 2.2 -0.1 0.2-0.4 0.6-0.5 0.8l-0.8 1.2c-0.1 0.1-0.2 0.4-0.3 0.5l-0.8 1.6c-0.1 0.2-0.2 0.5-0.2 0.7 -0.4 0.5-1.1 1.7-1.5 2.2 -0.1 0.2-0.4 0.6-0.5 0.8l-0.8 1.3c0 0.1-0.1 0.3-0.2 0.4l-1 1.7c-0.1 0.2-0.3 0.5-0.4 0.7 -0.1 0.1-0.3 0.4-0.4 0.6l-1 1.7c-0.1 0.1-0.1 0.2-0.2 0.3l-0.9 1.6c-0.1 0.1-0.2 0.2-0.2 0.3l-1 1.8c-0.1 0.2-0.3 0.5-0.4 0.7s-0.3 0.5-0.4 0.7l-1 1.7c0 0.1-0.1 0.2-0.1 0.3l-0.9 1.7c-0.1 0.2-0.2 0.5-0.2 0.7 -0.4 0.5-1.1 1.6-1.5 2.2 -0.1 0.2-0.4 0.6-0.5 0.8l-0.7 1.1c-0.2 0.2-0.5 0.8-0.6 1.1l-0.5 1c-0.1 0.2-0.4 0.6-0.5 0.8 -0.2 0.2-0.5 0.6-0.6 0.8l-0.7 1c-0.1 0.2-0.4 0.6-0.5 0.8L-84 117c-0.1 0.2-0.3 0.7-0.4 0.9l-0.5 1c-0.1 0.2-0.4 0.6-0.5 0.8 -0.2 0.2-0.5 0.6-0.6 0.8l-0.7 0.9c-0.2 0.3-0.5 0.9-0.7 1.2l-0.5 1.1c-0.1 0.2-0.3 0.6-0.4 0.8 -0.4 0.5-1.1 1.6-1.4 2.2 -0.2 0.2-0.5 0.6-0.6 0.8l-0.8 1.2c-0.1 0.1-0.2 0.4-0.3 0.5l-0.9 1.7c-0.1 0.2-0.2 0.5-0.3 0.6l0.1 1.2c-0.1 0-0.1 0.1-0.2 0.2l-0.1-1c-0.3 0.5-0.8 1.5-1.2 2.1 -0.1 0.1-0.3 0.4-0.4 0.5l-0.5 0.8c-0.2 0.4-0.5 1.2-0.7 1.6l-0.5 1c-0.1 0.2-0.4 0.6-0.5 0.8 -0.2 0.2-0.5 0.6-0.6 0.8l-0.7 1c-0.1 0.2-0.4 0.6-0.5 0.8l-1 1.7c0 0.1-0.1 0.3-0.2 0.4l-0.7 1.3c-0.1 0.2-0.2 0.5-0.3 0.6 -0.4 0.7-1.2 2-1.6 2.7 -0.1 0.1-0.2 0.4-0.3 0.5l-0.7 1.2c-0.1 0.1-0.2 0.2-0.3 0.4 -0.1 0.1-0.2 0.2-0.2 0.3 0.1-0.1 0.1-0.2 0.2-0.3 0 0.1-0.1 0.1-0.1 0.2l-0.8 1.5c-0.2 0.2-0.4 0.6-0.5 0.8 -0.1 0.2-0.3 0.5-0.4 0.7l-1 1.7c-0.1 0.1-0.2 0.2-0.2 0.3l-0.9 1.7c-0.1 0.2-0.2 0.5-0.2 0.7 0 0-0.1 0.1-0.1 0.1 0-0.2 0.1-0.5 0.2-0.6 -0.1 0.1-0.2 0.4-0.2 0.6 -0.4 0.6-1 1.6-1.4 2.1 -0.1 0.2-0.4 0.6-0.5 0.8l-0.7 1.2c-0.1 0.1-0.2 0.4-0.3 0.5l-1 1.8c-0.1 0.2-0.3 0.5-0.4 0.7 -0.1 0.1-0.3 0.4-0.4 0.6l-1 1.7c-0.1 0.1-0.2 0.2-0.2 0.3l0 0c0 0 0 0 0 0l-1 1.7c0 0 0 0 0 0.1 0 0 0 0.1 0 0.1l0 0c0 0 0 0 0 0 -35.8 61.9-71.5 123.8-107.3 185.7 9 16.5 18.7 32.6 28 48.9 16.7 29 33.5 58 50.2 87 3.7 6 6.8 12.4 10.8 18.2 0.1-0.1 0.3-0.4 0.4-0.6 2.1-4.7 5-9 7.5-13.5 16.7-29 33.5-57.9 50.2-86.9 10.3-17.6 20.1-35.5 30.8-52.9 1.9-2.7 3.4-5.6 5.1-8.5 0 0 0-0.1 0-0.1 0 0 0.1-0.1 0.1-0.1 0 0-0.1 0.1-0.1 0.1 0-0.1 0.1-0.2 0.2-0.3 0 0.1-0.1 0.1-0.1 0.2 0.1-0.1 0.1-0.2 0.2-0.3 0 0 0 0 0 0 0-0.2 0.2-0.5 0.3-0.6l1-1.8c0.1-0.2 0.2-0.5 0.3-0.6l0.6-1.1c0.1-0.2 0.3-0.5 0.4-0.7 0.4-0.6 1.2-1.9 1.6-2.6 0.1-0.1 0.2-0.4 0.3-0.5l0.8-1.5c0-0.1 0.1-0.3 0.2-0.4l0.8-1.5c0.1-0.1 0.2-0.4 0.3-0.5 0.4-0.6 1.1-1.9 1.5-2.6 0.1-0.2 0.3-0.5 0.4-0.7l0.6-1c0.1-0.1 0.2-0.4 0.3-0.5 0.4-0.8 1.3-2.2 1.7-2.9 0.1-0.1 0.2-0.4 0.3-0.5l0.8-1.4c0.1-0.1 0.2-0.4 0.3-0.5l0.7-1.3c0.1-0.1 0.3-0.5 0.4-0.6 0.4-0.7 1.2-2 1.6-2.7 0.1-0.2 0.2-0.5 0.3-0.6l0.8-1.3c0.1-0.1 0.2-0.4 0.3-0.5l0.8-1.4c0.1-0.1 0.3-0.5 0.4-0.6 0.4-0.7 1.1-2 1.5-2.6 0 0 0 0 0 0 0 0.1-0.1 0.1-0.1 0.2 0.2-0.2 0.4-0.6 0.4-0.7 0 0 0 0 0 0 0-0.1 0.1-0.1 0.1-0.2l0.6-1c0.1-0.1 0.2-0.4 0.3-0.5 0.4-0.7 1.2-2.1 1.6-2.8 0.1-0.2 0.3-0.5 0.4-0.7l0.6-1c0.1-0.1 0.3-0.4 0.3-0.5l1-1.7c0-0.1 0.1-0.1 0.1-0.2 0.1-0.1 0.2-0.3 0.3-0.5 0 0 0 0 0-0.1 0.1-0.1 0.3-0.5 0.4-0.6l1-1.8c0.1-0.1 0.2-0.2 0.2-0.3l0.8-1.5c0-0.2 0.2-0.4 0.3-0.6l0.7-1.3c0.1-0.1 0.2-0.4 0.3-0.5 0.4-0.8 1.2-2.2 1.6-2.9 0 0 0.1 0 0.1-0.1 0 0 0 0.1 0 0.1 0-0.1 0.1-0.2 0.2-0.3 0 0-0.1 0-0.1 0.1 0 0 0-0.1 0-0.1l0.3-0.4c0-0.1 0.1-0.2 0.2-0.3 0.2-0.3 0.4-0.6 0.5-0.8 0.7-1.1 1.4-2.3 2.1-3.5 0-0.1 0-0.1 0-0.2C7.6 265.8 20.6 243.6 33.4 221.2z" fill="#0BA25E" />
        <path d="M288.1 354.4h0.3c-0.1-0.2-0.4-0.7-0.5-0.9v0.6h-0.4l0 0.2c-0.2-0.1-0.4-0.1-0.5-0.2v-0.5l-0.6-2.4c0-0.1-0.1-0.2-0.1-0.3l-1-1.7c-0.1-0.2-0.3-0.5-0.4-0.7 -0.1-0.2-0.3-0.5-0.4-0.7l-1-1.7c0-0.1-0.1-0.2-0.2-0.3l-1-1.7c0-0.1-0.1-0.2-0.2-0.3l-1-1.7c-0.1-0.2-0.3-0.5-0.4-0.6 -0.1-0.2-0.3-0.5-0.4-0.6l-1-1.8c-0.1-0.2-0.4-0.6-0.5-0.8l-0.7-1c-0.2-0.2-0.4-0.6-0.6-0.8 -0.1-0.2-0.3-0.6-0.5-0.8l-0.5-1c-0.1-0.2-0.3-0.6-0.4-0.8 -0.7-1.3-1.4-2.5-2.1-3.8 -0.1-0.2-0.3-0.5-0.4-0.6 -0.1-0.2-0.3-0.6-0.4-0.7l-0.9-1.6c-0.1-0.1-0.2-0.3-0.2-0.4l-0.9-1.6c0-0.1-0.1-0.2-0.2-0.3l-1-1.7c-0.1-0.2-0.3-0.5-0.4-0.6 -0.1-0.2-0.3-0.5-0.4-0.6l-1-1.8c-0.1-0.2-0.3-0.5-0.4-0.6l-0.6-1c-0.1-0.2-0.3-0.5-0.5-0.7 -0.4-0.6-1.3-2-1.8-2.6l-0.1-0.1 -0.1-0.2 -0.3-0.5c-0.2-0.5-0.6-1.4-0.8-1.8l-0.7-1c-0.1-0.2-0.4-0.6-0.5-0.8 -0.2-0.3-0.6-1-0.8-1.3l-0.6-0.9 -0.2-0.3 -0.1-0.3 -0.3-0.5c-0.1-0.3-0.4-1-0.6-1.4l-1-1.8c-0.1-0.2-0.3-0.5-0.4-0.7 -0.1-0.2-0.3-0.5-0.4-0.7l-1-1.7c0-0.1-0.1-0.2-0.2-0.3l-1-1.7c0-0.1-0.1-0.2-0.2-0.3l-1-1.7c-0.1-0.2-0.3-0.5-0.4-0.6 -0.1-0.2-0.3-0.5-0.4-0.7l-1-1.7c-0.1-0.1-0.2-0.3-0.2-0.4l-0.8-1.4c-0.1-0.1-0.2-0.4-0.3-0.5 -0.4-0.7-1.2-2-1.6-2.6 -0.1-0.1-0.2-0.4-0.3-0.5 -17.1-30-34.5-59.9-51.8-89.8 0-0.1 0-0.2 0.1-0.3 -11.9-20.7-23.8-41.3-35.8-61.9 -0.1-0.1-0.2-0.4-0.3-0.5 -1.2-2.2-2.5-4.3-3.7-6.5 -0.1-0.1-0.2-0.4-0.3-0.5 -1.3-2.2-2.5-4.4-3.8-6.6 0-0.1-0.1-0.2-0.2-0.3 -1.3-2.2-2.5-4.4-3.8-6.6 -0.1-0.1-0.2-0.4-0.3-0.5 -0.9-1.5-1.8-3.1-2.7-4.6 0-0.1-0.1-0.2-0.2-0.3 -4.9-8.6-9.8-17.2-14.8-25.7 -0.1-0.1-0.1-0.2-0.2-0.3 -2.6-4.5-5.2-9.1-7.8-13.6 -0.1-0.1-0.2-0.4-0.3-0.5 -0.6-1-1.1-2-1.6-3 -26.9-0.4-53.8 0-80.7-0.1 -32.5 0-65-0.1-97.5 0.1v0.5 0.4c2.1 2.8 3.7 5.9 5.5 8.9 27.8 48.1 55.6 96.2 83.3 144.3 0.6 1 1.2 2.1 1.8 3.1 0.1 0.1 0.2 0.4 0.3 0.5 0.4 0.7 1.1 2 1.5 2.7 0.1 0.1 0.2 0.3 0.3 0.5l0.8 1.5c0 0.1 0.1 0.3 0.2 0.3l1 1.8c0.1 0.2 0.3 0.5 0.4 0.6 0.1 0.2 0.3 0.5 0.4 0.7l1 1.6c0 0.1 0.2 0.3 0.2 0.4 0.6 1.1 1.3 2.3 2 3.4 0.1 0.2 0.3 0.5 0.3 0.6 0.4 0.7 1.2 2 1.5 2.6 0.1 0.2 0.3 0.4 0.3 0.6l0.9 1.5c0.2 0.3 0.6 1 0.8 1.3l0.3 0.5c0 0.1 0.1 0.3 0.2 0.3 0.4 0.8 1.3 2.4 1.8 3.2 0.2 0.3 0.6 0.8 0.8 1.1l0.3 0.5c0 0.1 0.1 0.3 0.2 0.3 0.9 1.7 1.8 3.4 2.8 5.1 0.2 0.3 0.6 0.8 0.8 1.1l0.3 0.5c0 0.1 0.1 0.3 0.2 0.3 0.4 0.7 1.2 2.1 1.6 2.9 0.1 0.1 0.3 0.5 0.4 0.6l0.6 1.1c0.1 0.2 0.3 0.5 0.4 0.7l0.8 1.5c0.1 0.2 0.3 0.5 0.4 0.7 0.1 0.2 0.3 0.5 0.4 0.6l1 1.8c0 0.1 0.1 0.2 0.2 0.3l1 1.7c0.1 0.1 0.2 0.4 0.3 0.5l0.6 1c0.1 0.2 0.3 0.5 0.4 0.7 0.4 0.7 1.3 2.2 1.7 2.9 0.2 0.3 0.5 0.9 0.7 1.1l0.3 0.5c0 0.1 0.2 0.3 0.2 0.3 0.5 0.7 1.3 2.1 1.8 2.8l0.1 0.1 0.1 0.1c0.6 1.3 1.2 2.6 1.9 3.9 0.1 0.2 0.3 0.4 0.3 0.6 0.1 0.2 0.3 0.5 0.4 0.7l1 1.6c0 0.1 0.2 0.3 0.2 0.4l0.7 1.2c0.3 0.1 0.5 0.2 0.8 0.3 12.8 22.3 25.8 44.3 38.3 66.7l0.7 0.1c30.8 0.1 61.5 0 92.3 0 2.3-3.7 7.9-4.5 8.8-9.1 1.2-4.6 0.3-9.5 0.6-14.3 0 0 0.1 0 0.1 0 -0.3 4.7 0.6 9.6-0.6 14.2 -0.9 4.7-6.5 5.4-8.8 9.1 28.1-0.2 56.2 0.3 84.3-0.3l-0.1-0.3h0.3L288.1 354.4z" fill="#F9C941" />
        <path d="M288.7 355.2h-0.6c-28.1 0.7-56.2 0.1-84.3 0.3 -30.8 0-61.4 0.1-92.2 0 0 0 0 0 0 0l-0.7-0.1c-51.6-0.5-103.3 0-154.9-0.2 -10.7 17.4-20.5 35.3-30.8 52.9 -16.7 28.9-33.5 57.9-50.3 87 -2.5 4.4-5.2 8.7-7.4 13.3 0 0-0.1 0-0.1 0.1v0.1c-0.1 0.1-0.3 0.4-0.4 0.6l0.4 0.1v-0.1c110.9 0.2 221.9 0.1 332.8 0.1 29.7-51.3 59.2-102.6 88.9-153.9v-0.1L288.7 355.2z" fill="#2A71E9" />
    </svg>
    <svg id="googleDriveClean" viewBox="-223 25 512 512">
            <path d="M33.4 221.2C5.7 173.1-22.1 125-49.9 76.9c-1.7-3-3.3-6.1-5.4-8.9l0.1 0 -0.1-0.4h-0.1v-0.5h-0.4l-0.2 0.5h0.1v0.5l0.6-0.1c0.4 4.3 1.3 8.4 2.3 12.5 -1-4.1-2-8.2-2.3-12.4l-0.7 0.1c-0.3 0.5-1.1 1.6-1.5 2.2 0 0-0.1 0.1-0.1 0.2l0.1-0.2c0 0 0 0.1 0.7-0.1l-0.9 1.6c-0.1 0.1-0.1 0.2-0.2 0.3l-1 1.8c-0.1 0.1-0.3 0.4-0.4 0.6 0 0.1-0.2 0.4-0.3 0.6l-1 1.7c-0.1 0.1-0.2 0.2-0.2 0.3l-0.9 1.7c-0.1 0.1-0.1 0.4-0.2 0.6 -0.3 0.5-1 1.6-1.4 2.2 -0.1 0.2-0.4 0.6-0.5 0.8l-0.8 1.2c-0.1 0.1-0.2 0.4-0.3 0.5l-0.8 1.6c-0.1 0.2-0.2 0.5-0.2 0.7 -0.4 0.5-1.1 1.7-1.5 2.2 -0.1 0.2-0.4 0.6-0.5 0.8l-0.8 1.3c0 0.1-0.1 0.3-0.2 0.4l-1 1.7c-0.1 0.2-0.3 0.5-0.4 0.7 -0.1 0.1-0.3 0.4-0.4 0.6l-1 1.7c-0.1 0.1-0.1 0.2-0.2 0.3l-0.9 1.6c-0.1 0.1-0.2 0.2-0.2 0.3l-1 1.8c-0.1 0.2-0.3 0.5-0.4 0.7s-0.3 0.5-0.4 0.7l-1 1.7c0 0.1-0.1 0.2-0.1 0.3l-0.9 1.7c-0.1 0.2-0.2 0.5-0.2 0.7 -0.4 0.5-1.1 1.6-1.5 2.2 -0.1 0.2-0.4 0.6-0.5 0.8l-0.7 1.1c-0.2 0.2-0.5 0.8-0.6 1.1l-0.5 1c-0.1 0.2-0.4 0.6-0.5 0.8 -0.2 0.2-0.5 0.6-0.6 0.8l-0.7 1c-0.1 0.2-0.4 0.6-0.5 0.8L-84 117c-0.1 0.2-0.3 0.7-0.4 0.9l-0.5 1c-0.1 0.2-0.4 0.6-0.5 0.8 -0.2 0.2-0.5 0.6-0.6 0.8l-0.7 0.9c-0.2 0.3-0.5 0.9-0.7 1.2l-0.5 1.1c-0.1 0.2-0.3 0.6-0.4 0.8 -0.4 0.5-1.1 1.6-1.4 2.2 -0.2 0.2-0.5 0.6-0.6 0.8l-0.8 1.2c-0.1 0.1-0.2 0.4-0.3 0.5l-0.9 1.7c-0.1 0.2-0.2 0.5-0.3 0.6l0.1 1.2c-0.1 0-0.1 0.1-0.2 0.2l-0.1-1c-0.3 0.5-0.8 1.5-1.2 2.1 -0.1 0.1-0.3 0.4-0.4 0.5l-0.5 0.8c-0.2 0.4-0.5 1.2-0.7 1.6l-0.5 1c-0.1 0.2-0.4 0.6-0.5 0.8 -0.2 0.2-0.5 0.6-0.6 0.8l-0.7 1c-0.1 0.2-0.4 0.6-0.5 0.8l-1 1.7c0 0.1-0.1 0.3-0.2 0.4l-0.7 1.3c-0.1 0.2-0.2 0.5-0.3 0.6 -0.4 0.7-1.2 2-1.6 2.7 -0.1 0.1-0.2 0.4-0.3 0.5l-0.7 1.2c-0.1 0.1-0.2 0.2-0.3 0.4 -0.1 0.1-0.2 0.2-0.2 0.3 0.1-0.1 0.1-0.2 0.2-0.3 0 0.1-0.1 0.1-0.1 0.2l-0.8 1.5c-0.2 0.2-0.4 0.6-0.5 0.8 -0.1 0.2-0.3 0.5-0.4 0.7l-1 1.7c-0.1 0.1-0.2 0.2-0.2 0.3l-0.9 1.7c-0.1 0.2-0.2 0.5-0.2 0.7 0 0-0.1 0.1-0.1 0.1 0-0.2 0.1-0.5 0.2-0.6 -0.1 0.1-0.2 0.4-0.2 0.6 -0.4 0.6-1 1.6-1.4 2.1 -0.1 0.2-0.4 0.6-0.5 0.8l-0.7 1.2c-0.1 0.1-0.2 0.4-0.3 0.5l-1 1.8c-0.1 0.2-0.3 0.5-0.4 0.7 -0.1 0.1-0.3 0.4-0.4 0.6l-1 1.7c-0.1 0.1-0.2 0.2-0.2 0.3l0 0c0 0 0 0 0 0l-1 1.7c0 0 0 0 0 0.1 0 0 0 0.1 0 0.1l0 0c0 0 0 0 0 0 -35.8 61.9-71.5 123.8-107.3 185.7 9 16.5 18.7 32.6 28 48.9 16.7 29 33.5 58 50.2 87 3.7 6 6.8 12.4 10.8 18.2 0.1-0.1 0.3-0.4 0.4-0.6 2.1-4.7 5-9 7.5-13.5 16.7-29 33.5-57.9 50.2-86.9 10.3-17.6 20.1-35.5 30.8-52.9 1.9-2.7 3.4-5.6 5.1-8.5 0 0 0-0.1 0-0.1 0 0 0.1-0.1 0.1-0.1 0 0-0.1 0.1-0.1 0.1 0-0.1 0.1-0.2 0.2-0.3 0 0.1-0.1 0.1-0.1 0.2 0.1-0.1 0.1-0.2 0.2-0.3 0 0 0 0 0 0 0-0.2 0.2-0.5 0.3-0.6l1-1.8c0.1-0.2 0.2-0.5 0.3-0.6l0.6-1.1c0.1-0.2 0.3-0.5 0.4-0.7 0.4-0.6 1.2-1.9 1.6-2.6 0.1-0.1 0.2-0.4 0.3-0.5l0.8-1.5c0-0.1 0.1-0.3 0.2-0.4l0.8-1.5c0.1-0.1 0.2-0.4 0.3-0.5 0.4-0.6 1.1-1.9 1.5-2.6 0.1-0.2 0.3-0.5 0.4-0.7l0.6-1c0.1-0.1 0.2-0.4 0.3-0.5 0.4-0.8 1.3-2.2 1.7-2.9 0.1-0.1 0.2-0.4 0.3-0.5l0.8-1.4c0.1-0.1 0.2-0.4 0.3-0.5l0.7-1.3c0.1-0.1 0.3-0.5 0.4-0.6 0.4-0.7 1.2-2 1.6-2.7 0.1-0.2 0.2-0.5 0.3-0.6l0.8-1.3c0.1-0.1 0.2-0.4 0.3-0.5l0.8-1.4c0.1-0.1 0.3-0.5 0.4-0.6 0.4-0.7 1.1-2 1.5-2.6 0 0 0 0 0 0 0 0.1-0.1 0.1-0.1 0.2 0.2-0.2 0.4-0.6 0.4-0.7 0 0 0 0 0 0 0-0.1 0.1-0.1 0.1-0.2l0.6-1c0.1-0.1 0.2-0.4 0.3-0.5 0.4-0.7 1.2-2.1 1.6-2.8 0.1-0.2 0.3-0.5 0.4-0.7l0.6-1c0.1-0.1 0.3-0.4 0.3-0.5l1-1.7c0-0.1 0.1-0.1 0.1-0.2 0.1-0.1 0.2-0.3 0.3-0.5 0 0 0 0 0-0.1 0.1-0.1 0.3-0.5 0.4-0.6l1-1.8c0.1-0.1 0.2-0.2 0.2-0.3l0.8-1.5c0-0.2 0.2-0.4 0.3-0.6l0.7-1.3c0.1-0.1 0.2-0.4 0.3-0.5 0.4-0.8 1.2-2.2 1.6-2.9 0 0 0.1 0 0.1-0.1 0 0 0 0.1 0 0.1 0-0.1 0.1-0.2 0.2-0.3 0 0-0.1 0-0.1 0.1 0 0 0-0.1 0-0.1l0.3-0.4c0-0.1 0.1-0.2 0.2-0.3 0.2-0.3 0.4-0.6 0.5-0.8 0.7-1.1 1.4-2.3 2.1-3.5 0-0.1 0-0.1 0-0.2C7.6 265.8 20.6 243.6 33.4 221.2z" />
            <path d="M288.1 354.4h0.3c-0.1-0.2-0.4-0.7-0.5-0.9v0.6h-0.4l0 0.2c-0.2-0.1-0.4-0.1-0.5-0.2v-0.5l-0.6-2.4c0-0.1-0.1-0.2-0.1-0.3l-1-1.7c-0.1-0.2-0.3-0.5-0.4-0.7 -0.1-0.2-0.3-0.5-0.4-0.7l-1-1.7c0-0.1-0.1-0.2-0.2-0.3l-1-1.7c0-0.1-0.1-0.2-0.2-0.3l-1-1.7c-0.1-0.2-0.3-0.5-0.4-0.6 -0.1-0.2-0.3-0.5-0.4-0.6l-1-1.8c-0.1-0.2-0.4-0.6-0.5-0.8l-0.7-1c-0.2-0.2-0.4-0.6-0.6-0.8 -0.1-0.2-0.3-0.6-0.5-0.8l-0.5-1c-0.1-0.2-0.3-0.6-0.4-0.8 -0.7-1.3-1.4-2.5-2.1-3.8 -0.1-0.2-0.3-0.5-0.4-0.6 -0.1-0.2-0.3-0.6-0.4-0.7l-0.9-1.6c-0.1-0.1-0.2-0.3-0.2-0.4l-0.9-1.6c0-0.1-0.1-0.2-0.2-0.3l-1-1.7c-0.1-0.2-0.3-0.5-0.4-0.6 -0.1-0.2-0.3-0.5-0.4-0.6l-1-1.8c-0.1-0.2-0.3-0.5-0.4-0.6l-0.6-1c-0.1-0.2-0.3-0.5-0.5-0.7 -0.4-0.6-1.3-2-1.8-2.6l-0.1-0.1 -0.1-0.2 -0.3-0.5c-0.2-0.5-0.6-1.4-0.8-1.8l-0.7-1c-0.1-0.2-0.4-0.6-0.5-0.8 -0.2-0.3-0.6-1-0.8-1.3l-0.6-0.9 -0.2-0.3 -0.1-0.3 -0.3-0.5c-0.1-0.3-0.4-1-0.6-1.4l-1-1.8c-0.1-0.2-0.3-0.5-0.4-0.7 -0.1-0.2-0.3-0.5-0.4-0.7l-1-1.7c0-0.1-0.1-0.2-0.2-0.3l-1-1.7c0-0.1-0.1-0.2-0.2-0.3l-1-1.7c-0.1-0.2-0.3-0.5-0.4-0.6 -0.1-0.2-0.3-0.5-0.4-0.7l-1-1.7c-0.1-0.1-0.2-0.3-0.2-0.4l-0.8-1.4c-0.1-0.1-0.2-0.4-0.3-0.5 -0.4-0.7-1.2-2-1.6-2.6 -0.1-0.1-0.2-0.4-0.3-0.5 -17.1-30-34.5-59.9-51.8-89.8 0-0.1 0-0.2 0.1-0.3 -11.9-20.7-23.8-41.3-35.8-61.9 -0.1-0.1-0.2-0.4-0.3-0.5 -1.2-2.2-2.5-4.3-3.7-6.5 -0.1-0.1-0.2-0.4-0.3-0.5 -1.3-2.2-2.5-4.4-3.8-6.6 0-0.1-0.1-0.2-0.2-0.3 -1.3-2.2-2.5-4.4-3.8-6.6 -0.1-0.1-0.2-0.4-0.3-0.5 -0.9-1.5-1.8-3.1-2.7-4.6 0-0.1-0.1-0.2-0.2-0.3 -4.9-8.6-9.8-17.2-14.8-25.7 -0.1-0.1-0.1-0.2-0.2-0.3 -2.6-4.5-5.2-9.1-7.8-13.6 -0.1-0.1-0.2-0.4-0.3-0.5 -0.6-1-1.1-2-1.6-3 -26.9-0.4-53.8 0-80.7-0.1 -32.5 0-65-0.1-97.5 0.1v0.5 0.4c2.1 2.8 3.7 5.9 5.5 8.9 27.8 48.1 55.6 96.2 83.3 144.3 0.6 1 1.2 2.1 1.8 3.1 0.1 0.1 0.2 0.4 0.3 0.5 0.4 0.7 1.1 2 1.5 2.7 0.1 0.1 0.2 0.3 0.3 0.5l0.8 1.5c0 0.1 0.1 0.3 0.2 0.3l1 1.8c0.1 0.2 0.3 0.5 0.4 0.6 0.1 0.2 0.3 0.5 0.4 0.7l1 1.6c0 0.1 0.2 0.3 0.2 0.4 0.6 1.1 1.3 2.3 2 3.4 0.1 0.2 0.3 0.5 0.3 0.6 0.4 0.7 1.2 2 1.5 2.6 0.1 0.2 0.3 0.4 0.3 0.6l0.9 1.5c0.2 0.3 0.6 1 0.8 1.3l0.3 0.5c0 0.1 0.1 0.3 0.2 0.3 0.4 0.8 1.3 2.4 1.8 3.2 0.2 0.3 0.6 0.8 0.8 1.1l0.3 0.5c0 0.1 0.1 0.3 0.2 0.3 0.9 1.7 1.8 3.4 2.8 5.1 0.2 0.3 0.6 0.8 0.8 1.1l0.3 0.5c0 0.1 0.1 0.3 0.2 0.3 0.4 0.7 1.2 2.1 1.6 2.9 0.1 0.1 0.3 0.5 0.4 0.6l0.6 1.1c0.1 0.2 0.3 0.5 0.4 0.7l0.8 1.5c0.1 0.2 0.3 0.5 0.4 0.7 0.1 0.2 0.3 0.5 0.4 0.6l1 1.8c0 0.1 0.1 0.2 0.2 0.3l1 1.7c0.1 0.1 0.2 0.4 0.3 0.5l0.6 1c0.1 0.2 0.3 0.5 0.4 0.7 0.4 0.7 1.3 2.2 1.7 2.9 0.2 0.3 0.5 0.9 0.7 1.1l0.3 0.5c0 0.1 0.2 0.3 0.2 0.3 0.5 0.7 1.3 2.1 1.8 2.8l0.1 0.1 0.1 0.1c0.6 1.3 1.2 2.6 1.9 3.9 0.1 0.2 0.3 0.4 0.3 0.6 0.1 0.2 0.3 0.5 0.4 0.7l1 1.6c0 0.1 0.2 0.3 0.2 0.4l0.7 1.2c0.3 0.1 0.5 0.2 0.8 0.3 12.8 22.3 25.8 44.3 38.3 66.7l0.7 0.1c30.8 0.1 61.5 0 92.3 0 2.3-3.7 7.9-4.5 8.8-9.1 1.2-4.6 0.3-9.5 0.6-14.3 0 0 0.1 0 0.1 0 -0.3 4.7 0.6 9.6-0.6 14.2 -0.9 4.7-6.5 5.4-8.8 9.1 28.1-0.2 56.2 0.3 84.3-0.3l-0.1-0.3h0.3L288.1 354.4z" />
            <path d="M288.7 355.2h-0.6c-28.1 0.7-56.2 0.1-84.3 0.3 -30.8 0-61.4 0.1-92.2 0 0 0 0 0 0 0l-0.7-0.1c-51.6-0.5-103.3 0-154.9-0.2 -10.7 17.4-20.5 35.3-30.8 52.9 -16.7 28.9-33.5 57.9-50.3 87 -2.5 4.4-5.2 8.7-7.4 13.3 0 0-0.1 0-0.1 0.1v0.1c-0.1 0.1-0.3 0.4-0.4 0.6l0.4 0.1v-0.1c110.9 0.2 221.9 0.1 332.8 0.1 29.7-51.3 59.2-102.6 88.9-153.9v-0.1L288.7 355.2z" />
    </svg>
    <svg id="dropbox" viewBox="-141.9 223.3 125.9 117.1">
        <g transform="matrix(1.25,0,0,-1.25,0,212.5)">
            <g transform="translate(76.1162,130.9785)">
                <path  d="M-160-139.6l-29.6-19.3l20.5-16.4l29.9,18.4L-160-139.6z" />
            </g>
            <g transform="translate(46.4863,78.8198)">
                <path d="M-160-139.6l29.6-19.3l20.7,17.3l-29.9,18.4L-160-139.6z" />
            </g>
            <g transform="translate(96.8486,76.7798)">
                <path d="M-160-139.6l20.7-17.3l29.6,19.3l-20.5,16.4L-160-139.6z" />
            </g>
            <g transform="translate(147.2109,111.6328)">
                <path d="M-160-139.6l-29.6,19.3l-20.7-17.3l29.9-18.4L-160-139.6z" />
            </g>
            <g transform="translate(96.9092,73.0566)">
                <path d="M-160-139.6l-20.8-17.3l-8.9,5.8v-6.5l29.7-17.8l29.7,17.8v6.5l-8.9-5.8L-160-139.6z" />
            </g>
        </g>
    </svg>
    <svg id="file" viewBox="0 0 30.34 30.34">
        <g>
            <path d="M22.562,12.491c0,0,1.227-0.933,0.293-1.866c-0.934-0.933-1.842,0.271-1.842,0.271l-9.389,9.391
		c0,0-2.199,2.838-3.871,1.122c-1.67-1.718,1.121-3.872,1.121-3.872l12.311-12.31c0,0,2.873-3.165,5.574-0.466
		c2.697,2.7-0.477,5.579-0.477,5.579L12.449,24.173c0,0-4.426,5.113-8.523,1.015s1.066-8.474,1.066-8.474L15.494,6.209
		c0,0,1.176-0.982,0.295-1.866c-0.885-0.883-1.865,0.295-1.865,0.295L1.873,16.689c0,0-4.549,4.989,0.531,10.068
		c5.08,5.082,10.072,0.533,10.072,0.533l16.563-16.565c0,0,3.314-3.655-0.637-7.608s-7.607-0.639-7.607-0.639L6.543,16.728
		c0,0-3.65,2.969-0.338,6.279c3.312,3.314,6.227-0.39,6.227-0.39L22.562,12.491z" />
        </g>
    </svg>
    <svg id="link" viewBox="0 0 457.03 457.03">
        <g>
            <path d="M421.512,207.074l-85.795,85.767c-47.352,47.38-124.169,47.38-171.529,0c-7.46-7.439-13.296-15.821-18.421-24.465
		l39.864-39.861c1.895-1.911,4.235-3.006,6.471-4.296c2.756,9.416,7.567,18.33,14.972,25.736c23.648,23.667,62.128,23.634,85.762,0
		l85.768-85.765c23.666-23.664,23.666-62.135,0-85.781c-23.635-23.646-62.105-23.646-85.768,0l-30.499,30.532
		c-24.75-9.637-51.415-12.228-77.373-8.424l64.991-64.989c47.38-47.371,124.177-47.371,171.557,0
		C468.869,82.897,468.869,159.706,421.512,207.074z M194.708,348.104l-30.521,30.532c-23.646,23.634-62.128,23.634-85.778,0
		c-23.648-23.667-23.648-62.138,0-85.795l85.778-85.767c23.665-23.662,62.121-23.662,85.767,0
		c7.388,7.39,12.204,16.302,14.986,25.706c2.249-1.307,4.56-2.369,6.454-4.266l39.861-39.845
		c-5.092-8.678-10.958-17.03-18.421-24.477c-47.348-47.371-124.172-47.371-171.543,0L35.526,249.96
		c-47.366,47.385-47.366,124.172,0,171.553c47.371,47.356,124.177,47.356,171.547,0l65.008-65.003
		C246.109,360.336,219.437,357.723,194.708,348.104z" />
        </g>
    </svg>
    <svg id="checkMark" viewBox="0 0 342.357 342.357">
        <polygon points="290.04,33.286 118.861,204.427 52.32,137.907 0,190.226 118.862,309.071 342.357,85.606 " />
    </svg>
    <svg id="post" viewBox="0 0 459 459">
        <g>
            <path d="M459,216.75L280.5,38.25v102c-178.5,25.5-255,153-280.5,280.5C63.75,331.5,153,290.7,280.5,290.7v104.55L459,216.75z" fill="#FFFFFF" />
        </g>
    </svg>
</svg>