<svg xmlns="http://www.w3.org/2000/svg" xmlns:xlink="http://www.w3.org/1999/xlink" width="40" height="38" viewBox="0 0 40 38">
    <defs>
        <path id="a" d="M0 .738h39.918v37.217H0z"/>
    </defs>
    <g fill="none" fill-rule="evenodd">
        <path fill="#A6C3ED" d="M3.999 25.056a.944.944 0 1 0 0 1.888.944.944 0 1 0 0-1.888"/>
        <g>
            <mask id="b" fill="#fff">
                <use xlink:href="#a"/>
            </mask>
            <path fill="#A6C3ED" d="M24.138 36.575c.16-2.651.72-5.337 1.519-7.146a.694.694 0 0 0-.346-.91.678.678 0 0 0-.898.347c-.868 1.97-1.475 4.871-1.636 7.71H18.69c.36-5.947 2.857-11.164 5.649-11.701 2.812.764 5.694.793 8.572.083 2.93.866 5.462 6.132 5.635 11.617H24.138zm-12.535-5.283v-2.527h7.462a19.904 19.904 0 0 0-.883 2.527h-6.58zM1.36 23.251h22.227c.058.118.115.235.177.35-1.533.435-2.934 1.815-4.04 3.816a.594.594 0 0 0-.186-.03H1.36V23.25zM29.024 2.116v9.774c-.128-.01-.259-.023-.391-.023-.41 0-.809.049-1.197.14V4.413a.684.684 0 0 0-.68-.689H3.628c-.374 0-.68.31-.68.689v17.46H1.36V2.116h27.664zm4.322 16.865c0 .832-.148 1.69-.417 2.513-.45.016-2.194.06-3.916-.004a1.38 1.38 0 0 1-1.008-.469c-.686-.754-.878-2.223-.832-3.252.081-1.93-1.123-2.41-2.054-2.597.864-1.179 2.118-1.926 3.514-1.926 2.6 0 4.713 2.572 4.713 5.735zm-7.975 4.727a.725.725 0 0 0-.098-.242c-.86-1.31-1.352-2.947-1.352-4.485 0-.91.179-1.769.49-2.533l.032.006c1.05.157 1.413.262 1.37 1.253-.028.659-.026 2.912 1.191 4.248a2.737 2.737 0 0 0 1.957.912c.697.028 1.386.037 1.999.037.537 0 1.008-.008 1.374-.015a7.967 7.967 0 0 1-.353.597.68.68 0 0 0-.106.29 15.496 15.496 0 0 1-6.504-.068zm-3.095-1.835c-.6-3.215-2.216-4.497-3.884-5.388.43-.798.677-1.712.677-2.587 0-2.383-1.79-4.323-3.99-4.323s-3.99 1.94-3.99 4.323c0 .867.241 1.772.665 2.566-1.628.947-3.429 2.062-3.897 5.41H4.309V5.1h21.768v7.437c-2.073 1.132-3.517 3.591-3.517 6.443 0 .957.167 1.945.468 2.892h-.752zm-9.752-4.268c.012-.005.02-.015.029-.021.678.72 1.547 1.194 2.527 1.194.975 0 1.843-.472 2.519-1.19.044.043.092.08.147.109 1.57.838 2.656 1.848 3.145 4.176H9.23c.418-2.593 1.754-3.373 3.294-4.268zm2.556-.204c-1.458 0-2.63-1.918-2.63-3.503 0-1.624 1.178-2.945 2.63-2.945 1.45 0 2.628 1.32 2.628 2.945 0 1.585-1.171 3.503-2.628 3.503zm18.376 6.285c.798-1.428 1.25-3.108 1.25-4.705 0-3.21-1.825-5.925-4.322-6.809V1.427a.683.683 0 0 0-.68-.689H.68a.683.683 0 0 0-.68.689v26.65c0 .379.304.688.68.688h9.561v2.527H6.123a.685.685 0 0 0-.681.69c0 .38.305.69.681.69h11.721a25.745 25.745 0 0 0-.547 4.573.684.684 0 0 0 .682.71h21.26a.684.684 0 0 0 .68-.687c.026-5.626-2.549-12.267-6.463-13.582z" mask="url(#b)"/>
        </g>
    </g>
</svg>
