<svg xmlns="http://www.w3.org/2000/svg" xmlns:xlink="http://www.w3.org/1999/xlink" width="40" height="38" viewBox="0 0 40 38">
    <defs>
        <path id="a" d="M0 .043h39.845V38H0z"/>
    </defs>
    <g fill="none" fill-rule="evenodd">
        <g>
            <mask id="b" fill="#fff">
                <use xlink:href="#a"/>
            </mask>
            <path fill="#A6C3ED" d="M38.483 30.408a.414.414 0 0 1-.416.412h-4.118v-5.61a.676.676 0 0 0-.68-.673h-6.35c-.376 0-.68.3-.68.672v5.611H21.25V13.766h16.817c.23 0 .416.184.416.41v16.232zM27.6 33.96h4.99v-8.079H27.6v8.079zm9.072 2.02v.672H23.064v-.673c0-.37.306-.672.68-.672H35.989a.68.68 0 0 1 .682.672zm-16.327 0c0-.371.305-.673.68-.673h.806c-.077.21-.125.435-.125.672v.673h-1.361v-.673zm-1.815-5.573V14.176c0-.226.187-.41.417-.41h.943V30.82h-.943a.414.414 0 0 1-.417-.412zM15.602 18.6c-3.04 0-5.397-3.68-5.397-6.846 0-.503.059-1.003.174-1.485a.62.62 0 0 0 .002-.291c.294-.323 2.012-.87 5.2-.87 3.246 0 4.972.566 5.218.885 0 .012.004.023.006.032a.635.635 0 0 0 .013.217c.121.49.184 1 .184 1.512 0 .217-.015.44-.038.664h-2.018a1.77 1.77 0 0 0-1.778 1.757v4.076a3.844 3.844 0 0 1-1.566.35zM15.58 7.764c-1.29 0-3.696.089-5.214.703V5.91c0-.431 1.791-1.233 5.214-1.233 1.463 0 2.869.163 3.865.448.993.287 1.352.625 1.352.785v2.556c-1.517-.614-3.924-.703-5.217-.703zm-.136-6.34l9.644 3.072-2.972 1.065c-.5-2.116-5.491-2.23-6.536-2.23-1.058 0-6.207.118-6.554 2.339L5.789 4.5l9.655-3.077zM3.371 14.3l.477-.785.476.785H3.37zm34.696-1.881H22.333a7.776 7.776 0 0 0-.179-2.43c0-.012.004-.025.004-.039V6.977l5.265-1.885a.673.673 0 0 0 .449-.646.679.679 0 0 0-.47-.629L15.652.077a.672.672 0 0 0-.415 0l-11.75 3.74a.68.68 0 0 0-.473.627.681.681 0 0 0 .152.43v7.146l-1.58 2.606a.675.675 0 0 0-.01.679.682.682 0 0 0 .594.342h3.356c.243 0 .47-.13.593-.342a.675.675 0 0 0-.01-.679L4.527 12.02V5.476l4.478 1.62V9.95c0 .054.007.105.02.154a7.662 7.662 0 0 0-.182 1.651c0 1.811.642 3.717 1.711 5.237-4.706.55-8.646 4.02-9.62 8.662a48.338 48.338 0 0 0-.926 7.121 4.858 4.858 0 0 0 1.357 3.661A5.096 5.096 0 0 0 5.032 38h9.416c2 0 3.628-1.611 3.628-3.59 0-1.98-1.628-3.59-3.628-3.59H8.323c.395-1.505.618-3.196.682-5.14a.675.675 0 0 0-.657-.695h-.023a.677.677 0 0 0-.68.652c-.07 2.204-.357 4.053-.875 5.65a.67.67 0 0 0 .1.603.684.684 0 0 0 .549.275h7.029c1.251 0 2.267 1.007 2.267 2.244 0 1.237-1.016 2.244-2.267 2.244H5.032a3.662 3.662 0 0 1-2.676-1.142 3.523 3.523 0 0 1-.989-2.66 46.69 46.69 0 0 1 .9-6.923c.916-4.378 4.844-7.566 9.381-7.665 1.099 1.026 2.45 1.685 3.954 1.685.53 0 1.054-.093 1.566-.258v10.718a1.77 1.77 0 0 0 1.778 1.757h7.294v1.796h-5.217a2.031 2.031 0 0 0-2.039 2.02v1.347c0 .37.304.672.678.672H37.35a.678.678 0 0 0 .681-.672V35.98c0-1.113-.915-2.02-2.04-2.02h-2.041v-1.795h4.118a1.77 1.77 0 0 0 1.778-1.757V14.176a1.77 1.77 0 0 0-1.778-1.757z" mask="url(#b)"/>
        </g>
        <path fill="#A6C3ED" d="M33.295 20.292h-6.592A.705.705 0 0 0 26 21c0 .392.315.708.703.708h6.592A.707.707 0 0 0 34 21a.707.707 0 0 0-.705-.708M33.295 17.292h-6.592A.706.706 0 0 0 26 18c0 .392.315.708.703.708h6.592a.708.708 0 1 0 0-1.416"/>
    </g>
</svg>
