<svg xmlns="http://www.w3.org/2000/svg" style="display: none;">
    <symbol id="tick" viewBox="5.775 6.862 51.282 49.643">
        <path d="M29.451,54.789l26.908-39.417c1.246-1.825,0.775-4.313-1.049-5.559l-3.304-2.255c-1.823-1.245-4.313-0.776-5.56,1.049
	L24.192,41.208l-9.77-6.972c-1.798-1.282-4.296-0.865-5.579,0.934l-2.324,3.256c-1.283,1.799-0.865,4.297,0.933,5.579L23.94,55.77
	C25.738,57.052,28.206,56.613,29.451,54.789z" />
    </symbol>
    <symbol id="emailIcon" viewBox="-49 205 512 384">
        <path d="M463,525c0,11.2-3.2,21.6-8.2,30.8L293.1,374.9L453,235c6.2,9.9,10,21.5,10,34V525z M207,407.8l222.5-194.7
	c-9.1-5-19.4-8.1-30.5-8.1H15c-11.1,0-21.4,3.1-30.5,8.1L207,407.8z M269,396l-51.5,45.1c-3,2.6-6.8,3.9-10.5,3.9s-7.5-1.3-10.5-3.9
	L145,396L-18.8,579.2c9.8,6.2,21.3,9.8,33.8,9.8h384c12.4,0,23.9-3.7,33.8-9.8L269,396z M-39,235c-6.2,9.9-10,21.5-10,34v256
	c0,11.2,3.1,21.6,8.2,30.8l161.6-180.9L-39,235z" />
    </symbol>

    <symbol id="fbIcon" viewBox="0 0 11.861 23.303">
        <path d="M11.861,8.323H7.594V6.243c0,0-0.239-1.978,1.144-1.978c1.563,0,2.811,0,2.811,0V0H6.763c0,0-4.005-0.017-4.005,4.005   c0,0.864-0.004,2.437-0.01,4.318H0v3.434h2.741c-0.016,5.46-0.035,11.545-0.035,11.545h4.888V11.757h3.226L11.861,8.323z" />
    </symbol>

    <symbol id="search" viewBox="-270.1 381.9 30.2 30.2">
        <path d="M-249.9,385.3c-4.6-4.6-12.1-4.6-16.7,0c-4.6,4.6-4.6,12.1,0,16.7c4.1,4.1,10.5,4.5,15.1,1.3c0.1,0.5,0.3,0.9,0.7,1.3
	l6.7,6.7c1,1,2.6,1,3.5,0c1-1,1-2.6,0-3.5l-6.7-6.7c-0.4-0.4-0.8-0.6-1.3-0.7C-245.4,395.8-245.8,389.5-249.9,385.3z M-252,400
	c-3.4,3.4-9,3.4-12.5,0c-3.4-3.4-3.4-9,0-12.5c3.4-3.4,9-3.4,12.5,0C-248.6,390.9-248.6,396.5-252,400z" />
    </symbol>

    <symbol id="menu" viewBox="0 114.701 612 523.601">
        <path d="M544,502.302H68c-37.4,0-68,30.6-68,68s30.6,68,68,68h476c37.4,0,68-30.6,68-68S581.4,502.302,544,502.302z" />
        <path d="M544,308.501H68c-37.4,0-68,30.6-68,68s30.6,68,68,68h476c37.4,0,68-30.6,68-68S581.4,308.501,544,308.501z" />
        <path d="M544,114.701H68c-37.4,0-68,30.6-68,68s30.6,68,68,68h476c37.4,0,68-30.6,68-68S581.4,114.701,544,114.701z" />
    </symbol>

    <symbol id="close" viewBox="-523.8 392.1 57.6 57.6">
        <path d="M-468.2,403.5l-17.4,17.4l17.4,17.4c2.6,2.6,2.6,6.8,0,9.4c-1.3,1.3-3,1.9-4.7,1.9c-1.7,0-3.4-0.6-4.7-1.9
	l-17.4-17.4l-17.4,17.4c-1.3,1.3-3,1.9-4.7,1.9c-1.7,0-3.4-0.6-4.7-1.9c-2.6-2.6-2.6-6.8,0-9.4l17.4-17.4l-17.4-17.4
	c-2.6-2.6-2.6-6.8,0-9.4c2.6-2.6,6.8-2.6,9.4,0l17.4,17.4l17.4-17.4c2.6-2.6,6.8-2.6,9.4,0C-465.6,396.7-465.6,400.9-468.2,403.5z" />
    </symbol>

    <symbol id="user" viewBox="0 0 512 512">
        <path id="user-icon" d="M407.448,360.474c-59.036-13.617-113.989-25.541-87.375-75.717
	c81.01-152.729,21.473-234.406-64.072-234.406c-87.231,0-145.303,84.812-64.072,234.406c27.412,50.482-29.608,62.393-87.375,75.717
	c-59.012,13.609-54.473,44.723-54.473,101.176h411.838C461.919,405.196,466.458,374.083,407.448,360.474z" />
    </symbol>

    <symbol id="document" viewBox="0 0 16 16">
        <path d="M14,2h-1V1c0-0.552-0.448-1-1-1H2C1.448,0,1,0.448,1,1v12c0,0.552,0.448,1,1,1h1v1c0,0.552,0.448,1,1,1h10
		c0.552,0,1-0.448,1-1V3C15,2.448,14.552,2,14,2z M2,13V1h10v12H2z M14,15H4v-1h8c0.552,0,1-0.448,1-1V3h1V15z" />
        <path d="M10.5,3h-5C5.224,3,5,3.224,5,3.5S5.224,4,5.5,4h5C10.775,4,11,3.776,11,3.5S10.775,3,10.5,3z" />
        <path d="M10.5,6h-7C3.224,6,3,6.224,3,6.5S3.224,7,3.5,7h7C10.775,7,11,6.776,11,6.5S10.775,6,10.5,6z" />
        <path d="M10.5,8h-7C3.224,8,3,8.224,3,8.5C3,8.775,3.224,9,3.5,9h7C10.775,9,11,8.775,11,8.5C11,8.224,10.775,8,10.5,8z" />
        <path d="M10.5,10h-7C3.224,10,3,10.225,3,10.5S3.224,11,3.5,11h7c0.275,0,0.5-0.225,0.5-0.5S10.775,10,10.5,10z" />
    </symbol>

    <symbol id="right" viewBox="-0.512 -0.719 14.875 23.25">
        <path d="M13.125,9.442L4.29,0.607c-0.813-0.812-2.139-0.812-2.945,0L0.607,1.344c-0.81,0.812-0.81,2.137,0,2.944l6.742,6.742
	l-6.742,6.741c-0.81,0.811-0.81,2.137,0,2.942l0.737,0.737c0.81,0.812,2.136,0.812,2.945,0l8.835-8.836
	c0.435-0.435,0.628-1.018,0.597-1.589C13.753,10.459,13.56,9.876,13.125,9.442z" />
    </symbol>

    <symbol id="noResults" viewBox="-177.9 309.2 172.7 159.5">
        <path id="smiley-sad-2-icon" d="M-99.2,363.9c-28.9,0-52.4,23.5-52.4,52.4c0,28.9,23.5,52.4,52.4,52.4c28.9,0,52.4-23.5,52.4-52.4
	C-46.8,387.3-70.3,363.9-99.2,363.9z M-99.2,458.5c-23.3,0-42.2-18.9-42.2-42.2c0-23.3,18.9-42.2,42.2-42.2
	c23.3,0,42.2,18.9,42.2,42.2C-57,439.6-75.9,458.5-99.2,458.5z M-113.6,397.3c-4.4,0-7.9,3.5-7.9,7.9s3.5,7.9,7.9,7.9
	c4.4,0,7.9-3.5,7.9-7.9C-105.7,400.9-109.2,397.3-113.6,397.3z M-83.9,397.3c-4.4,0-7.9,3.5-7.9,7.9s3.5,7.9,7.9,7.9
	c4.4,0,7.9-3.5,7.9-7.9C-76,400.9-79.5,397.3-83.9,397.3z M-72.7,436.4l-2.2,2.2c-8.9-5.4-14.6-7.8-23.7-7.8s-14.8,2.3-23.7,7.8
	l-2.2-2.2c4.7-6.7,14.4-14.9,26-14.9C-87.1,421.5-77.4,429.6-72.7,436.4z" />
            
        <path d="M-143.8,364.3v24.6c0,0,23.6-9.8,44.5-9.8c20.9,0,44.5,9.8,44.5,9.8v-25c0,0-22.5-11.9-44.9-11.9
	C-122,352.1-143.8,364.3-143.8,364.3z" />
        <path d="M-29.8,358.5L-29.8,358.5l8.8-4.8l-8.9-4.9l-12.9-7.2l-58.4-32.4l-76.8,43.9l29,13.2v-4.3c0,0,24.3-13.7,49.3-13.7
	s50,13.3,50,13.3v7.5l16-8.6" />
        <path d="M-34.5,355.2c0,0,3.2,21.7,4,23.4c0.5,1,1.2,2,1.2,2s-0.9,0.3-0.8,1.8c0.1,1.5,0.9,1.2,0.9,1.2s0.8,1.9,0,2.7
    c-0.8,0.8-1.1,7.1,0.2,9.4c1.3,2.3,0.8,4.1,1.3,5.1c0.6,1-0.6,1,0,2c0.5,1,0.8,0.9-0.3,1.7c-1,0.8-1.6,1.8-1.2,1.6
    c0.4-0.2,1.3-0.6-0.2,0.7c-1.6,1.3-0.7,1.3-0.3,1.1c0.4-0.2,1.1,0.1,0.9,0.9c-0.3,0.8-1.1,2.4-0.4,2.6c0.6,0.2,0,1.1-1.1,1.6
    c-1.1,0.5-3.3,2.6-3.2,3.2c0,0,1.1-1.1,1.7-0.9c0.6,0.2-2,2-1.1,2.3c0.9,0.3,0.4-1,1.5-1.5c1.1-0.5-1,2.4-0.1,2.6
    c0.9,0.3-0.2-1.6,1-2.5c1.1-0.9-0.3,2,0.4,2.6c0.7,0.5-0.2-1.1,0.6-2.4c0.7-1,2-1.8,2.4-2.7c0.1-0.9,0-1.5,0.1-0.7
    c0,0.2,0,0.5-0.1,0.7c0,0.6-0.2,1.4-0.5,1.9c-0.8,1.2-1.1,3.5-0.7,3.7c0.5,0.1-0.5-1.8,0.8-2.7c0.7-0.5,1.1-1.5,1.3-2.2
    c0.1-0.5,0.2-0.8,0.2-0.8s0,0.4-0.2,0.8c-0.1,0.9-0.3,2.3-0.1,3.5c0.3,1.9,1.3,2.4,1.3,2.4s-0.7-1.7-0.9-2.9
    c-0.1-1.3,0.2-1,0.6-2.3c0.4-1.4,0.7-1.4,1-0.3c0.3,1.1-0.2,2.5,0.8,2.8c0.5,0.1,1,0.2,1.2,0.1c0-0.1,0-0.2,0.1-0.3
    c0-0.1-0.1-0.1-0.2-0.2c-0.7-0.6-1.4-1.1-1-2.2c0.4-1.2,1-0.6,1.3,1.2c0.1,0.5,0,0.9,0,1.2c0.1,0.2,0.1,0.3-0.1,0.3
    c-0.1,0.6-0.2,1,0.7,1.4c1.5,0.7,0-0.4,0.3-1.3c0.3-0.9,0.1-0.9,0.1-2.1c0-1.2,1.3,3.5,1.9,4c0.7,0.5,2.1,1.4,2.1,1.4
    s-1.8-1.8-2.2-3c-0.2-0.7-0.2-1.2-0.2-1.7c-2.3-2.1-2.7-5.6-2.5-8.8c0-2.2,0.4-4.7,1.5-7.4c0,0-1.2,3.5-1.5,7.4
    c0,5.3,2.5,8.7,2.5,8.8c0-0.4-0.1-0.8-0.3-1.2c-0.6-1,1.9,0.8,2.1,2.2c0.2,1.4,1.7,2.9,1.7,2.9s-1.1-1.9-1.1-3.4
    c-0.1-1.5-1.7-2.6-1.7-2.6s2.2,1.1,2.5,2.5c0.3,1.5,2.3,2.5,2.2,2.3c-0.1-0.2-1.8-1.9-1.9-4c-0.1-2.1-2.4-3.8-2.4-3.8
    s-0.6-2.5-1.3-3.1c-0.6-0.5,2.6,0.4,4,2.3c1.4,1.9,3.8,2.8,4.9,3.9c1.1,1.2,2.5,2.2,2.5,2.2s0.8-0.6,0-1.3
    c-0.7-0.7,0.8-0.7,1.1-0.2c0.3,0.6,2,0.2,2,0.2s-1.2-0.2-1.6-0.8c-0.4-0.7,0.7-1,0.4-1.1c-0.3-0.1-1.5-0.8-1.7-1.5
    c-0.2-0.7,2.7-0.3,2.7-0.3s-1.2-1.4-2.6-1.1c-1.4,0.3-3.3-0.8-3.8-2.4c-0.5-1.6-2.2-2.1-2.2-2.1s1.6-0.9,2.5,0.7
    c0.9,1.7,3,3.4,3.4,3.2c0.3-0.2-1.4-0.9-2.2-2.4c-0.9-1.5-1.3-2.6-3-2.6c-1.7,0-3.2,0.5-3.9-0.5c-0.8-0.9-1.6-2.7-1.6-4
    c0-1.3,0.7-2.6-0.3-3.8c-1-1.2-0.3-3.1-1.3-4.9c-1-1.7-2-3.9-3-4.6c-1-0.7-1.7-0.6-1.7-1.8c0-1.2-0.3-1.9-0.1-2.6
    c0.3-0.8,0-1.7-0.4-2.3c-0.3-0.6-0.9-1.2-1.2-1.7c-0.3-0.6-1.4-4.8-1.6-5.7c-0.2-1-2.6-18.3-2.6-18.3 M-26.9,410c0,0,0.5-3.4,3-8
    c2.5-4.6-0.7-10.9-0.7-10.9c2.6,2.8,2.8,8.5,0.7,12C-25.9,406.6-26.9,410-26.9,410z M-26.3,393.3c0.3-1.6,0.8-3.3,1.8-4.9
    C-24.5,388.4-25.6,390.6-26.3,393.3c-0.7,4.1,0.3,7.7,0.3,7.7C-27.2,398.7-26.9,395.8-26.3,393.3z" />
        
    </symbol>

    <symbol id="back" viewBox="8.8 228.8 611.9 516.3">
        <path d="M8.8,487.3c0,33.4,27.4,60.8,60.8,60.8h343l-92.2,92.1c-25.5,25.5-27.4,64.6-2,88.2c23.5,23.5,62.7,21.5,88.2-2l194-194
		c25.5-25.5,27.4-64.6,2-88.2l-2-2l-2-2l-192-192c-25.5-25.5-64.6-25.5-88.2-2c-23.5,23.5-23.5,62.7,2,88.2l94.1,94.1H69.6
		C36.2,426.6,8.8,454,8.8,487.3z" />
    </symbol>

    <symbol id="inviteUser" viewBox="50 50.351 462 433.275">
        <path d="M431.27,322.559c-44.477,0.109-80.448,36.247-80.339,80.729c0.11,44.477,36.254,80.448,80.73,80.338
		c44.477-0.109,80.448-36.253,80.338-80.729C511.889,358.414,475.747,322.448,431.27,322.559z M480.997,417.6l-34.858,0.086
		l0.086,34.858l-26.923,0.067l-0.085-34.858l-34.864,0.086l-0.067-26.923l34.864-0.085l-0.086-34.858l26.922-0.067l0.086,34.858
		l34.858-0.086L480.997,417.6z" />
        <path d="M327.023,403.346c-0.055-22.315,6.897-43.009,18.776-60.008c-27.501-11.217-42.153-27.611-25.727-58.581
		c81.011-152.729,21.474-234.406-64.072-234.406c-87.23,0-145.303,84.812-64.071,234.406c27.411,50.482-29.608,62.394-87.375,75.718
		c-59.013,13.608-54.474,44.723-54.474,101.176h294.893C333.69,445.018,327.077,424.956,327.023,403.346z" />
    </symbol>

    <symbol id="attachment" viewBox="50 105.394 412 301.212">
        <path id="picture-attachment-icon" d="M462,287.12L360.232,388.889c-23.624,23.624-62.064,23.624-85.69,0
	c-23.624-23.625-23.624-62.066,0-85.689l99.963-99.961c17.557-17.557,46.125-17.559,63.682,0c17.559,17.557,17.559,46.125,0,63.684
	l-88.751,88.75c-11.433,11.434-30.036,11.434-41.47,0c-11.435-11.432-11.434-30.035,0.001-41.469l71.641-71.641l14.938,14.936
	l-71.642,71.643c-3.198,3.197-3.198,8.396,0,11.597c3.196,3.194,8.397,3.194,11.595,0l88.752-88.754c9.32-9.32,9.32-24.486,0-33.809
	c-9.32-9.32-24.486-9.32-33.809,0.002l-99.96,99.961c-15.39,15.387-15.391,40.426,0,55.814c15.389,15.389,40.427,15.389,55.815,0
	l101.767-101.768L462,287.12z M182.512,193.292c0-14.516-11.771-26.285-26.287-26.285c-14.518,0-26.287,11.77-26.287,26.285
	c0,14.52,11.771,26.287,26.287,26.287C170.74,219.579,182.512,207.812,182.512,193.292z M240.911,307.554
	c3.997-7.959,9.29-15.428,15.925-22.062l40.179-40.178l-33.748-51.18l-43.573,61.91l-23.681-24.406l-66.817,75.916H240.911z
	 M232.123,338.725H84.439V139.833h285.854v35.137c10.32-6.211,22.113-9.627,34.438-9.902v-59.674H50v267.771h186.195
	C232.498,362.036,231.138,350.302,232.123,338.725z" />
    </symbol>

    <symbol id="file" viewBox="316.8 -87.4 672.9 849.2">
        <path d="M653.2,761.8h283.6c29.2,0,52.9-23.7,52.9-52.9V21v-55.5c0-29.2-23.7-52.9-52.9-52.9H653.2h-94.3v17.5
	c0.2,1.8,0.3,3.7,0.3,5.6V51v29.6c0,41.1-33.4,74.5-74.5,74.5h-29.6H339.8c-1.5,0-3.1-0.1-4.6-0.2h-18.4v554
	c0,29.2,23.7,52.9,52.9,52.9h58L653.2,761.8L653.2,761.8z M663.9,582H479c-13.8,0-25-11.2-25-25s11.2-25,25-25h185
	c13.8,0,25,11.2,25,25S677.7,582,663.9,582z M848.9,454.4H479c-13.8,0-25-11.2-25-25s11.2-25,25-25h369.9c13.8,0,25,11.2,25,25
	S862.7,454.4,848.9,454.4z M479,268.9h369.9c13.8,0,25,11.2,25,25s-11.2,25-25,25H479c-13.8,0-25-11.2-25-25S465.2,268.9,479,268.9z" />
        <path d="M339.8,125.1h144.9c0.1,0,0.3,0,0.4,0c24.2-0.2,43.8-19.8,44-44c0-0.1,0-0.3,0-0.4v-145c0-13.4-11-22.3-22.4-22.3
	c-5.5,0-11,2-15.6,6.6L324,87.1C310,101.1,319.9,125.1,339.8,125.1z" />
    </symbol>

    <symbol id="info" viewBox="0 0 16 16">
        <path fill-rule="evenodd" d="m8,0c-4.418,0-8,3.582-8,8s3.582,8 8,8 8-3.582 8-8-3.582-8-8-8zm1,13h-2v-6h2v6zm0-8h-2v-2h2v2z" />
    </symbol>

    <symbol id="arrow" viewBox="10.8 175.2 576.3 509.2">
        <path d="M545,177.8L29.9,389.4c-11.5,5.1-19.1,15.3-19.1,28.1s6.4,24.2,17.8,29.3l504.9,234.6c11.5,5.1,25.5,3.8,34.4-5.1
	c8.9-8.9,12.8-22.9,7.7-34.4l-77.8-201.4c-2.5-7.7-2.5-16.6,0-24.2l86.7-197.6c5.1-11.5,2.5-25.5-6.4-34.4
	C570.5,175.2,557.8,172.7,545,177.8z" />
    </symbol>
    <symbol id="post" viewBox="0 0 24 24">
        <polygon points="2,21 23,12 2,3 2,10 17,12 2,14 "></polygon>
    </symbol>
    <symbol id="loading" viewBox="0 14 32 18" width="32" height="4" fill="#f20" preserveAspectRatio="none">
        <path opacity="0.8" transform="translate(21.4331 0)" d="M2 14 V18 H6 V14z">
            <animateTransform attributeName="transform" type="translate" values="0 0; 24 0; 0 0" dur="2s" begin="0" repeatCount="indefinite" keySplines="0.2 0.2 0.4 0.8;0.2 0.2 0.4 0.8" calcMode="spline" />
        </path>
        <path opacity="0.5" transform="translate(19.8224 0)" d="M0 14 V18 H8 V14z">
            <animateTransform attributeName="transform" type="translate" values="0 0; 24 0; 0 0" dur="2s" begin="0.1s" repeatCount="indefinite" keySplines="0.2 0.2 0.4 0.8;0.2 0.2 0.4 0.8" calcMode="spline" />
        </path>
        <path opacity="0.25" transform="translate(17.8416 0)" d="M0 14 V18 H8 V14z">
            <animateTransform attributeName="transform" type="translate" values="0 0; 24 0; 0 0" dur="2s" begin="0.2s" repeatCount="indefinite" keySplines="0.2 0.2 0.4 0.8;0.2 0.2 0.4 0.8" calcMode="spline" />
        </path>
    </symbol>
</svg>
