<?xml version="1.0" encoding="UTF-8"?>
<svg width="21px" height="22px" viewBox="0 0 21 22" version="1.1" xmlns="http://www.w3.org/2000/svg" xmlns:xlink="http://www.w3.org/1999/xlink">
    <!-- Generator: sketchtool 48.2 (47327) - http://www.bohemiancoding.com/sketch -->
    <title>A3DF6342-9821-4251-87F1-3E73D73E0D4C</title>
    <desc>Created with sketchtool.</desc>
    <defs></defs>
    <g id="Loading" stroke="none" stroke-width="1" fill="none" fill-rule="evenodd" transform="translate(-338.000000, -170.000000)">
        <path d="M357.212766,179.933713 L357.212766,171.697674 C357.212766,171.312359 356.912701,171 356.542553,171 C356.172405,171 355.87234,171.312359 355.87234,171.697674 L355.87234,179.933791 C354.8423,180.237814 354.085106,181.224762 354.085106,182.395349 C354.085106,183.563922 354.840881,184.552691 355.87234,184.856985 L355.87234,190.302326 C355.87234,190.687641 356.172405,191 356.542553,191 C356.912701,191 357.212766,190.687641 357.212766,190.302326 L357.212766,184.856907 C358.242806,184.552884 359,183.565935 359,182.395349 C359,181.226776 358.244226,180.238007 357.212766,179.933713 Z M349.170213,172.956969 L349.170213,171.697674 C349.170213,171.312359 348.870148,171 348.5,171 C348.129852,171 347.829787,171.312359 347.829787,171.697674 L347.829787,172.957047 C346.799747,173.261069 346.042553,174.248018 346.042553,175.418605 C346.042553,176.587177 346.798328,177.575946 347.829787,177.880241 L347.829787,190.302326 C347.829787,190.687641 348.129852,191 348.5,191 C348.870148,191 349.170213,190.687641 349.170213,190.302326 L349.170213,177.880163 C350.200253,177.57614 350.957447,176.589191 350.957447,175.418605 C350.957447,174.250032 350.201672,173.261263 349.170213,172.956969 Z M341.12766,184.119759 L341.12766,171.697674 C341.12766,171.312359 340.827595,171 340.457447,171 C340.087299,171 339.787234,171.312359 339.787234,171.697674 L339.787234,184.119837 C338.757194,184.42386 338,185.410809 338,186.581395 C338,187.749968 338.755774,188.738737 339.787234,189.043031 L339.787234,190.302326 C339.787234,190.687641 340.087299,191 340.457447,191 C340.827595,191 341.12766,190.687641 341.12766,190.302326 L341.12766,189.042953 C342.1577,188.738931 342.914894,187.751982 342.914894,186.581395 C342.914894,185.412823 342.159119,184.424054 341.12766,184.119759 Z" id="Filter-douments" fill="#320161" fill-rule="nonzero" transform="translate(348.500000, 181.000000) rotate(90.000000) translate(-348.500000, -181.000000) "></path>
    </g>
</svg>