<?xml version="1.0" encoding="UTF-8"?>
<svg width="13px" height="17px" viewBox="0 0 13 17" version="1.1" xmlns="http://www.w3.org/2000/svg" xmlns:xlink="http://www.w3.org/1999/xlink">
    <!-- Generator: sketchtool 46.2 (44496) - http://www.bohemiancoding.com/sketch -->
    <title>A79F9A98-7199-4ECF-AAF1-048456658E23</title>
    <desc>Created with sketchtool.</desc>
    <defs></defs>
    <g id="Screen-1280" stroke="none" stroke-width="1" fill="none" fill-rule="evenodd">
        <g id="Jobs" transform="translate(-509.000000, -369.000000)" fill-rule="nonzero" fill="#F49C20">
            <g id="Job-cell" transform="translate(328.000000, 241.000000)">
                <path d="M187.101747,128.000027 C185.011169,128.000149 183.06617,129.07049 181.94737,130.836502 C180.828569,132.602515 180.691717,134.818349 181.584703,136.708612 C181.707011,136.95814 181.847171,137.198515 182.00409,137.427862 L186.642518,144.385503 C186.744902,144.538332 186.916745,144.63005 187.100699,144.63005 C187.284653,144.63005 187.456496,144.538332 187.55888,144.385503 L192.172144,137.465607 C193.423494,135.59763 193.542041,133.191625 192.48038,131.209683 C191.41872,129.227742 189.350118,127.99332 187.101747,128.000027 L187.101747,128.000027 Z M187.101747,137.03154 C185.480397,137.03154 184.166034,135.717177 184.166034,134.095827 C184.166034,132.474477 185.480397,131.160113 187.101747,131.160113 C188.723097,131.160113 190.037461,132.474477 190.037461,134.095827 C190.037461,134.874426 189.728163,135.621137 189.17761,136.17169 C188.627057,136.722243 187.880347,137.03154 187.101747,137.03154 Z" id="Location-icon"></path>
            </g>
        </g>
    </g>
</svg>