<svg xmlns="http://www.w3.org/2000/svg" width="52" height="31" viewBox="0 0 52 31">
  <defs>
    <filter id="a" width="101.4%" height="106.7%" x="-.7%" y="-2.4%" filterUnits="objectBoundingBox">
      <feOffset dy="1" in="SourceAlpha" result="shadowOffsetOuter1"/>
      <feGaussianBlur in="shadowOffsetOuter1" result="shadowBlurOuter1" stdDeviation="1"/>
      <feColorMatrix in="shadowBlurOuter1" result="shadowMatrixOuter1" values="0 0 0 0 0 0 0 0 0 0 0 0 0 0 0 0 0 0 0.2 0"/>
      <feMerge>
        <feMergeNode in="shadowMatrixOuter1"/>
        <feMergeNode in="SourceGraphic"/>
      </feMerge>
    </filter>
  </defs>
  <g fill="none" fill-rule="nonzero" filter="url(#a)" transform="translate(-24 -35)">
    <path fill="#3293F6" d="M27.118 54.243c.329.326.756.62 1.216.816.46.196.954.294 1.48.294h8.876c.362 0 .658.13.888.359.23.228.362.554.362.88v.458a44.092 44.092 0 0 0 6.345-1.371v-.326c0-.523-.099-1.012-.296-1.469a3.76 3.76 0 0 0-.822-1.208 3.97 3.97 0 0 0-1.216-.815 3.74 3.74 0 0 0-1.48-.294h-8.876c-.362 0-.658-.13-.888-.36a1.256 1.256 0 0 1-.362-.88v-1.273a1.2 1.2 0 0 1 .362-.881c.23-.229.559-.36.888-.36h12.69v-3.785H29.814a3.74 3.74 0 0 0-1.48.294 3.61 3.61 0 0 0-1.216.816c-.329.326-.625.75-.822 1.207A3.665 3.665 0 0 0 26 47.814V51.6c0 .522.099 1.011.296 1.468.197.457.493.849.822 1.175z"/>
    <path fill="#FFF" d="M38.756 59.138H26v3.786h16.504a3.79 3.79 0 0 0 2.696-1.11c.329-.326.625-.75.822-1.207.197-.457.296-.947.296-1.469v-.816a40.577 40.577 0 0 1-7.562.816zM66.767 50.164a3.97 3.97 0 0 0-1.216-.816 4.68 4.68 0 0 0-.724-.229 36.845 36.845 0 0 1-4.898 3.688h.329c.361 0 .657.13.887.359.23.228.362.555.362.881v3.818a1.2 1.2 0 0 1-.362.882c-.23.228-.559.359-.887.359h-5.063c-.362 0-.658-.131-.888-.36a1.256 1.256 0 0 1-.362-.88v-1.893a36.592 36.592 0 0 1-3.748 1.37c-.855.261-1.71.49-2.597.686v1.077c0 .522.099 1.011.296 1.468.197.457.46.849.822 1.208.329.326.756.62 1.216.816.46.195.954.293 1.48.293h12.69a3.79 3.79 0 0 0 2.696-1.11c.329-.326.625-.75.822-1.207.197-.457.296-.946.296-1.468V52.84c0-.523-.099-1.012-.296-1.469a6.636 6.636 0 0 0-.855-1.207z"/>
    <path fill="#3293F6" d="M59.337 49.054h-4.142v2.774c1.446-.849 2.86-1.762 4.142-2.774zM53.912 52.546v-8.518h-6.345v11.26c2.236-.751 4.373-1.665 6.345-2.742z"/>
    <g fill="#FFF">
      <path d="M68.55 36.522c.07-.13.207-.294.275-.522-.206.065-.48.13-.48.359.069.033.069 0 .137 0 .035.065.035.13.035.196.034.032 0-.098.034-.033zM70.58 36.849c-.558.065-1.018-.229-1.413-.392.296.261 1.02.718 1.414.392zM71.114 38.905c-.096.163-.24.293-.336.456.144.196.336.457.432.686-.096-.425-.144-.849 0-1.306-.048.066-.192.098-.096.164-.048-.033-.048-.033 0 0z"/>
      <path d="M66.866 37.175c-.066.032-.066.065-.099.13.066.066.165 0 .197.033-.032.065-.131.228-.197.163.033.065-.033.13-.033.229.23-.13.526.032.822 0-.033.359.263.783.428 1.044-.066-.098-.033-.196 0-.261-.033 0 0 .065-.033.065 0-.065.033-.065.033-.098-.1-.293-.066-.62 0-.914-.033-.032-.066-.032-.066-.097.033-.033.033-.196-.033-.196.066.032.164.065.164-.033l-.098-.098c.033-.032.033-.065.098-.065.46.522 1.283.75 1.644 1.338.066 0 .165-.033.263-.033v.229c-.033 0-.131-.098-.164-.098.033.033.098.098.098.163-.065.065-.197-.098-.295-.065.263.75.756 1.338 1.216 1.925.099 0 .197-.032.296-.032 0-.098-.033-.229-.033-.327v.098c-.197-.522-.658-.914-.625-1.566-.065 0-.033.098-.065.098-.494-.196.131-1.11-.066-1.436-.23.098-.493.13-.723.195-.395-.228-.46-.913-1.085-.815.032-.098.164-.294.197-.294-.099 0-.099.163-.197.098-.033.098-.132.196-.066.359-.395 0-.493-.327-.625-.555-.23 0-.329.033-.427.163-.033-.098-.263-.228-.329-.196.099.164.23.294.329.425-.165.163-.493.195-.724.293.033.098.132.098.198.13z"/>
      <path d="M70.416 38.709c.1-.163.066-.522.198-.588.098.261.098.653.23.947.098-.229 0-.392.066-.555-.099-.033-.033-.229-.099-.196 0-.033.033-.033.033-.033-.165-.163-.099-.424-.296-.587 0 .392-.099.653-.132 1.012zM73.31 42.984c-.099-.033-.132.196-.165.13 0 .098.099.066.099.164-.197.359-.625.522-1.085.62 0 .032 0 .098-.033.195-2.104.098-4.504-.522-6.247-1.338-.131-.424-.526-1.077-.328-1.435.033.13.065.228.098.293 0-.13.099-.163.066-.293-.066-.033 0 .065-.033.065-.033-.065.099-.098.033-.163.132 0 .066.13.132.065.032.13-.066.033-.066.163.066.033 0-.065.033-.065.033.032 0 .065 0 .098 0-.033.033-.033.065-.033-.032.065 0 .033.033.065-.033.033-.098-.032-.098.033s-.033.065.033.098c-.033 0-.1.032-.132.032.033.196.164.229.395.229.263-.653.065-1.436.591-1.762 0 .098-.098.163-.065.26.46-.358.361-1.305.328-1.729.263.229.46.49.658.75 0 .033-.099 0-.099.033 0 .13.263.033.263.229-.164.13-.23.457-.164.652.033-.163-.033-.391.099-.424 0 .033-.066.065 0 .098.065-.098.065-.228.164-.261.131.098.362.228.526.261-.066-.065-.099-.163-.132-.228.033 0 .066 0 .066-.066-.033-.098-.197-.13-.23-.228.033 0 .066 0 .033-.033-.658-.326-1.118-1.24-2.038-1.011.032-.098.263-.229.098-.327-.131.098-.329.098-.493.098-.033-.032-.131-.098-.131-.163.164-.065.361-.163.526-.163 0-.13.197-.033.263-.065 0-.066.065-.066.032-.098a.33.33 0 0 1-.295-.033c-.033.033-.033.065-.099.033 0 .065-.033.098-.066.098 0-.033.033-.066 0-.098-.098.098-.197.228-.394.195-.033.066-.066.066-.066.131l.131.13-.065.131c.065.163.131.36.23.522.329-.098.69-.163.986-.326.165.065.165.359.099.555-.362.098-.625-.033-.954-.066.099.196.526.164.69.36-.427 0-.723-.164-.821-.36.033.066.066.098 0 .164-.165-.033-.263.13-.395.065-.065.065-.131.098-.131.196 0 .032.098.032.066.098-.066.032-.132.097-.132.163 0-.066 0-.13.033-.196-.164.065-.329.098-.427.196 0 .163.032.326.098.457.033-.033.099-.033.165-.066a.577.577 0 0 0 .164.13c-.033.066-.132.034-.099.131.954.131.198 1.306.362 1.959.131.522.657 1.011 1.348 1.174.099.164-.033.36-.033.555.033 0 .033-.032.099 0-.033.033-.066.065-.033.13-.066-.032-.066.033-.132.066-1.052-.685-1.413-1.958-1.84-3.035.032-.033 0-.065.032-.098-.099-.065-.033-.196-.066-.326.099-.066.165.065.263 0-.065-.098-.197-.13-.23-.229.033-.065 0-.098.066-.13-.132-.098-.23-.033-.362.032 0-.032-.033-.065-.033-.098 0 .033.033.066.033.131-.033 0-.033.033-.065.033-.066-.033-.066-.066-.1-.13-.196.782-.23 1.402-.295 2.186 1.02 1.11 2.367 2.056 3.748 2.904.033-.032.066-.065.066-.13.493.783 1.48.032 2.17 0 .032.098-.033.26.032.326 1.348-.457 2.598-1.567 3.321-2.48.066-.066.066-.163.033-.261.131-.098.066-.327.131-.425-.197.196-.23.261-.328.49zm-4.735 1.338c-.033.033.033.033.066.033-.033.032-.099 0-.131.032-.033-.13-.066-.196-.066-.359-.23-.163-.46-.359-.723-.457.23.033.493.196.657.327 0-.033-.033-.033 0-.066.164.196.46.327.592.523-.099.065-.263-.033-.395-.033zm1.151-.098c-.099 0-.23.033-.23.13h-.033c.033-.032-.066-.032-.099-.032h0c-.361-.229-.723-.522-1.183-.685.559.163 1.216.293 1.742.522-.065.032-.131.032-.23.032-.033 0 0 .033.033.033zm1.052.13c-.033 0 .033.033 0 .066-.263.098-.559.26-.953.163.033-.033.065-.033 0-.033.033-.032.033-.065.033-.098.164.131.361-.065.558-.065 0-.032-.032-.032 0-.065.066-.033.263-.065.362.033z"/>
      <path d="M73.671 40.993c-.066-.065.066-.163.033-.163 0 .033-.066 0-.099-.033 0 0 0-.032.033-.098-.033 0-.065 0-.065-.032h.065c-.098-.033-.033-.13-.065-.196-.033 0-.132-.163-.066-.196-.165-.26-.23-.62-.428-.881.066.326.066.816.165 1.077-.329-.228-.69.098-1.052-.033-.033 0-.066.066-.132.066-.065-.164-.296-.196-.394-.36-.066 0-.033.066-.033.099.329.163.329.522.625.75.098.033.131.033.197.065-.033-.065-.066-.065-.099-.13.066 0 .066-.033.099-.033-.033-.032-.066-.065-.099-.032 0-.098-.263-.098-.131-.229.197 0 .394-.065.559-.098.065-.032.032-.13.131-.098-.033.033.033.033.033.066-.033.032 0 .032 0 .065.131 0 .197.065.296.065.033-.065.033-.032.066-.065.032.033.032.065.032.065-.032.13.033.261.132.229-.033.065.033 0 .033.032 0 .098-.165.13-.066.229-.066.032-.099.065-.164.065 0-.033 0-.033-.033-.065-.066 0-.132 0-.165.032.066-.065-.098-.098.033-.13h-.065c.065-.065-.066-.163-.132-.098-.033.13.033.196 0 .326.066 0 .132-.098.164-.065-.065.13-.098.326-.263.326 0 .066-.032.066-.032.13-.132-.032-.1.066-.198 0 0 .099-.164 0-.164.131.066.066.131.066.23.066 0 .032-.033.098 0 .13h.066c.033 0 0-.032.033-.032s.098 0 .098.032c0 .065-.065 0-.065.033.032 0 .098.032.098 0 .132-.163.362-.49.395-.718.065 0 .098-.098.164-.098.033.196.099.522-.066.718 0-.033 0-.033-.033-.033 0 .098-.098.261-.032.36.032-.066.065 0 .098-.033.033-.294.197-.849.263-1.208-.033.033-.066.13-.098.163 0-.098.065-.163.098-.163zM72.027 42.853c.165-.098.066-.26 0-.424-.131-.033-.197.033-.263.098.132.033.296.098.165.196-.132-.196-.69-.163-.79.065.034 0 .034.033.066.033-.032-.033-.098 0-.032.032.032 0 .131.066.131.164h-.033c-.066 0-.197-.164-.131-.229-.066-.033-.066-.098-.099-.163.066-.033.197-.065.164-.163-.098.098-.263.065-.361.098 0 .098.164.032.164.098-.361.13-.92 0-1.348.065-.723-.163-1.578-.653-2.268-.947-.165.033-.395 0-.395-.195-.131-.066-.263-.294-.296-.49.033 0 .033.033.033.033-.033-.098.033-.196-.066-.261-.032.065.066.13.033.163 0-.065 0-.065-.065-.033-.033-.065.032-.032 0-.065-.428.065.296-.718.361-.816.033-.098.099-.163.099-.261a.688.688 0 0 1-.197.13c-.165.294-.395.62-.625.882.033.228-.099.554-.164.815.065 0 .032.033.065 0 0 .164.099.164.132.294.033 0 .066-.032.066 0 0 .033-.033.033-.033.065h.065c0 .066.066.098.033.164.165.098.46.293.526.554 0-.032.066 0 .066-.032.066.032.066.098.099.163 0-.098.066-.163.033-.196.098 0 .065-.163.164-.196.69.457 2.959.033 3.55.784-.032.032-.032.032-.032.098.033.032.098.065.033.065.263-.065.427-.294.624-.327-.033 0-.033 0-.033-.032.165 0 .198-.13.33-.163-.034.065 0 .065-.034.098.033 0 .066 0 .066.065-.033 0-.033-.033-.033 0 .033.032.066.032.066.065-.099-.033-.033-.033-.066.033-.033-.033-.131-.033-.164-.033.033 0 .033.065 0 .065.066 0 .066.066.033.098.098.098.296.261.361.294 0-.228-.032-.424.033-.653-.065-.032-.065 0-.164 0 .033-.032.066-.065.066-.098 0 .033 0 0 .033 0 .032-.032 0 0 .032 0z"/>
      <path d="M71.696 43.082H71.6c.048.047.096.047.096 0z"/>
    </g>
  </g>
</svg>
