<?xml version="1.0" encoding="utf-8"?>
<!-- Generator: Adobe Illustrator 22.0.1, SVG Export Plug-In . SVG Version: 6.00 Build 0)  -->
<svg version="1.1" id="Layer_1" xmlns="http://www.w3.org/2000/svg" xmlns:xlink="http://www.w3.org/1999/xlink" x="0px" y="0px"
	 viewBox="0 0 166.9 102.6" style="enable-background:new 0 0 166.9 102.6;" xml:space="preserve">
<style type="text/css">
	.st0{fill-rule:evenodd;clip-rule:evenodd;fill:#FFFFFF;}
	.st1{fill-rule:evenodd;clip-rule:evenodd;fill:#383838;}
	.st2{fill:#3293F6;}
	.st3{fill:#FFFFFF;}
</style>
<g>
	<g>
		<path class="st0" d="M136.9,9.4c0,0,1.3-0.5,1.4-0.5c0.2,0,0.5,0.2,0.5,0.2l0.2,0.1l0.4-0.2l0.8,0.1c0,0,3.2-2.1,3.4-2.1
			s1.3,0.8,1.3,0.8s1.3-1.4,1.4-1.3c0.1,0,0.9,0.5,0.9,0.5s0.2-0.2,0.3-0.1c0.1,0.1,0.3,0.5,0.3,0.5c0.1,0,0.8,0.6,0.8,0.8
			c0.1,0.2,1.6,1.9,1.6,1.9s1-0.3,1.2-0.3c0.2,0,0.4-0.2,0.6-0.3c0.2-0.1,0.9-0.5,1.1-0.7s0.4-0.5,0.4-0.5s0.4,0.2,0.8,0.3
			s1.5,0.3,1.5,0.3s1.5,0.7,1.8,1.1s1.3,2.3,1.5,2.7c0.2,0.4,0,1.5-0.1,1.7c-0.1,0.2-0.2,0.5-0.5,0.5c-0.2,0-0.6-0.1-0.6-0.1
			s0.7,0.7,0.9,1c0.3,0.3,0.6,0.5,0.4,0.8c-0.1,0.2-0.4,0.4-0.4,0.4s0.5,0.2,0.9,0.6c0.5,0.4,1.8,1.6,1.9,1.9
			c0.1,0.3,0.4,1.2,0.7,1.6s0.5,0.8,0.6,1c0.1,0.2,0.2,0.3,0,0.5s-1.4,1.9-1.4,2c-0.1,0.1,0,0.3,0,0.5c-0.1,0.2-0.1,0.6-0.2,0.7
			c-0.1,0.1-0.1,0.2-0.1,0.2s0.5,0.9,0.3,1.3c-0.2,0.4-0.2,0.5-0.2,0.5s-0.1,0.5-0.2,0.7s-0.3,0.8-0.3,0.8s0.5,0.2,0.7,0.2
			s0.4,0,0.4,0s0.2,0.2,0.3,0.4c0.1,0.2,0.2,0.1,0,0.4s-0.2,0.5-0.2,0.8s0,0.5-0.3,0.6s-0.7,0.4-0.9,0.8c-0.2,0.4-0.3,0.8-0.6,0.8
			s-1,0.4-1.4,0.7c-0.3,0.2-1.4,1.3-1.7,1.5c-0.2,0.2-1.2,1.7-1.5,2s-0.8,0.6-1.4,0.8c-0.7,0.2-1.8,0.4-1.9,0.5
			c-0.2,0-0.6,0.4-1.1,0.8c-0.5,0.4-0.8,0.6-1.2,0.8c-0.4,0.1-0.9,0.3-1,0.2c-0.1-0.2-0.1-0.6-0.1-0.8c0-0.2,0-0.2-0.1-0.3
			s-0.5,0-0.5,0l-1.8,0.6l-1.2,0c0,0-1.2,0.6-1.8,0.6c-0.5,0-0.9-0.1-1.1-0.3s-1-1.1-1-1.1s0,0.5-0.3,0.4c-0.3,0-0.6-0.2-0.6-0.2
			s-0.4,0-0.6,0s-2.1-1.9-3.1-2.5s-3.5-2.3-4.3-2.8c-0.7-0.4-1.3-1-1.5-1.3c-0.2-0.3-1.4-1.1-1.6-1.4c-0.2-0.3-0.9-1.1-1.1-1.2
			c-0.2-0.1-0.3-0.2-0.3-0.2s0.3-4.4,0.3-4.6s0.2-0.4,0.2-0.4s0.1-0.7,0.1-1.2s0.2-1.1,0.4-1.3c0.2-0.2,0.4-0.1,0.4-0.1l0.2,0.4
			c0,0,0.4-0.4,0.7-0.3c0.3,0,0.5,0,0.5,0l0.9-0.5l-0.5-0.5l-0.6,0.2c0,0-0.6-1.5-0.3-1.6c0.3-0.2,1.5-0.6,1.5-0.6s0.1-0.4,0.4-0.6
			c0.3-0.1,0.1-0.8,0.5-1c0.4-0.2,0.9-0.3,0.9-0.3s-0.7-1.5-0.7-1.6s0-0.2,0.1-0.3c0.1-0.1,0.1-0.2,0.1-0.2l-0.5-0.5
			c0,0,0.4-0.6,0.5-0.7c0.1-0.1,0.1-0.6,0.1-0.7c0-0.1,0.7-1.2,1.1-1.9c0.5-0.6,1.4-2.1,1.8-2.4C136.7,9.6,136.9,9.4,136.9,9.4z"/>
		<g>
			<g>
				<g>
					<path class="st1" d="M144.9,7.5c0.2,0.1,0.6,0.2,0.6,0.4c0.2,0.1,0.2-0.2,0.3,0c-0.6,0.6-1.9,1.1-2.9,0.9
						C143.5,8.3,144.3,7.8,144.9,7.5z"/>
				</g>
				<g>
					<path class="st1" d="M144.3,10.5c0.1-0.2,0-0.4-0.1-0.6c-0.1,0-0.2,0.1-0.4,0c0-0.8,0.9-1,1.5-1.2c-0.1,0.7-0.6,1.2-0.8,1.7
						C144.3,10.1,144.5,10.5,144.3,10.5z"/>
				</g>
				<g>
					<path class="st1" d="M158.6,15.8c0.3-0.2,0.6,0.1,0.6,0.3c-0.2,0.1-0.2,0.4-0.4,0.5c-0.8-0.4-1.3-0.9-1.5-1.7
						C158,14.5,158,15.6,158.6,15.8z"/>
				</g>
				<g>
					<path class="st1" d="M136.4,13.4c-0.1,0.7-0.9,1.3-1.4,1.4c0.1-0.4,0.7-0.5,0.8-0.9C136,13.9,136.1,13.6,136.4,13.4z"/>
				</g>
				<g>
					<path class="st1" d="M154.2,22c0.2,0,0,0.1,0,0.3c0.1,0.4,0.9,0.2,1.1,0.6c-0.2,0.5-0.9,0.2-1.4,0.3c-0.1-0.3-0.1-0.6-0.2-0.9
						C153.8,22.1,154,22.3,154.2,22z"/>
				</g>
				<g>
					<path class="st1" d="M144.9,10.3c-0.1,0-0.5,0.5-0.6,0.9c2-0.4,2.2,1.9,3.5,2.6c0.8-0.2,1.7-0.3,2.4-0.6c0.7,1-1.4,4,0.2,4.6
						c0.2,0,0.1-0.3,0.2-0.3c-0.1,2.1,1.4,3.4,2,5.1c0.1-1.1-0.6-2.2-1-3.1c0.3-0.5,0.6-0.9,0.8-1.5c0-0.1-0.1-0.1-0.1,0
						c-0.1-0.2,0.2-0.4,0.3-0.6c-0.4,2-0.1,4,0.2,5.9c-0.3,0-0.6,0.1-1,0.1c-1.5-1.9-3.1-3.8-3.9-6.3c0.4-0.2,0.7,0.3,1,0.2
						c-0.1-0.2-0.2-0.3-0.4-0.5c0.2,0,0.5,0.3,0.6,0.3c0-0.3,0-0.5,0-0.8c-0.3-0.1-0.6,0-0.8,0.1c-1.2-2-3.8-2.7-5.3-4.4
						c-0.1,0-0.2,0.1-0.3,0.2c0.1,0.1,0.2,0.2,0.3,0.3c-0.1,0.3-0.4,0.2-0.5,0.1c0.2,0.1,0.2,0.6,0.1,0.7c0,0.1,0.1,0.2,0.2,0.3
						c-0.2,0.9-0.3,2,0,2.9c0,0.1-0.2,0.1-0.1,0.3c0.1,0,0.1-0.2,0.1-0.2c-0.1,0.2-0.2,0.5,0,0.8c-0.5-0.9-1.5-2.2-1.4-3.4
						c-0.9,0-1.8-0.5-2.6,0c-0.1-0.3,0.2-0.4,0.1-0.7c0.2,0.2,0.5-0.3,0.6-0.5c-0.2-0.1-0.5,0.1-0.7-0.1c0.1-0.2,0.1-0.3,0.4-0.4
						c-0.2-0.1-0.5-0.1-0.7-0.3c0.7-0.4,1.7-0.4,2.3-1c-0.3-0.5-0.8-0.9-1-1.4c0.3-0.2,1,0.3,1.1,0.6c0.4-0.4,0.7-0.6,1.4-0.5
						c0.4,0.8,0.7,1.8,2,1.8c-0.2-0.5,0.2-0.8,0.2-1.1C144.6,10.8,144.6,10.3,144.9,10.3z"/>
				</g>
				<g>
					<path class="st1" d="M151.8,16.1c0.2,0,0,0.5,0.3,0.7c-0.3,0.5,0.1,1.1-0.3,1.8c-0.4-1-0.4-2.3-0.7-3.1
						c-0.4,0.2-0.3,1.4-0.6,1.9c0.1-1.2,0.4-2,0.5-3.4c0.6,0.5,0.5,1.3,0.9,1.9C151.9,16,151.9,16,151.8,16.1z"/>
				</g>
				<g>
					<g>
						<path class="st1" d="M136,14.3c0,0.1,0,0.2,0,0.3c0.2,0,0.2-0.1,0.2-0.3c0.2,0.1,0.2,0,0.4-0.1c0.2,0.1,0.7,0.1,0.9,0.1
							c0.1,0.2-0.2,0.1-0.1,0.4c-0.2,0.1-0.8-0.1-0.8,0.3c-0.5,0-1.2,0.3-1.7,0.5c-0.1,0.2,0.2,0.4,0.4,0.5c0.6-0.1,1.2-0.1,1.6-0.4
							c0.5,0.4-0.2,0.7-0.4,1.1c2.9-0.8,4.4,2.2,6.6,3.3c0,0.1-0.1,0.1-0.2,0.1c0.1,0.4,0.7,0.4,0.7,0.8c0,0.2-0.1,0.1-0.2,0.2
							c0.2,0.2,0.3,0.5,0.5,0.8c-0.5-0.1-1.2-0.5-1.7-0.9c-0.3,0.1-0.4,0.6-0.5,0.9c-0.2,0,0-0.2,0-0.3c-0.4,0.1-0.2,0.9-0.3,1.3
							c-0.3-0.7-0.1-1.8,0.5-2.1c0.1-0.6-0.8-0.3-0.8-0.7c0-0.2,0.3,0,0.3-0.1c-0.6-0.9-1.3-1.7-2.2-2.4c0.1,1.4,0.5,4.4-1.1,5.6
							c-0.1-0.3,0.2-0.5,0.2-0.8c-1.7,1.1-1.1,3.6-1.9,5.8c-0.7-0.1-1.1-0.2-1.2-0.8c0.1,0.1,0.3,0,0.4-0.1
							c-0.1-0.1-0.1-0.1-0.1-0.4c0-0.2,0.2,0,0.4-0.1c-0.1-0.1-0.3,0-0.1-0.2c-0.1,0-0.2,0-0.2,0.1c-0.1-0.1,0-0.2,0-0.3
							c-0.2,0,0.1,0.2-0.1,0.2c0-0.4,0.3-0.1,0.2-0.5c-0.2,0.3,0-0.2-0.4-0.2c0.2,0.2-0.2,0.3-0.1,0.5c0.2,0-0.1-0.3,0.1-0.2
							c0,0.4-0.2,0.5-0.2,0.9c-0.1-0.2-0.2-0.5-0.3-1c-0.6,1.3,0.6,3.3,1.1,4.7c5.5,2.6,13.3,4.6,20.1,4.3c0.1-0.3,0.1-0.5,0.1-0.6
							c1.5-0.4,2.9-0.9,3.5-2c0.1-0.4-0.3-0.3-0.3-0.6c0.2,0.2,0.2-0.5,0.6-0.4c0.3-0.7,0.4-1,0.9-1.5c-0.3,0.3-0.1,1.1-0.5,1.4
							c0.1,0.4,0.1,0.7-0.1,0.9c-2.3,3-6.4,6.6-10.7,8.1c-0.2-0.2,0-0.8-0.2-1.1c-2.3,0.1-5.5,2.5-7,0c0,0.2-0.1,0.3-0.2,0.4
							c-4.4-2.7-8.8-5.8-12.1-9.4c0.2-2.6,0.3-4.6,0.9-7.1c0.2,0.2,0.1,0.3,0.4,0.4c0.1,0,0.1-0.1,0.2-0.1c0-0.1-0.1-0.3-0.1-0.4
							c0.1,0.1,0.2,0.1,0.1,0.3c0.4-0.3,0.8-0.4,1.2-0.1c-0.1,0.2-0.1,0.3-0.2,0.5c0.2,0.3,0.6,0.4,0.7,0.8c-0.3,0.2-0.6-0.2-0.9,0
							c0.1,0.4-0.1,0.9,0.2,1c-0.1,0.1-0.1,0.2-0.1,0.3c1.3,3.4,2.6,7.6,5.9,9.8c0.1-0.1,0.1-0.3,0.4-0.2c-0.1-0.2,0-0.3,0.1-0.4
							c-0.1-0.1-0.2,0-0.3,0c0-0.6,0.4-1.3,0.1-1.8c-2.2-0.5-3.9-2.2-4.3-3.8c-0.6-2.1,1.9-5.9-1.2-6.4c0-0.4,0.3-0.3,0.4-0.5
							c-0.2-0.2-0.3-0.3-0.5-0.5c-0.2,0.1-0.4,0.1-0.5,0.2c-0.2-0.4-0.3-0.9-0.3-1.5c0.4-0.3,0.9-0.5,1.4-0.6
							c-0.1,0.2-0.2,0.5-0.2,0.7c0-0.2,0.3-0.3,0.5-0.5c0.1-0.2-0.2-0.2-0.2-0.3c0.1-0.3,0.3-0.4,0.4-0.6c0.5,0.2,0.8-0.3,1.3-0.2
							c0.2-0.2,0.1-0.3,0-0.5c0.3,0.7,1.2,1.2,2.6,1.2c-0.5-0.6-1.8-0.5-2.2-1.1c1,0.1,1.9,0.5,3.1,0.2c0.2-0.6,0.2-1.5-0.3-1.8
							c-0.9,0.5-2.1,0.7-3.2,1c-0.3-0.5-0.5-1.1-0.7-1.7c0.1-0.2,0.1-0.2,0.2-0.4c-0.1-0.2-0.3-0.3-0.5-0.5c0.1-0.1,0.2-0.2,0.3-0.4
							C135.4,15.1,135.7,14.7,136,14.3z M144.2,34.7c0,0.5,0.1,0.7,0.2,1.2c0.1-0.1,0.3,0,0.4-0.1c-0.1,0-0.3,0-0.2-0.1
							c0.3,0,1,0.3,1.2,0.1c-0.5-0.7-1.4-1-1.9-1.7c-0.1,0.1,0,0.1,0,0.2c-0.5-0.5-1.3-0.9-2.1-1.1
							C142.7,33.6,143.4,34.1,144.2,34.7z M147.4,35.8c0-0.1,0.1,0,0.1,0c0-0.3,0.4-0.4,0.7-0.4c-0.1,0-0.2-0.1-0.1-0.1
							c0.3,0,0.5,0.1,0.8-0.1c-1.7-0.7-3.9-1.2-5.7-1.7c1.5,0.6,2.7,1.6,4,2.3c-0.1-0.1-0.1,0-0.1-0.1
							C147.2,35.6,147.5,35.6,147.4,35.8z M151.7,35.6c-0.3-0.3-1-0.1-1.2-0.1c-0.1,0.1,0,0.1,0,0.2c-0.7,0-1.3,0.6-1.8,0.2
							c0,0.1,0,0.2-0.1,0.3c0.2,0,0.1,0,0,0.1c1.2,0.3,2.1-0.2,3-0.5C151.7,35.8,151.5,35.7,151.7,35.6
							C151.7,35.7,151.7,35.7,151.7,35.6z"/>
					</g>
				</g>
				<g>
					<path class="st1" d="M160.8,23.8c0,0.1,0.2,0,0.2,0.1c0,0.2,0,0.2-0.1,0.3c0,0,0.2,0.2,0.3,0.1c0,0-0.3,0.3-0.1,0.5
						c-0.2,0.1-0.3,0.3-0.2,0.5c0.1-0.2,0.3-0.5,0.3-0.6c-0.2,1.1-0.8,2.9-0.8,3.9c-0.1,0.1-0.2-0.1-0.3,0.1
						c-0.2-0.3,0.2-0.8,0.1-1.1c0.1,0,0.1,0.1,0.1,0.2c0.5-0.6,0.3-1.6,0.2-2.3c-0.3,0-0.3,0.3-0.5,0.3c-0.1,0.8-0.8,1.9-1.3,2.4
						c0,0.1-0.2,0-0.3,0c0-0.1,0.2,0.1,0.2-0.1c0-0.1-0.2-0.1-0.3-0.1c-0.1,0,0,0.1-0.1,0.1c-0.1,0-0.1,0-0.2,0
						c-0.1-0.1,0-0.2,0-0.4c-0.4,0-0.6-0.1-0.8-0.2c0-0.4,0.5-0.1,0.6-0.4c0.3,0.2,0.2-0.2,0.6,0c0-0.2,0.1-0.2,0.1-0.4
						c0.5-0.1,0.6-0.7,0.9-1.1c-0.1-0.1-0.4,0.2-0.6,0.2c0.1-0.4-0.1-0.7,0-1.1c0.3-0.1,0.6,0.2,0.4,0.4c0.1,0,0.2,0,0.2,0
						c-0.4,0,0.1,0.2-0.1,0.4c0.1-0.1,0.3-0.1,0.5-0.1c0,0.1,0.1,0.1,0.1,0.2c0.2-0.1,0.3-0.2,0.5-0.3c-0.3-0.2,0.2-0.4,0.2-0.7
						c0-0.1-0.1,0.1-0.1-0.1c-0.3,0.2-0.6-0.3-0.5-0.7c-0.1,0,0-0.1-0.2-0.2c0,0.1-0.1,0-0.2,0.2c-0.4,0-0.6-0.2-1-0.3
						c0.1-0.1-0.1-0.2,0-0.2c0-0.1-0.2,0-0.1-0.2c-0.2,0-0.2,0.3-0.4,0.4c-0.5,0-1.2,0.3-1.8,0.3c-0.5,0.4,0.4,0.5,0.4,0.8
						c0.2-0.1,0.2,0,0.4,0.1c-0.1,0.1-0.1,0.2-0.3,0.1c0.1,0.1,0.2,0.2,0.3,0.4c-0.2-0.1-0.4-0.1-0.6-0.2c-0.9-0.7-0.9-1.9-2-2.4
						c0-0.1-0.1-0.3,0.1-0.3c0.3,0.5,1,0.6,1.3,1.1c0.2,0,0.3-0.2,0.4-0.2c1.2,0.4,2.3-0.6,3.4,0.1c-0.3-0.9-0.3-2.4-0.5-3.5
						c0.6,0.9,0.9,2.1,1.4,2.9c-0.2,0.1,0.1,0.6,0.2,0.7c0.1,0.3-0.1,0.5,0.2,0.7C160.9,23.9,160.9,23.8,160.8,23.8z"/>
				</g>
				<g>
					<path class="st1" d="M138.5,24.7c0.2,0,0.2-0.1,0.2,0.1c0.2-0.2-0.2-0.3-0.1-0.5c0.3,0.3,0.1,0.6,0.2,0.9
						c-0.1,0-0.1-0.1-0.1-0.1c0.1,0.6,0.5,1.3,1,1.6c0,0.7,0.8,0.8,1.2,0.7c2.2,1,5,2.5,7.4,3.1c1.4-0.2,3.1,0.2,4.3-0.2
						c-0.1-0.1-0.6,0-0.6-0.3c0.4-0.1,0.9,0,1.2-0.3c0,0.3-0.4,0.4-0.6,0.5c0.1,0.2,0.1,0.4,0.3,0.5c-0.2,0.3,0.2,0.8,0.4,0.8
						c0,0,0.1,0,0.1,0c0-0.3-0.3-0.5-0.4-0.5c-0.1-0.1,0.1-0.1,0.2-0.1c0-0.1-0.1-0.1-0.2-0.1c0.3-0.7,2-0.8,2.5-0.2
						c0.4-0.3-0.1-0.6-0.6-0.7c0.2-0.2,0.4-0.4,0.8-0.3c0.2,0.5,0.5,1,0,1.3c-0.1,0,0-0.1,0-0.1c0,0-0.1,0-0.1,0
						c0,0.1-0.1,0.2-0.2,0.3c0.3,0,0.2-0.1,0.5,0c-0.2,0.7-0.1,1.5-0.1,2.2c-0.2-0.1-0.8-0.6-1.1-1c0.1-0.1,0.1-0.3-0.1-0.3
						c0.2,0,0.1-0.2,0-0.2c0.2,0,0.4,0,0.6,0.1c0.1-0.1,0-0.1,0.3-0.1c0-0.1-0.1-0.1-0.2-0.2c0-0.1,0.1,0,0.1,0
						c0-0.1-0.1-0.2-0.2-0.2c0.1-0.1,0.1-0.2,0.2-0.4c-0.5,0.1-0.5,0.6-1.1,0.5c0,0.1,0.3,0.1,0.3,0c-0.7,0-1.4,0.9-2.2,1.1
						c0.2-0.1,0.1-0.2-0.1-0.3c0-0.2,0.1-0.2,0.1-0.3c-1.9-2.4-9.2-1-11.4-2.6c-0.4,0-0.2,0.6-0.5,0.6c0.1,0.1-0.1,0.3-0.1,0.6
						c-0.1-0.2-0.2-0.4-0.3-0.5c0,0.1-0.2,0-0.2,0.1c-0.2-0.8-1.1-1.5-1.7-1.8c0.1-0.2-0.1-0.3-0.1-0.5c-0.1,0-0.2,0-0.2,0
						c0-0.1,0.1-0.1,0.1-0.2c-0.1-0.1-0.1,0-0.2,0c-0.1-0.4-0.4-0.4-0.4-1c-0.1,0.1-0.1,0-0.2,0c0.2-0.8,0.6-1.8,0.5-2.6
						c0.7-0.9,1.5-1.9,2-2.9c0.2,0,0.4-0.2,0.6-0.4c0,0.3-0.2,0.5-0.3,0.9c-0.3,0.3-2.6,2.8-1.2,2.6
						C138.6,24.6,138.4,24.5,138.5,24.7z"/>
				</g>
				<g>
					<path class="st1" d="M155.2,23.4c0,0.4,0.2,0.5,0.1,0.8c0,0.1,0.2,0.1,0.2,0.2c0,0.4-0.1,0.6,0.2,0.8c-1.3,0-1.8-1.1-2.7-1.6
						c0.8,0.1,1.2,0.9,1.9,1.2c0-0.6-0.7-0.7-1.1-1.1c0.1-0.1,0.4,0.1,0.5,0.1c0.1,0,0-0.1,0-0.1c0.1,0,0.1,0.1,0.1,0.2
						c0.2,0,0.4,0,0.4-0.3c0-0.1-0.1,0-0.1,0C154.8,23.4,155,23.2,155.2,23.4z"/>
				</g>
			</g>
		</g>
	</g>
	<g>
		<g>
			<g>
				<path class="st2" d="M10,67.9c1.1,1.1,2.4,2,3.9,2.6c1.5,0.7,3.1,1,4.8,1h28.7c1.1,0,2.1,0.4,2.9,1.2c0.8,0.8,1.2,1.8,1.2,2.9
					V77c6.8-0.9,13.6-2.4,20.5-4.5v-1.1c0-1.7-0.3-3.3-1-4.8c-0.7-1.5-1.5-2.8-2.6-3.9c-1.1-1.1-2.4-2-3.9-2.6c-1.5-0.7-3.1-1-4.8-1
					H31c-1.1,0-2.1-0.4-2.9-1.2c-0.8-0.8-1.2-1.8-1.2-2.9V51c0-1.1,0.4-2.1,1.2-2.9c0.8-0.8,1.8-1.2,2.9-1.2h40.9V34.7H18.7
					c-1.7,0-3.3,0.3-4.8,1c-1.5,0.7-2.8,1.5-3.9,2.6c-1.1,1.1-2,2.4-2.6,3.9c-0.7,1.5-1,3.1-1,4.8v12.3c0,1.7,0.3,3.3,1,4.8
					C8.1,65.5,8.9,66.8,10,67.9z"/>
			</g>
			<path class="st3" d="M47.6,83.8c-0.1,0-0.1,0-0.2,0H6.4v12.3h53.2c1.7,0,3.3-0.3,4.8-1c1.5-0.7,2.8-1.5,3.9-2.6
				c1.1-1.1,2-2.4,2.6-3.9c0.7-1.5,1-3.1,1-4.8v-2.6C63.7,82.8,55.6,83.7,47.6,83.8z"/>
		</g>
	</g>
	<g>
		<g>
			<path class="st3" d="M137.9,54.6c-1.1-1.1-2.4-2-3.9-2.6c-0.7-0.3-1.5-0.6-2.3-0.7c-4.8,4.4-10.1,8.4-15.8,12h1
				c1.1,0,2.1,0.4,2.9,1.2c0.8,0.8,1.2,1.8,1.2,2.9v12.3c0,1.1-0.4,2.1-1.2,2.9c-0.8,0.8-1.8,1.2-2.9,1.2h-16.4
				c-1.1,0-2.1-0.4-2.9-1.2c-0.8-0.8-1.2-1.8-1.2-2.9v-6.2c-3.9,1.6-8,3.1-12.1,4.4c-2.8,0.9-5.6,1.6-8.3,2.3v3.5
				c0,1.7,0.3,3.3,1,4.8c0.7,1.5,1.5,2.8,2.6,3.9c1.1,1.1,2.4,2,3.9,2.6c1.5,0.7,3.1,1,4.8,1h40.9c1.7,0,3.3-0.3,4.8-1
				c1.5-0.7,2.8-1.5,3.9-2.6c1.1-1.1,2-2.4,2.6-3.9c0.7-1.5,1-3.1,1-4.8V63.3c0-1.7-0.3-3.3-1-4.8C139.9,57,139,55.7,137.9,54.6z"/>
			<g>
				<path class="st2" d="M114,51h-13.4v9C105.3,57.3,109.8,54.3,114,51z"/>
			</g>
			<g>
				<path class="st2" d="M96.5,62.4V34.7H76v36.6C83.3,68.8,90.1,65.8,96.5,62.4z"/>
			</g>
		</g>
	</g>
</g>
</svg>
