<?xml version="1.0" encoding="utf-8"?>
<!-- Generator: Adobe Illustrator 22.0.1, SVG Export Plug-In . SVG Version: 6.00 Build 0)  -->
<svg version="1.1" id="Layer_1" xmlns="http://www.w3.org/2000/svg" xmlns:xlink="http://www.w3.org/1999/xlink" x="0px" y="0px"
	 viewBox="0 0 51.1 29.6" style="enable-background:new 0 0 51.1 29.6;" xml:space="preserve">
<style type="text/css">
	.st0{enable-background:new    ;}
</style>
<g class="st0">
	<g>
		<g>
			<defs>
				<path id="SVGID_1_" d="M2.8,19.4C3.1,19.7,3.5,20,4,20.2c0.5,0.2,1,0.3,1.5,0.3h8.9c0.4,0,0.7,0.1,0.9,0.4
					c0.2,0.2,0.4,0.6,0.4,0.9v0.5c2.1-0.3,4.2-0.8,6.3-1.4v-0.3c0-0.5-0.1-1-0.3-1.5s-0.5-0.8-0.8-1.2c-0.3-0.3-0.8-0.6-1.2-0.8
					c-0.5-0.2-1-0.3-1.5-0.3H9.3c-0.4,0-0.7-0.1-0.9-0.4C8.1,16.1,8,15.8,8,15.5v-1.3c0-0.4,0.1-0.7,0.4-0.9
					c0.2-0.2,0.6-0.4,0.9-0.4h12.7V9.2H5.5c-0.5,0-1,0.1-1.5,0.3c-0.5,0.2-0.9,0.5-1.2,0.8C2.4,10.6,2.2,11,2,11.5
					c-0.2,0.5-0.3,0.9-0.3,1.5v3.8c0,0.5,0.1,1,0.3,1.5C2.2,18.7,2.4,19,2.8,19.4z"/>
			</defs>
			<use xlink:href="#SVGID_1_"  style="overflow:visible;fill:#FFFFFF;"/>
			<clipPath id="SVGID_2_">
				<use xlink:href="#SVGID_1_"  style="overflow:visible;"/>
			</clipPath>
		</g>
		<g>
			<defs>
				<path id="SVGID_3_" d="M14.4,24.3C14.4,24.3,14.4,24.3,14.4,24.3H1.7v3.8h16.5c0.5,0,1-0.1,1.5-0.3c0.5-0.2,0.9-0.5,1.2-0.8
					c0.3-0.3,0.6-0.8,0.8-1.2s0.3-0.9,0.3-1.5v-0.8C19.4,24,16.9,24.2,14.4,24.3z"/>
			</defs>
			<use xlink:href="#SVGID_3_"  style="overflow:visible;fill:#FFFFFF;"/>
			<clipPath id="SVGID_4_">
				<use xlink:href="#SVGID_3_"  style="overflow:visible;"/>
			</clipPath>
		</g>
		<g>
			<defs>
				<path id="SVGID_5_" d="M42.4,15.3c-0.3-0.3-0.8-0.6-1.2-0.8c-0.2-0.1-0.5-0.2-0.7-0.2c-1.5,1.3-3.1,2.6-4.9,3.7h0.3
					c0.4,0,0.7,0.1,0.9,0.4c0.2,0.2,0.4,0.6,0.4,0.9V23c0,0.4-0.1,0.7-0.4,0.9c-0.2,0.2-0.6,0.4-0.9,0.4h-5.1
					c-0.4,0-0.7-0.1-0.9-0.4c-0.2-0.2-0.4-0.6-0.4-0.9v-1.9c-1.2,0.5-2.5,1-3.7,1.4c-0.9,0.3-1.7,0.5-2.6,0.7v1.1
					c0,0.5,0.1,1,0.3,1.5s0.5,0.8,0.8,1.2c0.3,0.3,0.8,0.6,1.2,0.8c0.5,0.2,1,0.3,1.5,0.3h12.7c0.5,0,1-0.1,1.5-0.3
					c0.5-0.2,0.9-0.5,1.2-0.8c0.3-0.3,0.6-0.8,0.8-1.2c0.2-0.5,0.3-0.9,0.3-1.5V18c0-0.5-0.1-1-0.3-1.5C43,16,42.8,15.7,42.4,15.3z"
					/>
			</defs>
			<use xlink:href="#SVGID_5_"  style="overflow:visible;fill:#FFFFFF;"/>
			<clipPath id="SVGID_6_">
				<use xlink:href="#SVGID_5_"  style="overflow:visible;"/>
			</clipPath>
		</g>
		<g>
			<defs>
				<path id="SVGID_7_" d="M35,14.2h-4.1V17C32.3,16.1,33.7,15.2,35,14.2z"/>
			</defs>
			<use xlink:href="#SVGID_7_"  style="overflow:visible;fill:#FFFFFF;"/>
			<clipPath id="SVGID_8_">
				<use xlink:href="#SVGID_7_"  style="overflow:visible;"/>
			</clipPath>
		</g>
		<g>
			<defs>
				<path id="SVGID_9_" d="M29.6,17.7V9.2h-6.3v11.3C25.5,19.7,27.6,18.8,29.6,17.7z"/>
			</defs>
			<use xlink:href="#SVGID_9_"  style="overflow:visible;fill:#FFFFFF;"/>
			<clipPath id="SVGID_10_">
				<use xlink:href="#SVGID_9_"  style="overflow:visible;"/>
			</clipPath>
		</g>
		<g>
			<defs>
				<path id="SVGID_11_" d="M44.2,1.7c0.1-0.1,0.2-0.3,0.3-0.5C44.3,1.2,44,1.3,44,1.5c0.1,0,0.1,0,0.1,0
					C44.2,1.6,44.2,1.6,44.2,1.7C44.2,1.7,44.2,1.6,44.2,1.7z"/>
			</defs>
			<use xlink:href="#SVGID_11_"  style="overflow:visible;fill:#FFFFFF;"/>
			<clipPath id="SVGID_12_">
				<use xlink:href="#SVGID_11_"  style="overflow:visible;"/>
			</clipPath>
		</g>
		<g>
			<defs>
				<path id="SVGID_13_" d="M46.2,2c-0.6,0.1-1-0.2-1.4-0.4C45.1,1.8,45.8,2.3,46.2,2z"/>
			</defs>
			<use xlink:href="#SVGID_13_"  style="overflow:visible;fill:#FFFFFF;"/>
			<clipPath id="SVGID_14_">
				<use xlink:href="#SVGID_13_"  style="overflow:visible;"/>
			</clipPath>
		</g>
		<g>
			<defs>
				<path id="SVGID_15_" d="M46.8,4c-0.1,0.2-0.2,0.3-0.3,0.5c0.1,0.2,0.3,0.5,0.4,0.7c-0.1-0.4-0.1-0.8,0-1.3
					C46.8,3.9,46.7,4,46.8,4C46.7,4,46.7,4,46.8,4z"/>
			</defs>
			<use xlink:href="#SVGID_15_"  style="overflow:visible;fill:#FFFFFF;"/>
			<clipPath id="SVGID_16_">
				<use xlink:href="#SVGID_15_"  style="overflow:visible;"/>
			</clipPath>
		</g>
		<g>
			<defs>
				<path id="SVGID_17_" d="M42.5,2.3c-0.1,0-0.1,0.1-0.1,0.1c0.1,0.1,0.2,0,0.2,0c0,0.1-0.1,0.2-0.2,0.2c0,0.1,0,0.1,0,0.2
					c0.2-0.1,0.5,0,0.8,0c0,0.4,0.3,0.8,0.4,1c-0.1-0.1,0-0.2,0-0.3c0,0,0,0.1,0,0.1c0-0.1,0-0.1,0-0.1c-0.1-0.3-0.1-0.6,0-0.9
					c0,0-0.1,0-0.1-0.1c0,0,0-0.2,0-0.2c0.1,0,0.2,0.1,0.2,0c0,0-0.1-0.1-0.1-0.1c0,0,0-0.1,0.1-0.1C44.2,2.7,45,3,45.4,3.5
					c0.1,0,0.2,0,0.3,0c0,0.1,0,0.2,0,0.2c0,0-0.1-0.1-0.2-0.1c0,0,0.1,0.1,0.1,0.2c-0.1,0.1-0.2-0.1-0.3-0.1
					c0.3,0.8,0.8,1.3,1.2,1.9c0.1,0,0.2,0,0.3,0c0-0.1,0-0.2,0-0.3c0,0,0,0.1,0,0.1c-0.2-0.5-0.7-0.9-0.6-1.6c-0.1,0,0,0.1-0.1,0.1
					c-0.5-0.2,0.1-1.1-0.1-1.4c-0.2,0.1-0.5,0.1-0.7,0.2c-0.4-0.2-0.5-0.9-1.1-0.8c0-0.1,0.2-0.3,0.2-0.3c-0.1,0-0.1,0.2-0.2,0.1
					c0,0.1-0.1,0.2-0.1,0.4c-0.4,0-0.5-0.3-0.6-0.6c-0.2,0-0.3,0-0.4,0.2c0-0.1-0.3-0.2-0.3-0.2C42.8,1.6,43,1.7,43,1.9
					c-0.2,0.2-0.5,0.2-0.7,0.3C42.4,2.3,42.5,2.3,42.5,2.3z"/>
			</defs>
			<use xlink:href="#SVGID_17_"  style="overflow:visible;fill:#FFFFFF;"/>
			<clipPath id="SVGID_18_">
				<use xlink:href="#SVGID_17_"  style="overflow:visible;"/>
			</clipPath>
		</g>
		<g>
			<defs>
				<path id="SVGID_19_" d="M46.1,3.8c0.1-0.2,0.1-0.5,0.2-0.6c0.1,0.3,0.1,0.7,0.2,0.9c0.1-0.2,0-0.4,0.1-0.6c-0.1,0,0-0.2-0.1-0.2
					c0,0,0,0,0,0c-0.2-0.2-0.1-0.4-0.3-0.6C46.2,3.2,46.1,3.5,46.1,3.8z"/>
			</defs>
			<use xlink:href="#SVGID_19_"  style="overflow:visible;fill:#FFFFFF;"/>
			<clipPath id="SVGID_20_">
				<use xlink:href="#SVGID_19_"  style="overflow:visible;"/>
			</clipPath>
		</g>
		<g>
			<defs>
				<path id="SVGID_21_" d="M46.4,9.5C46.4,9.5,46.5,9.5,46.4,9.5c-0.3,0.2-0.6,0.3-1,0.2c0,0,0.1,0,0,0c0,0,0-0.1,0-0.1
					c0.2,0.1,0.4-0.1,0.6-0.1c0,0,0,0,0-0.1C46.1,9.4,46.3,9.4,46.4,9.5L46.4,9.5z M45.4,9.4c-0.1,0-0.2,0-0.2,0.1c0,0,0,0,0,0
					c0,0-0.1,0-0.1,0c0,0,0,0,0,0c0,0,0,0,0,0c0,0,0,0,0,0h0c-0.4-0.2-0.7-0.5-1.2-0.7c0.6,0.2,1.2,0.3,1.7,0.5
					C45.5,9.3,45.4,9.3,45.4,9.4C45.3,9.3,45.4,9.4,45.4,9.4z M44.2,9.5C44.2,9.5,44.3,9.5,44.2,9.5C44.3,9.5,44.2,9.5,44.2,9.5
					c-0.1-0.1-0.1-0.1-0.1-0.3c-0.2-0.2-0.5-0.4-0.7-0.5c0.2,0,0.5,0.2,0.7,0.3c0,0,0,0,0-0.1c0.2,0.2,0.5,0.3,0.6,0.5
					C44.5,9.5,44.4,9.5,44.2,9.5z M49,8.1c-0.1,0-0.1,0.2-0.2,0.1c0,0.1,0.1,0.1,0.1,0.2c-0.2,0.4-0.6,0.5-1.1,0.6c0,0,0,0.1,0,0.2
					c-2.1,0.1-4.5-0.5-6.2-1.3c-0.1-0.4-0.5-1.1-0.3-1.4c0,0.1,0.1,0.2,0.1,0.3c0-0.1,0.1-0.2,0.1-0.3c-0.1,0,0,0.1,0,0.1
					c0-0.1,0.1-0.1,0-0.2c0.1,0,0.1,0.1,0.1,0.1c0,0.1-0.1,0-0.1,0.2c0.1,0,0-0.1,0-0.1c0,0,0,0.1,0,0.1c0,0,0,0,0.1,0
					c0,0.1,0,0,0,0.1c0,0-0.1,0-0.1,0c0,0.1,0,0.1,0,0.1c0,0-0.1,0-0.1,0C41.4,7,41.5,7,41.8,7c0.3-0.7,0.1-1.4,0.6-1.8
					c0,0.1-0.1,0.2-0.1,0.3c0.5-0.4,0.4-1.3,0.3-1.7c0.3,0.2,0.5,0.5,0.7,0.8c0,0-0.1,0-0.1,0c0,0.1,0.3,0,0.3,0.2
					c-0.2,0.1-0.2,0.5-0.2,0.7c0-0.2,0-0.4,0.1-0.4c0,0-0.1,0.1,0,0.1c0.1-0.1,0.1-0.2,0.2-0.3c0.1,0.1,0.4,0.2,0.5,0.3
					C44,5.1,44,5,43.9,4.9c0,0,0.1,0,0.1-0.1c0-0.1-0.2-0.1-0.2-0.2c0,0,0.1,0,0,0c-0.7-0.3-1.1-1.2-2-1c0-0.1,0.3-0.2,0.1-0.3
					c-0.1,0.1-0.3,0.1-0.5,0.1c0,0-0.1-0.1-0.1-0.2C41.4,3.1,41.6,3,41.8,3C41.8,2.9,42,3,42,3c0-0.1,0.1-0.1,0-0.1
					c-0.1,0-0.2,0-0.3,0c0,0,0,0.1-0.1,0c0,0.1,0,0.1-0.1,0.1c0,0,0-0.1,0-0.1c-0.1,0.1-0.2,0.2-0.4,0.2c0,0.1-0.1,0.1-0.1,0.1
					c0,0,0.1,0.1,0.1,0.1c0,0.1,0,0.1-0.1,0.1c0.1,0.2,0.1,0.4,0.2,0.5c0.3-0.1,0.7-0.2,1-0.3c0.2,0.1,0.2,0.4,0.1,0.6
					c-0.4,0.1-0.6,0-1-0.1c0.1,0.2,0.5,0.2,0.7,0.4c-0.4,0-0.7-0.2-0.8-0.4c0,0.1,0.1,0.1,0,0.2c-0.2,0-0.3,0.1-0.4,0.1
					c-0.1,0.1-0.1,0.1-0.1,0.2c0,0,0.1,0,0.1,0.1c-0.1,0-0.1,0.1-0.1,0.2c0-0.1,0-0.1,0-0.2c-0.2,0.1-0.3,0.1-0.4,0.2
					c0,0.2,0,0.3,0.1,0.5c0,0,0.1,0,0.2-0.1c0.1,0.1,0.1,0.1,0.2,0.1c0,0.1-0.1,0-0.1,0.1c1,0.1,0.2,1.3,0.4,2
					c0.1,0.5,0.7,1,1.3,1.2c0.1,0.2,0,0.4,0,0.6c0,0,0,0,0.1,0c0,0-0.1,0.1,0,0.1c-0.1,0-0.1,0-0.1,0.1c-1.1-0.7-1.4-2-1.8-3
					c0,0,0-0.1,0-0.1c-0.1-0.1,0-0.2-0.1-0.3c0.1-0.1,0.2,0.1,0.3,0c-0.1-0.1-0.2-0.1-0.2-0.2c0-0.1,0-0.1,0.1-0.1
					c-0.1-0.1-0.2,0-0.4,0c0,0,0-0.1,0-0.1c0,0,0,0.1,0,0.1c0,0,0,0-0.1,0c-0.1,0-0.1-0.1-0.1-0.1c-0.2,0.8-0.2,1.4-0.3,2.2
					c1,1.1,2.4,2.1,3.7,2.9c0,0,0.1-0.1,0.1-0.1c0.5,0.8,1.5,0,2.2,0c0,0.1,0,0.3,0,0.3c1.3-0.5,2.6-1.6,3.3-2.5
					c0.1-0.1,0.1-0.2,0-0.3c0.1-0.1,0.1-0.3,0.1-0.4C49.1,7.8,49.1,7.9,49,8.1z"/>
			</defs>
			<use xlink:href="#SVGID_21_"  style="overflow:visible;fill:#FFFFFF;"/>
			<clipPath id="SVGID_22_">
				<use xlink:href="#SVGID_21_"  style="overflow:visible;"/>
			</clipPath>
		</g>
		<g>
			<defs>
				<path id="SVGID_23_" d="M49.3,6.1c-0.1-0.1,0.1-0.2,0-0.2c0,0-0.1,0-0.1,0c0,0,0,0,0-0.1c0,0-0.1,0-0.1,0c0,0,0,0,0.1,0
					c-0.1,0,0-0.1-0.1-0.2c0,0-0.1-0.2-0.1-0.2c-0.2-0.3-0.2-0.6-0.4-0.9c0.1,0.3,0.1,0.8,0.2,1.1c-0.3-0.2-0.7,0.1-1.1,0
					c0,0-0.1,0.1-0.1,0.1c-0.1-0.2-0.3-0.2-0.4-0.4c-0.1,0,0,0.1,0,0.1c0.3,0.2,0.3,0.5,0.6,0.8c0.1,0,0.1,0,0.2,0.1
					c0-0.1-0.1-0.1-0.1-0.1c0.1,0,0.1,0,0.1,0C48.1,6,48,6,48,6c0-0.1-0.3-0.1-0.1-0.2c0.2,0,0.4-0.1,0.6-0.1c0.1,0,0-0.1,0.1-0.1
					c0,0,0,0,0,0.1c0,0,0,0,0,0.1c0.1,0,0.2,0.1,0.3,0.1c0-0.1,0,0,0.1-0.1c0,0,0,0.1,0,0.1C49,5.9,49,6,49.1,6c0,0.1,0,0,0,0
					c0,0.1-0.2,0.1-0.1,0.2c-0.1,0-0.1,0.1-0.2,0.1c0,0,0,0,0-0.1c-0.1,0-0.1,0-0.2,0c0.1-0.1-0.1-0.1,0-0.1c0,0,0,0-0.1,0
					c0.1-0.1-0.1-0.2-0.1-0.1c0,0.1,0,0.2,0,0.3c0.1,0,0.1-0.1,0.2-0.1c-0.1,0.1-0.1,0.3-0.3,0.3c0,0.1,0,0.1,0,0.1
					c-0.1,0-0.1,0.1-0.2,0c0,0.1-0.2,0-0.2,0.1C48.1,7,48.2,7,48.3,7c0,0,0,0.1,0,0.1c0,0,0,0,0.1,0c0,0,0,0,0,0c0,0,0.1,0,0.1,0
					c0,0.1-0.1,0-0.1,0c0,0,0.1,0,0.1,0c0.1-0.2,0.4-0.5,0.4-0.7c0.1,0,0.1-0.1,0.2-0.1c0,0.2,0.1,0.5-0.1,0.7c0,0,0,0,0,0
					c0,0.1-0.1,0.3,0,0.4c0-0.1,0.1,0,0.1,0C49.1,7,49.3,6.5,49.3,6.1c0,0-0.1,0.1-0.1,0.2C49.2,6.2,49.3,6.1,49.3,6.1z"/>
			</defs>
			<use xlink:href="#SVGID_23_"  style="overflow:visible;fill:#FFFFFF;"/>
			<clipPath id="SVGID_24_">
				<use xlink:href="#SVGID_23_"  style="overflow:visible;"/>
			</clipPath>
		</g>
		<g>
			<defs>
				<path id="SVGID_25_" d="M47.7,8c0.2-0.1,0.1-0.3,0-0.4c-0.1,0-0.2,0-0.3,0.1c0.1,0,0.3,0.1,0.2,0.2c-0.1-0.2-0.7-0.2-0.8,0.1
					c0,0,0,0,0.1,0c0,0-0.1,0,0,0C46.9,8,47,8,47,8.1h0c-0.1,0-0.2-0.2-0.1-0.2c-0.1,0-0.1-0.1-0.1-0.2c0.1,0,0.2-0.1,0.2-0.2
					c-0.1,0.1-0.3,0.1-0.4,0.1c0,0.1,0.2,0,0.2,0.1c-0.4,0.1-0.9,0-1.3,0.1c-0.7-0.2-1.6-0.7-2.3-0.9c-0.2,0-0.4,0-0.4-0.2
					c-0.1-0.1-0.3-0.3-0.3-0.5c0,0,0,0,0,0c0-0.1,0-0.2-0.1-0.3c0,0.1,0.1,0.1,0,0.2c0-0.1,0-0.1-0.1,0c0-0.1,0,0,0-0.1
					c-0.4,0.1,0.3-0.7,0.4-0.8c0-0.1,0.1-0.2,0.1-0.3c-0.1,0.1-0.1,0.1-0.2,0.1c-0.2,0.3-0.4,0.6-0.6,0.9c0,0.2-0.1,0.6-0.2,0.8
					c0.1,0,0,0,0.1,0C41.8,7,41.9,7,42,7.1c0,0,0.1,0,0.1,0c0,0,0,0,0,0.1c0,0,0,0,0.1,0c0,0.1,0.1,0.1,0,0.2
					c0.2,0.1,0.5,0.3,0.5,0.6c0,0,0.1,0,0.1,0c0.1,0,0.1,0.1,0.1,0.2c0-0.1,0.1-0.2,0-0.2c0.1,0,0.1-0.2,0.2-0.2
					c0.7,0.5,3,0,3.6,0.8c0,0,0,0,0,0.1c0,0,0.1,0.1,0,0.1c0.3-0.1,0.4-0.3,0.6-0.3c0,0,0,0,0,0c0.2,0,0.2-0.1,0.3-0.2
					c0,0.1,0,0.1,0,0.1c0,0,0.1,0,0.1,0.1c0,0,0,0,0,0c0,0,0.1,0,0.1,0.1c-0.1,0,0,0-0.1,0c0,0-0.1,0-0.2,0c0,0,0,0.1,0,0.1
					c0.1,0,0.1,0.1,0,0.1c0.1,0.1,0.3,0.3,0.4,0.3C47.7,8.5,47.7,8.3,47.7,8c0,0.1,0,0.1-0.1,0.1C47.6,8,47.6,8,47.7,8
					C47.6,8,47.6,8,47.7,8C47.7,7.9,47.7,8,47.7,8z"/>
			</defs>
			<use xlink:href="#SVGID_25_"  style="overflow:visible;fill:#FFFFFF;"/>
			<clipPath id="SVGID_26_">
				<use xlink:href="#SVGID_25_"  style="overflow:visible;"/>
			</clipPath>
		</g>
		<g>
			<defs>
				<path id="SVGID_27_" d="M47.4,8.2C47.3,8.2,47.3,8.2,47.4,8.2C47.3,8.3,47.4,8.3,47.4,8.2z"/>
			</defs>
			<use xlink:href="#SVGID_27_"  style="overflow:visible;fill:#FFFFFF;"/>
			<clipPath id="SVGID_28_">
				<use xlink:href="#SVGID_27_"  style="overflow:visible;"/>
			</clipPath>
		</g>
	</g>
</g>
</svg>
