<svg xmlns="http://www.w3.org/2000/svg" width="71" height="41" viewBox="0 0 71 41">
    <g fill="none" fill-rule="nonzero">
        <path fill="#F14D4D" d="M1.642 27.159a5.828 5.828 0 0 0 1.788 1.214 5.433 5.433 0 0 0 2.174.438h13.043c.532 0 .966.194 1.304.534.339.34.532.826.532 1.312v.68a64.062 64.062 0 0 0 9.323-2.04v-.486a5.6 5.6 0 0 0-1.642-3.984 5.828 5.828 0 0 0-1.787-1.215 5.433 5.433 0 0 0-2.174-.437H11.159c-.531 0-.966-.195-1.304-.535a1.883 1.883 0 0 1-.531-1.311v-1.895a1.8 1.8 0 0 1 .531-1.312c.338-.34.821-.534 1.304-.534h18.647v-5.636H5.604c-.773 0-1.498.146-2.174.437-.725.292-1.304.729-1.788 1.215A5.865 5.865 0 0 0 .435 15.4 5.518 5.518 0 0 0 0 17.588v5.635c0 .778.145 1.506.435 2.187.29.68.724 1.263 1.207 1.749z"/>
        <path fill="#F49C20" d="M18.744 34.446H0v5.636h24.25c.774 0 1.499-.146 2.175-.437a5.566 5.566 0 0 0 1.787-1.215 5.865 5.865 0 0 0 1.208-1.797c.29-.68.435-1.41.435-2.187v-1.214a58.88 58.88 0 0 1-11.111 1.214z"/>
        <path fill="#8C3FBF" d="M59.903 21.086a5.828 5.828 0 0 0-1.788-1.215 6.813 6.813 0 0 0-1.062-.34c-2.223 1.992-4.59 3.838-7.198 5.49h.483c.531 0 .966.194 1.304.534.338.34.531.826.531 1.312v5.685a1.8 1.8 0 0 1-.531 1.311c-.338.34-.821.535-1.304.535h-7.44c-.531 0-.966-.195-1.304-.535a1.883 1.883 0 0 1-.532-1.311v-2.818a53.32 53.32 0 0 1-5.507 2.04 48.933 48.933 0 0 1-3.816 1.02v1.604a5.6 5.6 0 0 0 1.642 3.984 5.828 5.828 0 0 0 1.788 1.214 5.433 5.433 0 0 0 2.174.438H55.99c.773 0 1.497-.146 2.174-.438a5.566 5.566 0 0 0 1.787-1.214 5.865 5.865 0 0 0 1.208-1.798c.29-.68.435-1.409.435-2.186V25.07c0-.778-.145-1.507-.435-2.187-.387-.68-.773-1.263-1.256-1.797z"/>
        <path fill="#0EAD91" d="M48.985 19.434h-6.087v4.13c2.126-1.264 4.203-2.624 6.087-4.13z"/>
        <path fill="#52AB15" d="M41.014 24.632v-12.68H31.69v16.761c3.285-1.117 6.426-2.477 9.324-4.08z"/>
        <path fill="#320161" d="M62.524.777c.1-.194.302-.437.403-.777-.302.097-.705.194-.705.534.1.049.1 0 .201 0 .05.098.05.195.05.292.05.049 0-.146.05-.049zM65.507 1.263c-.822.097-1.498-.34-2.078-.583.435.389 1.498 1.069 2.078.583zM66.29 4.324c-.141.243-.353.437-.494.68.212.292.494.68.635 1.02-.14-.631-.211-1.263 0-1.943-.07.097-.282.146-.14.243-.071-.049-.071-.049 0 0z"/>
        <path fill="#320161" d="M60.048 1.749c-.097.049-.097.097-.145.194.096.098.241 0 .29.049-.049.097-.194.34-.29.243.048.097-.049.194-.049.34.339-.194.773.049 1.208 0-.048.534.387 1.166.628 1.555-.096-.146-.048-.292 0-.389-.048 0 0 .097-.048.097 0-.097.048-.097.048-.146-.145-.437-.096-.923 0-1.36-.048-.049-.096-.049-.096-.146.048-.048.048-.291-.049-.291.097.048.242.097.242-.049l-.145-.146c.048-.048.048-.097.145-.097.676.778 1.884 1.118 2.415 1.992.097 0 .242-.048.387-.048v.34c-.049 0-.194-.146-.242-.146.048.049.145.146.145.243-.097.097-.29-.146-.435-.097.387 1.117 1.111 1.992 1.788 2.866.145 0 .29-.048.434-.048 0-.146-.048-.34-.048-.486v.146c-.29-.778-.966-1.36-.918-2.332-.096 0-.048.145-.096.145-.725-.291.193-1.652-.097-2.137-.338.145-.725.194-1.063.291-.58-.34-.676-1.36-1.594-1.215.048-.145.242-.437.29-.437-.145 0-.145.243-.29.146-.048.146-.193.291-.097.534-.58 0-.724-.485-.917-.826-.339 0-.483.049-.628.243-.049-.145-.387-.34-.484-.291.145.243.339.437.484.631-.242.243-.725.292-1.063.438.048.145.193.145.29.194z"/>
        <path fill="#320161" d="M65.265 4.033c.145-.243.097-.778.29-.875.145.389.145.972.338 1.409.145-.34 0-.583.097-.826-.145-.049-.049-.34-.145-.292 0-.048.048-.048.048-.048-.242-.243-.145-.632-.435-.875 0 .583-.145.972-.193 1.507zM69.516 10.397c-.145-.049-.193.292-.241.194 0 .146.145.098.145.243-.29.535-.918.778-1.595.923 0 .049 0 .146-.048.292-3.092.146-6.618-.777-9.179-1.992-.193-.632-.773-1.603-.483-2.138.049.195.097.34.145.438 0-.195.145-.243.097-.438-.097-.048 0 .097-.048.097-.049-.097.144-.145.048-.242.193 0 .096.194.193.097.048.194-.097.048-.097.243.097.048 0-.098.049-.098.048.049 0 .098 0 .146 0-.048.048-.048.096-.048-.048.097 0 .048.049.097-.049.048-.145-.049-.145.048 0 .098-.049.098.048.146-.048 0-.145.049-.193.049.048.291.241.34.58.34.386-.972.096-2.138.87-2.624 0 .146-.146.243-.098.389.677-.535.532-1.943.484-2.575.386.34.676.729.966 1.117 0 .049-.145 0-.145.049 0 .194.386.049.386.34-.241.194-.338.68-.241.972.048-.243-.049-.583.145-.632 0 .049-.097.097 0 .146.096-.146.096-.34.241-.389.193.146.532.34.773.389-.096-.097-.145-.243-.193-.34.048 0 .097 0 .097-.097-.049-.146-.29-.195-.339-.34.049 0 .097 0 .049-.05-.966-.485-1.643-1.845-2.995-1.505.048-.146.386-.34.144-.486-.193.146-.483.146-.724.146-.048-.049-.193-.146-.193-.243.241-.097.531-.243.773-.243 0-.194.29-.049.386-.097 0-.097.097-.097.048-.146a.479.479 0 0 1-.434-.049c-.049.049-.049.098-.145.049 0 .097-.049.146-.097.146 0-.049.048-.097 0-.146-.145.146-.29.34-.58.291-.048.098-.096.098-.096.195l.193.194-.097.194c.097.243.194.535.338.778.484-.146 1.015-.243 1.45-.486.241.097.241.534.145.826-.532.146-.918-.049-1.401-.097.145.291.773.243 1.014.534-.628 0-1.063-.243-1.208-.534.049.097.097.146 0 .243-.241-.049-.386.194-.58.097-.096.097-.192.146-.192.291 0 .049.144.049.096.146-.096.049-.193.146-.193.243 0-.097 0-.194.048-.291-.241.097-.483.145-.628.291 0 .243.049.486.145.68.048-.048.145-.048.242-.097a.849.849 0 0 0 .241.194c-.048.098-.193.049-.145.195 1.401.194.29 1.943.532 2.915.193.777.966 1.506 1.98 1.749.145.243-.048.534-.048.826.048 0 .048-.049.145 0-.048.048-.097.097-.048.194-.097-.048-.097.049-.194.097-1.545-1.02-2.077-2.915-2.705-4.518.048-.049 0-.097.048-.146-.144-.097-.048-.291-.096-.486.145-.097.241.097.386 0-.096-.145-.29-.194-.338-.34.048-.097 0-.146.097-.194-.193-.146-.338-.049-.532.048 0-.048-.048-.097-.048-.145 0 .048.048.097.048.194-.048 0-.048.049-.096.049-.097-.049-.097-.098-.145-.195-.29 1.166-.338 2.09-.435 3.255 1.498 1.652 3.478 3.061 5.507 4.324.049-.048.097-.097.097-.194.724 1.166 2.174.049 3.188 0 .049.146-.048.389.049.486 1.98-.68 3.816-2.332 4.879-3.692.096-.098.096-.243.048-.39.193-.145.097-.485.193-.63-.29.29-.338.388-.483.728zM62.56 12.39c-.049.049.048.049.096.049-.048.048-.145 0-.193.048-.048-.194-.097-.291-.097-.534-.338-.243-.676-.535-1.062-.68.338.048.724.291.966.485 0-.048-.048-.048 0-.097.241.292.676.486.87.778-.146.097-.387-.049-.58-.049zm1.69-.146c-.144 0-.338.049-.338.195h-.048c.048-.049-.097-.049-.145-.049h0c-.531-.34-1.063-.777-1.739-1.02.821.243 1.787.437 2.56.777-.096.049-.193.049-.338.049-.048 0 0 .048.048.048zm1.546.195c-.048 0 .049.048 0 .097-.386.146-.82.388-1.4.243.048-.049.096-.049 0-.049.048-.048.048-.097.048-.146.241.195.531-.097.821-.097 0-.048-.048-.048 0-.097.097-.049.386-.097.531.049z"/>
        <path fill="#320161" d="M70.048 7.433c-.097-.097.096-.243.048-.243 0 .05-.097 0-.145-.048 0 0 0-.049.048-.146-.048 0-.096 0-.096-.048h.096c-.145-.049-.048-.195-.096-.292-.049 0-.194-.243-.097-.291-.242-.39-.338-.924-.628-1.312.097.486.097 1.214.242 1.603-.484-.34-1.015.146-1.546-.049-.049 0-.097.098-.194.098-.096-.243-.434-.292-.58-.535-.096 0-.048.097-.048.146.483.243.483.777.918 1.117.145.049.193.049.29.098-.048-.098-.097-.098-.145-.195.097 0 .097-.048.145-.048-.048-.049-.097-.098-.145-.049 0-.146-.386-.146-.193-.34.29 0 .58-.097.821-.146.097-.048.049-.194.193-.146-.048.05.049.05.049.098-.049.048 0 .048 0 .097.193 0 .29.097.435.097.048-.097.048-.049.096-.097a.15.15 0 0 1 .048.097c-.048.194.049.389.194.34-.049.097.048 0 .048.049 0 .145-.242.194-.097.34-.096.048-.145.097-.241.097 0-.049 0-.049-.048-.097-.097 0-.194 0-.242.048.097-.097-.145-.145.048-.194h-.096c.096-.097-.097-.243-.194-.146-.048.195.049.292 0 .486.097 0 .194-.146.242-.097-.097.194-.145.486-.386.486 0 .097-.049.097-.049.194-.193-.048-.145.097-.29 0 0 .146-.241 0-.241.194.096.098.193.098.338.098 0 .048-.048.145 0 .194h.097c.048 0 0-.049.048-.049s.145 0 .145.049c0 .097-.097 0-.097.049.049 0 .145.048.145 0 .193-.243.532-.73.58-1.07.096 0 .145-.145.241-.145.049.291.145.777-.096 1.069 0-.049 0-.049-.049-.049 0 .146-.144.389-.048.535.048-.098.097 0 .145-.049.048-.437.29-1.263.387-1.798-.049.049-.097.195-.145.243 0-.145.096-.243.145-.243zM67.632 10.203c.242-.146.097-.389 0-.632-.193-.048-.29.049-.386.146.193.048.434.146.241.291-.193-.291-1.014-.243-1.16.098.05 0 .05.048.097.048-.048-.048-.145 0-.048.049.048 0 .193.097.193.243h-.048c-.097 0-.29-.243-.193-.34-.097-.049-.097-.146-.145-.243.096-.049.29-.098.241-.243-.145.145-.386.097-.531.145 0 .146.242.049.242.146-.532.195-1.353 0-1.981.097-1.063-.243-2.319-.971-3.333-1.409-.242.049-.58 0-.58-.291-.193-.097-.387-.437-.435-.729.048 0 .048.049.048.049-.048-.146.049-.292-.096-.389-.049.097.096.194.048.243 0-.097 0-.097-.097-.049-.048-.097.049-.048 0-.097-.628.097.435-1.069.532-1.214.048-.146.145-.243.145-.389a1.01 1.01 0 0 1-.29.194c-.242.438-.58.923-.918 1.312.048.34-.145.826-.241 1.215.096 0 .048.048.096 0 0 .243.145.243.193.437.049 0 .097-.049.097 0s-.048.049-.048.097h.096c0 .097.097.146.049.243.241.146.676.437.773.826 0-.049.096 0 .096-.049.097.049.097.146.145.243 0-.145.097-.243.048-.291.145 0 .097-.243.242-.292 1.014.68 4.348.049 5.217 1.166-.048.049-.048.049-.048.146.048.049.145.097.048.097.387-.097.628-.437.918-.486-.048 0-.048 0-.048-.048.241 0 .29-.195.483-.243-.048.097 0 .097-.048.146.048 0 .096 0 .096.097-.048 0-.048-.049-.048 0 .048.048.097.048.097.097-.145-.049-.049-.049-.097.049-.048-.049-.193-.049-.242-.049.049 0 .049.097 0 .097.097 0 .097.097.049.146.145.146.434.389.531.437 0-.34-.048-.631.048-.972-.096-.048-.096 0-.241 0 .048-.048.096-.097.096-.145 0 .048 0 0 .049 0 .048-.049 0 0 .048 0z"/>
        <path fill="#320161" d="M67.145 10.543h-.14c.07.07.14.07.14 0z"/>
    </g>
</svg>
