<svg xmlns="http://www.w3.org/2000/svg" width="20" height="19" viewBox="0 0 20 19">
    <g fill="none" fill-rule="evenodd" opacity=".5">
        <path fill="#43425D" fill-rule="nonzero" d="M17.43 2.576h-.875V.82h-1.75v1.756H5.18V.82H3.43v1.756h-.875c-.963 0-1.75.79-1.75 1.755V16.62c0 .965.787 1.755 1.75 1.755H17.43c.962 0 1.75-.79 1.75-1.755V4.33c0-.965-.788-1.755-1.75-1.755zm.437 14.57H2.205V6.964h15.662v10.182z"/>
        <path d="M-1 0h21v21H-1z"/>
        <path fill="#43425D" fill-rule="nonzero" d="M4.25 9.023h2.133v2.133H4.25zM8.844 9.023h2.133v2.133H8.844zM13.602 9.023h2.133v2.133h-2.133zM4.25 13.125h2.133v2.133H4.25zM8.844 13.125h2.133v2.133H8.844zM13.602 13.125h2.133v2.133h-2.133z"/>
    </g>
</svg>
