<svg xmlns="http://www.w3.org/2000/svg" width="18" height="18" viewBox="0 0 18 18">
    <g fill="none" fill-rule="evenodd">
        <path fill="#C5C5CD" fill-rule="nonzero" d="M8.992.667C4.392.667.667 4.4.667 9s3.725 8.333 8.325 8.333c4.608 0 8.341-3.733 8.341-8.333S13.6.667 8.992.667zm.008 15A6.665 6.665 0 0 1 2.333 9 6.665 6.665 0 0 1 9 2.333 6.665 6.665 0 0 1 15.667 9 6.665 6.665 0 0 1 9 15.667z"/>
        <path d="M-1-1h20v20H-1z"/>
        <path fill="#C5C5CD" fill-rule="nonzero" d="M9.417 4.833h-1.25v5l4.375 2.625.625-1.025-3.75-2.225z"/>
    </g>
</svg>
