<svg xmlns="http://www.w3.org/2000/svg" width="32" height="32"><g fill="none" fill-rule="evenodd"><circle cx="16" cy="16" r="16" fill="#E3E5FF"/><path fill="#5158AF" fill-rule="nonzero" d="M10.16484 13.66154c-.1477 0-.27253.05354-.37451.16061-.10198.10708-.15297.23816-.15297.39323v.55385c0 .15508.051.28615.15297.39323.10198.10708.22681.16062.3745.16062h3.69231c.21803 0 .42374.0443.61715.13292.1934.08862.36043.20677.5011.35446.14065.1477.25318.32308.33758.52616.0844.20307.12659.41907.12659.648v1.66153c0 .22893-.0422.44493-.1266.648-.08439.20308-.19692.37846-.33758.52616-.14066.1477-.30769.26584-.5011.35446-.1934.08862-.39911.13292-.61714.13292H7v-1.66154h5.27473c.14769 0 .27252-.05353.3745-.16061.10198-.10708.15297-.23815.15297-.39323v-.55385c0-.15508-.051-.28615-.15297-.39323-.10198-.10708-.22681-.16061-.3745-.16061H8.58242c-.21803 0-.42374-.04431-.61715-.13293-.1934-.08861-.36043-.20677-.5011-.35446-.14065-.1477-.25318-.32308-.33758-.52615C7.0422 15.768 7 15.552 7 15.32308v-1.66154c0-.22893.0422-.44492.1266-.648.08439-.20308.19692-.37846.33758-.52616.14066-.14769.30769-.26584.5011-.35446.1934-.08861.39911-.13292.61714-.13292h6.85714v1.66154h-5.27472zM19.02044 12v6.0923c0 .15509.05099.28616.15297.39324.10198.10708.2268.16061.3745.16061h2.1099c.14769 0 .27252-.05353.3745-.16061.10198-.10708.15296-.23815.15296-.39323v-1.66154c0-.15508-.05098-.28615-.15296-.39323-.10198-.10708-.22681-.16062-.3745-.16062h-2.1099v-1.66154h3.69231c.21802 0 .42374.04431.61714.13293.19341.08861.36044.20677.5011.35446.14066.1477.25319.32308.33758.52615.0844.20308.1266.41908.1266.648v2.76923c0 .22893-.0422.44493-.1266.648-.0844.20308-.19692.37846-.33758.52616-.14066.1477-.30769.26584-.5011.35446-.1934.08862-.39912.13292-.61714.13292h-5.27473c-.21802 0-.42373-.0443-.61714-.13292-.1934-.08862-.36044-.20677-.5011-.35446-.14066-.1477-.25318-.32308-.33758-.52616-.0844-.20307-.1266-.41907-.1266-.648V12h2.63737z"/></g></svg>