<svg xmlns="http://www.w3.org/2000/svg" width="32" height="32"><g fill="none" fill-rule="evenodd"><circle cx="16" cy="16" r="16" fill="#E3E5FF"/><g fill="#5158AF" fill-rule="nonzero" opacity=".9"><path d="M20.98263 8h-8.4112v16h8.4104c1.03364 0 1.87531-.91253 1.87531-2.03318V10.03326c0-1.12064-.8409-2.03317-1.87453-2.03317L20.98263 8zm-.75774 7.79573h-4.97625c-.25412 0-.46008-.2233-.46008-.49881 0-.27552.20596-.49882.46008-.49882h4.97625c.25413 0 .46009.2233.46009.49882 0 .27551-.20596.4988-.46009.4988zm0-2.39711h-4.97625c-.25412 0-.46008-.2233-.46008-.49881 0-.27552.20596-.49882.46008-.49882h4.97625c.25413 0 .46009.2233.46009.49882 0 .27551-.20596.49881-.46009.49881zM9.14286 8h2.28571v16H9.14286z"/></g></g></svg>