<svg xmlns="http://www.w3.org/2000/svg" width="32" height="32">
    <g fill="none" fill-rule="evenodd">
        <circle cx="16" cy="16" r="16" fill="#E3E5FF"/>
        <path fill="#5158AF" fill-rule="nonzero" d="M16 8l-3.619 2.929V24h2.286v-6.1h2.667V24h2.286V10.929L16 8zm0 4.381c.9459643.000004 1.7130747.7663743 1.7139919 1.7123382.0009172.9459639-.7647058 1.7138202-1.7106683 1.7156586-.9459625.0018383-1.7145641-.7630365-1.7173236-1.7089968-.0010622-.4553657.1790185-.8924592.5005423-1.2149209.3215237-.3224617.7580908-.5038148 1.2134577-.5040791zm-7.238 2.857c-.2021764-.0002658-.3961485.0799307-.539109.2228911C8.0799308 15.6038515 7.9997342 15.7978237 8 16v7.238c-.0002658.2021763.0799307.3961485.222891.5391089.1429605.1429604.3369326.2231569.539109.2228911l2.857 7e-7v-8.7620014l-2.857 7e-7zm11.619-7e-7v8.7620014L23.238 24c.2021763.0002658.3961485-.0799307.5391089-.2228911.1429604-.1429604.2231569-.3369326.2228911-.5391089V16c.0002658-.2021763-.0799307-.3961485-.2228911-.5391089-.1429604-.1429604-.3369326-.2231569-.5391089-.2228911l-2.857-7e-7z"/>
    </g>
</svg>