<svg xmlns="http://www.w3.org/2000/svg" width="31" height="27" viewBox="0 0 31 27">
    <path fill="#21837F" fill-opacity=".126" fill-rule="evenodd" d="M6.003 0c-1.665 0-3.082.6-4.25 1.797C.584 2.996 0 4.447 0 6.151c0 1.704.584 3.155 1.753 4.353 1.168 1.199 2.585 1.798 4.25 1.798 1.504 0 2.41.612 2.72 1.837.308 1.225.154 2.583-.464 4.074-.618 1.491-1.652 2.85-3.102 4.074-1.45 1.225-3.17 1.837-5.157 1.837V27c3.572 0 6.547-1.405 8.924-4.214s3.928-5.898 4.653-9.266c.726-3.368.517-6.464-.624-9.286C11.81 1.41 9.495 0 6.003 0zm17 0c-1.665 0-3.082.6-4.25 1.797C17.584 2.996 17 4.447 17 6.151c0 1.704.584 3.155 1.753 4.353 1.168 1.199 2.585 1.798 4.25 1.798 1.504 0 2.417.612 2.74 1.837.322 1.225.168 2.583-.464 4.074-.63 1.491-1.665 2.85-3.102 4.074-1.437 1.225-3.163 1.837-5.177 1.837V27c3.572 0 6.547-1.405 8.924-4.214s3.928-5.898 4.653-9.266c.726-3.368.517-6.464-.624-9.286C28.81 1.41 26.495 0 23.003 0z"/>
</svg>
