<svg xmlns="http://www.w3.org/2000/svg" xmlns:xlink="http://www.w3.org/1999/xlink" width="144" height="46" viewBox="0 0 144 46">
    <defs>
        <path id="a" d="M143.439 45.492H3.658s-7.581-9.589 0-16.042c4.183-3.561 9.123-3.193 12.711-2.147 2.338.682 4.67-.895 5.183-3.276.85-3.942 3.469-9.101 10.994-12.15 7.402-2.999 12.085 1.581 14.794 6.286.891 1.548 3.264 1.316 3.802-.388C53.488 10.347 61.666.5 88.535.5c34.175 0 30.377 18.167 27.323 25.718-.53 1.311.592 2.67 1.976 2.374 5.271-1.127 15.056-2.587 19.443.858 6.162 4.837 6.162 16.042 6.162 16.042"/>
        <linearGradient id="b" x1="100.001%" x2="0%" y1="50%" y2="50%">
            <stop offset="0%" stop-color="#D4EBDE"/>
            <stop offset="100%" stop-color="#B0DCDF"/>
        </linearGradient>
    </defs>
    <g fill="none" fill-rule="evenodd">
        <mask id="c" fill="#fff">
            <use xlink:href="#a"/>
        </mask>
        <path fill="url(#b)" d="M143.439 45.492H3.658s-7.581-9.589 0-16.042c4.183-3.561 9.123-3.193 12.711-2.147 2.338.682 4.67-.895 5.183-3.276.85-3.942 3.469-9.101 10.994-12.15 7.402-2.999 12.085 1.581 14.794 6.286.891 1.548 3.264 1.316 3.802-.388C53.488 10.347 61.666.5 88.535.5c34.175 0 30.377 18.167 27.323 25.718-.53 1.311.592 2.67 1.976 2.374 5.271-1.127 15.056-2.587 19.443.858 6.162 4.837 6.162 16.042 6.162 16.042" mask="url(#c)"/>
    </g>
</svg>
