<svg xmlns="http://www.w3.org/2000/svg" xmlns:xlink="http://www.w3.org/1999/xlink" width="326" height="269" viewBox="0 0 326 269">
    <defs>
        <path id="a" d="M.52 24c-3.853 16.92 35.64 19.097 51.915 19.278 4.511.054 9-.38 13.423-1.285 13.761-2.823 43.884-10.227 39.66-20.296-5.45-12.989-21.826-3.931-21.826-3.931S85.746 7.957 57.885 1.48C30.023-4.996 30.133 16.587 30.133 16.587S5.36 2.744.52 24"/>
        <linearGradient id="b" x1="-.001%" y1="50.002%" y2="50.002%">
            <stop offset="0%" stop-color="#D4EBDE"/>
            <stop offset="100%" stop-color="#B0DCDF"/>
        </linearGradient>
    </defs>
    <g fill="none" fill-rule="evenodd">
        <path fill="#FBFBFB" d="M-24-597h375v4458H-24z"/>
        <path fill="#21837F" d="M316.998 246.484c0-14.034-60.245-11.027-105.915-44.107-75.928-7.94-151.477 20.098-196.236 41.995-36.62 17.915 82.111 25.584 155.651 25.625 73.83.04 146.985 0 146.5-23.513z"/>
        <path fill="#F0AB85" d="M256.442 188l7.058 17.45L251.856 235 239.5 194.537 256.442 188"/>
        <path fill="#5BBDB7" d="M74.589 145l-10.73 22.843L53.5 227h10.36c26.64-27.82 26.64-78.875 26.64-78.875L74.589 145"/>
        <path fill="#A0D2BB" d="M159.31 246H49.974c-6.915 0-12.257-6.126-11.38-13.045L50.38 140h15.56s3.184 26.233 3.538 40.955c1.414 16.15-7.78 40.419-7.78 40.419s53.403-32.835 76.391-30.693c18.038 2.319 22.41-1.07 22.41-1.07L159.31 246"/>
        <path fill="#21837F" d="M230.045 163.514s15.521-2.142 26.455 22.854c-4.585 5.713-11.11 9.284-11.11 9.284s1.131 18.098-5.114 22.14c-6.25 4.042-44.797 28.208-44.797 28.208H159.5v-48.561L209.94 162l20.105 1.514"/>
        <path fill="#EC967C" d="M217.369 149c-2.381 0 .887 15.307.887 15.307S218.437 187 226.423 187c9.077 0 9.077-23.36 9.077-23.36v-6.23S219.75 149 217.369 149"/>
        <path fill="#F0AB85" d="M232.456 162.79c2.103.328 4.106.332 5.282-.426C245.5 153.43 245.5 125 245.5 125h-24.835l-3.816 18.056c-1.017 4.82.218 9.857 3.325 13.573 3.454 3.225 7.701 5.452 12.282 6.162"/>
        <path fill="#1B2441" d="M153.041 160.214c20.437-10.997 33.452-5.441 40.21-8.486 11.185-5.04 17.31-39.512 37.148-37.656 19.839 1.855 19.839 15.114 19.839 15.114s4.413 11.33-22.965 8.731c-4.387-.417-9.93 1.876-10.033 6.265-.263 11 .156 20.54.156 20.54s-20.417 6.365-28.14 13.523C181.534 185.407 167.421 222 144.784 222c-21.304-1.856-24.766-44.02 8.257-61.786"/>
        <path fill="#F0AB85" d="M178.012 202l20.422 11.872-9.102 16.769c-2.224 2.91-.188 5 3.494 5.084l50.674 1.197V246h-78.772c-9.247 0 13.284-44 13.284-44"/>
        <path fill="#1B2441" d="M325.5 198h-70.755L231.5 246h70.767l23.233-48"/>
        <path fill="#1B2441" d="M210.5 246h91v-4h-91z"/>
        <path fill="#E7E7E6" d="M282.5 216.001a2.999 2.999 0 0 0 3 2.999 2.999 2.999 0 1 0 0-6 3 3 0 0 0-3 3.001"/>
        <path fill="#F0AB85" d="M50.5 140l2.728-13.368 2.18-.418a12.151 12.151 0 0 1 4.24-.053l2.852.47V140h-12"/>
        <path fill="#EE9E35" d="M54.4 126.668l-11.559-16.01c-1.85-2.566-3.44-5.935-1.353-8.963 0 0 1.372-2.023 3.064-3.691 1.472-.342 21.948 23.202 21.948 23.202l-.01.207c-.137 2.942-1.9 5.587-5.786 5.587l-6.304-.332"/>
        <path fill="#FFFFFE" d="M43.5 99.094L66.5 122l1-1.38L44.542 98 43.5 99.094M51.571 123l-1.071-1.68 2.927-2.32 1.073 1.683L51.571 123M48.039 119l-1.539-1.642L50.964 115l1.536 1.642L48.039 119"/>
        <path fill="#EE9E35" d="M83.731 133.135l-6.43-19.436c-1.03-3.112-1.543-6.918 1.493-9.152 0 0 2.003-1.498 4.215-2.547 1.573.168 14.491 29.92 14.491 29.92l-.076.198c-1.066 2.808-3.66 4.779-7.525 3.466l-6.168-2.45"/>
        <path fill="#FFFFFE" d="M83.5 102.698L98.097 131l1.403-.977L84.85 102l-1.35.698M83.044 129l-.544-1.884L85.956 126l.544 1.884L83.044 129M80.269 124l-.769-1.86 5.231-1.14.769 1.86-5.231 1.14"/>
        <path fill="#F0AB85" d="M78.5 143.873L84.466 133l8.034 2.755L88.776 146 78.5 143.873"/>
        <g transform="translate(-.5)">
            <mask id="c" fill="#fff">
                <use xlink:href="#a"/>
            </mask>
            <path fill="url(#b)" d="M.52 24c-3.853 16.92 35.64 19.097 51.915 19.278 4.511.054 9-.38 13.423-1.285 13.761-2.823 43.884-10.227 39.66-20.296-5.45-12.989-21.826-3.931-21.826-3.931S85.746 7.957 57.885 1.48C30.023-4.996 30.133 16.587 30.133 16.587S5.36 2.744.52 24" mask="url(#c)"/>
        </g>
        <path fill="#EE9E35" d="M224.546 90l17.738-.098s-1.35-5.399-.844-9.546c.192-1.567 1.14-2.953 2.478-3.788 17.383-10.88 13.12-23.306 13.12-23.306s-1.89-15.778-24.234-17.186c-23.823-1.5-22.283 19.678-22.283 19.678s-1.023 11.795 11.376 19.733c1.775 1.135 2.902 3.051 3.168 5.144.67 5.25-.519 9.369-.519 9.369"/>
        <path fill="#5BBDB7" d="M241.466 90l.034 5.906c.011 2.213-1.468 4.03-3.288 4.041l-10.347.053c-1.82.01-3.322-1.792-3.333-4.005l-.032-5.906L241.466 90"/>
        <path fill="#83C8B8" d="M237.5 100l-1.153 2.962-6.428.038-1.419-2.948 9-.052"/>
        <path fill="#FAD473" d="M240.9 61.394c-1.251 1.947-3.25 2.506-5.32 2.331l-.02-3.703a2.617 2.617 0 0 1 .716-1.835c.834-.866 2.322-1.783 4.169-.821 1.164.75 1.304 2.704.455 4.028zm-10.575 1.681c-1.531-.568-3.7-1.733-3.91-3.466-.051-.422.112-.857.39-1.146 2.675-2.749 3.483 2.18 3.471 2.8.058.596.056 1.204.05 1.812zm11.836-1.128c2.55-5.058-3.797-7.526-6.776-4.052-.54.625-.779 1.478-.79 2.322-.02 1.5.011 3.833.011 3.833-.9-.159-1.901-.403-2.659-.633.028-1.445.006-2.94-.399-4.184-1.792-5.518-8.525-1.207-4.573 2.723.924.921 2.285 1.606 3.75 2.098l.346 26.221 1.159-.007-.214-16.116c-.037-2.789-.075-5.575-.11-8.362-.006-.437.004-.905.017-1.381.864.22 1.729.377 2.552.468l.131 25.377 1.158-.006-.13-25.28c.233.01.475.023.692.023 2.2-.02 4.736-.866 5.835-3.044z"/>
        <path fill="#FACB57" d="M210.25 30.742a.873.873 0 0 0-.007-1.23l-8.274-8.26a.855.855 0 0 0-1.22.007.877.877 0 0 0 .006 1.232l8.276 8.258a.857.857 0 0 0 1.22-.007M249.76 30.75a.853.853 0 0 1-.008-1.217l8.26-8.277a.874.874 0 0 1 1.23-.005c.341.333.345.88.007 1.218l-8.26 8.274a.872.872 0 0 1-1.23.007M233.02 28c.264-.002.478-.408.476-.907l-.035-12.195c-.001-.5-.217-.9-.481-.898-.265.002-.478.407-.476.907l.034 12.197c.002.498.217.9.482.896"/>
    </g>
</svg>
