<svg xmlns="http://www.w3.org/2000/svg" xmlns:xlink="http://www.w3.org/1999/xlink" width="291" height="316" viewBox="0 0 291 316">
    <defs>
        <path id="a" d="M104 34H2.448s-5.507-7.246 0-12.123c3.039-2.69 6.628-2.413 9.234-1.621 1.699.515 3.393-.678 3.766-2.477.618-2.98 2.52-6.878 7.987-9.181 5.378-2.267 8.78 1.194 10.748 4.75.648 1.17 2.371.994 2.762-.293C38.65 7.441 44.591 0 64.112 0c24.827 0 22.069 13.729 19.85 19.435-.385.991.43 2.017 1.435 1.794 3.83-.852 10.938-1.955 14.126.648C104 25.533 104 34 104 34"/>
        <linearGradient id="b" x1="100%" x2="0%" y1="50.001%" y2="50.001%">
            <stop offset="0%" stop-color="#D4EBDE"/>
            <stop offset="100%" stop-color="#B0DCDF"/>
        </linearGradient>
        <path id="d" d="M0 22h68.353s3.706-4.689 0-7.844c-2.046-1.742-4.461-1.561-6.216-1.05-1.143.334-2.283-.438-2.535-1.602-.415-1.928-1.696-4.45-5.375-5.941-3.62-1.466-5.91.773-7.234 3.074-.436.757-1.596.643-1.86-.19C43.986 4.815 39.987 0 26.848 0c-16.711 0-14.854 8.883-13.36 12.576a.85.85 0 0 1-.966 1.16c-2.578-.55-7.362-1.265-9.508.42C0 16.52 0 22 0 22"/>
        <linearGradient id="e" x1="0%" y1="50%" y2="50%">
            <stop offset="0%" stop-color="#D4EBDE"/>
            <stop offset="100%" stop-color="#B0DCDF"/>
        </linearGradient>
        <linearGradient id="g" x1="25.656%" x2="78.116%" y1="1.884%" y2="105.573%">
            <stop offset="0%" stop-color="#B0DCDF"/>
            <stop offset="100%" stop-color="#D4EBDE"/>
        </linearGradient>
        <linearGradient id="h" x1="0%" y1="50.003%" y2="50.003%">
            <stop offset="0%" stop-color="#D4EBDE"/>
            <stop offset="100%" stop-color="#B0DCDF"/>
        </linearGradient>
    </defs>
    <g fill="none" fill-rule="evenodd">
        <path fill="#FBFBFB" d="M-42-4155h375v5482H-42z"/>
        <g fill-rule="nonzero">
            <path fill="#FACB57" d="M55 51.845L34.605 62l4.72-20.135L22 28.008l23.313-2.29L55 7l9.687 18.719L88 28.008 70.674 41.865 75.394 62 55 51.845z"/>
            <path fill="#EE9E35" d="M57 51.845V7l9.237 18.718 22.23 2.289-16.52 13.857L76.446 62 57 51.845z"/>
        </g>
        <g transform="translate(184 92)">
            <mask id="c" fill="#fff">
                <use xlink:href="#a"/>
            </mask>
            <path fill="url(#b)" d="M104 34H2.448s-5.507-7.246 0-12.123c3.039-2.69 6.628-2.413 9.234-1.621 1.699.515 3.393-.678 3.766-2.477.618-2.98 2.52-6.878 7.987-9.181 5.378-2.267 8.78 1.194 10.748 4.75.648 1.17 2.371.994 2.762-.293C38.65 7.441 44.591 0 64.112 0c24.827 0 22.069 13.729 19.85 19.435-.385.991.43 2.017 1.435 1.794 3.83-.852 10.938-1.955 14.126.648C104 25.533 104 34 104 34" mask="url(#c)"/>
        </g>
        <g transform="translate(16 63)">
            <mask id="f" fill="#fff">
                <use xlink:href="#d"/>
            </mask>
            <path fill="url(#e)" d="M0 22h68.353s3.706-4.689 0-7.844c-2.046-1.742-4.461-1.561-6.216-1.05-1.143.334-2.283-.438-2.535-1.602-.415-1.928-1.696-4.45-5.375-5.941-3.62-1.466-5.91.773-7.234 3.074-.436.757-1.596.643-1.86-.19C43.986 4.815 39.987 0 26.848 0c-16.711 0-14.854 8.883-13.36 12.576a.85.85 0 0 1-.966 1.16c-2.578-.55-7.362-1.265-9.508.42C0 16.52 0 22 0 22" mask="url(#f)"/>
        </g>
        <path fill="#21837F" d="M193.137 211.842s-4.28-58.81 34.977-77.842c55.251 50.456 4.872 104 4.872 104l-39.849-26.158"/>
        <path fill="#13374D" d="M219.432 229.438s46.594-16.39 68.568 7.739c-19.83 62.71-104 42.83-104 42.83l35.432-50.569"/>
        <path fill="#21837F" d="M288 237.219c-.076.25-.155.496-.233.744l-64.123 18.097 29.421 21.343c-.464.204-.93.403-1.398.597l-29.622-21.488L197 263.58l1.122-1.675 48.762-13.762L260.521 224c.464.054.929.113 1.393.176l-13.254 23.465 38.849-10.964c.163.18.33.355.49.54l.001.002M69.81 200.034c6.787-7.75 16.695-11.48 26.696-10.818 1.671-18.188.129-46.172-21.093-62.216-61.468 37.284-24.246 97-24.246 97l10.121-4.12c.555-7.201 3.532-14.15 8.521-19.846"/>
        <path fill="#005C5A" d="M74.812 198c.42-.346.845-.684 1.28-1.006l.303-19.706L97 163.889a80.734 80.734 0 0 0-.238-1.36l-20.344 13.228.743-48.257c-.21-.166-.411-.336-.624-.5-.216.133-.425.267-.639.4l-1.05 68.31-31.467-28.487c-.133.455-.26.91-.381 1.366l31.822 28.808-.01.603"/>
        <path fill="#13374D" d="M69.434 200.41A31.178 31.178 0 0 1 77 193.905c-3.843-8.39-25.318-51.676-60.688-54.904-26.66 40.145 12.402 77.496 12.402 77.496L61.509 229c-1.82-10.175 1.182-20.595 7.925-28.59"/>
        <path fill="#21837F" d="M62.529 214c.143-.54.302-1.075.471-1.607l-17.68-28.048 10.642-23.265c-.307-.329-.617-.657-.93-.984l-10.511 22.98-27.718-43.974c-.315-.034-.627-.074-.944-.102-.107.157-.203.313-.308.47l14.845 23.552-23.189-3.734c-.04.219-.075.437-.113.655l-.094.581 24.287 3.911 24.74 39.249-40.907-5.257c.267.463.534.92.803 1.368l40.97 5.265L62.53 214"/>
        <path fill="#FACB57" d="M78.96 254.152a175.056 175.056 0 0 1-3.655-6.112c-5.587-2.258-9.732-8.454-11.907-14.08a31.065 31.065 0 0 1-1.635-16.633C51.077 211.919 20.505 198.853 0 214.27c6.449 63.267 89 59.692 89 59.692l-7.45-17.383a6.85 6.85 0 0 1-2.59-2.428"/>
        <path fill="#FFFFFE" d="M77.958 253.813c-.385-.623-.77-1.266-1.156-1.904l-40.51-20.286-8.268-24.53a59.514 59.514 0 0 0-1.33-.093l8.037 23.84L.557 213.729c-.185.135-.372.264-.556.403l-.001.002c.024.242.054.48.08.721L56.486 243.1l-31.324 14.1c.395.271.792.537 1.192.8l31.539-14.195L78 253.875c-.013-.022-.028-.04-.042-.062"/>
        <path fill="url(#g)" d="M61 281h166V48H61z"/>
        <path fill="#1B2441" d="M63 264h162V63H63v201zM221.304 47H66.696C61.913 47 58 50.168 58 54.04v224.92c0 3.873 3.913 7.04 8.696 7.04h154.608c4.783 0 8.696-3.167 8.696-7.04V54.04c0-3.872-3.913-7.04-8.696-7.04z"/>
        <g fill-rule="nonzero">
            <path fill="#FACB57" d="M101.5 305.845L81.414 316l4.65-20.135L69 282.008l22.96-2.29L101.5 261l9.54 18.719 22.96 2.289-17.063 13.857L121.586 316 101.5 305.845z"/>
            <path fill="#EE9E35" d="M104 305.845V261l8.948 18.718 21.536 2.289-16.005 13.857L122.84 316 104 305.845z"/>
        </g>
        <path fill="#5BBDB7" d="M72 255h145V70H72z"/>
        <path fill="#FFFFFE" d="M81.285 89L81 93h54.88l1.12-3.533L81.285 89"/>
        <path fill="#FAD473" d="M139.28 241l-.28 4h53.9l1.1-3.533-54.72-.467"/>
        <path fill="#A0D2BB" d="M82 99l.03 3h59.363l.607-2.65L82 99"/>
        <path fill="#FFFFFE" d="M138 174l.195 21H198l-.46-21H138M82 119l.195 22H142l-.46-22H82"/>
        <path fill="#005C5A" d="M139.196 201H198l-.554 5H139l.196-5"/>
        <path fill="#FFFFFE" d="M139.196 208H198l-.554 5H139l.196-5"/>
        <path fill="#005C5A" d="M81.2 108H141l-.564 3H81l.2-3"/>
        <path fill="#5BBDB7" d="M82.2 116H142l-.564 3H82l.2-3"/>
        <path fill="#A0D2BB" d="M139.196 215H198l-.554 3H139l.196-3"/>
        <path fill="#FAD473" d="M83.14 174H125l-.394 4H83l.14-4M83.14 200H125l-.394 5H83l.14-5M83.14 230H125l-.394 4H83l.14-4"/>
        <path fill="#FFFFFE" d="M84.136 181H125l-.385 3H84l.136-3M84.136 207H125l-.385 3H84l.136-3M84.136 236H125l-.385 4H84l.136-4"/>
        <path fill="#005C5A" d="M83.14 187H125l-.394 3H83l.14-3M83.14 214H125l-.394 3H83l.14-3M83.14 243H125l-.394 4H83l.14-4"/>
        <path fill="#FFFFFE" d="M139 230l.245 6h61.643l.112-6h-62M160.027 87L160 129l41-.02-.06-41.98h-40.913"/>
        <path fill="#005C5A" d="M195.934 129c.032-.44.062-.878.065-1.325.068-10.09-6.616-17.877-14.765-17.671-7.976.201-14.715 8.02-15.217 17.723-.022.429-.018.85-.014 1.273h29.931M189.998 100.558c.09-4.979-3.876-8.773-8.804-8.549-4.869.222-8.956 4.298-9.184 9.174-.232 4.953 3.59 8.932 8.597 8.814 5.069-.118 9.3-4.379 9.391-9.439"/>
        <path fill="#FFFFFE" d="M197.867 155h-59.156c-1.274 0-1.996-.9-1.605-2s1.753-2 3.026-2h59.157c1.274 0 1.996.9 1.605 2s-1.753 2-3.027 2"/>
        <path fill="#13374D" d="M174 151h-33.878c-1.269 0-2.627.9-3.016 2-.39 1.1.33 2 1.6 2h30.753l4.541-4"/>
        <path fill="#FFFFFE" d="M198.867 166h-59.156c-1.274 0-1.996-.9-1.605-2 .392-1.1 1.753-2 3.027-2h59.156c1.274 0 1.996.9 1.605 2-.392 1.1-1.753 2-3.027 2"/>
        <path fill="#13374D" d="M184 162h-43.788c-1.306 0-2.702.9-3.103 2-.401 1.1.34 2 1.645 2h40.806l4.44-4M72 82h145V70H72z"/>
        <path fill="#FACB57" d="M78 80h52v-8H78z"/>
        <path fill="#5BBDB7" d="M194 76c0 2.21 2.015 4 4.5 4s4.5-1.79 4.5-4-2.015-4-4.5-4-4.5 1.79-4.5 4"/>
        <path fill="#005C5A" d="M128 169.176l-1.063-.375c-14.605-5.163-30.298-6.027-45.433-2.818-17.374 3.684-40.934 6.735-53.956.16-8.887-4.488-19.384-28.39-17.274-43.36 1.615-11.463 11.513-19.918 22.833-20.903 17.154-1.491 49.044-2.435 64.385 8.89 21.58 15.929 21.58 43.994 21.58 43.994L128 169.176"/>
        <path fill="#FFFFFE" d="M53 132.5c0 8.008-6.492 14.5-14.5 14.5S24 140.508 24 132.5 30.492 118 38.5 118 53 124.492 53 132.5"/>
        <path fill="#FAD473" d="M59.14 126H101l-.394 4H59l.14-4"/>
        <path fill="#FFFFFE" d="M59.14 133H101l-.394 3H59l.14-3M59.14 139H101l-.394 4H59l.14-4"/>
        <path fill="#FACB57" d="M210.19 19.441s-2.742 2.412-4.355 4.886a1.789 1.789 0 0 0 .172 2.19C209.074 29.91 220 33.17 220 33.17l-.707 3.83s-15.505-2.93-20.997-8.224C192.66 23.345 207.229 12 207.229 12"/>
        <path fill="#13374D" d="M72.857 133l-.857-.633 1-.367-.143 1"/>
        <path fill="#FFFFFE" d="M89 55l-11.384-3.663L72.039 51 68 51.888 89 55"/>
        <path fill="#A0D2BB" d="M89 56l-20.595-2.76L68 52"/>
        <path fill="#5BBDB7" d="M69 56.049l.029.05L70.147 60 88 55l-19 1.049"/>
        <path fill="#FFFFFE" d="M65 55.177L67.394 53 88 55.6 70.771 57 65 55.177"/>
        <path fill="#5BBDB7" d="M27.274 98.12c.2-.31.394-.67.58-1.07.043-.09.1-.056.13.077a.756.756 0 0 1-.025.406 9.346 9.346 0 0 1-.602 1.11c-.075.117-.15.227-.226.332-.028.039-.06.03-.084-.013a.402.402 0 0 1-.04-.137c-.02-.147.002-.32.049-.384.073-.102.146-.21.218-.321M59.335 54c1.05.007 2.146.056 3.352.15.183.014.322.215.313.45-.012.234-.17.413-.353.4a46.637 46.637 0 0 0-3.315-.148.282.282 0 0 1-.162-.055.458.458 0 0 1-.17-.374c.001-.235.151-.425.335-.423M53.212 54.954a.36.36 0 0 1-.208-.262c-.03-.194.13-.37.36-.397A54.353 54.353 0 0 1 57.567 54c.23-.007.425.145.433.34.009.195-.171.36-.401.367a53.475 53.475 0 0 0-4.126.29.48.48 0 0 1-.26-.043M32.402 93.124a.338.338 0 0 1 .472-.05.319.319 0 0 1 .052.458 18.387 18.387 0 0 1-2.37 2.389.344.344 0 0 1-.474-.034.32.32 0 0 1 .034-.46 17.926 17.926 0 0 0 2.286-2.303M34.142 91.972c-.143-.055-.185-.168-.094-.254.145-.138.286-.279.42-.421a8.75 8.75 0 0 0 .943-1.181c.062-.094.24-.14.396-.103.153.037.234.144.172.238-.276.418-.605.83-.978 1.227-.14.148-.285.293-.437.437-.087.083-.267.11-.409.061l-.013-.004M35.188 88.985a.21.21 0 0 1-.058-.04c-.1-.094-.153-.29-.12-.481.21-1.274.368-2.613.48-4.093.018-.232.146-.396.286-.368.14.03.24.242.222.473a46.954 46.954 0 0 1-.495 4.212c-.037.226-.179.358-.315.297M38.954 64.289a15.65 15.65 0 0 0-.595.627c-.287.32-.555.648-.8.977-.068.093-.243.133-.39.09a.224.224 0 0 1-.02-.007c-.132-.047-.187-.152-.121-.24a14.844 14.844 0 0 1 1.43-1.645c.087-.087.258-.122.406-.058.137.055.177.17.09.256M37.974 67.468a22.323 22.323 0 0 0-1.163 3.263c-.05.186-.27.303-.492.26a.44.44 0 0 1-.11-.036c-.154-.073-.24-.225-.199-.377a22.918 22.918 0 0 1 1.195-3.354c.08-.179.317-.269.529-.202.209.066.32.266.24.446M42.902 61.35a23.944 23.944 0 0 0-2.262 1.566c-.107.085-.306.108-.46.057a.549.549 0 0 1-.037-.014c-.157-.068-.19-.198-.073-.29a24.556 24.556 0 0 1 2.317-1.604.547.547 0 0 1 .503-.007c.142.078.147.21.012.293M46.278 56.957c-.059.058-.13.056-.185.003a.27.27 0 0 1-.067-.108c-.052-.145-.024-.332.063-.418a14.044 14.044 0 0 1 1.654-1.409c.094-.067.202.005.242.158.04.154-.002.333-.096.4-.548.396-1.09.858-1.61 1.374M36.515 79a.668.668 0 0 1-.244-.043c-.147-.057-.247-.164-.248-.287l-.007-.423c-.011-.972-.024-1.945-.01-2.917.003-.184.224-.331.494-.33.27.003.486.152.484.337-.013.968-.001 1.937.011 2.905l.005.422c.003.184-.215.335-.485.336M44.17 60.906c-.033.108-.081.122-.118.047a.393.393 0 0 1-.026-.073 1.116 1.116 0 0 1 .008-.513c.255-.825.526-1.599.805-2.301.046-.115.11-.075.142.088.033.164.022.391-.024.507-.273.684-.537 1.44-.786 2.245M36.565 80c.243.001.436.15.435.335a42.235 42.235 0 0 1-.127 3.353c-.016.184-.223.323-.465.311a.555.555 0 0 1-.186-.042c-.141-.062-.231-.18-.221-.312.08-.965.121-2.018.127-3.313.001-.184.197-.333.437-.332"/>
        <path fill="#5BBDB7" d="M36.7 71.003c.19.028.324.195.296.378a33.369 33.369 0 0 0-.302 3.298.343.343 0 0 1-.361.32.364.364 0 0 1-.157-.043.331.331 0 0 1-.176-.306c.056-1.232.157-2.332.308-3.362a.345.345 0 0 1 .392-.285M51.41 54.342c.391-.122.785-.233 1.18-.334.185-.046.366.106.403.342.037.236-.083.466-.269.513-.385.097-.769.206-1.151.325-.71.22-1.422.485-2.119.788a.28.28 0 0 1-.28-.033.427.427 0 0 1-.155-.237c-.062-.228.034-.476.213-.554a21.22 21.22 0 0 1 2.177-.81"/>
        <path fill="#21837F" d="M121.865 29.838l-1.478-.941L125 26.812l-1.91-4.407c-.883-1.88-3.163-3.404-5.342-3.405h-9.496c-2.179.001-4.46 1.525-5.343 3.405L101 26.812l4.613 2.085-1.478.94-.82 7.163 9.685-.154 9.685.154-.82-7.162"/>
        <path fill="#F0AB85" d="M123.774 27l.966 3.657c.704 2.667-.047 5.531-1.948 7.42L118.409 42 117 37.61l2.424-2.591c.796-.851 1.033-2.13.601-3.24l-.93-2.388L123.774 27M106 47.63l-4.193.37-.807-.577.41-1.045 4.03-.378.56 1.63"/>
        <path fill="#21837F" d="M102 48.292l-4.848.64s-4.772.663-4.084-2.153c.664-2.719 4.947-1.512 4.947-1.512l3.985.515c-.48.698-.501 1.698-.055 2.42l.055.09"/>
        <path fill="#FFFFFE" d="M93.032 46.763c.126-1.129.53-1.601.968-1.763v4c-.568-.149-1.143-.67-.968-2.237"/>
        <path fill="#F0AB85" d="M100.5 46v2"/>
        <path fill="#FFFFFE" d="M100.11 48h.78v-2h-.78z"/>
        <path fill="#F0AB85" d="M99.5 46v2"/>
        <path fill="#FFFFFE" d="M99.11 48h.78v-2h-.78z"/>
        <path fill="#F0AB85" d="M101.226 27l-.966 3.657c-.704 2.667.047 5.531 1.948 7.42L106.591 42 108 37.61l-2.424-2.591c-.796-.851-1.033-2.13-.601-3.24l.93-2.388L101.226 27M120 47.834l4.204.166.796-.577-.404-1.045-3.973-.378-.623 1.834"/>
        <path fill="#21837F" d="M124 48.292l5.387.64s5.302.663 4.538-2.153c-.738-2.719-5.498-1.512-5.498-1.512l-4.427.515c.533.698.557 1.698.061 2.42l-.061.09"/>
        <path fill="#FFFFFE" d="M132.936 46.763c-.253-1.129-1.061-1.601-1.936-1.763v4c1.135-.149 2.287-.67 1.936-2.237"/>
        <path fill="#F0AB85" d="M125.5 46v2"/>
        <path fill="#FFFFFE" d="M125.11 48h.78v-2h-.78z"/>
        <path fill="#F0AB85" d="M127 46v2"/>
        <path fill="#FFFFFE" d="M126.22 48h1.56v-2h-1.56z"/>
        <path fill="url(#h)" d="M106 43h15V33h-15z"/>
        <path fill="#BAA6B7" d="M106 44h15v-1h-15z"/>
        <path fill="#FFFFFE" d="M112 36.5c0 .276.673.5 1.5.5.829 0 1.5-.224 1.5-.5s-.671-.5-1.5-.5c-.827 0-1.5.224-1.5.5"/>
        <path fill="#1B2441" d="M132.768 39.15c3.329 6.104-30.2 9.85-30.2 9.85L102 46.281s26.662-14.659 30.768-7.131"/>
        <path fill="#13374D" d="M93.165 39.092C90.42 45.286 122.76 49 122.76 49l.241-2.976S96.412 31.77 93.165 39.092"/>
        <path fill="#EC967C" d="M113 19.055c-.28-1.023-.784-4.055-.784-4.055l-3.216.762v3.31s1.067.92 1.965.928c.981.01 2.069-.83 2.034-.945"/>
        <path fill="#F0AB85" d="M114.798 9.807L114.102 6 107 6.78l.43 4.385s.55 5.427 4.33 4.782c4.089-.698 3.22-6.188 3.038-6.14"/>
        <path fill="#1B2441" d="M116.233 9.317c-.103-.422.04-1.082.325-1.449 1.323-1.704-.679-2.2-1.377-2.346-.772-.163-1.017-1.109-2.054-1.41-1.583-.462-2.474.654-3.333.74-.858.086-1.706-.636-2.702.11-.996.747-.57 1.443-.823 1.845-.253.403-1.292-.272-2.047.988-.574.958.06 1.52.838 1.843.905.376 1.987.376 2.926.056.813-.277 1.936-.741 3.071-1.469.298-.191 2.635-.318 2.829-.057.658.886.712 3.832.712 3.832l.681-.751s1.264-.647.954-1.932"/>
        <path fill="#F0AB85" d="M113.2 10.752c-.413.534-.167 1.079.55 1.216.719.138 1.636-.185 2.05-.72.413-.535.167-1.08-.55-1.216-.719-.138-1.636.185-2.05.72"/>
        <path fill="#13374D" d="M268.737 196L229 77h2.263L271 196h-2.263"/>
        <path fill="#13374D" d="M252.166 142.013L253 144l-20.647-.013L232 142l20.166.013M255.205 154.013L256 156l-19.664-.013L236 154l19.205.013M259.166 168.012L260 170l-20.647-.013L239 168l20.166.012M262.206 179.012L263 181l-19.664-.013L243 179l19.206.012"/>
        <path fill="#A0D2BB" d="M262.286 113.113L264 117l-3.855-1.083L247 111l15.286 2.113"/>
        <path fill="#5BBDB7" d="M264 117l-7-.464 1.753-.536 5.247 1"/>
        <path fill="#FFFFFE" d="M262.677 115l1.323-5-17 2.123L262.677 115"/>
        <path fill="#FFFFFE" d="M247 112l13 3.858-2.152 4.142L247 112"/>
        <path fill="#5BBDB7" d="M262.805 120.964a.35.35 0 0 0 .104-.088.442.442 0 0 0-.015-.557 9.812 9.812 0 0 0-1.376-1.256c-.157-.119-.365-.065-.465.12-.1.183-.054.427.102.544.451.337.881.729 1.278 1.167a.3.3 0 0 0 .372.07M253.632 126.97a3.36 3.36 0 0 0-2.326-.336c-.137.032-.271-.064-.3-.213-.03-.15.058-.296.195-.329a3.785 3.785 0 0 1 2.66.385.29.29 0 0 1 .112.372.264.264 0 0 1-.12.125.234.234 0 0 1-.221-.004zm-5.333 3.024c-.11.03-.22-.062-.243-.205-.123-.762-.044-1.491.23-2.109.1-.224.223-.428.368-.606.081-.102.211-.098.29.008a.324.324 0 0 1-.008.376 2.187 2.187 0 0 0-.295.487c-.225.51-.287 1.093-.183 1.735.02.123-.03.244-.115.295a.18.18 0 0 1-.044.02zm16.477-6.006c-.166.044-.342-.037-.392-.18a8.014 8.014 0 0 0-1.328-2.382c-.099-.122-.063-.291.08-.377a.344.344 0 0 1 .437.068 8.544 8.544 0 0 1 1.413 2.534c.046.13-.028.268-.169.324a.281.281 0 0 1-.04.013zm-8.238 6.865c-.503-1.018-.967-1.763-1.462-2.342a.341.341 0 0 1-.005-.421.221.221 0 0 1 .35-.006c.529.617 1.019 1.4 1.544 2.466.07.141.031.324-.087.408a.339.339 0 0 1-.023.014c-.114.064-.252.015-.317-.119zm-5.014 3.118a9.393 9.393 0 0 1-.733-.332 6.164 6.164 0 0 1-1.738-1.284c-.097-.105-.057-.247.09-.317.146-.07.345-.041.442.064.418.452.963.854 1.575 1.163.215.11.443.212.677.306.154.062.209.202.122.312a.298.298 0 0 1-.144.096.432.432 0 0 1-.29-.008zm12.772-5.976c-.203-.03-.33-.162-.288-.296a5.1 5.1 0 0 0 .172-2.422c-.023-.137.125-.26.33-.275.205-.016.39.083.412.22.147.88.085 1.748-.183 2.581-.025.08-.106.143-.209.174a.549.549 0 0 1-.234.018zm-8.534 6.993a6.361 6.361 0 0 1-2.582-.374c-.133-.05-.209-.223-.17-.39.04-.165.179-.26.31-.211.768.283 1.581.4 2.418.35.138-.008.255.126.262.298.005.13-.055.247-.145.299a.22.22 0 0 1-.093.028zm6.309-2.08a.327.327 0 0 1 .008-.416c.376-.412.704-.869.977-1.357.17-.304.324-.628.456-.962.058-.148.21-.214.339-.146.128.067.184.242.126.39-.142.36-.308.71-.491 1.038a7.956 7.956 0 0 1-1.054 1.464.233.233 0 0 1-.361-.01zm-2.434 2.069a.264.264 0 0 1-.35-.138c-.03-.07-.06-.14-.092-.208a8.776 8.776 0 0 1-.868.26.266.266 0 0 1-.32-.202.27.27 0 0 1 .197-.327c.26-.063.515-.138.766-.226a42.871 42.871 0 0 0-.859-1.738.274.274 0 0 1 .11-.366c.128-.07.29-.02.359.112.332.638.624 1.23.888 1.8a8.006 8.006 0 0 0 1.128-.587.261.261 0 0 1 .365.09.275.275 0 0 1-.087.372 8.533 8.533 0 0 1-1.182.618l.08.181a.274.274 0 0 1-.135.359zm1.205 5.017c-.11.03-.218-.056-.243-.195a22.596 22.596 0 0 0-.586-2.452c-.04-.133.017-.284.118-.33.105-.05.222.017.262.15.257.867.46 1.714.602 2.52.021.12-.028.24-.112.289a.191.191 0 0 1-.041.018zm-.418 4.005c-.237-.016-.408-.138-.383-.274l.02-.112c.12-.753.1-1.54-.058-2.337-.028-.136.142-.26.38-.274.235-.016.45.082.476.218.165.83.185 1.651.061 2.439l-.021.12c-.017.09-.116.163-.248.198a.725.725 0 0 1-.227.022zm-.268 4.96c-.155-.077-.202-.241-.107-.367a8.8 8.8 0 0 0 1.306-2.398c.05-.142.232-.224.407-.184.174.041.275.19.225.332a9.293 9.293 0 0 1-1.378 2.531.312.312 0 0 1-.142.102.395.395 0 0 1-.31-.015zm-4.12 2.914c-.08-.117-.024-.263.124-.327a8.533 8.533 0 0 0 2.307-1.466.364.364 0 0 1 .43-.019c.127.089.137.241.026.34a9.16 9.16 0 0 1-2.473 1.57l-.018.007c-.144.053-.319.008-.395-.105zM254.916 153.722c.062-.074.096-.255.08-.433-.02-.203-.097-.327-.174-.278a1.365 1.365 0 0 1-.68.233c-.08.002-.144.175-.142.384.001.21.067.375.146.372.25-.012.5-.097.744-.253a.122.122 0 0 0 .026-.025"/>
        <path fill="#005C5A" d="M227.753 134c.196.175.386.35.579.525l-12.885 68.132 38.437-22.064c.045.48.083.957.116 1.434l-38.871 22.313-3.718 19.66-1.21-.776 7.412-39.192L199 166.608c.171-.436.345-.87.524-1.306l18.378 17.203 9.103-48.132c.25-.124.494-.253.748-.373"/>
        <path fill="#005C5A" d="M211.553 202.472s33.477-49.741 74.755-45.176c19.56 47.03-28.361 77.333-28.361 77.333L207 243l4.553-40.528"/>
        <path fill="#FFFFFE" d="M242.29 170.967l6.03 26.127L285.335 157c.326.03.651.052.978.089.077.185.144.368.219.553l-19.825 21.475 24.293.908c-.002.237-.011.471-.017.708l-.022.625-25.444-.953-33.038 35.787 42.586 2.99c-.363.428-.727.85-1.091 1.26l-42.653-2.995-23.46 25.411L207 243l.147-1.307 40.104-43.441-6.105-26.453c.377-.28.759-.556 1.143-.832"/>
        <path fill="#13374D" d="M245.563 298.632l7.624-1.62c1.028-.066 2.203.095 2.526 1.272 0 0 .221.78.287 1.588-.221.496-10.387 2.128-10.387 2.128l-.05-.041c-1.267-1.561 0-3.327 0-3.327"/>
        <path fill="#FFFFFE" d="M255.926 300L245 301.594l.159.406L256 300.373l-.074-.373"/>
        <path fill="#13374D" d="M272 294.651l1.653-9.927c.342-1.291.92-2.693 1.966-2.722 0 0 .697-.029 1.356.145.305.429-2.313 13.5-2.313 13.5l-.051.049c-1.711 1.075-2.611-1.045-2.611-1.045"/>
        <path fill="#FFFFFE" d="M278.541 282L276 296l.53-.017 2.47-13.91-.459-.073M272 291.296l.394-1.296 2.606.74-.37 1.26-2.63-.704M272 289.296l.395-1.296 2.605.74-.37 1.26-2.63-.704"/>
        <path fill="#F0AB85" d="M270 295l3.368-.065c.543-.907.76-2.204.557-3.336l-.037-.205-3.147-1.394-.741 5"/>
        <path fill="#005C5A" d="M220 290.658s9.311 3.395 22.96 2.472a15.865 15.865 0 0 1 6.641.986c8.266 3.097 20.522 1.442 20.522 1.442l.877-4.118L230.137 280 220 290.658"/>
        <path fill="#FFFFFE" d="M251.941 255l-5.6 14.723-14.207-1.741-.134 1.169L247.08 271l5.92-15.569-1.059-.431"/>
        <path fill="#5BBDB7" d="M25.439 99.022a.424.424 0 0 1 .54.286.45.45 0 0 1-.274.564 33.408 33.408 0 0 1-4.194 1.12.408.408 0 0 1-.294-.05.445.445 0 0 1-.21-.303.447.447 0 0 1 .34-.525 32.79 32.79 0 0 0 4.092-1.092M20.617 100.003c.181-.024.352.094.38.267.026.172-.101.332-.285.357a85.47 85.47 0 0 1-3.343.371.354.354 0 0 1-.2-.04.314.314 0 0 1-.167-.242c-.02-.173.116-.327.3-.345.919-.086 2.126-.206 3.315-.368M16.54 101c.231-.008.436.058.458.148.022.09-.146.17-.376.178-1.265.047-2.731.103-4.151.173a1.003 1.003 0 0 1-.259-.02c-.11-.025-.192-.069-.209-.122-.029-.09.135-.171.364-.183 1.432-.07 2.905-.126 4.174-.173"/>
        <path fill="#13374D" d="M248.79 196L210 77h2.21L251 196h-2.21"/>
        <path fill="#13374D" d="M242 108.006V109l-20.647-.006L221 108l21 .006M238 97.013V99l-20.647-.013L217 97l21 .013M233 84.013V86l-19.664-.013L213 84l20 .013M245 119.013V121l-20.647-.013L224 119l21 .013M248 132.013V134l-19.664-.013L228 132l20 .013"/>
        <path fill="#FFFFFE" d="M206 76a4 4 0 1 0 8 0 4 4 0 0 0-8 0"/>
        <path fill="#F0AB85" d="M231.503 78l.497 1.707c-.922.368-2.132.391-3.094.06l-.173-.06L228 78h3.503"/>
        <path fill="#EE9E35" d="M213.016 22.062C215.078 29.137 222 40 222 40l-5.467-2.326-3.864-9.28s-1.715-13.408.347-6.332"/>
        <path fill="#1B2441" d="M227.477 50.377L232 78h-4.02s-9.032-24.853-9.98-32.16c0-4.14 9.13 0 9.13 0l.347 4.537"/>
        <path fill="#EC967C" d="M213 9.198L211.736 12 209 10.304 210.847 7 213 9.198"/>
        <path fill="#F0AB85" d="M214.479 10.922c.463.098.905.122 1.166-.035 1.732-1.92 1.31-8.333 1.31-8.333L215.018 1l-3.05 1.298-.884 4.014a3.752 3.752 0 0 0 .7 3.087c.755.764 1.686 1.312 2.694 1.523"/>
        <path fill="#1B2441" d="M211.955 4.545c.282-.667.957-.982 1.556-.715.437.196.965.401 1.487.527 1.244.302 3.562.275 3.959-1.915.396-2.19-2.065-2.002-2.065-2.002l-3.27.26c-.968.078-1.93-.149-2.819-.598-.786-.396-1.484.447-1.652 1.012-.37 1.237.016 3.35.338 4.705.186.783.492 1.52.902 2.181l1.564-3.455"/>
        <path fill="#F0AB85" d="M210.326 5.104c.408-.245 1.04-.042 1.413.453.372.495.343 1.094-.065 1.34-.408.244-1.04.041-1.413-.454-.372-.495-.343-1.095.065-1.34"/>
        <path fill="#1B2441" d="M232.294 79.852s.01 2.55 4.85 4.081c.993.314.67.625.856 1.067h-5.57l-2.18-2.595-.677.617L228 81.387s.273-2.367 1.47-2.387c.988.356 2.824.852 2.824.852"/>
        <path fill="#F0AB85" d="M218 77.14l-1.108 2.75c-1.009.31-2.092-.045-2.77-.906l-.122-.156.895-2.828L218 77.14"/>
        <path fill="#FACB57" d="M211.968 12.562s.427-.644-3.369-2.562C202.88 15.592 201 37 201 37h14.96c.506-12.217-3.992-24.438-3.992-24.438"/>
        <path fill="#F0AB85" d="M225.983 37.225a.565.565 0 0 0-.3-.638l-2.35-1.25a2.939 2.939 0 0 0-1.924-.284l-2.547.092-.333.37L218 37.58c.51-.113.81-.184.81-.184l1.618.04s3.053 2.6 4.565.34c.063 2.405.832 2.22.832 2.22l.158-2.771"/>
        <path fill="#13374D" d="M201.275 38l-.222 1.75a3.22 3.22 0 0 1-.009.072c-.394 3.342 1.897 6.44 5.268 7.348 0 0 6.685 2.128 15.123 2.572-5.54 6.834-7.071 26.013-7.071 26.013L217.933 77l13.782-31.547c.881-2.016-.364-4.304-2.589-4.76L215.962 38h-14.687"/>
        <path fill="#FFFFFE" d="M207.608 25.616c-.348.67-.295 1.52.131 2.115 1.211 1.687 4.44 3.49 7.26 4.796-.004.21.003.224 0 .473-2.96-1.345-6.224-3.127-7.545-4.97-.537-.746-.604-1.814-.167-2.657 1.394-2.692 3.778-5.346 3.802-5.373l.255.338c-.023.026-2.37 2.64-3.736 5.278M201.063 33c6.337 2.439 15.622 4.186 18.937 4.68a1.877 1.877 0 0 1-.099.32c-3.19-.465-12.388-2.15-18.901-4.618.008-.128.035-.262.063-.382"/>
        <path fill="#21837F" d="M231.545 42L236 25.24l-.818-.24-4.248 15.982-12.789-2.339-.145.88L231.545 42"/>
        <path fill="#1B2441" d="M216.494 78.83s-.19 2.572 4.65 4.103c.992.314.67.625.856 1.067h-5.57l-2.18-2.595-.677.617L212 80.387s.734-2.367 1.932-2.387c.987.356 2.562.83 2.562.83"/>
        <path fill="#FFFFFE" d="M248.069 297.28L249 297l-.097 2.716L248 300l.069-2.72M251.069 297.28L252 297l-.097 2.716L251 300l.069-2.72"/>
        <path fill="#F0AB85" d="M244 296.61l.889 3.242c.644.286 1.424.151 2.005-.345l.106-.09-.018-3.417-2.982.61"/>
        <path fill="#EC967C" d="M215.422 249L214 252.187l2.887.813 1.113-2.583-2.578-1.417"/>
        <path fill="#F0AB85" d="M215.013 242L214 246.644c.532.092.704.647.483 1.054a.76.76 0 0 1-.006.357 6.584 6.584 0 0 0 4.45 1.942c3.506.148 3.054-5.887 3.054-5.887l-6.968-2.11"/>
        <path fill="#1B2441" d="M212.088 243.993c.073-.34-.272-1.157-.516-1.437-1.57-1.805.51-2.48 1.24-2.687.804-.23.974-1.294 2.048-1.694 1.64-.61 2.696.57 3.619.612.922.041 1.754-.813 2.887-.047 1.132.765.747 1.564 1.055 1.995.308.43 1.349-.384 2.275.967 1.41 2.053-2.536 2.027-2.536 2.027s-2.249.288-4.697-1.121c-.336-.193-.796-.215-1.11.003-.858.595-1.987 4.389-1.987 4.389l-.72-.795s-1.889-.66-1.558-2.212"/>
        <path fill="#F0AB85" d="M214.011 246.15a1 1 0 1 0 1.977-.3 1 1 0 0 0-1.977.3"/>
        <path fill="#21837F" d="M207 278.246s.925 10.639 10.389 11.44c9.463.8 21.044-9.78 21.044-9.78L243.06 296l3.669-.568s1.69-23.767-3.35-25.243c-5.04-1.476-24.27 6.184-24.27 6.184L207 278.246"/>
        <path fill="#FFFFFE" d="M206.211 279L222 276.503s-1.068-3.591-1.266-7.343c-.15-2.84.875-5.379.875-5.379-.863-6.278-3.06-12.392-8.394-11.732-9.113 2.322-7.004 26.951-7.004 26.951"/>
        <path fill="#F0AB85" d="M215 263.097l6.65-1.097.704 8.077 11.718-4.001 2.6-1.877a3.072 3.072 0 0 1 2.283-.558l3.226.508c.333.052.594.335.645.696l1.174 3.73s-.766.617-2.008-2.525c-.584 3.715-5.442 1.25-5.442 1.25l-1.63 1.249s-12.547 10.072-15.705 8.225c-3.158-1.847-4.215-13.677-4.215-13.677"/>
        <path fill="#F0AB85" d="M242.748 266.11c-.055-.322-.334-.575-.688-.622l-3.442-.455a3.766 3.766 0 0 0-2.435.5l-2.774 1.68-.409.118.445 2.669c.549-.355.868-.57.868-.57l1.74-1.12s5.182 2.21 5.805-1.12c1.324 2.815 2.142 2.263 2.142 2.263l-1.252-3.342"/>
        <path fill="#5BBDB7" d="M10 101.36a29.145 29.145 0 0 1 1.65-.355c.164-.032.319.093.346.277.027.185-.084.358-.248.388-.543.101-1.055.211-1.545.33-.06-.214-.133-.427-.203-.64"/>
    </g>
</svg>
