<svg xmlns="http://www.w3.org/2000/svg" width="567" height="432" viewBox="0 0 567 432">
    <g fill="none" fill-rule="evenodd">
        <path fill="#5BBDB7" d="M566.5 10.868A120.602 120.602 0 0 0 560 .5c-12.983 23.42-37.34 48.14-42.617 44.92-4.607-2.809-9.687-12.755-11.672-29.819-4.146 1.48-8.32 3.225-12.138 4.887-7.864 20.04 8.704 46.567 15.418 50.664 7.013 4.277 54.413-31.753 57.509-60.284"/>
        <path fill="#FFFFFE" d="M28.772 391.75c-5.809-14.596-5.767-30.062-1.068-43.85-10.398-5.23-19.021-14.11-23.676-25.806-10.09-25.363 2.202-54.137 27.459-64.269 25.26-10.132 53.917 2.211 64.008 27.574 2.731 6.862 3.773 13.968 3.41 20.895.71.132 1.418.247 2.12.405L297.078 112.5l13.422 10.621-133.975 223.086c9.264 4.435 17.043 12.343 21.22 22.84 8.597 21.609-1.26 45.873-22.019 54.2-15.6 6.26-32.917 1.728-44.207-10.084a62.603 62.603 0 0 1-20.98 13.811c-32.264 12.945-68.875-2.826-81.767-35.224"/>
        <path fill="#EC967C" d="M393.5 46.48l-7.341 13.02-10.659-9.846L385.692 34.5l7.808 11.98"/>
        <path fill="#F0AB85" d="M397.276 48.853c1.738.556 3.42.858 4.496.477 7.512-5.428 8.728-26.732 8.728-26.732l-6.751-6.098-12.3 2.707-5.176 12.748c-1.382 3.403-.893 7.305 1.325 10.508 2.556 2.901 5.893 5.18 9.678 6.39M185.014 221.5l-7.13-2.51c-.918-2.534-.16-5.336 1.937-7.162l.375-.328 7.304 1.957-2.486 8.043"/>
        <path fill="#21837F" d="M359.5 164.458s-44.457 89.29-97.466 78.066L181.5 221.358l.744-11.298 76.171 8.816a71.16 71.16 0 0 0 12.768.256l52.195-75.632 36.122 20.958"/>
        <path fill="#F0AB85" d="M188.688 249.5l-7.274-1.228a6.605 6.605 0 0 1 .458-7.381l.295-.391 7.333.66-.812 8.34"/>
        <path fill="#13374D" d="M386.786 58.439C396.81 86.896 359.595 165.5 359.595 165.5L310.5 147.982C328.06 71.444 376.43 48.5 376.43 48.5l10.356 9.939"/>
        <path fill="#005C5A" d="M349.5 161.424s-27.1 96.26-81.385 95.065l-83.236-5.867-1.379-11.272 76.637-5.488a71.162 71.162 0 0 0 12.62-2.126l37.27-84.236 39.473 13.924"/>
        <path fill="#F0AB85" d="M486.5 66.5l13.125-2.318c5.25-1.33 7.163-9.698 6.84-15.576-.045-.882-1.057-1.389-1.845-.939-4.123 2.366-14.706 8.53-17.284 10.883l-.836 7.95"/>
        <path fill="#13374D" d="M420.97 63.589c2.366.643 2.456 24.92-.198 24.91-14.749-.058-63.745-1.635-60.077-20.22 3.684-18.661 47.52-8.162 60.276-4.69z"/>
        <path fill="#F0AB85" d="M420.97 63.589c3.218.538 5.636.7 7.253.49l59.277-4.997-.823 8.243-58.092 19.96c-1.688.542-4.292.947-7.813 1.215l.199-24.911z"/>
        <path fill="#13374D" d="M358.731 63.446a40.307 40.307 0 0 1 8.354 2.054c5.161-12.929 6.037-22.763 1.35-26.461-4.623-3.644-13.785-.64-24.935 7.144 1.067 1.907 1.917 3.9 2.631 5.937 1.3 1.44 11.413 10.544 12.6 11.326"/>
        <path fill="#FACB57" d="M353.326 58.095c-4.241-3.337-7.434-7.38-9.478-11.595-11.734 8.133-25.714 21.635-38.958 38.396l-.131.164c-6.872 8.718-5.23 21.378 3.498 28.243l2.33 1.834c8.728 6.865 21.453 5.503 28.344-3.198l.129-.167c13.34-16.88 23.284-33.715 28.44-47.044-4.792-.928-9.729-3.137-14.174-6.633"/>
        <path fill="#EE9E35" d="M367.5 64.93c-4.693-.905-9.518-3.061-13.89-6.43l-44.11 55.719 1.192.934c8.712 6.84 21.414 5.483 28.291-3.187l.129-.166c13.315-16.818 23.242-33.59 28.388-46.87"/>
        <path fill="#13374D" d="M301.448 102.5l-1.948 2.593 21.052 17.407 1.948-2.593-21.052-17.407"/>
        <path fill="#13374D" d="M302.854 107.5l-8.354 3.888 21.944 17.112 2.056-8.796-15.646-12.204"/>
        <path fill="#FFFFFE" d="M103.092 200l-1.272.008.396 1.733h1.234l-.358-1.741M100.364 200l-1.272.008.395 1.733h1.235l-.358-1.741"/>
        <g>
            <path fill="#1B2441" d="M182.023 208.505l-6.154 20.214c-1.097 2.599-2.766 5.366-5.21 5.17 0 0-1.628-.114-3.123-.636-.609-.968 8.52-27.476 8.52-27.476l.131-.087c4.233-1.811 5.836 2.815 5.836 2.815"/>
            <path fill="#1B2441" d="M168.15 232.571l8.323-26.693-1.501-.206-8.116 26.545 1.293.354"/>
            <path fill="#FFFFFE" d="M179.971 216.888l-.47 1.488-2.713-1.338.443-1.447 2.74 1.297M178.697 220.26l-.47 1.49-2.713-1.339.443-1.447 2.74 1.297"/>
        </g>
        <g>
            <path fill="#1B2441" d="M181.619 238.323l1.499 21.077c-.093 2.82-.659 6.001-3.012 6.693 0 0-1.56.478-3.143.526-.915-.686-1.892-28.704-1.892-28.704l.092-.128c3.302-3.208 6.456.536 6.456.536"/>
            <path fill="#1B2441" d="M177.291 265.763l-1.794-27.904-1.476.347 1.936 27.69 1.334-.133"/>
            <path fill="#FFFFFE" d="M182.708 246.885l.095 1.557-3.013-.276-.105-1.51 3.023.229M182.727 250.49l.095 1.558-3.012-.276-.106-1.51 3.023.228"/>
        </g>
        <path fill="#1B2441" d="M381.186 23.233c.319-1.102-.353-3.913-.93-4.913-3.72-6.442 2.278-8.073 4.368-8.547 2.312-.524 3.152-4.005 6.267-5.018 4.756-1.548 7.273 2.676 9.813 3.081 2.54.406 5.145-2.183 8.014.684 2.872 2.87 1.525 5.404 2.23 6.92.705 1.519 3.869-.877 5.965 3.869 3.188 7.22-7.733 5.984-7.733 5.984s-6.33.3-12.621-5.084c-.862-.74-2.13-.945-3.074-.316-2.59 1.727-7.039 13.973-7.039 13.973l-1.718-2.845s-5.001-2.74-3.542-7.788"/>
    </g>
</svg>
