<svg xmlns="http://www.w3.org/2000/svg" xmlns:xlink="http://www.w3.org/1999/xlink" width="489" height="369" viewBox="0 0 489 369">
    <defs>
        <path id="a" d="M.778 36.267c-5.762 25.568 53.293 28.857 77.629 29.131a93.513 93.513 0 0 0 20.072-1.942c20.578-4.266 65.622-15.454 59.304-30.67-8.15-19.627-32.637-5.94-32.637-5.94s3.073-14.822-38.59-24.609C44.896-7.55 45.059 25.064 45.059 25.064S8.015 4.147.778 36.267"/>
        <linearGradient id="b" x1="-.001%" y1="50.002%" y2="50.002%">
            <stop offset="0%" stop-color="#D4EBDE"/>
            <stop offset="100%" stop-color="#B0DCDF"/>
        </linearGradient>
    </defs>
    <g fill="none" fill-rule="evenodd">
        <path fill="#FBFBFB" d="M-1059-903H861v5357h-1920z"/>
        <path fill="#21837F" d="M1064.551 640.065c-27.999-169.78-40.998-184.76-658.48-320.584-339.26-34.042-495.485 97.873-695.479 191.751-163.621 76.805 366.89 109.683 695.48 109.857 329.888.176 673.056 107.365 658.48 18.976z"/>
        <path fill="#F0AB85" d="M385.413 281L396 306.99 378.534 351 360 290.736 385.413 281"/>
        <path fill="#5BBDB7" d="M111.778 216L96.12 250.544 81 340h15.12C135 297.932 135 220.726 135 220.726L111.778 216"/>
        <path fill="#A0D2BB" d="M239.204 369H74.306c-10.429 0-18.485-9.13-17.164-19.445L74.92 211h23.468s4.802 39.103 5.335 61.045c2.133 24.073-11.733 60.248-11.733 60.248s80.542-48.943 115.213-45.75C234.406 290 241 284.948 241 284.948L239.204 369"/>
        <path fill="#21837F" d="M345.181 245.271s23.362-3.212 39.819 34.28c-6.902 8.57-16.722 13.927-16.722 13.927s1.702 27.147-7.698 33.21C351.173 332.751 293.153 369 293.153 369H239v-72.842L314.92 243l30.261 2.271"/>
        <path fill="#EC967C" d="M325.28 224c-3.508 0 1.308 22.558 1.308 22.558S326.855 280 338.624 280C352 280 352 245.576 352 245.576v-9.183S328.789 224 325.28 224"/>
        <path fill="#F0AB85" d="M349.21 243.691c3.19.482 6.228.488 8.013-.628C369 229.895 369 188 369 188h-37.681l-5.79 26.608c-1.543 7.103.331 14.527 5.045 20.003 5.24 4.753 11.685 8.034 18.635 9.08"/>
        <path fill="#1B2441" d="M230.013 240.321c30.823-16.495 50.452-8.162 60.643-12.73 16.87-7.558 26.108-59.267 56.028-56.483 29.92 2.782 29.92 22.671 29.92 22.671s6.656 16.994-34.634 13.097c-6.618-.627-14.976 2.813-15.132 9.397-.397 16.5.235 30.809.235 30.809s-30.794 9.548-42.44 20.285C272.985 278.11 251.7 333 217.56 333c-32.132-2.785-37.352-66.029 12.453-92.679"/>
        <path fill="#F0AB85" d="M267.364 303l30.758 17.808-13.709 25.153c-3.35 4.365-.282 7.5 5.263 7.627L366 355.383V369H247.355c-13.927 0 20.009-66 20.009-66"/>
        <path fill="#1B2441" d="M489 297H382.114L347 369h106.903L489 297"/>
        <path fill="#1B2441" d="M316 369h138v-6H316z"/>
        <path fill="#E7E7E6" d="M423 323.001c0 2.21 1.79 3.999 4 3.999s4-1.79 4-3.999a4 4 0 1 0-8 0"/>
        <path fill="#F0AB85" d="M77 211l4.092-21.008 3.271-.656a17.412 17.412 0 0 1 6.36-.084l4.277.74V211H77"/>
        <path fill="#EE9E35" d="M81.385 190.497l-17.783-24.293c-2.848-3.892-5.293-9.004-2.081-13.598 0 0 2.11-3.07 4.712-5.6 2.265-.518 33.767 35.203 33.767 35.203l-.014.314c-.213 4.463-2.925 8.477-8.903 8.477l-9.698-.503"/>
        <path fill="#FFFFFE" d="M66 147.641L100.499 182l1.501-2.071L67.563 146 66 147.641M77.607 184L76 181.479 80.39 178l1.61 2.524L77.607 184M73.051 178L71 175.537 76.952 172 79 174.463 73.051 178"/>
        <path fill="#EE9E35" d="M126.019 199.787l-9.797-28.583c-1.571-4.576-2.352-10.173 2.274-13.458 0 0 3.052-2.203 6.423-3.746 2.397.246 22.081 44 22.081 44l-.116.29c-1.625 4.13-5.577 7.029-11.467 5.099l-9.398-3.602"/>
        <path fill="#FFFFFE" d="M125 154.06L146.896 197l2.104-1.483L127.025 153 125 154.06M123.816 193l-.816-2.512 5.184-1.488.816 2.512-5.184 1.488M121.025 185L120 182.52l6.975-1.52 1.025 2.48-6.975 1.52"/>
        <path fill="#F0AB85" d="M117 216.728L126.374 200 139 204.238 133.147 220 117 216.728"/>
        <g>
            <mask id="c" fill="#fff">
                <use xlink:href="#a"/>
            </mask>
            <path fill="url(#b)" d="M.778 36.267c-5.762 25.568 53.293 28.857 77.629 29.131a93.513 93.513 0 0 0 20.072-1.942c20.578-4.266 65.622-15.454 59.304-30.67-8.15-19.627-32.637-5.94-32.637-5.94s3.073-14.822-38.59-24.609C44.896-7.55 45.059 25.064 45.059 25.064S8.015 4.147.778 36.267" mask="url(#c)"/>
        </g>
        <path fill="#EE9E35" d="M336.92 134l26.418-.145s-2.01-7.998-1.258-14.142c.286-2.321 1.699-4.375 3.691-5.613 25.89-16.117 19.541-34.527 19.541-34.527s-2.815-23.374-36.094-25.46c-35.48-2.223-33.187 29.152-33.187 29.152s-1.524 17.475 16.944 29.234c2.643 1.682 4.321 4.52 4.718 7.62.998 7.777-.773 13.881-.773 13.881"/>
        <path fill="#5BBDB7" d="M362.948 134l.052 9.45c.017 3.54-2.245 6.448-5.029 6.465l-15.824.085c-2.785.017-5.081-2.867-5.098-6.408l-.049-9.45 25.948-.142"/>
        <path fill="#83C8B8" d="M357 150l-1.794 3.95-9.998.05-2.208-3.93 14-.07"/>
        <path fill="#FAD473" d="M361.552 91.932c-1.912 2.864-4.971 3.685-8.137 3.429l-.03-5.447a3.77 3.77 0 0 1 1.096-2.698c1.276-1.274 3.55-2.621 6.376-1.207 1.78 1.102 1.995 3.977.695 5.923zm-16.172 2.473c-2.343-.836-5.659-2.549-5.98-5.097-.079-.622.17-1.261.595-1.687 4.091-4.041 5.328 3.206 5.31 4.118.088.877.085 1.771.075 2.666zm18.1-1.66c3.902-7.438-5.806-11.067-10.362-5.959-.825.92-1.191 2.174-1.208 3.415-.032 2.205.017 5.638.017 5.638a38.633 38.633 0 0 1-4.067-.932c.043-2.124.009-4.324-.61-6.153-2.741-8.115-13.039-1.774-6.994 4.006 1.414 1.354 3.494 2.361 5.735 3.085.178 12.855.352 25.705.53 38.56l1.771-.012-.326-23.699c-.057-4.1-.114-8.199-.169-12.297-.008-.642.006-1.331.026-2.031 1.322.324 2.644.555 3.904.688l.2 37.32 1.772-.01-.2-37.177c.357.015.726.035 1.058.035 3.366-.029 7.244-1.273 8.924-4.477z"/>
        <path fill="#FACB57" d="M315.6 47.587c.536-.55.534-1.43-.01-1.968l-13.24-13.216a1.368 1.368 0 0 0-1.95.012 1.403 1.403 0 0 0 .008 1.97l13.242 13.213a1.37 1.37 0 0 0 1.95-.011M374.415 46.6a1.364 1.364 0 0 1-.012-1.948l13.215-13.243a1.398 1.398 0 0 1 1.968-.008 1.37 1.37 0 0 1 .012 1.95l-13.215 13.237a1.395 1.395 0 0 1-1.968.012M349.04 43c.528-.003.956-.64.952-1.426l-.07-19.163c-.002-.785-.434-1.414-.962-1.411-.53.003-.956.64-.952 1.426l.068 19.166c.004.782.434 1.414.964 1.408"/>
    </g>
</svg>
