<svg xmlns="http://www.w3.org/2000/svg" xmlns:xlink="http://www.w3.org/1999/xlink" width="263" height="105" viewBox="0 0 263 105">
    <defs>
        <path id="a" d="M182.368.01l-59.483 2.316L0 47.04l224.897-33.5z"/>
        <linearGradient id="b" x1="4.447%" x2="87.614%" y1="46.249%" y2="55.634%">
            <stop offset="0%" stop-color="#DFEFE9"/>
            <stop offset="100%" stop-color="#BFE2ED"/>
        </linearGradient>
        <path id="d" d="M.508 25.478l195.857 25.708 66.696-21.525L236.805.02z"/>
        <linearGradient id="f" x1="4.447%" x2="87.614%" y1="46.75%" y2="54.882%">
            <stop offset="0%" stop-color="#DFEFE9"/>
            <stop offset="100%" stop-color="#BFE2ED"/>
        </linearGradient>
    </defs>
    <g fill="none" fill-rule="evenodd">
        <g transform="scale(-1 1) rotate(7 5.005 -2110.375)">
            <mask id="c" fill="#fff">
                <use xlink:href="#a"/>
            </mask>
            <path fill="url(#b)" d="M182.368.01l-59.483 2.316L0 47.04l224.897-33.5z" mask="url(#c)"/>
        </g>
        <path fill="#AFD8C7" d="M262.964 30.989L41.79 37.076l-6.327-12.258z"/>
        <path fill="#63C0C4" d="M64.982 104.202L47.12 74.718l-.392-.353 216.235-43.376z"/>
        <g transform="scale(-1 1) rotate(7 -173.535 -2113.747)">
            <mask id="e" fill="#fff">
                <use xlink:href="#d"/>
            </mask>
            <path d="M.508 25.478l195.857 25.708 66.696-21.525L236.805.02z" mask="url(#e)"/>
        </g>
        <path fill="url(#f)" d="M236.663 24.227L.916 49.599l195.438 25.628 66.562-21.457-26.2-29.543z" transform="scale(-1 1) rotate(7 10.988 -2092.028)"/>
    </g>
</svg>
