<svg xmlns="http://www.w3.org/2000/svg" xmlns:xlink="http://www.w3.org/1999/xlink" width="684" height="547" viewBox="0 0 684 547">
    <defs>
        <path id="a" d="M143.439 45.492H3.658s-7.581-9.589 0-16.042c4.183-3.561 9.123-3.193 12.711-2.147 2.338.682 4.67-.895 5.183-3.276.85-3.942 3.469-9.101 10.994-12.15 7.402-2.999 12.085 1.581 14.794 6.286.891 1.548 3.264 1.316 3.802-.388C53.488 10.347 61.666.5 88.535.5c34.175 0 30.377 18.167 27.323 25.718-.53 1.311.592 2.67 1.976 2.374 5.271-1.127 15.056-2.587 19.443.858 6.162 4.837 6.162 16.042 6.162 16.042"/>
        <linearGradient id="b" x1="100.001%" x2="0%" y1="50%" y2="50%">
            <stop offset="0%" stop-color="#D4EBDE"/>
            <stop offset="100%" stop-color="#B0DCDF"/>
        </linearGradient>
        <path id="d" d="M182.368.01l-59.483 2.316L0 47.04l224.897-33.5z"/>
        <linearGradient id="e" x1="4.447%" x2="87.614%" y1="46.249%" y2="55.634%">
            <stop offset="0%" stop-color="#DFEFE9"/>
            <stop offset="100%" stop-color="#BFE2ED"/>
        </linearGradient>
        <path id="g" d="M.508 25.478l195.857 25.708 66.696-21.525L236.805.02z"/>
        <linearGradient id="i" x1="4.447%" x2="87.614%" y1="46.75%" y2="54.882%">
            <stop offset="0%" stop-color="#DFEFE9"/>
            <stop offset="100%" stop-color="#BFE2ED"/>
        </linearGradient>
        <path id="j" d="M1.275 25.306c-4.068 17.681 37.628 19.955 54.81 20.147a67.444 67.444 0 0 0 14.172-1.346C84.786 41.159 116.59 33.421 112.13 22.9c-5.755-13.573-23.043-4.109-23.043-4.109S91.257 8.543 61.84 1.774C32.424-4.994 32.541 17.56 32.541 17.56S6.386 3.095 1.275 25.306"/>
        <linearGradient id="k" x1="0%" x2="99.999%" y1="50%" y2="50%">
            <stop offset="0%" stop-color="#D4EBDE"/>
            <stop offset="100%" stop-color="#B0DCDF"/>
        </linearGradient>
    </defs>
    <g fill="none" fill-rule="evenodd">
        <path fill="#FBFBFB" d="M-230-2832h1920v5357H-230z"/>
        <path fill="#F6FAFD" d="M-230-64h1920v683H-230z" opacity=".9"/>
        <path fill="#5BBDB7" d="M566.5 125.868A120.602 120.602 0 0 0 560 115.5c-12.983 23.42-37.34 48.14-42.617 44.92-4.607-2.809-9.687-12.755-11.672-29.819-4.146 1.48-8.32 3.225-12.138 4.887-7.864 20.04 8.704 46.567 15.418 50.664 7.013 4.277 54.413-31.753 57.509-60.284"/>
        <path fill="#FFFFFE" d="M28.772 506.75c-5.809-14.596-5.767-30.062-1.068-43.85-10.398-5.23-19.021-14.11-23.676-25.806-10.09-25.363 2.202-54.137 27.459-64.269 25.26-10.132 53.917 2.211 64.008 27.574 2.731 6.862 3.773 13.968 3.41 20.895.71.132 1.418.247 2.12.405L297.078 227.5l13.422 10.621-133.975 223.086c9.264 4.435 17.043 12.343 21.22 22.84 8.597 21.609-1.26 45.873-22.019 54.2-15.6 6.26-32.917 1.728-44.207-10.084a62.603 62.603 0 0 1-20.98 13.811c-32.264 12.945-68.875-2.826-81.767-35.224"/>
        <path fill="#EC967C" d="M393.5 161.48l-7.341 13.02-10.659-9.846 10.192-15.154 7.808 11.98"/>
        <path fill="#F0AB85" d="M397.276 163.853c1.738.556 3.42.858 4.496.477 7.512-5.428 8.728-26.732 8.728-26.732l-6.751-6.098-12.3 2.707-5.176 12.748c-1.382 3.403-.893 7.305 1.325 10.508 2.556 2.901 5.893 5.18 9.678 6.39M185.014 336.5l-7.13-2.51c-.918-2.534-.16-5.336 1.937-7.162l.375-.328 7.304 1.957-2.486 8.043"/>
        <path fill="#21837F" d="M359.5 279.458s-44.457 89.29-97.466 78.066L181.5 336.358l.744-11.298 76.171 8.816a71.16 71.16 0 0 0 12.768.256l52.195-75.632 36.122 20.958"/>
        <path fill="#F0AB85" d="M188.688 364.5l-7.274-1.228a6.605 6.605 0 0 1 .458-7.381l.295-.391 7.333.66-.812 8.34"/>
        <path fill="#13374D" d="M386.786 173.439C396.81 201.896 359.595 280.5 359.595 280.5L310.5 262.982c17.56-76.538 65.93-99.482 65.93-99.482l10.356 9.939"/>
        <path fill="#005C5A" d="M349.5 276.424s-27.1 96.26-81.385 95.065l-83.236-5.867-1.379-11.272 76.637-5.488a71.162 71.162 0 0 0 12.62-2.126l37.27-84.236 39.473 13.924"/>
        <path fill="#F0AB85" d="M486.5 181.5l13.125-2.318c5.25-1.33 7.163-9.698 6.84-15.576-.045-.882-1.057-1.389-1.845-.939-4.123 2.366-14.706 8.53-17.284 10.883l-.836 7.95"/>
        <path fill="#13374D" d="M420.97 178.589c2.366.643 2.456 24.92-.198 24.91-14.749-.058-63.745-1.635-60.077-20.22 3.684-18.661 47.52-8.162 60.276-4.69z"/>
        <path fill="#F0AB85" d="M420.97 178.589c3.218.538 5.636.7 7.253.49l59.277-4.997-.823 8.243-58.092 19.96c-1.688.542-4.292.947-7.813 1.215l.199-24.911z"/>
        <path fill="#13374D" d="M358.731 178.446a40.307 40.307 0 0 1 8.354 2.054c5.161-12.929 6.037-22.763 1.35-26.461-4.623-3.644-13.785-.64-24.935 7.144 1.067 1.907 1.917 3.9 2.631 5.937 1.3 1.44 11.413 10.544 12.6 11.326"/>
        <path fill="#FACB57" d="M353.326 173.095c-4.241-3.337-7.434-7.38-9.478-11.595-11.734 8.133-25.714 21.635-38.958 38.396l-.131.164c-6.872 8.718-5.23 21.378 3.498 28.243l2.33 1.834c8.728 6.865 21.453 5.503 28.344-3.198l.129-.167c13.34-16.88 23.284-33.715 28.44-47.044-4.792-.928-9.729-3.137-14.174-6.633"/>
        <path fill="#EE9E35" d="M367.5 179.93c-4.693-.905-9.518-3.061-13.89-6.43l-44.11 55.719 1.192.934c8.712 6.84 21.414 5.483 28.291-3.187l.129-.166c13.315-16.818 23.242-33.59 28.388-46.87"/>
        <path fill="#13374D" d="M301.448 217.5l-1.948 2.593 21.052 17.407 1.948-2.593-21.052-17.407"/>
        <path fill="#13374D" d="M302.854 222.5l-8.354 3.888 21.944 17.112 2.056-8.796-15.646-12.204"/>
        <path fill="#FFFFFE" d="M103.092 315l-1.272.008.396 1.733h1.234l-.358-1.741M100.364 315l-1.272.008.395 1.733h1.235l-.358-1.741"/>
        <g>
            <path fill="#1B2441" d="M182.023 323.505l-6.154 20.214c-1.097 2.599-2.766 5.366-5.21 5.17 0 0-1.628-.114-3.123-.636-.609-.968 8.52-27.476 8.52-27.476l.131-.087c4.233-1.811 5.836 2.815 5.836 2.815"/>
            <path fill="#1B2441" d="M168.15 347.571l8.323-26.693-1.501-.206-8.116 26.545 1.293.354"/>
            <path fill="#FFFFFE" d="M179.971 331.888l-.47 1.488-2.713-1.338.443-1.447 2.74 1.297M178.697 335.26l-.47 1.49-2.713-1.339.443-1.447 2.74 1.297"/>
        </g>
        <g>
            <path fill="#1B2441" d="M181.619 353.323l1.499 21.077c-.093 2.82-.659 6.001-3.012 6.693 0 0-1.56.478-3.143.526-.915-.686-1.892-28.704-1.892-28.704l.092-.128c3.302-3.208 6.456.536 6.456.536"/>
            <path fill="#1B2441" d="M177.291 380.763l-1.794-27.904-1.476.347 1.936 27.69 1.334-.133"/>
            <path fill="#FFFFFE" d="M182.708 361.885l.095 1.557-3.013-.276-.105-1.51 3.023.229M182.727 365.49l.095 1.558-3.012-.276-.106-1.51 3.023.228"/>
        </g>
        <path fill="#1B2441" d="M381.186 138.233c.319-1.102-.353-3.913-.93-4.913-3.72-6.442 2.278-8.073 4.368-8.547 2.312-.524 3.152-4.005 6.267-5.018 4.756-1.548 7.273 2.676 9.813 3.081 2.54.406 5.145-2.183 8.014.684 2.872 2.87 1.525 5.404 2.23 6.92.705 1.519 3.869-.877 5.965 3.869 3.188 7.22-7.733 5.984-7.733 5.984s-6.33.3-12.621-5.084c-.862-.74-2.13-.945-3.074-.316-2.59 1.727-7.039 13.973-7.039 13.973l-1.718-2.845s-5.001-2.74-3.542-7.788"/>
        <g transform="translate(540)">
            <mask id="c" fill="#fff">
                <use xlink:href="#a"/>
            </mask>
            <path fill="url(#b)" d="M143.439 45.492H3.658s-7.581-9.589 0-16.042c4.183-3.561 9.123-3.193 12.711-2.147 2.338.682 4.67-.895 5.183-3.276.85-3.942 3.469-9.101 10.994-12.15 7.402-2.999 12.085 1.581 14.794 6.286.891 1.548 3.264 1.316 3.802-.388C53.488 10.347 61.666.5 88.535.5c34.175 0 30.377 18.167 27.323 25.718-.53 1.311.592 2.67 1.976 2.374 5.271-1.127 15.056-2.587 19.443.858 6.162 4.837 6.162 16.042 6.162 16.042" mask="url(#c)"/>
        </g>
        <g>
            <g transform="scale(-1 1) rotate(7 -3267.268 -5167.821)">
                <mask id="f" fill="#fff">
                    <use xlink:href="#d"/>
                </mask>
                <path fill="url(#e)" d="M182.368.01l-59.483 2.316L0 47.04l224.897-33.5z" mask="url(#f)"/>
            </g>
            <path fill="#AFD8C7" d="M659.964 406.989l-221.174 6.087-6.327-12.258z"/>
            <path fill="#63C0C4" d="M461.982 480.202l-17.861-29.484-.392-.353 216.235-43.376z"/>
            <g transform="scale(-1 1) rotate(7 -3445.808 -5171.193)">
                <mask id="h" fill="#fff">
                    <use xlink:href="#g"/>
                </mask>
                <path d="M.508 25.478l195.857 25.708 66.696-21.525L236.805.02z" mask="url(#h)"/>
            </g>
            <path fill="url(#i)" d="M236.663 24.227L.916 49.599l195.438 25.628 66.562-21.457-26.2-29.543z" transform="scale(-1 1) rotate(7 -3261.285 -5149.474)"/>
        </g>
        <g transform="translate(65 115)">
            <mask id="l" fill="#fff">
                <use xlink:href="#j"/>
            </mask>
            <path fill="url(#k)" d="M1.275 25.306c-4.068 17.681 37.628 19.955 54.81 20.147a67.444 67.444 0 0 0 14.172-1.346C84.786 41.159 116.59 33.421 112.13 22.9c-5.755-13.573-23.043-4.109-23.043-4.109S91.257 8.543 61.84 1.774C32.424-4.994 32.541 17.56 32.541 17.56S6.386 3.095 1.275 25.306" mask="url(#l)"/>
        </g>
    </g>
</svg>
