<svg xmlns="http://www.w3.org/2000/svg" width="518" height="552" viewBox="0 0 518 552">
    <g fill="none" fill-rule="evenodd">
        <path fill="#FBFBFB" d="M-349-1522h1920v5357H-349z"/>
        <path fill="#21837F" d="M1774.551 21.065c-27.999-169.78-40.998-184.76-658.48-320.584-339.26-34.042-495.485 97.873-695.479 191.751C256.971-30.963 787.482 1.915 1116.072 2.09c329.888.176 673.056 107.365 658.48 18.976z"/>
        <path fill="#21837F" d="M-349-121h1920v683H-349z"/>
        <path fill="#FBFBFB" d="M631 621.897C631 595.04 611 562 508 562 96 504 244.502 429-27.5 429-391.18 429-686 515.363-686 621.897c0 53.162 329.901-11.523 658.5-11.418 329.899.106 658.5 64.79 658.5 11.418z"/>
        <path fill="#005C5A" d="M217.023 96.5s-10.974 49.62-5.486 69.31c2.033 7.3 6.974 12.866 12.388 16.983 11.546 8.778 18.276 22.524 17.917 37.067-.38 15.419.5 32.8 5.75 38.89 10.19 11.813 17.245 15.75 17.245 15.75H286v-89s-10.974-23.628-37.23-37.016c-26.26-13.39-31.747-51.984-31.747-51.984"/>
        <path fill="#FAD473" d="M273.127 274.5c-.733-.523-17.953-13.296-17.953-54.161 0-40.178-27.892-75.488-28.174-75.84l1.182-.999c.285.357 28.525 36.104 28.525 76.839 0 40.05 17.121 52.746 17.293 52.87l-.873 1.291"/>
        <path fill="#FACB57" d="M311.985 269.5S326 215.542 326 201.469c0-8.201-4.756-19.056-8.727-26.69a38.722 38.722 0 0 1-4.28-20.648c.808-11.32 1.444-28.251-1.008-37.116-.587-5.272-10.039-18.853-25.01-32.341-9.434-8.5-14.559-20.837-13.587-33.528C277.004 3.928 257.482.5 257.482.5s9.343 9.566-12.457 44.573c-13.952 22.402-.8 51.037 10.48 68.754 7.146 11.225 9.765 24.752 7.426 37.866-2.237 12.544-3.962 27.622-1.556 36.48 2.056 7.57 5.468 13.927 8.644 18.674a47.19 47.19 0 0 1 7.944 25.56l.542 37.093h33.48"/>
        <path fill="#FFFFFE" d="M299.379 270.5l-1.454-.631c.257-.586 25.434-59.062-3.123-106.29C262.54 110.216 255.072 56.245 255 55.706l1.576-.207c.071.536 7.502 54.198 39.588 107.264 28.983 47.938 3.475 107.144 3.215 107.736"/>
        <path fill="#5BBDB7" d="M242.664 268.271s-19.346 25.835-.22 45.375c10.997 11.235 36.42 10.869 56.042 8.527 20.616-2.46 36.084-20.345 34.387-40.848-.537-6.479-2.774-12.524-7.951-16.825-41.371 10.305-82.258 3.771-82.258 3.771"/>
        <path fill="#13374D" d="M238 306.255c1.312 2.778 3.144 5.519 5.65 8.148 10.98 11.512 36.359 11.137 55.948 8.737 12.7-1.553 23.436-9.133 29.402-19.64-29.545 5.466-59.875 6.406-91 2.755M424.79 348.415l24.257-3.885c3.272-.158 7.012.227 8.04 3.05 0 0 .703 1.872.913 3.81-.706 1.193-33.05 5.11-33.05 5.11l-.158-.101c-4.03-3.745-.002-7.984-.002-7.984"/>
        <path fill="#FFFFFE" d="M458.78 351.5L426 356.285l.478 1.215L459 352.62l-.22-1.12M435.136 346.873L437 346.5l-.195 3.62-1.805.38.136-3.627M439.137 345.873L441 345.5l-.194 3.62-1.806.38.137-3.627"/>
        <path fill="#F0AB85" d="M422 341.026l2.963 8.104c2.147.714 4.748.378 6.685-.863l.352-.226-.06-8.541-9.94 1.526"/>
        <path fill="#13374D" d="M504 336.13l4.3-24.82c.89-3.228 2.39-6.732 5.11-6.806 0 0 1.812-.071 3.526.36.791 1.075-6.014 33.754-6.014 33.754l-.133.122c-4.449 2.686-6.789-2.61-6.789-2.61"/>
        <path fill="#FFFFFE" d="M516.93 305.5l-5.93 33 1.236-.04L518 305.672l-1.07-.172M504 326.093l.526-2.593 3.474 1.482-.492 2.518-3.508-1.407M506 321.094l.526-2.594 3.474 1.48-.493 2.52-3.507-1.406"/>
        <path fill="#F0AB85" d="M495 336.5l8.417-.128c1.36-1.815 1.903-4.41 1.396-6.673l-.091-.41-7.87-2.789-1.852 10"/>
        <path fill="#005C5A" d="M353 324.477s26.656 8.913 65.73 6.49c6.446-.4 12.915.494 19.011 2.588 23.662 8.13 58.75 3.785 58.75 3.785L499 326.53 382.021 296.5 353 324.477"/>
        <path fill="#EC967C" d="M338.622 204.5L334 214.86l9.382 2.64 3.618-8.394-8.378-4.606"/>
        <path fill="#F0AB85" d="M339.913 183.5L337 199.173c1.529.31 2.024 2.182 1.389 3.56.075.39.07.803-.018 1.201 2.173 2.564 6.354 6.237 12.796 6.557 10.078.499 8.778-19.871 8.778-19.871l-20.032-7.12"/>
        <path fill="#1B2441" d="M332.032 193.475c.202-1.13-.76-3.855-1.438-4.79-4.373-6.017 1.421-8.266 3.45-8.956 2.245-.763 2.717-4.313 5.708-5.646 4.568-2.036 7.514 1.901 10.082 2.04 2.568.137 4.889-2.71 8.042-.158 3.156 2.553 2.08 5.214 2.94 6.649.86 1.436 3.756-1.277 6.337 3.223 3.925 6.847-7.065 6.76-7.065 6.76s-6.263.96-13.084-3.737c-.934-.645-2.216-.717-3.09.007-2.394 1.988-5.54 14.633-5.54 14.633l-2.006-2.65s-5.26-2.202-4.336-7.375"/>
        <path fill="#21837F" d="M314 289.606s2.753 31.097 30.906 33.437c28.154 2.34 62.608-28.585 62.608-28.585l13.761 47.042 10.915-1.659s5.027-69.473-9.964-73.79c-14.993-4.313-72.204 18.08-72.204 18.08L314 289.606"/>
        <path fill="#1B2441" d="M313.62 289.5l46.38-7.027s-3.137-10.111-3.718-20.672c-.441-7.993 2.569-15.139 2.569-15.139-2.533-17.674-8.985-34.882-24.656-33.024-26.771 6.537-20.575 75.862-20.575 75.862"/>
        <path fill="#83C8B8" d="M444.925 224.5l-16.268 41.411-41.27-4.9-.387 3.29 43.802 5.199L448 225.713l-3.075-1.213"/>
        <path fill="#F0AB85" d="M341 249.352l18.346-2.852 1.94 21 32.326-10.403 7.175-4.879a8.868 8.868 0 0 1 6.295-1.45l8.9 1.32c.917.137 1.64.871 1.778 1.809l3.24 9.7s-2.115 1.6-5.541-6.567c-1.61 9.66-15.01 3.25-15.01 3.25l-4.499 3.247s-34.613 26.187-43.323 21.385c-8.71-4.804-11.627-35.56-11.627-35.56"/>
        <g>
            <path fill="#FACB57" d="M457 133.5c0 17.95-14.55 32.5-32.5 32.5-17.947 0-32.5-14.55-32.5-32.5s14.553-32.5 32.5-32.5c17.95 0 32.5 14.55 32.5 32.5"/>
            <path fill="#FFFFFE" d="M409 138h34s-3.578 17-17.277 17c-13.7 0-16.723-17-16.723-17M439.883 126c.069-.354.117-.72.117-1.111 0-2.147-1.121-3.889-2.5-3.889-1.38 0-2.5 1.742-2.5 3.889 0 .391.046.757.115 1.111h4.768M416.86 126c.08-.354.14-.72.14-1.111 0-2.147-1.345-3.889-3.001-3.889-1.658 0-2.999 1.742-2.999 3.889 0 .391.055.757.138 1.111h5.722"/>
        </g>
        <g>
            <path fill="#F0AB85" d="M115.192 210.155L133 246l-19.623-1.011L112 209l3.192 1.155"/>
            <path fill="#FFFFFE" d="M83.955 193.024l18.414-.024L110 308H77l6.955-114.976"/>
            <path fill="#13374D" d="M53.535 530s-4.214 3.368-3.44 7.66c.771 4.29 1.864 14.34 1.864 14.34h4.332l-.133-9.374c.013-.613 9.293 9.374 10.865 9.374h22.925s1.524-6.322-11.939-8.354C64.547 541.612 53.535 530 53.535 530"/>
            <path fill="#F0AB85" d="M63.11 525l3.252 8.675a11.11 11.11 0 0 0 4.433 5.765c2.288 1.501 5.873 3.594 11.205 5.211-6.522 5.706-16.902-.251-22.84-4.466-2.894-2.053-4.941-5.118-5.8-8.612L52 525h11.11"/>
            <path fill="#13374D" d="M97.537 530s-4.214 3.368-3.443 7.66c.774 4.29 1.867 14.34 1.867 14.34h4.332l-.133-9.374c.012-.613 9.29 9.374 10.862 9.374h22.926s1.522-6.322-11.938-8.354C108.546 541.612 97.537 530 97.537 530"/>
            <path fill="#F0AB85" d="M107.109 525l3.254 8.675a11.095 11.095 0 0 0 4.43 5.765c2.291 1.501 5.875 3.594 11.207 5.211-6.521 5.706-16.9-.251-22.838-4.466-2.894-2.053-4.941-5.118-5.803-8.612L96 525h11.109"/>
            <path fill="#21837F" d="M70.199 308s-2.985 17.082 14.181 101.038C70.484 452.791 92.737 526 92.737 526h16.22L120 308H70.199"/>
            <path fill="#FAD473" d="M100 194l5.797 138L125 323.903s-8.653-25.905-7.831-61.893c-2.937-26.025 12.059-12.316-6.312-62.424C104.017 193.976 100 194 100 194"/>
            <path fill="#EC967C" d="M103 180.492l-2.196 11.534c-.968 5.075-6.733 7.59-11.11 4.848L82 192.052 95.737 161 103 180.492"/>
            <path fill="#5BBDB7" d="M56.68 308s-21.048 17.082-4.048 101.038C38.87 452.791 51.014 526 51.014 526h14.42L106 308H56.68"/>
            <path fill="#FAD473" d="M85.034 182s-18.2 10.072-23.854 19.064c-5.392 8.57-7.257 28.079-7.775 45.444C52.693 270.353 41 333 41 333h48.785L91 196.623 85.034 182"/>
            <path fill="#1B2441" d="M120.118 145.316c-10.879-2.754-21.342 8.39-21.342 8.39l-8.184 44.043-12.584-19.384s-.72-26.336 11.447-43.775c8.711-10.562 25.432-7.53 33.886 2.74 4.11 4.997 4.969 11.893 4.571 18.24-.536 8.52-2.95 57.43-2.95 57.43l-24.922-18.446s.599-4.974 2.983-14.018c4.104-15.565 24.399-33.369 17.095-35.22"/>
            <path fill="#F0AB85" d="M95.71 152.224c1.662-.772 3.81.513 4.797 2.877.989 2.359.444 4.902-1.217 5.674-1.662.774-3.807-.51-4.797-2.872-.989-2.361-.444-4.902 1.217-5.679"/>
            <path fill="#F0AB85" d="M106.853 182.097c2.017.756 3.994 1.18 5.306.7 9.434-6.953 12.841-34.725 12.841-34.725L117.53 140l-14.878 3.325-7.332 16.541a15.464 15.464 0 0 0 .61 13.734c2.778 3.827 6.535 6.853 10.923 8.497"/>
            <path fill="#1B2441" d="M120.991 143.37c-.712 8.9-21.89 9.63-21.89 9.63L98 140.95l12.345-7.95 9.77 6.879s.987 2.004.876 3.49M121.112 145.665C120.402 149.432 123.3 156 123.3 156l1.7-4.05-.046-3.509-1.68-2.734s-1.45-3.812-2.162-.042"/>
            <path fill="#F0AB85" d="M66.047 201.104c-22.883 2.691-12.074 62.163-7.158 86.585 1.21 6.008 7.309 9.676 13.113 7.832C91.912 289.194 121 262.923 121 262.923l-4.612-5.848-38.64 9.087s14.827-68.178-11.701-65.058"/>
            <path fill="#13374D" d="M113.26 243.9l-7.232 47.478c-.21 1.374.792 2.622 2.104 2.622h28.632c1.047 0 1.94-.81 2.105-1.907l7.104-47.477c.206-1.375-.796-2.616-2.106-2.616h-28.503c-1.047 0-1.937.805-2.104 1.9"/>
            <path fill="#EE9E35" d="M20.26 144.293c8.46-1.56 12.206 3.525 13.245 5.304 1.037-1.779 4.777-6.824 13.246-5.304 11.811 2.124 10.172 14.272 10.172 14.272s1.427 9.627-21.512 22.264c-.621.343-1.19.675-1.744.995v.17c-.008.002-.01.006-.02.006-.046-.026-.095-.057-.142-.083l-.015.006-.147.013v-.112c-.553-.32-1.122-.652-1.742-.995-22.94-12.637-21.513-22.264-21.513-22.264s-1.732-12.073 10.172-14.272"/>
            <path fill="#EE9E35" d="M34 149.191c1.353-2.067 5.16-6.436 12.873-4.852 10.884 2.237 10.11 14.35 10.11 14.35s1.418 9.682-21.38 22.39c-.568.316-1.093.625-1.603.921v-32.809M5.895 97.177c4.859-.943 7.012 2.134 7.608 3.21.594-1.076 2.745-4.132 7.608-3.21 6.785 1.286 5.845 8.637 5.845 8.637s.818 5.83-12.358 13.48a44.41 44.41 0 0 0-1.003.602v.102l-.01.002-.082-.05-.008.004-.084.009v-.067c-.32-.196-.646-.396-1.002-.603C-.768 111.643.05 105.814.05 105.814s-.994-7.306 5.845-8.637"/>
            <path fill="#EE9E35" d="M15 100.87c.824-1.144 3.142-3.557 7.834-2.683 6.625 1.238 6.155 7.931 6.155 7.931s.862 5.35-13.013 12.373c-.346.174-.666.345-.976.509v-18.13M38.584 54.131c3.779-.697 5.454 1.577 5.918 2.372.464-.795 2.136-3.052 5.919-2.372 5.278.95 4.544 6.385 4.544 6.385s.64 4.308-9.61 9.961c-.279.153-.532.3-.781.445v.074c-.002.002-.004.004-.006.004-.024-.01-.045-.026-.066-.037l-.006.002-.065.007v-.05c-.25-.144-.503-.292-.779-.445-10.25-5.653-9.613-9.961-9.613-9.961s-.774-5.403 4.545-6.385"/>
            <path fill="#EE9E35" d="M45 56.322c.588-.924 2.245-2.878 5.597-2.17 4.734 1 4.395 6.42 4.395 6.42s.619 4.33-9.294 10.014c-.247.142-.476.28-.698.414V56.322"/>
        </g>
    </g>
</svg>
