<svg xmlns="http://www.w3.org/2000/svg" width="326" height="347" viewBox="0 0 326 347">
    <g fill="none" fill-rule="evenodd">
        <path fill="#FBFBFB" d="M-32-1233h375v4458H-32z"/>
        <path fill="#21837F" d="M-32-48h375v748H-32z"/>
        <path fill="#005C5A" d="M136.423 60.65s-6.912 31.186-3.455 43.56c1.28 4.588 4.393 8.087 7.803 10.674 7.272 5.517 11.511 14.156 11.286 23.296-.24 9.69.314 20.615 3.621 24.442 6.418 7.425 10.862 9.899 10.862 9.899h13.33v-55.935s-6.912-14.851-23.45-23.265c-16.54-8.415-19.997-32.672-19.997-32.672"/>
        <path fill="#FAD473" d="M171.762 172.52c-.462-.328-11.308-8.356-11.308-34.039 0-25.251-17.569-47.443-17.746-47.665l.744-.627c.18.224 17.967 22.69 17.967 48.292 0 25.171 10.785 33.15 10.893 33.228l-.55.812"/>
        <path fill="#FACB57" d="M196.238 169.378s8.827-33.912 8.827-42.757c0-5.154-2.996-11.976-5.497-16.774a24.292 24.292 0 0 1-2.696-12.977c.51-7.114.91-17.755-.634-23.327-.37-3.313-6.324-11.849-15.754-20.326-5.942-5.342-9.17-13.096-8.558-21.072C174.204 2.469 161.907.315 161.907.315s5.885 6.011-7.846 28.013c-8.788 14.08-.504 32.076 6.601 43.212 4.501 7.054 6.151 15.556 4.678 23.798-1.41 7.884-2.496 17.36-.98 22.927 1.294 4.757 3.443 8.753 5.444 11.737a29.613 29.613 0 0 1 5.004 16.064l.341 23.312h21.089"/>
        <path fill="#FFFFFE" d="M188.297 170.007l-.916-.397c.162-.368 16.02-37.12-1.967-66.802-20.32-33.537-25.024-67.458-25.07-67.797l.993-.13c.045.337 4.725 34.063 24.935 67.415 18.256 30.128 2.189 67.339 2.025 67.711"/>
        <path fill="#5BBDB7" d="M152.574 168.606s-12.186 16.237-.139 28.518c6.927 7.06 22.94 6.83 35.3 5.359 12.985-1.546 22.728-12.787 21.659-25.673-.338-4.072-1.747-7.87-5.008-10.574-26.059 6.476-51.812 2.37-51.812 2.37"/>
        <path fill="#13374D" d="M149.636 192.479c.827 1.745 1.98 3.468 3.56 5.12 6.915 7.236 22.9 7 35.239 5.492 8-.977 14.762-5.74 18.52-12.344-18.61 3.436-37.714 4.026-57.319 1.732M267.29 218.976l15.278-2.442c2.061-.1 4.417.143 5.064 1.917 0 0 .444 1.176.576 2.395-.445.75-20.818 3.211-20.818 3.211l-.1-.063c-2.538-2.354 0-5.018 0-5.018"/>
        <path fill="#FFFFFE" d="M288.7 220.915l-20.648 3.007.3.764 20.486-3.067-.139-.704M273.806 218.006l1.175-.234-.123 2.276-1.137.238.085-2.28M276.326 217.378l1.174-.234-.122 2.275-1.138.239.086-2.28"/>
        <path fill="#F0AB85" d="M265.532 214.332l1.867 5.093c1.352.449 2.99.238 4.21-.542l.222-.142-.037-5.368-6.262.959"/>
        <path fill="#13374D" d="M317.182 211.254l2.708-15.599c.56-2.028 1.505-4.23 3.22-4.276 0 0 1.14-.046 2.22.225.498.676-3.788 21.214-3.788 21.214l-.084.077c-2.802 1.688-4.276-1.64-4.276-1.64"/>
        <path fill="#FFFFFE" d="M325.326 192.004l-3.735 20.74.778-.025L326 192.112l-.674-.108M317.182 204.946l.331-1.629 2.188.931-.31 1.583-2.21-.885M318.442 201.805l.33-1.63 2.189.93-.31 1.584-2.21-.884"/>
        <path fill="#F0AB85" d="M311.513 211.487l5.302-.08c.856-1.14 1.198-2.772.879-4.194l-.058-.258-4.956-1.752-1.167 6.284"/>
        <path fill="#005C5A" d="M222.071 203.93s16.79 5.603 41.402 4.08c4.06-.252 8.134.31 11.975 1.626 14.903 5.11 37.004 2.38 37.004 2.38l1.58-6.794-73.681-18.874-18.28 17.583"/>
        <path fill="#EC967C" d="M213.015 128.527l-2.911 6.51 5.91 1.66 2.278-5.276-5.277-2.894"/>
        <path fill="#F0AB85" d="M213.828 115.328l-1.834 9.85c.962.196 1.274 1.372.874 2.238.048.245.044.505-.011.755 1.369 1.611 4.002 3.92 8.06 4.12 6.348.314 5.53-12.488 5.53-12.488l-12.619-4.475"/>
        <path fill="#1B2441" d="M208.864 121.597c.127-.71-.479-2.422-.906-3.01-2.754-3.782.896-5.195 2.174-5.629 1.414-.48 1.71-2.71 3.595-3.548 2.877-1.28 4.732 1.195 6.35 1.281 1.618.087 3.08-1.702 5.065-.099 1.988 1.605 1.311 3.278 1.853 4.18.541.902 2.366-.803 3.99 2.025 2.473 4.304-4.449 4.249-4.449 4.249s-3.945.603-8.241-2.35c-.589-.404-1.396-.45-1.946.006-1.508 1.249-3.49 9.196-3.49 9.196l-1.263-1.666s-3.313-1.383-2.732-4.635"/>
        <path fill="#21837F" d="M197.506 182.015s1.734 19.544 19.467 21.015c17.734 1.47 39.435-17.966 39.435-17.966l8.668 29.566 6.875-1.043s3.166-43.663-6.276-46.376c-9.444-2.71-45.48 11.363-45.48 11.363l-22.689 3.441"/>
        <path fill="#1B2441" d="M197.267 181.948l29.214-4.416s-1.976-6.355-2.342-12.992c-.278-5.024 1.618-9.515 1.618-9.515-1.596-11.108-5.66-21.923-15.53-20.755-16.863 4.108-12.96 47.678-12.96 47.678"/>
        <path fill="#83C8B8" d="M279.972 141.096l-10.247 26.027-25.994-3.08-.244 2.067 27.59 3.268 10.832-27.52-1.937-.762"/>
        <path fill="#F0AB85" d="M214.513 156.716l11.556-1.793 1.222 13.199 20.36-6.539 4.52-3.066a5.595 5.595 0 0 1 3.965-.912l5.605.83a1.341 1.341 0 0 1 1.12 1.137l2.042 6.097s-1.332 1.005-3.49-4.128c-1.014 6.071-9.455 2.043-9.455 2.043l-2.834 2.04s-21.801 16.459-27.287 13.44c-5.487-3.018-7.324-22.348-7.324-22.348"/>
        <g>
            <path fill="#FACB57" d="M288 83.5c0 11.322-9.178 20.5-20.5 20.5-11.32 0-20.5-9.178-20.5-20.5S256.18 63 267.5 63c11.322 0 20.5 9.178 20.5 20.5"/>
            <path fill="#FFFFFE" d="M257.723 86.338h21.446s-2.256 10.724-10.898 10.724c-8.641 0-10.548-10.724-10.548-10.724M277.203 78.77c.044-.224.074-.455.074-.702 0-1.354-.707-2.453-1.578-2.453-.87 0-1.576 1.099-1.576 2.453 0 .247.03.478.072.701h3.008M262.681 78.77a3.15 3.15 0 0 0 .088-.702c0-1.354-.848-2.453-1.893-2.453-1.046 0-1.891 1.099-1.891 2.453 0 .247.035.478.086.701h3.61"/>
        </g>
        <g>
            <path fill="#F0AB85" d="M72.586 132.145l11.222 22.53-12.365-.636-.868-22.62 2.011.726"/>
            <path fill="#FFFFFE" d="M52.903 121.378l11.603-.015 4.81 72.28H48.52l4.382-72.265"/>
            <path fill="#13374D" d="M33.734 333.173s-2.655 2.117-2.167 4.814c.486 2.696 1.174 9.013 1.174 9.013h2.73l-.083-5.892c.007-.385 5.855 5.892 6.846 5.892H56.68s.96-3.973-7.523-5.25c-8.484-1.279-15.423-8.577-15.423-8.577"/>
            <path fill="#F0AB85" d="M39.768 330.03l2.049 5.452a6.985 6.985 0 0 0 2.794 3.624c1.442.943 3.7 2.259 7.06 3.275-4.11 3.586-10.65-.158-14.392-2.807-1.824-1.29-3.114-3.217-3.655-5.413l-.857-4.13h7"/>
            <path fill="#13374D" d="M61.461 333.173s-2.655 2.117-2.169 4.814c.488 2.696 1.176 9.013 1.176 9.013h2.73l-.084-5.892c.008-.385 5.854 5.892 6.845 5.892h14.447s.959-3.973-7.523-5.25c-8.484-1.279-15.422-8.577-15.422-8.577"/>
            <path fill="#F0AB85" d="M67.493 330.03l2.05 5.452a6.976 6.976 0 0 0 2.793 3.624c1.443.943 3.702 2.259 7.061 3.275-4.11 3.586-10.65-.158-14.39-2.807-1.824-1.29-3.114-3.217-3.657-5.413l-.857-4.13h7"/>
            <path fill="#005C5A" d="M44.235 193.643s-1.88 10.736 8.936 63.504c-8.756 27.499 5.266 73.512 5.266 73.512h10.22l6.96-137.016H44.234"/>
            <path fill="#FAD473" d="M63.014 121.992l3.652 86.735 12.101-5.09s-5.452-16.28-4.935-38.9c-1.85-16.357 7.599-7.74-3.977-39.234-4.31-3.526-6.841-3.511-6.841-3.511"/>
            <path fill="#EC967C" d="M64.904 113.502l-1.384 7.25c-.61 3.19-4.242 4.77-7 3.046l-4.849-3.03 8.656-19.517 4.577 12.251"/>
            <path fill="#5BBDB7" d="M35.716 193.643s-13.263 10.736-2.55 63.504c-8.672 27.499-1.02 73.512-1.02 73.512h9.086l25.563-137.016h-31.08"/>
            <path fill="#FAD473" d="M53.583 114.45s-11.468 6.33-15.031 11.982c-3.398 5.386-4.573 17.648-4.9 28.562-.448 14.987-7.816 54.361-7.816 54.361h30.741l.765-85.714-3.759-9.191"/>
            <path fill="#1B2441" d="M75.69 91.393c-6.854-1.73-13.448 5.273-13.448 5.273l-5.157 27.682-7.93-12.183s-.453-16.552 7.214-27.513c5.489-6.639 16.026-4.733 21.353 1.723 2.59 3.14 3.13 7.474 2.88 11.463-.338 5.355-1.859 36.096-1.859 36.096L63.04 122.34s.377-3.126 1.88-8.81c2.586-9.783 15.374-20.973 10.772-22.137"/>
            <path fill="#F0AB85" d="M60.31 95.735c1.047-.485 2.401.323 3.023 1.808.623 1.483.28 3.081-.767 3.566-1.047.487-2.399-.32-3.022-1.804-.624-1.485-.28-3.081.767-3.57"/>
            <path fill="#F0AB85" d="M67.332 114.51c1.271.476 2.517.742 3.344.44 5.944-4.37 8.091-21.824 8.091-21.824l-4.707-5.074-9.375 2.09-4.62 10.396a9.697 9.697 0 0 0 .384 8.632c1.75 2.405 4.118 4.308 6.883 5.34"/>
            <path fill="#1B2441" d="M76.241 90.17c-.449 5.595-13.793 6.053-13.793 6.053l-.695-7.574 7.78-4.996 6.156 4.323s.622 1.26.552 2.194M76.317 91.613c-.447 2.367 1.379 6.495 1.379 6.495l1.071-2.545-.029-2.205-1.059-1.719s-.913-2.396-1.362-.026"/>
            <path fill="#F0AB85" d="M41.619 126.457c-14.42 1.692-7.608 39.07-4.51 54.42.761 3.776 4.605 6.081 8.262 4.923 12.546-3.977 30.876-20.49 30.876-20.49l-2.907-3.675-24.348 5.712s9.343-42.851-7.373-40.89"/>
            <path fill="#13374D" d="M71.37 153.355l-4.558 29.84c-.132.864.5 1.648 1.326 1.648H86.18c.66 0 1.223-.508 1.326-1.198l4.477-29.84c.13-.864-.502-1.644-1.327-1.644h-17.96c-.66 0-1.222.506-1.327 1.194"/>
            <path fill="#EE9E35" d="M12.767 90.75c5.33-.98 7.691 2.216 8.346 3.334.653-1.118 3.01-4.289 8.346-3.333 7.443 1.334 6.41 8.97 6.41 8.97s.9 6.05-13.555 13.993c-.392.215-.75.424-1.1.625v.107c-.004.001-.006.004-.011.004l-.09-.053-.01.004-.092.009v-.07c-.349-.202-.707-.41-1.098-.626C5.458 105.771 6.357 99.721 6.357 99.721s-1.091-7.589 6.41-8.97"/>
            <path fill="#EE9E35" d="M21.425 93.829c.852-1.3 3.252-4.045 8.111-3.05 6.86 1.406 6.37 9.019 6.37 9.019s.895 6.086-13.472 14.073c-.357.198-.688.393-1.01.579V93.829M3.715 61.138c3.061-.594 4.418 1.34 4.794 2.017.374-.677 1.73-2.597 4.794-2.017 4.275.807 3.683 5.428 3.683 5.428s.515 3.664-7.787 8.472a28 28 0 0 0-.632.378v.065H8.56l-.051-.03c-.001 0-.003 0-.005.002l-.053.006v-.043c-.202-.123-.407-.248-.632-.378C-.484 70.23.032 66.566.032 66.566s-.627-4.592 3.683-5.428"/>
            <path fill="#EE9E35" d="M9.452 63.458c.52-.719 1.98-2.235 4.937-1.686 4.174.778 3.878 4.985 3.878 4.985s.543 3.363-8.2 7.776c-.218.11-.42.218-.615.32V63.458M24.313 34.082c2.381-.438 3.437.992 3.73 1.491.292-.5 1.345-1.918 3.729-1.49 3.326.596 2.864 4.012 2.864 4.012s.402 2.708-6.056 6.261c-.176.096-.335.19-.492.28v.046l-.004.003c-.015-.007-.028-.017-.041-.024l-.004.002-.042.004v-.032c-.157-.09-.316-.183-.49-.279-6.459-3.553-6.058-6.26-6.058-6.26s-.487-3.396 2.864-4.014"/>
            <path fill="#EE9E35" d="M28.356 35.46c.37-.582 1.415-1.81 3.527-1.365 2.983.63 2.77 4.035 2.77 4.035s.39 2.722-5.857 6.295c-.156.089-.3.176-.44.26v-9.226"/>
        </g>
    </g>
</svg>
