<svg xmlns="http://www.w3.org/2000/svg" xmlns:xlink="http://www.w3.org/1999/xlink" width="110" height="24" viewBox="0 0 110 24">
    <defs>
        <path id="a" d="M.564.06h17.992v18.402H.564z"/>
        <path id="c" d="M0 23.308h109.88V0H0z"/>
    </defs>
    <g fill="none" fill-rule="evenodd">
        <path fill="#FBFBFB" d="M-257-21h1920v5357H-257z"/>
        <path fill="#FFF" d="M-257-21h1920v60H-257z"/>
        <g>
            <path fill="#13374D" d="M5.949 4.036a1.24 1.24 0 0 0-.327.87v1.227c0 .345.11.635.327.872.217.238.483.356.798.356h7.871c.465 0 .903.098 1.316.293.412.197.769.46 1.068.786.3.328.54.715.72 1.165.18.45.27.929.27 1.436v3.68c0 .506-.09.985-.27 1.435-.18.45-.42.838-.72 1.166-.3.327-.656.588-1.068.784a3.021 3.021 0 0 1-1.316.295H0v-3.68h11.246c.314 0 .58-.12.798-.357.216-.236.325-.527.325-.87v-1.227c0-.343-.109-.634-.325-.87a1.042 1.042 0 0 0-.798-.356H3.373c-.464 0-.903-.1-1.316-.294A3.447 3.447 0 0 1 .99 9.96c-.3-.327-.54-.714-.72-1.166C.09 8.345 0 7.868 0 7.361V3.68c0-.507.09-.985.27-1.435.18-.45.42-.839.72-1.166.299-.326.655-.589 1.067-.785A3.02 3.02 0 0 1 3.373 0h14.618v3.68H6.747c-.315 0-.58.119-.798.356"/>
            <g transform="translate(18.615 4.846)">
                <mask id="b" fill="#fff">
                    <use xlink:href="#a"/>
                </mask>
                <path fill="#13374D" d="M6.187 18.462H.564V3.74c0-.506.09-.984.27-1.434.18-.45.42-.838.72-1.166.3-.327.656-.589 1.068-.784A3.02 3.02 0 0 1 3.938.06h11.245c.465 0 .903.099 1.316.296a3.43 3.43 0 0 1 1.068.784c.3.328.54.716.72 1.166.18.45.269.928.269 1.434v6.134c0 .507-.089.986-.27 1.436-.18.45-.42.838-.72 1.166-.299.326-.655.588-1.067.784a3.021 3.021 0 0 1-1.316.295H7.311v-3.68h4.498c.315 0 .58-.12.798-.356.218-.237.327-.528.327-.871v-3.68c0-.343-.11-.635-.327-.872a1.047 1.047 0 0 0-.798-.356H7.311c-.314 0-.581.12-.798.356a1.242 1.242 0 0 0-.326.872v13.494z" mask="url(#b)"/>
            </g>
            <mask id="d" fill="#fff">
                <use xlink:href="#c"/>
            </mask>
            <path fill="#13374D" d="M38.21 18.4h5.622V4.908H38.21v13.494zm0-14.696h5.622V0H38.21v3.704zM57.427 8.586H50.68v4.908c0 .343.108.634.326.87.217.238.484.357.797.357h5.624v3.68h-8.996c-.465 0-.903-.098-1.316-.295a3.43 3.43 0 0 1-1.068-.784c-.3-.328-.54-.716-.72-1.166-.18-.45-.27-.929-.27-1.435V0h5.623v4.907h6.747v3.68zM64.228 13.494c0 .343.109.634.326.87.218.238.483.357.798.357h4.5c.314 0 .579-.12.797-.357.217-.236.326-.527.326-.87v-3.68c0-.343-.11-.635-.326-.872a1.045 1.045 0 0 0-.798-.355h-4.499v-3.68h7.872c.464 0 .903.098 1.316.295a3.43 3.43 0 0 1 1.068.785c.3.327.54.716.72 1.165.18.45.27.928.27 1.435v6.134c0 .506-.09.985-.27 1.435-.18.45-.42.838-.72 1.165-.3.328-.656.589-1.068.786a3.02 3.02 0 0 1-1.316.293H61.979c-.465 0-.904-.097-1.315-.293a3.426 3.426 0 0 1-1.069-.786 3.76 3.76 0 0 1-.72-1.165c-.18-.45-.27-.929-.27-1.435V0h5.623v13.493zM90.331 9.814c0-.343-.109-.634-.326-.871a1.046 1.046 0 0 0-.798-.356h-4.499c-.314 0-.58.12-.797.356a1.243 1.243 0 0 0-.327.871v3.68c0 .343.11.634.327.871.216.237.483.355.797.355h4.499v3.68h-7.872c-.465 0-.903-.097-1.316-.294a3.43 3.43 0 0 1-1.068-.784c-.3-.328-.54-.717-.72-1.166a3.84 3.84 0 0 1-.269-1.436V8.587c0-.507.09-.984.27-1.435.18-.45.419-.838.72-1.165.299-.328.655-.59 1.067-.785a3.021 3.021 0 0 1 1.316-.295H92.58c.465 0 .904.098 1.316.295.412.195.768.457 1.069.785.3.327.539.716.719 1.165.18.45.27.928.27 1.435V18.4H90.33V9.814zM97.41 18.4h5.624V0H97.41zM104.259 18.4h5.623V0h-5.623z" mask="url(#d)"/>
        </g>
    </g>
</svg>
