<svg xmlns="http://www.w3.org/2000/svg" width="980" height="133">
    <g fill="none" fill-rule="evenodd">
        <path fill="#FBFBFB" d="M0-1951h1920v5357H0z"/>
        <path fill="#21837F" d="M0-550h1920v683H0z"/>
        <path fill="#FBFBFB" d="M980 192.897C980 166.04 960 133 857 133 445 75 593.502 0 321.5 0-42.18 0-337 86.363-337 192.897c0 53.162 329.901-11.523 658.5-11.418 329.899.106 658.5 64.79 658.5 11.418z"/>
        <path fill="#13374D" d="M402.535 101s-4.214 3.368-3.44 7.66c.771 4.29 1.864 14.34 1.864 14.34h4.332l-.133-9.374c.013-.613 9.293 9.374 10.865 9.374h22.925s1.524-6.322-11.939-8.354C413.547 112.612 402.535 101 402.535 101"/>
        <path fill="#F0AB85" d="M412.11 96l3.252 8.675a11.11 11.11 0 0 0 4.433 5.765c2.288 1.501 5.873 3.594 11.205 5.211-6.522 5.706-16.902-.251-22.84-4.466-2.894-2.053-4.941-5.118-5.8-8.612L401 96h11.11"/>
        <path fill="#13374D" d="M446.537 101s-4.214 3.368-3.443 7.66c.774 4.29 1.867 14.34 1.867 14.34h4.332l-.133-9.374c.012-.613 9.29 9.374 10.862 9.374h22.926s1.522-6.322-11.938-8.354C457.546 112.612 446.537 101 446.537 101"/>
        <path fill="#F0AB85" d="M456.109 96l3.254 8.675a11.095 11.095 0 0 0 4.43 5.765c2.291 1.501 5.875 3.594 11.207 5.211-6.521 5.706-16.9-.251-22.838-4.466-2.894-2.053-4.941-5.118-5.803-8.612L445 96h11.109"/>
        <path fill="#21837F" d="M419.199-121s-2.985 17.082 14.181 101.038C419.484 23.791 441.737 97 441.737 97h16.22L469-121h-49.801"/>
        <path fill="#5BBDB7" d="M405.68-121s-21.048 17.082-4.048 101.038C387.87 23.791 400.014 97 400.014 97h14.42L455-121h-49.32"/>
    </g>
</svg>