<?xml version="1.0" encoding="utf-8"?>
<!-- Generator: Adobe Illustrator 19.2.0, SVG Export Plug-In . SVG Version: 6.00 Build 0)  -->
<svg version="1.1" id="Layer_1" xmlns="http://www.w3.org/2000/svg" xmlns:xlink="http://www.w3.org/1999/xlink" x="0px" y="0px"
	 viewBox="0 0 893.2 196.3" style="enable-background:new 0 0 893.2 196.3;" xml:space="preserve">
<style type="text/css">
	.st0{fill:#26837F;}
	.st1{fill:#FFFFFF;stroke:#231F20;stroke-miterlimit:10;}
</style>
<path class="st0" d="M56.5,162.8c36.6-21.7,62.6-39.2,88.2-51.9c33.2-16.5,58.3-30.3,73.4-36.9c8.1-3.5,29-12.6,56.9-23.6
	c42.2-16.7,63.3-25.1,87.5-31.9C365,17.8,409,5.5,455.5,1.9c54.1-4.2,80.6,5.8,261.1,50c64.3,15.7,64.8,15.4,90.3,22.2
	c70.6,18.9,128.8,38,170.8,52.8c-28.5,23.1-57,46.3-85.6,69.4H8.3C21.7,184.2,43,174.9,56.5,162.8z"/>
<path class="st1" d="M971.8,360.2"/>
</svg>
