<?xml version="1.0" encoding="UTF-8"?>
<svg width="87px" height="88px" viewBox="0 0 87 88" version="1.1" xmlns="http://www.w3.org/2000/svg" xmlns:xlink="http://www.w3.org/1999/xlink">
    <!-- Generator: Sketch 51.3 (57544) - http://www.bohemiancoding.com/sketch -->
    <title>np_city_2077982_000000</title>
    <desc>Created with Sketch.</desc>
    <defs></defs>
    <g id="Upvote-/-Downvote-+-reputation-&gt;-Q-Cards" stroke="none" stroke-width="1" fill="none" fill-rule="evenodd" fill-opacity="0.201879529">
        <g id="np_city_2077982_000000" fill="#4452FC" fill-rule="nonzero">
            <path d="M85.9116082,85.7994231 L84.6542407,85.7994231 L84.6542407,52.5240165 C84.6542407,51.9181511 84.1699661,51.4240031 83.5667407,51.4240031 L79.0128345,51.4240031 L79.0128345,41.0899268 C79.0128345,40.4840614 78.5285599,39.9899134 77.9253345,39.9899134 L71.5235482,39.9899134 L71.5235482,31.5679905 C71.5235482,30.9621251 71.0392736,30.467977 70.4360482,30.467977 L62.4496657,30.467977 C61.8464404,30.467977 61.3621657,30.9621251 61.3621657,31.5679905 L61.3621657,39.9899134 L55.7165182,39.9899134 L55.7165182,12.0990726 C55.7165182,11.802586 55.5975675,11.5189915 55.38942,11.312739 L44.259945,0.31260457 C43.8351457,-0.104201523 43.1639625,-0.104201523 42.739185,0.31260457 L31.60971,11.312739 C31.4015516,11.5189915 31.2826117,11.802586 31.2826117,12.0990726 L31.2826117,24.1090193 L25.2121867,24.1090193 L25.2121867,15.2187107 C25.2121867,14.6128453 24.7279121,14.1186973 24.1246867,14.1186973 L16.1383042,14.1186973 C15.5350789,14.1186973 15.0508042,14.6128453 15.0508042,15.2187107 L15.0508042,24.1090193 L8.649018,24.1090193 C8.04579262,24.1090193 7.561518,24.6031674 7.561518,25.2090328 L7.561518,51.4245531 L3.00761175,51.4245531 C2.40438637,51.4245531 1.92011175,51.9187011 1.92011175,52.5245665 L1.92011175,85.7999731 L1.0875,85.7999731 C0.484274625,85.7999731 0,86.2941212 0,86.8999866 C0,87.505852 0.484274625,88 1.0875,88 L85.9125,88 C86.5157254,88 87,87.505852 87,86.8999866 C87,86.2941212 86.5157254,85.7999731 85.9125,85.7999731 L85.9116082,85.7994231 Z M82.4792408,85.7994231 L63.3120532,85.7994231 L63.3120532,53.62403 L82.4792408,53.62403 L82.4792408,85.7994231 Z M63.5371657,32.6676739 L69.3485482,32.6676739 L69.3485482,39.9895834 L63.5371657,39.9895834 L63.5371657,32.6676739 Z M76.8372907,42.1896103 L76.8372907,51.4236731 L62.2234657,51.4236731 C61.6202404,51.4236731 61.1359657,51.9178211 61.1359657,52.5236865 L61.1359657,85.7990931 L55.7154307,85.7990931 L55.7154307,42.1890602 L76.8372907,42.1896103 Z M43.4988907,2.63642696 L53.5413007,12.5622882 L53.5413007,85.7989831 L33.4562633,85.7989831 L33.4562633,12.5622882 L43.4988907,2.63642696 Z M17.2248908,16.3139941 L23.0362732,16.3139941 L23.0362732,24.1042893 L17.2248908,24.1042893 L17.2248908,16.3139941 Z M9.7356045,26.3086062 L31.2811545,26.3086062 L31.2811545,85.7995331 L25.435842,85.7995331 L25.435842,52.5241265 C25.435842,51.9182611 24.9515674,51.4241131 24.348342,51.4241131 L9.734517,51.4241131 L9.7356045,26.3086062 Z M4.09419825,53.62414 L23.2613858,53.62414 L23.2613858,85.7995331 L4.09419825,85.7995331 L4.09419825,53.62414 Z" id="Shape"></path>
            <path d="M67.5,63 C68.332035,63 69,62.5097992 69,61.9087735 L69,59.0912265 C69,58.4902008 68.332035,58 67.5,58 C66.667965,58 66,58.4902008 66,59.0912265 L66,61.9087735 C66,62.5097992 66.667965,63 67.5,63 Z" id="Shape"></path>
            <path d="M74.5,63 C75.332035,63 76,62.5097992 76,61.9087735 L76,59.0912265 C76,58.4902008 75.332035,58 74.5,58 C73.667965,58 73,58.4902008 73,59.0912265 L73,61.9087735 C73,62.5097992 73.667965,63 74.5,63 Z" id="Shape"></path>
            <path d="M78.5,63 C79.332035,63 80,62.5097992 80,61.9087735 L80,59.0912265 C80,58.4902008 79.332035,58 78.5,58 C77.667965,58 77,58.4902008 77,59.0912265 L77,61.9087735 C77,62.5097992 77.667965,63 78.5,63 Z" id="Shape"></path>
            <path d="M67.5,71 C68.332035,71 69,70.5097992 69,69.9087735 L69,67.0912265 C69,66.4902008 68.332035,66 67.5,66 C66.667965,66 66,66.4902008 66,67.0912265 L66,69.9087735 C66,70.5097992 66.667965,71 67.5,71 Z" id="Shape"></path>
            <path d="M74.5,71 C75.332035,71 76,70.5097992 76,69.9087735 L76,67.0912265 C76,66.4902008 75.332035,66 74.5,66 C73.667965,66 73,66.4902008 73,67.0912265 L73,69.9087735 C73,70.5097992 73.667965,71 74.5,71 Z" id="Shape"></path>
            <path d="M78.5,71 C79.332035,71 80,70.5097992 80,69.9087735 L80,67.0912265 C80,66.4902008 79.332035,66 78.5,66 C77.667965,66 77,66.4902008 77,67.0912265 L77,69.9087735 C77,70.5097992 77.667965,71 78.5,71 Z" id="Shape"></path>
            <path d="M67.5,79 C68.332035,79 69,78.5097992 69,77.9087735 L69,75.0912265 C69,74.4902008 68.332035,74 67.5,74 C66.667965,74 66,74.4902008 66,75.0912265 L66,77.9087735 C66,78.5097992 66.667965,79 67.5,79 Z" id="Shape"></path>
            <path d="M74.5,79 C75.332035,79 76,78.5097992 76,77.9087735 L76,75.0912265 C76,74.4902008 75.332035,74 74.5,74 C73.667965,74 73,74.4902008 73,75.0912265 L73,77.9087735 C73,78.5097992 73.667965,79 74.5,79 Z" id="Shape"></path>
            <path d="M78.5,79 C79.332035,79 80,78.5097992 80,77.9087735 L80,75.0912265 C80,74.4902008 79.332035,74 78.5,74 C77.667965,74 77,74.4902008 77,75.0912265 L77,77.9087735 C77,78.5097992 77.667965,79 78.5,79 Z" id="Shape"></path>
            <path d="M19.5,58 C18.667965,58 18,58.4902008 18,59.0912265 L18,61.9087735 C18,62.5097992 18.667965,63 19.5,63 C20.332035,63 21,62.5097992 21,61.9087735 L21,59.0912265 C21,58.4902008 20.332035,58 19.5,58 Z" id="Shape"></path>
            <path d="M14.5,58 C13.667965,58 13,58.4902008 13,59.0912265 L13,61.9087735 C13,62.5097992 13.667965,63 14.5,63 C15.332035,63 16,62.5097992 16,61.9087735 L16,59.0912265 C16,58.4902008 15.332035,58 14.5,58 Z" id="Shape"></path>
            <path d="M9.5,58 C8.667965,58 8,58.4902008 8,59.0912265 L8,61.9087735 C8,62.5097992 8.667965,63 9.5,63 C10.332035,63 11,62.5097992 11,61.9087735 L11,59.0912265 C11,58.4902008 10.332035,58 9.5,58 Z" id="Shape"></path>
            <path d="M19.5,66 C18.667965,66 18,66.4902008 18,67.0912265 L18,69.9087735 C18,70.5097992 18.667965,71 19.5,71 C20.332035,71 21,70.5097992 21,69.9087735 L21,67.0912265 C21,66.4902008 20.332035,66 19.5,66 Z" id="Shape"></path>
            <path d="M14.5,66 C13.667965,66 13,66.4902008 13,67.0912265 L13,69.9087735 C13,70.5097992 13.667965,71 14.5,71 C15.332035,71 16,70.5097992 16,69.9087735 L16,67.0912265 C16,66.4902008 15.332035,66 14.5,66 Z" id="Shape"></path>
            <path d="M9.5,66 C8.667965,66 8,66.4902008 8,67.0912265 L8,69.9087735 C8,70.5097992 8.667965,71 9.5,71 C10.332035,71 11,70.5097992 11,69.9087735 L11,67.0912265 C11,66.4902008 10.332035,66 9.5,66 Z" id="Shape"></path>
            <path d="M19.5,74 C18.667965,74 18,74.4902008 18,75.0912265 L18,77.9087735 C18,78.5097992 18.667965,79 19.5,79 C20.332035,79 21,78.5097992 21,77.9087735 L21,75.0912265 C21,74.4902008 20.332035,74 19.5,74 Z" id="Shape"></path>
            <path d="M14.5,74 C13.667965,74 13,74.4902008 13,75.0912265 L13,77.9087735 C13,78.5097992 13.667965,79 14.5,79 C15.332035,79 16,78.5097992 16,77.9087735 L16,75.0912265 C16,74.4902008 15.332035,74 14.5,74 Z" id="Shape"></path>
            <path d="M9.5,74 C8.667965,74 8,74.4902008 8,75.0912265 L8,77.9087735 C8,78.5097992 8.667965,79 9.5,79 C10.332035,79 11,78.5097992 11,77.9087735 L11,75.0912265 C11,74.4902008 10.332035,74 9.5,74 Z" id="Shape"></path>
            <path d="M26.5,36 C27.332035,36 28,35.5097992 28,34.9087735 L28,32.0912265 C28,31.4902008 27.332035,31 26.5,31 C25.667965,31 25,31.4902008 25,32.0912265 L25,34.9087735 C25,35.5097992 25.667965,36 26.5,36 Z" id="Shape"></path>
            <path d="M20.5,31 C19.667965,31 19,31.4902008 19,32.0912265 L19,34.9087735 C19,35.5097992 19.667965,36 20.5,36 C21.332035,36 22,35.5097992 22,34.9087735 L22,32.0912265 C22,31.4859341 21.32617,31 20.5,31 Z" id="Shape"></path>
            <path d="M15.5,31 C14.667965,31 14,31.4902008 14,32.0912265 L14,34.9087735 C14,35.5097992 14.667965,36 15.5,36 C16.332035,36 17,35.5097992 17,34.9087735 L17,32.0912265 C17,31.4859341 16.32617,31 15.5,31 Z" id="Shape"></path>
            <path d="M26.5,45 C27.332035,45 28,44.5097992 28,43.9087735 L28,41.0912265 C28,40.4902008 27.332035,40 26.5,40 C25.667965,40 25,40.4902008 25,41.0912265 L25,43.9087735 C25,44.5097992 25.667965,45 26.5,45 Z" id="Shape"></path>
            <path d="M20.5,40 C19.667965,40 19,40.4902008 19,41.0912265 L19,43.9087735 C19,44.5097992 19.667965,45 20.5,45 C21.332035,45 22,44.5097992 22,43.9087735 L22,41.0912265 C22,40.4859341 21.32617,40 20.5,40 Z" id="Shape"></path>
            <path d="M15.5,40 C14.667965,40 14,40.4902008 14,41.0912265 L14,43.9087735 C14,44.5097992 14.667965,45 15.5,45 C16.332035,45 17,44.5097992 17,43.9087735 L17,41.0912265 C17,40.4859341 16.32617,40 15.5,40 Z" id="Shape"></path>
            <path d="M41.1066299,27 L47.8933701,27 C48.5072066,27 49,26.5028797 49,25.8933701 L49,19.1066299 C49,18.4971203 48.5072066,18 47.8933701,18 L41.1066299,18 C40.4927934,18 40,18.4971203 40,19.1066299 L40,25.8933701 C40,26.5028797 40.4971203,27 41.1066299,27 Z M42.2132599,20.2132599 L46.7867401,20.2132599 L46.7867401,24.7867401 L42.2132599,24.7867401 L42.2132599,20.2132599 Z" id="Shape"></path>
            <path d="M41.1066299,39 L47.8933701,39 C48.5072066,39 49,38.5028797 49,37.8933701 L49,31.1066299 C49,30.4971203 48.5072066,30 47.8933701,30 L41.1066299,30 C40.4927934,30 40,30.4971203 40,31.1066299 L40,37.8933701 C40,38.5072066 40.4971203,39 41.1066299,39 Z M42.2132599,32.2132599 L46.7867401,32.2132599 L46.7867401,36.7867401 L42.2132599,36.7867401 L42.2132599,32.2132599 Z" id="Shape"></path>
            <path d="M41.1066299,52 L47.8933701,52 C48.5072066,52 49,51.5028797 49,50.8933701 L49,44.1066299 C49,43.4971203 48.5072066,43 47.8933701,43 L41.1066299,43 C40.4927934,43 40,43.4971203 40,44.1066299 L40,50.8933701 C40,51.5072066 40.4971203,52 41.1066299,52 Z M42.2132599,45.2175757 L46.7867401,45.2175757 L46.7867401,49.791056 L42.2132599,49.791056 L42.2132599,45.2175757 Z" id="Shape"></path>
            <path d="M41.1066299,66 L47.8933701,66 C48.5072066,66 49,65.5028797 49,64.8933701 L49,58.1066299 C49,57.4971203 48.5072066,57 47.8933701,57 L41.1066299,57 C40.4927934,57 40,57.4971203 40,58.1066299 L40,64.8933701 C40,65.5028797 40.4971203,66 41.1066299,66 Z M42.2132599,59.2132599 L46.7867401,59.2132599 L46.7867401,63.7867401 L42.2132599,63.7867401 L42.2132599,59.2132599 Z" id="Shape"></path>
            <path d="M41.1066299,78 L47.8933701,78 C48.5072066,78 49,77.5028797 49,76.8933701 L49,70.1066299 C49,69.4971203 48.5072066,69 47.8933701,69 L41.1066299,69 C40.4927934,69 40,69.4971203 40,70.1066299 L40,76.8933701 C40,77.5028797 40.4971203,78 41.1066299,78 Z M42.2132599,71.2132599 L46.7867401,71.2132599 L46.7867401,75.7867401 L42.2132599,75.7867401 L42.2132599,71.2132599 Z" id="Shape"></path>
            <path d="M19.0020826,11 C21.7596574,11 24,8.75642668 24,6 C24,3.24357332 21.7554922,1 19.0020826,1 C16.2445078,1 14,3.24357332 14,6 C14,8.76059014 16.2445078,11 19.0020826,11 Z M19.0020826,3.13927321 C20.5790907,3.13927321 21.8640009,4.42364848 21.8640009,6.00416346 C21.8640009,7.58467845 20.5790907,8.86905372 19.0020826,8.86905372 C17.4209093,8.86905372 16.1359991,7.58467845 16.1359991,6.00416346 C16.1359991,4.42364848 17.4209093,3.13927321 19.0020826,3.13927321 Z" id="Shape"></path>
            <path d="M62,23 C62,25.7564267 64.2445078,28 66.9979174,28 C69.7554922,28 72,25.7564267 72,23 C72,20.2435733 69.7554922,18 66.9979174,18 C64.2403426,18 62,20.2435733 62,23 Z M66.9979174,20.1351097 C68.5790907,20.1351097 69.8640009,21.419485 69.8640009,23 C69.8640009,24.580515 68.5790907,25.8648903 66.9979174,25.8648903 C65.4209093,25.8648903 64.1359991,24.580515 64.1359991,23 C64.1359991,21.419485 65.4209093,20.1351097 66.9979174,20.1351097 Z" id="Shape"></path>
            <path d="M72,14 C75.8577549,14 79,10.8619323 79,7 C79,3.13806769 75.8577549,0 72,0 C68.1422451,0 65,3.13806769 65,7 C65,10.8577549 68.1422451,14 72,14 Z M72,2.14267352 C74.6778063,2.14267352 76.8577549,4.32262211 76.8577549,7.00042845 C76.8577549,9.67823479 74.6778063,11.8581834 72,11.8581834 C69.3221937,11.8581834 67.1422451,9.67823479 67.1422451,7.00042845 C67.1422451,4.32262211 69.3221937,2.14267352 72,2.14267352 Z" id="Shape"></path>
        </g>
    </g>
</svg>