<svg xmlns="http://www.w3.org/2000/svg" xmlns:xlink="http://www.w3.org/1999/xlink" viewBox="0 0 89 67">
    <defs>
        <path id="prefix__a" d="M1 67.832L92 67.832 92 0.832 1 0.832z"/>
    </defs>
    <g fill="none" fill-rule="evenodd">
        <g transform="translate(0 -2) translate(0 .505)">
            <path fill="#BDC0D1" fill-rule="nonzero" d="M52.878 9.85v2H7.143c-2.313 0-4.219 1.922-4.326 4.351l-.004.216V51.21c0 2.53 1.949 4.567 4.33 4.567h60.854c2.381 0 4.33-2.036 4.33-4.567V20.686h2V51.21c0 3.538-2.703 6.438-6.102 6.563l-.228.004H7.143c-3.505 0-6.33-2.95-6.33-6.567V16.417c0-3.616 2.825-6.567 6.33-6.567h45.735z"/>
            <path stroke="#BDC0D1" stroke-linecap="round" stroke-linejoin="round" stroke-width="2" d="M1.813 49.547L73.328 49.547"/>
            <mask id="prefix__b" fill="#fff">
                <use xlink:href="#prefix__a"/>
            </mask>
            <path stroke="#BDC0D1" stroke-linecap="round" stroke-linejoin="round" stroke-width="2" d="M29.443 66.981L44.884 66.981 44.884 56.776 29.443 56.776zM54.636 67.407L20.504 67.407" mask="url(#prefix__b)"/>
        </g>
        <g>
            <path stroke="#BDC0D1" stroke-linecap="round" stroke-linejoin="round" stroke-width="2" d="M22.785 3.56c2.848 2.753 2.848 7.216 0 9.968M27.769.712c3.797 4.326 3.797 11.34 0 15.664" transform="translate(0 -2) translate(57.13 3.7)"/>
            <path fill="#3BEDB5" d="M19.225 8.544c0 1.966-1.595 3.56-3.56 3.56-1.967 0-3.56-1.594-3.56-3.56s1.593-3.56 3.56-3.56c1.965 0 3.56 1.594 3.56 3.56z" transform="translate(0 -2) translate(57.13 3.7)"/>
            <path stroke="#BDC0D1" stroke-linecap="round" stroke-linejoin="round" stroke-width="2" d="M7.832 2.848c-2.848 2.752-2.848 7.215 0 9.968M2.848 0c-3.797 4.326-3.797 11.34 0 15.664" transform="translate(0 -2) translate(57.13 3.7)"/>
        </g>
        <path fill="#BDC0D1" d="M36.427 38.637l9.395-6.263c.919-.612 1.167-1.854.554-2.773-.146-.22-.335-.408-.554-.555l-9.395-6.263c-.919-.612-2.16-.364-2.773.555-.22.328-.336.714-.336 1.11v12.525c0 1.105.895 2 2 2 .395 0 .78-.117 1.11-.336z" transform="translate(0 -2)"/>
    </g>
</svg>
