<svg xmlns="http://www.w3.org/2000/svg" width="29" height="20" viewBox="0 0 29 20">
    <path fill="#FFF" fill-rule="nonzero" d="M19.43 19.974H0v-2.673a1.865 1.865 0 0 1 .695-1.456 31.57 31.57 0 0 1 5.695-3.572c.061-.028.1-.089.1-.155v-1.839a4.275 4.275 0 0 1-.553-1.476c-.212-.017-.49-.308-.79-1.341-.409-1.416.027-1.623.395-1.592a3.648 3.648 0 0 1-.159-.575 4.052 4.052 0 0 1 0-1.865 4.033 4.033 0 0 1 1.113-1.908 5.332 5.332 0 0 1 1.03-.831C7.836.479 8.173.31 8.529.19c.294-.098.6-.155.91-.17a3.82 3.82 0 0 1 2.273.475c.458.231.843.58 1.113 1.01 0 0 1.847.13 1.223 3.793-.038.195-.09.388-.16.575.369-.034.804.176.395 1.592-.294 1.033-.589 1.323-.79 1.34a4.185 4.185 0 0 1-.553 1.46v1.862c0 .066.04.126.1.155a31.572 31.572 0 0 1 5.696 3.563c.442.36.697.893.695 1.456v2.673zm-.843-7.361v1.07a.62.62 0 0 1-.094.337c.362.262.727.538 1.09.829a3.168 3.168 0 0 1 1.178 2.48V20H29v-2.527a2.017 2.017 0 0 0-1.178-1.628 9.726 9.726 0 0 0-1.72-.645c-.032-.017-1.864-.486-2.732-.938l-.077-.046a.627.627 0 0 1-.294-.53v-1.105s2.517.075 3.71-1.116c0 0-1.737-.48-1.425-3.574.312-3.094-.389-5.808-2.945-5.577 0 0-1.101-1.295-3.295-.481-.742.288-2.777.996-2.66 5.28.118 4.286-1.56 4.317-1.56 4.317s.854 1.209 3.763 1.183z"/>
</svg>
