<svg xmlns="http://www.w3.org/2000/svg" width="22" height="23" viewBox="0 0 22 23">
    <g fill="none" fill-rule="evenodd">
        <path fill="#232020" d="M20.968 22.346H5.352a.283.283 0 0 1-.283-.283v-7.51a.283.283 0 1 1 .566 0v7.227h15.05V1.942H5.635v7.651a.283.283 0 1 1-.566 0V1.658c0-.157.126-.284.283-.284h15.616c.157 0 .284.127.284.284v20.405a.284.284 0 0 1-.284.283"/>
        <path stroke="#232020" stroke-width=".75" d="M20.968 22.346H5.352a.283.283 0 0 1-.283-.283v-7.51a.283.283 0 1 1 .566 0v7.227h15.05V1.942H5.635v7.651a.283.283 0 1 1-.566 0V1.658c0-.157.126-.284.283-.284h15.616c.157 0 .284.127.284.284v20.405a.284.284 0 0 1-.284.283z"/>
        <path fill="#232020" d="M12.798 12.356H.658a.284.284 0 0 1 0-.567h12.14a.283.283 0 0 1 0 .567"/>
        <path stroke="#232020" stroke-width=".75" d="M12.798 12.356H.658a.284.284 0 0 1 0-.567h12.14a.283.283 0 0 1 0 .567z"/>
        <path fill="#232020" d="M10.212 14.457a.284.284 0 0 1-.165-.514l2.625-1.871-2.625-1.87a.283.283 0 0 1 .33-.462l2.948 2.102a.284.284 0 0 1 0 .462l-2.948 2.1a.288.288 0 0 1-.165.053"/>
        <path stroke="#232020" stroke-width=".75" d="M10.212 14.457a.284.284 0 0 1-.165-.514l2.625-1.871-2.625-1.87a.283.283 0 0 1 .33-.462l2.948 2.102a.284.284 0 0 1 0 .462l-2.948 2.1a.288.288 0 0 1-.165.053z"/>
    </g>
</svg>
