<svg xmlns="http://www.w3.org/2000/svg" width="19" height="19" viewBox="0 0 19 19">
    <g fill="none" fill-rule="evenodd">
        <path fill="#232020" d="M18.156 18.465H5.379a.231.231 0 0 1-.232-.231v-6.145a.232.232 0 1 1 .463 0v5.913h12.314V1.771H5.61v6.26a.231.231 0 1 1-.463 0V1.539c0-.129.103-.233.232-.233h12.777c.128 0 .232.104.232.233v16.695a.232.232 0 0 1-.232.231"/>
        <path stroke="#232020" stroke-width=".75" d="M18.156 18.465H5.379a.231.231 0 0 1-.232-.231v-6.145a.232.232 0 1 1 .463 0v5.913h12.314V1.771H5.61v6.26a.231.231 0 1 1-.463 0V1.539c0-.129.103-.233.232-.233h12.777c.128 0 .232.104.232.233v16.695a.232.232 0 0 1-.232.231z"/>
        <path fill="#232020" d="M11.471 10.291H1.538a.232.232 0 0 1 0-.464h9.933a.232.232 0 0 1 0 .464"/>
        <path stroke="#232020" stroke-width=".75" d="M11.471 10.291H1.538a.232.232 0 0 1 0-.464h9.933a.232.232 0 0 1 0 .464z"/>
        <path fill="#232020" d="M9.355 12.01a.232.232 0 0 1-.135-.42l2.148-1.531-2.148-1.53a.232.232 0 0 1 .27-.378l2.412 1.72a.233.233 0 0 1 0 .378L9.49 11.966a.235.235 0 0 1-.135.043"/>
        <path stroke="#232020" stroke-width=".75" d="M9.355 12.01a.232.232 0 0 1-.135-.42l2.148-1.531-2.148-1.53a.232.232 0 0 1 .27-.378l2.412 1.72a.233.233 0 0 1 0 .378L9.49 11.966a.235.235 0 0 1-.135.043z"/>
    </g>
</svg>
