<svg xmlns="http://www.w3.org/2000/svg" xmlns:xlink="http://www.w3.org/1999/xlink" viewBox="0 0 116 104">
    <defs>
        <path id="pz7brlb9za" d="M0.178 0.239L115.992 0.239 115.992 103.04 0.178 103.04z"/>
    </defs>
    <g fill="none" fill-rule="evenodd">
        <mask id="kyjcxxhyob" fill="#fff">
            <use xlink:href="#pz7brlb9za"/>
        </mask>
        <path fill="#9EA1B5" d="M25.253 85.882h41.248v-56.8H25.253v56.8zm42.551-59.406H23.99c-.75 0-1.303.553-1.303 1.263v59.446c0 .67.553 1.302 1.303 1.302h43.814c.71 0 1.303-.631 1.303-1.302V27.739c0-.71-.592-1.263-1.303-1.263zM56.756 21.258h1.973v1.934c0 .71.553 1.303 1.303 1.303.71 0 1.263-.592 1.263-1.303v-3.236c0-.711-.553-1.264-1.263-1.264h-3.276c-.71 0-1.303.553-1.303 1.264 0 .71.592 1.302 1.303 1.302M27.862 21.258h6c.71 0 1.302-.592 1.302-1.302 0-.711-.592-1.264-1.302-1.264h-6c-.71 0-1.302.553-1.302 1.264 0 .71.592 1.302 1.302 1.302M42.301 21.258h6.04c.71 0 1.302-.592 1.302-1.302 0-.711-.592-1.264-1.303-1.264h-6.039c-.71 0-1.303.553-1.303 1.264 0 .71.593 1.302 1.303 1.302M19.423 18.677h-3.237c-.71 0-1.302.592-1.302 1.263v3.236c0 .75.592 1.303 1.302 1.303.71 0 1.303-.553 1.303-1.303v-1.934h1.934c.71 0 1.303-.552 1.303-1.302 0-.671-.593-1.263-1.303-1.263M16.182 54.024c.71 0 1.303-.553 1.303-1.263v-6.158c0-.75-.592-1.302-1.303-1.302-.71 0-1.302.552-1.302 1.302v6.158c0 .71.592 1.263 1.302 1.263M16.182 68.787c.71 0 1.303-.592 1.303-1.264v-6.157c0-.71-.592-1.342-1.303-1.342-.71 0-1.302.631-1.302 1.342v6.157c0 .672.592 1.264 1.302 1.264M16.182 39.297c.71 0 1.303-.632 1.303-1.303v-6.157c0-.71-.592-1.342-1.303-1.342-.71 0-1.302.631-1.302 1.342v6.157c0 .671.592 1.303 1.302 1.303M19.423 78.078h-1.934v-1.973c0-.671-.592-1.263-1.303-1.263-.71 0-1.302.592-1.302 1.263v3.276c0 .71.592 1.263 1.302 1.263h3.237c.71 0 1.303-.553 1.303-1.263 0-.71-.593-1.303-1.303-1.303" mask="url(#kyjcxxhyob)"/>
        <path fill="#9EA1B5" d="M42.301 80.66h6.04c.71 0 1.302-.592 1.302-1.263 0-.75-.592-1.303-1.303-1.303h-6.039c-.71 0-1.303.553-1.303 1.303 0 .67.593 1.263 1.303 1.263M27.862 80.66h6c.71 0 1.302-.592 1.302-1.263 0-.75-.592-1.303-1.302-1.303h-6c-.71 0-1.302.553-1.302 1.303 0 .67.592 1.263 1.302 1.263M56.756 80.66h3.276c.71 0 1.263-.592 1.263-1.263V76.12c0-.711-.553-1.264-1.263-1.264-.75 0-1.303.553-1.303 1.264v1.973h-1.973c-.71 0-1.303.553-1.303 1.303 0 .67.592 1.263 1.303 1.263M60.012 54.024c.71 0 1.303-.553 1.303-1.263v-6.158c0-.75-.592-1.302-1.303-1.302-.71 0-1.302.552-1.302 1.302v6.158c0 .71.592 1.263 1.302 1.263M60.012 68.787c.71 0 1.303-.592 1.303-1.264v-6.157c0-.71-.592-1.342-1.303-1.342-.71 0-1.302.631-1.302 1.342v6.157c0 .672.592 1.264 1.302 1.264M60.012 39.297c.71 0 1.303-.632 1.303-1.303v-6.157c0-.71-.592-1.342-1.303-1.342-.71 0-1.302.631-1.302 1.342v6.157c0 .671.592 1.303 1.302 1.303M75.604 29.046h5.526v1.974c0 .71.552 1.263 1.263 1.263.71 0 1.303-.553 1.303-1.263v-1.974h15.591c.71 0 1.303-.592 1.303-1.303 0-.71-.592-1.263-1.303-1.263H83.696v-1.973c0-.71-.593-1.303-1.303-1.303s-1.263.592-1.263 1.303v1.973h-5.526c-.75 0-1.303.553-1.303 1.263 0 .71.553 1.303 1.303 1.303M75.604 42.036h9.394v1.974c0 .67.592 1.263 1.303 1.263.75 0 1.302-.592 1.302-1.263v-1.974h11.684c.71 0 1.303-.592 1.303-1.263 0-.75-.592-1.302-1.303-1.302H87.603v-1.974c0-.71-.552-1.263-1.302-1.263-.71 0-1.303.552-1.303 1.263v1.974h-9.394c-.75 0-1.303.552-1.303 1.302 0 .671.553 1.263 1.303 1.263M75.604 55.027h19.775V57c0 .671.592 1.263 1.303 1.263.75 0 1.303-.592 1.303-1.263v-1.973h1.302c.71 0 1.303-.593 1.303-1.303s-.592-1.263-1.303-1.263h-1.302v-1.974c0-.75-.553-1.302-1.303-1.302-.71 0-1.303.552-1.303 1.302v1.974H75.604c-.75 0-1.303.552-1.303 1.263 0 .71.553 1.303 1.303 1.303M76.894 85.862v-3.907l3.869.907c.434.119.908.158 1.342.158 2.605 0 4.934-1.697 5.644-4.302l1.777-6.355 1.381 5.96c.355 1.54 1.342 2.763 2.724 3.434 1.342.71 2.96.79 4.381.198v3.907H76.894zm21.118-19.46v12.75l-.987.395c-.71.315-1.5.315-2.21-.08-.671-.354-1.184-.986-1.382-1.736l-1.54-6.631c-.236-1.066-1.144-1.856-2.288-1.856-1.106 0-2.053.671-2.369 1.737l-1.973 7.026c-.474 1.698-2.171 2.724-3.908 2.29l-4.46-1.027V66.402h21.117zm2.566 13.618V65.1c0-.75-.592-1.342-1.303-1.342H75.592c-.71 0-1.303.592-1.303 1.342v22.065c0 .71.592 1.302 1.303 1.302h23.683c.71 0 1.303-.592 1.303-1.302V80.02z" mask="url(#kyjcxxhyob)"/>
    </g>
</svg>
