<svg xmlns="http://www.w3.org/2000/svg" width="80" height="80" viewBox="0 0 80 80">
    <g fill="none" fill-rule="evenodd">
        <path stroke="#FEFEFE" stroke-width="2" d="M40 79c21.54 0 39-17.462 39-39C79 18.46 61.54 1 40 1S1 18.46 1 40c0 21.538 17.46 39 39 39z"/>
        <path fill="#FEFEFE" d="M53.505 35.235c.88 3.048 1.428 4.71.77 6.094-.66 1.497-2.417 2.05-5 2.826-.165 0-21.1 6.427-21.265 6.482l-.657.223c-1.868.554-2.913.829-3.846.829-2.528 0-3.133-1.994-4.34-6.037l-3.079-10.25c-.933-3.158-1.428-4.765-.823-6.097.658-1.494 2.416-1.994 5.054-2.823l.44-.113c.165-.055 21.1-6.427 21.264-6.482 1.758-.555 2.966-.887 4.011-.887 2.58 0 3.186 1.994 4.393 5.985l3.078 10.25zm9.505.277c.99 1.165.99 2.826.99 6.15v10.914c0 3.214 0 4.988-.99 6.15C61.912 60 60.1 60 57.35 60H34.11c-6.044-.055-6.481-.942-6.481-7.311 3.846-1.22 23.02-7.094 23.13-7.094 2.912-.885 4.835-1.495 5.606-3.159.712-1.549.165-3.433-.88-6.869l-.386-1.33h2.198c2.968 0 4.671.056 5.714 1.275z"/>
    </g>
</svg>
