<svg xmlns="http://www.w3.org/2000/svg" width="80" height="80" viewBox="0 0 80 80">
    <g fill="none" fill-rule="evenodd">
        <path stroke="#FEFEFE" stroke-width="2" d="M40 79c21.54 0 39-17.462 39-39C79 18.46 61.54 1 40 1S1 18.46 1 40c0 21.538 17.46 39 39 39z"/>
        <path fill="#FEFEFE" d="M60.484 50.056c-10.772.134-15.925 2.162-18.384 3.916v-25.35c.416-.712 3.412-4.65 18.384-4.835v26.27zM39.9 53.972c-2.46-1.751-7.612-3.782-18.384-3.916v-26.27c15.088.187 18.001 4.18 18.384 4.829v25.357zm24.437-29.835c-.702 0-1.36.009-2.019.025V22h-.735c-14.262 0-19.042 3.294-20.584 5.072C39.457 25.294 34.676 22 20.414 22h-.735v2.16a80.19 80.19 0 0 0-2.016-.023H16V55.38h1.663c17.597 0 21.188 3.897 21.7 4.62h3.302c.556-.756 4.216-4.62 21.672-4.62H66V24.137h-1.663z"/>
    </g>
</svg>
