<svg xmlns="http://www.w3.org/2000/svg" width="80" height="80" viewBox="0 0 80 80">
    <g fill="none" fill-rule="evenodd">
        <path stroke="#FEFEFE" stroke-width="2" d="M40 79c21.54 0 39-17.462 39-39C79 18.46 61.54 1 40 1S1 18.46 1 40c0 21.538 17.46 39 39 39z"/>
        <path fill="#FEFEFE" d="M28.999 25.12h13.418v7.28c0 1.459 1.143 2.646 2.557 2.646H52v21.83H28.999V25.122zM24 22.625v36.75C24 60.823 25.135 62 26.537 62h27.926C55.865 62 57 60.824 57 59.373V32.017c0-.697-.268-1.362-.745-1.856l-9.082-9.393A2.502 2.502 0 0 0 45.377 20h-18.84C25.135 20 24 21.173 24 22.624z"/>
    </g>
</svg>
