<svg xmlns="http://www.w3.org/2000/svg" width="80" height="80" viewBox="0 0 80 80">
    <g fill="none" fill-rule="evenodd">
        <path stroke="#FEFEFE" stroke-width="2" d="M40 79c21.54 0 39-17.462 39-39C79 18.46 61.54 1 40 1S1 18.46 1 40c0 21.538 17.46 39 39 39z"/>
        <path fill="#FEFEFE" d="M41.636 24.482c-2.218 0-4.204-2.031-4.174-4.716.036-3.118 2.083-4.796 4.11-4.766 2.256.036 4.138 1.777 4.149 4.695.111 2.742-1.931 4.785-4.085 4.787m10.309 6.414c.098 3.897.04 7.799.014 11.698 0 .463-.134.979-.343 1.379-.587 1.122-2.167 1.34-2.942.19-.327-.48-.46-1.007-.46-1.61.011-3.03.006-6.06.006-9.09 0-.379.01-.76-.003-1.138-.022-.477-.103-.53-.558-.538-.361-.01-.503.162-.467.56.008.087.002.178.002.266v16.979c.003 1.294 0 3.433.003 4.724 0 4.168.003 3.244 0 7.412 0 .444.05.924-.079 1.324-.622 1.928-2.414 2.446-3.771 1.46-.83-.61-1.085-1.561-1.085-2.647.008-7.017.005-9.795.005-16.812 0-.159.006-.315-.002-.471-.025-.464-.145-.568-.547-.576-.364-.008-.416.238-.413.562.002.2 0 .4 0 .6 0 6.954 0 9.664-.003 16.615 0 .488-.027.954-.201 1.428-.39 1.048-1.069 1.64-2.029 1.742-1.071.115-1.925-.338-2.455-1.484-.3-.653-.253-1.34-.253-2.024-.003-10.896 0-17.549.003-28.446 0-.266.005-.534-.014-.8-.01-.124-.065-.332-.12-.34-.263-.044-.549-.09-.8-.017-.102.03-.187.36-.19.551-.019.96-.005 1.917-.008 2.874-.002.57-.127 1.064-.486 1.52-.525.665-1.762.731-2.535.13a638.715 638.715 0 0 0-5.14-3.931c-.728-.552-1.065-1.3-.883-2.274.087-.468-.068-.699-.372-.926-.713-.532-1.417-1.078-2.124-1.621-1.757-1.352-3.513-2.7-5.267-4.053-.38-.296-.762-.597-1.131-.913-.348-.296-.373-.463-.164-.762.22-.313.357-.315.691-.055 1.156.905 2.311 1.804 3.467 2.704 1.542 1.198 3.081 2.399 4.623 3.595.226.172.473.307.69.485.213.173.373.159.634.063.64-.239 1.286-.26 1.887.252.65.557 1.335 1.067 2.012 1.58.302.227.387.164.43-.255.345-3.34 2.396-4.706 4.628-5.12 1.069-.2 2.19-.06 3.282-.08.286-.005.44.127.585.428.468.944.995 1.849 1.48 2.784.105.197.179.203.301.063.079-.09.155-.19.212-.3.435-.814.868-1.628 1.292-2.448.182-.35.4-.56.794-.543.761.036 1.528.036 2.29.017.913-.02 1.772.194 2.61.59 2.066.975 2.852 2.662 2.904 4.7"/>
    </g>
</svg>
