<svg xmlns="http://www.w3.org/2000/svg" width="80" height="80" viewBox="0 0 80 80">
    <g fill="none" fill-rule="evenodd">
        <path stroke="#FEFEFE" stroke-width="2" d="M40 79c21.54 0 39-17.462 39-39C79 18.46 61.54 1 40 1S1 18.46 1 40c0 21.538 17.46 39 39 39z"/>
        <path fill="#FEFEFE" d="M40.203 25.596c.331 0 .546.343.407.637l-1.033 2.176.47.986-.872 1.914-.872-1.914.47-.986-1.033-2.176a.446.446 0 0 1 .403-.637h2.06zM29.927 45.769c-.954 0-1.919-.52-1.927-1.583l.019-14.774c-.1-2.383 1.215-3.816 3.272-3.816h3.522c.525 0 .995.305 1.215.785l1.813 3.966.772 1.69a.597.597 0 0 0 .551.354.6.6 0 0 0 .552-.354l.77-1.69L42.3 26.38c.22-.48.69-.785 1.214-.785h3.523c2.054 0 3.372 1.433 3.269 3.816l.022 14.774c0 .646-.359 1.095-.856 1.344v1.883h.48c.58 0 1.047.466 1.047 1.047v8.859c0 .58-.467 1.046-1.046 1.046H46.85a1.042 1.042 0 0 1-1.044-1.046v-8.86c0-.58.465-1.046 1.044-1.046h.481v-1.9c-.46-.242-.785-.654-.785-1.246l-.022-11.715-1.525-.008-.049 30.18c0 1.52-1.28 2.276-2.557 2.276-1.285 0-2.571-.76-2.571-2.287V47.789h-1.304v14.924c0 1.526-1.286 2.287-2.571 2.287-1.278 0-2.558-.76-2.558-2.276l-.049-30.18-1.524-.006-.022 11.735c0 .992-.932 1.496-1.867 1.496zm9.248-22.332a4.711 4.711 0 0 0 4.705-4.719A4.711 4.711 0 0 0 39.175 14a4.711 4.711 0 0 0-4.704 4.718 4.711 4.711 0 0 0 4.704 4.719z"/>
    </g>
</svg>
