<svg xmlns="http://www.w3.org/2000/svg" width="80" height="80" viewBox="0 0 80 80">
    <g fill="none" fill-rule="evenodd">
        <path stroke="#FEFEFE" stroke-width="2" d="M40 79c21.54 0 39-17.462 39-39C79 18.46 61.54 1 40 1S1 18.46 1 40c0 21.538 17.46 39 39 39z"/>
        <path fill="#FEFEFE" d="M32.925 16l3.508 11.629H57l-1.438 14.25-.996 10.21-.78 7.597C53.664 60.993 52.581 62 51.287 62h-4.69a5.607 5.607 0 0 0 1.626-3.93c0-.844-.416-1.552-1.05-1.995.634-.722 1.05-1.662 1.05-2.72 0-1.184-.533-2.213-1.319-2.956a3.346 3.346 0 0 0 1.292-2.622c0-4.619-3.639-8.394-8.12-8.394h-4.502l-1.17-11.754h.134l-3.334-11.058L32.925 16zm-8.573 34.74h19.936c1.292 0 2.339 1.085 2.339 2.427 0 1.348-1.047 2.439-2.339 2.439H24.352C23.06 55.606 22 54.51 22 53.167c0-1.342 1.06-2.427 2.352-2.427zm-1.476 6.328h22.862c.484 0 .889.4.889.907 0 2.183-1.7 3.945-3.804 3.945H25.804c-2.1 0-3.804-1.762-3.804-3.945 0-.508.386-.907.876-.907zm5.848-16.22c-3.646 0-6.613 3.07-6.613 6.846 0 .999.784 1.811 1.749 1.811h21.075c.958 0 1.735-.812 1.735-1.811 0-3.776-2.966-6.846-6.613-6.846H28.724z"/>
    </g>
</svg>
