<svg xmlns="http://www.w3.org/2000/svg" viewBox="0 0 24 21">
    <g fill-rule="evenodd">
        <path d="M6.67 20.12s1.758-.176 2.818-.176l5.987.99s3.4.336 4.757-.512c.665-.416 2.129-1.007 2.199-4.566l.804-5.846s-.06-2.492-2.115-2.365l-4.2.256.983-4.28s.521-3.355-2.42-3.579c0 0-1.158-.446-1.035 1.565 0 0-.298 3.067-1.787 4.537l-2.562 2.94-1.519.83s-1.97.224-1.91 1.565v8.642zM1.013 20.957h3.004c.56 0 1.013-.466 1.013-1.04v-9.791c0-.574-.453-1.039-1.013-1.039H1.013C.453 9.087 0 9.552 0 10.126v9.792c0 .573.454 1.039 1.013 1.039z"/>
    </g>
</svg>
