<svg xmlns="http://www.w3.org/2000/svg" width="18" height="15" fill-rule="evenodd">
<path fill="#69687d" d="M.33 9.73c2.838.044 4.85.662 5.862 1.122V1.266C4.264.17 1.994.012.856.012L.334.024A.217.217 0 0 0 .13.243v9.28c0 .113.088.206.2.208"  transform="translate(2.4 .228)"/>
<path fill="#69687d" d="M6.263 9.524V.243a.217.217 0 0 0-.205-.219 11.292 11.292 0 0 0-.522-.012C4.398.012 2.128.17.2 1.266v9.587c1.013-.46 3.024-1.078 5.863-1.122a.205.205 0 0 0 .2-.207"  transform="translate(9.12 .228)"/>
<path fill="#69687d" d="M1.88 9.868c2.612 0 4.39.385 5.377.682a.78.78 0 0 0 .777.73h1.844a.78.78 0 0 0 .777-.73c.985-.297 2.765-.682 5.376-.682l.193.001 1.688.012V.1h-1.127v8.648l-.554-.004h-.2c-3.153 0-5.19.54-6.122.865l-.38.13v.414H8.382V9.74l-.38-.13c-.932-.324-2.968-.866-6.122-.866l-.2.001-.554.004V.1H0V9.88l1.688-.012h.192"  transform="translate(0 2.868)"/>
</svg>