<svg xmlns="http://www.w3.org/2000/svg" xmlns:xlink="http://www.w3.org/1999/xlink" width="19" height="21">
<defs>
<path id="A" d="M0 .292h12.22v5.03H0z"/>
<path id="B" d="M0 .075h12.22v3.563H0z"/>
<path id="C" d="M.98.547h12.222v5.035H.98z"/>
<path id="D" d="M0 .02h5.767v3.52H0z"/>
</defs>
<g fill="none" fill-rule="evenodd">
<path fill="#69687d" d="M17.563 17.145l-.627.333c-1.28.583-2.99.923-4.872.925-1.89-.002-3.594-.342-4.87-.925a6.281 6.281 0 0 1-.63-.333c-.42.36-.618.73-.6 1.047-.02.506.518 1.166 1.647 1.68 1.107.503 2.702.836 4.463.834s3.355-.33 4.46-.834c1.134-.515 1.67-1.175 1.647-1.68.013-.317-.2-.69-.61-1.048"/>
<g transform="translate(0 .26)">
<mask id="E" fill="#fff">
<use xlink:href="#A"/>
</mask>
<path fill="#69687d" d="M1.574 4.45l.076.038c1.106.508 2.696.838 4.46.834 1.763.004 3.352-.326 4.463-.834l.073-.038c1.078-.504 1.593-1.145 1.574-1.64.02-.5-.518-1.17-1.647-1.68-1.1-.507-2.7-.84-4.463-.837-1.765-.004-3.355.33-4.46.837C.516 1.64-.02 2.3 0 2.8c-.02.496.496 1.137 1.574 1.64" mask="url(#E)"/></g>
<g transform="translate(0 5.234)">
<mask id="F" fill="#fff"><use xlink:href="#B"/></mask>
<path fill="#69687d" d="M1.574 2.766l.074.038c1.108.504 2.698.837 4.463.834l.857-.028a10.956 10.956 0 0 0 .957-.095h.005a10.51 10.51 0 0 0 2.097-.494h.008c.01-.006.014-.01.024-.01l.515-.207c.025-.01.045-.025.073-.038C11.725 2.26 12.24 1.62 12.22 1.12c.013-.31-.2-.684-.614-1.046a5.56 5.56 0 0 1-.623.337c-1.283.58-3 .923-4.873.923S2.52.992 1.24.412A6.787 6.787 0 0 1 .612.078C.2.437-.01.8 0 1.12-.016 1.62.496 2.26 1.574 2.766" mask="url(#F)"/></g><g transform="translate(4.974 8.55)"><mask id="G" fill="#fff"><use xlink:href="#C"/></mask><path fill="#69687d" d="M13.133 2.724c-.004-.008-.004-.015-.01-.023a1.475 1.475 0 0 0-.094-.183 1.669 1.669 0 0 0-.138-.189l-.013-.015c-.27-.32-.705-.65-1.328-.93-1.106-.506-2.7-.84-4.458-.836L6.22.575l-.142.012c-1.197.084-2.275.325-3.125.66l-.324.135c-.615.278-1.05.603-1.32.92-.018.03-.04.05-.06.075l-.07.1c-.04.054-.07.114-.1.17-.01.014-.014.033-.02.046a1.55 1.55 0 0 0-.05.15.128.128 0 0 1-.012.047.817.817 0 0 0-.017.176.783.783 0 0 0 .032.229 1.45 1.45 0 0 0 .124.287c.007.01.01.02.018.028.23.373.688.764 1.398 1.097.03.012.048.025.076.04l.4.17.156.05.293.102.2.06.28.076.235.058.273.058c.085.022.173.037.262.052l.272.046.283.043.272.03.31.033.275.02.945.036c1.76 0 3.352-.332 4.458-.834a4.374 4.374 0 0 0 1.038-.637 2.29 2.29 0 0 0 .212-.202c.04-.04.065-.078.1-.12.017-.026.047-.052.063-.08.03-.04.048-.076.072-.1l.04-.072.008-.017.042-.1a.931.931 0 0 0 .031-.097h.002v-.007c.006-.02.018-.05.02-.076a.64.64 0 0 0 .015-.174h.005a.737.737 0 0 0-.02-.18.87.87 0 0 0-.05-.163" mask="url(#G)"/></g><path fill="#69687d" d="M.613 8.598C.2 8.96-.01 9.332 0 9.644c-.022.507.515 1.17 1.648 1.68.878.407 2.067.694 3.4.797a2.046 2.046 0 0 1-.074-.504c0-.1.01-.198.024-.3.01-.032.014-.07.02-.103l.047-.178c.008-.036.023-.07.036-.1a1.86 1.86 0 0 1 .065-.155l.055-.1a1.41 1.41 0 0 1 .066-.114 2.98 2.98 0 0 1 .603-.706c-1.794-.027-3.422-.363-4.65-.92a6.793 6.793 0 0 1-.628-.333"/><g transform="translate(0 11.866)"><mask id="H" fill="#fff"><use xlink:href="#D"/></mask><path fill="#69687d" d="M5.637 1.27C3.943 1.218 2.4.887 1.24.353A6.078 6.078 0 0 1 .612.02C.2.383-.01.753 0 1.066c-.02.51.516 1.17 1.65 1.68.882.406 2.066.7 3.4.792a2.322 2.322 0 0 1-.08-.502c.015-.645.32-1.187.798-1.644l-.13-.123" mask="url(#H)"/></g><path fill="#69687d" d="M18.153 14.714c-.054-.268-.25-.565-.6-.858l-.298.167h-.004a6.695 6.695 0 0 1-.325.167 7.274 7.274 0 0 1-.51.21l-.14.046a6.036 6.036 0 0 1-.412.14c-.03.012-.067.017-.095.026l-.5.137c-.015 0-.03.005-.047.008a11.79 11.79 0 0 1-.577.125c-.804.15-1.676.234-2.588.234a14.36 14.36 0 0 1-2.323-.188 12.676 12.676 0 0 1-1.33-.297 7.405 7.405 0 0 1-.589-.189c-.022-.01-.05-.018-.077-.028a9.397 9.397 0 0 1-.553-.224 6.305 6.305 0 0 1-.63-.338c-.368.32-.57.645-.606.93a.767.767 0 0 0-.005.122.92.92 0 0 0 .014.163l.02.076c.006.022.015.05.025.073.157.448.676.957 1.588 1.37 1.11.5 2.7.838 4.463.835 1.762.003 3.355-.325 4.46-.836.773-.35 1.26-.765 1.5-1.16l.034-.053.053-.116c.013-.03.02-.063.033-.09.007-.032.018-.058.022-.087a.642.642 0 0 0 .018-.174.667.667 0 0 0-.017-.167c-.001-.007-.001-.017-.005-.022"/></g></svg>