<svg xmlns="http://www.w3.org/2000/svg" width="22" height="19" viewBox="0 0 22 19">
    <g fill="none" fill-rule="evenodd">
        <path fill="#E8E8EE" d="M19.23 13.163l1.911 4.73-5.652-.45A10.332 10.332 0 0 1 10 19C4.477 19 0 14.747 0 9.5S4.477 0 10 0s10 4.253 10 9.5a9.063 9.063 0 0 1-.77 3.663z"/>
        <path fill="#504F7D" fill-rule="nonzero" d="M11.2 11.66H9.02c0-.707.12-1.323.36-1.85.24-.527.727-1.063 1.46-1.61.413-.307.687-.547.82-.72.133-.173.2-.413.2-.72 0-.413-.143-.743-.43-.99-.287-.247-.677-.37-1.17-.37-.92 0-1.533.48-1.84 1.44l-2.3-.6c.64-1.92 2.04-2.88 4.2-2.88 1.093 0 2.06.273 2.9.82.84.547 1.26 1.327 1.26 2.34 0 1.053-.46 1.913-1.38 2.58-.747.533-1.25.97-1.51 1.31-.26.34-.39.757-.39 1.25zM8.76 15.6v-2.74h2.72v2.74H8.76z"/>
    </g>
</svg>
