<svg xmlns="http://www.w3.org/2000/svg" xmlns:xlink="http://www.w3.org/1999/xlink" viewBox="0 0 25 13">
    <defs>
        <path id="prefix__a" d="M0 0L12.496 0 12.496 24.33 0 24.33z"/>
    </defs>
    <g fill="none" fill-rule="evenodd" transform="rotate(90 12.5 12.5)">
        <mask id="prefix__b" fill="#fff">
            <use xlink:href="#prefix__a"/>
        </mask>
        <path fill="#999EA2" d="M2.336 22.503c-.343 0-.686-.156-.941-.463-.5-.6-.482-1.553.039-2.128l6.842-7.565L1.434 4.78c-.52-.574-.538-1.527-.04-2.127.499-.6 1.324-.62 1.844-.045l7.825 8.651c.256.284.401.677.401 1.087 0 .41-.145.802-.401 1.086l-7.825 8.652c-.253.279-.577.418-.902.418" mask="url(#prefix__b)"/>
    </g>
</svg>
