<svg xmlns="http://www.w3.org/2000/svg" xmlns:xlink="http://www.w3.org/1999/xlink" width="16" height="22" viewBox="0 0 16 22">
    <defs>
        <path id="a" d="M0 .267h15.468V21.37H0z"/>
    </defs>
    <g fill="none" fill-rule="evenodd">
        <g transform="translate(0 .626)">
            <mask id="b" fill="#fff">
                <use xlink:href="#a"/>
            </mask>
            <path fill="#6F6E82" d="M14.119 19.457a1.86 1.86 0 0 0 .011-.113 1.38 1.38 0 0 1-.038.157l-.022.063.021-.045.015-.034c-.001.005-.017.04-.045.107a.201.201 0 0 1 .01-.028l-.008.012c-.026.053-.058.101-.088.151.11-.128-.068.107-.009.012a1.739 1.739 0 0 1-.117.115.398.398 0 0 0 .019-.01c.042-.032.017-.012-.072.057l.047-.04.006-.006c-.051.032-.1.068-.154.096l-.013.006c.032-.012.049-.017-.021.013-.106.046-.02.007.02-.012-.021.008-.05.02-.06.022a1.265 1.265 0 0 1-.126.032c.028-.002.056-.004.083-.008l-.177.025c.032-.005.063-.01.094-.017-.126.01-.253.005-.379.005H3.432c-.442 0-.885.004-1.327.001-.039 0-.077-.002-.116-.004l.087.015-.177-.024a2 2 0 0 0 .09.009 1.316 1.316 0 0 1-.133-.034c-.021-.007-.043-.017-.065-.024l.047.023a1.049 1.049 0 0 1-.047-.023l-.01-.005c-.05-.027-.098-.059-.147-.09.126.111-.105-.07-.012-.008l.011.007a1.53 1.53 0 0 1-.124-.126l.01.018c.03.043.012.018-.057-.074l.04.049.007.007c-.032-.053-.068-.103-.095-.158l-.006-.013c.011.032.017.05-.014-.022-.044-.107-.006-.02.013.021l-.022-.061a1.549 1.549 0 0 1-.046-.208v.012l.01.107a2.38 2.38 0 0 1-.013-.135l.003.016c-.02-.293-.004-.595-.004-.885v-7.187c0-.352.003-.706.005-1.059 0-.028.002-.055.004-.083l-.009.057a23.125 23.125 0 0 0 .01-.057c.01-.056.023-.112.04-.167.006-.02.015-.042.023-.064a1.9 1.9 0 0 0-.037.08c.001-.006.017-.04.045-.107a.26.26 0 0 1-.008.027l.005-.012c.027-.052.059-.1.09-.15-.11.128.067-.108.008-.013l-.008.012a1.36 1.36 0 0 1 .124-.127l-.018.012a.51.51 0 0 1-.02.013l.093-.072a1.83 1.83 0 0 0-.048.041l-.007.006c.052-.032.1-.068.155-.097l.01-.005c-.03.011-.044.017.025-.014.107-.046.014-.005-.024.014l.063-.023a1.41 1.41 0 0 1 .18-.043 1.651 1.651 0 0 0-.1.008l.14-.015-.04.007c.107-.007.217-.006.325-.006h9.684c.442 0 .885 0 1.327.005l.09.003c.053.01.106.024.159.04.02.006.041.016.063.023.004.002.007.005.011.006.052.027.1.06.148.09v.002a1.538 1.538 0 0 1 .126.126c.031.053.067.102.094.157l.006.011.023.065c.014.047.025.094.035.142l.003.102c.001.031.003.062.008.092v7.959c0 .348 0 .696-.004 1.044 0 .03-.001.062-.004.093a.938.938 0 0 0 .012-.067l-.023.18zM4.28 5.38c0-.226.005-.451.027-.677.048-.324.134-.637.25-.943l.007-.014a4.077 4.077 0 0 1 .444-.767l.07-.086a4.075 4.075 0 0 1 .545-.54v-.001l.078-.057a4.138 4.138 0 0 1 .664-.39c.01-.003.02-.007.029-.012l.002-.001a3.83 3.83 0 0 1 .374-.13c.164-.05.33-.086.498-.113.31-.036.622-.036.931-.001.308.05.603.136.894.25a4.09 4.09 0 0 1 .754.45l.002.001.085.071a4.547 4.547 0 0 1 .537.56v.002l.062.088a4.304 4.304 0 0 1 .376.668l.012.026v.001c.014.037.029.073.042.11a4.373 4.373 0 0 1 .207.844c.045.477.023.966.023 1.442v1.87H4.28V5.38zm4.795-3.491zm6.38 8.142a2.2 2.2 0 0 0-.54-1.302c-.343-.398-.83-.617-1.337-.68-.15-.019-.303-.019-.454-.019h-.601V5.77c0-.541 0-1.069-.1-1.606a4.803 4.803 0 0 0-1.66-2.794C9.85.629 8.712.215 7.538.273a4.7 4.7 0 0 0-2.66.967 4.98 4.98 0 0 0-1.696 2.405c-.188.583-.233 1.189-.233 1.796v2.59h-.349c-.159 0-.317.004-.476.004A2.127 2.127 0 0 0 .322 9.041c-.385.615-.318 1.36-.318 2.054v8.066c0 .58.185 1.114.573 1.545.402.446.991.664 1.578.664h11.034c.275 0 .552-.007.815-.096a2.15 2.15 0 0 0 1.46-2.025c.002-.157.004-.314.004-.471v-8.622a.613.613 0 0 0-.012-.125z" mask="url(#b)"/>
        </g>
        <path fill="#6F6E82" d="M7.546 14.837l.007.047.016-.112c-.008.013-.005.006 0-.008l.001-.001.002-.016-.001.014c.008-.017.02-.043.03-.061.004-.013.008-.024.012-.026L7.6 14.7l-.01.035c.021-.036.042-.072.065-.108a.671.671 0 0 1-.022.023c-.089.089.098-.148.032-.04l-.01.017a1.161 1.161 0 0 1 .067-.067.336.336 0 0 1-.025.014c-.073.039.14-.118.056-.04l-.03.026.09-.054-.035.008a.336.336 0 0 0 .047-.015.224.224 0 0 1 .019-.01c.033-.018.062-.02.054-.012a.704.704 0 0 1 .038-.009c-.028 0-.055.003-.083.006l.141-.018a.985.985 0 0 0-.048-.008l.051.007.052-.007a1.041 1.041 0 0 0-.048.008l.116.015c-.015-.009-.007-.006.01.001l.015.002h-.013l.062.028c.014.004.024.008.026.011l-.026-.011a.368.368 0 0 0-.037-.01c.037.02.074.04.111.062l-.023-.02c-.091-.087.152.094.042.03l-.019-.01.04.036.028.03a.505.505 0 0 1-.013-.024c-.04-.072.122.135.042.054l-.029-.03c.019.029.039.058.057.088-.003-.01-.006-.021-.008-.034a.292.292 0 0 0 .025.064c.019.033.02.06.013.053a.436.436 0 0 1 .009.038 1.227 1.227 0 0 0-.007-.082l.012.086.008.052.007-.048-.007.051.007.05-.007-.046-.008.05-.008.062c.008-.014.006-.006-.001.01l-.003.014a.17.17 0 0 0 .002-.013c-.007.017-.02.04-.029.06a.33.33 0 0 0 .01-.036 4.176 4.176 0 0 1-.065.11.33.33 0 0 1 .022-.023c.089-.089-.097.147-.033.04l.011-.017-.036.037-.031.03.024-.014c.075-.039-.139.118-.055.041l.03-.028-.091.055a.7.7 0 0 1 .036-.008c-.016.003-.033.01-.05.016l-.016.009c-.034.018-.062.02-.054.012a.695.695 0 0 1-.037.008c.027 0 .054-.003.082-.005a4.07 4.07 0 0 0-.07.009l-.071.009.048.007-.052-.006-.051.006a.97.97 0 0 0 .048-.007l-.041-.005-.075-.01c.014.008.007.006-.01-.001a.2.2 0 0 1-.015-.002l.013.001a2.305 2.305 0 0 1-.088-.04l.026.011a.525.525 0 0 0 .038.011 3.776 3.776 0 0 1-.112-.063l.023.021c.091.086-.152-.095-.042-.031a.484.484 0 0 1 .019.01.895.895 0 0 1-.04-.036l-.029-.03.015.024c.039.072-.122-.135-.043-.054l.028.03c-.017-.03-.037-.06-.056-.089l.008.035c-.003-.017-.01-.032-.016-.048a.366.366 0 0 0-.01-.016c-.018-.033-.02-.06-.012-.053a.75.75 0 0 1-.008-.037 1.2 1.2 0 0 0 .005.08l-.019-.137a1.83 1.83 0 0 0-.007.047l.007-.05-.007-.05m2.357 0c-.032-.784-.541-1.436-1.294-1.708-.696-.25-1.564-.022-2.04.53-.524.61-.64 1.48-.212 2.175.22.358.543.615.915.76v1.142c0 .375.339.735.737.717.399-.017.736-.315.736-.717v-1.135c.671-.272 1.123-.95 1.158-1.655a1.654 1.654 0 0 0 0-.109"/>
    </g>
</svg>
