<svg xmlns="http://www.w3.org/2000/svg" xmlns:xlink="http://www.w3.org/1999/xlink" width="113" viewBox="0 0 330 124">
    <defs>
        <path id="a" d="M0 .032h97.92V94H0z"/>
    </defs>
    <g>
        <path d="M142 31h-10.07s-10.217-.15-10.367 11.5v6.124H115v9.11h6.414V100h13.276V57.734H142v-8.961h-7.16v-5.227c0-2.24 2.387-3.286 5.668-3.286H142V31zM146 100V48.418h12.565v6.504s4.562-8.459 12.528-7.895H173v12.745l-5.086-.113s-8.814 1.354-8.814 9.039L159.051 100H146zM174 48h14.038l7.304 34.898L202.418 48H216l-15.18 56.554s-2.396 11.447-12.896 11.446h-10.158l.229-9.987s9.244 3.03 10.385-5.835L174 48zM220 100V48.51h12.98v5.08s3.513-7.093 13.997-6.548c3.614.187 9.82 1.129 11.4 8.92 0 0 1.242-9.319 13.658-8.95 0 0 10.159-.874 11.965 12.338V100h-13.432l.113-38.618s-1.468-4.63-5.757-4.065c0 0-5.53-.226-5.982 6.775l.113 35.908H245.51V62.06s-1.806-5.194-5.983-4.743c-2.882.312-6.32 1.807-5.982 9.937l.451 32.746H220zM309.698 91.877c-5.26 0-6.855-6.579-6.855-9.59V70.023c0-12.042 3.133-13.491 7.006-13.491 5.262 0 6.395 6.1 6.661 8.697.432 4.21.114 15.499.114 15.499 0 12.6-6.926 11.15-6.926 11.15m18.69-32.678c-2.164-7.805-9.486-12.187-16.775-12.199-3.873-.006-7.802.35-11.92 2.139-12.91 5.608-10.518 24.86-10.518 29.023 0 25.558 20.843 22.747 20.843 22.747 15.946-.112 18.338-12.043 18.338-12.043 2.733-12.6 1.567-24.13.032-29.667"/>
        <g transform="translate(0 30)">
            <mask id="b">
                <use xlink:href="#a"/>
            </mask>
            <path d="M7.645 93.653s17.422 4.337 39.35-17.649c0 0 19.676-20.49 35.446-47.41 0 0 15.92-23.632 15.47-27.072 0 0-.301-3.888-11.265.898 0 0-14.418 7.03-18.173 16.9l-14.87 28.417-5.106 7.927s-7.81-18.957-8.41-36.007c0 0-6.308 8.637-16.672 7.403 0 0-6.87.337-13.066-6.506 0 0 2.64 17.112 11.715 32.979 3.18 5.562 7.111 13.385 12.053 16.938 0 0-5.407 5.608-19.6 5.384 0 0-5.858-.897-8.674 3.477L.774 86.736s-4.176 7.405 6.871 6.917"/>
        </g>
        <path d="M92 16.5C92 25.613 84.613 33 75.5 33S59 25.613 59 16.5 66.387 0 75.5 0 92 7.387 92 16.5M42 37.5C42 46.613 34.613 54 25.5 54S9 46.613 9 37.5 16.387 21 25.5 21 42 28.387 42 37.5"/>
    </g>
</svg>
