<svg id="Layer_1" data-name="Layer 1" xmlns="http://www.w3.org/2000/svg" width="113" height="26" viewBox="0 0 142.33 33.33">
  <defs>
    <style>.cls-1{fill:#3e45a0;}</style>
  </defs>
  <title>logo-spitball</title>
  <g id="_Group_" data-name="&lt;Group&gt;">
    <g id="_Group_2" data-name="&lt;Group&gt;">
      <path class="cls-1" d="M13.36,8.71a1.29,1.29,0,0,0-.38.94V11a1.31,1.31,0,0,0,1.33,1.33h9.3a3.68,3.68,0,0,1,1.55.32,4,4,0,0,1,1.27.85,4.17,4.17,0,0,1,.85,1.26,3.87,3.87,0,0,1,.32,1.55v4a3.92,3.92,0,0,1-.32,1.56,4.44,4.44,0,0,1-.85,1.26,4.16,4.16,0,0,1-1.27.85,3.84,3.84,0,0,1-1.55.32H6.33v-4H19.62a1.31,1.31,0,0,0,.95-.38A1.33,1.33,0,0,0,21,19V17.62a1.31,1.31,0,0,0-.38-.94,1.28,1.28,0,0,0-.95-.39h-9.3A3.83,3.83,0,0,1,8.77,16a4.19,4.19,0,0,1-1.27-.86,4,4,0,0,1-.85-1.26,3.87,3.87,0,0,1-.32-1.55v-4a3.84,3.84,0,0,1,.32-1.55A3.93,3.93,0,0,1,8.77,4.65a3.84,3.84,0,0,1,1.55-.32H27.6v4H14.31A1.3,1.3,0,0,0,13.36,8.71Z"/></g><g id="_Group_3" data-name="&lt;Group&gt;">
        <path class="cls-1" d="M35.64,29.58H29V13.64a3.92,3.92,0,0,1,.32-1.56,4,4,0,0,1,.85-1.26A3.84,3.84,0,0,1,31.43,10,3.92,3.92,0,0,1,33,9.65H46.28a4,4,0,0,1,3.66,2.43,3.76,3.76,0,0,1,.32,1.56v6.64a3.76,3.76,0,0,1-.32,1.56,4.06,4.06,0,0,1-.85,1.26,4,4,0,0,1-1.26.85,3.87,3.87,0,0,1-1.55.32H37v-4h5.32A1.31,1.31,0,0,0,43.62,19V15a1.28,1.28,0,0,0-.39-1,1.25,1.25,0,0,0-.94-.38H37A1.27,1.27,0,0,0,36,14a1.28,1.28,0,0,0-.39,1Z"/>
      </g>
    <g id="_Group_4" data-name="&lt;Group&gt;">
      <path class="cls-1" d="M58.14,8.35H51.49v-4h6.65Zm-6.65,1.3h6.65V24.27H51.49Z"/>
    </g>
    <g id="_Group_5" data-name="&lt;Group&gt;">
      <path class="cls-1" d="M74.2,13.64h-8V19a1.33,1.33,0,0,0,.38.95,1.31,1.31,0,0,0,1,.38H74.2v4H63.57A3.84,3.84,0,0,1,62,24a4.16,4.16,0,0,1-1.27-.85,4.24,4.24,0,0,1-.85-1.26,3.92,3.92,0,0,1-.32-1.56V4.33h6.65V9.65h8Z"/>
    </g>
    <g id="_Group_6" data-name="&lt;Group&gt;">
      <path class="cls-1" d="M82.24,19a1.3,1.3,0,0,0,1.33,1.33h5.31a1.31,1.31,0,0,0,1-.38,1.33,1.33,0,0,0,.38-.95V15a1.31,1.31,0,0,0-.38-1,1.27,1.27,0,0,0-1-.38H83.57v-4h9.3a3.92,3.92,0,0,1,1.56.32,4.06,4.06,0,0,1,1.26.85,4,4,0,0,1,.85,1.26,3.92,3.92,0,0,1,.32,1.56v6.64a3.92,3.92,0,0,1-.32,1.56A4,4,0,0,1,94.43,24a3.92,3.92,0,0,1-1.56.32H79.58A3.84,3.84,0,0,1,78,24a4.16,4.16,0,0,1-1.27-.85,4.44,4.44,0,0,1-.85-1.26,3.92,3.92,0,0,1-.32-1.56V4.33h6.65Z"/>
    </g>
    <g id="_Group_7" data-name="&lt;Group&gt;">
      <path class="cls-1" d="M113.09,15a1.28,1.28,0,0,0-.39-1,1.25,1.25,0,0,0-.94-.38h-5.32a1.27,1.27,0,0,0-.94.38,1.28,1.28,0,0,0-.39,1v4a1.31,1.31,0,0,0,1.33,1.33h5.32v4h-9.3A3.92,3.92,0,0,1,100.9,24a4,4,0,0,1-1.26-.85,4.06,4.06,0,0,1-.85-1.26,3.92,3.92,0,0,1-.32-1.56V13.64a3.92,3.92,0,0,1,.32-1.56A4,4,0,0,1,100.9,10a3.92,3.92,0,0,1,1.56-.32h13.29a4,4,0,0,1,3.66,2.43,3.76,3.76,0,0,1,.32,1.56V24.27h-6.64Z"/>
    </g>
    <g id="_Group_8" data-name="&lt;Group&gt;">
      <path class="cls-1" d="M121.46,4.33h6.64V24.27h-6.64Z"/>
    </g>
    <g id="_Group_9" data-name="&lt;Group&gt;">
      <path class="cls-1" d="M129.55,4.33h6.64V24.27h-6.64Z"/>
    </g>
  </g>
</svg>