<svg xmlns="http://www.w3.org/2000/svg" xmlns:xlink="http://www.w3.org/1999/xlink" width="32" height="21" viewBox="0 0 32 21">
    <defs>
        <path id="prefix__a" d="M0.472 0.05L15.519 0.05 15.519 15.42 0.472 15.42z"/>
    </defs>
    <g fill="none" fill-rule="evenodd">
        <path fill="#363637" d="M4.975 3.371c-.182.198-.273.44-.273.727v1.025c0 .287.091.53.273.727.182.2.404.298.668.298h6.583c.389 0 .755.082 1.1.245.345.164.643.383.894.656.251.274.451.598.602.973.15.377.225.776.225 1.2v3.073c0 .423-.074.823-.225 1.199-.15.375-.35.7-.602.974-.25.273-.549.49-.893.655-.346.164-.712.246-1.1.246H0v-3.074h9.406c.263 0 .484-.1.667-.298.181-.197.272-.44.272-.727v-1.024c0-.287-.091-.53-.272-.727-.183-.198-.404-.297-.667-.297H2.82c-.388 0-.755-.083-1.1-.246-.345-.164-.643-.383-.893-.656-.252-.274-.452-.597-.603-.974C.075 6.971 0 6.571 0 6.148V3.073c0-.423.075-.822.225-1.198.151-.376.351-.7.603-.973.25-.273.548-.492.893-.657C2.066.081 2.433 0 2.82 0h12.226v3.073H5.643c-.264 0-.486.1-.668.298"/>
        <g transform="translate(15.57 4.048)">
            <mask id="prefix__b" fill="#fff">
                <use xlink:href="#prefix__a"/>
            </mask>
            <path fill="#363637" d="M5.174 15.42H.472V3.124c0-.423.075-.822.226-1.198.15-.375.35-.7.601-.974.251-.273.55-.492.894-.655.345-.164.712-.247 1.1-.247H12.7c.388 0 .755.083 1.1.247.345.163.643.382.893.655.25.274.452.599.602.974.151.376.225.775.225 1.198v5.123c0 .424-.074.824-.225 1.2-.15.375-.351.7-.602.973-.25.273-.548.491-.893.655-.345.164-.712.246-1.1.246H6.115V8.247h3.762c.263 0 .485-.1.667-.297.182-.198.274-.44.274-.727V4.15c0-.287-.092-.53-.274-.729-.182-.197-.404-.297-.667-.297H6.115c-.263 0-.486.1-.667.297-.183.198-.274.442-.274.729v11.27z" mask="url(#prefix__b)"/>
        </g>
    </g>
</svg>
