<svg xmlns="http://www.w3.org/2000/svg" viewBox="0 0 25 22">
    <g fill="none" fill-rule="evenodd" stroke="#43425D" stroke-linecap="round" stroke-linejoin="round" stroke-width="1.5">
        <path d="M24.26 21H5l.13-.928c.451-3.233 3.16-5.634 6.355-5.634l3.145-.938 3.144.938c3.196 0 5.904 2.401 6.355 5.634l.13.928zM13.889 10.5h0c-1.753 0-3.227-1.39-3.421-3.23l-.261-2.488C9.98 2.631 11.577.75 13.627.75h.524c2.05 0 3.647 1.88 3.42 4.032L17.31 7.27c-.194 1.84-1.668 3.231-3.421 3.231zM3.407 6L3.407 11.25M.815 8.625L6 8.625"/>
    </g>
</svg>
