<?xml version="1.0" encoding="UTF-8"?>
<svg width="23px" height="16px" viewBox="0 0 23 16" version="1.1" xmlns="http://www.w3.org/2000/svg" xmlns:xlink="http://www.w3.org/1999/xlink">
    <!-- Generator: sketchtool 49.3 (51167) - http://www.bohemiancoding.com/sketch -->
    <title>873D74D8-BDB7-4F3A-8A5E-0E4CF88A1171</title>
    <desc>Created with sketchtool.</desc>
    <defs></defs>
    <g id="Header" stroke="none" stroke-width="1" fill-rule="evenodd">
        <g id="Not-reg-header-web" transform="translate(-1240.000000, -28.000000)" fill-rule="nonzero">
            <path d="M1241.30438,30.5988428 L1261.69534,30.5988428 C1262.4156,30.5988428 1263,30.0170958 1263,29.2997011 C1263,28.5811876 1262.4156,28 1261.69534,28 L1241.30438,28 C1240.58412,28 1240.00028,28.581747 1240.00028,29.2997011 C1240,30.0168161 1240.58384,30.5988428 1241.30438,30.5988428 Z M1261.69478,34.7644869 L1241.30382,34.7644869 C1240.58356,34.7644869 1240,35.3462339 1240,36.0641879 C1240,36.781303 1240.58328,37.36305 1241.30382,37.36305 L1261.69478,37.36305 C1262.41504,37.36305 1262.99888,36.7818624 1262.99888,36.0641879 C1263.00028,35.3462339 1262.41588,34.7644869 1261.69478,34.7644869 Z M1261.69478,41.4014369 L1241.30382,41.4014369 C1240.58356,41.4014369 1240,41.9831839 1240,42.7005786 C1240,43.418253 1240.58328,44 1241.30382,44 L1261.69478,44 C1262.41504,44 1262.99888,43.4188124 1262.99888,42.7005786 C1263.00028,41.9834636 1262.41588,41.4014369 1261.69478,41.4014369 Z" id="Menu"></path>
        </g>
    </g>
</svg>