<?xml version="1.0" encoding="utf-8"?>
<!-- Generator: Adobe Illustrator 22.1.0, SVG Export Plug-In . SVG Version: 6.00 Build 0)  -->
<svg version="1.1" id="Layer_1" xmlns="http://www.w3.org/2000/svg" xmlns:xlink="http://www.w3.org/1999/xlink" x="0px" y="0px"
	 viewBox="0 0 20 20" style="enable-background:new 0 0 20 20;" xml:space="preserve">
<g>
	<defs>
		<path id="SVGID_1_" d="M20,10c0-5.5-4.5-10-10-10S0,4.5,0,10s4.5,10,10,10S20,15.5,20,10z M10,5.1c2.7,0,4.9,2.2,4.9,4.9
			s-2.2,4.9-4.9,4.9S5.1,12.7,5.1,10S7.3,5.1,10,5.1z M12.2,15.7l2.1,2.1c-2.6,1.5-5.9,1.5-8.5,0l2.1-2.1
			C9.2,16.2,10.8,16.2,12.2,15.7z M12.2,4.3c-1.4-0.5-3-0.5-4.3,0L5.7,2.2c2.6-1.5,5.9-1.5,8.6,0L12.2,4.3z M2.2,5.7l2.1,2.1
			c-0.5,1.4-0.5,3,0,4.3l-2.1,2.1C0.8,11.6,0.8,8.4,2.2,5.7z M15.7,7.8l2.1-2.1c1.5,2.6,1.5,5.9,0,8.6l-2.1-2.1
			C16.2,10.8,16.2,9.2,15.7,7.8z"/>
	</defs>
	<use xlink:href="#SVGID_1_"  style="overflow:visible;"/>
	<clipPath id="SVGID_2_">
		<use xlink:href="#SVGID_1_"  style="overflow:visible;"/>
	</clipPath>
</g>
</svg>
