<svg xmlns="http://www.w3.org/2000/svg" xmlns:xlink="http://www.w3.org/1999/xlink" width="12" height="17" viewBox="0 0 12 17">
    <defs>
        <path id="a" d="M0 .137h11.783V16.32H0z"/>
    </defs>
    <g fill="none" fill-rule="evenodd">
        <g transform="translate(0 .486)">
            <mask id="b" fill="#fff">
                <use xlink:href="#a"/>
            </mask>
            <path fill="#6F6E82" d="M3.016 15.269c-.362 0-.724.002-1.087 0-.045 0-.09-.001-.135-.006.028.006.057.01.085.015l-.135-.02c.017.003.033.004.05.005a1.302 1.302 0 0 1-.14-.034c-.032-.01-.067-.03-.1-.037l.035.018a.654.654 0 0 1-.043-.02l.008.002-.015-.008a1.332 1.332 0 0 1-.173-.107 1.004 1.004 0 0 1 0 0l-.003-.003c-.027-.026-.055-.05-.081-.078-.027-.027-.05-.056-.076-.085l-.003-.004.03.044a1.89 1.89 0 0 1-.046-.063l.015.018-.002-.002a1.488 1.488 0 0 1-.1-.174l-.008-.017.002.009-.03-.07a1.565 1.565 0 0 0 .028.06c-.006-.032-.026-.07-.035-.101a1.45 1.45 0 0 1-.038-.17l.007.076-.016-.14.01.064c-.01-.142-.007-.286-.007-.428V3.873c.043.024.087.046.132.066l.015.007c.271.117.556.162.85.167H5.556v4.8c0 .21.129.399.313.48.2.087.391.028.554-.11l.889-.745.728.614a376.913 376.913 0 0 0 .2.165c.087.079.2.126.32.12h.007a.505.505 0 0 0 .346-.153l.007-.008a.517.517 0 0 0 .146-.363v-4.8h.82l.88.003v10.179c0 .324-.005.649-.005.974H3.016zM6.568 4.114h1.484v3.705l-.228-.191a86.582 86.582 0 0 1-.156-.131c-.103-.087-.219-.16-.358-.154a.572.572 0 0 0-.359.154l-.383.321V4.114zM.003 2.126h.002a.896.896 0 0 0-.002 0zM11.78 3.612v-.014V3.585c0-.275-.233-.538-.507-.525a.433.433 0 0 0-.04.004H2.975c-.349 0-.698 0-1.048-.002-.04 0-.08-.003-.121-.006l.072.011-.135-.018.063.007a1.347 1.347 0 0 1-.153-.037c-.032-.01-.067-.03-.1-.037a1.464 1.464 0 0 0 .06.028c-.01-.003-.032-.013-.068-.03l.008.002a1.462 1.462 0 0 1-.186-.113l.017.014a1.477 1.477 0 0 1-.022-.02c-.027-.026-.055-.05-.081-.077-.027-.028-.05-.057-.076-.085l-.001-.002.028.04a.405.405 0 0 1-.03-.042L1.2 2.693a1.467 1.467 0 0 1-.1-.174l-.008-.016.002.008-.03-.07a2.344 2.344 0 0 0 .028.061c-.006-.033-.026-.07-.035-.102-.014-.05-.026-.1-.035-.15l.006.056-.012-.087-.006-.053.006.046-.001-.068.002-.018v-.004a.533.533 0 0 0-.005-.063v0a29.45 29.45 0 0 0 .01-.065c.01-.056.024-.112.04-.167.007-.023.032-.069.037-.098a1.641 1.641 0 0 0-.018.037c.008-.02.018-.043.018-.047v.01a1.51 1.51 0 0 1 .094-.164.057.057 0 0 1-.014.013c.007-.006.026-.033.037-.05a1.267 1.267 0 0 0-.023.036l.024-.033a1.358 1.358 0 0 1 .147-.15l.002-.002c-.01.006-.028.021-.031.023a1.506 1.506 0 0 1 .032-.024c.057-.041.116-.078.178-.11l.02-.01-.017.006c-.057.02.107-.05.053-.024l-.036.018.089-.032a1.23 1.23 0 0 1 .125-.031c-.013 0-.026.002-.038.004l.135-.021c-.033.005-.065.01-.097.017.115-.011.232-.006.348-.006H9.86c.373 0 .747.006 1.12-.002l.015-.001A.52.52 0 0 0 11.5.662C11.49.378 11.28.14 10.995.14H2.322c-.13 0-.261-.003-.392-.002C1.216.14.507.562.203 1.245c-.112.248-.18.517-.196.788a.551.551 0 0 0-.007.09v11.976c0 .248.003.489.063.733a1.954 1.954 0 0 0 1.873 1.488c.496.001.992-.001 1.487-.001h7.85a.522.522 0 0 0 .506-.523V5.086c0-.491.009-.983 0-1.474z" mask="url(#b)"/>
        </g>
        <path fill="#6F6E82" d="M6.208 15.057H8.65c.257 0 .504-.264.492-.583-.011-.32-.216-.583-.492-.583H6.208c-.258 0-.505.264-.493.583.012.32.216.583.493.583"/>
    </g>
</svg>
