<svg xmlns="http://www.w3.org/2000/svg" width="24" height="24" viewBox="0 0 24 24">
    <g fill="none" fill-rule="evenodd">
        <ellipse cx="12" cy="12.343" fill="#FFF" rx="12" ry="11.52"/>
        <g fill-rule="nonzero">
            <path fill="#4285F4" d="M18 8.957c0-.787-.063-1.361-.198-1.957H9v3.553h5.167c-.104.883-.667 2.213-1.917 3.107l-.018.118 2.784 2.202.192.02C16.98 14.33 18 11.872 18 8.957" transform="translate(3 3)"/>
            <path fill="#34A853" d="M9.04 18c2.43 0 4.47-.997 5.96-2.717l-2.84-2.743c-.76.66-1.78 1.122-3.12 1.122-2.38 0-4.4-1.957-5.12-4.662l-.106.011-2.778 2.68-.036.126C2.48 15.482 5.52 18 9.04 18" transform="translate(3 3)"/>
            <path fill="#FBBC05" d="M4 11.496c-.196-.62-.31-1.285-.31-1.972s.114-1.351.3-1.972l-.005-.132L1.085 5l-.095.048C.36 6.4 0 7.918 0 9.524 0 11.131.36 12.648.99 14L4 11.496" transform="translate(3 3)"/>
            <path fill="#EB4335" d="M9.006 4.338c1.682 0 2.818.91 3.465 1.67L15 2.917C13.447 1.109 11.425 0 9.006 0 5.5 0 2.474 2.518 1 6.183L3.898 9c.727-2.705 2.738-4.662 5.108-4.662" transform="translate(3 3)"/>
        </g>
    </g>
</svg>
