<svg xmlns="http://www.w3.org/2000/svg" width="16" height="16" viewBox="0 0 16 16">
    <path fill="#000" fill-opacity=".87" fill-rule="nonzero" d="M1.698 0A1.7 1.7 0 0 0 0 1.69v9.63a1.7 1.7 0 0 0 1.698 1.689h2.328c-.148 2.07-.181 3.065-.1 2.987l4.565-2.987h5.518a1.7 1.7 0 0 0 1.698-1.69V1.69A1.7 1.7 0 0 0 14.01 0H1.7zM14.01.845c.478 0 .85.354.85.81v9.544c0 .455-.372.81-.85.81H8.32l-.3-.01-3.11 1.997.526-1.545c.023-.224-.188-.443-.424-.443H1.698c-.478 0-.849-.354-.849-.81V1.655c0-.455.371-.81.85-.81h12.31zM3.184 4.065a.43.43 0 0 0-.425.435c0 .24.19.434.425.434h9.34a.43.43 0 0 0 .424-.434.43.43 0 0 0-.425-.435h-9.34zm0 2.826a.43.43 0 0 0-.425.435c0 .24.19.435.425.435h9.34a.43.43 0 0 0 .424-.435.43.43 0 0 0-.425-.435h-9.34z" opacity=".87"/>
</svg>
