<?xml version="1.0" encoding="UTF-8"?>
<svg width="24px" height="24px" viewBox="0 0 24 24" version="1.1" xmlns="http://www.w3.org/2000/svg" xmlns:xlink="http://www.w3.org/1999/xlink">
    <!-- Generator: sketchtool 48.2 (47327) - http://www.bohemiancoding.com/sketch -->
    <title>6ECA42AB-8E11-4709-A8E6-27709AECCE22</title>
    <desc>Created with sketchtool.</desc>
    <defs></defs>
    <g id="Share-Copy" stroke="none" stroke-width="1" fill="none" fill-rule="evenodd" transform="translate(-1072.000000, -150.000000)" opacity="0.900000036">
        <path d="M1084,174 C1077.37258,174 1072,168.627417 1072,162 C1072,155.372583 1077.37258,150 1084,150 C1090.62742,150 1096,155.372583 1096,162 C1096,168.627417 1090.62742,174 1084,174 Z M1085.07323,165.173508 C1085.07323,165.173508 1084.47163,165.359944 1083.85202,165.296884 C1083.21112,165.232128 1082.88081,165.104312 1082.88081,165.104312 L1082.15714,165.827992 C1081.58335,166.402182 1080.64401,166.432472 1080.1056,165.894445 C1079.56719,165.356419 1079.59826,164.416798 1080.17205,163.842998 L1082.12516,161.889731 C1082.69973,161.31554 1083.59639,161.276242 1084.13401,161.813485 C1084.13401,161.813485 1084.13728,161.816749 1084.13806,161.818055 C1084.49304,162.17291 1085.0684,162.17291 1085.42325,161.818055 C1085.77079,161.470511 1085.77732,160.911857 1085.44375,160.555827 L1085.44544,160.554521 C1085.44048,160.54956 1085.43565,160.545513 1085.43069,160.54016 C1085.42899,160.538071 1085.42573,160.534807 1085.42325,160.532327 C1085.41502,160.52384 1085.40523,160.516399 1085.39622,160.507782 C1084.22253,159.389428 1082.28744,159.466065 1081.06048,160.692259 L1078.97538,162.778565 C1077.73119,164.022254 1077.66891,165.995105 1078.83686,167.16307 C1080.00481,168.331036 1081.9775,168.26876 1083.22091,167.025071 L1085.07323,165.173508 Z M1088.91313,157.086789 C1087.74518,155.918824 1085.77157,155.981491 1084.52908,157.224788 L1082.67676,159.076352 C1082.67676,159.076352 1083.27835,158.889785 1083.89797,158.952975 C1084.53887,159.017731 1084.86839,159.146069 1084.86839,159.146069 L1085.59297,158.421868 C1086.16676,157.848069 1087.10598,157.81791 1087.6436,158.355937 C1088.18215,158.893571 1088.15173,159.833715 1087.57807,160.406992 L1085.62496,162.360259 C1085.05038,162.93445 1084.15373,162.973748 1083.6161,162.436374 C1083.6161,162.436374 1083.61284,162.43311 1083.61205,162.431805 C1083.2572,162.07695 1082.68185,162.07695 1082.32687,162.431805 C1081.97855,162.77974 1081.97202,163.338264 1082.30559,163.694424 L1082.3048,163.69573 C1082.30976,163.70056 1082.31459,163.704347 1082.31956,163.709699 C1082.32125,163.711658 1082.32452,163.714922 1082.32608,163.717794 C1082.33509,163.726411 1082.34488,163.733461 1082.35389,163.741686 C1083.52758,164.860431 1085.46189,164.784186 1086.68964,163.5576 L1088.77474,161.471295 C1090.0188,160.227867 1090.08107,158.254232 1088.91313,157.086789 Z" id="Combined-Shape" fill="#3532D5"></path>
    </g>
</svg>