<?xml version="1.0" encoding="UTF-8"?>
<svg width="16px" height="18px" viewBox="0 0 16 18" version="1.1" xmlns="http://www.w3.org/2000/svg" xmlns:xlink="http://www.w3.org/1999/xlink">
    <!-- Generator: sketchtool 48.2 (47327) - http://www.bohemiancoding.com/sketch -->
    <title>BD23E94F-1393-4BFC-8AD7-02D189179312</title>
    <desc>Created with sketchtool.</desc>
    <defs></defs>
    <g id="Results-page-search-3" stroke="none" stroke-width="1" fill="none" fill-rule="evenodd" transform="translate(-248.000000, -223.000000)">
        <g id="noun_1241413_cc" transform="translate(248.000000, 223.000000)" fill="#9B9B9B" fill-rule="nonzero">
            <path d="M2.51707317,3.31707317 L2.51707317,0.87804878 C2.51707317,0.448780488 2.16585366,0.0975609756 1.73658537,0.0975609756 C1.30731707,0.0975609756 0.956097561,0.448780488 0.956097561,0.87804878 L0.975609756,5.36585366 C0.975609756,5.79512195 1.32682927,6.14634146 1.75609756,6.14634146 L6.24390244,6.16585366 C6.67317073,6.16585366 7.02439024,5.81463415 7.02439024,5.38536585 C7.02439024,4.95609756 6.67317073,4.60487805 6.24390244,4.60487805 L3.45365854,4.60487805 C6.10731707,2.20487805 10.204878,2.4195122 12.604878,5.07317073 C15.004878,7.72682927 14.7902439,11.8243902 12.1365854,14.2243902 C9.48292683,16.6243902 5.38536585,16.4097561 2.98536585,13.7560976 C2.4195122,13.1317073 1.9902439,12.4097561 1.69756098,11.6097561 C1.56097561,11.2 1.11219512,10.9853659 0.702439024,11.1414634 C0.292682927,11.2780488 0.0780487805,11.7268293 0.234146341,12.1365854 C1.73658537,16.3317073 6.34146341,18.497561 10.5365854,16.9756098 C14.7317073,15.4536585 16.8780488,10.8487805 15.3756098,6.67317073 C13.8731707,2.49756098 9.22926829,0.331707317 5.05365854,1.83414634 C4.11707317,2.16585366 3.25853659,2.67317073 2.51707317,3.31707317 Z" id="Shape"></path>
            <path d="M8.33170732,11.1219512 C8.76097561,11.1219512 9.11219512,10.7707317 9.11219512,10.3414634 L9.11219512,6.04878049 C9.11219512,5.6195122 8.76097561,5.26829268 8.33170732,5.26829268 C7.90243902,5.26829268 7.55121951,5.6195122 7.55121951,6.04878049 L7.55121951,9.56097561 L5.13170732,9.56097561 C4.70243902,9.56097561 4.35121951,9.91219512 4.35121951,10.3414634 C4.35121951,10.7707317 4.70243902,11.1219512 5.13170732,11.1219512 L8.33170732,11.1219512 Z" id="Shape"></path>
        </g>
    </g>
</svg>