<?xml version="1.0" encoding="UTF-8"?>
<svg width="24px" height="24px" viewBox="0 0 24 24" version="1.1" xmlns="http://www.w3.org/2000/svg" xmlns:xlink="http://www.w3.org/1999/xlink">
    <!-- Generator: sketchtool 48.2 (47327) - http://www.bohemiancoding.com/sketch -->
    <title>E4098E0E-9170-424E-A5DC-4A3026542AB2</title>
    <desc>Created with sketchtool.</desc>
    <defs></defs>
    <g id="Share-Copy" stroke="none" stroke-width="1" fill="none" fill-rule="evenodd" transform="translate(-1072.000000, -111.000000)">
        <path d="M1084,111 C1077.36725,111 1072,116.364268 1072,123.000004 C1072,125.502514 1072.76316,127.817313 1074.11875,129.806252 C1074.22096,129.957733 1074.24857,130.147538 1074.19375,130.321862 L1072.975,134.4 L1076.96875,133.021861 C1077.14167,132.964293 1077.33139,132.988444 1077.48438,133.087501 C1079.35504,134.3013 1081.59447,135 1084,135 C1090.6359,135 1096,129.635882 1096,123.000004 C1096,116.364088 1090.6359,111 1084,111 Z M1079.0875,116.231248 L1081.27188,119.840637 L1080.3625,120.740636 C1080.17219,120.932656 1080.1338,121.228234 1080.26875,121.462496 C1081.6565,123.865684 1083.30075,125.735313 1085.60313,126.750003 C1085.82893,126.850309 1086.09313,126.801939 1086.26875,126.628143 L1087.23438,125.662504 L1090.75938,127.865643 C1090.36905,128.744102 1089.8602,129.267122 1089.27813,129.571862 C1088.6039,129.924902 1087.78039,129.991742 1086.84063,129.796862 C1084.96109,129.407132 1082.69076,127.929963 1080.84063,126.037503 C1078.99049,124.145074 1077.55875,121.843886 1077.19375,119.971857 C1077.01125,119.035857 1077.09188,118.229757 1077.4375,117.590638 C1077.73509,117.040348 1078.24059,116.569228 1079.0875,116.231248 Z" id="Shape" fill="#139F49"></path>
    </g>
</svg>