<svg xmlns="http://www.w3.org/2000/svg" width="20" height="20" viewBox="0 0 20 20">
    <path fill="#4452FC" fill-rule="evenodd" d="M14.147 16.333h2.993v-3.185h-2.993v3.185zm-3.73 0h2.992v-3.185h-2.993v3.185zm-3.732 0h2.993v-3.185H6.685v3.185zm-3.73 0h2.992v-3.185H2.955v3.185zm11.192-4.26h2.993V8.889h-2.993v3.184zm-3.73 0h2.992V8.889h-2.993v3.184zm-3.732 0h2.993V8.889H6.685v3.184zm-3.73 0h2.992V8.889H2.955v3.184zM1.818 18h16.364V7H1.818v11zM15.455 0v2H4.545V0H2.727v2h-.909C.81 2 .01 2.9.01 4L0 18c0 1.1.81 2 1.818 2h16.364c1 0 1.818-.9 1.818-2V4c0-1.1-.818-2-1.818-2h-.91V0h-1.817z"/>
</svg>
