<svg xmlns="http://www.w3.org/2000/svg" width="24" height="24" viewBox="0 0 24 24">
    <path fill="#4452FC" fill-rule="evenodd" d="M16.977 19.6h3.591v-3.822h-3.591V19.6zm-4.477 0h3.59v-3.822H12.5V19.6zm-4.477 0h3.59v-3.822h-3.59V19.6zm-4.478 0h3.592v-3.822H3.545V19.6zm13.432-5.112h3.591v-3.821h-3.591v3.82zm-4.477 0h3.59v-3.821H12.5v3.82zm-4.477 0h3.59v-3.821h-3.59v3.82zm-4.478 0h3.592v-3.821H3.545v3.82zM2.182 21.6h19.636V8.4H2.182v13.2zM18.545 0v2.4H5.455V0H3.273v2.4H2.182C.97 2.4.01 3.48.01 4.8L0 21.6C0 22.92.97 24 2.182 24h19.636c1.2 0 2.182-1.08 2.182-2.4V4.8c0-1.32-.982-2.4-2.182-2.4h-1.09V0h-2.183z"/>
</svg>
