<svg xmlns="http://www.w3.org/2000/svg" xmlns:xlink="http://www.w3.org/1999/xlink" width="12" height="17" viewBox="0 0 12 17">
    <defs>
        <path id="a" d="M0 .198h11.601v15.598H0z"/>
    </defs>
    <g fill="none" fill-rule="evenodd">
        <g transform="translate(0 .463)">
            <mask id="b" fill="#fff">
                <use xlink:href="#a"/>
            </mask>
            <path fill="#6F6E82" d="M10.59 14.381l.008-.084a1.008 1.008 0 0 1-.029.116c-.004.016-.011.032-.016.047l.015-.033.012-.025-.034.08a.147.147 0 0 1 .007-.022l-.005.01c-.02.038-.044.074-.067.11.083-.094-.05.08-.006.01a1.293 1.293 0 0 1-.074.077c.031-.023.013-.009-.054.043l.035-.03.005-.005c-.039.024-.075.05-.116.071l-.01.005c.024-.009.037-.013-.015.01-.08.034-.015.005.015-.01l-.045.017a.96.96 0 0 1-.095.024l.063-.006-.133.018a1.32 1.32 0 0 0 .07-.012c-.094.006-.19.003-.284.003H2.574c-.331 0-.663.003-.995.001-.03 0-.058-.001-.087-.003l.065.011-.133-.018.068.007a.999.999 0 0 1-.1-.025l-.049-.018a.92.92 0 0 0 .058.027 12.044 12.044 0 0 1-.058-.027l-.007-.004c-.038-.02-.074-.043-.11-.066.094.082-.08-.051-.01-.006l.009.005a1.14 1.14 0 0 1-.094-.093l.009.013c.022.032.008.013-.043-.054l.03.036.004.005c-.023-.039-.05-.076-.07-.117-.002-.001-.003-.005-.005-.01.009.024.012.038-.01-.016-.034-.079-.005-.014.01.016a1.13 1.13 0 0 1-.051-.199v.009l.007.08a1.734 1.734 0 0 1-.008-.089c-.015-.216-.003-.44-.003-.654V8.294c0-.26.002-.522.004-.783a1 1 0 0 1 .003-.06l-.007.04.014-.11a3.21 3.21 0 0 0-.007.069c.008-.042.018-.083.03-.124l.018-.047a1.396 1.396 0 0 0-.028.059l.034-.08a.19.19 0 0 1-.006.021c0-.003.003-.006.004-.009.02-.039.044-.074.067-.11-.083.094.05-.08.006-.01l-.005.009a1.01 1.01 0 0 1 .092-.094l-.013.008a.383.383 0 0 1-.015.01l.07-.053a1.367 1.367 0 0 0-.042.035c.04-.024.076-.05.116-.072l.008-.004c-.022.009-.033.013.019-.01.08-.034.01-.004-.018.01l.047-.017a1.07 1.07 0 0 1 .134-.032l-.075.006.106-.01c-.01 0-.02.002-.03.004.08-.005.163-.004.244-.004h7.263a121.709 121.709 0 0 1 1.062.006c.04.008.08.017.12.03.015.004.03.011.047.017l.008.004c.04.02.075.044.111.067a1.146 1.146 0 0 1 .095.094c.023.04.05.076.07.116l.005.009.017.047c.01.035.019.07.026.105.002.025.003.05.003.076 0 .023.002.045.006.067v5.883c0 .258-.001.515-.003.772a.914.914 0 0 1-.003.068.684.684 0 0 0 .008-.049l-.017.133zM3.21 3.977c0-.168.004-.334.02-.5.036-.24.1-.471.187-.698l.006-.01a2.993 2.993 0 0 1 .333-.567l.053-.064a3.027 3.027 0 0 1 .408-.399c.02-.014.039-.029.059-.042a3.107 3.107 0 0 1 .498-.288l.021-.01h.002a2.898 2.898 0 0 1 .654-.18c.232-.026.466-.026.699-.001.23.037.451.1.67.185a3.372 3.372 0 0 1 .257.13c.107.062.21.13.309.202v.001l.065.053a3.378 3.378 0 0 1 .402.414v.001l.047.065a3.165 3.165 0 0 1 .282.494l.009.019v.001l.031.081a3.199 3.199 0 0 1 .156.624c.033.352.017.714.017 1.066v1.381H3.21V3.977zm3.596-2.581zm4.786 6.019a1.614 1.614 0 0 0-.406-.963c-.257-.294-.622-.456-1.002-.503-.113-.014-.227-.014-.34-.014h-.452V4.264c0-.4 0-.79-.074-1.187a3.54 3.54 0 0 0-1.246-2.065C7.388.465 6.534.159 5.654.202A3.558 3.558 0 0 0 3.66.917a3.682 3.682 0 0 0-1.272 1.777c-.14.431-.174.879-.174 1.328v1.913H1.95c-.12 0-.238.004-.357.004a1.6 1.6 0 0 0-1.353.743c-.289.455-.238 1.006-.238 1.519v5.961c0 .429.139.824.43 1.142.301.33.743.492 1.183.492h8.276c.206 0 .413-.006.611-.072a1.592 1.592 0 0 0 1.095-1.497c.001-.116.003-.231.003-.348V7.507a.447.447 0 0 0-.01-.092z" mask="url(#b)"/>
        </g>
        <path fill="#6F6E82" d="M5.66 10.967l.005.034.012-.082c-.006.009-.004.004 0-.007l.002-.012v.01l.021-.045c.004-.01.007-.017.01-.019l-.01.019-.008.026.05-.08-.017.017c-.067.066.073-.109.024-.03l-.008.013a.864.864 0 0 1 .05-.05.253.253 0 0 1-.018.011c-.055.029.105-.087.042-.03l-.023.02.068-.04-.027.006a.255.255 0 0 0 .036-.011.169.169 0 0 1 .014-.008c.025-.013.047-.015.04-.009l.029-.006c-.02 0-.041.002-.062.004l.106-.013a.749.749 0 0 0-.037-.006l.039.005a1.752 1.752 0 0 0 .003 0l.087.012c-.011-.006-.005-.005.007 0 .004.002.007.002.011.002h-.01l.047.02c.01.004.018.007.02.01l-.02-.01a.28.28 0 0 0-.027-.007l.083.046-.017-.015c-.069-.064.113.07.03.023l-.013-.008.03.027a.846.846 0 0 1 .021.022.372.372 0 0 1-.01-.018c-.03-.053.091.1.032.04l-.022-.022c.014.022.029.043.042.065l-.006-.025a.213.213 0 0 0 .02.047c.013.025.015.045.009.04a.319.319 0 0 1 .007.027.894.894 0 0 0-.005-.06l.009.064.005.038.005-.035c0 .012-.003.025-.004.037l.004.037c0-.011-.003-.023-.005-.034l-.005.037c-.002.016-.005.03-.006.046.006-.01.004-.005-.002.007l-.001.01v-.009l-.02.044a.242.242 0 0 0 .007-.026 3.077 3.077 0 0 1-.049.081.246.246 0 0 1 .017-.017c.066-.065-.074.11-.025.03l.008-.013-.027.028-.024.021.019-.01c.056-.029-.104.087-.041.03l.022-.02-.068.04a.532.532 0 0 1 .027-.006l-.037.012-.013.007c-.025.013-.046.015-.04.01l-.028.005c.02 0 .04-.002.061-.004a3.095 3.095 0 0 0-.052.007l-.053.006a.867.867 0 0 0 .036.006l-.039-.005-.039.005a.737.737 0 0 0 .036-.006l-.03-.003-.057-.008c.011.007.006.005-.006 0l-.012-.002.01.001a1.74 1.74 0 0 1-.066-.03l.019.009a.398.398 0 0 0 .028.008 2.844 2.844 0 0 1-.084-.047l.018.016c.068.063-.114-.07-.032-.024l.014.008a.668.668 0 0 1-.029-.026l-.022-.023a.402.402 0 0 1 .01.018c.03.053-.09-.1-.031-.04l.02.022c-.012-.022-.027-.043-.041-.065l.006.025c-.003-.012-.008-.024-.012-.035a.27.27 0 0 0-.007-.012c-.014-.025-.015-.045-.01-.04a.548.548 0 0 1-.006-.026c0 .02.002.039.004.059l-.014-.101a1.334 1.334 0 0 0-.005.034l.005-.037-.005-.037m1.767 0c-.024-.58-.406-1.061-.97-1.262-.522-.186-1.173-.017-1.53.392-.393.45-.48 1.093-.16 1.607.166.265.408.455.687.562v.844c0 .277.254.543.552.53.3-.013.553-.233.553-.53v-.839a1.412 1.412 0 0 0 .868-1.304"/>
    </g>
</svg>
