<svg xmlns="http://www.w3.org/2000/svg" xmlns:xlink="http://www.w3.org/1999/xlink" width="228" height="256" viewBox="0 0 228 256">
    <defs>
        <path id="prefix__a" d="M0.718 0.41L45.309 0.41 45.309 45 0.718 45z"/>
    </defs>
    <g fill="none" fill-rule="evenodd">
        <path fill="#ECDDFD" d="M116.034 192.71c0 3.022-2.45 5.473-5.472 5.473-3.021 0-5.471-2.451-5.471-5.472 0-3.022 2.45-5.472 5.47-5.472 3.024 0 5.473 2.45 5.473 5.472M126.977 235.268c0 3.021-2.449 5.472-5.472 5.472-3.02 0-5.47-2.45-5.47-5.472 0-3.022 2.45-5.472 5.47-5.472 3.023 0 5.472 2.45 5.472 5.472M43.079 161.096c0 3.021-2.45 5.472-5.472 5.472-3.022 0-5.471-2.45-5.471-5.472 0-3.022 2.449-5.472 5.47-5.472 3.023 0 5.473 2.45 5.473 5.472M69.829 79.629c0 3.022-2.45 5.472-5.472 5.472-3.021 0-5.471-2.45-5.471-5.472 0-3.021 2.45-5.472 5.47-5.472 3.024 0 5.473 2.45 5.473 5.472M102.659 79.629c0 3.022-2.45 5.472-5.472 5.472-3.021 0-5.471-2.45-5.471-5.472 0-3.021 2.45-5.472 5.47-5.472 3.024 0 5.473 2.45 5.473 5.472M146.432 60.173c0 3.023-2.449 5.472-5.472 5.472-3.02 0-5.47-2.45-5.47-5.471s2.45-5.472 5.47-5.472c3.023 0 5.472 2.45 5.472 5.471M164.672 130.09c0 2.687-2.178 4.864-4.863 4.864-2.688 0-4.865-2.177-4.865-4.864 0-2.686 2.178-4.863 4.865-4.863 2.685 0 4.863 2.177 4.863 4.863M47.942 47.407c0 2.686-2.178 4.863-4.863 4.863-2.687 0-4.865-2.177-4.865-4.863 0-2.687 2.178-4.864 4.865-4.864 2.685 0 4.863 2.177 4.863 4.864M79.556 179.943c0 2.687-2.178 4.864-4.863 4.864-2.687 0-4.865-2.177-4.865-4.864s2.178-4.863 4.865-4.863c2.685 0 4.863 2.176 4.863 4.863M147.648 205.477c0 4.03-3.266 7.296-7.295 7.296s-7.296-3.267-7.296-7.296c0-4.028 3.267-7.295 7.296-7.295 4.03 0 7.295 3.267 7.295 7.295" transform="translate(0 1)"/>
        <path stroke="#ECDDFD" stroke-linecap="round" stroke-width="2" d="M152.782 26.332c-2.866 11.315-14.363 18.165-25.68 15.299-11.315-2.866-18.165-14.363-15.3-25.68 2.868-11.315 14.365-18.165 25.68-15.3 11.317 2.868 18.166 14.365 15.3 25.68z" transform="translate(0 1)"/>
        <path fill="#C697F8" d="M141.647 22.054L129.515 11.576 127.309 29.223z" transform="translate(0 1)"/>
        <path stroke="#ECDDFD" stroke-linecap="round" stroke-width="2" d="M53.75 198.811c0 11.673-9.462 21.136-21.135 21.136-11.674 0-21.136-9.463-21.136-21.136 0-11.674 9.462-21.137 21.136-21.137 11.673 0 21.136 9.463 21.136 21.137z" transform="translate(0 1)"/>
        <path stroke="#C1A9DC" stroke-linecap="round" stroke-linejoin="round" stroke-width="2" d="M27.185 190.296L21.212 204.426M27.185 190.296L33.159 204.426M31.025 199.38L23.345 199.38M41.863 189.287L39.302 186.259 36.743 189.287M36.743 206.444L39.303 209.471 41.863 206.444M39.302 186.258L39.302 209.471" transform="translate(0 1)"/>
        <path fill="#F1E6FD" d="M227.9 143.465c0 10.073-8.166 18.238-18.239 18.238s-18.24-8.165-18.24-18.238c0-10.072 8.167-18.239 18.24-18.239 10.073 0 18.239 8.167 18.239 18.24" transform="translate(0 1)"/>
        <path fill="#ECDDFD" d="M206.013 69.294c0 4.029-3.267 7.295-7.296 7.295s-7.296-3.266-7.296-7.295c0-4.03 3.267-7.296 7.296-7.296 4.03 0 7.296 3.267 7.296 7.296" transform="translate(0 1)"/>
        <path fill="#C697F8" d="M103.875 42.543c0 4.029-3.266 7.296-7.295 7.296-4.03 0-7.296-3.267-7.296-7.296 0-4.03 3.267-7.295 7.296-7.295s7.295 3.266 7.295 7.295" transform="translate(0 1)"/>
        <path fill="#D9B9FA" d="M171.967 166.568c0 4.7-3.812 8.512-8.512 8.512-4.7 0-8.51-3.812-8.51-8.512 0-4.7 3.81-8.512 8.51-8.512 4.7 0 8.512 3.811 8.512 8.512" transform="translate(0 1)"/>
        <path fill="#C697F8" d="M83.204 220.07c0 4.7-3.811 8.511-8.511 8.511-4.701 0-8.511-3.812-8.511-8.512 0-4.7 3.81-8.512 8.51-8.512 4.7 0 8.512 3.811 8.512 8.512" transform="translate(0 1)"/>
        <path fill="#C290F7" d="M18.76 133.738c0 4.7-3.812 8.512-8.512 8.512-4.7 0-8.51-3.812-8.51-8.512 0-4.701 3.81-8.512 8.51-8.512 4.7 0 8.511 3.811 8.511 8.512" transform="translate(0 1)"/>
        <path fill="#C697F8" d="M209.66 184.199c0 3.693-2.993 6.687-6.686 6.687-3.694 0-6.688-2.994-6.688-6.687s2.994-6.687 6.688-6.687c3.693 0 6.687 2.994 6.687 6.687" transform="translate(0 1)"/>
        <path stroke="#C1A9DC" stroke-linecap="round" stroke-linejoin="round" stroke-width="1.8" d="M203.06 145.93l-.817 5.717 5.716-.818 12.49-12.489c.32-.319.32-.836 0-1.155l-3.745-3.745c-.319-.319-.836-.319-1.155 0l-12.49 12.49zM208.776 145.113L218.577 135.313M203.059 145.93L207.959 150.829" transform="translate(0 1)"/>
        <path fill="#F5ECFE" d="M45.856 89.79c0 12.663-10.265 22.928-22.928 22.928S0 102.453 0 89.79s10.265-22.928 22.928-22.928S45.856 77.127 45.856 89.79" transform="translate(0 1)"/>
        <path stroke="#C1A9DC" stroke-linecap="round" stroke-linejoin="round" stroke-width="2" d="M21.704 80.235c-6.942 0-12.482 6.012-11.697 13.112.594 5.385 4.972 9.762 10.356 10.358 7.102.784 13.113-4.756 13.113-11.699H21.704v-11.77z" transform="translate(0 1)"/>
        <path stroke="#C1A9DC" stroke-linecap="round" stroke-linejoin="round" stroke-width="2" d="M25.236 88.475h11.771c0-6.502-5.27-11.772-11.771-11.772v11.772z" transform="translate(0 1)"/>
        <g transform="translate(0 1) translate(161 199.988)">
            <mask id="prefix__b" fill="#fff">
                <use xlink:href="#prefix__a"/>
            </mask>
            <path fill="#F5ECFE" d="M45.31 22.705C45.31 35.018 35.326 45 23.012 45 10.701 45 .718 35.018.718 22.705.718 10.392 10.701.41 23.013.41c12.314 0 22.296 9.982 22.296 22.295" mask="url(#prefix__b)"/>
        </g>
        <path fill="#C697F8" d="M146.432 136.17c0 24.176-19.598 43.773-43.773 43.773-24.175 0-43.774-19.597-43.774-43.773 0-24.176 19.6-43.773 43.774-43.773 24.175 0 43.773 19.597 43.773 43.773M186.558 100.3c0 6.38-5.172 11.552-11.552 11.552-6.379 0-11.55-5.172-11.55-11.553 0-6.38 5.171-11.55 11.55-11.55 6.38 0 11.552 5.17 11.552 11.55" transform="translate(0 1)"/>
        <path stroke="#ECDDFD" stroke-width="2" d="M113.602 93.612L126.977 42.543M42.079 100.908L63.966 114.283M50.374 186.023L71.045 166.568" transform="translate(0 1)"/>
        <g>
            <path fill="#ECDDFD" d="M39.752 38.922L0.842 0.012" transform="translate(0 1) translate(131 169.988)"/>
            <path stroke="#F7F1FE" stroke-width="2" d="M39.752 38.922L0.842 0.012" transform="translate(0 1) translate(131 169.988)"/>
        </g>
        <path stroke="#ECDDFD" stroke-width="2" d="M142.785 116.715L164.672 105.772" transform="translate(0 1)"/>
        <path stroke="#C1A9DC" stroke-linecap="round" stroke-linejoin="round" stroke-width="1.5" d="M191.928 234.407h-16.095c-.552 0-1-.447-1-1v-21c0-.552.448-1 1-1h16.095c.553 0 1 .448 1 1v21c0 .553-.447 1-1 1z" transform="translate(0 1)"/>
        <path stroke="#C1A9DC" stroke-linecap="round" stroke-linejoin="round" stroke-width="1.5" d="M189.834 221.407L186.167 218.407 182.5 221.407 182.5 211.407 189.834 211.407zM177.834 228.407L181.834 228.407M177.834 231.407L186.834 231.407" transform="translate(0 1)"/>
    </g>
</svg>
