<svg xmlns="http://www.w3.org/2000/svg" xmlns:xlink="http://www.w3.org/1999/xlink" width="190" height="233" viewBox="0 0 205 233">
    <defs>
        <path id="prefix__a" d="M0 226L205 226 205 0 0 0z"/>
    </defs>
    <g fill="none" fill-rule="evenodd">
        <path stroke="#5BA9F8" stroke-linecap="round" stroke-width="2" d="M182 87.272S182 90 185.609 90c4.521 0 4.521-6.53 0-7.5-4.52-.97-4.52-7.5 0-7.5 2.813 0 2.813 2.727 2.813 2.727M185.442 72L185.558 75M185.5 90L185.5 93"/>
        <path stroke="#5BA9F8" stroke-linecap="round" stroke-width="1.5" d="M58.106 212H38.894c-.495 0-.894-.387-.894-.867v-11.266c0-.48.4-.867.894-.867h19.212c.495 0 .894.387.894.867v11.266c0 .48-.4.867-.894.867z"/>
        <mask id="prefix__b" fill="#fff">
            <use xlink:href="#prefix__a"/>
        </mask>
        <path fill="#5BA9F8" d="M38 204L59 204 59 201 38 201z" mask="url(#prefix__b)"/>
        <path stroke="#5BA9F8" stroke-linecap="round" stroke-width="1.5" d="M52 209.5L57 209.5" mask="url(#prefix__b)"/>
        <path fill="#BDDDFC" d="M112.27 65.382c.895-2.612 3.737-4.006 6.349-3.111 2.612.892 4.004 3.735 3.11 6.347-.893 2.612-3.735 4.006-6.347 3.111-2.612-.893-4.005-3.736-3.112-6.347" mask="url(#prefix__b)"/>
        <path fill="#D6E9FD" d="M115.27 25.382c.895-2.612 3.736-4.006 6.348-3.111 2.613.893 4.005 3.735 3.112 6.347-.895 2.612-3.736 4.006-6.349 3.111-2.611-.893-4.005-3.735-3.11-6.347" mask="url(#prefix__b)"/>
        <path fill="#5BA9F8" d="M165.27 113.382c.895-2.612 3.736-4.006 6.348-3.111 2.613.893 4.005 3.735 3.112 6.347-.895 2.612-3.736 4.006-6.349 3.111-2.611-.893-4.005-3.735-3.11-6.347" mask="url(#prefix__b)"/>
        <path fill="#BDDDFC" d="M118.27 174.382c.895-2.612 3.736-4.006 6.348-3.111 2.613.893 4.005 3.735 3.112 6.347-.895 2.612-3.736 4.006-6.349 3.111-2.611-.893-4.005-3.735-3.11-6.347" mask="url(#prefix__b)"/>
        <path fill="#D6E9FD" d="M91.27 165.381c.894-2.61 3.736-4.005 6.348-3.11 2.613.893 4.005 3.736 3.112 6.348-.895 2.61-3.737 4.005-6.349 3.11-2.611-.893-4.005-3.736-3.11-6.348M48.27 168.381c.895-2.611 3.736-4.005 6.348-3.11 2.613.893 4.005 3.736 3.112 6.347-.895 2.612-3.736 4.005-6.349 3.112-2.611-.894-4.005-3.737-3.11-6.349M53.243 104.044c.805-2.352 3.364-3.605 5.714-2.8 2.35.804 3.604 3.361 2.8 5.712-.805 2.35-3.363 3.605-5.714 2.8-2.351-.803-3.603-3.362-2.8-5.712M128.244 208.043c.804-2.35 3.362-3.604 5.712-2.8 2.352.805 3.605 3.362 2.8 5.713-.804 2.35-3.362 3.605-5.713 2.8-2.35-.803-3.604-3.362-2.8-5.713" mask="url(#prefix__b)"/>
        <path fill="#5BA9F8" d="M139.244 87.043c.804-2.35 3.362-3.604 5.713-2.8 2.35.805 3.604 3.363 2.8 5.713-.805 2.351-3.363 3.605-5.713 2.8-2.352-.804-3.605-3.362-2.8-5.713" mask="url(#prefix__b)"/>
        <path fill="#D6E9FD" d="M89.352 45.396c1.162-3.396 4.857-5.206 8.252-4.044 3.395 1.162 5.206 4.857 4.044 8.252-1.162 3.395-4.856 5.206-8.252 4.044-3.395-1.162-5.206-4.856-4.044-8.252" mask="url(#prefix__b)"/>
        <path stroke="#D6E9FD" stroke-width="2" d="M33.086 195.623c5.73-8.788 17.502-11.268 26.29-5.537 8.789 5.73 11.269 17.502 5.538 26.29-5.73 8.79-17.502 11.268-26.29 5.538-8.79-5.73-11.268-17.502-5.538-26.29zM167.028 75.85c3.396-9.926 14.197-15.219 24.122-11.821 9.926 3.396 15.218 14.196 11.821 24.122-3.396 9.924-14.195 15.217-24.121 11.82-9.926-3.395-15.218-14.196-11.822-24.12z" mask="url(#prefix__b)"/>
        <path fill="#D6E9FD" d="M2.893 74.159c2.95-8.62 12.329-13.215 20.948-10.266 8.619 2.95 13.215 12.328 10.267 20.948-2.95 8.619-12.33 13.216-20.948 10.266-8.62-2.95-13.216-12.33-10.267-20.948M.352 143.396c1.162-3.396 4.856-5.206 8.252-4.044 3.395 1.162 5.206 4.856 4.044 8.252-1.162 3.396-4.856 5.206-8.252 4.044-3.395-1.161-5.206-4.856-4.044-8.252" mask="url(#prefix__b)"/>
        <path fill="#5BA9F8" d="M79.352 196.397c1.162-3.397 4.856-5.207 8.252-4.045 3.395 1.162 5.205 4.856 4.045 8.252-1.163 3.396-4.857 5.205-8.253 4.045-3.395-1.163-5.206-4.857-4.044-8.252" mask="url(#prefix__b)"/>
        <path fill="#BDDDFC" d="M57.406 71.072c1.34-3.918 5.603-6.006 9.522-4.666 3.918 1.341 6.007 5.603 4.666 9.521-1.34 3.919-5.604 6.007-9.522 4.667-3.917-1.341-6.007-5.604-4.666-9.522" mask="url(#prefix__b)"/>
        <path fill="#5BA9F8" d="M148.406 51.072c1.34-3.917 5.603-6.007 9.522-4.666 3.918 1.34 6.007 5.603 4.666 9.522-1.34 3.917-5.604 6.007-9.521 4.666-3.919-1.34-6.007-5.603-4.667-9.522M177.406 143.072c1.34-3.918 5.603-6.006 9.522-4.666 3.918 1.341 6.007 5.603 4.666 9.521-1.34 3.919-5.604 6.007-9.521 4.667-3.919-1.341-6.007-5.604-4.667-9.522M30.325 45.058c1.072-3.135 4.483-4.806 7.616-3.733 3.135 1.072 4.807 4.483 3.734 7.617-1.072 3.135-4.483 4.806-7.617 3.733-3.134-1.072-4.806-4.483-3.733-7.617" mask="url(#prefix__b)"/>
        <path fill="#D6E9FD" d="M142.11 172.864c3.664-10.708 15.316-16.419 26.026-12.755 10.709 3.666 16.419 15.317 12.755 26.027-3.665 10.708-15.317 16.42-26.026 12.754-10.71-3.663-16.42-15.317-12.755-26.026M44.082 13.526C47.658 3.079 59.026-2.494 69.473 1.083c10.449 3.574 16.02 14.942 12.444 25.391-3.574 10.448-14.943 16.02-25.39 12.443-10.448-3.575-16.02-14.943-12.445-25.391" mask="url(#prefix__b)"/>
        <path fill="#5BA9F8" d="M70.111 104.714c6.972-20.634 29.14-31.638 49.513-24.576 20.373 7.061 31.237 29.513 24.265 50.148-6.971 20.634-29.14 31.637-49.513 24.576-20.373-7.06-31.237-29.513-24.265-50.148M25.568 123.1c1.877-5.484 7.845-8.409 13.33-6.532 5.486 1.877 8.411 7.845 6.534 13.33-1.878 5.486-7.846 8.41-13.332 6.534-5.484-1.878-8.408-7.846-6.532-13.331" mask="url(#prefix__b)"/>
        <path stroke="#D6E9FD" d="M86 150L60 189M149 165L134 147M166 90L143 101M71 36L93 80M68 122L46 125" mask="url(#prefix__b)"/>
        <path stroke="#5BA9F8" stroke-linecap="round" stroke-width="2" d="M64.5 32l-5.737-4.411C56.37 25.303 55 22.048 55 18.632v-6.991c0-.418.246-.801.616-.949 5.66-2.25 11.208-2.29 16.633.085.437.1.751.509.751.983v7.247c0 3.196-1.198 6.261-3.33 8.52L64.5 32z" mask="url(#prefix__b)"/>
        <path stroke="#5BA9F8" stroke-linecap="round" stroke-width="2" d="M68 16L64 22 61 19" mask="url(#prefix__b)"/>
        <path stroke="#5BA9F8" stroke-linecap="round" stroke-width="1.6" d="M157 176h12.17c.55 0 .949.545.798 1.093L168.61 182h-9.122" mask="url(#prefix__b)"/>
        <path stroke="#5BA9F8" stroke-linecap="round" stroke-width="1.6" d="M152 173h1.85c.36 0 .676.242.781.598l2.918 9.804c.106.356.423.598.782.598H170M161 187.5c0 .83-.67 1.5-1.5 1.5s-1.5-.67-1.5-1.5.67-1.5 1.5-1.5 1.5.67 1.5 1.5zM170 187.5c0 .83-.671 1.5-1.5 1.5s-1.5-.67-1.5-1.5.671-1.5 1.5-1.5 1.5.67 1.5 1.5z" mask="url(#prefix__b)"/>
    </g>
</svg>
