<svg xmlns="http://www.w3.org/2000/svg" width="22" height="15" viewBox="0 0 22 15">
    <path fill="#8987AB" fill-rule="evenodd" d="M21.128 1.943l-5.46 5.56 5.46 5.57.065.071V1.87c-.02.024-.043.047-.065.073zm-6.592 6.713l-1.1 1.122c-.778.79-1.774 1.165-2.754 1.165-.983 0-1.976-.377-2.755-1.17L6.658 8.478l-5.612 5.717c-.273.274-.417.514-.469.64H20.51c-.082-.128-.19-.28-.36-.453l-5.613-5.726zM6.658 6.168l1.133 1.158 1.12 1.143c.467.477 1.113.736 1.771.733.658.003 1.304-.256 1.773-.733l.946-.966 1.135-1.155 5.61-5.712c.268-.273.412-.507.466-.636H.688c.078.126.187.274.358.445l5.612 5.723zM.063 1.753C.04 1.73.023 1.706 0 1.682v11.274l.065-.072 5.46-5.558L.063 1.753z"/>
</svg>
