<svg xmlns="http://www.w3.org/2000/svg" width="26" height="26" viewBox="0 0 26 26">
    <g fill="#69687D" fill-rule="evenodd">
        <path d="M18.5 15.438c1.898 0 3.438 1.515 3.438 3.385v1.49h-1.375v-1.49c0-1.122-.924-2.031-2.063-2.031h-11c-1.14 0-2.063.91-2.063 2.03v1.49H4.063v-1.49c0-1.869 1.54-3.384 3.438-3.384zM13 5.688a4.062 4.062 0 1 1 0 8.124 4.062 4.062 0 0 1 0-8.124zm0 1.354a2.708 2.708 0 1 0 0 5.416 2.708 2.708 0 0 0 0-5.416z"/>
        <path d="M13 1.625C6.718 1.625 1.625 6.718 1.625 13S6.718 24.375 13 24.375 24.375 19.282 24.375 13A11.375 11.375 0 0 0 13 1.625zm0 21.125c-5.385 0-9.75-4.365-9.75-9.75S7.615 3.25 13 3.25s9.75 4.365 9.75 9.75A9.75 9.75 0 0 1 13 22.75z"/>
    </g>
</svg>
