<svg xmlns="http://www.w3.org/2000/svg" viewBox="0 0 22 23">
    <g fill="none" fill-rule="evenodd">
        <path fill="#FFF" fill-rule="nonzero" d="M2.75 3.833V.958h1.833v2.875h2.75V5.75h-2.75v2.875H2.75V5.75H0V3.833h2.75zm2.75 5.75V6.708h2.75V3.833h6.417l1.677 1.917h2.906c1.008 0 1.833.862 1.833 1.917v11.5c0 1.054-.825 1.916-1.833 1.916H4.583c-1.008 0-1.833-.862-1.833-1.916V9.583H5.5zm6.417 8.625c2.53 0 4.583-2.146 4.583-4.791 0-2.645-2.053-4.792-4.583-4.792-2.53 0-4.584 2.147-4.584 4.792s2.054 4.791 4.584 4.791zm-2.934-4.791c0 1.696 1.311 3.066 2.934 3.066 1.622 0 2.933-1.37 2.933-3.066 0-1.697-1.31-3.067-2.933-3.067-1.623 0-2.934 1.37-2.934 3.067z"/>
    </g>
</svg>
