<svg xmlns="http://www.w3.org/2000/svg" viewBox="0 0 20.571 16">
  <path id="np_browser_551045_000000" d="M6.6,15A1.612,1.612,0,0,0,5,16.6V29.4A1.612,1.612,0,0,0,6.6,31H23.971a1.612,1.612,0,0,0,1.6-1.6V16.6a1.612,1.612,0,0,0-1.6-1.6Zm0,1.371H23.971a.215.215,0,0,1,.229.229v2.057H6.371V16.6A.215.215,0,0,1,6.6,16.371Zm.914.457a.686.686,0,1,0,.686.686A.686.686,0,0,0,7.514,16.829Zm1.829,0a.686.686,0,1,0,.686.686A.686.686,0,0,0,9.343,16.829Zm1.829,0a.686.686,0,1,0,.686.686A.686.686,0,0,0,11.171,16.829Zm-4.8,3.2H24.2V29.4a.215.215,0,0,1-.229.229H6.6a.215.215,0,0,1-.229-.229Z" transform="translate(-5 -15)"/>
</svg>
