<?xml version="1.0" encoding="UTF-8"?>
<svg width="18px" height="19px" viewBox="0 0 18 19" version="1.1" xmlns="http://www.w3.org/2000/svg" xmlns:xlink="http://www.w3.org/1999/xlink">
    <!-- Generator: sketchtool 50.2 (55047) - http://www.bohemiancoding.com/sketch -->
    <title>782C7C34-8503-4A4E-B1DA-D9A3B87D0434</title>
    <desc>Created with sketchtool.</desc>
    <defs></defs>
    <g id="Ask-a-question" stroke="none" stroke-width="1" fill="none" fill-rule="evenodd">
        <g id="Ask-a-question-Tab-web" transform="translate(-360.000000, -376.000000)">
            <g id="Group-7-Copy" transform="translate(361.000000, 377.000000)">
                <path d="M1.55670588,11.6663529 L7.08988235,11.6663529 L11.8014118,15.5322353 L11.8014118,11.6663529 L13.5025882,11.6663529 C14.3609412,11.6663529 15.0592941,10.9557647 15.0592941,10.0823529 L15.0592941,2.05223529 C15.0592941,1.17882353 14.3614118,0.468235294 13.5025882,0.468235294 L1.55670588,0.468235294 C0.697882353,0.468235294 0,1.17882353 0,2.05223529 L0,10.0818824 C0,10.9557647 0.697882353,11.6663529 1.55670588,11.6663529 Z" id="Path-Copy" stroke="#FFFFFF" stroke-width="2" fill="#FFFFFF"></path>
                <path d="M1.55670588,11.6663529 L7.08988235,11.6663529 L11.8014118,15.5322353 L11.8014118,11.6663529 L13.5025882,11.6663529 C14.3609412,11.6663529 15.0592941,10.9557647 15.0592941,10.0823529 L15.0592941,2.05223529 C15.0592941,1.17882353 14.3614118,0.468235294 13.5025882,0.468235294 L1.55670588,0.468235294 C0.697882353,0.468235294 0,1.17882353 0,2.05223529 L0,10.0818824 C0,10.9557647 0.697882353,11.6663529 1.55670588,11.6663529 Z M0.941176471,2.05223529 C0.941176471,1.69788235 1.21741176,1.40941176 1.55670588,1.40941176 L13.5025882,1.40941176 C13.8414118,1.40941176 14.1176471,1.69788235 14.1176471,2.05223529 L14.1176471,10.0818824 C14.1176471,10.4362353 13.8414118,10.7247059 13.5021176,10.7247059 L10.8597647,10.7247059 L10.8597647,13.5416471 L7.42588235,10.7247059 L1.55670588,10.7247059 C1.21741176,10.7251765 0.941176471,10.4367059 0.941176471,10.0823529 L0.941176471,2.05223529 Z" id="Shape" fill="#3532D5" fill-rule="nonzero"></path>
                <rect id="Rectangle-path" fill="#3532D5" fill-rule="nonzero" x="2.328" y="3.22023529" width="10.4023529" height="1"></rect>
                <rect id="Rectangle-path" fill="#3532D5" fill-rule="nonzero" x="2.328" y="5.52752941" width="8.52" height="1"></rect>
                <rect id="Rectangle-path" fill="#3532D5" fill-rule="nonzero" x="2.328" y="7.83435294" width="6.63764706" height="1"></rect>
            </g>
        </g>
    </g>
</svg>