<svg xmlns="http://www.w3.org/2000/svg" viewBox="2.8 1.9 16.4 18.3">
    <g>
        <path fill-rule="nonzero" d="M8.25 10.083H6.417v1.834H8.25v-1.834zm3.667 0h-1.834v1.834h1.834v-1.834zm3.666 0H13.75v1.834h1.833v-1.834zm1.834-6.416H16.5V1.833h-1.833v1.834H7.333V1.833H5.5v1.834h-.917c-1.017 0-1.824.825-1.824 1.833L2.75 18.333c0 1.009.816 1.834 1.833 1.834h12.834c1.008 0 1.833-.825 1.833-1.834V5.5c0-1.008-.825-1.833-1.833-1.833zm0 14.666H4.583V8.25h12.834v10.083z"/>
        <path fill="none" d="M0 0L22 0 22 22 0 22z"/>
    </g>
</svg>
