<svg xmlns="http://www.w3.org/2000/svg" version="1" viewBox="0 0 540 540">
<path d="M488.3 1.4c-5.6 1.8-10.8 5.1-13.2 8.4-1 1.5-18.8 34.6-39.6 73.7-20.7 39-39 73.4-40.6 76.3L392 165l2.2 1c3.4 1.4 38.5 16.9 61.6 27.2 11.1 5 20.4 8.9 20.6 8.7.2-.2 13.7-37.3 30-82.5 32.7-90.7 31.9-87.9 27.2-98.1-7.1-15.2-29.2-24.9-45.3-19.9zM36.1 86C22.7 88 9.8 97.9 3.6 111 .7 117.1.5 118.3.5 128.6c0 10.7.1 11.2 3.8 18.6 8.4 17 27.2 27 44.9 23.9 28.4-5 44.7-34.5 32.9-59.7-4.2-8.9-8-13.5-15.3-18.4-9.1-6-20-8.5-30.7-7zM130.5 119.4c-4 1.7-9.5 7.2-11.1 11.3-2.1 4.8-1.8 13.7.6 18.2 1.1 2.2 3.6 5.3 5.7 7 6.9 5.7 15 6.6 23.2 2.5 12-6 15.7-21.2 7.7-31.6-4.6-6.2-9.8-8.8-17.1-8.7-3.3 0-7.4.6-9 1.3zM332.2 180c-13.4 3.6-25.6 11.4-35.2 22.5-2.2 2.5-4 4.9-4 5.3 0 1.8 8 12.3 13.3 17.4 7.9 7.7 16.2 11.7 25.6 12.5 8 .7 12.3 3.1 13.5 7.7.8 3.1 9.1 8.7 19.3 12.8 6.8 2.8 9 3.2 16.9 3.3 10.3 0 12.4 1.1 14.4 7.1 1.4 4.1 7.6 9.6 15 13.1 4.4 2.1 6.9 2.7 12.5 2.7 3.9 0 8.2-.4 9.6-.8 4-1.2 9.1 1.7 11.8 6.5 5.9 10.4 15.8 15 36.5 16.9 13.8 1.3 26.2.5 27.1-1.9.4-.9.9-6.1 1.2-11.6 1.3-23.1-6.8-42.9-24-59.1-7.2-6.8-9.9-8.5-24.2-15.4-31.8-15.5-75.9-34.4-89-38.2-10.5-3-30.6-3.5-40.3-.8zM108.3 194.5c-27.2 7.6-45.8 33.3-44.1 60.9 3.2 50.5 64.5 73.8 100.3 38.2 12-12 17.5-25.2 17.5-42.3 0-24.8-15.6-46.7-39.6-55.5-7.6-2.8-26.2-3.5-34.1-1.3zM275.8 240.9l-5.6 11.4 3.6 6.8c5 9.8 12.9 18.1 20.8 22 6.2 3.1 6.8 3.2 15.3 2.6 10.9-.7 14.4.9 16.1 7.2 1.4 5.3 6.9 10.6 15 14.5 6 2.9 7.3 3.1 17.5 3.1 6.1 0 12 .4 13.1.8 1.3.4 3.4 3.2 5 6.3 6.4 12.6 20.4 19.2 37.5 17.9l8.8-.7 2.8 2.9c1.6 1.6 4 4.6 5.5 6.5 6.8 9 25.3 14.1 48.8 13.6l13.4-.3 3.7-11.5c2-6.3 3.9-12.5 4.3-13.8l.7-2.2h-12.6c-23.8 0-43.3-6.1-54.6-16.9-4.8-4.7-5.7-5.1-10-5.1-13.9 0-34.8-9.6-42.3-19.5-2.2-2.8-3.5-3.4-11.2-4.9-14.5-2.8-30.5-10.6-39.4-19.2-2.6-2.5-5-3.6-9-4.4-3-.5-9.3-2.9-14-5.1-7.1-3.5-10.1-5.8-18-13.8l-9.6-9.6-5.6 11.4zM254.4 276.1c-5.2 7.4-17.7 21-26.9 29.2-27 24.1-65.7 43.2-103.4 51.1-14.3 3.1-34.6 5.6-44.4 5.6-8 0-12 1.7-14.3 6.2-2.7 5.2-1.3 9 6.8 18.6 11.7 13.7 28.3 30.6 42.1 42.7 12 10.5 13.1 11.3 18 11.9 8.5 1 17.3.7 28.5-1 32.6-4.8 63.1-21.9 91.5-51.3 5.9-6.2 11.9-11.6 13.2-12.1 8.2-3.1 16.5 6.5 12.3 14.3-2.3 4.4-14.6 17.2-25.3 26.5-26.7 23-53.4 36.4-84 42.5l-11.8 2.3 7.9 5.1c18 11.5 40.3 23.4 60.7 32.3l9.7 4.3 6.3-1.7c16.2-4.4 34.9-14 52.3-26.8 18.5-13.7 36.5-33 57.2-61.7 6.6-9.1 19.2-6.2 19.2 4.5 0 4.8-3.3 10.3-17.1 27.9-21.8 27.9-49.6 51.6-76.1 64.6-4.9 2.4-8.8 4.6-8.8 4.9 0 .7 17 5.7 33 9.6 17.3 4.3 38.9 8 55.8 9.5 11.7 1.1 13.6 1.1 16.5-.3 5.4-2.7 18.6-14 30.3-25.9 28.9-29.7 53.5-67.5 73.9-113.4 8.4-19 8.3-18.6 4.7-17.9-4.4.9-25.7-1.3-34.7-3.6-10.6-2.7-21.2-8-27.7-13.9-5.3-4.8-5.3-4.8-13.8-5.4-15.9-1.1-29.8-7.5-40.1-18.5-5.5-5.8-6.1-6.2-10.3-6.2-7.5 0-14.6-1.9-24.6-6.7-7.6-3.7-10.9-6-16.3-11.4-5.9-6.1-7.1-6.9-10.5-6.9-5.6 0-14.8-2.6-21.4-6.2-6.7-3.5-16.6-12.9-21.8-20.6-1.9-2.8-3.7-5.2-4-5.2-.3 0-1.5 1.4-2.6 3.1z"/>
</svg>