<svg xmlns="http://www.w3.org/2000/svg" viewBox="0 1 18 20">
    <g>
        <path d="M16.772.722H4.227c-.552 0-.977.456-.977.994v4.922c0 .537.425.993.977.993l.117-.007c.494-.059.86-.487.86-.986V2.709h10.59v15.527H5.204v-4.482c0-.538-1.954-.538-1.954 0v5.475c0 .538.425.993.977.993h12.545c.551 0 .978-.455.978-.993V1.716c0-.538-.426-.994-.978-.994z" transform="translate(0 .528)"/>
        <path d="M11 7.472L14.5 13.472 7.5 13.472z" transform="translate(0 .528) rotate(90 11 10.472)"/>
        <path d="M10.614 9.472c.24 0 .386.465.386.999 0 .536-.146 1.001-.386 1.001H.386c-.24 0-.386-.465-.386-1.001 0-.534.146-.999.386-.999z" transform="translate(0 .528)"/>
    </g>
</svg>
