<!-- <svg xmlns="http://www.w3.org/2000/svg" viewBox="0 0 24 24">
    <g fill-rule="evenodd" stroke="#FFF" stroke-linecap="round" stroke-linejoin="round" stroke-width="1.5">
        <path d="M18.17.69L21.85.69M21.85 4.37L21.85.69M21.85 18.17L21.85 21.85M18.17 21.85L21.85 21.85M4.37 21.85L.69 21.85M.69 18.17L.69 21.85M.69 4.37L.69.69M4.37.69L.69.69M21.85 21.85L15.502 15.502M7.038 7.038L.69.69M7.038 15.502L.69 21.85M21.85.69L15.502 7.038" transform="translate(1 1)"/>
        <path d="M18.17.69L21.85.69M21.85 4.37L21.85.69M21.85 18.17L21.85 21.85M18.17 21.85L21.85 21.85M4.37 21.85L.69 21.85M.69 18.17L.69 21.85M.69 4.37L.69.69M4.37.69L.69.69M21.85 21.85L15.502 15.502M7.038 7.038L.69.69M7.038 15.502L.69 21.85M21.85.69L15.502 7.038" transform="translate(1 1)"/>
    </g>
</svg>
 -->

<svg xmlns="http://www.w3.org/2000/svg" width="24" height="24" viewBox="0 0 24 24">
    <g fill="#FFF">
        <path d="M14.475 14.475c.36-.36.928-.388 1.32-.083l.094.083 5.84 5.84c.39.39.39 1.024 0 1.414-.36.36-.928.388-1.32.083l-.094-.083-5.84-5.84c-.39-.39-.39-1.024 0-1.414zM.848.848c.36-.36.927-.389 1.32-.084l.094.084 5.84 5.84c.39.39.39 1.023 0 1.414-.36.36-.928.388-1.32.083l-.094-.083-5.84-5.84c-.39-.39-.39-1.024 0-1.414zM6.688 14.475c.39-.39 1.024-.39 1.414 0 .36.36.388.928.083 1.32l-.083.094-5.84 5.84c-.39.39-1.024.39-1.414 0-.36-.36-.389-.928-.083-1.32l.083-.094 5.84-5.84zM20.315.848c.39-.39 1.024-.39 1.414 0 .36.36.388.927.083 1.32l-.083.094-5.84 5.84c-.39.39-1.024.39-1.414 0-.36-.36-.388-.928-.083-1.32l.083-.094 5.84-5.84z" transform="translate(1 1)"/>
        <path d="M.635-.365c.513 0 .935.386.993.883l.007.117V4.02c0 .553-.448 1-1 1-.513 0-.936-.386-.993-.883l-.007-.117V.635c0-.552.448-1 1-1z" transform="translate(1 1)"/>
        <path d="M4.02-.365c.553 0 1 .448 1 1 0 .513-.386.935-.883.993l-.117.007H.635c-.552 0-1-.448-1-1 0-.513.386-.936.883-.993l.117-.007H4.02zM4.02 20.942c.553 0 1 .448 1 1 0 .513-.386.936-.883.993l-.117.007H.635c-.552 0-1-.448-1-1 0-.513.386-.936.883-.993l.117-.007H4.02z" transform="translate(1 1)"/>
        <path d="M.635 17.556c.513 0 .935.386.993.884l.007.116v3.386c0 .552-.448 1-1 1-.513 0-.936-.386-.993-.883l-.007-.117v-3.386c0-.552.448-1 1-1zM21.942 17.556c.513 0 .936.386.993.884l.007.116v3.386c0 .552-.448 1-1 1-.513 0-.935-.386-.993-.883l-.007-.117v-3.386c0-.552.448-1 1-1z" transform="translate(1 1)"/>
        <path d="M21.942 20.942c.552 0 1 .448 1 1 0 .513-.386.936-.883.993l-.117.007h-3.386c-.552 0-1-.448-1-1 0-.513.387-.936.884-.993l.116-.007h3.386zM21.942-.365c.552 0 1 .448 1 1 0 .513-.386.935-.883.993l-.117.007h-3.386c-.552 0-1-.448-1-1 0-.513.387-.936.884-.993l.116-.007h3.386z" transform="translate(1 1)"/>
        <path d="M21.942-.365c.513 0 .936.386.993.883l.007.117V4.02c0 .553-.448 1-1 1-.513 0-.935-.386-.993-.883l-.007-.117V.635c0-.552.448-1 1-1z" transform="translate(1 1)"/>
    </g>
</svg>
