<svg xmlns="http://www.w3.org/2000/svg" width="18" height="18">
    <g fill="#43425D" fill-rule="nonzero">
        <path d="M16.4856202 6.5533387c0-.5921157-.0192231-1.2628643-.0754161-2.0331278C16.1070561.671459 12.9077995 0 8.9899291 0 5.0720589 0 1.8726888.6715184 1.5704114 4.5202109c-.0569311.7694345-.075416 1.4409726-.075416 2.0331278C.6240125 6.9681354 0 7.9349418 0 9.0597642c0 1.3615502.908687 2.5064256 2.0820607 2.7037974v1.6576081C2.0820607 15.9477272 4.0501758 18 6.492433 18h5.0158735c2.4229508 0 4.4103723-2.0522728 4.4103723-4.5788303l-.0007395-1.6576081C17.091313 11.5661898 18 10.4413279 18 9.0597642c-.0192231-1.1248618-.6439814-2.0925367-1.5142259-2.5064255h-.0001539zm-7.495797-1.3230035c2.0627543 0 3.8995103-.3161108 5.1298189-.828804.2462132.4541132.4162607 1.5396586.4162607 2.1116817H3.4438192c0-.5720626.1515702-1.657608.4162607-2.1116817 1.2303086.5134827 3.0668754.828804 5.129819.828804h-.0000757zm3.8048712 2.3684626V8.861662c0 .9668065-.3408522 1.3222338-1.2680128 1.3222338-.9271605 0-1.2680128-.3554273-1.2680128-1.3222338V7.5987978h2.5360256zm-5.0919633 0V8.861662c0 .9668065-.3408523 1.3222338-1.2680128 1.3222338-.9271605 0-1.2680128-.3554273-1.2680128-1.3222338V7.5987978h2.5360256zm7.8364979 2.7632064c-.0946392 0-.1323472 0-.1515703-.0200451-.2085089-.0593655-.4162607 0-.5870654.1380063-.1700551.1380064-.2646867.3353743-.2646867.5720627v2.3684626c0 1.7370305-1.3626519 3.1579501-3.0477583 3.1579501l-4.996567.0007712c-1.6842735 0-3.0477583-1.4209197-3.0477583-3.1579502v-2.3684626c0-.2174248-.0946391-.4340602-.2646867-.5720626-.1700551-.1380064-.3785565-.1773268-.5870654-.1380064-.019223 0-.075416.0200451-.1515702.0200451-.5870654 0-1.0787346-.5921157-1.0787346-1.3029702 0-.5527992.303148-1.026176.7194088-1.2042843v.1380064c0 .3947437.303148.7108545.6817045.7108545.3785565 0 .6817045-.3161108.6817045-.7108546v-.3746907h.700178v1.2628642c0 1.9737189 1.2495393 2.3885946 2.2906454 2.3885946 1.041106 0 2.2906453-.4147968 2.2906453-2.3885946v-.9868594c0-.1580515.1138622-.2760048.2646867-.2760048.1515702 0 .2646867.118731.2646867.2760048v.9868594c0 1.9737189 1.2495392 2.3885946 2.2906453 2.3885946 1.041106 0 2.2906453-.4147968 2.2906453-2.3885946V7.6188364h.7001781v.3746908c0 .3947437.303148.7108545.6817045.7108545.3785565 0 .6817045-.3161108.6817045-.7108546v-.1380063c.4162607.1773268.7194087.651485.7194087 1.2042843-.0014788.730118-.4939026 1.3022004-1.0802109 1.3022004l-.0002725-.0000013z"/>
        <path d="M11.5264023 12.5450318c-.2537412-.1557371-.5804983-.0866709-.7442397.1557371-.3444667.5024137-1.034126.8145674-1.7783657.8145674-.7442397 0-1.4331731-.3121537-1.7783657-.8145674-.1630229-.242401-.4897727-.3121537-.7442397-.1557371-.2537412.1557371-.326757.467884-.1630229.7109784.5443532.7976492 1.5607695 1.2824513 2.6856573 1.2824513 1.1248515 0 2.1413042-.4854954 2.6856574-1.2824513.1460118-.2430771.091435-.5552309-.1630229-.7109784h-.0000581z"/>
    </g>
</svg>