<svg xmlns="http://www.w3.org/2000/svg" width="14" height="15">
    <path fill="#FFF" fill-rule="nonzero" d="M.0543125 7.6966563C-.0854375 4.0270625 3.1292813.6360937 6.802375.5918437c1.8725625-.15975 3.6932187.5670313 5.1110625 1.7535625-.5810313.6382813-1.1736875 1.2704375-1.8041875 1.8620313-1.2483125-.7579063-2.749625-1.3353125-4.2071562-.822625-2.3522813.6695625-3.7745626 3.4455938-2.905875 5.7461562.7208124 2.4017501 3.6437812 3.7198126 5.9332187 2.7105938 1.1865313-.4242187 1.9671562-1.5185625 2.3101875-2.6940938-1.35925-.0271562-2.7185-.010375-4.0779062-.0482187-.0022813-.8087187-.0065625-1.6133125-.0022813-2.4220312 2.2662187-.003375 4.536125-.0099063 6.8060312.0108437C14.104 8.6683437 13.81225 10.789 12.5250312 12.3786563c-1.7639374 2.2699062-5.0225937 2.9358125-7.672875 2.0459062-2.8141874-.9237812-4.858875-3.7579375-4.7978437-6.7279063"/>
</svg>