<svg xmlns="http://www.w3.org/2000/svg" xmlns:xlink="http://www.w3.org/1999/xlink" width="26" height="26" viewBox="0 0 26 26">
    <g fill="#4C59FF" fill-rule="evenodd">
        <path fill-rule="nonzero" d="M21.887 20.44c0 .233-.004.466-.007.7H16.47v-4.871c0-.508.019-1.014-.08-1.516-.26-1.324-1.44-2.433-2.797-2.632a3.639 3.639 0 0 0-2.181.332 3.388 3.388 0 0 0-1.43 1.371 3.444 3.444 0 0 0-.426 1.649l.002.411v5.256H4.139v-9.955c0-.462.007-.925 0-1.388l1.328-1.209L8.93 5.436l2.993-2.723c.302-.276.61-.547.912-.823l.639.562 2.957 2.615 3.565 3.151 1.89 1.672v10.55zm-8.19-6.644a.47.47 0 0 0 0 0zm-2.381.982a.38.38 0 0 0 0 0zm14.448-3.625l-1.232-1.088A17447.115 17447.115 0 0 1 18.01 4.3l-3.082-2.724c-.501-.443-.998-.892-1.504-1.33l-.021-.018a.852.852 0 0 0-1.16 0l-1.197 1.089-2.873 2.615L4.71 7.083 1.716 9.807c-.485.442-.984.874-1.459 1.328l-.02.018c-.315.287-.317.852 0 1.139a.849.849 0 0 0 1.16 0l1.102-1.003v9.15c0 .5-.014 1-.003 1.498v.015c0 .435.374.798.818.798h7.058c.443 0 .825-.356.825-.793v-5.822c0-.31-.018-.628.012-.937.018-.095.04-.188.069-.28l.025-.096.016-.032.041-.086c.061-.118.133-.229.208-.339l.003-.002a2.823 2.823 0 0 1 .325-.317 3.01 3.01 0 0 1 .383-.223l-.025.007.029-.009.024-.011a.35.35 0 0 1 .078-.026c-.034.012-.068.026-.102.037l-.004.002c.107-.032.124-.042.107-.039a2.667 2.667 0 0 1 .375-.095 2.86 2.86 0 0 1 .495 0h.002c.102.019.202.042.302.072.023.007.06.014.096.024l.035.017c.03.014.059.026.087.041.12.06.233.13.345.204l.003.002a2.426 2.426 0 0 1 .297.288l.026.031a2.922 2.922 0 0 1 .227.377.283.283 0 0 1 .002.004l.011.023a.34.34 0 0 1 .026.077c-.012-.034-.026-.067-.037-.1a.031.031 0 0 0-.002-.004c.032.104.042.12.04.104l.017.05c.036.113.063.228.083.344.02.244.013.492.013.736v5.978c0 .436.37.793.815.793h7.058c.443 0 .825-.356.825-.793V11.341c.35.312.701.625 1.056.932l.022.019c.318.281.849.331 1.159 0 .288-.308.34-.838 0-1.139z" mask="url(#b)"/>
        <path fill="none" d="M0 0h26v22.75H0z"/>
    </g>
</svg>