<svg version="1.1" id="Layer_1" xmlns="http://www.w3.org/2000/svg" xmlns:xlink="http://www.w3.org/1999/xlink" x="0px" y="0px"
	 viewBox="0 0 84.6 110.9" style="enable-background:new 0 0 84.6 110.9;" xml:space="preserve">
<path d="M84.6,97.4L51.2,39.8l5.2-19.6c1.4-5.3-1.8-10.8-7.1-12.2l-29-7.6C14.8-1.1,9.3,2.1,8,7.5l-7.6,29
	c-1.4,5.3,1.8,10.8,7.1,12.2L29,54.3l6.8,11.6l12.1,3.2l-3.2,12.1l4.5,7.6L61.2,92l-3.4,12.8l23.2,6.1L84.6,97.4z M16.6,17.7
	c0.9-3.3,4.3-5.3,7.6-4.5c3.3,0.9,5.3,4.3,4.5,7.6s-4.3,5.3-7.6,4.5C17.7,24.5,15.7,21.1,16.6,17.7z"/>
</svg>
