<?xml version="1.0" encoding="UTF-8"?>
<svg width="17px" height="17px" viewBox="0 0 17 17" version="1.1" xmlns="http://www.w3.org/2000/svg" xmlns:xlink="http://www.w3.org/1999/xlink">
    <title>397682FB-CDB9-4EDE-8406-BC9800395B1B</title>
    <g id="Page-1" stroke="none" stroke-width="1" fill="none" fill-rule="evenodd">
        <g id="More-questions-Copy-2" transform="translate(-115.000000, -371.000000)" fill="#8888D5" fill-rule="nonzero">
            <g id="Group-2-Copy" transform="translate(96.000000, -1.000000)">
                <path d="M27.5,372 C22.805597,372 19,375.805545 19,380.5 C19,385.194403 22.805597,389 27.5,389 C32.194403,389 36,385.194403 36,380.5 C36,375.805545 32.194403,372 27.5,372 Z M33.3799103,377.1 L31.0045899,377.1 C30.7861237,375.989771 30.4627563,375.008151 30.0642151,374.205829 C31.4637268,374.778116 32.6277039,375.804352 33.3799103,377.1 Z M34.3,380.5 C34.3,381.087903 34.2171479,381.655521 34.0761902,382.2 L31.2481659,382.2 C31.2983337,381.650644 31.325,381.082248 31.325,380.5 C31.325,379.917752 31.2983337,379.349356 31.2481659,378.8 L34.0761902,378.8 C34.2170959,379.344479 34.3,379.912097 34.3,380.5 Z M27.5,387.3 C27.1297333,387.3 26.2381256,386.114285 25.7355652,383.9 L29.2644348,383.9 C28.7618744,386.114285 27.8702667,387.3 27.5,387.3 Z M25.4616394,382.2 C25.4077881,381.670462 25.375,381.106061 25.375,380.5 C25.375,379.893939 25.4077881,379.329538 25.4616394,378.8 L29.5383606,378.8 C29.5922119,379.329538 29.625,379.893939 29.625,380.5 C29.625,381.106061 29.5922119,381.670462 29.5383606,382.2 L25.4616394,382.2 Z M20.7,380.5 C20.7,379.912097 20.7829041,379.344479 20.9238098,378.8 L23.7518341,378.8 C23.7016663,379.349356 23.675,379.917752 23.675,380.5 C23.675,381.082248 23.7016663,381.650644 23.7518341,382.2 L20.9238098,382.2 C20.7828521,381.655521 20.7,381.087903 20.7,380.5 Z M27.5,373.7 C27.8702667,373.7 28.7619262,374.885663 29.2644867,377.1 L25.7355133,377.1 C26.2380738,374.885663 27.1297333,373.7 27.5,373.7 Z M24.9357849,374.205829 C24.5372437,375.008151 24.2138764,375.989771 23.9954101,377.1 L21.6200897,377.1 C22.3722961,375.804352 23.5362732,374.778116 24.9357849,374.205829 Z M21.6200897,383.9 L23.9954101,383.9 C24.2138763,385.010229 24.5371917,385.991745 24.9357849,386.794119 C23.5362732,386.221832 22.3722961,385.195648 21.6200897,383.9 Z M30.0642151,386.794119 C30.4628082,385.991745 30.7861236,385.010229 31.0045899,383.9 L33.3799103,383.9 C32.6277039,385.195648 31.4637268,386.221832 30.0642151,386.794119 Z" id="Shape"></path>
            </g>
        </g>
    </g>
</svg>