<svg xmlns="http://www.w3.org/2000/svg" width="12" height="16"><g fill="#000" fill-rule="nonzero"><path d="M5.67813 9.48148c-.59958.0097-1.13636.41245-1.36489 1.02454-.22853.6114-.10484 1.315.3139 1.78842v.74172c0 .65507.48092 1.18606 1.07421 1.18606.5933 0 1.07483-.53099 1.07483-1.18606v-.74172c.42253-.48038.54119-1.19369.30136-1.80847C6.8377 9.8711 6.28585 9.47598 5.68 9.48569l-.00188-.0042zm.33274 2.1295c-.12619.10051-.2009.26134-.2009.43325v.98503c0 .06724-.04897.1213-.10987.1213-.0609 0-.1105-.05406-.1105-.1213v-.9781c.00063-.17121-.0747-.33273-.2009-.43255-.17515-.15458-.2461-.41176-.17893-.64813.06718-.23568.2593-.40136.4828-.41662h.00816c.22915.00416.43006.16914.49975.40968.07031.24055-.00566.50395-.1896.65507v-.00763z"/><path d="M6.00879 0C4.77954 0 3.60065.47947 2.73076 1.333c-.86913.8542-1.35733 2.01208-1.35733 3.21926v1.86456C.59148 6.50244.00067 7.15182 0 7.92435v6.55824C0 15.321.69207 16 1.5451 16h8.9098C11.3086 16 12 15.321 12 14.4826V7.92434c0-.77253-.59148-1.42191-1.37343-1.50753V4.54383c-.00201-1.20325-.48889-2.35586-1.35465-3.2073-.8651-.85157-2.038-1.33167-3.26327-1.3363L6.0088 0zm0 1.0116c.95496.00198 1.86975.37607 2.5436 1.03994.67464.66386 1.05286 1.56284 1.05286 2.50069v1.8546H2.4035v-1.8546c0-.93916.37957-1.83944 1.05622-2.50406.67599-.66387 1.59272-1.03663 2.54909-1.03663l-.00002.00007zm4.96993 6.91265v6.55824c0 .27924-.2307.5058-.51504.5058H1.54514c-.28433 0-.51503-.22656-.51503-.5058V7.92425c0-.27924.2307-.5058.51503-.5058h8.90979c.13814-.00264.2716.05005.37017.14489.09858.0955.15357.22523.15357.3609h.00005z"/></g></svg>