<svg xmlns="http://www.w3.org/2000/svg" width="30" height="29" viewBox="0 0 30 29">
    <g fill="#FFF">
        <path d="M-.707-.707c.36-.36.928-.388 1.32-.083l.094.083L8.494 7.08c.39.39.39 1.023 0 1.414-.36.36-.928.388-1.32.083l-.094-.083L-.707.707c-.39-.39-.39-1.024 0-1.414zM18.417 18.417c.36-.36.928-.388 1.32-.083l.094.083 7.787 7.787c.39.39.39 1.024 0 1.414-.36.36-.928.388-1.32.083l-.094-.083-7.787-7.787c-.39-.39-.39-1.023 0-1.414zM26.486-.465c.39-.39 1.024-.39 1.414 0 .36.36.389.928.084 1.32L27.9.95l-7.786 7.787c-.391.39-1.024.39-1.415 0-.36-.36-.388-.928-.083-1.32l.083-.095 7.787-7.787zM7.08 18.417c.39-.39 1.023-.39 1.414 0 .36.36.388.928.083 1.32l-.083.094-7.787 7.787c-.39.39-1.024.39-1.414 0-.36-.36-.388-.927-.083-1.32l.083-.094 7.787-7.787z" transform="translate(1 1)"/>
        <path d="M9.014 16.898c.552 0 1 .447 1 1 0 .512-.386.935-.884.993l-.116.007H4.499c-.552 0-1-.448-1-1 0-.513.386-.936.884-.994l.116-.006h4.515z" transform="translate(1 1)"/>
        <path d="M9.014 16.898c.512 0 .935.386.993.883l.007.117v4.514c0 .552-.448 1-1 1-.513 0-.936-.386-.994-.884l-.006-.116v-4.514c0-.553.447-1 1-1zM17.898 16.898c.512 0 .935.386.993.883l.007.117v4.514c0 .552-.448 1-1 1-.513 0-.936-.386-.994-.884l-.006-.116v-4.514c0-.553.447-1 1-1z" transform="translate(1 1)"/>
        <path d="M22.412 16.898c.552 0 1 .447 1 1 0 .512-.386.935-.884.993l-.116.007h-4.514c-.553 0-1-.448-1-1 0-.513.386-.936.883-.994l.117-.006h4.514zM9.014 3.5c.512 0 .935.385.993.883l.007.116v4.515c0 .552-.448 1-1 1-.513 0-.936-.386-.994-.884l-.006-.116V4.499c0-.552.447-1 1-1z" transform="translate(1 1)"/>
        <path d="M9.014 8.014c.552 0 1 .447 1 1 0 .512-.386.935-.884.993l-.116.007H4.499c-.552 0-1-.448-1-1 0-.513.386-.936.884-.994l.116-.006h4.515zM22.694 8.256c.552 0 1 .448 1 1 0 .513-.386.936-.883.993l-.117.007H18.18c-.552 0-1-.448-1-1 0-.513.386-.936.883-.993l.117-.007h4.514z" transform="translate(1 1)"/>
        <path d="M18.18 3.742c.513 0 .935.386.993.883l.007.117v4.514c0 .552-.448 1-1 1-.513 0-.936-.386-.993-.883l-.007-.117V4.742c0-.552.448-1 1-1z" transform="translate(1 1)"/>
    </g>
</svg>
