<svg xmlns="http://www.w3.org/2000/svg" xmlns:xlink="http://www.w3.org/1999/xlink" viewBox="0 0 21 22">
    <g fill="none" fill-rule="evenodd">
        <path fill="#BEC0D2" d="M6.132 8.392c0 .989.334 1.701.974 1.701.626 0 .932-.64.932-1.701 0-.96-.262-1.703-.946-1.703-.655 0-.96.757-.96 1.703zM12.954 12.32c-.014.989.32 1.701.96 1.701.626 0 .932-.64.932-1.702 0-.96-.248-1.702-.931-1.702-.67 0-.96.757-.96 1.702z"/>
        <g transform="translate(0 .011)">
            <mask id="prefix__b" fill="#fff">
                <use xlink:href="#prefix__a"/>
            </mask>
            <path fill="#BEC0D2" d="M13.87 15.217c-1.425 0-2.56-1.076-2.574-2.85 0-1.688 1.033-2.968 2.648-2.968 1.629 0 2.545 1.192 2.545 2.807 0 1.978-1.25 3.011-2.618 3.011zm-5.513.03H7.18l5.426-9.777h1.193l-5.44 9.776zm-3.87-6.809c0-1.687 1.034-2.968 2.649-2.968 1.629 0 2.545 1.193 2.545 2.808 0 1.979-1.25 3.012-2.618 3.012-1.44 0-2.575-1.077-2.575-2.852zm16.387 2.723l-1.235-1.95.732-2.19c.1-.299-.024-.626-.296-.783l-2.002-1.153-.368-2.28c-.05-.31-.312-.541-.627-.554l-2.307-.091L13.385.313c-.188-.254-.528-.337-.812-.2l-2.084.991L8.403.113c-.283-.135-.623-.051-.812.2L6.205 2.16l-2.307.09c-.314.014-.577.245-.626.555l-.368 2.28L.903 6.238c-.273.157-.398.484-.297.784l.732 2.188-1.235 1.951c-.169.266-.127.614.1.83L1.87 13.59l-.187 2.301c-.026.315.173.602.476.69l2.218.639.903 2.125c.122.289.433.457.74.39l2.263-.463 1.786 1.462c.121.098.27.15.42.15.149 0 .297-.052.42-.15l1.786-1.462 2.262.463c.306.065.618-.1.74-.39l.903-2.125 2.219-.64c.302-.086.5-.374.475-.689l-.187-2.3 1.667-1.598c.227-.217.269-.565.1-.831z" mask="url(#prefix__b)"/>
        </g>
    </g>
</svg>
