<svg width="14px" height="24px" viewBox="0 0 14 24" version="1.1" xmlns="http://www.w3.org/2000/svg">
    <g transform="translate(-135.000000, -436.000000)" fill-rule="nonzero">
        <path fill="#4A4A4A" d="M146.963636,436 L137.036364,436 C135.911711,436 135,436.911711 135,438.036364 L135,457.636364 C135,458.761016 135.911711,459.672727 137.036364,459.672727 L146.963636,459.672727 C148.088289,459.672727 149,458.761016 149,457.636364 L149,438.036364 C149,436.911711 148.088289,436 146.963636,436 Z M142,457.865455 C141.437674,457.865455 140.981818,457.409599 140.981818,456.847273 C140.981818,456.284946 141.437674,455.829091 142,455.829091 C142.562326,455.829091 143.018182,456.284946 143.018182,456.847273 C143.018182,457.409599 142.562326,457.865455 142,457.865455 Z M147.472727,454.48 L136.527273,454.48 L136.527273,438.723636 L147.472727,438.723636 L147.472727,454.48 Z"
              id="Shape"></path>
    </g>
</svg>
