<svg xmlns="http://www.w3.org/2000/svg" xmlns:xlink="http://www.w3.org/1999/xlink" aria-hidden="true" focusable="false"
 width="1em" height="1em" style="-ms-transform: rotate(360deg); -webkit-transform: rotate(360deg); transform: rotate(360deg);"
  preserveAspectRatio="xMidYMid meet" viewBox="0 0 24 24">
  <path d="M12 20a8 8 0 0 1-8-8a8 8 0 0 1 8-8a8 8 0 0 1 8 8a8 8 0 0 1-8 8m0-18A10 10 0 0 0 2 12a10 10 0 0 0 10 10a10 10 0 0 0 10-10A10 10 0 0 0 12 2m0 5a5 5 0 0 0-5 5a5 5 0 0 0 5 5a5 5 0 0 0 5-5a5 5 0 0 0-5-5z" fill="#626262"/></svg>