<svg xmlns="http://www.w3.org/2000/svg" viewBox="1.4 0 32 24">
    <g>
         <path d="M15.501.081H25.584V2.081H15.501zM15.501 8H25.584V10H15.501zM18.251 4H25.584000000000003V6H18.251zM14.469 5.081L8.219.081 8.219 4.081.719 4.081.719 6.081 8.219 6.081 8.219 10.081z" transform="translate(.746) translate(.232 7)"/>
         <path d="M27.732 0c2.532 0 4.584 2.239 4.584 5v14c0 2.761-2.052 5-4.584 5H8.482C5.952 24 3.9 21.761 3.9 19v-1h1.833v1c0 1.598 1.145 2.904 2.589 2.995l.161.005h19.25c1.52 0 2.75-1.343 2.75-3V5c0-1.657-1.23-3-2.75-3H8.482c-1.518 0-2.75 1.343-2.75 3v1H3.9V5C3.9 2.313 5.842.121 8.28.005L8.481 0z" transform="translate(.746)"/>
    </g>
</svg>