<svg xmlns="http://www.w3.org/2000/svg" width="27" height="27" viewBox="0 0 27 27">
    <defs>
        <filter id="a" width="101.5%" height="130%" x="-.8%" y="-15%" filterUnits="objectBoundingBox">
            <feOffset in="SourceAlpha" result="shadowOffsetOuter1"/>
            <feGaussianBlur in="shadowOffsetOuter1" result="shadowBlurOuter1" stdDeviation="2"/>
            <feColorMatrix in="shadowBlurOuter1" result="shadowMatrixOuter1" values="0 0 0 0 0 0 0 0 0 0 0 0 0 0 0 0 0 0 0.2 0"/>
            <feMerge>
                <feMergeNode in="shadowMatrixOuter1"/>
                <feMergeNode in="SourceGraphic"/>
            </feMerge>
        </filter>
    </defs>
    <path fill="#9B9B9B" fill-rule="nonzero" d="M23.837 11C19.526 11 16 14.526 16 18.837s3.526 7.837 7.837 7.837a7.769 7.769 0 0 0 4.43-1.388l4.297 4.297a1.43 1.43 0 0 0 2.019 0 1.42 1.42 0 0 0 0-2.011l-4.297-4.297a7.789 7.789 0 0 0 1.388-4.438c0-4.311-3.526-7.837-7.837-7.837zM24 14c2.778 0 5 2.222 5 5s-2.222 5-5 5-5-2.222-5-5 2.222-5 5-5z" filter="url(#a)" transform="translate(-12 -7)"/>
</svg>
