<svg xmlns="http://www.w3.org/2000/svg" width="24" height="24">
    <g fill="none" fill-rule="evenodd">
        <path fill="#FFF" fill-rule="nonzero" d="M3.545 0A3.558 3.558 0 0 0 0 3.545a3.558 3.558 0 0 0 3.545 3.546 3.558 3.558 0 0 0 3.546-3.546A3.558 3.558 0 0 0 3.545 0zm14.182 7.09c-1.548 0-2.665.583-3.545 1.296a.848.848 0 0 0-.818-.75H9c-.428 0-.818.39-.818.819v14.727c0 .428.39.818.818.818h4.636c.429 0 .819-.39.819-.818V15c0-.635.203-1.235.485-1.628.283-.393.59-.554.878-.554h.546c.288 0 .595.161.877.554.283.393.486.993.486 1.628v8.182c0 .428.39.818.818.818h4.637c.428 0 .818-.39.818-.818v-9.546c0-1.853-.348-3.505-1.38-4.713-1.033-1.208-2.69-1.832-4.893-1.832zM1.28 7.637a.847.847 0 0 0-.733.819v14.727c0 .428.39.818.818.818H6c.428 0 .818-.39.818-.818V8.455c0-.429-.39-.819-.818-.819H1.28z" opacity=".9"/>
    </g>
</svg>