<svg xmlns="http://www.w3.org/2000/svg" xmlns:xlink="http://www.w3.org/1999/xlink" width="20" height="20"><defs><path id="a" d="M0 0h20v20H0z"/></defs><g fill="none" fill-rule="evenodd"><mask id="b" fill="#fff"><use xlink:href="#a"/></mask><path fill="#FFF" d="M17.715 16.543c-.018.928-.256 1.194-1.191 1.194H3.467c-.917 0-1.173-.266-1.173-1.194 0-2.414.009-4.872-.036-7.303 0-.69.195-.84.83-.823.908.08.926.036.83.938-.354 3.076 1.781 6.092 4.816 6.684 3.14.601 6.273-1.282 7.137-4.297.256-.937.335-1.954.141-2.874-.07-.353.018-.415.327-.415 1.376-.115 1.376-.133 1.376 1.3v6.79zM10.013 6.11c2.082 0 3.873 1.803 3.847 3.89-.018 2.14-1.8 3.9-3.917 3.864-2.1-.036-3.873-1.822-3.82-3.9.044-2.104 1.808-3.854 3.89-3.854zm5.717-3.838c1.985 0 1.985 0 1.985 1.98 0 1.937 0 1.937-1.95 1.937-1.958 0-1.958 0-1.958-1.971 0-1.946 0-1.946 1.923-1.946zM17.353 0H2.655C.91 0 0 .928 0 2.679v14.704C0 19.072.935 20 2.567 20h14.786C19.056 20 20 19.072 20 17.365V2.617C20 .928 19.056 0 17.353 0z" mask="url(#b)"/></g></svg>
