<svg xmlns="http://www.w3.org/2000/svg" width="21" height="18" viewBox="0 0 21 18">
    <path fill="#FFF" fill-rule="nonzero" d="M7 17.29c0 .444-.238.71-.576.71a.886.886 0 0 1-.393-.104l-5.449-2.76c-.32-.161-.582-.591-.582-.952V.656C0 .3.19.088.46.088c.097 0 .204.025.315.082l.192.098h.002l6.006 3.04c.01.006.017.016.025.024v13.957zM13.293.94l.367-.603a.722.722 0 0 1 .922-.266l6.334 3.207c.002 0 .002.002.002.002l.006.002c.004.002.004.008.008.01.03.025.045.068.023.103L14.646 13.78l-.644 1.059-4.18-8.186 3.471-5.71zM8 11.803V5.28l4.49 8.797-4.039-2.045-.451-.23zm13 5.486c0 .418-.248.656-.613.656-.164 0-.352-.047-.55-.146l-.903-.46-4.04-2.044L21 5.248v12.041z"/>
</svg>
