<svg xmlns="http://www.w3.org/2000/svg" width="98" height="18"><path fill="#FFF" fill-rule="evenodd" d="M5.80263 2.91429c-.27079 0-.49967.0939-.68664.28171-.18698.18781-.28046.41771-.28046.68971v.97143c0 .272.09348.5019.28046.68972.18697.1878.41585.28171.68664.28171h6.76974c.39974 0 .7769.07771 1.13151.23314.3546.15543.66086.36267.91875.62172.2579.25905.46421.56666.61895.92286.15474.35619.2321.73504.2321 1.13657v2.91428c0 .40153-.07736.78038-.2321 1.13657-.15474.3562-.36105.66381-.61895.92286s-.56414.46629-.91875.62172c-.3546.15543-.73177.23314-1.13151.23314H0v-2.91429h9.67105c.2708 0 .49967-.0939.68665-.28171.18697-.18781.28046-.41771.28046-.68972V9.7143c0-.272-.09349-.5019-.28046-.68972-.18698-.1878-.41586-.28171-.68665-.28171H2.90132c-.39974 0-.77691-.07772-1.13152-.23315-.3546-.15543-.66085-.36266-.91875-.62171-.2579-.25905-.4642-.56666-.61894-.92286C.07737 6.60895 0 6.2301 0 5.82857V2.9143c0-.40153.07737-.78038.2321-1.13658.15474-.35619.36106-.6638.61895-.92285.2579-.25905.56415-.46629.91875-.62172C2.12441.07771 2.50158 0 2.90132 0h12.57236v2.91429H5.80263zm16.22588 4.4V18h-4.83553V6.34286c0-.40153.07737-.78038.2321-1.13657.15475-.3562.36106-.66381.61896-.92286.2579-.25905.56414-.46629.91875-.62172.3546-.15543.73177-.23314 1.1315-.23314h9.67106c.39974 0 .7769.07771 1.13151.23314.35461.15543.66086.36267.91875.62172.2579.25905.46421.56666.61895.92286.15474.35619.2321.73504.2321 1.13657V11.2c0 .40153-.07736.78038-.2321 1.13657-.15474.3562-.36105.66381-.61895.92286s-.56414.46628-.91875.62171c-.3546.15543-.73177.23315-1.1315.23315H22.9956V11.2h3.86842c.2708 0 .49967-.0939.68665-.28171.18697-.18781.28046-.41772.28046-.68972V7.3143c0-.272-.09349-.5019-.28046-.68972-.18698-.1878-.41585-.28171-.68665-.28171h-3.86842c-.27079 0-.49967.0939-.68664.28171-.18698.18781-.28046.41771-.28046.68972zm12.35746 6.4V3.42857h5.15789V13.7143h-5.1579zM39.54386 0v2.57143h-5.1579V0h5.1579zM50.7193 3.88571V6.8h-5.6268v3.88571c0 .272.09066.5019.27197.68972.1813.1878.40325.28171.66583.28171h4.689v2.91429h-7.5024c-.38762 0-.75336-.07771-1.09722-.23314-.34386-.15543-.64083-.36267-.8909-.62172-.25009-.25905-.45015-.56666-.6002-.92286-.15005-.35619-.22507-.73504-.22507-1.13657V0h4.689v3.88571h5.62679zM57.27412 0v10.68571c0 .272.09349.5019.28046.68972.18698.1878.41586.28171.68665.28171h3.86842c.27079 0 .49967-.0939.68664-.28171.18698-.18781.28046-.41771.28046-.68972V7.77143c0-.272-.09348-.5019-.28046-.68972-.18697-.1878-.41585-.28171-.68664-.28171h-3.86842V3.88571h6.76974c.39973 0 .7769.07772 1.1315.23315.35461.15543.66086.36266.91876.62171s.4642.56667.61894.92286c.15474.3562.23211.73504.23211 1.13657v4.85714c0 .40153-.07737.78038-.2321 1.13657-.15474.3562-.36106.66381-.61895.92286-.2579.25905-.56415.46629-.91875.62172-.3546.15543-.73178.23314-1.13151.23314H55.3399c-.39974 0-.7769-.07771-1.13151-.23314-.3546-.15543-.66085-.36267-.91875-.62172-.2579-.25905-.46421-.56666-.61895-.92286-.15474-.35619-.2321-.73504-.2321-1.13657V0h4.83552zm22.99562 13.71429V7.16883c0-.26182-.09349-.48311-.28046-.6639-.18698-.18078-.41586-.27116-.68665-.27116h-3.86842c-.27079 0-.49967.09038-.68664.27117-.18698.18078-.28047.40207-.28047.6639v2.80519c0 .26182.0935.48311.28047.6639.18697.18077.41585.27116.68664.27116h3.86842v2.8052H72.5329c-.39974 0-.77691-.0748-1.13152-.22442-.3546-.14961-.66085-.34909-.91875-.59844-.2579-.24935-.4642-.54545-.61895-.88831-.15473-.34286-.2321-.70753-.2321-1.09403V6.23377c0-.3865.07737-.75117.2321-1.09403.15474-.34286.36106-.63896.61895-.88831.2579-.24935.56415-.44883.91875-.59844.3546-.14961.73178-.22442 1.13152-.22442h9.67105c.39974 0 .7769.0748 1.13151.22442.3546.1496.66085.34909.91875.59844.2579.24935.46421.54545.61895.88831.15474.34286.2321.70753.2321 1.09403v7.48052h-4.83552zm6.55482.85714V0h5.1579v14.57143h-5.1579zm6.01754 0V0H98v14.57143h-5.1579z"/></svg>