<svg xmlns="http://www.w3.org/2000/svg" viewBox="0.5 0.5 18.4 14.7">
    <g fill="none" fill-rule="evenodd" stroke="#69687D" stroke-linecap="round" stroke-linejoin="round" stroke-width="1.6">
        <path d="M13.422 3.694c0 1.178-.979 2.132-2.187 2.132-1.208 0-2.188-.954-2.188-2.132V2.476c0-1.179.98-2.133 2.188-2.133 1.208 0 2.187.954 2.187 2.133v1.218zM7.225 2.399c0 .947-.816 1.714-1.823 1.714-1.007 0-1.823-.767-1.823-1.714S4.395.685 5.402.685c1.007 0 1.823.767 1.823 1.714zM7.237 7.979c-.72-.493-1.605-.782-2.565-.782-2.128 0-3.9 1.432-4.295 3.324-.086.412.278.788.723.788h3.572M11.235 7.882h0c-2.94 0-5.373 2.045-5.775 4.704-.062.412.286.78.728.78h10.093c.442 0 .79-.368.729-.78-.403-2.66-2.835-4.704-5.775-4.704z" transform="translate(1 1)"/>
    </g>
</svg>
