<svg xmlns="http://www.w3.org/2000/svg" width="24" height="24">
    <path fill="#000" fill-rule="nonzero" d="M8.848482 4c-.7973572 0-1.4545447.6571879-1.4545447 1.4545454v.7272728c-.0018938.1297357.0482958.2547394.1392048.3475394.091857.091857.2159077.1439394.3456483.1439394.1297405 0 .2537938-.0520825.3456482-.1439394.090909-.0928025.1410982-.2178037.1392048-.3475394v-.7272728c0-.2774545.2073866-.4848484.4848482-.4848484h9.6969638c.2774544 0 .4848482.2073866.4848482.4848484v9.6969698c0 .2774545-.2073865.4848484-.4848482.4848484h-.7272723c-.1297356-.0018938-.2547392.0482958-.3475391.1392049-.091857.091857-.1439393.2159079-.1439393.3456485s.0520823.2537939.1439393.3456485c.0928023.090909.2178035.1410981.3475391.1392048h.7272723c.7973571 0 1.4545446-.6571879 1.4545446-1.4545455V5.4545551c0-.7973575-.6571875-1.4545454-1.4545446-1.4545454L8.8484819 4zM5.4545445 7.3939394C4.6571875 7.3939394 4 8.0511273 4 8.8484849v9.6969696C4 19.3428121 4.6571875 20 5.4545446 20h9.6969638c.7973571 0 1.4545446-.6571879 1.4545446-1.4545455V8.8484848c0-.7973575-.6571875-1.4545454-1.4545446-1.4545454H5.4545446zm0 .969697h9.6969638c.2774544 0 .4848482.2073866.4848482.4848485v9.6969696c0 .2774546-.2073866.4848485-.4848482.4848485H5.4545446c-.2774544 0-.4848482-.2073866-.4848482-.4848485V8.8484849c0-.2774546.2073865-.4848485.4848482-.4848485z"/>
</svg>