<svg xmlns="http://www.w3.org/2000/svg" width="30" height="27" viewBox="0 0 30 27">
    <g fill="none" fill-rule="evenodd">
        <path fill="#FFF" d="M14.09 0c7.783 0 14.092 6.044 14.092 13.5 0 1.845-.386 3.603-1.085 5.204l2.693 6.723-7.965-.64A14.468 14.468 0 0 1 14.091 27C6.309 27 0 20.956 0 13.5S6.309 0 14.09 0z"/>
        <path fill="#4C59FF" fill-rule="nonzero" d="M15.567 16.567h-2.55c0-.834.14-1.561.42-2.183.281-.621.85-1.254 1.708-1.9.484-.36.804-.644.96-.849.156-.204.234-.487.234-.849 0-.488-.168-.877-.503-1.168-.336-.291-.792-.436-1.37-.436-1.075 0-1.793.566-2.152 1.698l-2.69-.707c.748-2.266 2.386-3.398 4.913-3.398 1.28 0 2.41.322 3.393.967.982.645 1.474 1.565 1.474 2.76 0 1.244-.538 2.258-1.615 3.045-.873.629-1.462 1.144-1.766 1.545-.304.401-.456.893-.456 1.475zm-2.855 4.648v-3.232h3.182v3.232h-3.182z"/>
    </g>
</svg>
