<?xml version="1.0" standalone="no"?>
<!DOCTYPE svg PUBLIC "-//W3C//DTD SVG 20010904//EN"
 "http://www.w3.org/TR/2001/REC-SVG-20010904/DTD/svg10.dtd">
<svg version="1.0" xmlns="http://www.w3.org/2000/svg"
 width="48.000000pt" height="48.000000pt" viewBox="0 0 48.000000 48.000000"
 preserveAspectRatio="xMidYMid meet">
<metadata>
Created by potrace 1.15, written by Peter Selinger 2001-2017
</metadata>
<g transform="translate(0.000000,48.000000) scale(0.100000,-0.100000)"
fill="#000000" stroke="none">
<path d="M133 402 l-83 -47 0 -115 0 -115 85 -48 c47 -26 94 -47 105 -47 11 0
58 21 105 47 l85 48 0 115 0 115 -85 48 c-47 26 -95 47 -107 46 -13 0 -60 -21
-105 -47z m187 -44 c44 -30 47 -43 16 -64 -24 -15 -28 -15 -60 0 -62 29 -119
-18 -96 -79 15 -40 54 -53 94 -31 27 14 37 15 59 5 33 -15 33 -20 5 -46 -70
-63 -150 -57 -212 17 -31 37 -35 103 -11 151 35 68 139 91 205 47z"/>
</g>
</svg>
