<svg xmlns="http://www.w3.org/2000/svg" xmlns:xlink="http://www.w3.org/1999/xlink" viewBox="0 0 22 14">
    <defs>
        <path id="prefix__a" d="M0 0L21.412 0 21.412 14 0 14z"/>
    </defs>
    <g fill="none" fill-rule="evenodd">
        <mask id="prefix__b" fill="#fff">
            <use xlink:href="#prefix__a"/>
        </mask>
        <path fill="#FFF" d="M21.346 1.834L15.83 7.08l5.517 5.256.066.067V1.764c-.02.024-.044.045-.066.07zm-6.66 6.335l-1.11 1.059a4.032 4.032 0 01-2.784 1.099A4.018 4.018 0 018.01 9.223L6.727 8.001l-5.67 5.395c-.276.258-.422.485-.474.604h20.138a2.614 2.614 0 00-.363-.428L14.687 8.17zM6.727 5.82l1.145 1.092 1.131 1.08c.473.45 1.126.694 1.79.69a2.593 2.593 0 001.792-.69l.955-.912 1.148-1.09L20.353.6c.272-.257.418-.478.471-.6H.695c.079.12.19.258.362.42l5.67 5.401zM.065 1.654C.041 1.633.024 1.61 0 1.587v10.64l.065-.068 5.517-5.246L.064 1.654z" mask="url(#prefix__b)"/>
    </g>
</svg>
