<svg xmlns="http://www.w3.org/2000/svg" viewBox="0 0 21 16">
    <path fill="#FEFEFE" fill-rule="evenodd" d="M21.082 1.875a9.21 9.21 0 01-2.481.626c.891-.493 1.576-1.277 1.902-2.208a9.082 9.082 0 01-2.75.968C16.966.487 15.842 0 14.596 0c-2.386 0-4.323 1.788-4.323 3.993 0 .313.037.617.109.91C6.79 4.737 3.602 3.145 1.47.731a3.736 3.736 0 00-.59 2.008c0 1.384.767 2.605 1.927 3.322a4.57 4.57 0 01-1.96-.5v.05c0 .513.105 1 .296 1.447.528 1.254 1.719 2.198 3.176 2.469a4.748 4.748 0 01-1.957.07c.554 1.584 2.151 2.738 4.04 2.772-1.48 1.07-3.343 1.708-5.372 1.708-.347 0-.69-.021-1.031-.057a12.997 12.997 0 006.631 1.794c6.761 0 10.917-4.393 12.013-8.95a10.258 10.258 0 00.283-2.925 8.44 8.44 0 002.155-2.064"/>
</svg>
