<svg xmlns="http://www.w3.org/2000/svg" viewBox="0 0 21 20">
    <g fill="#FEFEFE" fill-rule="evenodd">
        <path d="M20.699 9.383C20.562 4.18 16.069 0 10.542 0 5.076 0 .622 4.083.388 9.203c-.006.14-.013.28-.013.424 0 1.818.534 3.519 1.457 4.97L0 19.764l5.627-1.705a10.607 10.607 0 004.915 1.198c5.613 0 10.164-4.313 10.164-9.63 0-.08-.004-.164-.007-.244m-10.157 8.34a8.831 8.831 0 01-4.704-1.341l-3.283.997 1.066-3.006a7.79 7.79 0 01-1.585-5.53c.418-4.1 4.073-7.312 8.506-7.312 4.487 0 8.174 3.296 8.515 7.462.017.21.03.42.03.634 0 4.463-3.834 8.096-8.545 8.096"/>
        <path d="M15.196 11.568c-.248-.116-1.475-.687-1.702-.767-.23-.077-.394-.117-.561.12-.168.233-.646.767-.79.925-.147.156-.29.176-.538.059-.25-.12-1.053-.367-2.005-1.17-.74-.627-1.241-1.402-1.385-1.635-.147-.237-.017-.364.107-.484.114-.103.25-.273.374-.413.038-.04.064-.077.091-.11.063-.09.1-.17.16-.284.084-.157.04-.294-.02-.413-.064-.118-.562-1.278-.769-1.752-.207-.474-.415-.394-.562-.394-.147 0-.31-.02-.478-.02a.932.932 0 00-.662.297c-.23.237-.872.807-.872 1.969 0 .273.05.543.127.804.25.833.792 1.517.889 1.637.124.157 1.725 2.615 4.256 3.563 2.534.944 2.534.63 2.99.59.457-.04 1.474-.57 1.684-1.124.204-.55.204-1.024.144-1.12-.063-.101-.228-.158-.478-.278"/>
    </g>
</svg>
