<?xml version="1.0" encoding="UTF-8"?>
<svg viewBox="0 0 24 17" version="1.1" xmlns="http://www.w3.org/2000/svg" xmlns:xlink="http://www.w3.org/1999/xlink">
  <g  stroke="none" stroke-width="1" fill="none" fill-rule="evenodd">
    <g  transform="translate(-24.000000, -113.000000)" fill-rule="nonzero" class="svg-fill">
      <g transform="translate(17.000000, 78.000000)">
        <g>
          <path class="ic" d="M12.5751887,36.3286673 C9.63831465,37.3253915 6.47879826,40.2485369 8.62017302,43.4296149 C9.25207629,44.3682669 10.3971132,45.1997297 11.4053686,45.6858804 C12.2144107,46.0761035 12.9803869,46.0311926 12.6454754,47.1887006 C12.4705035,47.7939806 12.0082905,48.4369803 10.0206256,48.9810674 C13.3748863,49.5050735 15.2276657,47.9468948 15.9045308,47.0133987 C17.2234562,48.6268002 19.2127463,49.1844556 21.3289316,49.3795672 C24.2454916,49.648083 23.3279724,50.1256856 25.0973286,50.6784564 C26.7938251,51.2084326 28.0656218,51.1627076 29.7418042,50.768821 C28.3223918,50.5765588 27.4384585,50.1893208 26.6341564,49.4138948 C26.03137,48.832495 26.6623252,48.6964054 26.984642,48.5409132 C31.7672533,46.2348521 30.6835649,41.5419989 25.9908772,39.9497639 C25.7461603,39.8667261 25.4969743,39.7927791 25.2439963,39.7279228 C24.6674827,38.3366337 23.2769163,37.0784492 21.0672862,36.3285316 C18.4008603,35.4238002 15.2417501,35.4238002 12.5751887,36.3286673 L12.5751887,36.3286673 Z M17.2363218,42.9634095 L15.9699422,42.9634095 C15.9496281,41.8554256 16.081805,41.4586898 16.981177,40.7255968 C17.5518672,40.2630549 18.4003185,39.5777222 17.5687956,38.848157 C17.1109162,38.4397525 16.2661214,38.4723163 15.8026896,38.8617253 C15.5646086,39.0647064 15.4008771,39.3725702 15.3113597,39.7870804 L14.0349584,39.6245327 C14.0720655,39.0309215 14.3235538,38.5283532 14.7913193,38.1141143 C15.7447267,37.2690832 17.5931725,37.281566 18.5429234,38.1207627 C20.0158295,39.4223657 19.0083866,40.6352322 17.8793301,41.5749697 C17.3036291,42.0524367 17.22305,42.2133563 17.2363218,42.9634095 L17.2363218,42.9634095 Z M15.9699422,44.8309445 L15.9699422,43.4404695 L17.2363218,43.4404695 L17.2363218,44.8309445 L15.9699422,44.8309445 L15.9699422,44.8309445 Z M17.5780046,46.7313146 C18.7357717,46.6121853 19.8890697,46.5663246 21.0672862,46.1633474 C24.0500701,45.1431501 25.5472177,43.1937985 25.5506034,41.2452611 C26.0851346,41.4342669 26.5881111,41.6790383 27.03949,41.9840527 C28.3822506,42.8912264 29.3223862,44.2632486 28.3038382,45.7765164 C26.8039821,48.0048313 24.3920238,47.0176049 25.0644198,49.2980219 C24.4647482,48.8897531 23.7840911,48.3877275 23.1226647,48.2444467 C21.8492428,47.9687397 20.5341094,48.0612753 19.3393707,47.652735 C18.7028629,47.4352359 18.0874817,47.1243871 17.5780046,46.7313146 Z" id="Ask-Copy"></path>
        </g>
      </g>
    </g>
  </g>
</svg>