<?xml version="1.0" encoding="UTF-8"?>
<svg viewBox="0 0 22 18" version="1.1" xmlns="http://www.w3.org/2000/svg" xmlns:xlink="http://www.w3.org/1999/xlink">
  <g stroke="none" stroke-width="1" fill="none" fill-rule="evenodd">
    <g transform="translate(-25.000000, -339.000000)" fill-rule="nonzero" class="spitball-svg-fill">
      <g transform="translate(17.000000, 78.000000)">
        <g >
          <path class="ic" d="M28.8529778,262.766956 C28.557,262.766956 28.2791778,262.769961 28.0009333,262.777258 L28.0009333,261.816667 L27.6910222,261.816667 C21.6692889,261.816667 19.6506444,263.280731 18.9995778,264.070922 C18.3485111,263.280731 16.3298667,261.816667 10.3081333,261.816667 L9.99822222,261.816667 L9.99822222,262.776828 C9.7204,262.769102 9.44257778,262.766956 9.14702222,262.766956 L8.44444444,262.766956 L8.44444444,276.652174 L9.14702222,276.652174 C16.5760222,276.652174 18.0922222,278.384071 18.3084,278.705556 L19.7025778,278.705556 C19.9377556,278.369048 21.4835111,276.652174 28.8534,276.652174 L29.5555556,276.652174 L29.5555556,262.766956 L28.8529778,262.766956 Z M18.5351333,276.025945 C17.4977333,275.248201 15.3216,274.345983 10.7734222,274.285893 L10.7734222,262.610292 C17.1434889,262.69356 18.3738444,264.46752 18.5351333,264.756384 L18.5351333,276.025945 Z M27.2265778,274.285893 C22.6784,274.345983 20.5022667,275.247342 19.4648667,276.025945 L19.4648667,264.760247 C19.6405111,264.443913 20.9054889,262.693989 27.2265778,262.61115 L27.2265778,274.285893 Z" id="Shape-Copy-6"></path>
        </g>
      </g>
    </g>
  </g>
</svg>