<?xml version="1.0" encoding="UTF-8"?>
<svg viewBox="0 0 15 18" version="1.1" xmlns="http://www.w3.org/2000/svg" xmlns:xlink="http://www.w3.org/1999/xlink">
    <g stroke="none" stroke-width="1" fill-rule="evenodd">
        <g transform="translate(-29.000000, -158.000000)" fill-rule="nonzero" class="svg-fill">
            <g transform="translate(17.000000, 78.000000)">
                <g >
                    <path class="ic" d="M12.1388889,81.2182032 L12.1388889,96.0952695 C12.1388889,96.6821536 12.6211108,97.1579171 13.2159616,97.1579171 L25.063761,97.1579171 C25.6586118,97.1579171 26.1408337,96.6821536 26.1408337,96.0952695 L26.1408337,85.0207105 C26.1405823,84.7389738 26.0269404,84.4688667 25.8248924,84.2697728 L21.9707673,80.4672655 C21.7689708,80.2679235 21.4951971,80.1558036 21.209636,80.1555556 L13.2159616,80.1555556 C12.6211108,80.1555556 12.1388889,80.6313191 12.1388889,81.2182032 Z M14.2603957,82.2290143 L19.9531056,82.2290143 L19.9531056,85.1750536 C19.9531056,85.766709 20.4385747,86.2463406 21.0374313,86.2463406 L24.0193269,86.2463406 L24.0193269,95.0844584 L14.2603957,95.0844584 L14.2603957,82.2290143 Z"></path>
                </g>
            </g>
        </g>
    </g>
</svg>