<?xml version="1.0" encoding="UTF-8"?>
<svg viewBox="0 0 14 18" version="1.1" xmlns="http://www.w3.org/2000/svg" xmlns:xlink="http://www.w3.org/1999/xlink">
    <g stroke="none" stroke-width="1" fill="none" fill-rule="evenodd">
        <g transform="translate(-33.000000, -808.000000)" fill-rule="nonzero" class="spitball-svg-fill">
            <g transform="translate(0.000000, -2.000000)" id="My-Likes">
                <g transform="translate(24.000000, 802.000000)">
                    <path d="M21.9344982,16.356112 C21.3637666,15.7686612 21.4336877,15.7012028 20.8769403,15.7012028 C20.5911375,15.7012028 20.3149488,15.7213466 20.0536184,15.7428958 C20.0330791,15.7428958 19.9937484,15.7307158 19.9596618,15.7175989 C19.9050359,15.7002658 19.8399218,15.6782482 19.7656305,15.6745005 C19.500367,15.613132 19.2945366,15.5536374 19.1009423,15.3892074 C18.7071986,15.0139697 18.3615258,14.5445713 18.0263411,14.0911005 L17.7872981,13.7678621 C17.3485427,13.2014921 16.8123346,12.4486745 16.5444491,11.6396414 C16.4028587,11.2358276 16.3456107,10.8076538 16.365276,10.2900038 C16.3692091,10.1911584 16.3744532,10.0960607 16.3788233,10.0028369 C16.3993626,9.62666228 16.4185909,9.27156845 16.304095,8.90663692 C16.1419653,8.36322156 15.7429775,8.05263158 15.2085175,8.05263158 C14.8501714,8.05263158 14.472597,8.19879157 14.1859202,8.44332848 C13.467043,8.97924846 13.0046892,9.99487303 12.9483153,11.1632161 C12.9194728,11.8171883 13.1052009,12.381216 13.285248,12.9246314 C13.4421336,13.3987144 13.5907161,13.8460952 13.5889681,14.3300159 C13.5872201,15.0636266 12.9959491,15.2678759 12.1595169,15.4763412 C12.0677454,15.4992959 11.9777219,15.5213135 11.9069267,15.5414574 C11.810785,15.5597274 11.7133324,15.5770605 11.6145687,15.5953305 C10.9870261,15.7063558 10.2764521,15.8342458 9.76209441,16.3603281 C9.37315783,16.7739796 9.18874072,17.4560596 9.29100044,18.0992573 C9.3652917,18.5630342 9.57855131,18.9448303 9.88664151,19.1715657 C9.69217323,19.9613918 10.0531413,20.8795764 10.7523532,21.3700556 C10.685054,21.7270233 10.7475461,22.1303686 10.9332742,22.5074802 C11.1408527,22.9290955 11.4703563,23.2588924 11.8374425,23.415827 C11.8383165,24.1386632 12.2993593,24.7682754 13.0239176,24.9884524 C13.2245039,25.0315508 13.4430076,25.0526316 13.6921019,25.0526316 C14.058314,25.0526316 14.4254002,25.0067224 14.7811243,24.9640924 C14.8995533,24.94957 15.0175453,24.9355162 15.1534546,24.920057 C15.3627811,24.8732108 15.5817218,24.8451031 15.8019735,24.8137162 C16.2542762,24.7514108 16.7218741,24.6872316 17.1462082,24.4914147 C17.488822,24.3274532 17.7912312,24.0908801 18.0840261,23.8627393 C18.1797307,23.7887224 18.2736873,23.7156424 18.3689549,23.6439678 C18.4629115,23.5708878 18.5586161,23.4757901 18.6565058,23.3769447 C18.8247536,23.2068932 18.9986826,23.0312201 19.1669304,22.996554 C19.3163869,22.9656355 19.4592884,22.9487709 19.5973827,22.9323748 C19.7520833,22.9150417 19.9011028,22.8977086 20.0479373,22.8644478 L20.1204805,22.8644478 C20.2751811,22.8644478 20.445177,22.8742855 20.621728,22.8864655 C20.8223144,22.8981771 20.1571892,22.9131678 20.3638936,22.9131678 C20.8730073,22.9131678 21.511038,22.8428986 21.921388,22.3008886 C22.5275172,21.529801 22.6153557,20.3548995 22.6188518,19.2010788 C22.6293399,18.3049119 22.6354581,17.0246066 21.9344982,16.356112 Z" id="my-likes-icon" transform="translate(15.942193, 16.552632) scale(-1, 1) translate(-15.942193, -16.552632) "></path>
                </g>
            </g>
        </g>
    </g>
</svg>