<svg xmlns="http://www.w3.org/2000/svg" width="25" height="26" viewBox="0 0 25 26">
    <path fill="#FFF" fill-rule="nonzero" d="M23.597 14.933l-.715-.784c.083-.758.083-1.523 0-2.282l.715-.779c.427-.462 1.193-1.074.954-1.657l-.98-2.42c-.238-.583-1.211-.462-1.834-.484l-1.056-.038c-.469-.594-1-1.135-1.583-1.612l-.034-1.072c-.019-.629.103-1.619-.477-1.86L16.203.94c-.573-.242-1.18.545-1.634.968l-.77.726a9.986 9.986 0 0 0-2.25 0l-.766-.726c-.453-.43-1.06-1.21-1.634-.968l-2.384.995c-.575.242-.453 1.231-.477 1.86l-.038 1.07a10.387 10.387 0 0 0-1.59 1.609l-1.055.034c-.62.02-1.595-.104-1.834.484l-.99 2.42c-.238.58.537 1.195.955 1.654l.715.782a10.431 10.431 0 0 0 0 2.284l-.715.78c-.425.459-1.193 1.071-.954 1.654l.98 2.42c.238.583 1.214.462 1.836.484l1.052.036c.47.596 1.002 1.138 1.588 1.616l.03 1.068c.02.629-.102 1.62.478 1.863l2.384 1.004c.572.242 1.178-.545 1.631-.968l.773-.726c.746.084 1.5.084 2.246 0l.768.726c.455.433 1.056 1.21 1.63.968l2.385-.995c.575-.242.456-1.229.477-1.863l.036-1.07a10.387 10.387 0 0 0 1.593-1.608l1.054-.034c.62-.02 1.598.104 1.836-.484l.99-2.42c.248-.57-.53-1.185-.952-1.65zM12.69 18.732c-3.019 0-5.463-2.567-5.463-5.735 0-3.167 2.444-5.734 5.463-5.734 3.02 0 5.463 2.567 5.463 5.734 0 3.168-2.444 5.735-5.463 5.735z"/>
</svg>
