<svg xmlns="http://www.w3.org/2000/svg" xmlns:xlink="http://www.w3.org/1999/xlink" width="26" height="20" viewBox="0 0 26 20">
    <defs>
        <path id="a" d="M0 0h26v20H0z"/>
    </defs>
    <g fill="none" fill-rule="evenodd">
        <mask id="b" fill="#fff">
            <use xlink:href="#a"/>
        </mask>
        <path fill="#FFF" d="M25.59 14.99a.98.98 0 0 0-.31-.714c.162-.18.261-.41.261-.664 0-.38-.22-.71-.55-.881V7.617s-8.326-.022-10.204-.022c-.369.366-1.053.614-1.835.614-1.171 0-2.122-.556-2.122-1.241 0-.688.95-1.242 2.122-1.242.956 0 1.764.372 2.031.877H25.23L12.952 0 0 6.968l5.282 2.84 7.67 4.129 11.228-6.04v4.747c-.444.124-.763.51-.763.968 0 .28.117.534.312.716a.974.974 0 0 0-.263.662l-.406 3.61c0 .396.176.755.454 1.009l.15-.997.077 1.165.069.042.258-2.432.074 2.558c.072.022.142.034.216.042l.091-.325.08.338c.062 0 .12-.007.178-.013l.032-.625.14.593c.04-.01.085-.02.125-.034l.017-1.032.226.933c.034-.018.066-.04.098-.06l.023-2.125.255 1.895c.233-.247.377-.572.377-.931l-.41-3.611zm-12.638.318a.648.648 0 0 1-.298-.075l-7.372-3.967v6.543h15.344v-6.543l-7.377 3.967a.631.631 0 0 1-.297.075z" mask="url(#b)"/>
    </g>
</svg>
