<svg xmlns="http://www.w3.org/2000/svg" viewBox="0 0 24 24">
    <g fill="none" fill-rule="evenodd">
        <path fill="#FFF" fill-rule="nonzero" d="M21 3h-1V1h-2v2H7V1H5v2H4c-1.1 0-2 .9-2 2v14c0 1.1.9 2 2 2h17c1.1 0 2-.9 2-2V5c0-1.1-.9-2-2-2zm.5 16.6H3.6V8h17.9v11.6z"/>
        <path d="M0 0L24 0 24 24 0 24z"/>
        <path fill="#FFF" fill-rule="nonzero" d="M5.9 10.2H8.4V12.7H5.9zM11.2 10.2H13.7V12.7H11.2zM16.6 10.2H19.1V12.7H16.6zM5.9 14.9H8.4V17.4H5.9zM11.2 14.9H13.7V17.4H11.2zM16.6 14.9H19.1V17.4H16.6z"/>
    </g>
</svg>
