<?xml version="1.0" encoding="UTF-8"?>
<svg width="64px" height="64px" viewBox="0 0 64 64" version="1.1" xmlns="http://www.w3.org/2000/svg" xmlns:xlink="http://www.w3.org/1999/xlink">
    <!-- Generator: sketchtool 48.2 (47327) - http://www.bohemiancoding.com/sketch -->
    <title>2198B3AF-4368-4C6E-9E48-F9DC0DD6F51C</title>
    <desc>Created with sketchtool.</desc>
    <defs></defs>
    <g id="ios" stroke="none" stroke-width="1" fill="none" fill-rule="evenodd" transform="translate(-36.000000, -10.000000)">
        <g id="Group-26">
            <g id="Group" transform="translate(36.000000, 10.000000)">
                <rect id="Rectangle-10" fill="#3532D5" transform="translate(32.000000, 32.000000) scale(1, -1) translate(-32.000000, -32.000000) " x="0" y="0" width="64" height="64" rx="15"></rect>
                <g id="Group-3" transform="translate(13.000000, 9.125000)">
                    <polygon id="Fill-1" fill="#0EAD91" transform="translate(19.406250, 36.593750) scale(-1, 1) translate(-19.406250, -36.593750) " points="0.75 33.6255132 19.5545108 45.8125 38.0625 36.59375 19.5545108 27.375"></polygon>
                    <polygon id="Fill-2" fill="#FFFFFF" transform="translate(19.031250, 33.062500) scale(-1, 1) translate(-19.031250, -33.062500) " points="20.8202519 24 0.6875 26.7966963 17.5385141 42.125 37.375 36.3628745"></polygon>
                    <polygon id="Fill-3" fill="#F49C20" transform="translate(18.031250, 29.687500) scale(-1, 1) translate(-18.031250, -29.687500) " points="21.2652781 21.0625 0.6875 23.1915402 14.7969251 38.3125 35.375 36.1831633"></polygon>
                    <polygon id="Fill-4" fill="#FFFFFF" transform="translate(16.500000, 25.031250) scale(-1, 1) translate(-16.500000, -25.031250) " points="21.0572549 15.635355 0.5 14.0625 11.9430408 34.4274417 32.5 36"></polygon>
                    <polygon id="Fill-5" fill="#F14D4D" transform="translate(14.468750, 22.125000) scale(-1, 1) translate(-14.468750, -22.125000) " points="20.3713823 13.7144568 0.375 8.5 8.5661177 30.5355432 28.5625 35.75"></polygon>
                    <polygon id="Fill-6" fill="#FFFFFF" transform="translate(11.875000, 19.750000) scale(-1, 1) translate(-11.875000, -19.750000) " points="18.9094094 12.51738 0.1875 3.8125 4.84059056 26.98262 23.5625 35.6875"></polygon>
                    <polygon id="Fill-7" fill="#3532D5" transform="translate(8.937500, 17.781250) scale(-1, 1) translate(-8.937500, -17.781250) " points="0 0 0.986321357 23.6443354 17.875 35.5625 16.8886786 11.9184614"></polygon>
                </g>
            </g>
        </g>
    </g>
</svg>