<svg xmlns="http://www.w3.org/2000/svg" width="32" height="32" viewBox="0 0 32 32">
    <g fill="none" fill-rule="evenodd">
        <path d="M5 5h21.955v23H5z"/>
        <path fill="#69687D" fill-rule="nonzero" d="M18.722 8.833v6.709H9.729l-.54.565-.53.556v-7.83h10.063zm.914-1.916H7.744c-.503 0-.914.43-.914.958v13.417l3.659-3.834h9.147c.503 0 .915-.43.915-.958V7.875c0-.527-.412-.958-.915-.958zm4.574 3.833h-1.83v8.625H10.49v1.917c0 .527.411.958.914.958h10.063l3.659 3.833V11.708c0-.527-.412-.958-.915-.958z"/>
    </g>
</svg>
