<svg xmlns="http://www.w3.org/2000/svg" viewBox="0 0 18 20">
    <g fill="none" fill-rule="evenodd">
        <path stroke="#41C4BC" stroke-width="1.5" d="M16.772 18H4.227C4.101 18 4 17.891 4 17.757V13.25c0-.135.101-.244.227-.244s.228.109.228.244v4.264h12.09V.488H4.455v4.678c0 .134-.102.243-.228.243S4 5.299 4 5.166V.244C4 .109 4.101 0 4.227 0h12.545c.126 0 .228.109.228.244v17.513c0 .134-.102.243-.228.243z" transform="translate(0 1)"/>
        <path fill="#41C4BC" d="M11.053 9.808H.568c-.134 0-.244-.11-.244-.246 0-.134.11-.244.244-.244h10.485c.135 0 .244.11.244.244 0 .136-.11.246-.244.246" transform="translate(0 1)"/>
        <path fill="#41C4BC" d="M11.115 9.507H.253C.113 9.507 0 9.28 0 9c0-.28.114-.506.253-.506h10.862c.14 0 .254.227.254.506 0 .281-.114.508-.254.508z" transform="translate(0 1)"/>
        <path fill="#41C4BC" d="M8.82 11.622c-.077 0-.153-.036-.2-.102-.079-.11-.053-.264.057-.342l2.267-1.616-2.267-1.615c-.11-.079-.136-.232-.057-.341.078-.11.232-.137.342-.058l2.546 1.815c.064.046.102.12.102.199 0 .08-.038.154-.102.2l-2.546 1.815c-.043.03-.094.045-.143.045" transform="translate(0 1)"/>
        <path stroke="#41C4BC" stroke-width=".75" d="M8.863 11.622c-.09 0-.18-.046-.235-.133-.093-.144-.062-.343.067-.446l2.673-2.106-2.673-2.105c-.13-.102-.16-.301-.067-.444.093-.143.274-.178.403-.076l3.002 2.366c.076.06.12.157.12.26 0 .103-.044.2-.12.26l-3.002 2.365c-.05.04-.11.059-.168.059z" transform="translate(0 1)"/>
    </g>
</svg>
