<svg xmlns="http://www.w3.org/2000/svg" viewBox="0 0 29 23">
    <g fill="none" fill-rule="evenodd" stroke="#43425D" stroke-linecap="round" stroke-linejoin="round" stroke-width="1.5">
        <path d="M21.903 5.312c0 1.868-1.56 3.38-3.484 3.38s-3.484-1.512-3.484-3.38v-1.93C14.935 1.513 16.495 0 18.42 0c1.925 0 3.484 1.514 3.484 3.381v1.931zM10.452 3.23c0 1.785-1.365 3.232-3.049 3.232S4.355 5.015 4.355 3.23C4.355 1.446 5.719 0 7.403 0s3.049 1.446 3.049 3.23zM11.323 10.921c-1.188-.774-2.644-1.229-4.226-1.229C3.59 9.692.67 11.943.02 14.915c-.143.648.458 1.239 1.19 1.239h5.886M18.29 11.308h0c-4.428 0-8.092 3.614-8.699 8.314-.093.727.432 1.378 1.098 1.378h15.203c.666 0 1.19-.65 1.097-1.378-.606-4.7-4.27-8.314-8.699-8.314z" transform="translate(1 1)"/>
    </g>
</svg>
