<svg xmlns="http://www.w3.org/2000/svg" viewBox="0 0 16 16">
    <path fill="#5BBDB7" fill-rule="evenodd" d="M8 14.415c-3.106 0-5.632-2.49-5.632-5.547C2.368 5.808 4.894 3.32 8 3.32c3.105 0 5.631 2.489 5.631 5.548 0 3.058-2.526 5.547-5.631 5.547zm0-12.68C4 1.736.759 4.929.759 8.869.759 12.806 4 16 7.999 16c4 0 7.242-3.194 7.242-7.132 0-3.94-3.243-7.132-7.241-7.132zM3.706 0l1.031 1.217L1.03 4.263 0 3.045 3.706 0zm8.587 0L16 3.046l-1.03 1.217-3.709-3.045L12.293 0zM6.825 10.08L5.111 8.39l-.853.841 2.559 2.52 4.827-4.754-.853-.84-3.966 3.921z"/>
</svg>
