<svg xmlns="http://www.w3.org/2000/svg" width="18" height="18" viewBox="0 0 18 18">
    <g fill="none" fill-rule="evenodd" stroke="#6F6E82" stroke-linecap="round" stroke-linejoin="round" stroke-width="1.5">
        <path d="M16.699 11.48c.395.247.395.753 0 1.001L9.7 16.878a.83.83 0 0 1-.861 0L1.842 12.48c-.396-.248-.396-.754 0-1.002"/>
        <path d="M1.842 8.732c-.395.248-.395.754 0 1.002l.687.432L8.84 14.13a.83.83 0 0 0 .861 0l6.31-3.964.688-.432c.396-.248.396-.754 0-1.002"/>
        <path d="M16.699 5.983L9.7 1.587a.828.828 0 0 0-.861 0L1.842 5.983c-.395.248-.396.754 0 1.002l.687.432 1.483.933 4.828 3.032a.83.83 0 0 0 .86 0l4.83-3.032 1.482-.933.687-.432c.395-.248.395-.754 0-1.002z"/>
    </g>
</svg>
