<svg xmlns="http://www.w3.org/2000/svg" width="18" height="16" viewBox="0 0 18 16">
    <g fill="none" fill-rule="evenodd">
        <path fill="#4452FC" fill-opacity="0" d="M1 0h16v16H1z"/>
        <path stroke="#6F6E82" stroke-linecap="round" stroke-linejoin="round" stroke-width="1.5" d="M13.439 4.947c0 1.203-.896 2.178-2 2.178-1.105 0-2-.975-2-2.178V3.703c0-1.203.895-2.178 2-2.178 1.104 0 2 .975 2 2.178v1.244zM7.772 3.625c0 .967-.746 1.75-1.667 1.75-.92 0-1.666-.783-1.666-1.75s.746-1.75 1.666-1.75c.92 0 1.667.783 1.667 1.75zM7.784 9.323a3.843 3.843 0 0 0-2.346-.798c-1.946 0-3.566 1.463-3.926 3.395-.08.42.254.805.66.805h3.266M11.439 9.225c-2.688 0-4.912 2.088-5.28 4.804-.057.42.262.796.666.796h9.228c.404 0 .722-.376.666-.796-.368-2.716-2.592-4.804-5.28-4.804z"/>
    </g>
</svg>