<?xml version="1.0" encoding="UTF-8"?>
<svg viewBox="0 0 16 18" version="1.1" xmlns="http://www.w3.org/2000/svg" xmlns:xlink="http://www.w3.org/1999/xlink">
    <g id="Breakpoints" stroke="none" stroke-width="1" fill="none" fill-rule="evenodd">
        <g id="Screen-1280" transform="translate(-1237.000000, -26.000000)" fill="#3293F6">
            <g id="Header-+-Search-bar" transform="translate(0.000000, -1.000000)">
                <g id="Notification" transform="translate(1237.000000, 20.000000)">
                    <path d="M15.0463699,19.5768116 C14.6859778,19.4416646 13.5147035,18.7659294 13.5147035,15.7701701 L13.5147035,14.4186998 C13.5147035,10.6796318 11.3974,9.41825947 9.66301302,8.99029385 C9.66301302,8.92272034 9.68553753,8.85514682 9.68553753,8.7875733 C9.68553753,6.40628254 6.08161659,6.40200288 6.08161659,8.7875733 C6.08161659,8.85514682 6.08161659,8.92272034 6.10414109,8.99029385 C4.36975414,9.41825947 2.25245059,10.6796318 2.25245059,14.4186998 L2.25245059,15.7701701 C2.25245059,18.7659294 1.08117628,19.4416646 0.720784188,19.5768116 C0.292818576,19.7344832 0,20.1624488 0,20.6354634 L0,21.6265416 C0,21.9193602 0.180196047,22.1671298 0.473014623,22.2572278 C0.540588141,22.2799776 2.2974996,22.8653895 5.31578339,23.0906345 C6.0741835,25.6185598 9.64679538,25.6467155 10.4738952,23.113159 C13.492179,22.887914 15.2490905,22.3022768 15.316664,22.2797523 C15.5869581,22.1896543 15.7896786,21.919135 15.7896786,21.6488409 L15.7896786,20.6352381 C15.7671541,20.1399243 15.4743355,19.7344832 15.0463699,19.5768116 Z" id="notification-icon"></path>
                </g>
            </g>
        </g>
    </g>
</svg>