<svg xmlns="http://www.w3.org/2000/svg" width="24" height="24" viewBox="0 0 24 24">
    <path fill="#FFF" fill-rule="nonzero" d="M22.995 13.918l-.72-.777c.084-.752.084-1.51 0-2.263l.72-.772c.43-.458 1.2-1.065.96-1.643l-.986-2.399c-.24-.578-1.219-.458-1.845-.48l-1.063-.038a10.372 10.372 0 0 0-1.592-1.598l-.034-1.063c-.019-.623.103-1.604-.48-1.844L15.557.045c-.576-.24-1.187.54-1.643.96l-.775.72a10.19 10.19 0 0 0-2.264 0l-.77-.72C9.649.578 9.04-.195 8.462.045l-2.399.986c-.578.24-.455 1.221-.48 1.845l-.038 1.06a10.373 10.373 0 0 0-1.6 1.595l-1.06.034c-.623.02-1.605-.103-1.844.48L.045 8.444c-.24.575.54 1.185.96 1.64l.72.775a10.194 10.194 0 0 0 0 2.265l-.72.772c-.427.456-1.2 1.063-.96 1.641l.986 2.399c.24.578 1.22.458 1.847.48l1.058.036c.472.59 1.008 1.128 1.597 1.602l.031 1.058c.02.624-.103 1.607.48 1.847l2.399.996c.575.24 1.185-.54 1.64-.96l.777-.72c.751.084 1.51.084 2.26 0l.772.72c.458.43 1.063 1.2 1.64.96l2.4-.986c.578-.24.458-1.219.48-1.847l.035-1.06a10.372 10.372 0 0 0 1.602-1.596l1.06-.034c.624-.019 1.608.104 1.848-.48l.995-2.398c.25-.566-.533-1.176-.957-1.636zm-10.971 3.766c-3.037 0-5.495-2.545-5.495-5.685 0-3.14 2.458-5.686 5.495-5.686 3.036 0 5.495 2.546 5.495 5.686s-2.459 5.685-5.495 5.685z"/>
</svg>
