<!-- Generated by IcoMoon.io -->
<svg version="1.1" xmlns="http://www.w3.org/2000/svg" width="69" height="32" viewBox="0 0 69 32">
<title>small-logo</title>
<path fill="#fff" d="M1.813 17.227c0.534 0.533 1.227 1.013 1.974 1.333 0.746 0.32 1.546 0.48 2.4 0.48h14.4c0.586 0 1.066 0.213 1.44 0.587 0.373 0.373 0.586 0.906 0.586 1.44v0.746c3.414-0.48 6.88-1.226 10.294-2.24v-0.533c0-0.004 0-0.009 0-0.014 0-1.703-0.693-3.245-1.813-4.358l-0-0c-0.554-0.549-1.209-0.998-1.933-1.318l-0.041-0.016c-0.747-0.32-1.547-0.48-2.4-0.48h-14.4c-0.012 0-0.025 0-0.039 0-0.548 0-1.044-0.224-1.401-0.586l-0-0c-0.363-0.371-0.587-0.879-0.587-1.44v-2.080c0-0.587 0.214-1.067 0.587-1.44 0.373-0.374 0.907-0.587 1.44-0.587h20.587v-6.187h-26.72c-0.854 0-1.654 0.16-2.4 0.48-0.8 0.32-1.44 0.8-1.974 1.334-0.548 0.554-0.997 1.208-1.317 1.932l-0.016 0.041c-0.32 0.747-0.48 1.547-0.48 2.4v6.187c0 0.853 0.16 1.653 0.48 2.4 0.32 0.746 0.8 1.386 1.333 1.92zM20.693 25.333h-20.693v6.187h26.773c0.004 0 0.009 0 0.014 0 1.703 0 3.245-0.693 4.358-1.813l0-0c0.534-0.534 1.014-1.227 1.334-1.974 0.32-0.746 0.48-1.546 0.48-2.4v-1.333c-4.16 0.853-8.267 1.28-12.267 1.333zM66.133 10.347c-0.554-0.549-1.208-0.998-1.932-1.318l-0.041-0.016c-0.326-0.139-0.718-0.267-1.122-0.363l-0.051-0.010c-2.364 2.133-4.96 4.118-7.709 5.884l-0.238 0.143h0.533c0.587 0 1.067 0.213 1.44 0.586 0.374 0.374 0.587 0.907 0.587 1.44v6.24c0 0.587-0.213 1.067-0.587 1.44-0.371 0.363-0.879 0.587-1.44 0.587h-8.213c-0.011 0-0.024 0-0.037 0-0.549 0-1.045-0.225-1.402-0.587l-0-0c-0.363-0.371-0.587-0.879-0.587-1.44v-3.093c-1.973 0.853-4 1.6-6.080 2.24-1.386 0.427-2.773 0.8-4.213 1.12v1.76c0 0.004-0 0.009-0 0.014 0 1.703 0.693 3.245 1.813 4.358l0 0c0.534 0.534 1.227 1.014 1.974 1.334 0.746 0.32 1.546 0.48 2.4 0.48h20.586c0.004 0 0.009 0 0.014 0 1.703 0 3.245-0.693 4.358-1.813l0-0c0.534-0.534 1.014-1.229 1.334-1.974 0.32-0.747 0.48-1.547 0.48-2.4v-10.24c0-0.853-0.16-1.653-0.48-2.4-0.427-0.747-0.853-1.387-1.387-1.973zM54.080 8.533h-6.72v4.534c2.347-1.387 4.64-2.88 6.72-4.534zM45.28 14.24v-13.92h-10.293v18.4c3.626-1.227 7.093-2.72 10.293-4.48z"></path>
</svg>
