<?xml version="1.0" encoding="UTF-8"?>
<svg viewBox="0 0 16 20" version="1.1" xmlns="http://www.w3.org/2000/svg" xmlns:xlink="http://www.w3.org/1999/xlink">
    <!-- Generator: sketchtool 46.2 (44496) - http://www.bohemiancoding.com/sketch -->
    <title>D7F01189-5218-4D56-9ED3-CB29BA00967E</title>
    <desc>Created with sketchtool.</desc>
    <defs></defs>
    <g id="Screen-641" stroke="none" stroke-width="1" fill="none" fill-rule="evenodd">
        <g id="Size-641-Copy-12" transform="translate(-28.000000, -382.000000)" fill="#FFFFFF">
            <g id="Group-2" transform="translate(17.000000, 78.000000)">
                <g id="Group-9">
                    <path d="M14.5517603,314.584172 C12.9567061,314.584172 11.6596063,315.860887 11.6596063,317.431624 C11.6596063,317.847316 12.002467,318.18555 12.4237929,318.18555 L21.6410243,318.18555 C22.0594405,318.18555 22.3993431,317.847316 22.3993431,317.431624 C22.3993431,315.860887 21.1023402,314.584172 19.5072376,314.584172 L14.5517603,314.584172 Z M11.9931074,321.33009 L21.9920808,321.33009 C22.2028892,321.33009 22.380139,321.496216 22.380139,321.707034 C22.380139,322.615623 21.6375327,323.348234 20.7166097,323.348234 L13.2746404,323.348234 C12.3566756,323.348234 11.6111111,322.615623 11.6111111,321.707034 C11.6111111,321.496216 11.7794378,321.33009 11.9931074,321.33009 Z M12.6397903,318.698703 L12.6397903,318.698703 L21.3573277,318.698703 C21.9231692,318.698703 22.3801875,319.149589 22.3801875,319.707807 C22.3801875,320.26899 21.9231692,320.722665 21.3573277,320.722665 L12.6397903,320.722665 C12.0739974,320.722665 11.6111111,320.266019 11.6111111,319.707807 C11.6111111,319.149589 12.0739974,318.698703 12.6397903,318.698703 Z M16.3886112,304.25 L16.3886112,304.25 L17.9227554,309.086641 L26.9166667,309.086641 L26.287636,315.013533 L25.852683,319.258639 L25.5118106,322.419254 C25.4575445,322.962626 24.9841833,323.381944 24.4183903,323.381944 L22.3668028,323.381944 C22.800301,322.966252 23.0780812,322.38196 23.0780812,321.746538 C23.0780812,321.396171 22.8965154,321.101322 22.6196081,320.917225 C22.8965154,320.617333 23.0780812,320.225812 23.0780812,319.786361 C23.0780812,319.293469 22.8451105,318.86572 22.5020073,318.556915 C22.8301255,318.310469 23.0663939,317.920933 23.0663939,317.466636 C23.0663939,315.545532 21.4751709,313.975451 19.5158697,313.975451 L17.546627,313.975451 L17.0351971,309.086641 L17.0939732,309.086641 L15.6362089,304.487782 L16.3886112,304.25 Z" id="Path-Copy-2"></path>
                </g>
            </g>
        </g>
    </g>
</svg>