<?xml version="1.0" encoding="UTF-8"?>
<svg viewBox="0 0 10 22" version="1.1" xmlns="http://www.w3.org/2000/svg" xmlns:xlink="http://www.w3.org/1999/xlink">
    <g id="Screen-641" stroke="none" stroke-width="1" fill="none" fill-rule="evenodd">
        <g id="Size-641-Copy-12" transform="translate(-31.000000, -292.000000)" fill-rule="nonzero" fill="#FFFFFF">
            <g id="Group-2" transform="translate(17.000000, 78.000000)">
                <g id="Group-9">
                    <path d="M18.8900222,218.117778 C19.9688184,218.117778 20.8433556,217.243241 20.8433556,216.164444 C20.8433556,215.085648 19.9688184,214.211111 18.8900222,214.211111 C17.811226,214.211111 16.9366889,215.085648 16.9366889,216.164444 C16.9366889,217.243241 17.811226,218.117778 18.8900222,218.117778 Z M15.0500222,227.362222 C14.6544667,227.362222 14.2544667,227.146667 14.25,226.706667 L14.2588889,220.591111 C14.2166889,219.604444 14.7633556,219.011111 15.6166889,219.011111 L17.0789111,219.011111 C17.2966889,219.011111 17.4922222,219.137778 17.5833556,219.335556 L18.3366667,220.977778 L18.6566667,221.677778 C18.7011111,221.775556 18.7944667,221.824444 18.8855556,221.824444 C18.9766444,221.824444 19.07,221.775556 19.1144444,221.677778 L19.4344444,220.977778 L20.1877333,219.335556 C20.2788667,219.137778 20.4744,219.011111 20.6922,219.011111 L22.1544,219.011111 C23.0077556,219.011111 23.5544,219.604444 23.5122222,220.591111 L23.5210667,226.706667 C23.5210667,226.973333 23.3722,227.16 23.1655111,227.262222 L23.1655111,227.444444 L23.1655111,227.622222 L23.1655111,228.042222 L23.3655111,228.042222 C23.6055333,228.042222 23.7988444,228.235556 23.7988444,228.475556 L23.7988444,232.142222 C23.7988444,232.382244 23.6055333,232.575556 23.3655111,232.575556 L22.0766222,232.575556 C21.8366444,232.575556 21.6432889,232.382244 21.6432889,232.142222 L21.6432889,228.475556 C21.6432889,228.235556 21.8366444,228.042222 22.0766222,228.042222 L22.2766222,228.042222 L22.2766222,227.617778 L22.2766222,227.44 L22.2766222,227.255556 C22.0855333,227.155556 21.9499778,226.984444 21.9499778,226.74 L21.9410889,221.891111 L21.3077556,221.886667 L21.2877556,234.38 C21.2877556,235.008867 20.7566667,235.322222 20.2255556,235.322222 C19.6922222,235.322222 19.1588889,235.006644 19.1588889,234.375533 L19.1588889,228.197756 L18.6166667,228.197756 L18.6166667,234.375533 C18.6166667,235.006667 18.0833333,235.322222 17.55,235.322222 C17.0188667,235.322222 16.4877556,235.006667 16.4877556,234.38 L16.4677778,221.886667 L15.8344444,221.884444 L15.8255556,226.742222 C15.8255556,227.153333 15.4389111,227.362222 15.0500222,227.362222 Z M19.3166667,219.011111 C19.4544444,219.011111 19.5433333,219.153333 19.4855333,219.275556 L19.0566667,220.175556 L19.2522,220.584444 L18.89,221.375556 L18.5277778,220.584444 L18.7233333,220.175556 L18.2944444,219.275556 C18.2344444,219.153333 18.3255333,219.011111 18.4611111,219.011111 L19.3166667,219.011111 Z" id="Shape-Copy-13"></path>
                </g>
            </g>
        </g>
    </g>
</svg>