<?xml version="1.0" encoding="UTF-8"?>
<svg width="16px" height="18px" viewBox="0 0 16 18" version="1.1" xmlns="http://www.w3.org/2000/svg" xmlns:xlink="http://www.w3.org/1999/xlink">
    <g id="Eidan-" stroke="none" stroke-width="1" fill="none" fill-rule="evenodd">
        <g id="Side-bar" transform="translate(-32.000000, -759.000000)" fill-rule="nonzero" fill="#FFFFFF">
            <g transform="translate(0.000000, -2.000000)" id="My-Courses">
                <g transform="translate(24.000000, 753.000000)">
                    <path d="M22.5,8.5 L11.5,8.5 C10.6715729,8.5 10,9.21354618 10,10.09375 L10,11.6875 L9,11.6875 C8.44771525,11.6875 8,12.1631975 8,12.75 C8,13.3368025 8.44771525,13.8125 9,13.8125 L10,13.8125 L10,15.9375 L9,15.9375 C8.44771525,15.9375 8,16.4131975 8,17 C8,17.5868025 8.44771525,18.0625 9,18.0625 L10,18.0625 L10,20.1875 L9,20.1875 C8.44771525,20.1875 8,20.6631975 8,21.25 C8,21.8368025 8.44771525,22.3125 9,22.3125 L10,22.3125 L10,23.90625 C10,24.7864538 10.6715729,25.5 11.5,25.5 L22.5,25.5 C23.3284271,25.5 24,24.7864538 24,23.90625 L24,10.09375 C24,9.21354618 23.3284271,8.5 22.5,8.5 Z M19.5,17.796875 L14.5,17.796875 C13.9477153,17.796875 13.5,17.3211775 13.5,16.734375 C13.5,16.1475725 13.9477153,15.671875 14.5,15.671875 L19.5,15.671875 C20.0522847,15.671875 20.5,16.1475725 20.5,16.734375 C20.5,17.3211775 20.0522847,17.796875 19.5,17.796875 Z M19.5,13.8125 L14.5,13.8125 C13.9477153,13.8125 13.5,13.3368025 13.5,12.75 C13.5,12.1631975 13.9477153,11.6875 14.5,11.6875 L19.5,11.6875 C20.0522847,11.6875 20.5,12.1631975 20.5,12.75 C20.5,13.3368025 20.0522847,13.8125 19.5,13.8125 Z" id="My-courses-icon"></path>
                </g>
            </g>
        </g>
    </g>
</svg>