<?xml version="1.0" encoding="UTF-8"?>
<svg viewBox="0 0 15 16" version="1.1" xmlns="http://www.w3.org/2000/svg" xmlns:xlink="http://www.w3.org/1999/xlink">
    <g stroke="none" stroke-width="1" fill="none" fill-rule="evenodd">
        <g transform="translate(-33.000000, -526.000000)" fill-rule="nonzero" fill="#FFFFFF">
            <g transform="translate(0.000000, -2.000000)" id="Post-to-Class">
                <g transform="translate(24.000000, 519.000000)">
                    <g id="Post-to-Class-icon" transform="translate(9.263158, 8.947368)">
                        <path d="M14.1251292,2.15851196 C14.3795598,1.88887081 14.3795598,1.4505311 14.1251292,1.18019856 L13.2050144,0.202576555 C12.9505837,-0.0677559809 12.5386794,-0.0677559809 12.2848995,0.202576555 L11.3647847,1.18019856 L13.2050144,3.13613397 L14.1251292,2.15851196 Z" id="Shape"></path>
                        <path d="M0,2.76555024 L0,13.8277512 C0,14.5910431 0.582392344,15.2105263 1.30143541,15.2105263 L11.7129187,15.2105263 C12.431311,15.2105263 13.0143541,14.5910431 13.0143541,13.8277512 L13.0143541,4.29489952 L11.7129187,5.67767464 L11.7129187,13.8277512 L1.30143541,13.8277512 L1.30143541,2.76555024 L8.93240191,2.76555024 L10.2338373,1.38277512 L1.30143541,1.38277512 C0.582392344,1.38277512 0,2.00225837 0,2.76555024 Z" id="Shape"></path>
                        <rect id="Rectangle-path" transform="translate(8.603564, 6.069697) rotate(-45.000000) translate(-8.603564, -6.069697) " x="4.04825844" y="4.68693523" width="9.11061119" height="2.76552372"></rect>
                        <polygon id="Shape" points="2.62174163 12.4249258 5.84214354 10.9584928 4.00191388 9.00255742"></polygon>
                    </g>
                </g>
            </g>
        </g>
    </g>
</svg>