<?xml version="1.0" encoding="UTF-8"?>
<svg width="14px" height="17px" viewBox="0 0 14 17" version="1.1" xmlns="http://www.w3.org/2000/svg" xmlns:xlink="http://www.w3.org/1999/xlink">
    <g id="Eidan-" stroke="none" stroke-width="1" fill="none" fill-rule="evenodd">
        <g id="Side-bar" transform="translate(-33.000000, -477.000000)" fill-rule="nonzero" fill="#FFFFFF">
            <g transform="translate(0.000000, -2.000000)" id="Upload-Content">
                <g transform="translate(24.000000, 471.000000)">
                    <g id="Upload-Content-icon" transform="translate(9.263158, 8.052632)">
                        <path d="M7.51792525,11.5356217 L7.51792525,2.88390542 L9.45110603,4.79267735 L10.5250953,3.58932113 L7.26407323,0.352707857 C6.97116705,0.0622425629 6.50251716,0.0622425629 6.19008391,0.352707857 L2.94858886,3.58932113 L4.02257818,4.79267735 L5.95575896,2.88390542 L5.95575896,11.5356217 L7.51792525,11.5356217 L7.51792525,11.5356217 Z" id="Shape"></path>
                        <path d="M0.0390541571,6.84668192 L0.0390541571,15.4154081 C0.0390541571,16.2245614 0.644393593,16.8677346 1.40594966,16.8677346 L12.0677346,16.8677346 C12.8292906,16.8677346 13.4346301,16.2245614 13.4346301,15.4154081 L13.4346301,6.84668192 C13.4346301,6.0375286 12.8292906,5.39435545 12.0677346,5.39435545 L9.4706331,5.39435545 L9.4706331,7.05415713 L11.8724638,7.05415713 L11.8724638,15.2079329 L1.60122044,15.2079329 L1.60122044,7.05415713 L4.00305111,7.05415713 L4.00305111,5.39435545 L1.40594966,5.39435545 C0.644393593,5.39435545 0.0390541571,6.0375286 0.0390541571,6.84668192 Z" id="Shape"></path>
                    </g>
                </g>
            </g>
        </g>
    </g>
</svg>