<svg xmlns="http://www.w3.org/2000/svg" xmlns:xlink="http://www.w3.org/1999/xlink" width="21" height="12" viewBox="0 0 21 12">
    <defs>
        <path id="a" d="M0 0h11.875v11.254H0z"/>
        <path id="c" d="M0 0h11.875v11.254H0z"/>
    </defs>
    <g fill="none" fill-rule="evenodd">
        <g>
            <mask id="b" fill="#fff">
                <use xlink:href="#a"/>
            </mask>
            <path fill="#85B8F4" d="M11.875 0s-3.29 2.52-8.08 8.832c0 0-.685-.946-1.28-1.637C1.793 6.35.588 5.383.043 5.909c-.223.213.451 1.017 1.349 2.373.722 1.092 1.114 1.812 1.793 2.662.326.405 1.101.605 1.857-.639C6.81 7.406 8.417 4.515 11.875 0" mask="url(#b)"/>
        </g>
        <g transform="translate(9)">
            <mask id="d" fill="#fff">
                <use xlink:href="#c"/>
            </mask>
            <path fill="#85B8F4" d="M11.875 0s-3.29 2.52-8.08 8.832c0 0-.685-.946-1.28-1.637C1.793 6.35.588 5.383.043 5.909c-.223.213.451 1.017 1.349 2.373.722 1.092 1.114 1.812 1.793 2.662.326.405 1.101.605 1.857-.639C6.81 7.406 8.417 4.515 11.875 0" mask="url(#d)"/>
        </g>
    </g>
</svg>
