<?xml version="1.0" encoding="utf-8"?>
<!-- Generator: Adobe Illustrator 19.1.0, SVG Export Plug-In . SVG Version: 6.00 Build 0)  -->
<svg version="1.1" id="Capa_1" xmlns="http://www.w3.org/2000/svg" xmlns:xlink="http://www.w3.org/1999/xlink" x="0px" y="0px"
	 viewBox="-308.8 -40 490 436" style="enable-background:new -308.8 -40 490 436;" xml:space="preserve">
<g>
	<g>
		<path d="M-28.3,245.1c14.8-11.8,3.4-66.7-3.6-85.6l-3.9-9.1c-2.5-6.1-6.3-10.3-12.4-13c-14.3-6.3-26.3-11.8-38-17
			c-14.2-6.4-27.6-12.4-44.6-19.9c-5.4-2.4-11-3.6-16.6-3.6c-17.7,0-32.4,11.4-40.3,17.5c0,0-69.5,56.2-83.3,60.3
			c-13.9,4.2-29.4,4.9-37.9,5V265c29.4,1,50,9.8,66.8,17c4.4,1.9,8.5,3.6,12.4,5.1c8.6,3.2,19.3,4.8,32.8,4.8
			c5.2,0,10.8-0.2,16.9-0.7c1.1,1.6,2.4,3,3.9,4.1c3,2.3,6.6,3.4,10.3,3.4c6.6,0,12-4.5,15.7-8.8l0.6,2.2c1.1,3.6,3.2,6.7,6.2,9
			c3,2.3,6.6,3.4,10.3,3.4c12.9,0,21.3-17.2,21.3-17.2s1.9,14.5,9.1,19.8c3,2.2,6.6,3.4,10.3,3.4c5.5,0,10.3-2.7,13.8-6.9
			c19.9-24.3,27.9-64.3,27.9-64.3S-36.3,251.5-28.3,245.1z M-79.3,189.8l14,4.7l10.1,29.8L-79.3,189.8z"/>
		<path d="M-213.8,24.7c-1.1,1.6-1.9,3.4-2.3,5.5c-3.9,19.3,24,59.9,27.2,64.5c1.6,2.3,4.7,2.9,7,1.4c0.1-0.1,0.2-0.1,0.2-0.2
			c2.4-1.7,2.9-4.9,1.3-7.3c-9.7-13.8-23.7-38-25.5-51.4l35.3,56.6c6.9-2.9,14.7-5.6,23.2-5.6c6.4,0,12.7,1.8,18.8,4.2l-57.6-92.3
			c-1.5-2.4-4.7-3.2-7.2-1.7l-22,13.7c-2.4,1.5-3.2,4.7-1.7,7.2L-213.8,24.7z"/>
		<path d="M-1.6,315l-14-47c-0.1-0.4-0.3-0.9-0.6-1.3l-8.7-14c-1.7,0.4-3.4,0.6-5.1,0.7c-0.6,0-1.3,0-1.9,0c-4.9,0-9.5-1-13.7-3
			c-2,6.8-4.8,15.2-8.6,23.9L-47,286c0.2,0.4,0.5,0.8,0.9,1.1l36,33.3c1.7,1.6,4.3,1.8,6.3,0.6C-1.8,319.6-0.9,317.2-1.6,315z"/>
	</g>
</g>
<path d="M169.2-40h-309c-6.6,0-12,5.4-12,12v64.7l36.9,59.1c11.3,5,21.2,9.5,31.6,14.2H139c6.6,0,12,5.4,12,12v15.4
	c0,6.6-5.4,12-12,12H-25.7l2.3,5.3l0.1,0.2c3.7,9.9,8.5,29.1,10.5,47.8c0.1,0.7,0.1,1.4,0.2,2.1H139c6.6,0,12,5.4,12,12v15.4
	c0,6.6-5.4,12-12,12H-16.8c-0.2,0.5-0.5,0.9-0.8,1.4l9.2,14.7c0.7,1.1,1.3,2.4,1.7,3.7l10.7,35.8H139c6.6,0,12,5.4,12,12v15.4
	c0,6.6-5.4,12-12,12H2.6c-5.4,0-10.1-3.7-11.5-8.7c-3.3-0.3-6.3-1.7-8.7-4l-36-33.3c-1-0.9-1.9-2-2.6-3.2l-1.6-2.5
	c-3.8,7.5-8.3,14.9-13.6,21.4c-5.6,6.8-13.2,10.6-21.5,10.6c-5.8,0-11.4-1.9-16.2-5.4c-2.8-2-5-4.7-6.7-7.6
	c-4.7,3.8-10.6,6.9-17.8,6.9c-5.9,0-11.6-1.9-16.3-5.4c-0.6-0.5-1.2-1-1.8-1.5V384c0,6.6,5.4,12,12,12h309c6.6,0,12-5.4,12-12V-28
	C181.2-34.6,175.8-40,169.2-40z M151,42.5c0,6.6-5.4,12-12,12h-246c-6.6,0-12-5.4-12-12V27.1c0-6.6,5.4-12,12-12h246
	c6.6,0,12,5.4,12,12V42.5z"/>
</svg>
