<svg xmlns="http://www.w3.org/2000/svg" style="display: none;">
    <symbol id="hand214" viewBox="-308.8 -40 490 436" style="enable-background:new -308.8 -40 490 436;">
        <g>
            <g>
                <path d="M-28.3,245.1c14.8-11.8,3.4-66.7-3.6-85.6l-3.9-9.1c-2.5-6.1-6.3-10.3-12.4-13c-14.3-6.3-26.3-11.8-38-17
			c-14.2-6.4-27.6-12.4-44.6-19.9c-5.4-2.4-11-3.6-16.6-3.6c-17.7,0-32.4,11.4-40.3,17.5c0,0-69.5,56.2-83.3,60.3
			c-13.9,4.2-29.4,4.9-37.9,5V265c29.4,1,50,9.8,66.8,17c4.4,1.9,8.5,3.6,12.4,5.1c8.6,3.2,19.3,4.8,32.8,4.8
			c5.2,0,10.8-0.2,16.9-0.7c1.1,1.6,2.4,3,3.9,4.1c3,2.3,6.6,3.4,10.3,3.4c6.6,0,12-4.5,15.7-8.8l0.6,2.2c1.1,3.6,3.2,6.7,6.2,9
			c3,2.3,6.6,3.4,10.3,3.4c12.9,0,21.3-17.2,21.3-17.2s1.9,14.5,9.1,19.8c3,2.2,6.6,3.4,10.3,3.4c5.5,0,10.3-2.7,13.8-6.9
			c19.9-24.3,27.9-64.3,27.9-64.3S-36.3,251.5-28.3,245.1z M-79.3,189.8l14,4.7l10.1,29.8L-79.3,189.8z" />
                <path d="M-213.8,24.7c-1.1,1.6-1.9,3.4-2.3,5.5c-3.9,19.3,24,59.9,27.2,64.5c1.6,2.3,4.7,2.9,7,1.4c0.1-0.1,0.2-0.1,0.2-0.2
			c2.4-1.7,2.9-4.9,1.3-7.3c-9.7-13.8-23.7-38-25.5-51.4l35.3,56.6c6.9-2.9,14.7-5.6,23.2-5.6c6.4,0,12.7,1.8,18.8,4.2l-57.6-92.3
			c-1.5-2.4-4.7-3.2-7.2-1.7l-22,13.7c-2.4,1.5-3.2,4.7-1.7,7.2L-213.8,24.7z" />
                <path d="M-1.6,315l-14-47c-0.1-0.4-0.3-0.9-0.6-1.3l-8.7-14c-1.7,0.4-3.4,0.6-5.1,0.7c-0.6,0-1.3,0-1.9,0c-4.9,0-9.5-1-13.7-3
			c-2,6.8-4.8,15.2-8.6,23.9L-47,286c0.2,0.4,0.5,0.8,0.9,1.1l36,33.3c1.7,1.6,4.3,1.8,6.3,0.6C-1.8,319.6-0.9,317.2-1.6,315z" />
            </g>
        </g>
        <path d="M169.2-40h-309c-6.6,0-12,5.4-12,12v64.7l36.9,59.1c11.3,5,21.2,9.5,31.6,14.2H139c6.6,0,12,5.4,12,12v15.4
	c0,6.6-5.4,12-12,12H-25.7l2.3,5.3l0.1,0.2c3.7,9.9,8.5,29.1,10.5,47.8c0.1,0.7,0.1,1.4,0.2,2.1H139c6.6,0,12,5.4,12,12v15.4
	c0,6.6-5.4,12-12,12H-16.8c-0.2,0.5-0.5,0.9-0.8,1.4l9.2,14.7c0.7,1.1,1.3,2.4,1.7,3.7l10.7,35.8H139c6.6,0,12,5.4,12,12v15.4
	c0,6.6-5.4,12-12,12H2.6c-5.4,0-10.1-3.7-11.5-8.7c-3.3-0.3-6.3-1.7-8.7-4l-36-33.3c-1-0.9-1.9-2-2.6-3.2l-1.6-2.5
	c-3.8,7.5-8.3,14.9-13.6,21.4c-5.6,6.8-13.2,10.6-21.5,10.6c-5.8,0-11.4-1.9-16.2-5.4c-2.8-2-5-4.7-6.7-7.6
	c-4.7,3.8-10.6,6.9-17.8,6.9c-5.9,0-11.6-1.9-16.3-5.4c-0.6-0.5-1.2-1-1.8-1.5V384c0,6.6,5.4,12,12,12h309c6.6,0,12-5.4,12-12V-28
	C181.2-34.6,175.8-40,169.2-40z M151,42.5c0,6.6-5.4,12-12,12h-246c-6.6,0-12-5.4-12-12V27.1c0-6.6,5.4-12,12-12h246
	c6.6,0,12,5.4,12,12V42.5z" />
    </symbol>
    <symbol id="social-network" viewBox="-469.8 237 140.8 88" style="enable-background:new -469.8 237 140.8 88;">
        <style type="text/css">
            .st0 {
                fill: #030104;
            }
        </style>
        <g>
            <g>
                <path class="st0" d="M-433.1,284.7c0-3.4,2.3-2.3,3.3-8.4c0.4-2.6,2.4,0,2.8-5.9c0-2.3-1.1-2.9-1.1-2.9s0.6-3.4,0.8-6.1
			c0.3-3.3-1.7-11.8-12-11.8c-10.3,0-12.2,8.5-12,11.8c0.2,2.6,0.8,6.1,0.8,6.1s-1.1,0.6-1.1,2.9c0.4,5.8,2.4,3.3,2.8,5.9
			c1,6.2,3.3,5.1,3.3,8.4c0,5.6-2.4,8.2-9.8,11.3c-7.4,3.1-11.4,5.1-13.2,8c-1.2,2-1.4,20.9-1.4,20.9h22.5v-14.9
			c0-7.3,2.2-8.9,18.4-17C-432,291-433.1,288.6-433.1,284.7z" />
                <path class="st0" d="M-377.9,298.9c-9.9-4.1-13.1-7.6-13.1-15.1c0-4.5,3-3,4.3-11.2c0.5-3.4,3.2-0.1,3.7-7.8
			c0-3.1-1.5-3.9-1.5-3.9s0.7-4.6,1-8.1c0.4-4.4-2.2-15.8-15.9-15.8c0,0,0,0,0,0s0,0,0,0c-13.7,0-16.3,11.4-15.9,15.8
			c0.3,3.5,1,8.1,1,8.1s-1.5,0.8-1.5,3.9c0.5,7.8,3.2,4.4,3.7,7.8c1.3,8.2,4.3,6.7,4.3,11.2c0,7.5-3.2,11-13.1,15.1
			c-9.9,4.1-18.4,8.2-18.4,12.5c0,2.9,0,13.7,0,13.7h10h59.5h10c0,0,0-10.8,0-13.7C-359.5,307.1-368,303-377.9,298.9z" />
                <path class="st0" d="M-329,325c0,0-0.2-18.9-1.4-20.9c-1.7-2.9-5.7-4.9-13.2-8c-7.4-3.1-9.8-5.7-9.8-11.3c0-3.4,2.3-2.3,3.3-8.4
			c0.4-2.6,2.4,0,2.8-5.9c0-2.3-1.1-2.9-1.1-2.9s0.6-3.4,0.8-6.1c0.3-3.3-1.7-11.8-12-11.8c-10.3,0-12.2,8.5-12,11.8
			c0.2,2.6,0.8,6.1,0.8,6.1s-1.1,0.6-1.1,2.9c0.4,5.8,2.4,3.3,2.8,5.9c1,6.2,3.3,5.1,3.3,8.4c0,3.8-1.1,6.2-4.1,8.4
			c16.2,8.1,18.4,9.8,18.4,17V325H-329z" />
            </g>
        </g>
    </symbol>
    <symbol id="speech" viewBox="0 0 554.962 554.962" style="enable-background:new 0 0 554.962 554.962;">
        <g>
            <g>
                <path d="M530.5,148.633H404.826v162.155c0,23.611-19.211,42.822-42.822,42.822H168.49v54.297
			c0,13.506,10.949,24.461,24.461,24.461h190.118l79.443,66.354c10.367,8.66,15.942,5.098,12.454-7.949l-15.521-58.012
			c-0.036-0.135-0.109-0.258-0.146-0.393h71.2c13.507,0,24.462-10.949,24.462-24.461V173.088
			C554.955,159.582,544.007,148.633,530.5,148.633z" />
                <path d="M24.461,335.243h37.394c-0.037,0.135-0.11,0.258-0.147,0.393l-15.521,58.012c-2.203,8.225-0.795,12.68,3.134,12.68
			c2.307,0,5.483-1.529,9.314-4.73l79.444-66.354h30.417h193.515c13.507,0,24.461-10.947,24.461-24.461V148.633V75.97
			c0-13.507-10.948-24.461-24.461-24.461H24.461C10.955,51.509,0,62.458,0,75.97v234.812C0,324.296,10.949,335.243,24.461,335.243z" />
            </g>
        </g>

    </symbol>
    <symbol id="web" viewBox="-552.1 211.4 386.6 303.8" style="enable-background:new -552.1 211.4 386.6 303.8;">
        <g>
            <path d="M-257.6,495.9h-43.2c-1.6,0-2.8-1.3-2.8-2.8v-10.5c0-1.6-1.3-2.8-2.8-2.8h-60.5c-1.6,0-2.8,1.3-2.8,2.8v10.5
		c0,1.6-1.3,2.8-2.8,2.8H-405c-1.6,0-2.8,1.3-2.8,2.8v12.2c0,1.6,1.3,2.8,2.8,2.8h147.4c1.6,0,2.8-1.3,2.8-2.8v-12.2
		C-254.7,497.2-256,495.9-257.6,495.9z" />
            <g>
                <path d="M-185,211.4h-308.4c-10.7,0-19.5,8.7-19.5,19.5c0,0,0,37.1,0,50.8c0,6.7-0.5,7.7,4,7.7c2.4,0,5,0,7.7,0c3.8,0,3-0.9,3-7.8
			c0-13.6,0-50.6,0-50.6c0-2.6,2.2-4.7,4.7-4.7H-185c2.6,0,4.7,2.2,4.7,4.7v190h-229.9c0,0-7.7,0-7.7,10c0,5.9,0,17.8,0,23.8
			c0,10,8,10,8,10H-185c10.7,0,19.5-8.7,19.5-19.5V230.8C-165.5,220.1-174.2,211.4-185,211.4z M-339.2,447.8c-4.8,0-8.8-3.9-8.8-8.8
			s3.9-8.8,8.8-8.8c4.8,0,8.8,3.9,8.8,8.8S-334.3,447.8-339.2,447.8z" />
                <path d="M-447.9,306.6h-91.6c-6.9,0-12.6,5.6-12.6,12.6v183.4c0,6.9,5.6,12.6,12.6,12.6h91.6c6.9,0,12.6-5.6,12.6-12.6V319.2
			C-435.3,312.3-441,306.6-447.9,306.6z M-507.4,319.4h27.5c1.3,0,2.4,1.1,2.4,2.4s-1.1,2.4-2.4,2.4h-27.5c-1.3,0-2.4-1.1-2.4-2.4
			C-509.8,320.5-508.7,319.4-507.4,319.4z M-493.8,506.3c-3.6,0-6.5-2.9-6.5-6.5s2.9-6.5,6.5-6.5c3.6,0,6.5,2.9,6.5,6.5
			S-490.2,506.3-493.8,506.3z M-446.1,487.2c0,1.7-1.3,3-3,3h-89.1c-1.6,0-3-1.4-3-3V334.8c0-1.7,1.3-3,3-3h89.1c1.6,0,3,1.4,3,3
			V487.2z" />
            </g>
        </g>
    </symbol>
    <symbol id="checkmark" viewBox="0 0 97.619 97.618">
        <g>
            <path d="M96.939,17.358L83.968,5.959c-0.398-0.352-0.927-0.531-1.449-0.494C81.99,5.5,81.496,5.743,81.146,6.142L34.1,59.688
		L17.372,37.547c-0.319-0.422-0.794-0.701-1.319-0.773c-0.524-0.078-1.059,0.064-1.481,0.385L0.794,47.567
		c-0.881,0.666-1.056,1.92-0.39,2.801l30.974,40.996c0.362,0.479,0.922,0.771,1.522,0.793c0.024,0,0.049,0,0.073,0
		c0.574,0,1.122-0.246,1.503-0.68l62.644-71.297C97.85,19.351,97.769,18.086,96.939,17.358z" />
        </g>
    </symbol>
    <symbol id="up" viewBox="0 0 98.148 98.149">
        <g>
            <path d="M97.562,64.692L50.49,17.618c-0.75-0.75-2.078-0.75-2.828,0L0.586,64.693C0.211,65.068,0,65.577,0,66.106
		c0,0.53,0.211,1.039,0.586,1.414l12.987,12.987c0.391,0.391,0.902,0.586,1.414,0.586c0.512,0,1.023-0.195,1.414-0.586
		l32.674-32.674L81.75,80.506c0.75,0.751,2.078,0.75,2.828,0l12.984-12.987C98.344,66.739,98.344,65.472,97.562,64.692z" />
        </g>
    </symbol>
    <symbol id="apple" viewBox="0 0 512 512">
        <g>
            <path d="M395.748,272.046c-0.646-64.841,52.88-95.938,55.271-97.483c-30.075-44.01-76.925-50.039-93.62-50.736
		c-39.871-4.037-77.798,23.474-98.033,23.474c-20.184,0-51.409-22.877-84.476-22.276c-43.458,0.646-83.529,25.269-105.906,64.19
		c-45.152,78.35-11.563,194.42,32.445,257.963c21.504,31.104,47.146,66.038,80.813,64.79c32.421-1.294,44.681-20.979,83.878-20.979
		c39.196,0,50.215,20.979,84.524,20.335c34.888-0.648,56.991-31.699,78.347-62.898c24.694-36.084,34.862-71.019,35.462-72.812
		C463.678,375.26,396.422,349.495,395.748,272.046z M331.28,81.761C349.149,60.082,361.21,30.005,357.92,0
		c-25.739,1.048-56.938,17.145-75.405,38.775c-16.57,19.188-31.075,49.813-27.188,79.218
		C284.061,120.235,313.392,103.391,331.28,81.761z" />
        </g>
    </symbol>
    <symbol id="android" viewBox="0 0 505.145 505.145">
        <g>
            <path style="fill:#010002;" d="M68.541,164.715h-1.294c-16.588,0-30.113,13.568-30.113,30.113v131.107
				c0,16.61,13.525,30.134,30.113,30.134h1.316c16.588,0,30.113-13.568,30.113-30.134V194.827
				C98.654,178.283,85.108,164.715,68.541,164.715z" />
            <path style="fill:#010002;" d="M113.085,376.54c0,15.229,12.446,27.632,27.675,27.632h29.574v70.817
				c0,16.631,13.568,30.156,30.113,30.156h1.294c16.61,0,30.156-13.546,30.156-30.156v-70.817h41.33v70.817
				c0,16.631,13.611,30.156,30.156,30.156h1.273c16.609,0,30.134-13.546,30.134-30.156v-70.817h29.595
				c15.207,0,27.654-12.403,27.654-27.632V169.525H113.085V376.54z" />
            <path style="fill:#010002;" d="M322.041,43.983l23.491-36.26c1.51-2.287,0.841-5.414-1.467-6.903
				c-2.286-1.51-5.414-0.884-6.903,1.467l-24.353,37.512c-18.27-7.485-38.676-11.691-60.226-11.691
				c-21.571,0-41.934,4.206-60.247,11.691l-24.31-37.512c-1.488-2.351-4.638-2.977-6.946-1.467
				c-2.308,1.488-2.977,4.616-1.467,6.903l23.512,36.26c-42.387,20.773-70.968,59.924-70.968,104.834
				c0,2.761,0.173,5.479,0.41,8.175h280.053c0.237-2.696,0.388-5.414,0.388-8.175C393.009,103.907,364.406,64.756,322.041,43.983z
				 M187.655,108.911c-7.442,0-13.482-5.997-13.482-13.46c0-7.463,6.04-13.439,13.482-13.439c7.485,0,13.482,5.975,13.482,13.439
				S195.097,108.911,187.655,108.911z M317.49,108.911c-7.442,0-13.482-5.997-13.482-13.46c0-7.463,6.04-13.439,13.482-13.439
				c7.463,0,13.46,5.975,13.46,13.439C330.95,102.914,324.953,108.911,317.49,108.911z" />
            <path style="fill:#010002;" d="M437.876,164.715h-1.251c-16.588,0-30.156,13.568-30.156,30.113v131.107
				c0,16.61,13.59,30.134,30.156,30.134h1.273c16.609,0,30.113-13.568,30.113-30.134V194.827
				C468.011,178.283,454.464,164.715,437.876,164.715z" />
        </g>

    </symbol>
    <symbol id="magnifyGlass" viewBox="0 0 339.921 339.921">
        <g>
            <path style="fill:#010002;" d="M335.165,292.071l-81.385-84.077c-5.836-6.032-13.13-8.447-16.29-5.363
		c-3.171,3.062-10.47,0.653-16.306-5.379l-1.164-1.207c36.425-47.907,32.89-116.499-10.851-160.24
		c-47.739-47.739-125.142-47.739-172.875,0c-47.739,47.739-47.739,125.131,0,172.87c44.486,44.492,114.699,47.472,162.704,9.045
		l0.511,0.533c5.825,6.032,7.995,13.402,4.814,16.469c-3.166,3.068-1.012,10.443,4.83,16.464l81.341,84.11
		c5.836,6.016,15.452,6.195,21.49,0.354l22.828-22.088C340.827,307.735,340.99,298.125,335.165,292.071z M182.306,181.81
		c-32.852,32.857-86.312,32.857-119.159,0.011c-32.852-32.852-32.847-86.318,0-119.164c32.847-32.852,86.307-32.847,119.148,0.005
		C215.152,95.509,215.152,148.964,182.306,181.81z" />
        </g>
    </symbol>
    <symbol id="xClose" viewBox="0 0 95.939 95.939">
<g>
    <path d="M62.819,47.97l32.533-32.534c0.781-0.781,0.781-2.047,0-2.828L83.333,0.586C82.958,0.211,82.448,0,81.919,0
		c-0.53,0-1.039,0.211-1.414,0.586L47.97,33.121L15.435,0.586c-0.75-0.75-2.078-0.75-2.828,0L0.587,12.608
		c-0.781,0.781-0.781,2.047,0,2.828L33.121,47.97L0.587,80.504c-0.781,0.781-0.781,2.047,0,2.828l12.02,12.021
		c0.375,0.375,0.884,0.586,1.414,0.586c0.53,0,1.039-0.211,1.414-0.586L47.97,62.818l32.535,32.535
		c0.375,0.375,0.884,0.586,1.414,0.586c0.529,0,1.039-0.211,1.414-0.586l12.02-12.021c0.781-0.781,0.781-2.048,0-2.828L62.819,47.97
		z" />
</g>
</symbol>

</svg>