<?xml version="1.0" encoding="utf-8"?>
<!-- Generator: Adobe Illustrator 19.1.0, SVG Export Plug-In . SVG Version: 6.00 Build 0)  -->
<svg version="1.1" id="Capa_1" xmlns="http://www.w3.org/2000/svg" xmlns:xlink="http://www.w3.org/1999/xlink" x="0px" y="0px"
	 viewBox="-469.8 237 140.8 88" style="enable-background:new -469.8 237 140.8 88;" xml:space="preserve">
<style type="text/css">
	.st0{fill:#030104;}
</style>
<g>
	<g>
		<path class="st0" d="M-433.1,284.7c0-3.4,2.3-2.3,3.3-8.4c0.4-2.6,2.4,0,2.8-5.9c0-2.3-1.1-2.9-1.1-2.9s0.6-3.4,0.8-6.1
			c0.3-3.3-1.7-11.8-12-11.8c-10.3,0-12.2,8.5-12,11.8c0.2,2.6,0.8,6.1,0.8,6.1s-1.1,0.6-1.1,2.9c0.4,5.8,2.4,3.3,2.8,5.9
			c1,6.2,3.3,5.1,3.3,8.4c0,5.6-2.4,8.2-9.8,11.3c-7.4,3.1-11.4,5.1-13.2,8c-1.2,2-1.4,20.9-1.4,20.9h22.5v-14.9
			c0-7.3,2.2-8.9,18.4-17C-432,291-433.1,288.6-433.1,284.7z"/>
		<path class="st0" d="M-377.9,298.9c-9.9-4.1-13.1-7.6-13.1-15.1c0-4.5,3-3,4.3-11.2c0.5-3.4,3.2-0.1,3.7-7.8
			c0-3.1-1.5-3.9-1.5-3.9s0.7-4.6,1-8.1c0.4-4.4-2.2-15.8-15.9-15.8c0,0,0,0,0,0s0,0,0,0c-13.7,0-16.3,11.4-15.9,15.8
			c0.3,3.5,1,8.1,1,8.1s-1.5,0.8-1.5,3.9c0.5,7.8,3.2,4.4,3.7,7.8c1.3,8.2,4.3,6.7,4.3,11.2c0,7.5-3.2,11-13.1,15.1
			c-9.9,4.1-18.4,8.2-18.4,12.5c0,2.9,0,13.7,0,13.7h10h59.5h10c0,0,0-10.8,0-13.7C-359.5,307.1-368,303-377.9,298.9z"/>
		<path class="st0" d="M-329,325c0,0-0.2-18.9-1.4-20.9c-1.7-2.9-5.7-4.9-13.2-8c-7.4-3.1-9.8-5.7-9.8-11.3c0-3.4,2.3-2.3,3.3-8.4
			c0.4-2.6,2.4,0,2.8-5.9c0-2.3-1.1-2.9-1.1-2.9s0.6-3.4,0.8-6.1c0.3-3.3-1.7-11.8-12-11.8c-10.3,0-12.2,8.5-12,11.8
			c0.2,2.6,0.8,6.1,0.8,6.1s-1.1,0.6-1.1,2.9c0.4,5.8,2.4,3.3,2.8,5.9c1,6.2,3.3,5.1,3.3,8.4c0,3.8-1.1,6.2-4.1,8.4
			c16.2,8.1,18.4,9.8,18.4,17V325H-329z"/>
	</g>
</g>
</svg>
