<svg data-v-bcb4feda="" xmlns="http://www.w3.org/2000/svg" width="174" height="48" viewBox="0 0 174 48" class="logo">
    <g fill="none" fill-rule="evenodd">
        <path fill="#3532D5"
              d="M8.625 5.484c-.314.32-.472.714-.473 1.18l-.004 1.664c-.002.465.154.86.467 1.182.312.323.696.484 1.15.486l11.346.03c.67.002 1.302.137 1.896.405a4.968 4.968 0 0 1 1.537 1.069c.43.445.775.973 1.033 1.583.258.611.386 1.26.384 1.948l-.012 4.991a4.928 4.928 0 0 1-.395 1.946 5.091 5.091 0 0 1-1.041 1.577 4.949 4.949 0 0 1-1.543 1.061 4.584 4.584 0 0 1-1.897.394L0 24.943l.013-4.991 16.21.044c.454.001.837-.159 1.152-.48.314-.32.472-.713.473-1.18l.004-1.663a1.632 1.632 0 0 0-.467-1.183 1.547 1.547 0 0 0-1.15-.485l-11.347-.03a4.599 4.599 0 0 1-1.894-.405 4.94 4.94 0 0 1-1.538-1.07 5.1 5.1 0 0 1-1.034-1.583A4.923 4.923 0 0 1 .04 9.969L.05 4.98a4.92 4.92 0 0 1 .395-1.946 5.094 5.094 0 0 1 1.041-1.578A4.944 4.944 0 0 1 3.03.395 4.585 4.585 0 0 1 4.927 0L26 .057l-.013 4.991-16.21-.043a1.546 1.546 0 0 0-1.152.479M35.109 31L27 30.978l.051-19.993a4.938 4.938 0 0 1 .395-1.948 5.104 5.104 0 0 1 1.042-1.58 4.953 4.953 0 0 1 1.544-1.063A4.591 4.591 0 0 1 31.93 6l16.218.044c.67.002 1.302.137 1.896.405a4.967 4.967 0 0 1 1.538 1.07c.431.446.776.975 1.034 1.586.258.612.386 1.262.384 1.95l-.021 8.331a4.937 4.937 0 0 1-.394 1.948 5.106 5.106 0 0 1-1.043 1.58A4.954 4.954 0 0 1 50 23.976a4.584 4.584 0 0 1-1.899.395l-11.352-.03.013-4.999 6.487.018c.455 0 .838-.16 1.153-.48.314-.321.472-.715.473-1.182l.013-4.998c.001-.467-.155-.861-.467-1.184a1.545 1.545 0 0 0-1.15-.487l-6.488-.018a1.544 1.544 0 0 0-1.152.48 1.63 1.63 0 0 0-.474 1.182L35.11 31zM55.046 6.66l7.937.023L62.937 25 55 24.978l.046-18.317zm7.941-1.609L55.05 5.03 55.063 0 63 .022l-.013 5.03zM81.987 11.692l-9.8-.026-.017 6.654c-.001.466.156.86.47 1.182.316.323.702.484 1.16.486l8.166.022-.014 4.99-13.066-.035a4.65 4.65 0 0 1-1.909-.404 4.983 4.983 0 0 1-1.549-1.07 5.08 5.08 0 0 1-1.04-1.582A4.886 4.886 0 0 1 64 19.96L64.052 0l8.166.022-.018 6.654 9.8.026-.013 4.99zM91.123 18.314c-.002.465.154.86.467 1.181.313.323.698.484 1.152.486l6.495.017a1.55 1.55 0 0 0 1.154-.48c.314-.32.473-.713.474-1.178l.013-4.988c0-.466-.155-.86-.468-1.183a1.552 1.552 0 0 0-1.152-.485l-6.495-.018.013-4.989 11.366.032c.67.001 1.304.136 1.899.403a4.98 4.98 0 0 1 1.54 1.069c.431.445.776.972 1.035 1.583.258.61.386 1.26.384 1.946l-.021 8.315a4.916 4.916 0 0 1-.395 1.944 5.093 5.093 0 0 1-1.043 1.577c-.434.443-.95.795-1.545 1.06a4.604 4.604 0 0 1-1.9.394l-16.238-.044a4.605 4.605 0 0 1-1.898-.404 4.952 4.952 0 0 1-1.54-1.069 5.089 5.089 0 0 1-1.036-1.582A4.914 4.914 0 0 1 83 19.954L83.051 0l8.119.022-.047 18.292zM128.877 13.56a1.582 1.582 0 0 0-.467-1.16 1.565 1.565 0 0 0-1.152-.476l-6.495-.017a1.567 1.567 0 0 0-1.154.47 1.58 1.58 0 0 0-.474 1.157l-.013 4.894c0 .457.155.843.468 1.16.313.315.697.474 1.152.475l6.495.018-.013 4.893-11.366-.03a4.672 4.672 0 0 1-1.898-.397 4.956 4.956 0 0 1-1.54-1.048 4.976 4.976 0 0 1-1.036-1.552 4.734 4.734 0 0 1-.384-1.91l.021-8.156c.002-.674.133-1.31.395-1.907a4.991 4.991 0 0 1 1.043-1.548c.434-.433.949-.78 1.546-1.04a4.685 4.685 0 0 1 1.9-.386l16.237.043c.67.002 1.304.135 1.899.397a4.978 4.978 0 0 1 1.54 1.048 5 5 0 0 1 1.035 1.553A4.74 4.74 0 0 1 137 11.95L136.966 25l-8.118-.022.03-11.418zM139.063 0L147 .022 146.937 25 139 24.978zM148.063 0L156 .022 155.937 25 148 24.978z"
              style="
    fill: white;
"></path>
    </g>
</svg>