<svg xmlns="http://www.w3.org/2000/svg" id="Layer_1" data-name="Layer 1" viewBox="0 0 111.92 65"><defs/><path fill="#fff" fill-rule="evenodd" d="M93.31 2a8.34 8.34 0 0 1 1-.32 1.18 1.18 0 0 1 .38.16l.13.1.28-.13.57.09S98 .4 98.09.42 99 1 99 1a11.16 11.16 0 0 1 1-1c.06 0 .64.39.64.39s.14-.11.19 0a1.63 1.63 0 0 0 .23.35 3 3 0 0 1 .61.59c.07.15 1.14 1.38 1.14 1.38s.71-.22.86-.24a1.07 1.07 0 0 0 .4-.22 6.13 6.13 0 0 0 .79-.5 2.28 2.28 0 0 0 .28-.34 2.64 2.64 0 0 0 .55.2l1 .21a4.85 4.85 0 0 1 1.28.77c.2.28.93 1.64 1 1.92a2 2 0 0 1 .03 1.14c-.1.14-.17.33-.35.33a2.26 2.26 0 0 1-.44 0l.66.71c.18.2.41.39.32.54a1.09 1.09 0 0 1-.31.3 4.8 4.8 0 0 1 .67.46 8.34 8.34 0 0 1 1.36 1.39 6.31 6.31 0 0 0 .51 1.17 6.41 6.41 0 0 1 .43.74c.09.13.13.18 0 .38s-1 1.36-1 1.44v.38a2 2 0 0 1-.15.47.16.16 0 0 0-.06.13s.35.62.22.91l-.18.4a2.17 2.17 0 0 1-.16.53c-.1.19-.24.56-.24.56a1.68 1.68 0 0 0 .49.15h.3a1.16 1.16 0 0 1 .21.31c.05.15.16.11 0 .29a.76.76 0 0 0-.13.54c0 .15 0 .38-.19.46a1.35 1.35 0 0 0-.64.56c-.14.27-.25.56-.4.6a7.53 7.53 0 0 0-1 .47 16.08 16.08 0 0 0-1.18 1.11c-.15.15-.87 1.21-1.09 1.4a2.89 2.89 0 0 1-1 .57 11.38 11.38 0 0 1-1.39.33c-.13 0-.41.3-.76.58a3.47 3.47 0 0 1-.87.55c-.27.11-.66.25-.72.13a1.2 1.2 0 0 1-.06-.57c0-.14 0-.16-.08-.19a2.09 2.09 0 0 0-.37 0l-1.29.45h-.86a4 4 0 0 1-1.25.43 1.59 1.59 0 0 1-.82-.2 7.26 7.26 0 0 1-.72-.76s0 .34-.24.32a1 1 0 0 1-.42-.18 1.21 1.21 0 0 1-.4 0c-.08-.05-1.52-1.35-2.22-1.8s-2.52-1.67-3-2A3.83 3.83 0 0 1 89.07 19c-.14-.2-1-.82-1.13-1a6 6 0 0 0-.79-.86L87 17s.2-3.13.24-3.26a1.17 1.17 0 0 1 .16-.25s0-.51.06-.83a1.79 1.79 0 0 1 .26-.91.46.46 0 0 1 .28-.05l.17.31s.3-.27.48-.24a.71.71 0 0 0 .34 0l.66-.38-.41-.39-.43.14s-.4-1-.18-1.15 1.07-.46 1.07-.46a.8.8 0 0 1 .29-.4c.19-.1.07-.61.34-.72S91 8.2 91 8.2s-.49-1.1-.51-1.2 0-.11.07-.2a.36.36 0 0 1 .09-.13l-.35-.33s.31-.45.39-.54a1.17 1.17 0 0 0 .07-.48A10 10 0 0 1 91.58 4a18.15 18.15 0 0 1 1.27-1.68 2.84 2.84 0 0 1 .46-.32z"/><path d="M99 .67c.12.09.44.17.41.27.15.05.11-.14.24 0a2.59 2.59 0 0 1-2.07.63A16.54 16.54 0 0 1 99 .67zM98.55 2.77a.85.85 0 0 0-.06-.46h-.28c0-.58.63-.72 1.07-.86a5.52 5.52 0 0 1-.57 1.19c-.11-.15.02.18-.16.13zM100.14 2.52c.93.33 2 1 3.27.88-.93.75-2.62-.29-3.27-.88zM108.75 6.59a.31.31 0 0 1 .44.21c-.11.09-.15.28-.26.37a1.83 1.83 0 0 1-1.07-1.25c.46-.27.5.52.89.67zM106.44 6.55a1.61 1.61 0 0 1 .09.29 1.33 1.33 0 0 1-1.18.26c.2-.42.82-.23 1.09-.55zM92.89 4.87a1.31 1.31 0 0 1-1 1c.11-.29.53-.36.56-.64.19-.02.28-.23.44-.36zM105.63 11c.16 0 0 .1 0 .21.09.26.68.17.76.43-.13.35-.68.13-1 .22a3 3 0 0 1-.14-.61c.08-.2.26-.04.38-.25z" class="cls-2"/><path d="M99 2.64c-.08 0-.37.39-.45.65 1.42-.25 1.59 1.34 2.48 1.86a9 9 0 0 0 1.7-.45c.46.71-1 2.87.14 3.3.12 0 0-.25.18-.21-.08 1.49 1 2.4 1.43 3.62a4.63 4.63 0 0 0-.7-2.22 6.5 6.5 0 0 0 .55-1h-.07c0-.12.17-.26.21-.41a12 12 0 0 0 .13 4.19 5.07 5.07 0 0 1-.7.06 14.42 14.42 0 0 1-2.81-4.5c.27-.12.53.24.71.12a1.24 1.24 0 0 0-.25-.35c.12 0 .34.23.4.24v-.55a1.29 1.29 0 0 0-.6 0c-.82-1.41-2.74-1.94-3.79-3.14-.11 0-.14.1-.2.17s.16.13.21.21-.26.13-.39.07c.13.07.14.46 0 .49s.08.14.14.2a4.27 4.27 0 0 0 0 2.1c0 .09-.12.08-.1.23.06 0 0-.11.08-.13a.65.65 0 0 0 0 .59 4.71 4.71 0 0 1-1-2.41c-.67 0-1.29-.35-1.85 0 0-.2.12-.32 0-.51.13.17.33-.2.43-.34-.11-.09-.32 0-.47-.08a.7.7 0 0 1 .25-.27c-.12-.08-.35-.1-.48-.18.51-.27 1.21-.28 1.63-.7a9 9 0 0 1-.74-1c.2-.12.71.2.79.44a1.05 1.05 0 0 1 1-.39c.26.57.53 1.28 1.4 1.3-.11-.32.13-.56.17-.8.36.16.37-.22.57-.2z" class="cls-2"/><path d="M104 6.77c.12 0 0 .38.23.48-.19.38 0 .81-.18 1.32-.29-.73-.31-1.64-.53-2.23-.3.16-.22 1-.44 1.38.08-.88.28-1.46.33-2.4.46.35.33.94.67 1.36-.08.04-.08.04-.08.09zM92.65 5.52v.21c.12 0 .16-.09.18-.22.15.09.15 0 .25-.06a1 1 0 0 0 .65 0c.08.11-.11.09-.08.26-.14.1-.6-.08-.58.18a4 4 0 0 0-1.23.35c-.06.13.17.29.28.39a2.7 2.7 0 0 0 1.14-.26c.39.25-.17.52-.26.75 2.1-.58 3.15 1.55 4.69 2.33 0 .07-.06 0-.11 0 0 .27.47.27.53.53 0 .11-.07.1-.12.12.13.16.2.36.32.54a4.21 4.21 0 0 1-1.21-.62c-.22.08-.25.42-.38.63-.15 0 0-.12 0-.21-.31.08-.14.62-.22 1a1.42 1.42 0 0 1 .31-1.44c0-.4-.58-.2-.57-.51 0-.13.21 0 .22-.1a10.11 10.11 0 0 0-1.54-1.74c0 1 .33 3.15-.76 4-.06-.2.15-.38.17-.59-1.22.78-.76 2.6-1.37 4.12-.47 0-.81-.14-.87-.56.1 0 .25 0 .32-.05-.11-.08-.08-.08-.06-.25s.16 0 .25-.07c-.08-.08-.19 0-.08-.15-.07 0-.11 0-.12.09s0-.12 0-.21.07.17-.09.12c0-.31.25-.07.16-.35-.16.2 0-.15-.29-.12.14.15-.15.19-.06.37.12 0-.07-.19.09-.12 0 .29-.18.38-.18.66a4.33 4.33 0 0 1-.2-.69c-.44.9.45 2.38.76 3.36a33 33 0 0 0 14.35 3.09.7.7 0 0 0 .07-.44 3.93 3.93 0 0 0 2.52-1.44c0-.27-.23-.22-.21-.42.12.18.17-.37.4-.31a3 3 0 0 1 .62-1.07c-.21.24 0 .77-.33 1 .1.29.09.49-.08.64a17.69 17.69 0 0 1-7.67 5.74c-.15-.18 0-.56-.11-.78-1.61.08-3.89 1.8-5 0a.4.4 0 0 1-.16.32 38.9 38.9 0 0 1-8.65-6.73 27.93 27.93 0 0 1 .67-5.1c.14.13.1.21.26.32s.08-.08.15-.08 0-.19-.06-.29c0 .06.12.1.11.19.29-.18.55-.29.84-.1-.1.11-.06.2-.12.33.11.22.41.32.53.53-.21.12-.41-.15-.61 0 0 .31-.11.61.11.74-.08.09-.06.16-.1.23 1 2.42 1.83 5.41 4.22 7 .09-.06.09-.24.27-.16a.33.33 0 0 1 .09-.3h-.21c0-.45.29-.91.07-1.26a4.15 4.15 0 0 1-3.1-2.72c-.42-1.5 1.36-4.24-.84-4.55 0-.26.18-.21.26-.33-.11-.12-.24-.22-.36-.34-.12.06-.28.05-.37.15a2.57 2.57 0 0 1-.24-1 2.91 2.91 0 0 1 1-.46.65.65 0 0 0-.11.47c0-.13.2-.25.33-.36S91 9.45 91 9.36s.19-.31.31-.43c.33.14.54-.23.92-.16.13-.17.06-.23 0-.38.22.51.89.83 1.86.86-.34-.4-1.31-.35-1.55-.81a5.64 5.64 0 0 0 2.18.15c.13-.46.16-1.1-.24-1.28a10 10 0 0 1-2.25.69 7.7 7.7 0 0 1-.49-1.18c.08-.12.06-.16.15-.29a2.57 2.57 0 0 0-.33-.33c.06-.1.15-.16.19-.28.47.14.66-.16.9-.4zm5.84 14.55a3.62 3.62 0 0 0 .18.82c0-.08.22 0 .28-.05s-.21 0-.15-.1c.24 0 .68.2.89.05-.37-.47-1-.75-1.39-1.2v.17a3.12 3.12 0 0 0-1.49-.76 9 9 0 0 1 1.68 1.07zm2.33.76h.1c0-.22.3-.29.5-.3-.07 0-.18-.08-.09-.08a.87.87 0 0 0 .56-.05 39.25 39.25 0 0 0-4-1.22 18.84 18.84 0 0 1 2.83 1.67c0-.08-.09 0-.1-.05s.24-.05.2.03zm3-.08c-.23-.2-.71-.07-.88-.08s0 .1 0 .18c-.49 0-1 .45-1.31.16a.29.29 0 0 1 0 .24c.15 0 .09 0 0 .07a3.49 3.49 0 0 0 2.16-.37c0-.07-.09-.16 0-.17s.07.03.07-.03zM106.06 10.32c1.22.08.68-2 1.32-2.54a5.31 5.31 0 0 0-.2 3.52c0-.2 0-.42-.16-.51-.36 0-.62.09-1 .08.09-.11 0-.19-.06-.25-.2.17-.6.07-.83.2.1-.29.87-.2.93-.5z" class="cls-2"/><path d="M110.32 12.3c0 .07.12 0 .17.06s0 .17-.07.19.17.13.2.07-.21.23-.1.36a.29.29 0 0 0-.16.36c.1-.13.18-.34.24-.41-.14.76-.55 2.09-.59 2.76-.09.1-.17 0-.23.1-.12-.22.14-.58.1-.81a.09.09 0 0 1 .05.11 2 2 0 0 0 .13-1.63c-.18 0-.19.22-.38.21a3.94 3.94 0 0 1-.89 1.68c0 .08-.17 0-.24 0s.15 0 .11-.09-.14 0-.19-.06 0 .06 0 .06h-.13c-.05-.06 0-.18 0-.28-.28 0-.43 0-.56-.16 0-.3.38-.05.4-.31.24.11.15-.11.45 0 0-.15.1-.15.08-.3.36 0 .43-.47.61-.76-.1-.07-.26.13-.4.14.05-.29-.06-.47 0-.76.18-.09.44.12.31.26h.17c-.26 0 .1.16 0 .27a.8.8 0 0 1 .39-.07v.14c0 .05.22-.12.34-.18-.22-.17.12-.3.15-.49s-.11.06-.06-.08c-.22.11-.41-.21-.33-.5-.07 0 0-.1-.11-.16s-.06 0-.13.15c-.27 0-.42-.15-.69-.18 0-.11-.05-.12 0-.17s-.15 0-.08-.12c-.17 0-.17.21-.28.27-.37 0-.83.2-1.31.19-.33.32.26.33.28.57.13-.08.16 0 .27.08-.07 0-.11.12-.23.1a.74.74 0 0 1 .23.28 2.76 2.76 0 0 0-.46-.15c-.61-.46-.61-1.37-1.4-1.71 0-.1-.06-.22.07-.23.21.33.75.43.9.8.14 0 .19-.12.3-.16.83.29 1.63-.4 2.4.09a23 23 0 0 1-.38-2.51c.44.61.61 1.48 1 2.06-.15.1 0 .45.13.46.08.2-.06.36.13.47-.1.02-.12-.04-.21-.01zM94.43 12.92c.11 0 .12-.06.12.09.12-.11-.11-.21 0-.39.19.23 0 .46.14.65 0 0-.05-.07-.09-.09a1.69 1.69 0 0 0 .68 1.11c0 .48.54.6.88.5a32.43 32.43 0 0 0 5.22 2.21c1-.13 2.24.15 3.09-.15-.06-.1-.42 0-.41-.21.28 0 .63 0 .86-.2 0 .19-.27.28-.41.38.06.13 0 .3.22.35-.17.21.13.54.29.56s0 0 .07 0c0-.22-.19-.38-.29-.36s0-.09.11-.05-.06-.07-.12-.09c.19-.51 1.45-.58 1.78-.15.26-.24-.06-.44-.4-.48a.62.62 0 0 1 .59-.22c.12.39.39.72 0 1-.06 0 0-.07 0-.11s-.06 0-.06 0 0 .18-.14.22c.18 0 .18-.07.34 0a5.78 5.78 0 0 0 0 1.55 9.12 9.12 0 0 1-.82-.69c.08-.1.06-.21-.1-.22.13 0 .11-.13 0-.17a.92.92 0 0 1 .4.07c.07-.11 0-.09.18 0 0-.07-.08-.08-.12-.13s0 0 .1 0-.05-.12-.15-.13c.1-.09 0-.14.11-.26-.35.1-.39.43-.78.39 0 .06.19.09.2 0-.51 0-1 .67-1.58.8.12-.06 0-.13-.08-.18s.06-.14.1-.19c-1.36-1.74-6.53-.73-8.14-1.82-.27 0-.15.43-.38.42.09 0-.1.22-.07.43a2.49 2.49 0 0 0-.25-.38c0 .05-.16 0-.15.08a2.26 2.26 0 0 0-1.21-1.27c.09-.13-.09-.22-.07-.39h-.17c0-.06 0-.07.06-.13s-.09 0-.17 0c-.09-.31-.26-.31-.3-.7-.07.07 0 0-.17 0a7 7 0 0 0 .37-1.86 15.14 15.14 0 0 0 1.44-2 1.13 1.13 0 0 0 .43-.28c0 .24-.14.38-.24.62s-1.87 2-.86 1.86c.03-.07-.11-.11-.05.01z" class="cls-2"/><path d="M102.34 12.81c.15.07-.35.24-.35.39.15.09.09.32.29.36-.07.06 0 0 0 .13s-.1 0-.09-.11 0 .14 0 .23a.1.1 0 0 0 .08-.09c.06.13-.08.17 0 .3s-.12-.17-.13 0c-.12 0 .11-.11-.06-.11h.11c.04 0-.08 0-.13-.05s0-.09.09-.09-.17 0-.12-.12h.17c0-.12-.11 0-.23-.07.12 0 0-.15-.08-.18s0 .16-.12.11c0 .12.09 0 .17 0s0 .07 0 .1a1 1 0 0 0-.69.2c0 .08.06 0 .1.05a.48.48 0 0 1-.46.06c.16-.12 0-.1-.11-.15s0-.13.09-.13-.08 0-.13-.08.16-.14.1-.16.12-.11.22-.1c.06-.46.94-.23 1.28-.49zM100.61 14.14c0 .06-.07.12.11.16-.19.1-.31-.11-.42-.17s-.1.11-.19.1a7.86 7.86 0 0 1-2.71-2c.91-.07 1.39.67 2 1 0 .14-.08 0-.14 0s.23.09.16.27a.29.29 0 0 1 .22-.07c0 .1-.08.05-.12.09.27.05.57.4.9.42.06.06.17.23.19.2zM104.63 13.6c0-.15.16.08.15-.11a12 12 0 0 1 1.46.58c-.11.06-.35-.06-.46-.14s0 0 0 .1c-.12-.16-.25 0-.37 0s0 .05-.06.13c-.06-.08-.12.07-.24 0s-.11 0-.08-.19a1.63 1.63 0 0 0 .23.11c-.06-.17-.29-.12-.42-.17q0-.13-.09-.12a.22.22 0 0 1 .12 0c-.1-.12-.11-.24-.24-.19zM103.93 16.17a.18.18 0 0 0-.16-.09 4.68 4.68 0 0 1-.08-1.63s.09.15.11 0c0 0 0 .1.11.12a7 7 0 0 0 .27 1.7.23.23 0 0 1-.25.07c.17-.18-.07 0-.12-.09s.11 0 .12-.08zM105 14.86a.87.87 0 0 1 .34.06c-.09.06 0 .15 0 .21s0 0-.11 0 .08.08.16.09-.1 0-.11 0 .06.11.22.14c-.07.14 0 .16.06.25s-.12.12-.11.26c-.3-.08-.49-.53-.37-.71-.09-.05-.11-.26 0-.18.01.02-.08-.06-.08-.12zM106.34 12c0 .26.15.37 0 .56s.11.08.15.13c0 .31-.07.44.14.58-.9 0-1.31-.81-1.94-1.15.6.07.86.65 1.37.88 0-.43-.53-.53-.76-.81.06-.06.25.05.33.08s0 0 0-.1.06.08.09.12.27 0 .27-.2 0 0-.1 0a.36.36 0 0 1 .45-.09z" class="cls-2"/><path fill="#fff" d="M2.69 43.78a8.84 8.84 0 0 0 2.77 1.87 8.41 8.41 0 0 0 3.42.7h20.46a2.9 2.9 0 0 1 2.93 2.92v1a95.36 95.36 0 0 0 14.61-3.19v-.76a8.41 8.41 0 0 0-.7-3.42 9 9 0 0 0-1.87-2.78 9.18 9.18 0 0 0-2.78-1.87 8.57 8.57 0 0 0-3.42-.7H17.65a2.9 2.9 0 0 1-2.92-2.92v-2.89a2.9 2.9 0 0 1 2.92-2.93h29.23V20h-38a8.41 8.41 0 0 0-3.42.71 8.68 8.68 0 0 0-2.77 1.87 8.79 8.79 0 0 0-1.87 2.81 8.48 8.48 0 0 0-.71 3.42v8.77A8.41 8.41 0 0 0 .82 41a8.72 8.72 0 0 0 1.87 2.78zM29.48 55.11H.11v8.77h38a8.41 8.41 0 0 0 3.42-.7 8.72 8.72 0 0 0 4.65-4.65 8.41 8.41 0 0 0 .7-3.42v-1.86a90.73 90.73 0 0 1-17.4 1.86zM94 34.31a9 9 0 0 0-2.78-1.87 7.82 7.82 0 0 0-1.64-.52 86.4 86.4 0 0 1-11.25 8.58h.72A2.9 2.9 0 0 1 82 43.43v8.77a2.9 2.9 0 0 1-2.93 2.92H67.36a2.9 2.9 0 0 1-2.92-2.92v-4.4c-2.8 1.2-5.68 2.2-8.66 3.2-2 .61-4 1.15-6 1.62v2.53a8.57 8.57 0 0 0 .7 3.42 9 9 0 0 0 1.88 2.78 8.84 8.84 0 0 0 2.77 1.87 8.41 8.41 0 0 0 3.42.7h29.27a8.41 8.41 0 0 0 3.42-.7 8.72 8.72 0 0 0 4.65-4.65 8.41 8.41 0 0 0 .7-3.42V40.5a8.39 8.39 0 0 0-.7-3.41A8.89 8.89 0 0 0 94 34.31zM76.92 31.74h-9.56v6.45a90.78 90.78 0 0 0 9.56-6.45zM64.44 39.83V20H49.82v26.16a95 95 0 0 0 14.62-6.33z" class="cls-3"/></svg>