<svg xmlns="http://www.w3.org/2000/svg" xmlns:xlink="http://www.w3.org/1999/xlink" width="26" height="24" viewBox="0 0 26 24">
    <defs>
        <path id="a" d="M0 0h26v24H0z"/>
    </defs>
    <g fill="none" fill-rule="evenodd">
        <mask id="b" fill="#fff">
            <use xlink:href="#a"/>
        </mask>
        <path fill="#FFF" d="M22.867 18.544s3.225-8.175 3.131-12.497C25.907 1.724 23.329 0 20.75 0c-2.58 0-4.974.909-4.974.909s1.045.1 1.996.523c.951.419 1.35.976 1.35.976s.589-.127 2.029-.159c1.445-.034 2.761 1.2 3.036 3.83.278 2.631-1.32 9.653-1.32 9.653v2.812zm-8.261-5.518L13 12.132l-1.604.894.304-1.89-1.295-1.34 1.792-.279.803-1.72.804 1.72 1.792.279-1.3 1.34.309 1.89zm5.882-5.535c-1.898-2.297-4.495-3.7-7.357-3.7-2.865 0-5.465 1.403-7.363 3.7a12.82 12.82 0 0 0-1.693 2.683v1.453c.203.52.51 1.133.966 1.742 1.108 1.458 3.074 2.956 6.786 3.211.102-.535.553-.946 1.091-.946h.162c.536 0 .986.405 1.093.94 3.515-.272 5.469-1.661 6.61-3.059a7.578 7.578 0 0 0 1.143-1.956v-1.472s-.015-.204-.064-.547a12.46 12.46 0 0 0-1.374-2.049zM1.813 6.08c.276-2.63 1.593-3.864 3.036-3.83 1.442.032 2.03.159 2.03.159s.4-.557 1.349-.976c.954-.424 1.998-.523 1.998-.523S7.832 0 5.25 0C2.673 0 .095 1.724.002 6.047c-.093 4.322 3.13 12.497 3.13 12.497v-2.812S1.539 8.71 1.813 6.08zm2.93 1.178c.104-.137.216-.278.324-.414 2.048-2.479 4.906-4.035 8.064-4.03 3.109-.005 5.926 1.505 7.966 3.925-1.007-2.504-3.222-5.492-8.044-5.492-5.159 0-7.374 3.425-8.31 6.011zm9.451 10.556v.099c0 .65-.5 1.178-1.114 1.178h-.162c-.61 0-1.114-.529-1.114-1.178v-.09c-3.977-.26-6.304-1.926-7.575-3.63l-.154-.214V24h17.851V13.897c-.069.1-.14.198-.217.297-1.288 1.686-3.6 3.337-7.515 3.62z" mask="url(#b)"/>
    </g>
</svg>
