<svg xmlns="http://www.w3.org/2000/svg" width="40" height="38" viewBox="0 0 40 38">
    <path fill="#A6C3ED" fill-rule="evenodd" d="M38.246 34.285H23.04c0-.356-.315-.643-.7-.643-.389 0-.704.287-.704.643v1.285c0 .238-.208.43-.467.43h-2.34c-.257 0-.467-.192-.467-.43v-1.214c0-.354-.313-.643-.703-.643-.36 0-.658.25-.695.572H1.754c-.388 0-.701-.289-.701-.643 0-.355.313-.642.7-.642h16.039c.754 0 1.392.494 1.515 1.176.057.31.348.537.693.537.343 0 .634-.227.693-.537.123-.682.759-1.176 1.515-1.176h16.038c.386 0 .701.287.701.642 0 .354-.315.643-.7.643zm-24.792-5.139c2.35-.456 4.845.173 6.51 1.643l.067.058c.26.229.74.224 1-.004 1.682-1.483 4.213-2.106 6.604-1.625 3.584.72 7.5 1.325 10.26.652l-.611 2.312H22.692c-.856 0-1.631.311-2.163.818-.531-.507-1.307-.818-2.162-.818H3.773l-.615-2.329c2.767.64 6.718-.014 10.296-.707zm2.21-11.098c1.252 1.426 2.944 2.396 4.875 2.396 1.949 0 3.66-.993 4.915-2.444.445.23.867.502 1.271.81-1.396 1.72-3.619 3.018-6.186 3.018-.403 0-.725.303-.725.677 0 .373.322.676.725.676 3.022 0 5.604-1.449 7.252-3.42 1.818 1.872 3.127 4.646 3.788 8.103a64.091 64.091 0 0 1-3.431-.678c-2.776-.62-5.701.071-7.807 1.814-2.088-1.77-5.011-2.499-7.78-1.901a83.007 83.007 0 0 1-3.087.61c.657-4.621 2.633-7.704 6.19-9.661zM12.108 13c-.291 0-.529-.28-.529-.625v-2.75c0-.345.238-.625.529-.625h1.576a7.828 7.828 0 0 0-.357 2.345c0 .547.06 1.104.165 1.655h-1.384zm7.368-12c3.256 0 6.093 2.109 6.84 4.993H24.84c-1.164-1.757-3.135-2.914-5.364-2.914-2.234 0-4.208 1.161-5.372 2.921-.026-.002-.05-.007-.078-.007h-1.394C13.38 3.109 16.219 1 19.476 1zm9.998 8.625v2.75c0 .345-.232.625-.516.625h-1.401a9.13 9.13 0 0 0 .16-1.655c0-.829-.125-1.62-.349-2.345h1.59c.284 0 .516.28.516.625zM27.084 15h1.293c-.095.67-.36 1.35-.752 2a10.878 10.878 0 0 0-1.265-.723c.28-.406.522-.835.724-1.277zM15.79 10.987C15.79 7.686 18.387 5 21.581 5c3.192 0 5.787 2.686 5.787 5.987 0 3.243-2.528 7.013-5.787 7.013-3.263 0-5.792-3.77-5.792-7.013zm22.434 20.907l.843-3.889a.715.715 0 0 0-.269-.725.673.673 0 0 0-.753-.04c-1.382.831-3.566.853-5.893.546a.813.813 0 0 0-.01-.136c-.679-4.195-2.152-7.555-4.24-9.781.566-1.037.92-2.157 1.02-3.258 1.054-.11 1.885-1.019 1.885-2.132V9.235c0-1.165-.907-2.11-2.032-2.146C27.972 3.019 24.36 0 20.196 0c-4.17 0-7.78 3.024-8.583 7.095-1.09.076-1.956 1.001-1.956 2.14v3.244c0 1.189.94 2.154 2.096 2.154h2.3c.194.518.43 1.017.702 1.491-3.782 2.326-5.923 6.094-6.537 11.522-2.579.393-4.852.421-6.266-.408a.677.677 0 0 0-.753.044.718.718 0 0 0-.263.723l.841 3.89C.775 32.04 0 32.92 0 33.988c0 1.171.927 2.122 2.07 2.122h14.943c0 1.042.823 1.889 1.838 1.889h2.298c1.015 0 1.84-.847 1.84-1.889h14.944c1.14 0 2.067-.95 2.067-2.122 0-1.07-.775-1.949-1.777-2.095z"/>
</svg>
