<svg xmlns="http://www.w3.org/2000/svg" xmlns:xlink="http://www.w3.org/1999/xlink" width="50" height="46" viewBox="0 0 50 46">
    <defs>
        <path id="a" d="M0 24h34V0H0z"/>
    </defs>
    <g fill="none" fill-rule="evenodd" transform="translate(9 10)">
        <path fill="#B5BCCF" d="M20.894 11.597a2.492 2.492 0 1 1 0-4.982 2.493 2.493 0 0 1 2.495 2.491 2.493 2.493 0 0 1-2.495 2.491m5.873 2.623l-1.859-1.963a.847.847 0 0 0-.83-.234l-.298-.316a3.866 3.866 0 0 0 1.008-2.6 3.896 3.896 0 0 0-3.894-3.89A3.896 3.896 0 0 0 17 9.107a3.895 3.895 0 0 0 3.894 3.887c.85 0 1.636-.277 2.279-.742l.312.33a.845.845 0 0 0 .188.842l1.86 1.963a.85.85 0 0 0 1.234-1.167"/>
        <mask id="b" fill="#fff">
            <use xlink:href="#a"/>
        </mask>
        <path fill="#B5BCCF" d="M3.794 18.838h25.41V1.989H3.794v16.849zM2.72 20.87h27.556c.399 0 .724-.373.724-.827V.828C31 .371 30.675 0 30.276 0H2.72C2.323 0 2 .37 2 .828v19.215c0 .454.323.827.72.827zM33.983 21.913H22.229a.458.458 0 0 1-.467.402H12.24a.458.458 0 0 1-.467-.402H.018c-.006.054-.018.105-.018.16v.482C0 23.35.694 24 1.545 24h30.909c.854 0 1.546-.65 1.546-1.445v-.483c0-.054-.01-.105-.017-.159" mask="url(#b)"/>
    </g>
</svg>
