<svg xmlns="http://www.w3.org/2000/svg" xmlns:xlink="http://www.w3.org/1999/xlink" width="50" height="46" viewBox="0 0 50 46">
    <defs>
        <path id="a" d="M.462.008H7.61v10.78H.462z"/>
        <path id="c" d="M0 .432h13.083v16.001H0z"/>
        <path id="e" d="M.962.033h10.375V5H.962z"/>
    </defs>
    <g fill="none" fill-rule="evenodd">
        <path fill="#B5BCCF" d="M31.78 16.622a17.007 17.007 0 0 0-4.457-1.191l1.062 2.325-1.566 3.183a44.689 44.689 0 0 0 4.574-.415c.496-.087.944-.545.998-1.01.063-.532.12-1.065.18-1.598.053-.464-.295-1.064-.791-1.294M22.665 15.441a16.985 16.985 0 0 0-4.371 1.181c-.496.231-.844.83-.791 1.294.058.533.117 1.066.18 1.598.054.465.502.923.998 1.01 1.49.213 2.99.35 4.492.412l-1.567-3.18 1.059-2.315zM25.62 16.196h-1.246l-.621.694.62 1.463-.405 2.658h2.058l-.406-2.658.62-1.463z"/>
        <g transform="translate(21 4.992)">
            <mask id="b" fill="#fff">
                <use xlink:href="#a"/>
            </mask>
            <path fill="#B5BCCF" d="M6.085 8.492c.37-.24.639-.591.666-.884L6.878 6.5a.321.321 0 0 0 .555-.186l.175-1.707a.32.32 0 0 0-.472-.315l.113-.974c.029-.445.248-1.632-.607-2.397C5.4-.297 2.672-.297 1.432.92.576 1.686.797 2.873.826 3.318c.039.324.076.649.114.974a.322.322 0 0 0-.475.315l.178 1.707a.32.32 0 0 0 .554.186c.04.369.084.738.127 1.108.028.293.295.644.666.884.076.535.153 1.07.227 1.607.027.239.404.547.84.623a7.25 7.25 0 0 0 1.963 0c.435-.076.812-.384.837-.623l.229-1.607" mask="url(#b)"/>
        </g>
        <path fill="#B5BCCF" d="M38.088 32.529a1.09 1.09 0 0 1-.458.256c-.625.13-1.273.13-1.897 0a1.099 1.099 0 0 1-.46-.256c-.042-.663-.082-1.325-.118-1.987.065.037.13.07.2.092.869.24 1.784.24 2.653 0 .068-.023.135-.055.199-.091-.036.662-.076 1.323-.12 1.986m-3.691-3.196l-.46-3.957c.699-.143 1.312-.598 1.738-1.242a4.92 4.92 0 0 0 3.065.707c.055.72.266 1.293.57 1.543l-.341 2.938c-.02.21-.406.652-.913.76a8.47 8.47 0 0 1-2.765-.005c-.49-.104-.877-.546-.894-.744m8.82 7.013c-.063-.607-.13-1.213-.2-1.82-.061-.529-.481-1.165-.923-1.379-1.204-.52-2.365-.872-3.511-1.058.068-.622.129-1.243.19-1.864.349-.238.597-.572.623-.854.04-.36.083-.72.125-1.082l.028.007a.305.305 0 0 0 .334-.27l.166-1.61a.302.302 0 0 0-.27-.332h-.002l.117-1.003c.027-.408.212-1.44-.42-2.2-.88-1.304-2.78-1.924-3.53-1.626a2.5 2.5 0 0 0-.834.54 1.344 1.344 0 0 0-.126-.028.396.396 0 0 0-.321-.005c-1.272.447-1.92 2.576-1.207 4.367a.302.302 0 0 0-.14.287l.167 1.61a.302.302 0 0 0 .332.27l.029-.007c.043.361.083.721.125 1.082.025.282.273.616.622.854.06.621.123 1.242.19 1.863-1.145.187-2.307.538-3.511 1.06-.442.213-.862.85-.924 1.378-.07.606-.136 1.212-.198 1.82-.057.53.252 1.097.694 1.244 3.75 1.114 7.93 1.113 11.68 0 .442-.148.75-.715.696-1.245"/>
        <g transform="translate(8 21.992)">
            <mask id="d" fill="#fff">
                <use xlink:href="#c"/>
            </mask>
            <path fill="#B5BCCF" d="M7.684 11.965c-.255.25-.678.39-1.143.39-.465 0-.887-.14-1.129-.377-.245-.217-.235-.529-.207-.83l.007-.086.12-1.022c.07.044.141.083.21.11.68.222 1.317.223 1.998 0 .071-.027.14-.066.21-.11l.12 1.022.006.085c.03.302.04.614-.192.818m-3.478-4.41a.25.25 0 0 1-.158-.18L3.751 6.06a.251.251 0 0 1 .17-.295 37.525 37.525 0 0 1-.1-.879c-.005-.06-.013-.139-.019-.225a3.367 3.367 0 0 0 1.951-1.435c.773.85 2.048 1.436 3.52 1.53l-.01.13c-.03.293-.064.586-.1.88a.25.25 0 0 1 .168.294l-.296 1.315a.252.252 0 0 1-.159.18c-.07.358-.149.712-.24 1.058-.044.183-.197.415-.397.623-.032.032-.064.064-.098.095l-.058.053c-.03.026-.062.05-.093.075-.024.018-.046.037-.07.054a1.684 1.684 0 0 1-.12.075c-.01.006-.02.015-.03.02a1.287 1.287 0 0 1-.198.092 3.45 3.45 0 0 1-2.06 0 1.394 1.394 0 0 1-.292-.15 1.515 1.515 0 0 1-.144-.105 2.419 2.419 0 0 1-.239-.214s0-.002-.002-.003c-.196-.204-.345-.433-.388-.615-.092-.346-.17-.7-.24-1.058m8.87 6.798c-.063-.607-.128-1.213-.199-1.819-.064-.529-.484-1.165-.923-1.38-1.23-.53-2.415-.885-3.583-1.068l-.069-.554c1.364-.217 2.882-.618 2.49-.76-.612-.223-1.046-2.012-.538-3.69.584-1.943-.306-3.349-.774-3.739C8.181.155 5.37.13 3.994 1.258c-.018.011-.038.017-.055.028-.304.191-.522.475-.672.824a3.683 3.683 0 0 0-.418 2.656c.035.001.07.005.107.005.067 0 .131-.002.198-.006.038.192.083.386.136.58.461 1.671-.158 3.561-.733 3.84-.29.14.884.281 2.223.35-.025.183-.047.367-.07.551-1.169.183-2.35.537-3.58 1.068-.442.215-.862.851-.925 1.38-.07.605-.136 1.212-.199 1.82-.055.528.253 1.096.695 1.244 3.751 1.114 7.93 1.113 11.681 0 .442-.148.75-.716.694-1.245" mask="url(#d)"/>
        </g>
        <path fill="#B5BCCF" d="M12.414 20.236l-2.11-3.625 1.244.186a6.985 6.985 0 0 1 7.483-4.245c.189.029.374.066.557.11a6.984 6.984 0 0 0-5.425 4.524l1.326.198-3.075 2.853z"/>
        <g transform="translate(20 38.992)">
            <mask id="f" fill="#fff">
                <use xlink:href="#e"/>
            </mask>
            <path fill="#B5BCCF" d="M11.337 1.122L9.742 5l-.608-1.098A6.987 6.987 0 0 1 .962.033a6.984 6.984 0 0 0 6.89 1.555L7.203.415l4.135.707z" mask="url(#f)"/>
        </g>
        <path fill="#B5BCCF" d="M32.978 13.84l3.657-2.049-.204 1.238c2.877 1.243 4.656 4.321 4.12 7.553a5.55 5.55 0 0 1-.118.554 6.985 6.985 0 0 0-4.435-5.498l-.219 1.323-2.8-3.121z"/>
    </g>
</svg>
