<svg xmlns="http://www.w3.org/2000/svg" width="144" height="51" viewBox="0 0 144 51">
    <defs>
        <linearGradient id="a" x1="14.257%" y1="66.452%" y2="46.588%">
            <stop offset="0%" stop-color="#4C59FF"/>
            <stop offset="100%" stop-color="#3892E4"/>
        </linearGradient>
        <linearGradient id="b" x1="14.257%" y1="61.425%" y2="47.63%">
            <stop offset="0%" stop-color="#4C59FF"/>
            <stop offset="100%" stop-color="#3892E4"/>
        </linearGradient>
        <linearGradient id="c" x1="-57.505%" x2="176.241%" y1="161.009%" y2="-41.111%">
            <stop offset="0%" stop-color="#4C59FF"/>
            <stop offset="100%" stop-color="#3892E4"/>
        </linearGradient>
        <linearGradient id="d" x1="-57.505%" x2="176.241%" y1="161.009%" y2="-41.111%">
            <stop offset="0%" stop-color="#4C59FF"/>
            <stop offset="100%" stop-color="#3892E4"/>
        </linearGradient>
        <linearGradient id="e" x1="23.124%" x2="81.56%" y1="161.009%" y2="-41.111%">
            <stop offset="0%" stop-color="#4C59FF"/>
            <stop offset="100%" stop-color="#3892E4"/>
        </linearGradient>
    </defs>
    <g fill="none" fill-rule="evenodd" transform="translate(0 1)">
        <ellipse cx="72" cy="34" fill="#F5F5F9" rx="72" ry="16"/>
        <path fill="#FFF" d="M56 2.041h32v27H56z"/>
        <path fill="#FFF" stroke="url(#a)" stroke-linecap="round" stroke-width="2" d="M.875 11.391V2.629c0-.97.782-1.753 1.75-1.753h36.75c.968 0 1.75.784 1.75 1.753v8.762" transform="translate(51)"/>
        <path fill="#FFF" stroke="url(#b)" stroke-linecap="round" stroke-width="2" d="M41.125 21.906v7.01a1.75 1.75 0 0 1-1.75 1.752H2.625a1.75 1.75 0 0 1-1.75-1.753v-7.01" transform="translate(51)"/>
        <path stroke="url(#c)" stroke-linecap="round" d="M31.208 5.752L13.226 23.758" transform="translate(51)"/>
        <g stroke-linecap="round" stroke-width="2">
            <path fill="#FFF" stroke="url(#d)" d="M18.375 3.955a3.504 3.504 0 0 1-3.5 3.505c-1.932 0-3.5-1.57-3.5-3.505a3.504 3.504 0 0 1 3.5-3.505c1.932 0 3.5 1.57 3.5 3.505z" transform="translate(51 5.684)"/>
            <path stroke="url(#e)" d="M.875 16.222a5.247 5.247 0 0 0 5.25-5.257 5.247 5.247 0 0 0-5.25-5.258M41.125 16.222a5.247 5.247 0 0 1-5.25-5.257 5.247 5.247 0 0 1 5.25-5.258" transform="translate(51 5.684)"/>
            <path fill="#FFF" stroke="url(#d)" d="M32.375 16.222a3.504 3.504 0 0 1-3.5 3.505c-1.932 0-3.5-1.57-3.5-3.505a3.504 3.504 0 0 1 3.5-3.505c1.932 0 3.5 1.57 3.5 3.505z" transform="translate(51 5.684)"/>
        </g>
    </g>
</svg>
