<svg xmlns="http://www.w3.org/2000/svg" width="144" height="61" viewBox="0 0 144 61">
    <defs>
        <linearGradient id="a" x1="0%" x2="143.832%" y1="167.45%" y2="12.986%">
            <stop offset="0%" stop-color="#4C59FF"/>
            <stop offset="100%" stop-color="#3892E4"/>
        </linearGradient>
        <linearGradient id="b" x1="27.946%" x2="91.388%" y1="208.655%" y2="0%">
            <stop offset="0%" stop-color="#4C59FF"/>
            <stop offset="100%" stop-color="#3892E4"/>
        </linearGradient>
        <linearGradient id="c" x1="0%" x2="143.832%" y1="54.441%" y2="48.601%">
            <stop offset="0%" stop-color="#4C59FF"/>
            <stop offset="100%" stop-color="#3892E4"/>
        </linearGradient>
        <linearGradient id="d" x1="18.242%" x2="109.599%" y1="208.655%" y2="0%">
            <stop offset="0%" stop-color="#4C59FF"/>
            <stop offset="100%" stop-color="#3892E4"/>
        </linearGradient>
        <linearGradient id="e" x1="41.044%" x2="121.69%" y1="100%" y2="-40.577%">
            <stop offset="0%" stop-color="#4C59FF"/>
            <stop offset="100%" stop-color="#71B9FC"/>
        </linearGradient>
        <linearGradient id="f" x1=".378%" x2="143.123%" y1="208.655%" y2="0%">
            <stop offset="0%" stop-color="#4C59FF"/>
            <stop offset="100%" stop-color="#3892E4"/>
        </linearGradient>
    </defs>
    <g fill="none" fill-rule="evenodd" transform="translate(0 1)">
        <ellipse cx="72" cy="44" fill="#F5F5F9" rx="72" ry="16"/>
        <path fill="#FFF" d="M76.276 41.2c2.242 0 5.965 1.927 7.724.8 3.154-2.02 3.614-8.146 3.614-12.181 0-3.965 5.449-9.781 2.386-11.819-1.793-1.193-7.688-1-10-1-1.326 0-2-10-4-7s-7 8-10 11c-2.332 2.332-1.06 6.59-1.06 8.819 0 3.102-.945 7.128 1.06 9.181 2.058 2.106 7.105 2.2 10.276 2.2z"/>
        <path stroke="#163567" stroke-linecap="round" stroke-linejoin="round" d="M88.833 28.846v-.01"/>
        <path fill="#FFF" stroke="url(#a)" stroke-linecap="round" stroke-linejoin="round" stroke-width="2" d="M13 20.141c5.934-1.46 11.88-8.987 11.88-17.957 0-2.235 4.309-2.542 5.435 1.595 1.272 4.672-.775 8.772-2.328 12.76h7.763" transform="translate(52)"/>
        <path fill="#FFF" stroke="url(#b)" stroke-linecap="round" stroke-linejoin="round" stroke-width="2" d="M35.533 16.88c1.915 0 3.467 1.46 3.467 3.261 0 1.803-1.552 3.263-3.467 3.263h-.866M34.45 23.404c1.915 0 3.467 1.46 3.467 3.261 0 1.803-1.552 3.263-3.468 3.263h-.866M33.366 29.928c1.915 0 3.467 1.46 3.467 3.264 0 1.8-1.552 3.261-3.467 3.261H32.5" transform="translate(52)"/>
        <path fill="#FFF" stroke="url(#b)" stroke-linecap="round" stroke-linejoin="round" stroke-width="2" d="M35.028 23.404c1.596 0 2.889 1.46 2.889 3.261 0 1.803-1.293 3.263-2.89 3.263h-1.444" transform="translate(52)"/>
        <path fill="#FFF" stroke="url(#c)" stroke-linecap="round" stroke-linejoin="round" stroke-width="2" d="M32.5 41.89H21.717C18.63 41.89 13 38.628 13 38.628" transform="translate(52)"/>
        <path fill="#FFF" stroke="url(#d)" stroke-linecap="round" stroke-linejoin="round" stroke-width="2" d="M31.2 36.453h.434c1.675 0 3.033 1.217 3.033 2.72 0 1.5-1.358 2.717-3.033 2.717h-1.3" transform="translate(52)"/>
        <path fill="#FFF" stroke="url(#e)" stroke-linecap="round" stroke-linejoin="round" stroke-width="2" d="M11.143 41.89H1.857C.83 41.89 0 41.092 0 40.104V18.666c0-.988.83-1.787 1.857-1.787h9.286c1.027 0 1.857.799 1.857 1.787v21.438c0 .988-.83 1.786-1.857 1.786z" transform="translate(52)"/>
        <path fill="#FFF" stroke="url(#f)" stroke-linecap="round" stroke-linejoin="round" stroke-width="2" d="M9.617 37.54a.95.95 0 1 1-1.9 0 .951.951 0 1 1 1.9 0z" transform="translate(52)"/>
    </g>
</svg>
