<?xml version="1.0" encoding="UTF-8"?>
<svg width="14px" height="15px" viewBox="0 0 14 15" version="1.1" xmlns="http://www.w3.org/2000/svg" xmlns:xlink="http://www.w3.org/1999/xlink">
    <!-- Generator: sketchtool 46.2 (44496) - http://www.bohemiancoding.com/sketch -->
    <title>EB753A7A-0E7D-4723-A341-D77F58BEBB78</title>
    <desc>Created with sketchtool.</desc>
    <defs></defs>
    <g id="Screen-1280" stroke="none" stroke-width="1" fill="none" fill-rule="evenodd">
        <g id="Jobs" transform="translate(-508.000000, -403.000000)" fill-rule="nonzero">
            <g id="Job-cell" transform="translate(328.000000, 241.000000)">
                <g id="Calendar-icon" transform="translate(180.000000, 162.000000)">
                    <path d="M12.6718338,1.43713528 L11.4814951,1.43713528 L11.4814951,2.77102329 C11.4814951,3.34054852 11.0144001,3.8051612 10.4418321,3.8051612 C9.86926414,3.8051612 9.4021692,3.34054852 9.4021692,2.77102329 L9.4021692,1.43713528 L4.50520607,1.43713528 L4.50520607,2.77102329 C4.50520607,3.34054852 4.03811113,3.8051612 3.46554313,3.8051612 C2.89297514,3.8051612 2.42588019,3.34054852 2.42588019,2.77102329 L2.42588019,1.43713528 L1.22047389,1.43713528 C0.542432838,1.43713528 0,1.97668549 0,2.65112325 L0,13.1573648 C0,13.8318026 0.542432838,14.3713528 1.22047389,14.3713528 L12.6718338,14.3713528 C13.3498749,14.3713528 13.8923077,13.8318026 13.8923077,13.1573648 L13.8923077,2.65112325 C13.8923077,1.97668549 13.3498749,1.43713528 12.6718338,1.43713528 Z M13.1841315,13.1573648 C13.1841315,13.4421274 12.9581178,13.66694 12.6718338,13.66694 L1.22047389,13.66694 C0.934189888,13.66694 0.708176206,13.4421274 0.708176206,13.1573648 L0.708176206,6.00832455 L13.1991991,6.00832455 L13.1991991,13.1573648 L13.1841315,13.1573648 Z" id="Shape" fill="#F5A623"></path>
                    <path d="M3.35331565,3.1137931 C3.62101732,3.1137931 3.83236074,2.89137931 3.83236074,2.60965517 L3.83236074,0.504137931 C3.83236074,0.222413793 3.62101732,0 3.35331565,0 C3.08561398,0 2.87427056,0.222413793 2.87427056,0.504137931 L2.87427056,2.60965517 C2.87427056,2.89137931 3.08561398,3.1137931 3.35331565,3.1137931 Z" id="Shape" fill="#F49C20"></path>
                    <path d="M10.2994695,3.1137931 C10.5671712,3.1137931 10.7785146,2.89137931 10.7785146,2.60965517 L10.7785146,0.504137931 C10.7785146,0.222413793 10.5671712,0 10.2994695,0 C10.0317678,0 9.8204244,0.222413793 9.8204244,0.504137931 L9.8204244,2.60965517 C9.83451396,2.89137931 10.0458574,3.1137931 10.2994695,3.1137931 Z" id="Shape" fill="#F49C20"></path>
                    <path d="M4.55680624,8.38328912 L5.98218581,8.38328912 C6.24668923,8.38328912 6.46710875,8.16047745 6.46710875,7.89310345 L6.46710875,6.95729443 C6.46710875,6.68992042 6.24668923,6.46710875 5.98218581,6.46710875 L4.55680624,6.46710875 C4.29230281,6.46710875 4.07188329,6.68992042 4.07188329,6.95729443 L4.07188329,7.89310345 C4.07188329,8.16047745 4.29230281,8.38328912 4.55680624,8.38328912 Z" id="Shape" fill="#F49C20"></path>
                    <path d="M7.43107679,8.38328912 L8.85645636,8.38328912 C9.12095979,8.38328912 9.34137931,8.16047745 9.34137931,7.89310345 L9.34137931,6.95729443 C9.34137931,6.68992042 9.12095979,6.46710875 8.85645636,6.46710875 L7.43107679,6.46710875 C7.16657337,6.46710875 6.94615385,6.68992042 6.94615385,6.95729443 L6.94615385,7.89310345 C6.94615385,8.16047745 7.16657337,8.38328912 7.43107679,8.38328912 Z" id="Shape" fill="#F49C20"></path>
                    <path d="M10.5448699,8.38328912 L11.9702495,8.38328912 C12.2347529,8.38328912 12.4551724,8.16047745 12.4551724,7.89310345 L12.4551724,6.95729443 C12.4551724,6.68992042 12.2347529,6.46710875 11.9702495,6.46710875 L10.5448699,6.46710875 C10.2803665,6.46710875 10.0599469,6.68992042 10.0599469,6.95729443 L10.0599469,7.89310345 C10.0599469,8.16047745 10.2656718,8.38328912 10.5448699,8.38328912 Z" id="Shape" fill="#F49C20"></path>
                    <path d="M1.68253568,10.7785146 L3.10791525,10.7785146 C3.37241868,10.7785146 3.5928382,10.5557029 3.5928382,10.2883289 L3.5928382,9.35251989 C3.5928382,9.08514589 3.37241868,8.86233422 3.10791525,8.86233422 L1.68253568,8.86233422 C1.41803225,8.86233422 1.19761273,9.08514589 1.19761273,9.35251989 L1.19761273,10.2883289 C1.19761273,10.5557029 1.40333762,10.7785146 1.68253568,10.7785146 Z" id="Shape" fill="#F49C20"></path>
                    <path d="M4.55680624,10.7785146 L5.98218581,10.7785146 C6.24668923,10.7785146 6.46710875,10.5557029 6.46710875,10.2883289 L6.46710875,9.35251989 C6.46710875,9.08514589 6.24668923,8.86233422 5.98218581,8.86233422 L4.55680624,8.86233422 C4.29230281,8.86233422 4.07188329,9.08514589 4.07188329,9.35251989 L4.07188329,10.2883289 C4.07188329,10.5557029 4.29230281,10.7785146 4.55680624,10.7785146 Z" id="Shape" fill="#F49C20"></path>
                    <path d="M7.43107679,10.7785146 L8.85645636,10.7785146 C9.12095979,10.7785146 9.34137931,10.5557029 9.34137931,10.2883289 L9.34137931,9.35251989 C9.34137931,9.08514589 9.12095979,8.86233422 8.85645636,8.86233422 L7.43107679,8.86233422 C7.16657337,8.86233422 6.94615385,9.08514589 6.94615385,9.35251989 L6.94615385,10.2883289 C6.94615385,10.5557029 7.16657337,10.7785146 7.43107679,10.7785146 Z" id="Shape" fill="#F49C20"></path>
                    <path d="M10.5448699,10.7785146 L11.9702495,10.7785146 C12.2347529,10.7785146 12.4551724,10.5557029 12.4551724,10.2883289 L12.4551724,9.35251989 C12.4551724,9.08514589 12.2347529,8.86233422 11.9702495,8.86233422 L10.5448699,8.86233422 C10.2803665,8.86233422 10.0599469,9.08514589 10.0599469,9.35251989 L10.0599469,10.2883289 C10.0599469,10.5557029 10.2656718,10.7785146 10.5448699,10.7785146 Z" id="Shape" fill="#F49C20"></path>
                    <path d="M1.68253568,13.1737401 L3.10791525,13.1737401 C3.37241868,13.1737401 3.5928382,12.9509284 3.5928382,12.6835544 L3.5928382,11.7477454 C3.5928382,11.4803714 3.37241868,11.2575597 3.10791525,11.2575597 L1.68253568,11.2575597 C1.41803225,11.2575597 1.19761273,11.4803714 1.19761273,11.7477454 L1.19761273,12.6835544 C1.19761273,12.9509284 1.40333762,13.1737401 1.68253568,13.1737401 Z" id="Shape" fill="#F49C20"></path>
                    <path d="M4.55680624,13.1737401 L5.98218581,13.1737401 C6.24668923,13.1737401 6.46710875,12.9509284 6.46710875,12.6835544 L6.46710875,11.7477454 C6.46710875,11.4803714 6.24668923,11.2575597 5.98218581,11.2575597 L4.55680624,11.2575597 C4.29230281,11.2575597 4.07188329,11.4803714 4.07188329,11.7477454 L4.07188329,12.6835544 C4.07188329,12.9509284 4.29230281,13.1737401 4.55680624,13.1737401 Z" id="Shape" fill="#F49C20"></path>
                    <path d="M7.43107679,13.1737401 L8.85645636,13.1737401 C9.12095979,13.1737401 9.34137931,12.9509284 9.34137931,12.6835544 L9.34137931,11.7477454 C9.34137931,11.4803714 9.12095979,11.2575597 8.85645636,11.2575597 L7.43107679,11.2575597 C7.16657337,11.2575597 6.94615385,11.4803714 6.94615385,11.7477454 L6.94615385,12.6835544 C6.94615385,12.9509284 7.16657337,13.1737401 7.43107679,13.1737401 Z" id="Shape" fill="#F49C20"></path>
                </g>
            </g>
        </g>
    </g>
</svg>