<?xml version="1.0" encoding="UTF-8"?>
<svg width="14px" height="16px" viewBox="0 0 14 16" version="1.1" xmlns="http://www.w3.org/2000/svg" xmlns:xlink="http://www.w3.org/1999/xlink">
    <!-- Generator: sketchtool 46.2 (44496) - http://www.bohemiancoding.com/sketch -->
    <title>17775D1A-E230-430C-962E-EA157ED94ECE</title>
    <desc>Created with sketchtool.</desc>
    <defs></defs>
    <g id="Screen-1280" stroke="none" stroke-width="1" fill="none" fill-rule="evenodd">
        <g id="Jobs" transform="translate(-337.000000, -370.000000)" fill-rule="nonzero" fill="#F49C20">
            <g id="Job-cell" transform="translate(328.000000, 241.000000)">
                <path d="M9,129 L9,145 L12.9487179,145 L12.9487179,141.444446 L14.7435897,141.444446 L14.7435897,145 L18.6923077,145 L18.6923077,129 L9,129 Z M10.0769231,130.066666 L11.8717949,130.066666 L11.8717949,131.844443 L10.0769231,131.844443 L10.0769231,130.066666 Z M12.9487179,130.066666 L14.7435897,130.066666 L14.7435897,131.844443 L12.9487179,131.844443 L12.9487179,130.066666 Z M15.8205128,130.066666 L17.6153846,130.066666 L17.6153846,131.844443 L15.8205128,131.844443 L15.8205128,130.066666 Z M19.0512821,132.199999 L19.0512821,145 L23,145 L23,132.199999 L19.0512821,132.199999 Z M10.0769231,132.91111 L11.8717949,132.91111 L11.8717949,134.688887 L10.0769231,134.688887 L10.0769231,132.91111 Z M12.9487179,132.91111 L14.7435897,132.91111 L14.7435897,134.688887 L12.9487179,134.688887 L12.9487179,132.91111 Z M15.8205128,132.91111 L17.6153846,132.91111 L17.6153846,134.688887 L15.8205128,134.688887 L15.8205128,132.91111 Z M20.1282051,133.266665 L21.9230769,133.266665 L21.9230769,135.044442 L20.1282051,135.044442 L20.1282051,133.266665 Z M10.0769231,135.755553 L11.8717949,135.755553 L11.8717949,137.533336 L10.0769231,137.533336 L10.0769231,135.755553 Z M12.9487179,135.755553 L14.7435897,135.755553 L14.7435897,137.533336 L12.9487179,137.533336 L12.9487179,135.755553 Z M15.8205128,135.755553 L17.6153846,135.755553 L17.6153846,137.533336 L15.8205128,137.533336 L15.8205128,135.755553 Z M20.1282051,136.111109 L21.9230769,136.111109 L21.9230769,137.888891 L20.1282051,137.888891 L20.1282051,136.111109 Z M10.0769231,138.600002 L11.8717949,138.600002 L11.8717949,140.377779 L10.0769231,140.377779 L10.0769231,138.600002 Z M12.9487179,138.600002 L14.7435897,138.600002 L14.7435897,140.377779 L12.9487179,140.377779 L12.9487179,138.600002 Z M15.8205128,138.600002 L17.6153846,138.600002 L17.6153846,140.377779 L15.8205128,140.377779 L15.8205128,138.600002 Z M20.1282051,138.955558 L21.9230769,138.955558 L21.9230769,140.733335 L20.1282051,140.733335 L20.1282051,138.955558 Z M20.1282051,141.800001 L21.9230769,141.800001 L21.9230769,143.577778 L20.1282051,143.577778 L20.1282051,141.800001 Z" id="Company-icon"></path>
            </g>
        </g>
    </g>
</svg>