<?xml version="1.0" encoding="UTF-8"?>
<svg width="15px" height="16px" viewBox="0 0 15 16" version="1.1" xmlns="http://www.w3.org/2000/svg" xmlns:xlink="http://www.w3.org/1999/xlink">
    <!-- Generator: sketchtool 46.2 (44496) - http://www.bohemiancoding.com/sketch -->
    <title>4C72DB12-89A2-4EE0-8536-735FDF09C348</title>
    <desc>Created with sketchtool.</desc>
    <defs></defs>
    <g id="Screen-1280" stroke="none" stroke-width="1" fill="none" fill-rule="evenodd">
        <g id="Jobs" transform="translate(-337.000000, -402.000000)" fill-rule="nonzero" fill="#F49C20">
            <g id="Job-cell" transform="translate(328.000000, 241.000000)">
                <path d="M18.5404812,171.489078 C19.6090151,171.728953 20.4485775,172.688452 20.4485775,173.855117 C20.4485775,175.185333 19.3800436,176.26477 18.0498279,176.26477 C16.926777,176.26477 15.9018567,175.457918 15.6837886,174.356674 C17.1775553,174.160412 18.3551233,172.961038 18.5404812,171.489078 Z M15.2258455,168.632385 C16.5560611,168.632385 17.6354984,169.722726 17.6354984,171.031135 C17.6354984,172.350447 16.5560611,173.451691 15.2258455,173.451691 C13.92834,173.451691 12.8270959,172.404964 12.8270959,171.042038 C12.8270959,169.744533 13.8411128,168.632385 15.2258455,168.632385 Z M9,167.542044 L9,161 L11.1806814,161 L11.1806814,167.542044 L9,167.542044 Z M12.2710221,167.542044 L12.2710221,162.766352 C13.2741356,162.450153 14.4080899,162.090341 15.6510783,162.090341 C18.9330039,162.090341 21.32085,164.052954 23.4579178,165.590334 C24.0357984,166.004664 24.1121223,166.549834 23.8722473,166.909647 C23.6650826,167.225845 23.2071395,167.4003 22.6401623,167.225845 L20.0233446,166.397187 C20.0233446,165.524914 18.9548107,164.87071 18.3551233,164.87071 L14.7460956,164.87071 C14.811516,165.197812 15.2694591,165.742982 16.4906407,165.742982 L18.2460892,165.742982 C18.9002937,165.742982 19.2164925,166.190022 19.2164925,166.637061 C19.2164925,167.084101 18.8893903,167.542044 18.2460892,167.542044 L12.2710221,167.542044 Z" id="Paid-icon" transform="translate(16.500000, 168.632385) scale(-1, 1) rotate(-180.000000) translate(-16.500000, -168.632385) "></path>
            </g>
        </g>
    </g>
</svg>