<svg xmlns="http://www.w3.org/2000/svg" width="24" height="43" viewBox="0 0 24 43">
    <g fill="#FFF" fill-rule="nonzero">
        <path d="M12 32C5.373 32 0 26.627 0 20v-8C0 5.373 5.373 0 12 0s12 5.373 12 12v8a12 12 0 0 1-12 12zm0-30C6.477 2 2 6.477 2 12v8c0 5.523 4.477 10 10 10s10-4.477 10-10v-8A10 10 0 0 0 12 2zM12 42.41l-5.66-5.65a1 1 0 0 1 1.41-1.41L12 39.59l4.24-4.24a1 1 0 0 1 1.41 1.41L12 42.41z"/>
        <path d="M12 13a1 1 0 0 1-1-1V6a1 1 0 0 1 2 0v6a1 1 0 0 1-1 1z"/>
    </g>
</svg>
