<svg xmlns="http://www.w3.org/2000/svg" width="160" height="34" viewBox="0 0 160 34">
    <g fill="#F2F2F2" fill-rule="nonzero">
        <path d="M8.725 5.812a1.734 1.734 0 0 0-.488 1.22v1.745c0 .465.163.93.488 1.22.325.349.705.523 1.138.523h11.435c.65 0 1.3.116 1.897.407.596.29 1.138.64 1.571 1.104.434.465.759 1.047 1.03 1.686.27.64.38 1.337.38 2.034v5.29c0 .697-.11 1.394-.38 2.034-.271.64-.596 1.22-1.03 1.685-.433.465-.975.814-1.571 1.105-.596.29-1.247.407-1.897.407H0v-5.29h16.366c.434 0 .867-.174 1.138-.523.326-.348.488-.755.488-1.22v-1.744c0-.465-.162-.93-.488-1.22-.325-.35-.704-.524-1.138-.524H4.932c-.65 0-1.301-.116-1.897-.407-.596-.29-1.138-.639-1.572-1.104-.433-.465-.758-1.046-1.03-1.685-.27-.64-.379-1.337-.379-2.035V5.231c0-.697.109-1.395.38-2.034.27-.64.596-1.22 1.03-1.686.433-.465.975-.814 1.57-1.104C3.632.117 4.282 0 4.933 0H26.23v5.29H9.863a2.087 2.087 0 0 0-1.138.522zM37.07 33.185h-8.218V12.133c0-.696.11-1.392.381-2.03.272-.638.599-1.218 1.034-1.682.436-.464.98-.812 1.578-1.101.6-.29 1.252-.406 1.905-.406h16.434c.653 0 1.306.116 1.905.406.599.29 1.143.637 1.578 1.101.435.464.762 1.044 1.034 1.682.272.638.381 1.334.381 2.03v8.757c0 .696-.109 1.392-.381 2.03-.272.638-.599 1.218-1.034 1.682-.435.464-.98.812-1.578 1.102-.599.29-1.252.406-1.905.406H38.702v-5.278h6.585c.435 0 .87-.174 1.142-.522.327-.348.49-.754.49-1.218v-5.277c0-.464-.163-.928-.49-1.218-.326-.348-.707-.522-1.142-.522h-6.585c-.435 0-.87.174-1.143.522-.326.348-.49.754-.49 1.218v19.37zM64.262 5.278h-7.869V0h7.87v5.278zm-7.869 1.74h7.87v19.254h-7.87V7.017zM85.246 12.237h-10.01v7.017c0 .464.166.928.498 1.218.332.348.719.522 1.161.522h8.35v5.278H71.864c-.664 0-1.328-.116-1.936-.406-.608-.29-1.161-.638-1.604-1.102-.442-.464-.774-1.044-1.05-1.682-.277-.638-.388-1.334-.388-2.03V0h8.351v7.017h10.01v5.22zM94.775 19.34c0 .466.163.932.49 1.223.326.35.707.524 1.142.524h6.585c.435 0 .87-.175 1.142-.524.327-.35.49-.757.49-1.223v-5.301c0-.466-.163-.932-.49-1.224-.326-.35-.707-.524-1.142-.524h-6.585v-5.3h11.482c.653 0 1.306.116 1.905.407.598.291 1.143.64 1.578 1.107.435.466.762 1.048 1.034 1.69.272.64.38 1.339.38 2.038v8.796c0 .699-.108 1.398-.38 2.039-.272.64-.599 1.223-1.034 1.689-.435.466-.98.816-1.578 1.107-.599.291-1.252.408-1.905.408H91.455c-.653 0-1.306-.117-1.905-.408-.598-.291-1.142-.641-1.578-1.107-.435-.466-.762-1.049-1.034-1.69-.272-.64-.38-1.34-.38-2.038V0h8.217v19.34zM132.11 13.948c0-.466-.163-.93-.489-1.221-.327-.349-.707-.523-1.143-.523h-6.584c-.436 0-.871.174-1.143.523a1.73 1.73 0 0 0-.49 1.22v5.29c0 .466.163.93.49 1.221.326.35.707.524 1.143.524h6.584v5.29h-11.482c-.653 0-1.306-.117-1.905-.407-.598-.291-1.142-.64-1.578-1.105-.435-.465-.762-1.046-1.034-1.686-.272-.64-.38-1.337-.38-2.034v-8.895c0-.697.108-1.395.38-2.034.272-.64.599-1.22 1.034-1.686.436-.465.98-.814 1.578-1.105.599-.29 1.252-.406 1.905-.406h16.434c.653 0 1.306.116 1.905.406.598.291 1.143.64 1.578 1.105.435.465.762 1.046 1.034 1.686.272.64.38 1.337.38 2.034v14.068h-8.216V13.948zM142.95 0h7.87v26.272h-7.87zM152.131 0H160v26.272h-7.869z"/>
    </g>
</svg>
