<svg xmlns="http://www.w3.org/2000/svg" xmlns:xlink="http://www.w3.org/1999/xlink" width="16" height="22" viewBox="0 0 16 22">
    <defs>
        <path id="a" d="M0 .177h15.71V21.12H0z"/>
    </defs>
    <g fill="none" fill-rule="evenodd">
        <g transform="translate(0 .629)">
            <mask id="b" fill="#fff">
                <use xlink:href="#a"/>
            </mask>
            <path fill="#6F6E82" d="M4.021 19.76c-.483 0-.966.003-1.449 0-.06 0-.12-.002-.18-.007.038.007.075.013.114.018l-.18-.024.065.006a1.78 1.78 0 0 1-.186-.045c-.042-.013-.09-.039-.133-.047l.047.022a.885.885 0 0 1-.058-.025l.011.003-.02-.01a1.786 1.786 0 0 1-.23-.14 1.333 1.333 0 0 1 0 0l-.005-.003c-.036-.034-.073-.066-.108-.102-.035-.035-.067-.072-.1-.11-.003 0-.004-.003-.005-.005l.04.057a2.45 2.45 0 0 1-.062-.082l.02.024c0-.001 0-.002-.002-.003a1.912 1.912 0 0 1-.134-.225l-.01-.021a.064.064 0 0 1 .002.011c-.02-.049-.034-.078-.039-.09a1.998 1.998 0 0 0 .037.079c-.009-.044-.034-.092-.047-.133a1.83 1.83 0 0 1-.05-.22c.002.033.005.066.009.098l-.022-.18.013.083c-.013-.184-.008-.37-.008-.554V5.012c.057.031.116.06.176.086l.02.009c.361.151.741.21 1.134.216h4.725v6.211c0 .272.172.517.418.62.267.114.521.037.74-.14l1.183-.965.972.794.209.171.056.044a.612.612 0 0 0 .427.155h.01a.683.683 0 0 0 .462-.199l.009-.01a.659.659 0 0 0 .194-.47v-6.21h1.094c.391 0 .783.003 1.174.002V18.5c0 .42-.007.84-.007 1.26H4.021zM8.757 5.323h1.979v4.796l-.304-.247-.208-.17c-.138-.112-.292-.208-.478-.2a.775.775 0 0 0-.478.2l-.51.416V5.323zM.004 2.751h.002a1.126 1.126 0 0 0-.002 0zm15.701 1.924v-.018V4.639c0-.355-.31-.696-.676-.679a.594.594 0 0 0-.054.005H3.968c-.465 0-.931 0-1.397-.003a1.87 1.87 0 0 1-.162-.007l.097.015-.18-.024c.027.004.055.007.083.009a1.84 1.84 0 0 1-.204-.049c-.042-.012-.09-.039-.133-.047a1.977 1.977 0 0 0 .079.037l-.09-.04.011.003a1.96 1.96 0 0 1-.248-.147l.023.019a1.96 1.96 0 0 1-.023-.02.567.567 0 0 1-.007-.005c-.036-.034-.073-.066-.108-.101-.035-.036-.067-.073-.1-.11l-.003-.002.038.053a.526.526 0 0 1-.04-.055c0-.002-.002-.004-.004-.006a1.885 1.885 0 0 1-.134-.225l-.01-.02a.055.055 0 0 1 .002.01l-.039-.09a2.992 2.992 0 0 0 .037.08c-.009-.045-.034-.093-.047-.134a1.856 1.856 0 0 1-.046-.195l.007.073-.015-.113-.009-.068.01.06-.003-.088.002-.024v-.005a.67.67 0 0 0-.006-.081v0l.024-.177-.01.093c.014-.073.031-.145.053-.216.01-.03.043-.09.049-.128a2.097 2.097 0 0 0-.024.048c.011-.025.025-.055.025-.06l-.001.012a1.94 1.94 0 0 1 .125-.212.075.075 0 0 1-.018.017c.009-.008.034-.043.05-.064l-.005.006-.026.04c.011-.014.023-.033.032-.043a1.777 1.777 0 0 1 .195-.194l.003-.003-.041.03a1.997 1.997 0 0 1 .042-.031c.076-.053.156-.101.238-.143l.026-.013-.022.009c-.076.025.142-.066.07-.03l-.048.021c.04-.013.08-.028.12-.04.054-.017.11-.03.166-.041l-.05.005c.06-.008.119-.018.179-.027a2.724 2.724 0 0 0-.13.022c.155-.014.31-.008.465-.008h10.31c.498 0 .996.008 1.493-.002l.02-.001c.354 0 .693-.311.676-.678-.016-.368-.297-.678-.675-.678H3.096c-.174 0-.348-.003-.523-.002C1.622.183.676.727.27 1.611c-.148.321-.24.669-.26 1.02a.693.693 0 0 0-.01.115v15.5c0 .32.004.632.084.949.285 1.136 1.346 1.921 2.498 1.924.66.002 1.322 0 1.982 0H15.03c.366 0 .676-.31.676-.678V6.581c0-.635.012-1.271 0-1.906z" mask="url(#b)"/>
        </g>
        <path fill="#6F6E82" d="M8.277 19.486h3.256c.344 0 .673-.342.657-.755-.016-.414-.289-.754-.657-.754H8.277c-.344 0-.673.341-.657.754.015.415.288.755.657.755"/>
    </g>
</svg>
