<svg xmlns="http://www.w3.org/2000/svg" xmlns:xlink="http://www.w3.org/1999/xlink" width="21" height="14" viewBox="0 0 21 14">
    <defs>
        <path id="prefix__a" d="M0 0L21 0 21 14 0 14z"/>
    </defs>
    <g fill="none" fill-rule="evenodd">
        <mask id="prefix__b" fill="#fff">
            <use xlink:href="#prefix__a"/>
        </mask>
        <path fill="#6f6e82" d="M20.936 1.834L15.525 7.08l5.41 5.256c.024.023.045.046.065.067V1.764c-.02.024-.043.045-.064.07zm-6.532 6.335l-1.09 1.059a3.913 3.913 0 01-2.73 1.099 3.9 3.9 0 01-2.729-1.104L6.597 8.001l-5.56 5.395c-.271.258-.414.485-.465.604h19.75a2.602 2.602 0 00-.356-.428L14.404 8.17zM6.597 5.82L7.72 6.913l1.11 1.08a2.51 2.51 0 001.755.69 2.516 2.516 0 001.757-.69l.937-.912 1.125-1.09L19.962.6c.266-.257.41-.478.462-.6H.682c.077.12.185.258.355.42l5.56 5.401zM.063 1.654C.04 1.633.023 1.61 0 1.587v10.64l.064-.068 5.411-5.246L.063 1.654z" mask="url(#prefix__b)"/>
    </g>
</svg>
