<svg xmlns="http://www.w3.org/2000/svg" width="20" height="12" viewBox="0 0 20 12">
    <g fill="none" fill-rule="evenodd">
        <path d="M0 0L24 0 24 24 0 24z" transform="translate(-2 -6)"/>
        <path fill="#6F6E82" fill-rule="nonzero" d="M3.901 11.859a3.103 3.103 0 013.154-3.046l4 .07.032-1.9-3.999-.07a5.002 5.002 0 00-5.086 4.912 5.002 5.002 0 004.911 5.087l4 .07.033-1.9-4-.07a3.103 3.103 0 01-3.045-3.153zm4.082 1.071l7.999.14.035-2-7.999-.14-.035 2zm9.104-5.842l-4-.07-.033 1.9 4 .07a3.103 3.103 0 013.045 3.153 3.103 3.103 0 01-3.154 3.046l-4-.07-.032 1.9 3.999.07a5.002 5.002 0 005.086-4.912 5.002 5.002 0 00-4.911-5.087z" transform="translate(-2 -6)"/>
    </g>
</svg>
