<svg xmlns="http://www.w3.org/2000/svg" viewBox="0 0 21 16">
    <path fill="#6f6e82" fill-rule="evenodd" d="M20.991 1.875c-.77.316-1.6.53-2.47.626.887-.493 1.569-1.277 1.894-2.208a9.017 9.017 0 01-2.74.968C16.894.487 15.776 0 14.535 0c-2.376 0-4.304 1.788-4.304 3.993 0 .313.037.617.108.91C6.762 4.737 3.586 3.145 1.465.731a3.748 3.748 0 00-.587 2.008c0 1.384.763 2.605 1.918 3.322a4.536 4.536 0 01-1.952-.5v.05c0 .513.105 1 .295 1.447.525 1.254 1.712 2.198 3.163 2.469a4.709 4.709 0 01-1.95.07c.553 1.584 2.143 2.738 4.024 2.772-1.474 1.07-3.329 1.708-5.349 1.708-.346 0-.688-.021-1.027-.057a12.899 12.899 0 006.603 1.794c6.731 0 10.87-4.393 11.961-8.95a10.3 10.3 0 00.282-2.925 8.42 8.42 0 002.145-2.064"/>
</svg>
