<svg xmlns="http://www.w3.org/2000/svg" viewBox="0 0 21 20">
    <g fill="#6f6e82" fill-rule="evenodd">
        <path d="M20.984 9.383C20.846 4.18 16.29 0 10.687 0 5.146 0 .631 4.083.394 9.203c-.007.14-.014.28-.014.424 0 1.818.542 3.519 1.477 4.97L0 19.764l5.705-1.705a10.872 10.872 0 004.982 1.198c5.691 0 10.304-4.313 10.304-9.63 0-.08-.003-.164-.007-.244m-10.297 8.34c-1.762 0-3.4-.494-4.768-1.341l-3.33.997 1.082-3.006c-1.034-1.334-1.647-2.975-1.647-4.746 0-.267.014-.527.04-.784.424-4.1 4.129-7.312 8.623-7.312 4.549 0 8.288 3.296 8.633 7.462.017.21.03.42.03.634 0 4.463-3.887 8.096-8.663 8.096"/>
        <path d="M15.405 11.568c-.25-.116-1.495-.687-1.724-.767-.235-.077-.4-.117-.57.12-.17.233-.654.767-.8.925-.15.156-.295.176-.546.059-.254-.12-1.068-.367-2.033-1.17-.75-.627-1.258-1.402-1.404-1.635-.149-.237-.017-.364.109-.484.115-.103.254-.273.38-.413.037-.04.064-.077.091-.11.064-.09.102-.17.162-.284.085-.157.04-.294-.02-.413-.065-.118-.57-1.278-.78-1.752-.21-.474-.42-.394-.569-.394-.149 0-.315-.02-.484-.02-.17 0-.441.06-.672.297-.233.237-.884.807-.884 1.969 0 .273.05.543.128.804.255.833.804 1.517.902 1.637.125.157 1.75 2.615 4.315 3.563 2.569.944 2.569.63 3.03.59.464-.04 1.495-.57 1.708-1.124.207-.55.207-1.024.146-1.12-.064-.101-.23-.158-.485-.278"/>
    </g>
</svg>
