<svg xmlns="http://www.w3.org/2000/svg" style="display: none;">
    <symbol id="privateBox" viewBox="0 0 46 41">
        <path d="M44.5,6.4l-2.3-2.7c-0.1-0.2-0.3-0.3-0.4-0.5c-0.6-0.7-1-1.2-1.4-1.2h-35C4.8,2,4.1,2.5,3.5,3.5L1.7,6.2L0,5
	l1.8-2.6C3.1,0.4,4.4,0,5.3,0h35c1.4,0,2.3,1,3,1.9c0.1,0.1,0.2,0.3,0.4,0.4L46,5.1L44.5,6.4z" />
        <path d="M28.9,19.8H17.7c-2.2,0-3.8-2.3-3.8-4.4c0-2,1.6-4.3,3.8-4.3h11.1c2.2,0,3.8,2.3,3.8,4.3
	C32.7,17.4,31.1,19.8,28.9,19.8z M17.7,13.1c-0.9,0-1.8,1.3-1.8,2.3c0,1,0.9,2.4,1.8,2.4h11.1c0.9,0,1.8-1.3,1.8-2.4
	c0-1-0.8-2.3-1.8-2.3H17.7z" />
        <path d="M40,41H6c-3.3,0-6-2.7-6-6V5h46v30C46,38.3,43.3,41,40,41z M2,7v28c0,2.2,1.8,4,4,4h34c2.2,0,4-1.8,4-4V7H2z" />
    </symbol>
    <symbol id="icon1" viewBox="0 0 31.9 46">
        <path fill-rule="evenodd" clip-rule="evenodd" d="M20.7,26.5h6.2v13.7h-6.2V26.5z" />
        <path fill-rule="evenodd" clip-rule="evenodd" d="M12.8,34.3h5.9v5.9h-5.9V34.3z" />
        <path fill-rule="evenodd" clip-rule="evenodd" d="M4.9,34.3h5.9v5.9H4.9V34.3z" />
        <path fill-rule="evenodd" clip-rule="evenodd" d="M12.8,26.3h5.9v5.9h-5.9V26.3z" />
        <path fill-rule="evenodd" clip-rule="evenodd" d="M4.9,26.3h5.9v5.9H4.9V26.3z" />
        <path fill-rule="evenodd" clip-rule="evenodd" d="M20.7,18.3h5.9v5.9h-5.9V18.3z" />
        <path fill-rule="evenodd" clip-rule="evenodd" d="M12.8,18.3h5.9v5.9h-5.9V18.3z" />
        <path fill-rule="evenodd" clip-rule="evenodd" d="M4.9,18.3h5.9v5.9H4.9V18.3z" />
        <path fill-rule="evenodd" clip-rule="evenodd" d="M5,5.8h21.9V15H5V5.8z" />
        <path d="M28.9,2c0.6,0,1,0.4,1,1v40c0,0.6-0.4,1-1,1H3c-0.6,0-1-0.4-1-1V3c0-0.6,0.4-1,1-1H28.9 M28.9,0H3
	C1.3,0,0,1.3,0,3v40c0,1.7,1.3,3,3,3h25.9c1.7,0,3-1.3,3-3V3C31.9,1.3,30.6,0,28.9,0L28.9,0z" />
    </symbol>
    <symbol id="icon2" viewBox="0 0 41.4 22.2">
        <path d="M20.3,1C27.9,1,34,7.1,34,14.7c0,0.3,0,0.5,0,0.8h5.6c0.5,0,0.8,0.4,0.8,0.8v4.1c0,0.5-0.4,0.8-0.8,0.8H1.8
	c-0.5,0-0.8-0.4-0.8-0.8v-4.1c0-0.5,0.4-0.8,0.8-0.8h4.8c0-0.2,0-0.5,0-0.8C6.7,7.1,12.8,1,20.3,1 M12,15c0.3,0,16.2,0,16.6,0
	c0-4.6-3.7-8.3-8.3-8.3C15.7,6.7,12,10.4,12,15 M20.3,0c-8,0-14.5,6.5-14.7,14.4H1.8c-1,0-1.8,0.8-1.8,1.8v4.1c0,1,0.8,1.8,1.8,1.8
	h37.7c1,0,1.8-0.8,1.8-1.8v-4.1c0-1-0.8-1.8-1.8-1.8H35C34.9,6.5,28.3,0,20.3,0L20.3,0z M13.1,14c0.5-3.6,3.6-6.3,7.3-6.3
	c3.7,0,6.8,2.8,7.3,6.3H13.1L13.1,14z" />
        <path fill-rule="evenodd" clip-rule="evenodd" d="M32.7,18.7c0.6,0,1,0.4,1,1V21c0,0.6-0.4,1-1,1c-0.6,0-1-0.4-1-1
	v-1.3C31.7,19.2,32.2,18.7,32.7,18.7z" />
        <path fill-rule="evenodd" clip-rule="evenodd" d="M24.7,18.7c0.6,0,1,0.4,1,1V21c0,0.6-0.4,1-1,1s-1-0.4-1-1v-1.3
	C23.7,19.2,24.2,18.7,24.7,18.7z" />
        <path fill-rule="evenodd" clip-rule="evenodd" d="M16.7,18.7c0.6,0,1,0.4,1,1V21c0,0.6-0.4,1-1,1s-1-0.4-1-1v-1.3
	C15.7,19.2,16.2,18.7,16.7,18.7z" />
        <path fill-rule="evenodd" clip-rule="evenodd" d="M8.7,18.7c0.6,0,1,0.4,1,1V21c0,0.6-0.4,1-1,1s-1-0.4-1-1v-1.3
	C7.7,19.2,8.2,18.7,8.7,18.7z" />
    </symbol>
    <symbol id="icon3" viewBox="0 0 34.5 38.3">
        <path d="M26.9,31.8c-4.2,0-9.4-1.6-14.3-4.5c-4.3-2.5-7.9-5.6-10.2-8.8C0,15-0.6,11.9,0.7,9.6c1.2-2,3.5-3.1,6.9-3.1
	C11.8,6.5,17,8.2,22,11c4.3,2.5,7.9,5.6,10.2,8.8c2.4,3.4,3,6.6,1.7,8.9C32.7,30.7,30.3,31.8,26.9,31.8z M7.6,8.5
	c-2.6,0-4.4,0.7-5.2,2.1c-0.9,1.6-0.3,4,1.6,6.7c2.1,3,5.5,5.9,9.6,8.2c4.6,2.7,9.5,4.2,13.3,4.2c2.6,0,4.4-0.7,5.2-2
	c0.9-1.6,0.3-4-1.6-6.7c-2.1-3-5.5-5.9-9.6-8.2C16.3,10.1,11.5,8.5,7.6,8.5z" />
        <path d="M7.6,31.7c-3.4,0-5.8-1.1-6.9-3c-1.3-2.3-0.7-5.4,1.7-8.9c2.3-3.2,5.9-6.3,10.2-8.8
	c4.9-2.9,10.2-4.5,14.3-4.5c3.4,0,5.8,1.1,6.9,3c1.3,2.3,0.7,5.4-1.7,8.9c-2.3,3.2-5.9,6.3-10.2,8.8C17,30.1,11.8,31.7,7.6,31.7z
	 M26.9,8.5c-3.8,0-8.7,1.5-13.3,4.2C9.5,15.1,6.1,18,4,21c-1.9,2.7-2.5,5.2-1.6,6.7c0.8,1.3,2.6,2,5.2,2c3.8,0,8.7-1.5,13.3-4.2
	c4.1-2.4,7.5-5.3,9.6-8.2c1.9-2.7,2.5-5.2,1.6-6.7C31.3,9.2,29.5,8.5,26.9,8.5z" />
        <path d="M17.3,38.3c-5.3,0-9.4-8.4-9.4-19.1S12,0,17.3,0s9.4,8.4,9.4,19.1S22.5,38.3,17.3,38.3z M17.3,2
	c-3.6,0-7.4,6.9-7.4,17.1s3.8,17.1,7.4,17.1s7.4-6.9,7.4-17.1S20.8,2,17.3,2z" />
        <path fill-rule="evenodd" clip-rule="evenodd" d="M17.6,14.7c2.4,0,4.4,2,4.4,4.4c0,2.4-2,4.4-4.4,4.4
	c-2.4,0-4.4-2-4.4-4.4C13.2,16.6,15.2,14.7,17.6,14.7z" />
    </symbol>
    <symbol id="icon4" viewBox="0 0 31.2 44.7">
        <path fill-rule="evenodd" clip-rule="evenodd" d="M21.6,37.3l-1.1-1.9c-0.1-0.2,0-0.4,0.1-0.5l8.9-4.7
	c0.2-0.1,0.4,0,0.5,0.1l1.1,1.9c0.1,0.2,0,0.4-0.1,0.5l-8.9,4.7C21.9,37.6,21.7,37.5,21.6,37.3z" />
        <path fill-rule="evenodd" clip-rule="evenodd" d="M26.1,28.9l-1.3-2.2l0.3-0.2c0.5-0.3,0.6-0.8,0.3-1.3L12.1,1.6
	c-0.3-0.5-0.8-0.7-1.3-0.4l-0.5,0.3L9.6,0.3C9.4,0,9.1-0.1,8.8,0.1L5.9,1.7C5.6,1.9,5.5,2.3,5.7,2.5l0.7,1.1L6,3.9
	C5.6,4.2,5.4,4.8,5.7,5.3l13.5,23.5c0.3,0.5,0.8,0.6,1.3,0.3l0.5-0.3l1.3,2.2c0.2,0.3,0.5,0.4,0.8,0.2l2.9-1.7
	C26.2,29.5,26.3,29.1,26.1,28.9z" />
        <path d="M30.2,39.9H10.4c-1-2.5-1.6-5.3-1.6-8.2c0-4.4,1.3-8.4,3.6-11.8l-2.7-4.8C6,19.7,3.8,25.4,3.8,31.7
	c0,2.9,0.5,5.6,1.3,8.2H0.6c-0.3,0-0.6,0.3-0.6,0.6v3.7c0,0.3,0.3,0.6,0.6,0.6h29.6c0.3,0,0.6-0.3,0.6-0.6v-3.7
	C30.7,40.1,30.5,39.9,30.2,39.9z" />
    </symbol>
    <symbol id="icon5" viewBox="179 1.7 602.1 556.7">
        <path d="M186.4,405.6v-22.7h590.3v22.7H186.4z" />
        <path d="M616.2,323.9c19.7,0,34.8,31.8,34.8,69.6s-15.1,69.6-34.8,69.6s-34.8-31.8-34.8-69.6
	S596.5,323.9,616.2,323.9z" />
        <path d="M540.5,323.9c19.7,0,34.8,31.8,34.8,69.6s-15.1,69.6-34.8,69.6s-34.8-31.8-34.8-69.6
	S520.9,323.9,540.5,323.9z" />
        <path d="M691.9,323.9c19.7,0,34.8,31.8,34.8,69.6s-15.1,69.6-34.8,69.6s-34.8-31.8-34.8-69.6
	S672.2,323.9,691.9,323.9z" />
        <path d="M691.9,112c19.7,0,34.8,31.8,34.8,69.6s-15.1,69.6-34.8,69.6s-34.8-31.8-34.8-69.6S672.2,112,691.9,112z" />
        <path d="M434.6,112c19.7,0,34.8,31.8,34.8,69.6s-15.1,69.6-34.8,69.6c-19.7,0-34.8-31.8-34.8-69.6
	S414.9,112,434.6,112z" />
        <path d="M358.9,112c19.7,0,34.8,31.8,34.8,69.6s-15.1,69.6-34.8,69.6c-19.7,0-34.8-31.8-34.8-69.6
	S339.2,112,358.9,112z" />
        <path d="M283.2,112c19.7,0,34.8,31.8,34.8,69.6s-15.1,69.6-34.8,69.6c-19.7,0-34.8-31.8-34.8-69.6
	S263.6,112,283.2,112z" />
        <path d="M186.4,193.7V171h590.3v22.7H186.4z" />
        <path d="M752.4,558.4H207.6c-15.8,0-28.6-12.8-28.6-28.6V30.3c0-16.6,12-28.6,28.6-28.6h544.9
	c15.8,0,28.6,12.8,28.6,28.6v499.5C781.1,545.5,768.2,558.4,752.4,558.4z M206.1,28.9c-0.1,0.1-0.2,0.6-0.2,1.4v499.5
	c0,1.5,1.6,1.6,1.6,1.6h544.9c1.5,0,1.6-1.6,1.6-1.6V30.3c0-1.5-1.6-1.6-1.6-1.6H207.6C206.7,28.6,206.3,28.8,206.1,28.9z" />
    </symbol>
    <symbol id="icon6" viewBox="0 0 31.2 31.4">
        <polygon fill-rule="evenodd" clip-rule="evenodd" points="2.2,24.7 0,31.4 6.5,29 	" />
        <rect x="1.5" y="12.8" transform="matrix(0.7071 -0.7071 0.7071 0.7071 -6.7165 15.5176)" fill-rule="evenodd" clip-rule="evenodd" width="27.8" height="6.2" />
        <path fill-rule="evenodd" clip-rule="evenodd" d="M31,3.4l-3.1-3.1c-0.4-0.4-0.9-0.4-1.3,0l-2.1,2.1l4.4,4.4L31,4.7
		C31.3,4.3,31.3,3.7,31,3.4z" />
    </symbol>
    <symbol id="icon7" viewBox="261.6 2.5 436.8 556.3">
        <path d="M529.4,2.6h88.4v137.7L573.5,91l-44.2,49.4V2.6H529.4z" />
        <path d="M433.2,188.4H606c5.2,0,10.4,7.8,10.4,18.2V243c0,10.4-5.2,18.2-10.4,18.2H433.2c-5.2,0-10.4-7.8-10.4-18.2
	v-35.1C422.8,197.5,428,188.4,433.2,188.4z" />
        <path d="M361.8,13v544.4L272.1,547V13H361.8z" />
        <path d="M667.1,558.8H292.9c-17.5,0-31.3-13.7-31.3-31.3V33.8c0-17.5,13.7-31.3,31.3-31.3h374.2
	c17.5,0,31.3,13.7,31.3,31.3v493.7C698.4,545.1,684.6,558.8,667.1,558.8z M292.9,23.5c-5.9,0-10.3,4.4-10.3,10.3v493.7
	c0,5.9,4.4,10.3,10.3,10.3h374.2c5.9,0,10.3-4.4,10.3-10.3V33.8c0-5.9-4.4-10.3-10.3-10.3H292.9z" />
    </symbol>
    <symbol id="icon8" viewBox="0 0 28.1 44.8">
        <path fill-rule="evenodd" clip-rule="evenodd" d="M16.2,20.7c1,0,1.8,0.8,1.8,1.8c0,1-0.8,1.8-1.8,1.8
	c-1,0-1.8-0.8-1.8-1.8C14.5,21.5,15.3,20.7,16.2,20.7z" />
        <path fill-rule="evenodd" clip-rule="evenodd" d="M11.3,23.9c2,0,3.6,1.6,3.6,3.6s-1.6,3.6-3.6,3.6s-3.6-1.6-3.6-3.6
	S9.3,23.9,11.3,23.9z" />
        <path fill-rule="evenodd" clip-rule="evenodd" d="M26.8,27.8c0,0,0.3,1.6,0.3,2.5c0,7.2-5.8,13.1-13.1,13.1
	S1,37.5,1,30.3c0-1.1,0.4-2.6,0.4-2.6L26.8,27.8z" />
        <path d="M19.8,2c0.8,0,1.4,0.6,1.4,1.4s-0.6,1.4-1.4,1.4h-1.9l0.1,14.5c4.8,1.6,8.2,6.1,8.2,11.4
	c0,6.7-5.4,12.1-12.1,12.1C7.4,42.8,2,37.4,2,30.7c0-5.5,3.6-10.1,8.6-11.6l0-14.4H8.3C7.6,4.8,7,4.1,7,3.4S7.6,2,8.3,2H19.8
		M19.8,0H8.3C6.5,0,5,1.5,5,3.4c0,1.9,1.5,3.4,3.4,3.4h0.3l0,11C3.5,19.9,0,25,0,30.7c0,7.8,6.3,14.1,14.1,14.1
	c7.8,0,14.1-6.3,14.1-14.1c0-5.5-3.2-10.5-8.2-12.8L19.9,6.8c1.8-0.1,3.3-1.6,3.3-3.4C23.1,1.5,21.6,0,19.8,0L19.8,0z" />
    </symbol>
    <symbol id="icon9" viewBox="0 0 47.5 39.4">
        <path fill-rule="evenodd" clip-rule="evenodd" d="M0,37.2V1.3C0,0.6,0.6,0,1.3,0s1.3,0.6,1.3,1.3v35.8
	c0,0.7-0.6,1.3-1.3,1.3S0,37.9,0,37.2z" />
        <path fill-rule="evenodd" clip-rule="evenodd" d="M1.3,36.7h44.8c0.7,0,1.3,0.6,1.3,1.3c0,0.7-0.6,1.3-1.3,1.3H1.3
	c-0.7,0-1.3-0.6-1.3-1.3C0,37.3,0.6,36.7,1.3,36.7z" />
        <path fill-rule="evenodd" clip-rule="evenodd" d="M35.1,13.4h4.3c1.5,0,2.7,1.2,2.7,2.7v16.3c0,1.5-1.2,2.7-2.7,2.7
	h-4.3c-1.5,0-2.7-1.2-2.7-2.7V16.1C32.4,14.6,33.6,13.4,35.1,13.4z" />
        <path fill-rule="evenodd" clip-rule="evenodd" d="M22.6,20.6h4.3c1.5,0,2.7,1.2,2.7,2.7v9.1c0,1.5-1.2,2.7-2.7,2.7
	h-4.3c-1.5,0-2.7-1.2-2.7-2.7v-9.1C19.9,21.8,21.1,20.6,22.6,20.6z" />
        <path fill-rule="evenodd" clip-rule="evenodd" d="M10,4.5h4.3c1.5,0,2.7,1.2,2.7,2.7v25.3c0,1.5-1.2,2.7-2.7,2.7H10
	c-1.5,0-2.7-1.2-2.7-2.7V7.2C7.3,5.7,8.5,4.5,10,4.5z" />
    </symbol>
    <symbol id="icon10" viewBox="0 0 50.5 24.8">
        <path fill-rule="evenodd" clip-rule="evenodd" d="M49.2,9.6h-0.7V5.8h0.7V9.6z" />
        <path fill-rule="evenodd" clip-rule="evenodd" d="M48.9,9.5c0.6,0,1.1,0.5,1.1,1.1v4.5c0,0.6-0.5,1.1-1.1,1.1
	c-0.6,0-1.1-0.5-1.1-1.1v-4.5C47.7,10,48.2,9.5,48.9,9.5z" />
        <path fill-rule="evenodd" clip-rule="evenodd" d="M25.3,0.5l24.7,5l-24.7,5.3L0.5,5.7L25.3,0.5z" />
        <path fill-rule="evenodd" clip-rule="evenodd" d="M25.4,12.7L11.3,9.8V19h0c0.2,1.7,6.2,5.8,13.9,5.8
	c7.6,0,13.9-4.1,14.1-5.8h0V9.7L25.4,12.7z" />
        <path fill-rule="evenodd" clip-rule="evenodd" stroke-linejoin="round" stroke-miterlimit="10" d="
	M25.3,0.5l24.7,5l-24.7,5.3L0.5,5.7L25.3,0.5z" />
    </symbol>
</svg>