<svg xmlns="http://www.w3.org/2000/svg" style="display: none;">
  
  <symbol id="cloudentsSettings" viewBox="68.982 93.342 407.87 317.715">
    <path d="M292.506,311.759c-6.41-7.303-15.654-11.489-25.374-11.481c-17.108,0.013-34.135-7.065-46.308-20.935
	c-16.064-18.3-19.313-43.445-10.472-64.476l36.524,41.605c15.181,1.89,40.278-20.141,40.374-35.439l-36.523-41.609
	c22.002-6.039,46.511,0.442,62.575,18.742c12.175,13.868,16.986,31.668,14.757,48.631c-1.268,9.625,1.692,19.352,8.096,26.648
	l49.833,56.771c2.216,2.524,4.775,4.666,7.569,6.401c6.188,0,11.47,0,15.565,0c1.218,0.079,2.44,0.129,3.676,0.129
	c1.233,0,2.456-0.05,3.672-0.129c1.43,0,2.19,0,2.19,0v-0.19c32.585-3.405,58.19-34.871,58.19-73.192
	c0-39.041-26.533-70.956-59.95-73.39c-6.64-17.728-18.789-32.082-33.976-40.24c-11.161-32.918-39.013-56.263-71.598-56.263
	c-17.409,0-33.449,6.648-46.323,17.843c-11.797-7.02-25.184-11.01-39.387-11.01c-44.449,0-80.99,38.834-85.276,88.545
	c-2.079-0.23-4.188-0.357-6.319-0.357c-35.91,0-65.041,33.419-65.041,74.635c0,38.51,25.499,69.687,58.19,73.546v0.074
	c0.223,0,0.471,0,0.742,0c2.012,0.211,4.047,0.332,6.107,0.332c2.06,0,4.091-0.121,6.102-0.332c6.195,0,14.842,0,26.823,0
	c9.152,0-0.412,74.439,9.042,74.439c16.685,0,75.803-74.439,92.377-74.439c14.523,0,30.288,0,45.961,0L292.506,311.759z"/>  
  </symbol>
  
  <symbol id="star" viewBox="5.734 6.376 38.7 37.286">
    <path d="M43.04,22.696l-7.567,7.377l1.786,10.417c0.128,0.75-0.182,1.509-0.797,1.957c-0.349,0.253-0.762,0.382-1.176,0.382
	c-0.318,0-0.638-0.076-0.931-0.229L25,37.682L15.645,42.6c-0.674,0.354-1.49,0.295-2.107-0.15c-0.615-0.448-0.924-1.206-0.795-1.957
	l1.787-10.417l-7.568-7.377c-0.547-0.531-0.741-1.326-0.508-2.05c0.236-0.724,0.861-1.251,1.615-1.361l10.459-1.521l4.68-9.478
	C23.543,7.603,24.239,7.171,25,7.171c0.764,0,1.456,0.432,1.793,1.115l4.68,9.478l10.461,1.521c0.752,0.109,1.379,0.637,1.611,1.361
	C43.782,21.37,43.583,22.165,43.04,22.696z"/>
  </symbol>

  <symbol id="quiz-star" viewBox="0 0 15.238 14.492">
    <polygon fill="#FBD324" points="7.619,0 9.972,4.77 15.238,5.536 11.427,9.249 12.328,14.493 7.619,12.016 2.909,14.493 3.81,9.249 
	0,5.536 5.264,4.77 "/>
  </symbol>
  
  <symbol id="smallscreen" viewBox="-0.5 -0.583 33 33.083" >
    <polygon points="24.586,27.414 29.172,32 32,29.172 27.414,24.586 32,20 20,20 20,32 "/>
    <polygon points="0,12 12,12 12,0 7.414,4.586 2.871,0.047 0.043,2.875 4.586,7.414 "/>
    <polygon points="0,29.172 2.828,32 7.414,27.414 12,32 12,20 0,20 4.586,24.586 "/>
    <polygon points="20,12 32,12 27.414,7.414 31.957,2.875 29.129,0.047 24.586,4.586 20,0 "/>
  </symbol>
  
  <symbol id="back" viewBox="1.75 0.708 60 60.167">
		<path d="M16.179,30.874c0.001,1.703,1.383,3.082,3.085,3.084l17.527-0.002l-4.736,4.737c-1.284,1.285-1.35,3.302-0.146,4.509
			c1.204,1.2,3.222,1.137,4.507-0.146l9.896-9.897c1.287-1.283,1.353-3.302,0.146-4.507c-0.032-0.028-0.067-0.051-0.101-0.08
			c-0.041-0.043-0.069-0.094-0.112-0.139L36.48,18.67c-1.269-1.267-3.271-1.315-4.475-0.11c-1.205,1.205-1.153,3.208,0.111,4.478
			l4.754,4.754H19.263C17.56,27.788,16.179,29.169,16.179,30.874z"/>
	  <circle fill="none" stroke="#ffffff" stroke-width="3" stroke-miterlimit="10" cx="31.75" cy="30.875" r="27.749"/>
  </symbol>

  <symbol id="print" viewBox="-1.5 -1.25 114.5 114.75">
    <path d="M37.333,79.334h37.334V84H37.333V79.334L37.333,79.334z M37.333,93.334h23.334v-4.668H37.333V93.334L37.333,93.334z
	 M112,37.333v51.333c0,2.576-2.09,4.668-4.666,4.668h-14V112H18.667V93.335h-14C2.09,93.335,0,91.243,0,88.667V37.334
	c0-2.576,2.09-4.667,4.666-4.667h14V0h74.668v32.667h14C109.909,32.667,112,34.757,112,37.333z M28,32.667h56V9.333H28V32.667z
	 M84,102.666V70H28v32.666H84z M102.667,46.666c0-2.576-2.09-4.667-4.666-4.667s-4.666,2.091-4.666,4.667s2.09,4.667,4.666,4.667
	S102.667,49.243,102.667,46.666z"/>
  </symbol>

  <symbol id="fullscreen" viewBox="-1 -0.75 33.875 33.5">
    <polygon points="27.414,24.586 22.828,20 20,22.828 24.586,27.414 20,32 32,32 32,20" />
		<polygon points="12,0 0,0 0,12 4.586,7.414 9.129,11.953 11.957,9.125 7.414,4.586" />
		<polygon points="12,22.828 9.172,20 4.586,24.586 0,20 0,32 12,32 7.414,27.414" />
		<polygon points="32,0 20,0 24.586,4.586 20.043,9.125 22.871,11.953 27.414,7.414 32,12" /> 
  </symbol>
        
  <symbol id="eye" viewBox="0 0 424 241">
    <path id="eye-3-icon" d="M212.25,6.166c-129.917,0-206.25,107-206.25,107s83,121.668,206.25,121.668
	C345,234.834,418,113.166,418,113.166S344.336,6.166,212.25,6.166z M214,200.5c-44.184,0-80-35.816-80-80s35.816-80,80-80
	c44.185,0,80,35.816,80,80S258.183,200.5,214,200.5z M259,120.5c0,24.854-20.146,45-45,45c-24.854,0-45-20.146-45-45
	c0-2.979,0.297-5.889,0.852-8.706c22.11,8.115,43.895-13.233,36.067-35.556c2.623-0.479,5.32-0.738,8.081-0.738
	C238.853,75.5,259,95.646,259,120.5z"/>
  </symbol>

  <symbol id="download" viewBox="-0.833 -0.583 33.417 24.083" >
    <polygon points="18,9 14,9 14,17 11,17 16,23 21,17 18,17 	"/>
	<path d="M27.586,8.212C26.66,5.751,24.284,4,21.5,4c-0.641,0-1.26,0.093-1.846,0.266C18.068,1.705,15.233,0,12,0
		C7.096,0,3.106,3.924,3.002,8.803C1.207,9.842,0,11.783,0,14c0,3.313,2.688,6,6,6h4.5l-1.667-2H5.997C3.794,18,2,16.209,2,14
		c0-1.893,1.317-3.482,3.087-3.896C5.029,9.745,5,9.376,5,9c0-3.866,3.134-7,7-7c3.162,0,5.834,2.097,6.702,4.975
		C19.471,6.364,20.441,6,21.5,6c2.316,0,4.225,1.75,4.473,4h0.03C28.206,10,30,11.791,30,14c0,2.205-1.789,4-3.997,4h-2.836L21.5,20
		H26c3.313,0,6-2.693,6-6C32,11.235,30.13,8.907,27.586,8.212z"/> 
  </symbol>
  
  <symbol id="right" viewBox="-0.512 -0.719 14.875 23.25">
   <path d="M13.125,9.442L4.29,0.607c-0.813-0.812-2.139-0.812-2.945,0L0.607,1.344c-0.81,0.812-0.81,2.137,0,2.944l6.742,6.742
	l-6.742,6.741c-0.81,0.811-0.81,2.137,0,2.942l0.737,0.737c0.81,0.812,2.136,0.812,2.945,0l8.835-8.836
	c0.435-0.435,0.628-1.018,0.597-1.589C13.753,10.459,13.56,9.876,13.125,9.442z"/>
  </symbol>
  
  <symbol id="share" viewBox="45.5 78.5 421 356">
    <path id="share-4-icon" d="M134.021,328.384c36.645-159.582,219.143-196.722,219.143-196.722V82.534L462,191.191L353.164,299.852
	v-49.129C353.164,250.723,212.039,244.849,134.021,328.384z M354.05,348.426v40.028H91.01V218.083h57.563
	c11.502-14.814,24.562-28.487,38.979-41.011H50v252.394h345.06V307.482L354.05,348.426z"/> 
  </symbol>
  
  <symbol id="flag" viewBox="390.5 237.5 317 432">
    <path d="M446.142,465.623c91.667-57.222,163.333,57.221,255.001,0c0-56.1,0-112.2,0-168.3c-91.668,57.222-163.334-57.222-255.001,0
		C446.142,353.423,446.142,409.522,446.142,465.623z"/>
	<circle cx="417.142" cy="262.516" r="20.167"/>
	<path d="M417.142,294.276c-4.613,0-8.969-1.092-12.833-3.022V657.15c0,4.252,3.447,7.699,7.7,7.699h10.267
		c4.253,0,7.7-3.447,7.7-7.699V291.253C426.111,293.184,421.756,294.276,417.142,294.276z"/> 
  </symbol>
      
  <symbol id="pencil" viewBox="-1.5 -0.5 99 98">
    <path d="M92.759,9.145l-5.901-5.901c-3.594-3.596-9.42-3.595-13.014,0l-1.3,1.299l-0.976,0.976l18.916,18.915l0.976-0.976
		l1.299-1.3C96.354,18.563,96.352,12.739,92.759,9.145z"/>
	<polygon points="66.956,10.129 14.475,62.609 33.391,81.523 85.872,29.046 86.197,28.718 67.283,9.805 	"/>
	<path d="M0.546,95.454l28.733-9.298L9.844,66.723L0.546,95.454z M22.424,84.507l-9.316,3.06l-4.64-4.635l3.026-9.354L22.424,84.507
		z"/>
  </symbol>
  
  <symbol id="inviteUser" viewBox="50 50.351 462 433.275">
    <path d="M431.27,322.559c-44.477,0.109-80.448,36.247-80.339,80.729c0.11,44.477,36.254,80.448,80.73,80.338
		c44.477-0.109,80.448-36.253,80.338-80.729C511.889,358.414,475.747,322.448,431.27,322.559z M480.997,417.6l-34.858,0.086
		l0.086,34.858l-26.923,0.067l-0.085-34.858l-34.864,0.086l-0.067-26.923l34.864-0.085l-0.086-34.858l26.922-0.067l0.086,34.858
		l34.858-0.086L480.997,417.6z"/>
	<path d="M327.023,403.346c-0.055-22.315,6.897-43.009,18.776-60.008c-27.501-11.217-42.153-27.611-25.727-58.581
		c81.011-152.729,21.474-234.406-64.072-234.406c-87.23,0-145.303,84.812-64.071,234.406c27.411,50.482-29.608,62.394-87.375,75.718
		c-59.013,13.608-54.474,44.723-54.474,101.176h294.893C333.69,445.018,327.077,424.956,327.023,403.346z"/> 
  </symbol>
  
  <symbol id="attachment" viewBox="50 105.394 412 301.212">
    <path id="picture-attachment-icon" d="M462,287.12L360.232,388.889c-23.624,23.624-62.064,23.624-85.69,0
	c-23.624-23.625-23.624-62.066,0-85.689l99.963-99.961c17.557-17.557,46.125-17.559,63.682,0c17.559,17.557,17.559,46.125,0,63.684
	l-88.751,88.75c-11.433,11.434-30.036,11.434-41.47,0c-11.435-11.432-11.434-30.035,0.001-41.469l71.641-71.641l14.938,14.936
	l-71.642,71.643c-3.198,3.197-3.198,8.396,0,11.597c3.196,3.194,8.397,3.194,11.595,0l88.752-88.754c9.32-9.32,9.32-24.486,0-33.809
	c-9.32-9.32-24.486-9.32-33.809,0.002l-99.96,99.961c-15.39,15.387-15.391,40.426,0,55.814c15.389,15.389,40.427,15.389,55.815,0
	l101.767-101.768L462,287.12z M182.512,193.292c0-14.516-11.771-26.285-26.287-26.285c-14.518,0-26.287,11.77-26.287,26.285
	c0,14.52,11.771,26.287,26.287,26.287C170.74,219.579,182.512,207.812,182.512,193.292z M240.911,307.554
	c3.997-7.959,9.29-15.428,15.925-22.062l40.179-40.178l-33.748-51.18l-43.573,61.91l-23.681-24.406l-66.817,75.916H240.911z
	 M232.123,338.725H84.439V139.833h285.854v35.137c10.32-6.211,22.113-9.627,34.438-9.902v-59.674H50v267.771h186.195
	C232.498,362.036,231.138,350.302,232.123,338.725z"/> 
  </symbol>

  <symbol id="plus" viewBox="12.642 12.372 75.886 75.888">
    <path d="M88.527,50.316c0,3.668-2.973,6.641-6.641,6.641H57.225v24.662c0,3.67-2.974,6.643-6.642,6.641
	c-1.834,0-3.494-0.742-4.694-1.943c-1.202-1.202-1.945-2.861-1.944-4.695l-0.001-24.664H19.279c-1.833,0-3.492-0.742-4.695-1.945
	c-1.2-1.201-1.942-2.861-1.942-4.694c-0.001-3.668,2.972-6.641,6.641-6.641h24.662V19.014c0-3.668,2.974-6.642,6.642-6.642
	c3.667,0.001,6.639,2.972,6.641,6.64v24.665h24.664C85.557,43.679,88.525,46.649,88.527,50.316z"/>
  </symbol>

  <symbol id="tick" viewBox="5.775 6.862 51.282 49.643">
    <path d="M29.451,54.789l26.908-39.417c1.246-1.825,0.775-4.313-1.049-5.559l-3.304-2.255c-1.823-1.245-4.313-0.776-5.56,1.049
	L24.192,41.208l-9.77-6.972c-1.798-1.282-4.296-0.865-5.579,0.934l-2.324,3.256c-1.283,1.799-0.865,4.297,0.933,5.579L23.94,55.77
	C25.738,57.052,28.206,56.613,29.451,54.789z"/>
  </symbol>
  <symbol id="trash" viewBox="0 0 291.043 412">
    <path d="M11.658,144v268h259.6V144H11.658z M90.805,352.615c0,8.291-5.799,15.012-12.951,15.012
	c-7.153,0-12.951-6.721-12.951-15.012V203.383c0-8.291,5.798-15.012,12.951-15.012c7.151,0,12.951,6.721,12.951,15.012V352.615z
	 M154.409,352.615c0,8.291-5.8,15.012-12.951,15.012s-12.951-6.721-12.951-15.012V203.383c0-8.291,5.8-15.012,12.951-15.012
	s12.951,6.721,12.951,15.012V352.615z M218.014,352.615c0,8.291-5.8,15.012-12.951,15.012c-7.152,0-12.951-6.721-12.951-15.012
	V203.383c0-8.291,5.799-15.012,12.951-15.012c7.151,0,12.951,6.721,12.951,15.012V352.615z M291.043,79.258l-8.125,38.91L0,38.91
	L8.125,0l79.673,22.319c12.976,3.636,26.044-5.611,29.187-20.654l76.578,21.453c-3.143,15.043,4.83,30.185,17.81,33.82
	L291.043,79.258z"/>
  </symbol>
  <symbol id="fbSocial" viewBox="0 0 84.461 84.461">
    <path d="M42.23,8.2c9.09,0,17.635,3.54,24.063,9.967c6.428,6.428,9.968,14.974,9.968,24.063
	s-3.54,17.636-9.968,24.063c-6.428,6.427-14.973,9.967-24.063,9.967s-17.636-3.54-24.063-9.967C11.739,59.866,8.2,51.32,8.2,42.23
	s3.54-17.636,9.967-24.063C24.595,11.74,33.141,8.2,42.23,8.2 M42.23,0C18.907,0,0,18.907,0,42.23s18.907,42.23,42.23,42.23
	s42.23-18.907,42.23-42.23S65.554,0,42.23,0L42.23,0z M36.428,34.468h-4.821v7.869h4.821v23.116h9.27V42.238h6.469l0.688-7.771
	h-7.156c0,0,0-2.902,0-4.427c0-1.832,0.369-2.558,2.141-2.558c1.426,0,5.016,0,5.016,0v-8.066c0,0-5.288,0-6.418,0
	c-6.898,0-10.008,3.037-10.008,8.854C36.428,33.336,36.428,34.468,36.428,34.468z"/>
  </symbol>
  <symbol id="cloudentsSocial" viewBox="0 0 84.461 84.461">
    <path d="M42.23,8.42c9.09,0,17.635,3.54,24.063,9.967c6.428,6.428,9.967,14.974,9.967,24.063
	c0,9.09-3.539,17.635-9.967,24.063S51.32,76.48,42.23,76.48s-17.636-3.539-24.063-9.967S8.199,51.541,8.199,42.451
	c0-9.09,3.54-17.636,9.968-24.063C24.594,11.96,33.141,8.42,42.23,8.42 M42.23,0.22C18.906,0.22,0,19.127,0,42.451
	C0,65.773,18.906,84.682,42.23,84.682c23.322,0,42.23-18.908,42.23-42.231C84.461,19.127,65.553,0.22,42.23,0.22L42.23,0.22z"/>
    <path fill-rule="evenodd" clip-rule="evenodd" d="M60.777,34.428c-0.824-2.202-2.333-3.985-4.22-4.998
	c-1.386-4.09-4.847-6.989-8.895-6.989c-2.163,0-4.155,0.825-5.754,2.217c-1.466-0.873-3.128-1.368-4.893-1.368
	c-5.521,0-10.062,4.824-10.593,10.999c-0.259-0.029-0.52-0.045-0.785-0.045c-4.461,0-8.08,4.152-8.08,9.272
	c0,5.113,3.619,9.186,8.08,9.186c3.416,0,6.334-2.391,7.513-5.809c1.198,0.537,2.501,0.834,3.865,0.834
	c3.068,0,5.833-1.492,7.775-3.877c0.45,0.162,0.914,0.287,1.39,0.371c1.559,2.334,4.012,3.84,6.77,3.84
	c0.131,0,0.262-0.004,0.391-0.012c1.371,2.764,3.959,4.627,6.926,4.627c4.389,0,7.957-4.088,7.957-9.131
	C68.225,38.695,64.93,34.731,60.777,34.428z"/>
    <path fill-rule="evenodd" clip-rule="evenodd" d="M24.787,38.982V52.66c0.468,0,1.755,0,4.94,0
	c1.138,0-0.052,9.248,1.124,9.248c2.072,0,9.416-9.248,11.475-9.248c7.867,0,18.67,0,18.67,0V38.982H24.787z"/>
  </symbol>

  <symbol id="gmailSocial" viewBox="1.846 -0.221 84.904 84.905">
    <path d="M44.299,8.022c9.137,0,17.729,3.559,24.189,10.02c6.461,6.461,10.02,15.052,10.02,24.19
	s-3.559,17.729-10.02,24.19s-15.053,10.02-24.189,10.02c-9.138,0-17.729-3.559-24.19-10.02s-10.02-15.053-10.02-24.19
	s3.558-17.728,10.02-24.19C26.57,11.581,35.161,8.022,44.299,8.022 M44.299-0.221c-23.447,0-42.453,19.007-42.453,42.453
	c0,23.446,19.006,42.452,42.453,42.452c23.445,0,42.451-19.006,42.451-42.452C86.75,18.786,67.744-0.221,44.299-0.221L44.299-0.221z
	 M22.215,26.232V58.23h44.166V26.232H22.215z M54.496,27.357L44.295,37.554l-11.39-10.197H54.496z M28.195,32.453l12.303,10.658
	l-12.303,9.424V32.453z M60.4,57.174H28.195v-2.893l13.146-10.117l2.954,2.955l3.094-2.955L60.4,54.281V57.174z M60.4,52.535
	L48.445,42.83L60.4,31.015V52.535z" />
  </symbol>
  
  <symbol id="listView" viewBox="0 0 30.263 25.6">
    <rect  width="7.732" height="6.398"/>
    <rect y="9.6"  width="7.732" height="6.4"/>
    <rect y="19.199"  width="7.732" height="6.398"/>
    <rect x="10.933" y="9.602"  width="19.33" height="6.4"/>
    <rect x="10.933" y="19.199" width="19.33" height="6.4"/>
    <rect x="10.933" width="19.33" height="6.4"/>
  </symbol>
  
  <symbol id="thumbView" viewBox="0 0 95.5 95.5">
    <path d="M39.101,0H2C0.896,0,0,0.896,0,2v37.102c0,1.104,0.896,2,2,2h37.101c1.104,0,2-0.896,2-2V2C41.101,0.896,40.205,0,39.101,0
		z"/>
	<path d="M93.5,0H56.398c-1.104,0-2,0.896-2,2v37.102c0,1.104,0.896,2,2,2H93.5c1.104,0,2-0.896,2-2V2C95.5,0.896,94.605,0,93.5,0z"
		/>
	<path d="M39.101,54.398H2c-1.104,0-2,0.895-2,2V93.5c0,1.104,0.896,2,2,2h37.101c1.104,0,2-0.896,2-2V56.398
		C41.101,55.295,40.205,54.398,39.101,54.398z"/>
	<path d="M93.5,54.398H56.398c-1.104,0-2,0.895-2,2V93.5c0,1.104,0.896,2,2,2H93.5c1.104,0,2-0.896,2-2V56.398
		C95.5,55.295,94.605,54.398,93.5,54.398z"/>
  </symbol>

  <symbol id="quiz1" viewBox="0 0 81.256 81.257">
    <path fill="#0F9D58" d="M0,40.629C0,18.191,18.189,0,40.628,0c22.439,0,40.628,18.191,40.628,40.629
	c0,22.436-18.188,40.626-40.628,40.626C18.189,81.259,0,63.067,0,40.629z"/>
    <circle fill="#FFFFFF" cx="25.576" cy="20.71" r="7.242"/>
    <circle fill="#FFFFFF" cx="25.576" cy="40.628" r="7.242"/>
    <circle fill="#FFFFFF" cx="25.576" cy="60.093" r="7.242"/>
    <circle fill="#3A444B" cx="25.576" cy="40.628" r="4.481"/>
    <g>
      <path fill="#FBD324" d="M55.267,58.18l7.681-41.72c0.349-1.889-0.905-3.704-2.794-4.051l-7.742-1.425
		c-1.89-0.349-3.703,0.902-4.054,2.791L40.68,55.494L55.267,58.18z"/>
      <polygon fill="#FFFFFF" points="55.329,58.188 45.642,69.558 40.637,55.483 	"/>
      <clipPath id="SVGID_2_">
        <path id="SVGID_1_" d="M55.267,58.18l7.681-41.72c0.349-1.889-0.905-3.704-2.794-4.051l-7.742-1.425
			c-1.89-0.349-3.703,0.902-4.054,2.791L40.68,55.494L55.267,58.18z"/>
      </clipPath>
      <clipPath id="SVGID_4_">
        <polygon id="SVGID_3_" points="55.329,58.188 45.642,69.558 40.637,55.483 				"/>
      </clipPath>
      <path fill="#3A444B" d="M45.648,69.558l5.627-6.604c-1.305-0.515-2.806-1.039-3.982-1.255c-1.232-0.227-2.999-0.28-4.536-0.273
		L45.648,69.558z"/>
      <path fill="#E5AD23" d="M48.023,56.846l7.681-41.718c0.348-1.89-0.902-3.705-2.795-4.052l-0.503-0.093
		c-1.888-0.346-3.698,0.904-4.049,2.792L40.68,55.494L48.023,56.846z"/>
      <path fill="#E25C6A" d="M62.07,21.231l0.877-4.771c0.349-1.889-0.905-3.704-2.794-4.051l-7.742-1.425
		c-1.89-0.349-3.703,0.902-4.054,2.791l-0.877,4.772L62.07,21.231z"/>

      <rect x="47.271" y="19.84" transform="matrix(-0.9835 -0.181 0.181 -0.9835 104.7967 50.164)" fill="#FFFFFF" width="14.833" height="0.922"/>
    </g>
  </symbol>

  <symbol id="quiz-bg" viewBox="0 0 213.344 299.73">
    <g>
      <g>
        <polygon fill="#FFFFFF" stroke="#282828" stroke-miterlimit="10" points="1.204,67.81 1.204,299.23 212.844,299.23 212.844,1.21 
			67.573,1.21 		"/>
        <polygon fill="#EEEEEE" stroke="#282828" stroke-miterlimit="10" points="67.563,67.8 67.563,1.21 1.204,67.8 		"/>
      </g>
    </g>
    <line fill="none" stroke="#DEDDDD" stroke-miterlimit="10" x1="11.605" y1="202.543" x2="202.938" y2="202.543"/>
    <line fill="none" stroke="#DEDDDD" stroke-miterlimit="10" x1="11.605" y1="237.543" x2="202.938" y2="237.543"/>
    <line fill="none" stroke="#DEDDDD" stroke-miterlimit="10" x1="11.605" y1="272.543" x2="202.938" y2="272.543"/>
    <line fill="none" stroke="#DEDDDD" stroke-miterlimit="10" x1="11.605" y1="132.543" x2="202.938" y2="132.543"/>
    <line fill="none" stroke="#DEDDDD" stroke-miterlimit="10" x1="11.605" y1="167.543" x2="202.938" y2="167.543"/>
    <line fill="none" stroke="#DEDDDD" stroke-miterlimit="10" x1="84.272" y1="62.543" x2="202.938" y2="62.543"/>
    <line fill="none" stroke="#DEDDDD" stroke-miterlimit="10" x1="11.605" y1="97.543" x2="202.938" y2="97.543"/>
    <line fill="none" stroke="#DEDDDD" stroke-miterlimit="10" x1="84.272" y1="27.543" x2="202.938" y2="27.543"/>
    
    <path class="penBorder" fill="none" stroke-width="4" stroke-linejoin="bevel" stroke-miterlimit="10" d="M71.916,114.584
	c0.01-19.526,15.846-35.351,35.374-35.34c19.526,0.01,35.347,15.848,35.339,35.377c-0.01,19.524-15.846,35.346-35.374,35.337
	C87.727,149.95,71.905,134.112,71.916,114.584z"/>
    <path fill="#FFFFFF" d="M71.916,114.584c0.01-19.526,15.846-35.351,35.374-35.34c19.526,0.01,35.347,15.848,35.339,35.377
	c-0.01,19.524-15.846,35.346-35.374,35.337C87.727,149.95,71.905,134.112,71.916,114.584z"/>
    
    <path fill="#3A444B" d="M97.17,139.042l6.065-4.547c-1.012-0.691-2.19-1.425-3.152-1.836c-1.004-0.431-2.502-0.815-3.813-1.105
	L97.17,139.042z"/>
    <path fill="#FFFFFF" d="M96.243,131.547c1.311,0.291,2.808,0.675,3.814,1.106c0.959,0.41,2.136,1.143,3.15,1.833l4.376-3.281
	l-12.004-5.13"/>
    <path fill="#E5AD23" d="M101.612,128.657l14.569-34.086c0.661-1.544-0.057-3.332-1.604-3.991l-0.412-0.177
	c-1.541-0.658-3.324,0.06-3.987,1.602l-14.565,34.086L101.612,128.657z"/>
    <g>
      <path fill="#FBD324" d="M113.944,90.344c-0.114-0.038-0.228-0.083-0.345-0.107C113.715,90.261,113.829,90.305,113.944,90.344z"/>
      <path fill="#FBD324" d="M120.513,93.124l-6.323-2.703c-0.001,0-0.001,0-0.003-0.001l0.409,0.174
		c1.546,0.66,2.264,2.448,1.604,3.992l-14.57,34.084l5.918,2.53l14.568-34.087C122.778,95.572,122.058,93.784,120.513,93.124z"/>
      <path fill="#FBD324" d="M113.007,90.176c0.066,0,0.132,0.015,0.199,0.021C113.139,90.191,113.073,90.176,113.007,90.176z"/>
    </g>
    <path fill="#E25C6A" d="M120.432,100.998l1.665-3.898c0.662-1.543-0.058-3.332-1.601-3.99l-6.326-2.703
	c-1.544-0.662-3.328,0.056-3.992,1.599l-1.665,3.899L120.432,100.998z"/>
    <rect x="107.837" y="98.382" transform="matrix(-0.9196 -0.3929 0.3929 -0.9196 180.627 234.5439)" fill="#FFFFFF" width="12.964" height="0.806"/>
  </symbol>

  <symbol id="upload" viewBox="46.316 93.342 407.869 317.715">
    <path d="M394.236,189.844c-6.64-17.728-18.789-32.082-33.976-40.24c-11.161-32.918-39.013-56.263-71.598-56.263
	c-17.409,0-33.449,6.648-46.323,17.843c-11.797-7.02-25.184-11.01-39.387-11.01c-44.449,0-80.99,38.834-85.276,88.545
	c-2.079-0.23-4.188-0.357-6.319-0.357c-35.91,0-65.041,33.419-65.041,74.635c0,38.51,25.499,69.687,58.19,73.546v0.074
	c0.223,0,0.471,0,0.742,0c2.012,0.211,4.047,0.332,6.107,0.332c2.06,0,4.091-0.121,6.102-0.332c6.195,0,14.842,0,26.823,0
	c9.152,0-0.412,74.439,9.042,74.439c9.963,0,35.055-26.54,57.185-47.926v-94.734h-33.84l73.584-73.708l73.582,73.708h-33.84v68.221
	c39.592,0,78.899,0,96.464,0c1.218,0.079,2.44,0.129,3.676,0.129c1.233,0,2.456-0.05,3.672-0.129c1.43,0,2.19,0,2.19,0v-0.19
	c32.583-3.404,58.189-34.87,58.189-73.191C454.186,224.193,427.653,192.279,394.236,189.844z"/>
  </symbol>

  <symbol id="correct" viewBox="0 0 29.926 27.693">
    <path id="check-mark-11-icon_3_" fill="#0F9D58" d="M27.542,11.781c1.255,8.405-5.247,15.912-13.694,15.912
	C6.2,27.693,0,21.494,0,13.847S6.2,0,13.848,0c3.362,0,6.444,1.198,8.844,3.191l-2.229,2.228c-1.822-1.431-4.119-2.285-6.615-2.285
	c-5.917,0-10.714,4.796-10.714,10.713S7.931,24.56,13.848,24.56c5.597,0,10.19-4.292,10.671-9.764L27.542,11.781z M26.203,2.637
	l-11.578,11.58L9.609,9.199l-3.72,3.72l8.735,8.738L29.926,6.355L26.203,2.637z"/>
  </symbol>
  <symbol id="wrong" viewBox="0 0 32.435 27.674">
    <path fill="#E25C6A" d="M23.244,18.973c-1.82,3.317-5.346,5.567-9.396,5.567c-5.917,0-10.714-4.796-10.714-10.713
		c0-4.114,2.32-7.687,5.723-9.481L13.112,0C5.807,0.381,0,6.426,0,13.827c0,7.647,6.2,13.847,13.848,13.847
		c5.048,0,9.399-2.682,11.818-6.632L23.244,18.973z"/>
    <path id="x-mark-5-icon_4_" fill="#E25C6A" d="M24.752,12.44l7.287,8.826l-1.28,1.16c-1.696-1.22-5.229-3.937-9.028-7.267
		c-3.728,3.253-7.224,5.954-8.969,7.166l-1.187-1.351l7.171-8.518c-2.718-2.546-5.365-5.286-7.382-7.905l3.671-3.883l6.75,8.176
		l6.746-8.016l3.903,3.406C30.451,6.86,27.654,9.741,24.752,12.44z"/>
  </symbol>

  <symbol id="stopper" viewBox="0 0 137.52 160.601">
    <path fill="#FFFFFF" d="M68.76,23.083C30.785,23.083,0,53.867,0,91.842s30.785,68.759,68.76,68.759
		c37.976,0,68.76-30.784,68.76-68.759C137.52,53.867,106.735,23.083,68.76,23.083z M68.76,154.871
		c-34.812,0-63.028-28.219-63.028-63.029c0-34.811,28.217-63.029,63.028-63.029c34.811,0,63.027,28.218,63.027,63.029
		C131.787,126.652,103.57,154.871,68.76,154.871z"/>
    <path fill="#FFFFFF" d="M124.584,46.383c0.154-0.097,0.313-0.183,0.45-0.317l4.722-4.624c0.851-0.836,0.99-2.074,0.313-2.767
		l-8.812-8.995c-0.679-0.693-1.922-0.577-2.771,0.259l-4.722,4.624c-0.284,0.278-0.458,0.605-0.579,0.939
		C117.389,38.684,121.214,42.336,124.584,46.383z"/>
    <path fill="#FFFFFF" d="M69.227,20.249c2.859,0,5.67,0.194,8.437,0.534v-6.388H59.853v6.507
		C62.919,20.483,66.045,20.249,69.227,20.249z"/>
    <g>
      <path fill="none" stroke="#FFFFFF" stroke-width="2" stroke-miterlimit="10" d="M83.048,12.293c0,0.956-0.858,1.731-1.913,1.731
			H56.384c-1.057,0-1.913-0.775-1.913-1.731V2.731C54.471,1.775,55.327,1,56.384,1h24.751c1.055,0,1.913,0.775,1.913,1.731V12.293z"
			/>
      <g>
        <rect x="57.396" y="0.696" fill="#FFFFFF" width="2.026" height="13.328"/>
        <rect x="62.57" y="0.696" fill="#FFFFFF" width="2.025" height="13.328"/>
        <rect x="67.746" y="0.696" fill="#FFFFFF" width="2.024" height="13.328"/>
        <rect x="72.921" y="0.696" fill="#FFFFFF" width="2.025" height="13.328"/>
        <rect x="78.095" y="0.696" fill="#FFFFFF" width="2.026" height="13.328"/>
      </g>
    </g>
  </symbol>
  <symbol id="time" viewBox="0 0 20.668 24.192">
    <path fill="#9AC6E9" d="M20.668,7.561l-2.964-3.555l-2.056,1.716c-0.912-0.608-1.932-1.062-3.021-1.348V2.746h1.647V0H7.528v2.746
		h1.883v1.323C4.166,4.416,0,8.783,0,14.114c0,5.558,4.521,10.079,10.078,10.079c5.559,0,10.08-4.521,10.08-10.079
		c0-1.822-0.494-3.53-1.345-5.007L20.668,7.561z M10.096,22.408c-4.582,0-8.297-3.715-8.297-8.297s3.715-8.297,8.297-8.297
		c4.583,0,8.298,3.715,8.298,8.297S14.679,22.408,10.096,22.408z"/>
    <path fill="#9AC6E9" d="M10.107,7.98c-0.008,0-0.013-0.001-0.021-0.001c-3.448-0.014-6.251,2.769-6.258,6.216
		c-0.008,3.445,2.781,6.25,6.23,6.264s6.252-2.77,6.26-6.215l-6.226-0.025L10.107,7.98z"/>
  </symbol>
  
</svg>
