<svg xmlns="http://www.w3.org/2000/svg">


    <symbol id="reset" viewBox="0 0 10.3 11.1">
        <path d="M0.9,4.6c0.4,0,0.7-0.2,0.8-0.5c0.6-1.4,1.9-2.3,3.5-2.3c0.9,0,1.6,0.3,2.3,0.8L6.9,2.6C6.8,2.7,6.6,2.8,6.6,3
		c0,0.2,0.1,0.3,0.2,0.4l2.7,1.2c0.1,0.1,0.3,0,0.4,0c0.1-0.1,0.2-0.2,0.2-0.3l0-3c0-0.2-0.1-0.3-0.3-0.4c-0.2,0-0.3,0-0.4,0.2
		L9,1.6C8,0.6,6.7,0,5.2,0C2.9,0,0.9,1.4,0.1,3.4C0,3.7,0,4,0.1,4.2C0.3,4.5,0.6,4.6,0.9,4.6z" />
        <path d="M10.2,6.8C10,6.6,9.7,6.4,9.4,6.4C9.1,6.4,8.8,6.6,8.6,7C8.1,8.3,6.7,9.3,5.2,9.3C4.3,9.3,3.5,9,2.9,8.5l0.5-0.1
		c0.2,0,0.3-0.2,0.3-0.3c0-0.2-0.1-0.3-0.2-0.4L0.8,6.5c-0.1-0.1-0.3,0-0.4,0C0.3,6.6,0.2,6.7,0.2,6.8l0,3c0,0.2,0.1,0.3,0.3,0.4
		c0.2,0,0.3,0,0.4-0.2l0.4-0.6c1,1,2.4,1.6,3.9,1.6c2.3,0,4.3-1.4,5.1-3.4C10.4,7.4,10.3,7.1,10.2,6.8z" />
    </symbol>

    <symbol id="alignLeft" viewBox="0 0 11.6 10.1">
        <rect x="0" y="0" fill="#231F20" width="11.6" height="1.5" />
        <rect x="0" y="2.9" fill="#231F20" width="8.3" height="1.5" />
        <rect x="0" y="5.7" fill="#231F20" width="11.6" height="1.5" />
        <rect x="0" y="8.6" fill="#231F20" width="8.3" height="1.5" />
    </symbol>
    <symbol id="alignCenter" viewBox="0 0 11.6 10.1">
        <rect x="0" y="0" fill="#231F20" width="11.6" height="1.5" />
        <rect x="1.7" y="2.9" fill="#231F20" width="8.3" height="1.5" />
        <rect x="0" y="5.7" fill="#231F20" width="11.6" height="1.5" />
        <rect x="1.7" y="8.6" fill="#231F20" width="8.3" height="1.5" />
    </symbol>
    <symbol id="alignRight" viewBox="0 0 11.6 10.1">
        <rect x="0" y="0" fill="#231F20" width="11.6" height="1.5" />
        <rect x="3.3" y="2.9" fill="#231F20" width="8.3" height="1.5" />
        <rect x="0" y="5.7" fill="#231F20" width="11.6" height="1.5" />
        <rect x="3.3" y="8.6" fill="#231F20" width="8.3" height="1.5" />
    </symbol>
    <symbol id="bold" viewBox="0 0 7.1 9.8">
        <path fill="#231F20" d="M5.5,4.6L5.1,4.5l0.3-0.2c0.8-0.4,1.3-1.1,1.3-1.9c0-0.8-0.4-1.5-1.1-1.9C5,0.1,4.2,0,2.8,0
		C1.7,0,0.6,0.1,0,0.2v9.4c0.4,0.1,1.2,0.1,2.3,0.1c1.8,0,3-0.3,3.8-0.9c0.6-0.5,1-1.2,1-2C7.1,5.8,6.5,5,5.5,4.6z M2.1,1.6l0.1,0
		c0.2,0,0.5,0,0.8,0c1,0,1.6,0.4,1.6,1.2c0,0.8-0.7,1.2-1.8,1.2H2.1L2.1,1.6L2.1,1.6z M3,8.2c-0.3,0-0.5,0-0.7,0l-0.1,0V5.4h0.8
		c1.3,0,2,0.5,2,1.4C4.9,7.7,4.2,8.2,3,8.2z" />
    </symbol>

    <symbol id="bullets" viewBox="0 0 11.3 9.8">
        <circle cx="1.3" cy="1.3" r="1.3" />
        <circle cx="1.3" cy="4.8" r="1.3" />
        <circle cx="1.3" cy="8.5" r="1.3" />
        <path d="M4.1,2.1h7c0.1,0,0.1,0,0.2-0.1s0.1-0.1,0.1-0.2l0-1.2c0-0.1-0.1-0.2-0.2-0.2h-7c-0.1,0-0.2,0.1-0.2,0.2v1.2
		C3.8,2,3.9,2.1,4.1,2.1z" />
        <path d="M11.1,4h-7C3.9,4,3.8,4.1,3.8,4.2v1.2c0,0.1,0.1,0.2,0.2,0.2h7c0.1,0,0.1,0,0.2-0.1c0,0,0.1-0.1,0.1-0.2l0-1.2
		C11.3,4.1,11.2,4,11.1,4z" />
        <path d="M11.1,7.7h-7c-0.1,0-0.2,0.1-0.2,0.2v1.2c0,0.1,0.1,0.2,0.2,0.2h7c0.1,0,0.1,0,0.2-0.1s0.1-0.1,0.1-0.2l0-1.2
		C11.3,7.8,11.2,7.7,11.1,7.7z" />
    </symbol>
    <symbol id="numbered" viewBox="0 0 10.3 9.7">
        <path d="M3.1,2.1h7c0.1,0,0.1,0,0.2-0.1c0,0,0.1-0.1,0.1-0.2l0-1.2c0-0.1-0.1-0.2-0.2-0.2h-7C3,0.4,2.9,0.5,2.9,0.6v1.2
				C2.9,2,3,2.1,3.1,2.1z" />
        <path d="M10.1,4h-7C3,4,2.9,4.1,2.9,4.2v1.2c0,0.1,0.1,0.2,0.2,0.2h7c0.1,0,0.1,0,0.2-0.1c0,0,0.1-0.1,0.1-0.2l0-1.2
				C10.3,4.1,10.2,4,10.1,4z" />
        <path d="M10.1,7.6h-7C3,7.6,2.9,7.7,2.9,7.8v1.2c0,0.1,0.1,0.2,0.2,0.2h7c0.1,0,0.1,0,0.2-0.1c0,0,0.1-0.1,0.1-0.2l0-1.2
				C10.3,7.7,10.2,7.6,10.1,7.6z" />
        <polygon points="0.6,0.6 0.6,0.6 0.6,2.7 1.2,2.7 1.2,0 0.7,0 0,0.3 0.1,0.8 	" />
        <path d="M1.9,5.6h-1v0l0.2-0.2C1.5,5,1.8,4.6,1.8,4.2c0-0.5-0.3-0.8-0.9-0.8C0.5,3.4,0.2,3.5,0,3.6l0.2,0.4C0.3,4,0.5,3.9,0.8,3.9
		c0.3,0,0.4,0.2,0.4,0.4c0,0.3-0.3,0.6-0.9,1.1L0,5.7v0.4h1.9V5.6z" />
        <path d="M1.4,8.2L1.4,8.2c0.3-0.1,0.5-0.4,0.5-0.6c0-0.4-0.3-0.7-0.9-0.7C0.6,6.9,0.3,7,0.1,7.1l0.1,0.5c0.1-0.1,0.3-0.2,0.6-0.2
		c0.3,0,0.4,0.1,0.4,0.3C1.2,7.9,0.9,8,0.7,8H0.5v0.5h0.3c0.3,0,0.5,0.1,0.5,0.4c0,0.2-0.2,0.4-0.5,0.4C0.5,9.2,0.3,9.1,0.2,9L0,9.5
		c0.2,0.1,0.5,0.2,0.8,0.2c0.7,0,1.1-0.3,1.1-0.8C1.9,8.5,1.7,8.3,1.4,8.2z" />
    </symbol>
    <symbol id="italic" viewBox="0 0 7.8 9.8">
        <path fill="#231F20" d="M7.8,0.1C7.7,0,7.7,0,7.6,0H2.2C2.2,0,2.1,0.1,2.1,0.2L1.8,1.1c0,0.1,0,0.1,0,0.2c0,0,0.1,0.1,0.2,0.1h1.9
	L2.2,8.5H0.4c-0.1,0-0.2,0.1-0.2,0.2L0,9.5c0,0.1,0,0.1,0,0.2c0,0,0.1,0.1,0.2,0.1h5.3c0.1,0,0.2-0.1,0.2-0.2L6,8.7
	c0-0.1,0-0.1,0-0.2c0,0-0.1-0.1-0.2-0.1H3.9l1.7-7.2h1.7c0.1,0,0.2-0.1,0.2-0.2l0.2-0.9C7.8,0.2,7.8,0.1,7.8,0.1z" />
    </symbol>
    
    <symbol id="undo" viewBox="0 0 10.8 11.9">
        <path d="M0,6.5c0-0.2,0.1-0.3,0.3-0.3h1.4C1.8,6.2,2,6.3,2,6.5c0,1.9,1.5,3.4,3.4,3.4s3.4-1.5,3.4-3.4c0-1.9-1.5-3.4-3.4-3.4
			c-0.2,0-0.4,0-0.6,0.1v1c0,0.1-0.1,0.2-0.2,0.3c-0.1,0-0.2,0-0.3-0.1L1.5,2.4C1.4,2.3,1.4,2.1,1.5,2l2.8-1.9C4.4,0,4.5,0,4.6,0
			c0.1,0,0.2,0.1,0.2,0.3v0.9c0.2,0,0.4,0,0.6,0c3,0,5.4,2.4,5.4,5.4c0,3-2.4,5.4-5.4,5.4C2.4,11.9,0,9.5,0,6.5z" />
    </symbol>
    <symbol id="redo" viewBox="0 0 10.8 11.9">
        <path d="M5.4,11.9c-3,0-5.4-2.4-5.4-5.4c0-3,2.4-5.4,5.4-5.4c0.2,0,0.4,0,0.6,0V0.3C6,0.2,6,0.1,6.1,0c0.1,0,0.2,0,0.3,0.1L9.3,2
			c0.1,0.1,0.1,0.3,0,0.4L6.4,4.3C6.4,4.4,6.2,4.4,6.1,4.4C6,4.3,6,4.2,6,4.1v-1c-0.2,0-0.4-0.1-0.6-0.1C3.5,3.1,2,4.6,2,6.5
			c0,1.9,1.5,3.4,3.4,3.4s3.4-1.5,3.4-3.4c0-0.2,0.1-0.3,0.3-0.3h1.4c0.2,0,0.3,0.1,0.3,0.3C10.8,9.5,8.3,11.9,5.4,11.9z" />
    </symbol>
    <symbol id="textColor" viewBox="0 0 13.8 13.6">
        <path fill="#231F20" d="M5.1,7.1L4.2,9.9l-1.9,0L5.5,0l2.3,0l3.2,9.9l-2,0L8.2,7.1L5.1,7.1z M7.9,5.7L7.1,3.3C7,2.7,6.8,2,6.6,1.4
		l0,0C6.5,2,6.3,2.7,6.1,3.3L5.4,5.7L7.9,5.7z" />
        <rect x="0" y="11" fill="#EC1C24" width="13.8" height="2.7" />
    </symbol>
    <symbol id="textIncrease" viewBox="0 0 8.7 9.9">
        <path fill="#231F20" d="M2.7,7.1L1.9,9.9L0,9.9L3.2,0l2.3,0l3.2,9.9l-2,0L5.9,7.1L2.7,7.1z M5.6,5.7L4.8,3.3C4.6,2.7,4.4,2,4.3,1.4
		l0,0C4.1,2,3.9,2.7,3.8,3.3L3,5.7L5.6,5.7z" />
        <polygon fill="#3399FF" points="6.6,1.8 7.6,0 8.7,1.8 " />
    </symbol>
    <symbol id="textDecrease" viewBox="0 0 6.9 9.9" enable-background="new 0 0 6.9 9.9">
        <path fill="#231F20" d="M1.6,8.2L1.1,9.9L0,9.9l1.9-6l1.4,0l1.9,6l-1.2,0L3.5,8.2L1.6,8.2z M3.3,7.4L2.9,5.9
		C2.8,5.6,2.7,5.2,2.6,4.8h0C2.5,5.2,2.4,5.6,2.3,5.9L1.8,7.4L3.3,7.4z" />
        <polygon fill="#3399FF" points="4.8,0 5.9,1.8 6.9,0 " />
    </symbol>
    <symbol id="underline" viewBox="0 0 6.1 9.8">
        <path fill="#231F20" d="M4.5,0v4.6c0,0.6-0.1,1-0.3,1.3C4,6.1,3.6,6.2,3.1,6.2c-0.5,0-0.9-0.1-1.1-0.4C1.7,5.6,1.6,5.1,1.6,4.6V0H0
		v4.8c0,0.9,0.3,1.5,0.8,2C1.3,7.3,2.1,7.6,3,7.6c0.6,0,1.2-0.1,1.7-0.3c0.5-0.2,0.8-0.5,1.1-1C6,5.9,6.1,5.4,6.1,4.8V0H4.5z" />
        <rect x="0" y="8.3" fill="#231F20" width="6.1" height="1.5" />
    </symbol>
    <symbol id="upload" viewBox="0 0 14.4 11.2">
        <path fill="#231F20" d="M12.3,3.4C12,2.8,11.6,2.3,11.1,2c-0.4-1.2-1.4-2-2.5-2C7.9,0,7.4,0.2,6.9,0.6C6.5,0.4,6,0.2,5.5,0.2
	c-1.6,0-2.9,1.4-3,3.1c-0.1,0-0.1,0-0.2,0C1,3.4,0,4.5,0,6c0,1.4,0.9,2.5,2.1,2.6v0c0,0,0,0,0,0c0.1,0,0.1,0,0.2,0
	c0.1,0,0.1,0,0.2,0c0.2,0,0.5,0,0.9,0c0.3,0,0,2.6,0.3,2.6c0.4,0,1.2-0.9,2-1.7V6.2H4.6l2.6-2.6l2.6,2.6H8.6v2.4c1.4,0,2.8,0,3.4,0
	c0,0,0.1,0,0.1,0c0,0,0.1,0,0.1,0c0.1,0,0.1,0,0.1,0v0c1.1-0.1,2.1-1.2,2.1-2.6C14.4,4.6,13.5,3.5,12.3,3.4z" />
    </symbol>
</svg>