<svg xmlns="http://www.w3.org/2000/svg">


    <symbol id="reset" viewBox="0 0 15 15">
        <path d="M1.8,6.4c0.5,0,0.9-0.3,1.1-0.7c0.8-1.8,2.5-3.1,4.6-3.1c1.1,0,2.2,0.4,3,1L9.9,3.8C9.7,3.8,9.5,4,9.5,4.2
		c0,0.2,0.1,0.4,0.3,0.5l3.6,1.6c0.2,0.1,0.3,0.1,0.5,0c0.1-0.1,0.2-0.3,0.2-0.4l0-4c0-0.2-0.1-0.4-0.4-0.5c-0.2-0.1-0.5,0-0.6,0.2
		l-0.5,0.7c-1.3-1.3-3.1-2.1-5.2-2.1c-3,0-5.7,1.9-6.8,4.5C0.6,5.2,0.6,5.6,0.8,5.9C1.1,6.2,1.4,6.4,1.8,6.4z" />
        <path d="M14.2,9.4c-0.2-0.3-0.6-0.5-1-0.5c-0.5,0-0.9,0.3-1.1,0.7c-0.8,1.8-2.5,3.1-4.6,3.1c-1.1,0-2.2-0.4-3-1l0.7-0.1
		c0.2,0,0.4-0.2,0.4-0.4c0-0.2-0.1-0.4-0.3-0.5L1.7,8.9c-0.2-0.1-0.3-0.1-0.5,0C1,9,0.9,9.2,0.9,9.4l0,4c0,0.2,0.1,0.4,0.4,0.5
		c0.2,0.1,0.5,0,0.6-0.2l0.5-0.7C3.7,14.2,5.5,15,7.5,15c3,0,5.7-1.9,6.8-4.5C14.4,10.1,14.4,9.7,14.2,9.4z" />
    </symbol>

    <symbol id="alignLeft" viewBox="472.5 272.5 15 15">
        <rect x="472.5" y="272.5" fill="#231F20" width="15" height="2.2" />
        <rect x="472.5" y="276.8" fill="#231F20" width="10.7" height="2.2" />
        <rect x="472.5" y="281" fill="#231F20" width="15" height="2.2" />
        <rect x="472.5" y="285.3" fill="#231F20" width="10.7" height="2.2" />
    </symbol>
    <symbol id="alignCenter" viewBox="472.5 272.5 15 15">
        <polygon fill="#231F20" points="472.5,272.5 487.5,272.5 487.5,274.7 472.5,274.7 " />
        <polygon fill="#231F20" points="474.7,276.8 485.4,276.8 485.5,279 474.7,279 " />
        <polygon fill="#231F20" points="472.5,280.9 487.5,280.9 487.5,283.1 472.5,283.1 " />
        <polygon fill="#231F20" points="474.7,285.2 485.5,285.2 485.5,287.4 474.7,287.4 " />
    </symbol>
    <symbol id="alignRight" viewBox="472.5 272.5 15 15">
        <rect x="472.5" y="272.5" fill="#231F20" width="15" height="2.2" />
        <rect x="476.8" y="276.8" fill="#231F20" width="10.7" height="2.2" />
        <rect x="472.5" y="281" fill="#231F20" width="15" height="2.2" />
        <rect x="476.8" y="285.3" fill="#231F20" width="10.7" height="2.2" />
    </symbol>
    <symbol id="bold" viewBox="472.5 272.5 15 15">
        <path fill="#231F20" d="M483.5,279.6l-0.6-0.2l0.5-0.3c1.2-0.6,2-1.7,2-2.9s-0.6-2.3-1.7-2.9c-0.9-0.6-2.2-0.8-4.3-0.8
		c-1.7,0-3.4,0.2-4.3,0.3v14.5c0.6,0.2,1.9,0.2,3.6,0.2c2.8,0,4.6-0.5,5.9-1.4c0.9-0.8,1.5-1.9,1.5-3.1
		C486,281.5,485.1,280.2,483.5,279.6z M478.3,275h0.2c0.3,0,0.8,0,1.2,0c1.5,0,2.5,0.6,2.5,1.9s-1.1,1.9-2.8,1.9h-1.1V275L478.3,275
		z M479.7,285.2c-0.5,0-0.8,0-1.1,0h-0.2v-4.3h1.2c2,0,3.1,0.8,3.1,2.2C482.6,284.4,481.5,285.2,479.7,285.2z" />
    </symbol>

    <symbol id="bullets" viewBox="472.5 272.5 15 15">
        <circle cx="474.2" cy="275.3" r="1.7" />
        <circle cx="474.2" cy="280" r="1.7" />
        <circle cx="474.2" cy="284.9" r="1.7" />
        <path d="M478,276.4h9.3c0.1,0,0.1,0,0.3-0.1s0.1-0.1,0.1-0.3v-1.6c0-0.1-0.1-0.3-0.3-0.3h-9.3c-0.1,0-0.3,0.1-0.3,0.3v1.6
		C477.8,276.3,477.8,276.4,478,276.4z" />
        <path d="M487.3,278.9H478c-0.3,0-0.4,0.1-0.4,0.3v1.6c0,0.1,0.1,0.3,0.3,0.3h9.3c0.1,0,0.1,0,0.3-0.1c0,0,0.1-0.1,0.1-0.3V279
		C487.5,279,487.4,278.9,487.3,278.9z" />
        <path d="M487.3,283.8H478c-0.1,0-0.3,0.1-0.3,0.3v1.6c0,0.1,0.1,0.3,0.3,0.3h9.3c0.1,0,0.1,0,0.3-0.1s0.1-0.1,0.1-0.3v-1.6
		C487.5,283.9,487.4,283.8,487.3,283.8z" />
    </symbol>
    <symbol id="numbered" viewBox="472.5 272.5 15 15">
        <path d="M477,276.3l10,0c0.1,0,0.1,0,0.3-0.1c0,0,0.1-0.1,0.1-0.3v-1.7c0-0.1-0.1-0.3-0.3-0.3l-10,0c-0.3,0-0.4,0.1-0.4,0.3v1.7
				C476.7,276.1,476.9,276.3,477,276.3z" />
        <path d="M487,279l-10,0c-0.1,0-0.3,0.1-0.3,0.3v1.7c0,0.1,0.1,0.3,0.3,0.3l10,0c0.1,0,0.1,0,0.3-0.1c0,0,0.1-0.1,0.1-0.3v-1.7
				C487.3,279.1,487.2,279,487,279z" />
        <path d="M487,284.1l-10,0c-0.1,0-0.3,0.1-0.3,0.3v1.7c0,0.1,0.1,0.3,0.3,0.3l10,0c0.1,0,0.1,0,0.3-0.1c0,0,0.1-0.1,0.1-0.3v-1.7
				C487.3,284.3,487.2,284.1,487,284.1z" />
        <polygon points="473.4,274.1 473.4,274.1 473.4,277.1 474.3,277.1 474.3,273.3 473.6,273.3 472.6,273.7 472.7,274.4 	" />
        <path d="M475.3,281.3h-1.4l0,0l0.3-0.3c0.6-0.6,1-1.1,1-1.7c0-0.7-0.4-1.1-1.3-1.1c-0.6,0-1,0.1-1.3,0.3l0.3,0.6
		c0.1,0,0.4-0.1,0.9-0.1c0.4,0,0.6,0.3,0.6,0.6c0,0.4-0.4,0.9-1.3,1.6l-0.4,0.4l0,0.6h2.7V281.3z" />
        <path d="M474.6,285L474.6,285c0.4-0.1,0.7-0.6,0.7-0.9c0-0.6-0.4-1-1.3-1c-0.6,0-1,0.1-1.3,0.3l0.1,0.7c0.1-0.1,0.4-0.3,0.9-0.3
		c0.4,0,0.6,0.1,0.6,0.4s-0.4,0.4-0.7,0.4h-0.3v0.7h0.4c0.4,0,0.7,0.1,0.7,0.6c0,0.3-0.3,0.6-0.7,0.6c-0.4-0.1-0.7-0.3-0.9-0.4
		l-0.3,0.7c0.3,0.1,0.7,0.3,1.1,0.3c1,0,1.6-0.4,1.6-1.1C475.3,285.4,475,285.1,474.6,285z" />
    </symbol>
    <symbol id="italic" viewBox="472.5 272.5 15 15">
        <path fill="#231F20" d="M485.5,272.5h-0.1h-8.2c0,0-0.2,0.2-0.2,0.3l-0.5,1.4c0,0.2,0,0.2,0,0.3c0,0,0.2,0.2,0.3,0.2h2.9l-2.6,10.9
	h-2.8c-0.2,0-0.3,0.2-0.3,0.3l-0.3,1.2c0,0.2,0,0.2,0,0.3c0,0,0.2,0.2,0.3,0.2h8.1c0.2,0,0.3-0.2,0.3-0.3l0.5-1.4c0-0.2,0-0.2,0-0.3
	c0,0-0.2-0.2-0.3-0.2h-2.9l2.6-11h2.6c0.2,0,0.3-0.2,0.3-0.3l0.3-1.4c0,0,0.1-0.2,0-0.2C485.6,272.5,485.5,272.5,485.5,272.5z" />
    </symbol>
    
    <symbol id="undo" viewBox="472.5 272.5 15 15">
        <path d="M473,280.6c0-0.2,0.1-0.4,0.4-0.4h1.7c0.1,0,0.4,0.1,0.4,0.4c0,2.4,1.9,4.2,4.2,4.2s4.2-1.9,4.2-4.2s-1.9-4.2-4.2-4.2
			c-0.2,0-0.5,0-0.7,0.1v1.2c0,0.1-0.1,0.2-0.2,0.4c-0.1,0-0.2,0-0.4-0.1l-3.5-2.5c-0.1-0.1-0.1-0.4,0-0.5l3.5-2.4
			c0.1-0.1,0.2-0.1,0.4-0.1c0.1,0,0.2,0.1,0.2,0.4v1.1c0.2,0,0.5,0,0.7,0c3.7,0,6.7,3,6.7,6.7c0,3.7-3,6.7-6.7,6.7
			C476,287.4,473,284.4,473,280.6z" />
    </symbol>
    <symbol id="redo" viewBox="472.5 272.5 15 15">
        <path d="M479.7,287.5c-3.7,0-6.7-3-6.7-6.7c0-3.7,3-6.7,6.7-6.7c0.2,0,0.5,0,0.7,0v-1.1c0-0.2,0.1-0.4,0.2-0.4
			c0.1,0,0.2,0,0.4,0.1l3.5,2.4c0.1,0.1,0.1,0.4,0,0.5l-3.5,2.5c-0.1,0.1-0.2,0.1-0.4,0.1c-0.1-0.1-0.2-0.2-0.2-0.4v-1.2
			c-0.2-0.1-0.5-0.1-0.7-0.1c-2.4,0-4.2,1.9-4.2,4.2s1.9,4.2,4.2,4.2s4.2-1.9,4.2-4.2c0-0.2,0.2-0.4,0.4-0.4h1.7
			c0.2,0,0.4,0.1,0.4,0.4C486.5,284.4,483.5,287.4,479.7,287.5z" />
    </symbol>
    <symbol id="textColor" viewBox="472.5 272.5 15 15">
        <path fill="#231F20" d="M478.1,280.3l-1,3.1H475l3.5-10.8h2.5l3.5,10.8h-2.2l-0.9-3.1H478.1z M481.1,278.8l-0.9-2.6
		c-0.1-0.7-0.3-1.4-0.5-2.1l0,0c-0.1,0.7-0.3,1.4-0.5,2.1l-0.8,2.6H481.1z" />
        <rect x="472.5" y="284.6" fill="#EC1C24" width="15.1" height="2.9" />
    </symbol>
    <symbol id="textIncrease" viewBox="472.5 272.5 15 15">
        <path fill="#231F20" d="M476.6,283.3l-1.2,4.2h-2.9l4.8-14.9h3.5l4.8,14.9h-3l-1.2-4.2H476.6z M481,281.2l-1.2-3.6
			c-0.3-0.9-0.6-2-0.8-2.9l0,0c-0.3,0.9-0.6,2-0.8,2.9l-1.2,3.6H481z" />
        <polygon fill="#3399FF" points="482.5,276.5 484.7,272.6 487.1,276.5" />
    </symbol>
    <symbol id="textDecrease" viewBox="472.5 272.5 15 15">
        <polygon fill="#3399FF" points="485.5,272.5 483.3,276.4 480.9,272.5" />
            <path fill="#231F20" d="M476.7,284.9l-0.8,2.6h-1.7l2.9-9.1h2.1l2.9,9.1h-1.8l-0.8-2.6H476.7z M479.3,283.7l-0.6-2.3
			c-0.2-0.5-0.3-1.1-0.5-1.7l0,0c-0.2,0.6-0.3,1.2-0.5,1.7l-0.8,2.3H479.3z" />
    </symbol>
    <symbol id="underline" viewBox="472.5 272.5 15 15">
        <path fill="#231F20" d="M482.2,272.5l0,7c0,0.9-0.2,1.5-0.5,2c-0.3,0.3-0.9,0.5-1.7,0.5s-1.4-0.2-1.7-0.6c-0.5-0.3-0.6-1.1-0.6-1.8
		l0-7h-2.4l0,7.3c0,1.4,0.5,2.3,1.2,3c0.8,0.8,2,1.2,3.4,1.2c0.9,0,1.8-0.2,2.6-0.5c0.8-0.3,1.2-0.8,1.7-1.5
		c0.3-0.6,0.5-1.4,0.5-2.3l0-7.3H482.2z" />
        <rect x="475.4" y="285.2" fill="#231F20" width="9.3" height="2.3" />
    </symbol>
    <symbol id="upload" viewBox="472.5 272.5 15 15">
        <path fill="#231F20" d="M485.3,277.9c-0.3-0.6-0.7-1.1-1.3-1.4c-0.4-1.2-1.5-2.1-2.6-2.1c-0.7,0-1.3,0.2-1.8,0.6
	c-0.4-0.2-0.9-0.4-1.5-0.4c-1.7,0-3,1.4-3.1,3.2c-0.1,0-0.1,0-0.2,0c-1.4,0.1-2.4,1.2-2.4,2.8c0,1.4,0.9,2.6,2.2,2.7l0,0l0,0
	c0.1,0,0.1,0,0.2,0s0.1,0,0.2,0c0.2,0,0.5,0,0.9,0c0.3,0,0,2.7,0.3,2.7c0.4,0,1.3-0.9,2.1-1.8v-3.4h-1.1l2.7-2.7l2.7,2.7h-1.3v2.5
	c1.5,0,2.9,0,3.5,0h0.1h0.1c0.1,0,0.1,0,0.1,0l0,0c1.1-0.1,2.2-1.2,2.2-2.7S486.6,278,485.3,277.9z" />
    </symbol>
</svg>