<svg xmlns="http://www.w3.org/2000/svg" style="display: none;">
    <symbol id="alignRight" viewBox="0 0 14 10.9" enable-background="new 0 0 14 10.9">
        <rect x="0" y="0" fill="#231F20" width="14" height="0.9" />
        <rect x="4" y="2" fill="#231F20" width="10" height="0.9" />
        <rect x="0" y="4" fill="#231F20" width="14" height="0.9" />
        <rect x="4" y="6" fill="#231F20" width="10" height="0.9" />
        <rect x="0" y="8" fill="#231F20" width="14" height="0.9" />
        <rect x="4" y="10" fill="#231F20" width="10" height="0.9" />
    </symbol>

    <symbol id="alignLeft" viewBox="0 0 14 10.9" enable-background="new 0 0 14 10.9">
        <rect x="0" y="0" fill="#231F20" width="14" height="0.9" />
        <rect x="0" y="2" fill="#231F20" width="10" height="0.9" />
        <rect x="0" y="4" fill="#231F20" width="14" height="0.9" />
        <rect x="0" y="6" fill="#231F20" width="10" height="0.9" />
        <rect x="0" y="8" fill="#231F20" width="14" height="0.9" />
        <rect x="0" y="10" fill="#231F20" width="10" height="0.9" />
    </symbol>

    <symbol id="alignCenter" viewBox="0 0 14 10.9" enable-background="new 0 0 14 10.9">
        <rect x="0" y="0" fill="#231F20" width="14" height="0.9" />
        <rect x="2" y="2" fill="#231F20" width="10" height="0.9" />
        <rect x="0" y="4" fill="#231F20" width="14" height="0.9" />
        <rect x="2" y="6" fill="#231F20" width="10" height="0.9" />
        <rect x="0" y="8" fill="#231F20" width="14" height="0.9" />
        <rect x="2" y="10" fill="#231F20" width="10" height="0.9" />
    </symbol>

    <symbol id="textIncrease" viewBox="0 0 8.7 9.9" enable-background="new 0 0 8.7 9.9">
        <g>
            <path fill="#231F20" d="M2.7,7.1L1.9,9.9L0,9.9L3.2,0l2.3,0l3.2,9.9l-2,0L5.9,7.1L2.7,7.1z M5.6,5.7L4.8,3.3C4.6,2.7,4.4,2,4.3,1.4
		l0,0C4.1,2,3.9,2.7,3.8,3.3L3,5.7L5.6,5.7z" />
        </g>
        <polygon fill="#3399FF" points="6.6,1.8 7.6,0 8.7,1.8 " />
    </symbol>

    <symbol id="textDecrease" viewBox="0 0 6.9 9.9" enable-background="new 0 0 6.9 9.9">
        <g>
            <path fill="#231F20" d="M1.6,8.2L1.1,9.9L0,9.9l1.9-6l1.4,0l1.9,6l-1.2,0L3.5,8.2L1.6,8.2z M3.3,7.4L2.9,5.9
C2.8,5.6,2.7,5.2,2.6,4.8h0C2.5,5.2,2.4,5.6,2.3,5.9L1.8,7.4L3.3,7.4z" />
        </g>
        <polygon fill="#3399FF" points="4.8,0 5.9,1.8 6.9,0 " />
    </symbol>

    <symbol id="textColor" viewBox="0 0 13.8 13.6" enable-background="new 0 0 13.8 13.6">
        <g>
            <path fill="#231F20" d="M5.1,7.1L4.2,9.9l-1.9,0L5.5,0l2.3,0l3.2,9.9l-2,0L8.2,7.1L5.1,7.1z M7.9,5.7L7.1,3.3C7,2.7,6.8,2,6.6,1.4
		l0,0C6.5,2,6.3,2.7,6.1,3.3L5.4,5.7L7.9,5.7z" />
        </g>
        <linearGradient id="SVGID_1_" gradientUnits="userSpaceOnUse" x1="-7.424569e-007" y1="12.3054" x2="13.8333" y2="12.3054">
            <stop offset="0" style="stop-color:#EC1C24" />
            <stop offset="0.1675" style="stop-color:#F6921E" />
            <stop offset="0.3695" style="stop-color:#FFF100" />
            <stop offset="0.5616" style="stop-color:#8BC53F" />
            <stop offset="0.7882" style="stop-color:#26A9E0" />
            <stop offset="1" style="stop-color:#652D90" />
        </linearGradient>
        <rect x="0" y="11" fill="url(#SVGID_1_)" width="13.8" height="2.7" />
    </symbol>

</svg>