<svg xmlns="http://www.w3.org/2000/svg" style="display: none;">
    <symbol id="bald" viewBox="0 0 36.764 36.765" style="enable-background:new 0 0 36.764 36.765;" xml:space="preserve">
    <g>
    <path d="M31.023,16.178c-0.896-1.726,0.379-2.759,0.465-3.651c0.396-4.115-0.994-6.634-2.883-8.627
		        c-3.121-3.301-7.134-3.922-9.761-3.9C12.119,0.049,9.397,2.183,7.338,4.479c-4.283,4.781-3.377,8.978-3.377,8.978
		        c0.102,2.489,3.537,7.021,3.537,7.021c2.738,3.937,1.393,6.974,1.393,6.974c5.529,1.243,10.062,9.312,10.062,9.312
		        c0.2-1.195,2.857-6.24,2.857-6.24c1.11-1.396,2.976-0.905,3.981-0.782c2.887,0.355,3.604-0.494,3.604-0.494
		        c0.631-0.386,0.332-1.992,0.332-1.992c-0.231-0.831,0.146-1.237,0.381-1.562c0.633-0.884,0.267-1.294,0.267-1.294
		        c-0.199-0.251-0.065-0.383-0.065-0.383c0.696-0.232,0.747-0.613,0.747-0.613l-0.018-1.278c-0.115-0.878,0.282-0.932,0.282-0.932
		        c1.595-0.029,1.56-1.062,1.56-1.062C32.946,19.564,31.023,16.178,31.023,16.178z M18.448,23.593c-1.32,0-2.218-0.972-2.218-2.27
		        c0-1.319,0.923-2.268,2.218-2.268c1.347,0,2.22,0.946,2.245,2.268C20.694,22.621,19.794,23.593,18.448,23.593z M21.465,14.319
		        c-0.923,1.022-1.296,1.994-1.271,3.115v0.449H16.88l-0.025-0.647c-0.075-1.271,0.349-2.566,1.47-3.914
		        c0.8-0.946,1.447-1.744,1.447-2.592c0-0.873-0.574-1.445-1.82-1.496c-0.822,0-1.819,0.301-2.468,0.748l-0.847-2.716
		        c0.896-0.523,2.393-1.021,4.162-1.021c3.291,0,4.786,1.818,4.786,3.888C23.584,12.027,22.413,13.274,21.465,14.319z" />
        </g>
</symbol>
    <symbol id="documents" viewBox="0 0 256.61 256.61" style="enable-background:new 0 0 256.61 256.61;" xml:space="preserve">
    <g id="_x38_7_36_">
    <path d="M60.859,112.533c-6.853,0-6.853,10.646,0,10.646c27.294,0,54.583,0,81.875,0c6.865,0,6.865-10.646,0-10.646
				C115.442,112.533,88.153,112.533,60.859,112.533z" />
    <path d="M142.734,137.704c-27.292,0-54.581,0-81.875,0c-6.853,0-6.853,10.634,0,10.634c27.294,0,54.583,0,81.875,0
				C149.6,148.338,149.6,137.704,142.734,137.704z" />
    <path d="M142.734,161.018c-27.292,0-54.581,0-81.875,0c-6.853,0-6.853,10.633,0,10.633c27.294,0,54.583,0,81.875,0
				C149.6,171.65,149.6,161.018,142.734,161.018z" />
    <path d="M142.734,186.184c-27.292,0-54.581,0-81.875,0c-6.853,0-6.853,10.629,0,10.629c27.294,0,54.583,0,81.875,0
				C149.6,196.812,149.6,186.184,142.734,186.184z" />
    <path d="M141.17,209.934c-27.302,0-54.601,0-81.89,0c-6.848,0-6.848,10.633,0,10.633c27.289,0,54.588,0,81.89,0
				C148.015,220.566,148.015,209.934,141.17,209.934z" />
    <path d="M25.362,58.087V256.61h152.877V85.63l-28.406-27.543H25.362z M165.026,243.393H38.585V71.305h104.443v20.97h21.988
				v151.118H165.026z" />
    <polygon points="51.204,27.667 51.204,50.645 64.427,50.645 64.427,40.88 168.875,40.88 168.875,61.85 190.868,61.85
				190.868,212.971 185.059,212.971 185.059,226.188 204.086,226.188 204.086,55.205 175.68,27.667 			" />
    <polygon points="202.837,0 78.363,0 78.363,22.983 91.581,22.983 91.581,13.218 196.032,13.218 196.032,34.188 218.025,34.188
				218.025,185.306 212.221,185.306 212.221,198.523 231.248,198.523 231.248,27.543 			" />
	</g>
</symbol>

    <symbol id="school" viewBox="0 0 37.463 37.463">
<g>
    <path d="M36.355,29.542L36.355,29.542v-7.679l-1.01-6.055h-9.622l3.126,2.338v3.704l-2.018-1.493v0.735
		h-0.599v8.448h-0.624v-9.257h0.599v-1.112h-0.925l-7.014-5.162l-6.774,5.287h-0.821v1.114h0.675v9.131H10.69v-8.322h-0.675v-0.466
		l-1.434,1.191v-3.779l2.873-2.356H1.502l-1.01,6.055v7.678H0v2.902h37.463v-2.902H36.355z M4.93,28.044H1.583v-1.832H4.93V28.044z
		 M4.93,25.118H1.583v-1.83H4.93V25.118z M6.318,28.044v-1.832h3.346v1.832H6.318z M6.319,25.118v-1.83h3.346v1.83H6.319z
		 M18.396,16.278c0.733,0,1.326,0.595,1.326,1.326c0,0.731-0.593,1.326-1.326,1.326c-0.732,0-1.326-0.595-1.326-1.326
		C17.07,16.873,17.664,16.278,18.396,16.278z M23.784,29.54h-0.735v-8.358h-9.507v8.358h-0.666v-9.131h0.64v-0.43h9.852v0.304h0.416
		V29.54z M30.186,27.854H26.84v-1.832h3.346V27.854z M30.186,24.927H26.84v-1.83h3.346V24.927z M34.921,27.854h-3.346v-1.832h3.346
		V27.854z M34.921,24.927h-3.346v-1.83h3.346V24.927z M18.295,10.875h-0.204V5.41h0.427v0.104c0.468,0.204,1.601,0.591,2.239-0.101
		c0.817-0.885,2.248,0,2.248,0v2.522c0,0-1.158-0.953-2.248,0c-0.829,0.724-1.814,0.347-2.239,0.124v2.815v0.001h-0.221l9.928,7.425
		v2.111l-10.042-7.427l-8.945,7.427V18.3L18.295,10.875z" />
</g>
</symbol>

    <symbol id="smartphone" viewBox="0 0 35 35" style="enable-background:new 0 0 35 35;" xml:space="preserve">
<g>
    <path d="M25.302,0H9.698c-1.3,0-2.364,1.063-2.364,2.364v30.271C7.334,33.936,8.398,35,9.698,35h15.604
		c1.3,0,2.364-1.062,2.364-2.364V2.364C27.666,1.063,26.602,0,25.302,0z M15.004,1.704h4.992c0.158,0,0.286,0.128,0.286,0.287
		c0,0.158-0.128,0.286-0.286,0.286h-4.992c-0.158,0-0.286-0.128-0.286-0.286C14.718,1.832,14.846,1.704,15.004,1.704z M17.5,33.818
		c-0.653,0-1.182-0.529-1.182-1.183s0.529-1.182,1.182-1.182s1.182,0.528,1.182,1.182S18.153,33.818,17.5,33.818z M26.021,30.625
		H8.979V3.749h17.042V30.625z" />
</g>
</symbol>

</svg>
