<svg xmlns="http://www.w3.org/2000/svg"  viewBox="2 1 22 23">
    <path fill="#69687D" fill-rule="evenodd" d="M20.313 16.25a4.062 4.062 0 0 1 4.062 4.063v4.062H22.75v-4.063a2.437 2.437 0 0 0-2.438-2.437h-8.125a2.437 2.437 0 0 0-2.437 2.438v4.062H8.125v-4.063a4.063 4.063 0 0 1 4.063-4.062zM16.25 7.312a4.063 4.063 0 1 1 0 8.125 4.063 4.063 0 0 1 0-8.125zm-5.688 1.625v1.626H4.875c-.897 0-1.625.727-1.625 1.624v3.25H1.625v-3.25a3.25 3.25 0 0 1 3.25-3.25h5.688zm5.688 0a2.437 2.437 0 1 0 0 4.875 2.437 2.437 0 0 0 0-4.875zM7.264 1.625a3.25 3.25 0 1 1 0 6.5 3.25 3.25 0 0 1 0-6.5zm0 1.625a1.625 1.625 0 1 0 0 3.25 1.625 1.625 0 0 0 0-3.25z"/>
</svg>