<svg xmlns="http://www.w3.org/2000/svg" width="25" height="20"><path fill="#000" fill-rule="nonzero" d="M1.42044 0C.64364 0 0 .64731 0 1.42857v13.14287C0 15.35269.64363 16 1.42044 16H4.8295v3.42857c.00222.21094.13095.41517.3196.5078.07657.03683.16424.06362.24858.06362.12429 0 .24746-.048.34625-.125l4.95393-3.87486h12.8817c.7768 0 1.42044-.64731 1.42044-1.42857V1.4287c0-.78125-.64363-1.42857-1.42044-1.42857L1.42044 0zm0 1.14286h22.1589c.16756 0 .28408.11719.28408.28571v13.14287c0 .16852-.11652.28571-.28409.28571H10.51127c-.1243-.00111-.24747.0413-.34625.11607l-4.1991 3.28572v-2.83035c0-.29911-.27078-.57142-.56818-.57142H1.4205c-.16757 0-.28409-.1172-.28409-.28572V1.4286c0-.16853.11652-.28572.28409-.28572l-.00006-.00001zm3.12497 4.57143c0 .26897.27077.57143.56818.57143h14.7726c.29962.00446.57593-.26898.57593-.57143 0-.30246-.27633-.57589-.57594-.57143H5.1136c-.3296 0-.56818.30246-.56818.57143zm0 4.57143c0 .26897.27077.57143.56818.57143h14.7726c.29962.00446.57593-.26898.57593-.57143s-.27633-.57589-.57594-.57143H5.1136c-.3296 0-.56818.30246-.56818.57143z" opacity=".54"/></svg>