<?xml version="1.0" encoding="UTF-8"?>
<svg width="32px" height="32px" viewBox="0 0 32 32" version="1.1" xmlns="http://www.w3.org/2000/svg" xmlns:xlink="http://www.w3.org/1999/xlink">
    <!-- Generator: sketchtool 51.2 (57519) - http://www.bohemiancoding.com/sketch -->
    <title>C54F64AA-4F68-45BE-B9B3-878C2F682FCB</title>
    <desc>Created with sketchtool.</desc>
    <defs></defs>
    <g id="Symbols" stroke="none" stroke-width="1" fill="none" fill-rule="evenodd">
        <g id="aprrove" fill="#7ED321" fill-rule="nonzero">
            <g id="Group-3">
                <path d="M11.9272727,20.9454545 L13.8181818,22.8363636 L24.1454545,12.5090909 C24.7272727,11.9272727 24.7272727,11.0545455 24.1454545,10.4727273 C23.5636364,9.89090909 22.6909091,9.89090909 22.1090909,10.4727273 L13.8181818,18.7636364 L9.74545455,14.6909091 C9.16363636,14.1090909 8.29090909,14.1090909 7.70909091,14.6909091 C7.12727273,15.2727273 7.12727273,16.1454545 7.70909091,16.7272727 L11.9272727,20.9454545 Z" id="Shape"></path>
                <path d="M16,29.0909091 C23.2727273,29.0909091 29.0909091,23.2727273 29.0909091,16 C29.0909091,8.72727273 23.2727273,2.90909091 16,2.90909091 C8.72727273,2.90909091 2.90909091,8.72727273 2.90909091,16 C2.90909091,23.2727273 8.72727273,29.0909091 16,29.0909091 Z M16,32 C7.12727273,32 0,24.8727273 0,16 C0,7.12727273 7.12727273,0 16,0 C24.8727273,0 32,7.12727273 32,16 C32,24.8727273 24.8727273,32 16,32 Z" id="Shape"></path>
            </g>
        </g>
    </g>
</svg>