<?xml version="1.0" encoding="UTF-8"?>
<svg width="16px" height="16px" viewBox="0 0 16 16" version="1.1" xmlns="http://www.w3.org/2000/svg" xmlns:xlink="http://www.w3.org/1999/xlink">
    <!-- Generator: sketchtool 51.2 (57519) - http://www.bohemiancoding.com/sketch -->
    <title>600FFD39-E78D-48E3-BF97-40B9A9D3B6E6</title>
    <desc>Created with sketchtool.</desc>
    <defs></defs>
    <g id="Page-1" stroke="none" stroke-width="1" fill="none" fill-rule="evenodd">
        <g id="Notification-center" transform="translate(-1112.000000, -472.000000)" fill="#5D5D5D" fill-rule="nonzero">
            <g id="Group-4-Copy-2" transform="translate(745.000000, 185.000000)">
                <g id="Group-2">
                    <g transform="translate(8.000000, 43.000000)" id="Shape">
                        <path d="M362.555885,244 L371.444115,244 C373.407364,244 375,245.592024 375,247.555885 L375,258.226587 C375,259.206557 374.206016,260 373.226587,260 L360.773413,260 C359.793443,260 359,259.206016 359,258.226587 L359,247.555885 C359,245.592636 360.592024,244 362.555885,244 Z M362.111111,244.888889 C361.666667,244.888889 361.105206,245.47684 361.105206,245.47684 C360.924372,245.643044 360.97325,245.777778 361.220682,245.777778 L372.779318,245.777778 C373.023927,245.777778 373.076389,245.638889 372.894794,245.47684 C372.894794,245.47684 372.333333,244.888889 371.888889,244.888889 L362.111111,244.888889 Z M366.110267,250.222222 C365.619813,250.222222 365.222222,250.616769 365.222222,251.111111 L365.222222,252 L368.777778,252 L368.777778,251.111111 C368.777778,250.620192 368.383686,250.222222 367.889733,250.222222 L366.110267,250.222222 Z M366.432594,256.652446 C366.745964,257.02849 367.254916,257.027435 367.567406,256.652446 L370.877038,252.680888 C371.190408,252.304844 371.045239,252 370.559647,252 L363.440353,252 C362.951693,252 362.810471,252.305899 363.122962,252.680888 L366.432594,256.652446 Z"></path>
                    </g>
                </g>
            </g>
        </g>
    </g>
</svg>