<svg width="21px" height="18px" viewBox="0 0 21 18" version="1.1" xmlns="http://www.w3.org/2000/svg"
     xmlns:xlink="http://www.w3.org/1999/xlink">
    <g id="Ask-a-question-Tab-web" transform="translate(-230.000000, -89.000000)" fill="#FFFFFF" fill-rule="nonzero">
        <g id="Group-10-Copy" transform="translate(200.000000, 80.000000)">
            <g id="Group-15" transform="translate(30.000000, 6.000000)">
                <path d="M20.0944643,5.86713183 L20.0944643,14.549925 C20.0944643,15.9281462 19.1021451,17.0858519 17.8066172,17.3614962 L17.8066172,19.9249875 C17.8066172,20.2281962 17.6687951,20.5038404 17.4758441,20.7243558 C17.2553287,20.8897423 16.9796845,21 16.7040403,21 C16.428396,21 16.1527518,20.8897423 15.9322364,20.6692269 L12.707199,17.4441894 L2.86669998,17.4441894 C1.26796345,17.4441894 0,16.1486616 0,14.5774895 L0,5.86713183 C0,4.26839531 1.29552788,3.00043185 2.86669998,3.00043185 L17.2001999,3.00043185 C18.7989364,2.97286743 20.0944643,4.26839531 20.0944643,5.86713183 Z M10.7776893,13.502477 C10.7776893,13.2543972 10.5847384,13.0614462 10.3366586,13.0614462 L9.17895282,13.0614462 C8.93087302,13.0614462 8.73792206,13.2543972 8.73792206,13.502477 L8.73792206,14.2467164 C8.73792206,14.4947962 8.93087302,14.6877472 9.17895282,14.6877472 L10.3366586,14.6877472 C10.5847384,14.6877472 10.7776893,14.4947962 10.7776893,14.2467164 L10.7776893,13.502477 Z M13.0655364,8.40305874 C13.0655364,7.57612605 12.7898922,6.9145799 12.2386038,6.41842029 C11.6873153,5.92226068 10.9155115,5.67418087 9.95075666,5.67418087 C9.04113071,5.67418087 8.32445571,5.89469626 7.77316725,6.3081626 C7.27700764,6.69406452 7.02892784,7.21778856 6.97379899,7.90689913 C6.97379899,8.07228567 7.08405668,8.21010778 7.24944322,8.21010778 L8.5449711,8.2376722 C8.76548648,8.2376722 8.95843744,8.09985009 9.01356628,7.90689913 C9.06869513,7.74151259 9.1513884,7.60369048 9.26164609,7.49343278 C9.45459705,7.32804625 9.67511243,7.24535298 9.95075666,7.24535298 C10.2815297,7.24535298 10.557174,7.35561067 10.7225605,7.54856163 C10.9155115,7.74151259 10.9982047,8.01715682 10.9982047,8.37549432 C10.9982047,8.70626739 10.9155115,8.98191162 10.7501249,9.25755585 C10.5847384,9.50563566 10.3917874,9.72615104 10.1161432,9.89153758 C9.59241917,10.2498751 9.23408167,10.5806481 9.01356628,10.8838568 C8.84817975,11.1043722 8.76548648,11.4075808 8.73792206,11.8210472 C8.71035763,12.0139981 8.87574417,12.1518203 9.06869513,12.1518203 L10.4744807,12.1518203 C10.6398672,12.1518203 10.7776893,12.0415626 10.8052538,11.876176 C10.8328182,11.6556606 10.8603826,11.4902741 10.9430759,11.352452 C11.0257692,11.159501 11.2187201,10.9665501 11.4667999,10.8011635 C11.9353951,10.5530837 12.321297,10.2223107 12.6245057,9.80884431 C12.9277143,9.36781354 13.0655364,8.89921835 13.0655364,8.40305874 Z"
                      id="Shape"></path>
            </g>
        </g>
    </g>
</svg>