<svg width="16px" height="17px" viewBox="0 0 16 17" version="1.1" xmlns="http://www.w3.org/2000/svg">
        <g id="Ask-your-question-web-active" transform="translate(-452.000000, -388.000000)">
            <g id="Group-9" transform="translate(448.000000, 384.000000)">
                <path d="M9.2008547,21 C7.96153846,21 6.78632479,20.4993404 5.88888889,19.6068602 C4.99145299,18.7143799 4.5,17.5171504 4.5,16.2763852 C4.5,15.0791557 4.94871795,13.9689974 5.78205128,13.1418206 L13.3675214,5.52308707 C14.008547,4.87005277 14.8846154,4.5 15.8247863,4.5 C16.8290598,4.5 17.7905983,4.89182058 18.4529915,5.54485488 C19.1153846,6.21965699 19.5,7.19920844 19.5,8.2005277 C19.5,9.15831135 19.1367521,10.0290237 18.474359,10.682058 L12.0213675,17.1906332 C11.5512821,17.6695251 10.9102564,17.9307388 10.2478632,17.9307388 C9.56410256,17.9307388 8.88034188,17.6477573 8.38888889,17.1470976 C7.8974359,16.646438 7.5982906,15.9716359 7.5982906,15.275066 C7.5982906,14.6002639 7.87606838,13.9472296 8.34615385,13.4683377 L13.474359,8.30936675 L14.2222222,9.09300792 L9.09401709,14.2519789 C8.81623932,14.5131926 8.66666667,14.8832454 8.66666667,15.275066 C8.66666667,15.6886544 8.83760684,16.0804749 9.13675214,16.3852243 C9.43589744,16.6899736 9.84188034,16.8423483 10.2478632,16.8423483 C10.6324786,16.8423483 11.017094,16.6899736 11.2735043,16.4287599 L17.7264957,9.9201847 C18.1752137,9.46306069 18.4316239,8.87532982 18.4316239,8.22229551 C18.4316239,7.50395778 18.1538462,6.80738786 17.6837607,6.32849604 C17.2136752,5.87137203 16.5299145,5.5883905 15.8034188,5.5883905 C15.1623932,5.5883905 14.542735,5.84960422 14.0940171,6.28496042 L6.50854701,13.9036939 C5.88888889,14.5349604 5.54700855,15.3621372 5.54700855,16.2546174 C5.54700855,17.2124011 5.93162393,18.1266491 6.61538462,18.823219 C7.2991453,19.5197889 8.21794872,19.9116095 9.17948718,19.9116095 C10.0769231,19.9116095 10.9102564,19.5633245 11.5299145,18.932058 L17.7905983,12.6411609 L18.5384615,13.4248021 L18.0470085,13.9254617 L12.2991453,19.7156992 C11.4871795,20.542876 10.3760684,21 9.2008547,21 Z" id="Shape-Copy-3"></path>
            </g>
        </g>
</svg>