<svg xmlns="http://www.w3.org/2000/svg" width="38" height="31" viewBox="0 0 38 31">

        <path fill="#FFF" fill-rule="nonzero" d="M8 0v1H6a5 5 0 0 0-5 5v19a5 5 0 0 0 5 5h2v1H6a6 6 0 0 1-6-6V6a6 6 0 0 1 6-6h2zm24 0a6 6 0 0 1 6 6v19a6 6 0 0 1-6 6h-2v-1h2a5 5 0 0 0 5-5V6a5 5 0 0 0-5-5h-2V0h2z"/>
        
        <path fill="#FFF" fill-rule="nonzero" d="M24.778 13.75v-3.694c0-.581-.475-1.056-1.056-1.056H11.056C10.475 9 10 9.475 10 10.056V20.61c0 .58.475 1.056 1.056 1.056h12.666c.58 0 1.056-.475 1.056-1.056v-3.694L29 21.139V9.528l-4.222 4.222z"/>

</svg>
