<svg xmlns="http://www.w3.org/2000/svg" width="17" height="16" viewBox="0 0 17 16">
    <path fill="#888B8E" fill-rule="nonzero" d="M5.217 11.13a.348.348 0 0 0 .348-.347V2.435a.348.348 0 0 0-.695 0v8.348c0 .192.155.347.347.347zm-1.043 2.087h1.391a.348.348 0 0 0 0-.695H4.174a.348.348 0 0 0 0 .695zM1.739 14.61a.348.348 0 0 0 .348-.348v-3.478a.348.348 0 0 0-.696 0v3.478c0 .192.156.348.348.348zm0-4.87a.348.348 0 0 0 .348-.348v-.695a.348.348 0 0 0-.696 0v.695c0 .192.156.348.348.348zm5.913 4.87h.696a.348.348 0 0 0 0-.696h-.696a.348.348 0 0 0 0 .696zm9.024-.116L12.502 2.666a.349.349 0 0 0-.45-.21l-2.313.867v-.888a.348.348 0 0 0-.348-.348H6.957V.347A.348.348 0 0 0 6.609 0H3.13a.348.348 0 0 0-.347.348v3.13H.348A.348.348 0 0 0 0 3.826v11.826c0 .192.156.348.348.348H9.39a.348.348 0 0 0 .348-.348V5.857l3.498 9.91a.349.349 0 0 0 .45.21l2.783-1.043a.348.348 0 0 0 .206-.441zm-13.893.811H.696V4.174h2.087v11.13zm3.478 0H3.478V.696h2.783v14.608zm2.782 0H6.957V2.783h2.086v12.521zm4.732-.102L9.833 4.032l2.13-.8 3.943 11.17-2.13.8zM11.007 4.196a.348.348 0 0 0-.201.45l2.782 7.304a.348.348 0 1 0 .65-.248l-2.783-7.305a.348.348 0 0 0-.448-.2zM8 13.217a.348.348 0 0 0 .348-.347V8a.348.348 0 0 0-.696 0v4.87c0 .192.156.347.348.347zM4.174 14.61h1.391a.348.348 0 0 0 0-.696H4.174a.348.348 0 0 0 0 .696z"/>
</svg>
