<svg xmlns="http://www.w3.org/2000/svg" width="26" height="26" viewBox="0 0 26 26">
    <path fill="#69687D" fill-rule="evenodd" d="M21.125 2.437a2.437 2.437 0 0 1 2.438 2.438v13a2.437 2.437 0 0 1-2.438 2.438H7.175a.853.853 0 0 0-.578.235l-4.16 4.16V4.875a2.437 2.437 0 0 1 2.438-2.438zm0 1.625H4.875a.812.812 0 0 0-.813.813v15.917l1.39-1.39a2.437 2.437 0 0 1 1.722-.715h13.951a.812.812 0 0 0 .813-.812v-13a.812.812 0 0 0-.813-.813zm-7.313 8.125v1.626H8.125v-1.626h5.688zm4.063-3.25v1.626h-9.75V8.937h9.75z"/>
</svg>
