<?xml version="1.0" encoding="UTF-8"?>
<svg width="16px" height="16px" viewBox="0 0 16 16" version="1.1" xmlns="http://www.w3.org/2000/svg" xmlns:xlink="http://www.w3.org/1999/xlink">
    <!-- Generator: sketchtool 50.2 (55047) - http://www.bohemiancoding.com/sketch -->
    <title>C0F9DA6F-6784-4C5B-9D95-6099E2C7914B</title>
    <desc>Created with sketchtool.</desc>
    <defs></defs>
    <g id="2.-ask-a-question" stroke="none" stroke-width="1" fill="none" fill-rule="evenodd">
        <g id="Answer-a-question-web-answerd" transform="translate(-728.000000, -888.000000)" fill="#FFFFFF" fill-rule="nonzero">
            <g id="Group-10-Copy" transform="translate(720.000000, 880.000000)">
                <g id="Group-4-Copy" transform="translate(8.000000, 8.000000)">
                    <path d="M5.96363636,10.4727273 L6.90909091,11.4181818 L12.0727273,6.25454545 C12.3636364,5.96363636 12.3636364,5.52727273 12.0727273,5.23636364 C11.7818182,4.94545455 11.3454545,4.94545455 11.0545455,5.23636364 L6.90909091,9.38181818 L4.87272727,7.34545455 C4.58181818,7.05454545 4.14545455,7.05454545 3.85454545,7.34545455 C3.56363636,7.63636364 3.56363636,8.07272727 3.85454545,8.36363636 L5.96363636,10.4727273 Z" id="Shape"></path>
                    <path d="M8,14.5454545 C11.6363636,14.5454545 14.5454545,11.6363636 14.5454545,8 C14.5454545,4.36363636 11.6363636,1.45454545 8,1.45454545 C4.36363636,1.45454545 1.45454545,4.36363636 1.45454545,8 C1.45454545,11.6363636 4.36363636,14.5454545 8,14.5454545 Z M8,16 C3.56363636,16 0,12.4363636 0,8 C0,3.56363636 3.56363636,0 8,0 C12.4363636,0 16,3.56363636 16,8 C16,12.4363636 12.4363636,16 8,16 Z" id="Shape"></path>
                </g>
            </g>
        </g>
    </g>
</svg>