<svg xmlns="http://www.w3.org/2000/svg" width="24" height="24" viewBox="0 0 24 24">
    <g fill="none" fill-rule="nonzero">
        <path fill="#3532D5" d="M.937 0h22.198c.505 0 .865.432.865.937v22.198c0 .505-.36.865-.865.865H.937C.432 24 0 23.64 0 23.135V.937C0 .432.432 0 .937 0z"/>
        <path fill="#FFF" d="M4.396 12.468c-.504-.648-.432-1.513.145-2.018.648-.504 1.513-.432 2.09.145l3.892 4.612 6.774-10.522c.433-.649 1.37-.865 2.018-.433.649.433.865 1.37.433 2.018l-7.856 12.108-1.081 1.586-1.297-1.441-5.118-6.055z"/>
    </g>
</svg>
