<svg xmlns="http://www.w3.org/2000/svg" viewBox="0 0 20 17">
    <g>
        <path d="M14.398 3.394H2.653C1.449 3.394.5 4.384.5 5.576v8.616c0 1.19.949 2.182 2.153 2.182h11.745c1.204 0 2.153-.991 2.153-2.182V5.576c0-1.191-.949-2.182-2.153-2.182zm0 1.5c.36 0 .653.305.653.682v8.616c0 .377-.292.682-.653.682H2.653c-.36 0-.653-.305-.653-.682V5.576c0-.377.292-.682.653-.682h11.745z"/>
        <path d="M17.66.408c1.05 0 1.877.864 1.877 1.905v8.616c0 1.041-.827 1.906-1.876 1.906l-.98-.001V11.61h.98c.328 0 .599-.252.645-.581l.007-.1V2.312c0-.377-.292-.682-.652-.682H5.915c-.36 0-.652.305-.652.682v.005H4.038c0-.996.75-1.827 1.728-1.904l.148-.006z"/>
        <path d="M8.09 11.854c-.96 0-1.74-.78-1.74-1.74v-.87c0-.961.78-1.74 1.74-1.74.961 0 1.74.779 1.74 1.74v.87c0 .96-.779 1.74-1.74 1.74M6.42 12.724c.103 0 .194.044.253.112.315.355.833.584 1.417.584.585 0 1.101-.23 1.417-.584.06-.068.15-.112.254-.112 1.48 0 2.68.96 2.68 2.144v.978c0 .198-.201.358-.448.358H4.188c-.247 0-.448-.16-.448-.358v-.978c0-1.184 1.2-2.144 2.68-2.144z"/>
    </g>
</svg>
