<svg xmlns="http://www.w3.org/2000/svg" xmlns:xlink="http://www.w3.org/1999/xlink" width="18" height="15" viewBox="0 0 18 15">
    <defs>
        <path id="a" d="M.129.012h6.063v10.84H.13z"/>
        <path id="c" d="M.2.012h6.063v10.84H.2z"/>
        <path id="e" d="M0 .099h17.912V11.28H0z"/>
    </defs>
    <g fill="#69687D" fill-rule="evenodd">
        <g transform="translate(2.4 .228)">
            <mask id="b" fill="#fff">
                <use xlink:href="#a"/>
            </mask>
            <path fill="#69687D" d="M.33 9.731c2.838.044 4.849.662 5.862 1.122V1.266C4.264.169 1.994.012.856.012.636.012.46.018.334.024A.217.217 0 0 0 .13.243v9.28c0 .113.088.206.2.208" mask="url(#b)"/>
        </g>
        <g transform="translate(9.12 .228)">
            <mask id="d" fill="#fff">
                <use xlink:href="#c"/>
            </mask>
            <path fill="#69687D" d="M6.263 9.524V.243a.217.217 0 0 0-.205-.219 11.292 11.292 0 0 0-.522-.012C4.398.012 2.128.17.2 1.266v9.587c1.013-.46 3.024-1.078 5.863-1.122a.205.205 0 0 0 .2-.207" mask="url(#d)"/>
        </g>
        <g transform="translate(0 2.868)">
            <mask id="f" fill="#fff">
                <use xlink:href="#e"/>
            </mask>
            <path fill="#69687D" d="M1.88 9.868c2.612 0 4.391.385 5.377.682a.78.78 0 0 0 .777.73h1.844a.78.78 0 0 0 .777-.73c.985-.297 2.765-.682 5.376-.682l.193.001 1.688.012V.1h-1.127v8.648l-.554-.004h-.2c-3.153 0-5.189.541-6.122.865l-.379.131v.414H8.382V9.74l-.38-.131c-.932-.324-2.968-.866-6.122-.866l-.2.001-.554.004V.099H0v9.782l1.688-.012h.192" mask="url(#f)"/>
        </g>
        <path fill="none" d="M-3-5h24v24H-3z"/>
    </g>
</svg>
