<svg xmlns="http://www.w3.org/2000/svg" width="20" height="17" viewBox="0 0 20 17">
    <g fill="none" fill-rule="evenodd">
        <path stroke="#FFF" stroke-linecap="round" stroke-linejoin="round" stroke-width="1.5" d="M12.398 4.144H.653c-.391 0-.747.163-1.004.431-.245.256-.399.609-.399 1v8.617c0 .392.154.745.4 1 .256.269.612.432 1.003.432h11.745c.391 0 .747-.163 1.003-.431.245-.256.4-.61.4-1.001V5.576c0-.392-.155-.745-.4-1.001-.256-.268-.612-.431-1.003-.431z" transform="translate(2)"/>
        <path fill="#FFF" fill-rule="nonzero" d="M15.66.408c1.05 0 1.877.864 1.877 1.905v8.616c0 1.041-.827 1.906-1.876 1.906l-.98-.001V11.61h.98c.328 0 .599-.252.645-.581l.007-.1V2.312c0-.377-.292-.682-.652-.682H3.915c-.36 0-.652.305-.652.682v.005H2.038c0-.996.75-1.827 1.728-1.904l.148-.006z" transform="translate(2)"/>
        <path fill="#FFF" d="M6.09 11.854c-.96 0-1.74-.78-1.74-1.74v-.87c0-.961.78-1.74 1.74-1.74.961 0 1.74.779 1.74 1.74v.87c0 .96-.779 1.74-1.74 1.74M4.42 12.724c.103 0 .194.044.253.112.315.355.833.584 1.417.584.585 0 1.101-.23 1.417-.584.06-.068.15-.112.254-.112 1.48 0 2.68.96 2.68 2.144v.978c0 .198-.201.358-.448.358H2.188c-.247 0-.448-.16-.448-.358v-.978c0-1.184 1.2-2.144 2.68-2.144z" transform="translate(2)"/>
    </g>
</svg>
