<svg xmlns="http://www.w3.org/2000/svg" width="16" height="16" viewBox="0 0 16 16">
    <path fill-rule="nonzero" d="M10.301 8.256a.353.353 0 0 1 0-.512l5.48-5.48a.79.79 0 0 0 .219-.51.79.79 0 0 0-.22-.512L14.759.219A.79.79 0 0 0 14.247 0a.663.663 0 0 0-.512.22l-5.48 5.479a.353.353 0 0 1-.51 0L2.264.219A.79.79 0 0 0 1.753 0a.79.79 0 0 0-.511.22L.219 1.241A.79.79 0 0 0 0 1.753a.79.79 0 0 0 .22.512l5.479 5.48a.353.353 0 0 1 0 .51l-5.48 5.48a.79.79 0 0 0-.219.512.79.79 0 0 0 .22.511l1.022 1.023a.79.79 0 0 0 .511.219.79.79 0 0 0 .512-.22l5.48-5.479a.353.353 0 0 1 .51 0l5.48 5.48a.79.79 0 0 0 .512.219.79.79 0 0 0 .511-.22l1.023-1.022a.79.79 0 0 0 .219-.511.79.79 0 0 0-.22-.512l-5.479-5.48z"/>
</svg>
