<svg xmlns="http://www.w3.org/2000/svg" width="24" height="24">
    <g fill="#000" fill-rule="nonzero">
        <path d="M12 22C6.4771525 22 2 17.5228475 2 12S6.4771525 2 12 2s10 4.4771525 10 10-4.4771525 10-10 10zm0-1.4285714c4.7338693 0 8.5714286-3.8375593 8.5714286-8.5714286S16.7338693 3.4285714 12 3.4285714 3.4285714 7.2661307 3.4285714 12 7.2661307 20.5714286 12 20.5714286z"/>
        <path d="M12 19.5c4.1421356 0 7.5-3.3578644 7.5-7.5S16.1421356 4.5 12 4.5 4.5 7.8578644 4.5 12s3.3578644 7.5 7.5 7.5z"/>
    </g>
</svg>