<svg xmlns="http://www.w3.org/2000/svg" width="16" height="15"><g fill="#000"  fill-rule="nonzero"><path d="M.6658 14.87491c-.07286 0-.14421-.01502-.21032-.04507-.19904-.08487-.32896-.27939-.33048-.4957V3.83422c.0015-.78411.31395-1.53595.86823-2.09099C1.54827 1.18895 2.3001.8765 3.08422.875h9.83156c.78412.0015 1.53595.31395 2.09099.86823.55428.55504.86673 1.30688.86823 2.091v5.76823c-.0015.78411-.31395 1.53594-.86823 2.09098-.55504.5543-1.30687.86674-2.09099.86824H3.30206L1.0413 14.71727a.5201.5201 0 0 1-.37553.15772l.00002-.00008zM3.08421 1.95637c-1.03723.00075-1.87693.84045-1.87768 1.87767v9.23072l1.50215-1.43454c.10064-.09764.2351-.15172.37553-.15022h9.83156c1.03723-.00075 1.87693-.84045 1.87768-1.87767V3.83409c-.00075-1.03722-.84045-1.87692-1.87768-1.87767l-9.83156-.00005z"/><path d="M4.28071 5.5076c-.26337 0-.47688-.21352-.47688-.47689s.2135-.47688.47688-.47688h7.01193c.26337 0 .47688.2135.47688.47688 0 .26337-.2135.47688-.47688.47688H4.2807zM4.29237 8.29003c-.26981 0-.48854-.21873-.48854-.48854s.21873-.48854.48854-.48854H8.2721c.26982 0 .48854.21873.48854.48854s-.21872.48854-.48854.48854H4.29237z"/></g></svg>