<?xml version="1.0" encoding="UTF-8"?>
<svg width="23px" height="20px" viewBox="0 0 23 20" version="1.1" xmlns="http://www.w3.org/2000/svg" xmlns:xlink="http://www.w3.org/1999/xlink">
    <!-- Generator: sketchtool 49.3 (51167) - http://www.bohemiancoding.com/sketch -->
    <title>10B27E88-80DC-4654-B31A-5B6C26E93DF9</title>
    <desc>Created with sketchtool.</desc>
    <defs></defs>
    <g id="Answer-a-question" stroke="none" stroke-width="1" fill="none" fill-rule="evenodd">
        <g id="Answer-a-question-web-answerd" transform="translate(-911.000000, -32.000000)" fill="#3532D5" fill-rule="nonzero">
            <path d="M930.56774,32 L913.761576,32 C912.222984,32 911,33.2449799 911,34.811245 L911,44.9317269 C911,46.497992 912.222984,47.7429719 913.761576,47.7429719 L921.533441,47.7429719 L926.346474,51.9196787 C926.425376,52 926.504278,52 926.58318,52 C926.622631,52 926.701534,52 926.740985,51.9598394 C926.898789,51.8795181 926.977691,51.7590361 926.977691,51.5983936 L926.977691,47.7429719 L930.56774,47.7429719 C932.106333,47.7429719 933.329317,46.497992 933.329317,44.9317269 L933.329317,34.811245 C933.329317,33.2449799 932.106333,32 930.56774,32 Z" id="Shape"></path>
        </g>
    </g>
</svg>