<?xml version="1.0" encoding="UTF-8"?>
<svg width="32px" height="32px" viewBox="0 0 32 32" version="1.1" xmlns="http://www.w3.org/2000/svg" xmlns:xlink="http://www.w3.org/1999/xlink">
    <!-- Generator: sketchtool 51.2 (57519) - http://www.bohemiancoding.com/sketch -->
    <title>D37374A1-5A60-4806-9F09-88A0287405CC</title>
    <desc>Created with sketchtool.</desc>
    <defs></defs>
    <g id="Symbols" stroke="none" stroke-width="1" fill="none" fill-rule="evenodd">
        <g id="earn">
            <g id="Group" transform="translate(0.000000, 1.000000)">
                <path d="M30.9764898,17.5543199 L30.9700752,21.2257739 C30.9639395,23.4223585 29.5233125,25.6154497 26.6461023,27.2908344 C20.8531946,30.6642405 11.4317363,30.6642405 5.60089903,27.2909742 C2.66791007,25.5942104 1.20301923,23.3666055 1.20929435,21.1422143 L1.21570891,17.4707602 C1.2094338,19.6951514 2.67446408,21.9226166 5.6073136,23.6195201 C11.4381509,26.9926467 20.8597487,26.9926467 26.6525169,23.6193803 C29.529727,21.9439956 30.9703541,19.7509044 30.9764898,17.5543199" id="Fill-4" fill="#9090D5"></path>
                <path d="M26.5830247,11.4422438 C32.4149565,14.8265161 32.4439677,20.3138849 26.6515077,23.6971759 C20.8575135,27.0814482 11.4339217,27.0814482 5.6018504,23.6971759 C-0.228268231,20.3140251 -0.259092542,14.8276376 5.53504115,11.4433653 C11.3273616,8.06007433 20.7527666,8.05895283 26.5830247,11.4422438" id="Fill-6" fill="#D0D0D5"></path>
                <path d="M11.1316794,25.5746663 C9.13081204,25.1596366 7.25083448,24.4954503 5.64285906,23.5786372 C2.68611852,21.8931169 1.20943508,19.6802729 1.21576071,17.4707602 L1.20929451,21.1178858 C1.20296888,23.3275372 2.67965232,25.5402424 5.63625229,27.2259015 C7.24605512,28.1436863 9.12842236,28.808289 11.1316794,29.2233187 L11.1316794,25.5746663 Z" id="Fill-8" fill="#ECECEC"></path>
                <path d="M11.1316794,29.303968 C14.3324912,29.9780389 17.8472986,29.9932414 21.0540846,29.3474835 L21.0540846,25.6839578 C17.8468818,26.3290184 14.3320743,26.3128396 11.1316794,25.6377924 L11.1316794,29.303968 Z" id="Fill-10" fill="#B0B0D5"></path>
                <path d="M24.9338313,12.3991849 C29.7938401,15.2000438 29.8179901,19.7412503 24.9910654,22.5412732 C20.1626051,25.3419928 12.3095344,25.3419928 7.44966518,22.5412732 C2.59105232,19.7413897 2.56550639,15.2008798 7.39396668,12.4001602 C12.2208914,9.60013737 20.0753581,9.59930134 24.9338313,12.3991849" id="Fill-12" fill="#F67603"></path>
                <path d="M11.1316794,10.9098651 L11.1316794,24.0132941 C14.2810848,24.8342184 17.8941201,24.8508042 21.0540846,24.064027 L21.0540846,10.89537 C17.892314,10.0963277 14.2791397,10.1012059 11.1316794,10.9098651" id="Fill-14" fill="#D0501C"></path>
                <path d="M11.1316794,11.0964912 C9.77273503,11.4456683 8.49964803,11.9422353 7.38837994,12.5902476 C2.56740268,15.4011441 2.59290902,19.9577862 7.44399213,22.7677039 C8.54285549,23.4043892 9.79601131,23.8952228 11.1316794,24.2434211 L11.1316794,11.0964912 Z" id="Fill-16" fill="#F67603"></path>
                <path d="M24.8037577,13.7864851 C19.9623962,10.9960317 12.1355934,10.9968649 7.32566938,13.7874572 C5.22659616,15.0052081 4.04866692,16.5529141 3.78909962,18.1426976 C4.04936244,19.7502566 5.24648797,21.3179598 7.38117172,22.5483479 C12.2239242,25.3396345 20.049336,25.3396345 24.8607902,22.5483479 C26.9591679,21.3308747 28.1370971,19.7831688 28.3966644,18.1932463 C28.1362625,16.5854096 26.9392761,15.0172898 24.8037577,13.7864851" id="Fill-18" fill="#FFA515"></path>
                <polygon id="Fill-20" fill="#FEEBBD" points="17.0851225 14.4407118 17.0821194 15.4788012 16.092882 14.9233233 16.0958852 13.8852339"></polygon>
                <polygon id="Fill-22" fill="#F67603" points="21.2525327 13.686038 21.2495246 14.6274439 19.6649479 15.4788012 19.6678128 14.5373953"></polygon>
                <polygon id="Fill-24" fill="#F67603" points="23.0385656 14.4828216 23.0355578 15.4240951 21.4509808 16.2755848 21.4539887 15.3341789"></polygon>
                <polygon id="Fill-26" fill="#F67603" points="18.4742593 15.2796053 18.4714998 16.2587785 15.6959858 17.869152 15.6987453 16.8899788"></polygon>
                <path d="M21.0408961,17.1718697 C20.9705735,16.8596682 20.6283003,16.5282733 19.9936116,16.1598728 L18.4768689,15.2796053 L18.4742593,16.2610863 L19.9907272,17.1414919 C20.6255534,17.5098924 20.9678265,17.8412873 21.0381491,18.1534888 C21.0469394,18.1918754 21.0513346,18.2299858 21.0511973,18.2675439 L21.0540816,17.2860629 C21.0542189,17.2483667 21.0496864,17.2103944 21.0408961,17.1718697" id="Fill-28" fill="#FEEBBD"></path>
                <polygon id="Fill-30" fill="#F67603" points="14.3068491 17.4707602 14.3040166 18.4361698 11.5285756 20.060307 11.5314081 19.0948975"></polygon>
                <polygon id="Fill-32" fill="#FEEBBD" points="9.14719841 19.2283522 9.14458553 20.2595029 7.95650979 19.4978905 7.95925331 18.4667398"></polygon>
                <path d="M23.2370137,17.4707602 L23.2341688,18.4406211 C23.2335998,18.6451543 23.1644673,18.8449118 23.0266292,19.0392114 C22.8465434,19.2834504 22.5897861,19.4968526 22.2462576,19.6884233 C21.8818186,19.891592 21.5929132,20.0143937 21.3065683,20.0860281 C21.0623288,20.1489299 20.736439,20.2220651 20.3523698,20.2483993 C19.8079874,20.2819651 19.2576305,20.2395303 18.6727074,20.1197303 L18.6756946,19.149733 C19.2604754,19.2696694 19.8106901,19.3121042 20.3552148,19.2784019 C20.7391417,19.2520678 21.0650315,19.179069 21.3094133,19.1161672 C21.5959004,19.0445328 21.8845213,18.9217311 22.2492448,18.718426 C22.5927733,18.5269917 22.8493884,18.3134531 23.0294741,18.0693505 C23.1674546,17.8749144 23.2364448,17.6752934 23.2370137,17.4707602" id="Fill-34" fill="#F67603"></path>
                <path d="M17.4749931,19.5729722 C17.4253835,19.2554885 17.0733845,18.9141096 16.3921839,18.5308094 L14.5083082,17.4707602 L14.5052972,18.4640149 L16.3893163,19.5242038 C17.0705169,19.907504 17.4226592,20.2488829 17.4721255,20.5662269 C17.4768571,20.5972486 17.4791511,20.6277114 17.4790078,20.6578947 L17.4820187,19.6646401 C17.4820187,19.634317 17.4797247,19.6038542 17.4749931,19.5729722" id="Fill-36" fill="#FEEBBD"></path>
                <polygon id="Fill-38" fill="#FEEBBD" points="10.9332313 20.1347867 10.9299923 21.0562865 10.337887 20.7827406 10.3411261 19.8611111"></polygon>
                <polygon id="Fill-40" fill="#F67603" points="10.337887 19.8611111 10.3350689 20.8987692 8.7503022 21.8530702 8.75312032 20.8152661"></polygon>
                <polygon id="Fill-42" fill="#FEEBBD" points="8.7503022 20.9018006 8.74744478 21.8530702 7.55961358 21.2107725 7.56247101 20.2595029"></polygon>
                <polygon id="Fill-44" fill="#F67603" points="11.9254719 20.8570906 11.9225131 21.8947488 10.337887 22.8490497 10.3408458 21.8113916"></polygon>
                <polygon id="Fill-46" fill="#FEEBBD" points="10.5363351 21.8978341 10.5333352 22.8490497 9.34564651 22.2066981 9.34864645 21.2554825"></polygon>
                <path d="M18.3500312,15.2233191 L15.5610243,16.8672049 L17.0406565,17.7335847 C18.0003655,18.2956558 18.8451368,18.4780442 19.6290424,18.2880622 C19.9208926,18.209735 20.1359329,18.1253611 20.3199164,18.0167999 C20.8107239,17.7275379 21.006631,17.4517757 20.9384171,17.1504201 C20.8672916,16.8324709 20.5217853,16.4949751 19.8811012,16.1197923 L18.3500312,15.2233191 M15.9984531,20.8119683 C16.2315173,20.7502347 16.4464189,20.6567202 16.694457,20.5106126 C17.1238442,20.2574908 17.3094915,19.9817286 17.2641542,19.6698262 C17.2161826,19.3503302 16.8758062,19.0067876 16.2170981,18.6211987 L14.3954257,17.5542901 L11.5423643,19.2358629 L13.6909644,20.4940191 C14.5088383,20.9008422 15.2659852,21.0049034 15.9984531,20.8119683 M18.5926621,19.1921291 C19.3668624,20.042056 19.2247501,20.784828 18.1714549,21.4056796 C17.3509467,21.889283 16.3902672,22.1048584 15.3229688,22.0414373 C14.2301595,21.9872974 13.1537104,21.6543015 12.1217667,21.0500434 L11.9314055,20.9385292 L10.3720517,21.8577834 L9.21934722,21.1826511 L10.778701,20.2635376 L10.2716719,19.9666819 L8.71231807,20.8857955 L7.55961358,20.2108039 L9.11896737,19.2916903 L7.85825749,18.5532776 L9.07501652,17.8360991 L9.98841768,18.3710299 L16.8830158,14.3071586 L15.9696146,13.7722278 L17.1863737,13.0550492 L18.4472222,13.7933213 L19.9812037,12.8892544 L21.1339082,13.564246 L19.6000653,14.4683129 L20.1069558,14.7651685 L21.6407987,13.8611017 L22.7936419,14.5362339 L21.2596603,15.4401601 C22.839811,16.3924608 23.3730443,17.2785279 22.8362062,18.0786742 C22.6608188,18.3302492 22.4105624,18.5503245 22.0757318,18.747619 C21.7203816,18.9571476 21.4389299,19.0837085 21.1598351,19.1575357 C20.9216409,19.2222224 20.6040025,19.2975965 20.2297964,19.3247368 C19.6989201,19.3594707 19.1626366,19.3157369 18.5926621,19.1921291" id="Fill-48" fill="#FFD62C"></path>
                <path d="M18.1588327,21.4301903 C17.339568,21.9055143 16.3803445,22.1173991 15.3146637,22.0550637 C14.2235106,22.0018507 13.148693,21.6745558 12.1183133,21.0806427 L11.9282406,20.9710376 L11.9254719,21.9536134 L12.115683,22.0632185 C13.1459242,22.6569933 14.2207419,22.9844265 15.3120334,23.0376395 C16.3775758,23.0998366 17.3367993,22.8880901 18.156064,22.4126279 C18.7615833,22.0612835 19.0655889,21.6701329 19.0668349,21.2419405 L19.0696036,20.2595029 C19.0683577,20.6875571 18.7644905,21.0788459 18.1588327,21.4301903" id="Fill-50" fill="#F67603"></path>
                <path d="M14.3068491,21.8459485 C13.5600473,21.6935019 12.8249037,21.402006 12.1121388,20.9689224 L11.9281519,20.8570906 L11.9254719,21.8596278 L12.1095927,21.9714595 C12.8231617,22.4049662 13.5591092,22.6967442 14.3068491,22.8490497 L14.3068491,21.8459485 Z" id="Fill-52" fill="#FEEBBD"></path>
                <path d="M32.1671784,12.9728139 L32.1607639,16.6442628 C32.1544888,18.8408442 30.7138685,21.0339323 27.8368112,22.7094544 C22.0439307,26.082716 12.622377,26.082716 6.79170653,22.7094544 C3.85873131,21.0126931 2.39370788,18.7850913 2.39998297,16.5607033 L2.40653695,12.8892544 C2.40012241,15.1136424 3.86514584,17.3411045 6.79812106,19.0380055 C12.628931,22.4112671 22.0503452,22.4111274 27.8432258,19.0378658 C30.7204224,17.3624834 32.1609033,15.1693953 32.1671784,12.9728139" id="Fill-54" fill="#9090D5"></path>
                <path d="M27.7736854,6.86067513 C33.6056309,10.2449337 33.6346421,15.7322804 27.842308,19.1155576 C22.0481607,22.4999564 12.6246864,22.4999564 6.7926014,19.1156978 C0.962329628,15.7324205 0.931644721,10.2461954 6.72579199,6.86179662 C12.5181261,3.47851932 21.9434136,3.47753801 27.7736854,6.86067513" id="Fill-56" fill="#D0D0D5"></path>
                <path d="M12.3223681,20.9932035 C10.321529,20.5780399 8.44157808,19.9140002 6.83348487,18.997198 C3.87692678,17.3115588 2.4001237,15.0988797 2.40644924,12.8892544 L2.39998313,16.5363369 C2.39365759,18.7459622 3.87046067,20.9586413 6.82701876,22.6442805 C8.43679878,23.5620544 10.3189988,24.2266493 12.3223681,24.6418129 L12.3223681,20.9932035 Z" id="Fill-58" fill="#ECECEC"></path>
                <path d="M12.3223681,24.7224622 C15.5232246,25.396533 19.0379424,25.4117355 22.2447732,24.7659776 L22.2447732,21.102452 C19.0375255,21.7473731 15.5228078,21.7313337 12.3223681,21.0562865 L12.3223681,24.7224622 Z" id="Fill-60" fill="#B0B0D5"></path>
                <path d="M26.1246372,7.81767902 C30.9845132,10.6185379 31.0086632,15.1597445 26.1817317,17.9597673 C21.3532646,20.7604869 13.5003225,20.7604869 8.64030683,17.9597673 C3.78182672,15.1598838 3.75614116,10.619374 8.58460824,7.8186544 C13.4115398,5.01863153 21.2660175,5.01779549 26.1246372,7.81767902" id="Fill-62" fill="#F67603"></path>
                <path d="M12.3223681,6.32830376 L12.3223681,19.4318098 C15.4718175,20.2527302 19.0849034,20.2693158 22.2447732,19.482403 L22.2447732,6.31380873 C19.0829583,5.51490964 15.4697334,5.5196484 12.3223681,6.32830376" id="Fill-64" fill="#D0501C"></path>
                <path d="M12.3223681,6.31578947 C10.9633004,6.66510268 9.69022857,7.16166442 8.57897371,7.80966978 C3.75805379,10.6203966 3.7836992,15.1771301 8.63458523,17.9870178 C9.7335749,18.6235565 10.9865764,19.1143849 12.3223681,19.4627193 L12.3223681,6.31578947 Z" id="Fill-66" fill="#F67603"></path>
                <path d="M25.9945854,9.20498208 C21.1530849,6.41452489 13.3262821,6.41535811 8.516358,9.20595417 C6.41728478,10.4237067 5.23935554,11.9714147 4.97978824,13.5612004 C5.24019017,15.1687615 6.43717659,16.7364669 8.57186034,17.9668566 C13.4147519,20.758147 21.2400246,20.758147 26.0514788,17.9667177 C28.1498565,16.7493818 29.3277857,15.2016737 29.5873531,13.6117492 C29.3270902,12.0039103 28.1299647,10.4357884 25.9945854,9.20498208" id="Fill-68" fill="#FFA515"></path>
                <polygon id="Fill-70" fill="#FEEBBD" points="18.2758112 9.85920592 18.2726579 10.8972953 17.2835706 10.3418175 17.2864236 9.30372807"></polygon>
                <polygon id="Fill-72" fill="#F67603" points="22.4432213 8.90533626 22.4402132 9.84674217 20.8556365 10.6980994 20.8585014 9.7566935"></polygon>
                <polygon id="Fill-74" fill="#F67603" points="24.0308062 9.90131579 24.027798 10.8427217 22.4432213 11.6940789 22.4460862 10.752673"></polygon>
                <polygon id="Fill-76" fill="#F67603" points="19.6649479 10.6980994 19.6620505 11.6772727 16.8866744 13.2876462 16.8895718 12.308473"></polygon>
                <path d="M22.231722,12.5903639 C22.161262,12.2781623 21.8189889,11.9467675 21.1843001,11.5783669 L19.6676949,10.6980994 L19.6649479,11.6795804 L21.1815532,12.559986 C21.8163792,12.9283866 22.1586524,13.2597814 22.2288376,13.571983 C22.2377653,13.6103695 22.2421605,13.6483419 22.2420231,13.686038 L22.2447701,12.704557 C22.2449075,12.6668608 22.2405123,12.6287504 22.231722,12.5903639" id="Fill-78" fill="#FEEBBD"></path>
                <polygon id="Fill-80" fill="#F67603" points="15.4975377 12.8892544 15.4947052 13.8546639 12.7192643 15.4788012 12.7220968 14.5133916"></polygon>
                <polygon id="Fill-82" fill="#FEEBBD" points="10.337887 14.6468464 10.3351435 15.6779971 9.14719841 14.9163846 9.14981129 13.8852339"></polygon>
                <path d="M24.4277024,12.8892544 L24.4247152,13.8591377 C24.4242884,14.0636756 24.3550137,14.2633013 24.2173178,14.4577419 C24.0370898,14.7019866 23.7804747,14.9153937 23.4369462,15.1069688 C23.072365,15.3101422 22.7836019,15.4329468 22.497257,15.5045828 C22.2528752,15.567486 21.9269854,15.640623 21.5429162,15.6668213 C20.9985337,15.7005243 20.4481769,15.6580885 19.863396,15.5382858 L19.8662409,14.568266 C20.4511641,14.6882052 21.0013787,14.730641 21.5457612,14.6969379 C21.9298303,14.6706032 22.2557201,14.5976027 22.4999597,14.5346994 C22.7864468,14.4630634 23.0752099,14.3402588 23.4397911,14.136949 C23.7833197,13.9455103 24.0399348,13.7319668 24.2201628,13.4878585 C24.3580009,13.2934179 24.4269911,13.0937923 24.4277024,12.8892544" id="Fill-84" fill="#F67603"></path>
                <path d="M18.6658191,14.9914664 C18.6162096,14.6739826 18.2640679,14.3326037 17.5828688,13.9493036 L15.6989968,12.8892544 L15.6959858,13.882509 L17.5800012,14.942698 C18.2613437,15.3259981 18.613342,15.667377 18.6628082,15.984721 C18.6676831,16.0157428 18.6698338,16.0462056 18.6696904,16.0763889 L18.6727014,15.0829945 C18.6728448,15.0528112 18.6704073,15.0223484 18.6658191,14.9914664" id="Fill-86" fill="#FEEBBD"></path>
                <polygon id="Fill-88" fill="#FEEBBD" points="12.12392 15.5532809 12.1205198 16.4747807 11.5285756 16.2012347 11.5319758 15.2796053"></polygon>
                <polygon id="Fill-90" fill="#F67603" points="11.5285756 15.2796053 11.5256169 16.3172634 9.94099082 17.2715643 9.94380869 16.2337602"></polygon>
                <polygon id="Fill-92" fill="#FEEBBD" points="9.94099082 16.3202947 9.9381334 17.2715643 8.7503022 16.6292667 8.75315963 15.6779971"></polygon>
                <polygon id="Fill-94" fill="#F67603" points="13.1161605 16.2755848 13.1133426 17.3132429 11.5285756 18.2675439 11.5315344 17.2297398"></polygon>
                <polygon id="Fill-96" fill="#FEEBBD" points="11.5285756 17.1170784 11.5255754 18.068348 10.337887 17.4260503 10.3407445 16.4747807"></polygon>
                <path d="M19.5407771,10.6418132 L16.7517912,12.285699 L18.2312736,13.1520789 C19.191114,13.71415 20.0357403,13.8963977 20.81964,13.7065563 C21.111488,13.6282292 21.3265267,13.5438552 21.5105088,13.4352941 C22.0013126,13.1460321 22.1973569,12.8702699 22.1290048,12.5689142 C22.0578798,12.2509651 21.7123761,11.9134693 21.0716969,11.5382864 L19.5407771,10.6418132 M17.189078,16.2304624 C17.4221405,16.1687288 17.6371792,16.0752143 17.8850767,15.9291068 C18.3144607,15.6759849 18.5002452,15.4002227 18.4549083,15.0883204 C18.406937,14.7688244 18.0664246,14.4252818 17.4077214,14.0395522 L15.5860628,12.9727842 L12.7330228,14.654357 L14.8817454,15.9125132 C15.6994745,16.3193363 16.4567543,16.4233975 17.189078,16.2304624 M19.7832675,14.6106232 C20.557462,15.4605501 20.4154894,16.2033221 19.3622021,16.8241738 C18.5415615,17.3077771 17.5808892,17.5233526 16.5137375,17.4599315 C15.4207978,17.4057915 14.3444954,17.0727957 13.3125596,16.4685376 L13.1220611,16.3570233 L11.5627191,17.2761369 L10.4100233,16.6011453 L11.969504,15.6820317 L11.4624787,15.3851761 L9.902998,16.3042896 L8.7503022,15.629298 L10.3097829,14.7101845 L9.04894386,13.9717718 L10.2658324,13.2545932 L11.179088,13.789524 L18.0737727,9.72565276 L17.1602398,9.19072192 L18.3771283,8.47354335 L19.6379674,9.21181541 L21.1717987,8.30774854 L22.3244945,8.98274014 L20.7908018,9.88680701 L21.2975498,10.1836627 L22.8313811,9.27959582 L23.9842156,9.95458741 L22.4502456,10.8586543 C24.0303844,11.8109549 24.5637523,12.697022 24.0269183,13.4971683 C23.8513935,13.7487433 23.601139,13.9688187 23.266311,14.1661131 C22.9111021,14.3756418 22.6295138,14.5022027 22.3504211,14.5760299 C22.1123674,14.6407166 21.7947313,14.7160906 21.4203894,14.7432309 C20.8896558,14.7779649 20.3533763,14.734231 19.7832675,14.6106232" id="Fill-98" fill="#FFD62C"></path>
                <path d="M19.3496421,16.8486845 C18.5302231,17.3240085 17.5711195,17.5358932 16.505418,17.4735579 C15.4141053,17.4203448 14.3392668,17.0930499 13.3090057,16.4991369 L13.1187908,16.3895318 L13.1161605,17.3721075 L13.3062369,17.4817126 C14.3364981,18.0754875 15.4113365,18.4029206 16.5026492,18.4561337 C17.5683507,18.5183308 18.5274544,18.3065842 19.3467349,17.831122 C19.9524044,17.4797776 20.2564159,17.088627 20.2576619,16.6604346 L20.2602922,15.6779971 C20.2590462,16.1060513 19.9553116,16.49734 19.3496421,16.8486845" id="Fill-100" fill="#F67603"></path>
                <path d="M15.4975377,17.2644426 C14.7507359,17.1119961 14.0155924,16.8205002 13.3029614,16.3874166 L13.1188405,16.2755848 L13.1161605,17.2781219 L13.3002814,17.3899537 C14.0138503,17.8234604 14.7497979,18.1152383 15.4975377,18.2675439 L15.4975377,17.2644426 Z" id="Fill-102" fill="#FEEBBD"></path>
                <path d="M30.1826974,8.9888959 L30.1761434,12.66035 C30.1700077,14.8569345 28.7293874,17.0500257 25.8521908,18.7254104 C20.0594496,22.0988165 10.637896,22.0988165 4.80708605,18.7255502 C1.87425027,17.0287865 0.409226849,14.8011815 0.415501935,12.5767903 L0.421916467,8.90533626 C0.415641381,11.1295877 1.8806648,13.3571927 4.81364003,15.0539564 C10.6443105,18.4272227 20.0658642,18.4272227 25.8587447,15.0539564 C28.735802,13.3785716 30.1764223,11.1853407 30.1826974,8.9888959" id="Fill-104" fill="#9090D5"></path>
                <path d="M25.7892069,2.87680444 C31.621149,6.26105621 31.6501601,11.7483917 25.8578295,15.1316622 C20.0636857,18.5160541 10.6400774,18.5160541 4.80813541,15.1316622 C-1.0221329,11.7485319 -1.05281779,6.2621777 4.74118657,2.87792594 C10.5335172,-0.505344516 19.9589386,-0.506466011 25.7892069,2.87680444" id="Fill-106" fill="#D0D0D5"></path>
                <path d="M10.337887,17.0092854 C8.33690741,16.5941218 6.45695648,15.9300821 4.84900384,15.0132798 C1.89230518,13.3277795 0.415642664,11.1149616 0.421968205,8.90533626 L0.415502096,12.5525575 C0.409176555,14.7620441 1.88597964,16.9748619 4.84239716,18.6603623 C6.45217718,19.5781362 8.33451776,20.2427311 10.337887,20.6578947 L10.337887,17.0092854 Z" id="Fill-108" fill="#ECECEC"></path>
                <path d="M10.337887,20.7384972 C13.5386046,21.4125595 17.0534613,21.4279012 20.2602922,20.7820121 L20.2602922,17.1185332 C17.0530445,17.7635856 13.5381878,17.747407 10.337887,17.0723684 L10.337887,20.7384972 Z" id="Fill-110" fill="#B0B0D5"></path>
                <path d="M24.1400389,3.83375325 C29.0000477,6.63460195 29.0241977,11.1757919 24.197273,13.9758046 C19.3688127,16.776514 11.515742,16.7766533 6.65587277,13.9758046 C1.79725991,11.1759313 1.77171398,6.63543798 6.60017426,3.83472862 C11.427099,1.03471595 19.2815656,1.03387991 24.1400389,3.83375325" id="Fill-112" fill="#9090D5"></path>
                <path d="M10.337887,2.34443667 L10.337887,15.4477702 C13.4871975,16.2688279 17.1002835,16.2854135 20.2602922,15.4985027 L20.2602922,2.32994168 C17.0984773,1.53090523 13.4852524,1.53578335 10.337887,2.34443667" id="Fill-114" fill="#7171D5"></path>
                <path d="M10.337887,2.33187135 C8.97882903,2.68104843 7.7057662,3.17775528 6.59451921,3.82562771 C1.77363346,6.63652423 1.79913932,11.1931663 6.65013034,14.003084 C7.74897284,14.6397693 9.00210487,15.130603 10.337887,15.4788012 L10.337887,2.33187135 Z" id="Fill-116" fill="#9090D5"></path>
                <path d="M24.0099653,5.22105273 C19.1686038,2.4306105 11.341801,2.43144372 6.53187697,5.22202481 C4.43280374,6.4397708 3.25487451,7.98760941 2.99530721,9.57724772 C3.25557003,11.1848002 4.45269556,12.7524971 6.5873793,13.9828802 C11.4301318,16.7742945 19.2555436,16.7741557 24.0669978,13.9828802 C26.1653755,12.765412 27.3433047,11.2177122 27.602872,9.62779619 C27.3426092,8.01996599 26.1454837,6.45185244 24.0099653,5.22105273" id="Fill-118" fill="#B0B0D5"></path>
                <path d="M23.0476625,20.7556135 L23.8916306,21.2189364 C24.077198,21.3208788 24.077198,21.5884779 23.8916306,21.6904204 L23.0476625,22.1537432 C23.0027327,22.178513 22.9657904,22.2154528 22.9412572,22.2605538 L22.4796922,23.1077359 C22.3781364,23.2940101 22.1115527,23.2940101 22.0099969,23.1077359 L21.5482892,22.2605538 C21.5237561,22.2154528 21.4869564,22.178513 21.4418839,22.1537432 L20.5979159,21.6904204 C20.4123484,21.5884779 20.4123484,21.3208788 20.5979159,21.2189364 L21.4418839,20.7556135 C21.4869564,20.7309869 21.5237561,20.6939039 21.5482892,20.648803 L22.0099969,19.8016208 C22.1115527,19.6153467 22.3781364,19.6153467 22.4796922,19.8016208 L22.9412572,20.648803 C22.9657904,20.6939039 23.0027327,20.7309869 23.0476625,20.7556135" id="Fill-141" fill="#D0D0D5"></path>
            </g>
        </g>
    </g>
</svg>