<svg width="24px" height="18px" viewBox="0 0 24 18" version="1.1" xmlns="http://www.w3.org/2000/svg" xmlns:xlink="http://www.w3.org/1999/xlink">
    <g id="Registration" stroke="none" stroke-width="1" fill="none" fill-rule="evenodd">
        <g id="Get-Started" transform="translate(-135.000000, -464.000000)" fill="#4A4A4A" fill-rule="nonzero">
            <g id="Email" transform="translate(135.000000, 464.000000)">
                <path d="M14.3226667,12.3738667 C13.7037333,12.9925333 12.8789333,13.3333333 12,13.3333333 C11.1210667,13.3333333 10.2962667,12.9925333 9.67733333,12.3736 L6.15413333,8.8504 L0.00213333333,15.0024 L0.00213333333,15.3744 C0.00213333333,16.4584 0.889066667,17.3450667 1.9728,17.3450667 L22.0274667,17.3450667 C23.1114667,17.3450667 23.9981333,16.4581333 23.9981333,15.3744 L23.9981333,15.0424 L17.8261333,8.8704 L14.3226667,12.3738667 Z" id="Shape"></path>
                <path d="M0.88,3.57626667 C0.556,3.25226667 0.00186666667,3.4816 0.00186666667,3.94 L0.00186666667,13.1746667 L5.24026667,7.93626667 L0.88,3.57626667 Z" id="Shape"></path>
                <path d="M23.9981333,3.94 C23.9981333,3.4816 23.444,3.25226667 23.12,3.57626667 L18.7397333,7.95653333 L23.9978667,13.2146667 L23.9978667,3.94 L23.9981333,3.94 Z" id="Shape"></path>
                <path d="M12,12.0194667 C12.5050667,12.0194667 13.0104,11.8277333 13.3936,11.4445333 L23.6802667,1.15786667 C23.3282667,0.615733333 22.7184,0.2544 22.0274667,0.2544 L1.9728,0.2544 C1.28186667,0.2544 0.672,0.615733333 0.32,1.15786667 L10.6066667,11.4445333 C10.9896,11.828 11.4949333,12.0194667 12,12.0194667 Z" id="Shape"></path>
            </g>
        </g>
    </g>
</svg>