<svg xmlns="http://www.w3.org/2000/svg" width="16" height="16"><g fill="#43425D" fill-rule="nonzero"><path d="M15.00002 2.01271c0-.01488-.00149-.02604-.00372-.03125.00595.01116.01116.05209.00372.03125z"/><path d="M3.135 4.88282V1.6768c0-.1674-.01358-.34242.00755-.50984-.00755.05174-.01359.10045-.02114.1522.00906-.05936.02415-.11415.0468-.16894l-.0566.13697c.0166-.03805.03773-.07229.0566-.10806.0415-.0761-.08302.09132-.03774.04718.0151-.0137.02641-.03043.0415-.04566.01132-.01141.02415-.0213.03623-.03195.06188-.0624-.09282.05935-.04679.03652.03924-.01902.07546-.04718.11697-.06696l-.13583.05707c.06187-.02663.12677-.04338.19243-.05479-.05132.00761-.09961.0137-.15093.0213.12829-.01521.26262-.0076.3909-.0076h9.7528c.4543 0 .9116-.00152 1.36589 0 .03924 0 .07697.00152.11696.0076-.0513-.0076-.0996-.01369-.15092-.0213.06791.01141.1298.02892.1947.05479a9935.28973 9935.28973 0 0 1-.13584-.05707c.03773.01674.07395.03652.10942.05935.02113.0137.08452.0624.0015 0-.083-.06468-.0166-.01141-.0015.0038.01132.01142.02264.02436.03396.03653.06414.0624-.05886-.0936-.03623-.04718.02114.03957.0468.0761.06641.11795a5275.54848 5275.54848 0 0 0-.0566-.13697c.02264.05479.03774.11034.04906.16893-.00755-.05174-.01359-.10044-.02113-.15219.01886.14458.00754.29525.00754.44135v13.06413c0 .03957-.0015.0799-.00754.12175.00754-.05174.01358-.10044.02113-.1522-.00906.05936-.02642.11567-.04906.1735l.0566-.13696a.88997.88997 0 0 1-.05886.11262c-.03622.05707-.0664.04718.02868-.03425-.0151.0137-.02868.03196-.04302.04566-.00603.00609-.0415.04337-.04528.04337-.0015 0 .13433-.09131.04302-.03652-.03924.02435-.07924.04718-.12225.06696l.13583-.05707c-.0566.02283-.11168.03805-.17205.04946.05131-.0076.0996-.0137.15092-.0213-.12829.01674-.26262.0076-.3909.0076H4.6654c-.4543 0-.9116.00153-1.36588 0-.03925 0-.07698-.00152-.11697-.0076.05131.0076.0996.0137.15092.0213-.05886-.00913-.1147-.02663-.16979-.04946l.13584.05707c-.03774-.01674-.07396-.03957-.10943-.05935-.083-.04338.10188.09512.03622.02891-.01509-.01521-.03018-.02891-.04527-.04337-.00604-.00609-.04302-.04338-.0415-.04566.0015-.0038.09055.13697.03772.04566-.02264-.03957-.04528-.0799-.06414-.12175l.0566.13697c-.02264-.05707-.03773-.11262-.0468-.1735.00756.05175.0136.10045.02114.1522-.0166-.1385-.00755-.28308-.00755-.42235V11.1089c0-.29828-.26035-.58441-.56597-.57072-.3079.0137-.56598.25113-.56598.57072V14.65881c.0015.73204.572 1.33549 1.30325 1.33929.46637.00152.93197 0 1.39759 0H14.42357c.1283 0 .25809.0076.38487-.00761.31318-.03805.60522-.1598.82632-.39569.22035-.23743.33958-.52658.36373-.84847C16 14.70828 16 14.67023 16 14.63218V1.32627c0-.12785-.01132-.25493-.04301-.3782-.15093-.56462-.68296-.93978-1.2527-.9474-.10414-.00152-.20978 0-.31544 0H3.29572c-.35316.00153-.72445.14307-.9599.417C2.10942.68022 2 .9884 2 1.33693V4.8929c0 .29829.26036.58442.56598.57072.30865-.02359.56899-.261.56899-.58062l.00003-.00017z"/><path d="M7.1709 4.9163l3.81913 3.46472v-.76114L9.69986 8.79033l-2.0579 1.86692-.47094.42725c-.22003.19961-.23588.56583 0 .76114.23746.19747.60551.214.839 0L9.3002 10.6752a41087408.65635 41087408.65635 0 0 1 2.52884-2.29417c.22796-.2068.22796-.55434 0-.76114L8.0099 4.15515c-.22003-.19962-.62371-.214-.839 0-.21688.21399-.2327.54717 0 .76114z"/><path d="M.54797 7.99705H9.22999c.4015 0 .80448.00663 1.20598 0h.01606c.28616 0 .56065-.22865.54752-.49705-.01314-.2704-.24092-.49705-.54752-.49705H1.77001c-.4015 0-.80448-.00663-1.20598 0H.54797c-.28616 0-.56065.22865-.54752.49705.0146.2684.24092.49705.54752.49705z"/></g></svg>