<svg xmlns="http://www.w3.org/2000/svg" width="16" height="16"><path fill="#000" fill-rule="nonzero" d="M3.0684 16c-.2881 0 1.60045-.17045 1.50081-.43082L2.1302 9.19045H.6887C.30785 9.19045 0 8.8973 0 8.53673c0-.3615.30884-.65372.6887-.65372h1.92399c.29007 0 .54859.17233.64725.43082L5.0665 13.0368 8.0826.50855C8.15464.21165 8.43287 0 8.75454 0h6.55237c.38085 0 .6887.29315.6887.65372 0 .3615-.30883.65372-.6887.65372l-6.004.00094-3.41495 14.18305c-.06808.28284-.32463.48889-.6295.50668-.0092.00062-.73923.00125-2.19007.00189z" opacity=".54"/></svg>