<?xml version="1.0" encoding="UTF-8"?>
<svg width="36px" height="34px" viewBox="0 0 36 34" version="1.1" xmlns="http://www.w3.org/2000/svg" xmlns:xlink="http://www.w3.org/1999/xlink">
    <!-- Generator: sketchtool 51.3 (57544) - http://www.bohemiancoding.com/sketch -->
    <title>9A467549-D0B8-4CA4-9096-28A512F25541</title>
    <desc>Created with sketchtool.</desc>
    <defs></defs>
    <g id="Upload-Docs." stroke="none" stroke-width="1" fill="none" fill-rule="evenodd" opacity="0.25">
        <g id="Upload-Flow_4" transform="translate(-769.000000, -313.000000)" fill="#000000" fill-rule="nonzero">
            <g id="noun_Audit_618766" transform="translate(769.000000, 313.000000)">
                <g id="Group">
                    <g transform="translate(4.064516, 9.965517)">
                        <polygon id="Shape" points="2.106 3.84903448 5.12535484 0.820103448 5.14393548 0.801344828 4.78741935 0.440241379 2.12806452 3.10806897 0.654387097 1.44031034 0.636967742 1.42037931 0.260129032 1.76037931 2.08741935 3.82851724"></polygon>
                        <polygon id="Shape" points="2.12806452 9.11317241 0.654387097 7.44482759 0.636967742 7.42489655 0.260129032 7.76489655 2.08741935 9.83303448 2.106 9.85355172 5.12535484 6.8252069 5.14393548 6.80586207 4.78741935 6.44475862"></polygon>
                        <path d="M2.70174194,11.8273103 C1.41677419,11.8273103 0.371032258,12.883069 0.371032258,14.1803448 C0.371032258,15.4782069 1.41677419,16.5333793 2.70174194,16.5333793 C3.98729032,16.5333793 5.03245161,15.4776207 5.03245161,14.1803448 C5.03245161,12.8824828 3.98729032,11.8273103 2.70174194,11.8273103 Z M4.52787097,14.1803448 C4.52787097,15.1968276 3.70858065,16.0239655 2.70174194,16.0239655 C1.69490323,16.0239655 0.876193548,15.1968276 0.876193548,14.1803448 C0.876193548,13.1638621 1.69548387,12.3367241 2.70174194,12.3367241 C3.70858065,12.3367241 4.52787097,13.1638621 4.52787097,14.1803448 Z" id="Shape"></path>
                        <rect id="Rectangle-path" x="7.11290323" y="1.86589655" width="11.3022581" height="1"></rect>
                        <rect id="Rectangle-path" x="7.13903226" y="7.8967931" width="11.25" height="1"></rect>
                        <rect id="Rectangle-path" x="7.13903226" y="13.925931" width="11.25" height="1"></rect>
                    </g>
                    <path d="M33.650129,5.79113793 C32.732129,5.77589655 31.8135484,5.76651724 30.8967097,5.76768966 C30.4449677,5.76886207 30.0205161,5.91072414 29.6698065,6.18565517 C29.1443226,6.59775862 28.8371613,7.27248276 28.8301935,8.03103448 C28.8226452,8.34934483 28.8255484,8.66589655 28.8243871,8.9847931 L28.8197419,9.41096552 L28.8203226,9.89634483 L28.8470323,24.8393448 L30.7445806,30.362 L30.8142581,30.5044483 C31.131871,30.9616897 31.5667742,31.2518621 32.048129,31.3257241 C32.472,31.3925517 32.8970323,31.2735517 33.2436774,31.0015517 C33.4939355,30.8051724 33.6994839,30.5284828 33.8336129,30.2031379 C34.3387742,28.9738621 34.7202581,27.673069 35.0895484,26.4168276 C35.2724516,25.8048276 35.4512903,25.1951724 35.6423226,24.5937241 L35.6690323,24.5093103 L35.6771613,10.5810345 L35.6899355,10.5827931 L35.6998065,9.44027586 C35.7015484,8.98772414 35.7056129,8.53868966 35.6974839,8.08789655 C35.6957419,6.78065517 34.8346452,5.81751724 33.650129,5.79113793 Z M29.9787097,24.6464828 L29.9525806,10.554069 L30.3816774,10.5534828 L30.9234194,10.557 L30.924,10.557 L30.9379355,24.5831724 C30.5750323,24.8557586 30.2765806,24.8991379 30.0530323,24.8545862 L29.9787097,24.6464828 Z M32.9336129,24.6857586 C31.9674194,25.1365517 31.5127742,24.7473103 31.3902581,24.6113103 L31.3763226,10.5622759 L33.0195484,10.5693103 L32.9336129,24.6857586 Z M34.0037419,26.0926552 C33.6838065,27.183 33.3505161,28.3067586 32.9446452,29.3601724 L31.5615484,29.2464483 L30.2127097,25.3311724 C30.4780645,25.3258966 30.7916129,25.242069 31.1382581,24.9987931 C31.4175484,25.2426552 32.0516129,25.5967241 33.1095484,25.109 C33.2872258,25.264931 33.642,25.4730345 34.2220645,25.3481724 C34.1494839,25.5967241 34.0769032,25.8446897 34.0037419,26.0926552 Z M34.5367742,24.3264138 C34.4845161,24.4893793 34.4345806,24.6552759 34.3846452,24.8217586 C33.777871,25.0544828 33.4817419,24.8405172 33.3870968,24.7473103 C33.3865161,24.7467241 33.3865161,24.7467241 33.3859355,24.7461379 L33.471871,10.5745862 L34.5437419,10.5839655 L34.5367742,24.3264138 Z M34.5675484,8.09375862 C34.5739355,8.53458621 34.5675484,8.97365517 34.5675484,9.41331034 L30.4240645,9.40862069 L29.9531613,9.40744828 L29.9543226,8.9842069 C29.9543226,8.67117241 29.9549032,8.35872414 29.9583871,8.04334483 C29.9682581,7.39324138 30.348,6.9102069 30.8932258,6.9107931 C31.8065806,6.91255172 32.715871,6.91724138 33.6274839,6.93189655 C34.1878065,6.9442069 34.5687097,7.40965517 34.5675484,8.09375862 Z" id="Shape"></path>
                    <path d="M0.299612903,9.09148276 L0.297870968,21.4563448 C0.296709677,24.0626207 0.296129032,26.670069 0.30716129,29.2763448 C0.309483871,29.6884483 0.372774194,30.1333793 0.496451613,30.5982414 C0.922645161,32.2062069 2.49793548,33.9372759 4.94883871,33.9378621 L5.03709677,33.9372759 C6.31219355,33.915 7.59541935,33.9196897 8.87574194,33.9261379 C9.43258065,33.9284828 9.98883871,33.9302414 10.5456774,33.9302414 L11.5670323,33.9296552 L16.5687097,33.9331724 C18.4360645,33.9331724 20.3028387,33.929069 22.1696129,33.9108966 C24.3371613,33.8903793 26.2927742,32.0262414 26.4396774,29.8396897 C26.5134194,28.7323448 26.5076129,27.5775172 26.5023871,26.5586897 L26.5006452,25.684069 C26.5064516,20.1842759 26.5093548,14.6844828 26.5006452,9.18644828 C26.4965806,6.40372414 24.4875484,4.38072414 21.7225161,4.3772069 L21.0611613,4.3772069 L21.0611613,5.89548276 L21.1633548,5.89313793 C21.6789677,5.88317241 22.2427742,5.85796552 22.8733548,6.07486207 C24.1844516,6.52741379 24.9677419,7.68517241 24.9689032,9.1717931 L24.9706452,19.0517241 L24.9700645,23.9916897 C24.9700645,24.514 24.9665806,25.0363103 24.9636774,25.5586207 C24.956129,26.7486207 24.948,27.9538621 24.9805161,29.1385862 C25.0037419,30.0008966 24.6890323,30.8145517 24.0967742,31.430069 C23.480129,32.0696207 22.6306452,32.4225172 21.7045161,32.4225172 C19.2623226,32.4084483 16.821871,32.4043448 14.382,32.4043448 L5.07077419,32.4113793 C3.14825806,32.4113793 1.80464516,31.059 1.80406452,29.1227586 C1.80116129,22.612931 1.8,16.1042759 1.81103226,9.59562069 C1.8116129,9.08855172 1.82554839,8.55334483 1.97883871,8.08144828 C2.38354839,6.83458621 3.26729032,6.09831034 4.53251613,5.95234483 C4.83503226,5.91717241 5.2676129,5.91131034 5.74141935,5.92655172 L5.74141935,4.3777931 L4.87045161,4.38248276 C4.52903226,4.38482759 4.2056129,4.42175862 3.90832258,4.49151724 C1.75006452,4.99858621 0.299612903,6.84689655 0.299612903,9.09148276 Z" id="Shape"></path>
                    <path d="M19.8481935,4.96106897 L19.8470323,4.51848276 C19.8470323,3.56355172 19.7419355,2.83255172 18.423871,2.83255172 C18.3379355,2.83255172 18.243871,2.83431034 18.1445806,2.83724138 L18.0174194,2.83958621 C17.4071613,2.83958621 16.947871,2.6772069 16.6145806,2.34541379 C16.3364516,2.06344828 16.1065161,1.67244828 15.884129,1.29317241 L15.8539355,1.24158621 C15.4039355,0.470137931 14.7245806,0.0627241379 13.8849677,0.0627241379 L13.8257419,0.0633103448 C13.7409677,0.0656551724 13.6561935,0.0668275862 13.5731613,0.0668275862 L13.1231613,0.0644827586 C13.0267742,0.0644827586 12.9303871,0.0656551724 12.8409677,0.068 C12.050129,0.0820689655 11.420129,0.450206897 11.0194839,1.13431034 C10.9381935,1.27265517 10.862129,1.41217241 10.7854839,1.55110345 L10.7616774,1.59448276 C10.7192903,1.67244828 10.6763226,1.75041379 10.6316129,1.82837931 C10.3389677,2.34541379 9.9243871,2.652 9.36812903,2.76631034 C9.11322581,2.81613793 8.8316129,2.81848276 8.53258065,2.82141379 C8.4123871,2.82258621 8.29219355,2.82375862 8.16329032,2.82844828 C7.42877419,2.8642069 6.96658065,3.3402069 6.95787097,4.07296552 C6.95322581,4.53606897 6.95322581,5.20375862 6.95787097,5.66041379 C6.95787097,6.5872069 7.41716129,7.05675862 8.3223871,7.05675862 L18.5591613,7.05675862 C19.3691613,7.05675862 19.8383226,6.58544828 19.8464516,5.76593103 C19.8499355,5.54493103 19.8493548,5.24244828 19.8481935,4.96106897 Z M11.5362581,2.00306897 L11.898,2.11503448 C11.960129,2.00189655 12.0222581,1.88758621 12.0896129,1.77386207 C12.2690323,1.46844828 12.5082581,1.32893103 12.8717419,1.32306897 C12.9553548,1.32013793 13.0395484,1.31955172 13.1231613,1.31955172 L13.5714194,1.32131034 C13.6672258,1.32131034 13.7630323,1.32072414 13.8884516,1.3172069 C14.2856129,1.3172069 14.5527097,1.48544828 14.7832258,1.88113793 L14.8145806,1.93389655 C15.0648387,2.35948276 15.3481935,2.84075862 15.7372258,3.23293103 C16.316129,3.81268966 17.0622581,4.09406897 18.0232258,4.09406897 L18.1759355,4.09172414 C18.3361935,4.08644828 18.4801935,4.08586207 18.5957419,4.0887931 C18.6027097,4.19255172 18.6027097,4.35668966 18.6027097,4.51848276 L18.603871,4.96341379 C18.6050323,5.23717241 18.6056129,5.53203448 18.6027097,5.74951724 C18.6027097,5.76827586 18.602129,5.78527586 18.6015484,5.79934483 C18.5893548,5.79934483 18.5754194,5.79993103 18.5591613,5.79993103 L8.3223871,5.79993103 C8.27187097,5.79993103 8.23412903,5.79875862 8.20567742,5.79758621 C8.20393548,5.76417241 8.20219355,5.71727586 8.20219355,5.6522069 C8.19696774,5.19672414 8.19696774,4.54134483 8.20219355,4.08586207 C8.20219355,4.08586207 8.20219355,4.08468966 8.20219355,4.08351724 C8.20625806,4.08293103 8.20974194,4.08293103 8.2143871,4.08293103 C8.32354839,4.07882759 8.43387097,4.07824138 8.55464516,4.07706897 C8.89316129,4.07296552 9.24270968,4.07003448 9.60967742,3.99851724 C10.5160645,3.81268966 11.2430323,3.27806897 11.7110323,2.45327586 L11.8602581,2.1842069 L11.5362581,2.00306897 Z" id="Shape"></path>
                </g>
            </g>
        </g>
    </g>
</svg>