<svg xmlns="http://www.w3.org/2000/svg" viewBox="0 0 24 24">
  <g fill="#000" fill-rule="nonzero">
    <path d="M21.9556238 2.406722v-.0680816l-.0446307-.0680814v-.0450934l-.000875.0008841c-.0472563-.0716193-.1085143-.1335101-.1785228-.1812563h-.0446307L21.6195817 2h-5.1526243c-.3719298 0-.6720814.3032633-.6720814.6790491 0 .3748804.3001516.6790492.6720814.6790492h3.2255428l-8.4238687 8.419983c-.1557683.1175955-.2529042.2988495-.2669059.49514-.0140017.1962882.0577564.3890499.1951478.5278475.1382673.1397008.329051.2113179.523305.197171.1942741-.0141469.3728036-.1122898.4900594-.2696731l8.4455993-8.4881142v3.2589832c0 .3757857.3010477.6790491.6720815.6790491.3710337 0 .6720814-.3032633.6720814-.6790491V2.5878732c-.0035004-.0459761-.0105013-.0910695-.0227522-.1352802l-.021624-.045871z"/>
    <path d="M4.6944469 22h11.6111063C17.7934267 22 19 20.7934267 19 19.3055532v-6.9323219c0-.4056857-.3291634-.7348491-.7348491-.7348491-.4066656 0-.7348492.3291634-.7348492.7348491v6.9323219c0 .3243624-.1291718.6363058-.3588023.8659462-.2296306.2296403-.5415593.3588023-.8659462.3588023H4.6944469c-.6764777 0-1.2247486-.5482709-1.2247486-1.2247485V7.6944469c0-.6764777.548271-1.2247486 1.2247486-1.2247486h6.9323218c.4056857 0 .7348491-.3281836.7348491-.7348492 0-.4056857-.3291634-.7348491-.7348491-.7348491H4.6944469C3.2065733 5 2 6.2065733 2 7.6944469v11.6111063C2 20.7934267 3.2065733 22 4.6944469 22z"/>
  </g>
</svg>
