<svg xmlns="http://www.w3.org/2000/svg" width="17" height="17">
    <path fill="#FFF" fill-rule="nonzero" d="M15.3329166.5H.8957708C.4009616.5 0 .8952 0 1.3831543V15.61696c0 .4877257.4009616.88304.8957708.88304H8.668074v-6.1959771H6.5532362V7.8891657h2.1148379V6.10848c0-2.0666286 1.2802952-3.1919543 3.150383-3.1919543.8954231 0 1.6652138.0657372 1.8895622.0952v2.1597029l-1.2965933.0005485c-1.0172301 0-1.2139899.4764572-1.2139899 1.1755658v1.5416228h2.4252441l-.3158312 2.4148572h-2.1094129V16.5h4.1354805c.4946932 0 .8956548-.3953143.8956548-.88304V1.3831543C16.2285714.8952 15.8276098.5 15.3329166.5z"/>
</svg>