<svg xmlns="http://www.w3.org/2000/svg" >
    <g fill="none" fill-rule="evenodd">
        <rect width="100%" height="100%" fill="#3A5A99" rx="4"/>
        <path fill="#FFF" fill-rule="nonzero" d="M23.3329166 4H8.8957708C8.4009616 4 8 4.3952 8 4.8831543V19.11696c0 .4877257.4009616.88304.8957708.88304h7.7723033v-6.1959771h-2.1148379v-2.4148572h2.1148379V9.60848c0-2.0666286 1.2802952-3.1919543 3.150383-3.1919543.8954231 0 1.6652138.0657372 1.8895622.0952v2.1597029l-1.2965933.0005485c-1.0172301 0-1.2139899.4764572-1.2139899 1.1755658v1.5416228h2.4252441l-.3158312 2.4148572h-2.1094129V20h4.1354805c.4946932 0 .8956548-.3953143.8956548-.88304V4.8831543C24.2285714 4.3952 23.8276098 4 23.3329166 4z"/>
        <text fill="#FFF" font-family="OpenSans, Open Sans" font-size="11">
            <tspan x="33.2160645" y="17">Share</tspan>
        </text>
    </g>
</svg>