<svg xmlns="http://www.w3.org/2000/svg" width="36" height="31"><g fill="#43425D" fill-rule="evenodd"><path fill-rule="nonzero" d="M30.35034 8.35103c0-6.49081-5.83734-7.59493-12.36712-7.59493-6.52979 0-12.36587 1.09904-12.36587 7.59493 0 1.48956.28425 6.47474.85275 14.95554C6.4701 27.55174 9.7503 31 13.82072 31h8.3598c4.03824 0 7.35061-3.44826 7.35061-7.69343.54614-7.97674.81921-12.96192.81921-14.95554zm-2.64094-.1994v3.54808H8.09373V8.15162c4.71103 0 8.01312-1.45704 9.90627-4.37113 1.78444 2.91409 5.0209 4.37113 9.7094 4.37113zm-3.3849 5.3721v2.12188c0 1.62445-.5681 2.22164-2.11336 2.22164-1.54527 0-2.11336-.5972-2.11336-2.22164v-2.12188h4.22671zm-8.48661 0v2.12188c0 1.62445-.5681 2.22164-2.11336 2.22164-1.54527 0-2.11335-.5972-2.11335-2.22164v-2.12188h4.2267zM27.2265 19.3259v3.97953c0 2.91859-2.27109 5.30604-5.0796 5.30604l-8.3276.0013c-2.80713 0-5.0796-2.38746-5.0796-5.30604V19.3272c0-.36532.00126-4.47699.00126-5.14024v-.62957h1.16697v2.12189c0 3.31628 2.08256 4.01336 3.81774 4.01336 1.73518 0 3.81774-.69695 3.81774-4.01336v-1.65814c0-.26556.18977-.46375.44115-.46375.25261 0 .44114.1995.44114.46375v1.65814c0 3.31628 2.08257 4.01336 3.81774 4.01336 1.73518 0 3.81774-.69695 3.81774-4.01336v-2.12189h1.16697v.62957c0 .66325-.00165 4.74125-.00165 5.13894z"/><path fill-rule="nonzero" d="M22.1054 22.0788c-.41233-.28347-.9433-.15775-1.20939.28348-.55975.91452-1.68045 1.4827-2.88984 1.4827s-2.3289-.56818-2.88984-1.4827c-.26492-.44122-.79589-.56819-1.2094-.28347-.41232.28347-.53097.85166-.2649 1.29414.88457 1.45191 2.53624 2.33437 4.36419 2.33437 1.82788 0 3.47962-.88372 4.36419-2.33437.23727-.44245.14858-1.01065-.26491-1.29414h-.0001z"/><path d="M18 2.2683c1.06759 3.50468 4.30406 5.32862 9.7094 5.4718.85592.02267.73706 17.70642 1.49661 17.64917 3.78635-.2854 6.25905-1.81574 6.25905-7.10236C35.46506 8.45808 29.206 0 18 0 6.79399 0 .53494 8.45808.53494 18.28691c0 5.86223 2.52273 7.10568 6.60543 7.15455.62219.00745.26212-17.66544.95336-17.70136C13.69791 7.44887 17 5.62494 18 2.2683z"/></g></svg>