<?xml version="1.0" encoding="utf-8"?>
<!-- Generator: Adobe Illustrator 22.0.1, SVG Export Plug-In . SVG Version: 6.00 Build 0)  -->
<svg version="1.1" id="Layer_1" xmlns="http://www.w3.org/2000/svg" xmlns:xlink="http://www.w3.org/1999/xlink" x="0px" y="0px"
	 viewBox="0 0 43 47" style="enable-background:new 0 0 43 47;" xml:space="preserve">
<title>Levers 8.3</title>
<desc>Created with Sketch.</desc>
<g>
	<g>
		<path d="M19.2,4H1.5C0.7,4,0,4.7,0,5.5S0.7,7,1.5,7h17.7c0.7,2.3,2.8,4,5.3,4c2.5,0,4.6-1.7,5.3-4h11.7C42.3,7,43,6.3,43,5.5
			S42.3,4,41.5,4H29.8c-0.7-2.3-2.8-4-5.3-4C22,0,19.9,1.7,19.2,4L19.2,4z M4.2,22H1.5C0.7,22,0,22.7,0,23.5S0.7,25,1.5,25h2.7
			c0.7,2.3,2.8,4,5.3,4c2.5,0,4.6-1.7,5.3-4h26.7c0.8,0,1.5-0.7,1.5-1.5S42.3,22,41.5,22H14.8c-0.7-2.3-2.8-4-5.3-4
			C7,18,4.9,19.7,4.2,22L4.2,22z M28.2,40H1.5C0.7,40,0,40.7,0,41.5S0.7,43,1.5,43h26.7c0.7,2.3,2.8,4,5.3,4c2.5,0,4.6-1.7,5.3-4
			h2.7c0.8,0,1.5-0.7,1.5-1.5S42.3,40,41.5,40h-2.7c-0.7-2.3-2.8-4-5.3-4C31,36,28.9,37.7,28.2,40L28.2,40z"/>
	</g>
</g>
</svg>
