<svg xmlns="http://www.w3.org/2000/svg" width="21" height="22" viewBox="0 0 21 22">
	<path d="M9.434 19.713H1.198a.684.684 0 0 1-.698-.67c0-.37.312-.67.698-.67h8.236c.304-1.03 1.29-1.788 2.461-1.788 1.169 0 2.158.756 2.462 1.787h5.445c.386 0 .698.3.698.67 0 .37-.312.67-.698.67h-5.445c-.304 1.03-1.291 1.788-2.462 1.788-1.168 0-2.157-.756-2.461-1.787zM2.457 11.67h-1.26A.684.684 0 0 1 .5 11c0-.37.312-.67.698-.67h1.259c.304-1.03 1.291-1.787 2.462-1.787 1.168 0 2.157.755 2.461 1.787h12.422c.386 0 .698.3.698.67 0 .37-.312.67-.698.67H7.38c-.304 1.03-1.29 1.787-2.461 1.787-1.169 0-2.158-.755-2.462-1.787zM13.62 3.628H1.198a.684.684 0 0 1-.698-.67c0-.37.312-.67.698-.67H13.62C13.924 1.257 14.91.5 16.08.5c1.169 0 2.158.756 2.462 1.787h1.26c.385 0 .697.3.697.67 0 .37-.312.67-.698.67h-1.259c-.304 1.03-1.291 1.788-2.462 1.788-1.168 0-2.157-.756-2.461-1.787z"/>
</svg>
