<svg xmlns="http://www.w3.org/2000/svg" width="36" height="36">
    <g fill="#000" fill-rule="nonzero">
        <path d="M35.23 18.96c-.69-.88-1.9-1.08-3.2-.56l-1.37.56 2.35-6.36a2.16 2.16 0 0 0-2.59-2.84l.28-.8a2.16 2.16 0 0 0-1.33-2.8c-1.14-.4-2.39.2-2.8 1.28-.24-.32-.6-.6-1-.76-1.14-.4-2.4.2-2.84 1.32l-.4 1.12c-.24-.32-.6-.6-1.01-.72-1.14-.4-2.39.2-2.83 1.36l-1.3 3.6-.6-1.52c-.2-.56-.65-1-1.18-1.24a2.07 2.07 0 0 0-1.62-.04c-.4.16-.72.44-.97.76l-.44-1.08c-.2-.56-.65-1-1.18-1.24a2.07 2.07 0 0 0-1.61-.04c-.4.16-.73.44-.97.76a2.35 2.35 0 0 0-1.18-1.16 2.07 2.07 0 0 0-1.62-.04 2.2 2.2 0 0 0-1.2 2.84l.31.8a2.1 2.1 0 0 0-1.2.08 2.2 2.2 0 0 0-1.22 2.84l2.87 7.2-1.74-1.04a2.3 2.3 0 0 0-1.58-.4c-.56.08-1.09.4-1.41.88-.69.96-.45 2.32.48 3.04.37.36 5.06 4.04 6.76 5.24a7.6 7.6 0 0 0 4.33 1.36 8.4 8.4 0 0 0 3.07-.6 7.92 7.92 0 0 0 3.8-3.16c.49.32 1.01.56 1.58.76.93.32 1.9.48 2.87.48 1.7 0 3.32-.52 4.7-1.52 1.7-1.24 6.34-5.08 6.63-5.32.93-.72 1.09-2.12.36-3.04zM14.9 29.84a6.86 6.86 0 0 1-6.48-.64c-1.65-1.2-6.5-5.04-6.55-5.08a1.29 1.29 0 0 1-.28-1.72c.16-.24.44-.44.77-.48.32-.04.6.04.85.2 0 0 .04 0 .04.04l3.03 1.8c.16.12.4.08.57-.04.16-.12.2-.36.12-.56L3.52 14.8c-.24-.64.04-1.32.65-1.56.24-.08.52-.08.8.04.29.12.53.36.7.64l1.81 4.64c.08.2.29.32.45.32.04 0 .12 0 .16-.04.24-.08.36-.4.28-.64L6.6 13.72v-.04c0-.04-.04-.08-.04-.12l-.97-2.48a1.19 1.19 0 0 1 1.54-1.56c.28.12.52.36.65.68l.64 1.68 2.1 5.4c.09.2.29.32.45.32.04 0 .12 0 .16-.04.25-.08.37-.4.29-.64l-2.03-5.24-.04-.12A1.19 1.19 0 0 1 10.88 10c.28.12.53.36.65.68l1.09 2.72c0 .04 0 .04.04.08l1.46 3.8c.08.24.4.36.64.28.25-.08.37-.4.29-.64l-1.5-3.8a1.19 1.19 0 0 1 1.54-1.56c.28.12.52.36.64.68l3.24 8.32a7.27 7.27 0 0 1-4.08 9.28zm19.33-8.6c-.04.04-4.93 4.04-6.6 5.28a7.11 7.11 0 0 1-6.59.88c-.48-.16-.97-.4-1.41-.68a8.42 8.42 0 0 0 .32-6.48L17.8 14.8l1.66-4.68c.24-.64.93-.96 1.53-.76.29.12.53.32.7.6.11.28.15.64.03.92l-1.45 4.08c-.09.24.04.52.28.64l.16.04c.2 0 .4-.12.49-.32l1.45-4.08c0-.04 0-.04.04-.08L23.7 8.4c.25-.64.93-.96 1.54-.76.28.12.53.32.69.6.12.28.16.64.04.96l-.04.12-2.02 5.8c-.09.24.04.52.32.64l.16.04c.2 0 .4-.12.49-.32l2.1-5.92.6-1.68c.25-.64.94-.96 1.54-.76.29.12.53.32.7.6.11.28.15.64.03.92l-.89 2.4-.08.2c0 .04 0 .08-.04.08l-1.82 4.96c-.08.24.04.52.28.64.04 0 .12.04.17.04.2 0 .4-.12.48-.32l1.9-5.2c.28-.56.97-.88 1.5-.68.28.12.52.32.69.6.12.28.16.64.04.92l-2.67 7.16c-.45.16-.85.32-1.05.4-2.55-.96-3.93.16-5.06 1.04a.5.5 0 0 0-.08.68c.16.2.48.24.69.08 1.09-.88 2.1-1.72 4.24-.84.12.04.25.04.37 0s2.9-1.12 3.88-1.52c.53-.2 1.5-.48 2.02.24a1.2 1.2 0 0 1-.2 1.72zM6.63 5.16l2.51 1.6c.08.04.16.08.28.08.17 0 .33-.08.4-.24.17-.24.09-.52-.15-.68l-2.51-1.6c-.24-.16-.53-.08-.69.16-.16.24-.08.52.16.68zM12.54 4.76c.08.2.24.32.48.32.05 0 .13 0 .17-.04.24-.08.4-.36.32-.64L12.13.44a.53.53 0 0 0-.64-.32.52.52 0 0 0-.33.64l1.38 4zM16.9 4.4c.05.04.13.04.17.04.2 0 .4-.12.44-.32l1.02-2.76a.54.54 0 0 0-.29-.64.55.55 0 0 0-.64.28l-1.02 2.76c-.08.28.09.56.33.64zM20.47 32c-.25-.08-.53.08-.6.32l-.86 2.8c-.08.24.08.52.32.6.05 0 .09.04.17.04.2 0 .4-.12.48-.36l.85-2.8a.52.52 0 0 0-.36-.6zM24.67 31.28a.55.55 0 0 0-.64-.28.54.54 0 0 0-.29.64l1.62 3.88c.08.2.28.32.45.32.08 0 .12 0 .2-.04.24-.12.36-.4.28-.64l-1.62-3.88zM30.58 30.32l-2.59-1.44a.53.53 0 0 0-.69.2c-.12.24-.04.52.2.68l2.6 1.44c.08.04.16.08.24.08.16 0 .32-.08.44-.24.12-.28.04-.56-.2-.72z"/>
    </g>
</svg>