<?xml version="1.0" encoding="UTF-8"?>
<svg width="24px" height="20px" viewBox="0 0 24 20" version="1.1" xmlns="http://www.w3.org/2000/svg" xmlns:xlink="http://www.w3.org/1999/xlink">
    <path d="M23.5155996,8.05405405 C24,8.62162162 24,9.43243243 24,11.0540541 L24,16.3783784 C24,17.9459459 24,18.8108108 23.5155996,19.3783784 C22.977377,20 22.0893097,20 20.7437532,20 C20.6630198,20 10.1676789,20 9.71018966,20 L9.36034496,20 C6.4001206,19.972973 6.18483156,19.5405405 6.18483156,16.4324324 C8.0686107,15.8378378 17.4605953,12.972973 17.5144175,12.972973 C18.9407075,12.5405405 19.882597,12.2432432 20.2593528,11.4324324 C20.6091975,10.6756757 20.3400862,9.75675676 19.8287748,8.08108108 L19.6403968,7.43243243 L20.7168421,7.43243243 C22.1700431,7.43243243 23.0042882,7.45945946 23.5155996,8.05405405 Z M18.8599741,7.91891892 C19.2905521,9.40540541 19.5596635,10.2162162 19.2367299,10.8918919 C18.9137963,11.6216216 18.0526401,11.8918919 16.787817,12.2702703 C16.7070836,12.2702703 6.45394286,15.4054054 6.37320947,15.4324324 L6.0502759,15.5405405 C5.13529746,15.8108108 4.62398598,15.9459459 4.16649676,15.9459459 C2.92858476,15.9459459 2.63256232,14.972973 2.04051745,13 L0.533494134,8 C0.0760049139,6.45945946 -0.166195261,5.67567568 0.129827175,5.02702703 C0.452760742,4.2972973 1.31391692,4.05405405 2.60565119,3.64864865 L2.82094023,3.59459459 C2.90167362,3.56756757 13.1548144,0.459459459 13.2355478,0.432432432 C14.0967039,0.162162162 14.6887488,0 15.2000603,0 C16.4648834,0 16.7609059,0.972972973 17.3529507,2.91891892 L18.8599741,7.91891892 Z" id="Shape-Copy-4"></path>
</svg>