<svg xmlns="http://www.w3.org/2000/svg" xmlns:xlink="http://www.w3.org/1999/xlink" width="19" height="21" viewBox="0 0 19 21">
    <defs>
        <path id="a" d="M0 .292h12.221v5.031H0z"/>
        <path id="c" d="M0 .075h12.221v3.563H0z"/>
        <path id="e" d="M.98.547h12.222v5.035H.98z"/>
        <path id="g" d="M0 .02h5.767v3.52H0z"/>
    </defs>
    <g fill="#69687D" fill-rule="evenodd">
        <path fill-rule="nonzero" d="M17.563 17.145c-.202.119-.404.232-.627.333-1.28.583-2.989.923-4.872.925-1.889-.002-3.594-.342-4.87-.925a6.281 6.281 0 0 1-.63-.333c-.42.36-.618.73-.61 1.047-.021.506.518 1.166 1.647 1.681 1.107.503 2.702.836 4.463.834 1.762.002 3.355-.331 4.461-.834 1.134-.515 1.67-1.175 1.647-1.68.013-.317-.19-.689-.609-1.048"/>
        <g transform="translate(0 .26)">
            <mask id="b" fill="#fff">
                <use xlink:href="#a"/>
            </mask>
            <path fill="#69687D" d="M1.574 4.451c.026.014.046.025.076.038 1.106.508 2.696.838 4.461.834 1.763.004 3.352-.326 4.463-.834l.073-.038h-.001c1.079-.504 1.594-1.145 1.575-1.641.02-.51-.518-1.169-1.647-1.681-1.11-.507-2.7-.84-4.463-.837-1.765-.004-3.355.33-4.461.837C.516 1.64-.021 2.299 0 2.81c-.021.496.496 1.137 1.574 1.641" mask="url(#b)"/>
        </g>
        <g transform="translate(0 5.234)">
            <mask id="d" fill="#fff">
                <use xlink:href="#c"/>
            </mask>
            <path fill="#69687D" d="M1.574 2.766c.026.013.046.025.074.038 1.108.504 2.698.837 4.463.834.294 0 .579-.01.857-.028a10.956 10.956 0 0 0 .957-.095h.005a10.51 10.51 0 0 0 2.097-.494h.008c.009-.006.014-.01.024-.01.179-.066.353-.137.515-.207.025-.01.045-.025.073-.038h-.001c1.079-.507 1.594-1.147 1.575-1.645.013-.311-.19-.684-.614-1.046a5.56 5.56 0 0 1-.623.337c-1.283.58-2.99.923-4.873.923-1.885 0-3.592-.343-4.872-.923A6.787 6.787 0 0 1 .612.078C.19.437-.011.81 0 1.121c-.016.498.496 1.138 1.574 1.645" mask="url(#d)"/>
        </g>
        <g transform="translate(4.974 8.55)">
            <mask id="f" fill="#fff">
                <use xlink:href="#e"/>
            </mask>
            <path fill="#69687D" d="M13.133 2.724c-.004-.008-.004-.015-.009-.023a1.475 1.475 0 0 0-.094-.183c-.002-.001-.005-.008-.012-.011a1.669 1.669 0 0 0-.126-.178c-.003-.006-.008-.011-.011-.015h-.002c-.27-.321-.705-.651-1.328-.931C10.445.877 8.852.543 7.093.547c-.298 0-.585.01-.874.028-.048.003-.096.008-.142.012-1.197.084-2.275.325-3.125.661-.113.045-.22.088-.324.135-.615.278-1.05.603-1.32.921-.018.029-.04.05-.06.075-.022.033-.049.066-.069.1-.041.054-.071.114-.1.169-.01.014-.014.033-.02.046-.02.051-.036.1-.05.15a.128.128 0 0 1-.012.047.817.817 0 0 0-.017.176.783.783 0 0 0 .032.229 1.45 1.45 0 0 0 .124.287c.007.01.01.02.018.028.23.373.688.764 1.398 1.097.03.012.048.025.076.04.13.055.269.113.41.17l.156.05c.094.037.192.07.293.102.066.023.134.04.2.061.092.027.185.051.28.076l.235.058.273.058c.085.022.173.037.262.052l.272.046c.093.015.187.03.283.043.092.009.183.02.272.03.103.012.203.027.309.033.09.007.18.017.275.019.308.024.623.036.945.036 1.759 0 3.352-.332 4.458-.834a4.374 4.374 0 0 0 1.038-.637c.078-.066.15-.134.212-.202.04-.041.065-.078.101-.12.017-.026.047-.052.063-.079.03-.041.048-.076.072-.11.014-.027.026-.05.041-.072l.008-.017c.015-.031.03-.06.042-.09a.931.931 0 0 0 .031-.097h.002v-.007c.006-.021.018-.051.021-.076a.64.64 0 0 0 .015-.174h.005a.737.737 0 0 0-.02-.18.87.87 0 0 0-.05-.163" mask="url(#f)"/>
        </g>
        <path fill="#69687D" d="M.613 8.598C.19 8.959-.011 9.332 0 9.644c-.022.507.515 1.17 1.648 1.68.878.407 2.067.694 3.4.797a2.046 2.046 0 0 1-.074-.504c0-.1.011-.198.024-.29.009-.032.014-.069.02-.103.014-.058.027-.12.047-.178.008-.036.023-.07.036-.11.017-.049.04-.1.065-.155.016-.033.033-.073.055-.11.02-.04.043-.077.066-.114.152-.255.356-.489.603-.706-1.794-.027-3.422-.363-4.65-.92a6.793 6.793 0 0 1-.628-.333"/>
        <g transform="translate(0 11.866)">
            <mask id="h" fill="#fff">
                <use xlink:href="#g"/>
            </mask>
            <path fill="#69687D" d="M5.637 1.27C3.943 1.218 2.41.887 1.241.353A6.078 6.078 0 0 1 .612.02C.19.383-.01.753 0 1.066c-.021.509.516 1.17 1.65 1.681.882.406 2.066.69 3.399.792a2.322 2.322 0 0 1-.08-.502c.015-.645.32-1.187.798-1.644-.042-.04-.092-.08-.13-.123" mask="url(#h)"/>
        </g>
        <path fill-rule="nonzero" d="M18.153 14.714c-.054-.268-.25-.565-.59-.858-.098.06-.197.116-.298.167h-.004a6.695 6.695 0 0 1-.325.167 7.274 7.274 0 0 1-.51.21l-.14.046a6.036 6.036 0 0 1-.412.14c-.03.012-.067.017-.095.026-.164.05-.33.092-.5.137-.015 0-.03.005-.047.008a11.79 11.79 0 0 1-.577.125c-.804.15-1.676.234-2.588.234a14.36 14.36 0 0 1-2.323-.188 12.676 12.676 0 0 1-1.33-.297 7.405 7.405 0 0 1-.589-.189c-.022-.01-.05-.018-.077-.028a9.397 9.397 0 0 1-.553-.224 6.305 6.305 0 0 1-.63-.338c-.368.319-.57.645-.606.929a.767.767 0 0 0-.005.122.92.92 0 0 0 .014.163l.02.076c.006.022.015.05.025.073.157.448.676.957 1.588 1.37 1.109.51 2.7.838 4.463.835 1.762.003 3.355-.325 4.461-.836.773-.351 1.259-.765 1.49-1.16l.034-.053.053-.116c.013-.03.021-.063.033-.091.007-.032.018-.058.022-.087a.642.642 0 0 0 .018-.174.667.667 0 0 0-.017-.167c-.001-.007-.001-.017-.005-.022"/>
        <path fill="none" d="M-3-1h24v24H-3z"/>
    </g>
</svg>