<svg xmlns="http://www.w3.org/2000/svg" width="32" height="32">
        <path fill="#FF2800"  d="M15.999.002c8.837 0 16 7.164 16 16 0 8.837-7.163 16-16 16s-16-7.163-16-16c0-8.836 7.163-16 16-16z" clip-rule="evenodd"/>
        <path fill="#fff"
              d="M5.514 9.78v12.427l6.06-6.239zm20.972 0v12.427l-6.03-6.214zM5.972 9.217h20.016l-7.866 8.19a2.97 2.97 0 0 1-4.283 0l-7.867-8.19z
M18.576 17.843a3.616 3.616 0 0 1-2.596 1.106c-.974 0-1.92-.403-2.595-1.105l-1.334-1.39-6.079 6.33h20.016l-6.078-6.33-1.334 1.39z
"/>
</svg>