<svg width="26px" height="24px" viewBox="0 0 26 24" version="1.1" xmlns="http://www.w3.org/2000/svg">
    <path d="M21.5721764,10.8421389 L21.4806959,10.8421389 L18.269122,10.8421389 L12.9239188,10.8421389 L12.9239188,13.6940774 L18.1044571,13.6940774 C17.3555371,15.7364842 15.2905182,17.2041122 12.8592726,17.2041122 C9.79528706,17.2041122 7.31220248,14.8737531 7.31220248,11.9990148 C7.31220248,9.12596546 9.79528706,6.79588781 12.8592726,6.79588781 C14.2015958,6.79588781 15.4286537,7.24456428 16.3879788,7.98823004 L16.5328228,7.98823004 L18.8149554,5.84730582 C17.2414915,4.50915782 15.1532975,3.69230769 12.8592726,3.69230769 C7.96659269,3.69230769 4,7.4131698 4,11.9990148 C4,16.589645 7.96659269,20.3076923 12.8592726,20.3076923 C13.4996358,20.3076923 14.1412187,20.2452041 14.7654204,20.1145982 C16.0345593,19.8570455 17.2323434,19.3275847 18.2563147,18.58983 C19.2744922,17.856579 20.113368,16.9153154 20.7073811,15.8589272 C21.0089617,15.316237 21.2480306,14.7462434 21.4160497,14.1590796 C21.6246252,13.425547 21.5721764,12.6872294 21.5721764,11.932023 L21.5721764,10.8421389 Z" id="Fill-15" fill="#4285F4"></path>
</svg>