<svg xmlns="http://www.w3.org/2000/svg" width="75" height="24">
    <g fill="none" fill-rule="evenodd">
        <rect width="75" height="24" fill="#DC4B3E" rx="4"/>
        <path fill="#FFF" fill-rule="nonzero" d="M7.0543125 12.1966563c-.13975-3.6695938 3.0749688-7.0605626 6.7480625-7.1048126 1.8725625-.15975 3.6932187.5670313 5.1110625 1.7535625-.5810313.6382813-1.1736875 1.2704375-1.8041875 1.8620313-1.2483125-.7579062-2.749625-1.3353125-4.2071562-.822625-2.3522813.6695625-3.7745626 3.4455938-2.905875 5.7461563.7208124 2.40175 3.6437812 3.7198125 5.9332187 2.7105937 1.1865313-.4242187 1.9671562-1.5185625 2.3101875-2.6940937-1.35925-.0271563-2.7185-.010375-4.0779063-.0482188-.0022812-.8087187-.0065625-1.6133125-.0022812-2.4220312 2.2662187-.003375 4.536125-.0099063 6.8060312.0108437C21.104 13.1683438 20.81225 15.289 19.5250312 16.8786563c-1.7639374 2.2699062-5.0225937 2.9358125-7.672875 2.0459062-2.8141875-.9237812-4.858875-3.7579375-4.7978437-6.7279063"/>
        <text fill="#FFF" font-family="OpenSans, Open Sans" font-size="11">
            <tspan x="29.4841309" y="17">Email</tspan>
        </text>
    </g>
</svg>