<svg xmlns="http://www.w3.org/2000/svg" width="31" height="20">
    <path fill="#A1A1A1" fill-rule="nonzero" d="M7.547743 11.4185096c-.8029513 1.180002-.8029513 2.5843166-.8029513 2.5843166v1.1488687c3.6608159 0 6.8726215 1.9463398 8.6391146 4.8483051 1.766493-2.903305 4.9782986-4.8483051 8.671875-4.8483051v-1.1488687c0-1.1488687-.3211806-1.977473-.7703195-2.5843166l-7.901684 3.4763359-7.8360347-3.4763359zm23.2855903-4.5927953L15.4166667 0 0 6.8257143l15.4166667 6.8257143 11.7870052-5.1998303v2.7438108c-.8029514.2230431-1.4126806.9245561-1.4126806 1.8179788 0 .7974711.4817709 1.4678572 1.1881111 1.7544364l-.6423611 4.5293166h2.7300347l-.6423611-4.5293166c.7063403-.286592 1.1881111-.9569653 1.1881111-1.7544364 0-.8610135-.6097291-1.5949421-1.4126805-1.8179788v-3.222421l2.6334878-1.1472738z"/>
</svg>