<?xml version="1.0" encoding="UTF-8"?>
<svg width="32px" height="24px" viewBox="0 0 32 24" version="1.1" xmlns="http://www.w3.org/2000/svg" xmlns:xlink="http://www.w3.org/1999/xlink">
    <!-- Generator: sketchtool 50.2 (55047) - http://www.bohemiancoding.com/sketch -->
    <title>02C145C8-4AA2-42E2-B9EC-7728AC1B2A38</title>
    <desc>Created with sketchtool.</desc>
    <defs></defs>
    <g id="2a.-Ask-your-question" stroke="none" stroke-width="1" fill="none" fill-rule="evenodd">
        <g id="Ask-your-question-web-active-Copy" transform="translate(-711.000000, -524.000000)" fill="#3293F6" fill-rule="nonzero">
            <g id="Group" transform="translate(711.000000, 524.000000)">
                <path d="M22.9253731,0.129736119 C19.5706922,0.129736119 16.8358209,2.86460776 16.8358209,6.21928836 C16.8358209,9.57396896 19.5706911,12.3088406 22.9253731,12.3088406 C26.2800552,12.3088406 29.0149254,9.57396896 29.0149254,6.21928836 C29.0149254,2.86460776 26.2800541,0.129736119 22.9253731,0.129736119 Z M22.9253731,1.56257194 C25.5056916,1.56257194 27.5820896,3.63896955 27.5820896,6.21928836 C27.5820896,8.79960716 25.5056905,10.8760048 22.9253731,10.8760048 C20.3450558,10.8760048 18.2686567,8.79960716 18.2686567,6.21928836 C18.2686567,3.63896955 20.3450547,1.56257194 22.9253731,1.56257194 Z M10.6679104,10.1595869 C10.5819861,10.1705337 10.4980929,10.1972264 10.4216418,10.2379451 L7.88059701,11.5476466 L7.88059701,11.2230197 C7.8805594,10.8479144 7.53928442,10.5066394 7.1641791,10.5066018 L0.71641791,10.5066018 C0.341312633,10.5066394 3.75044776e-05,10.8479144 0,11.2230197 L0,21.2528704 C3.75044776e-05,21.6279758 0.341312633,21.9692507 0.71641791,21.9692884 L7.1641791,21.9692884 C7.53928442,21.9692507 7.8805594,21.6279758 7.88059701,21.2528704 L7.88059701,20.1894376 L8.4738806,20.1894376 L18.0223881,23.726751 C18.2190219,23.7974443 18.4465547,23.7763762 18.6268657,23.6707809 C18.6268657,23.6707809 30.6110912,16.7533254 30.6361949,16.7359157 C31.1696773,16.3659396 31.5223881,15.7441179 31.5223881,15.0513779 C31.5223881,13.9303988 30.5836195,13.0252585 29.4738806,13.0252585 C29.4515104,13.0242197 23.0261194,15.096154 23.0261194,15.096154 C22.9506204,15.0519349 22.8727204,15.0060523 22.7910448,14.9730197 L11.0149254,10.204363 C10.9052909,10.1612096 10.7849083,10.1456762 10.6679104,10.1595869 Z M10.7798507,11.6595869 L22.2537313,16.2939152 C22.4719032,16.3821421 22.5671642,16.4849301 22.5671642,16.8200346 C22.5671642,16.9965958 22.5158196,17.0842316 22.4216418,17.1670496 C22.327464,17.2498675 22.1647354,17.323766 21.9514925,17.323766 L17.6753731,17.323766 L13.4776119,15.9245122 C13.1134456,15.7645476 12.6340213,15.977967 12.5091779,16.3556178 C12.3843346,16.7332685 12.6420942,17.1903851 13.0298507,17.2789899 L17.3283582,18.7118257 C17.3999588,18.7385645 17.4758619,18.7537451 17.5522388,18.7566018 L21.9514925,18.7566018 C22.4736738,18.7566018 22.9874285,18.5809003 23.3731343,18.2416764 C23.7588401,17.9024525 24,17.3803093 24,16.8200346 C24,16.643208 23.976154,16.4707612 23.9328358,16.3051093 L29.5186567,14.4692884 C29.8484683,14.4914973 30.0895522,14.7199272 30.0895522,15.0513779 C30.0895522,15.2766913 29.9709321,15.4578734 29.7985075,15.5663033 L18.1902985,22.2603331 L8.84328358,18.8013779 C8.76465994,18.7721932 8.68087988,18.7569604 8.59701493,18.7566018 L7.88059701,18.7566018 L7.88059701,13.1707809 L10.7798507,11.6595869 Z M1.43283582,11.9394376 L6.44776119,11.9394376 L6.44776119,20.5364525 L1.43283582,20.5364525 L1.43283582,11.9394376 Z" id="Shape"></path>
            </g>
        </g>
    </g>
</svg>