<svg xmlns="http://www.w3.org/2000/svg" width="17" height="25">
    <path fill="#43425D" fill-rule="nonzero" stroke="#43425D" d="M15.0812846 6.406115l-.156334-.0418896c-.2600796-.0716439-.534511-.0747653-.7953003-.0096885l.164294-.6131535c.1036586-.386859.045902-.8003707-.1599103-1.1489063-.2058123-.3485357-.5432394-.6042068-.9378085-.7099313l-.1191116-.0319159c-.263649-.0657548-.5400362-.0615776-.801168.01221l.1075766-.4014813c.2301795-.8106528-.2222749-1.6643697-1.0338582-1.9483264-.810897-.2828016-1.7005963.1007856-2.0302329.8769529-.2141901-.2353779-.4926757-.405848-.8025326-.4888739-.863559-.2313899-1.7471925.2672525-1.9740747 1.1139883l-1.9226466 7.1754148-.1134106-1.4229755c-.0116077-.4852397-.2251626-.9463556-.592036-1.2744579-.3666244-.3290319-.8526546-.4954442-1.3455307-.4612607-.491947.0344324-.9449963.2660706-1.2541433.6418812-.3091494.37581-.4452899.861567-.3776084 1.342254l.6260766 7.6392844.0192404.1068613c.1120928.9551636.5156546 1.8573916 1.1579536 2.5869305l-.5417759 2.0219352c-.0540311.201647.0687764.4096048.2744297.4647094.2056533.0551047.4159866-.0635883.4700178-.2652353l.424423-1.5839683c.2519385.2024618.526638.375818.8190135.5167479l.0670003.0179527c.2007635.0733533.4220737-.0267502.494712-.223419.0726382-.1966686-.0313633-.4152269-.2321356-.4885762-1.2032916-.6236204-2.0181206-1.7925176-2.172802-3.1170223l-.6739283-7.6989222c-.0249857-.2678128.059234-.5337276.235838-.7387122.17636-.2040737.4283072-.329211.7018586-.348819.2723776-.0189438.5424816.0710327.7503883.248007.2067312.1776357.3339105.4288242.352587.6978756l.2944762 3.5760823-.0117353.0437967.0500677.795768.076904.2787701.2531122.0678212c.9069056.2371369 1.6866566.8147495 2.1691091 1.6090343.4814345.793987.6267522 1.7404535.4047088 2.632498-.054031.2016468.0687764.4096046.2744297.4647092.2056533.0551047.4159867-.0635883.4700178-.2652352.2807163-1.0513697.1402896-2.1725488-.3944032-3.132445-.5338001-.9596068-1.4205116-1.685188-2.4761836-2.0257607l-.0342475-.408189 2.4859403-9.2776553c.1205323-.4498328.589377-.7144061 1.0481471-.591479.4587703.1229271.732515.5864766.6119826 1.0363094l-1.8619986 6.9490735.7444475.199474 2.1417052-7.9929527c.1205323-.4498328.589377-.7144061 1.0481472-.591479.4587702.1229271.7325149.5864766.6119825 1.0363094L11.210132 4.77432c-.0157494.0476105-.0289517.0968823-.0391176.1459889L9.49484 11.1758766l.7444475.1994741 1.6957644-6.3286789c.1236946-.3834681.533147-.6013673.9302592-.493985l.0967782.0259316c.1972774.0528603.3665762.1803696.4694783.3546338.1029115.1742668.1312033.3813436.079374.5747731l-.4498526 1.6788728c-.0272951.075811-.048321.1542806-.0625881.2335823l-1.3261186 4.9491418.7444474.199474 1.3574127-5.0659329c.1521642-.3445456.5406263-.5250335.9106942-.4209672l.2010008.053858c.1972773.0528603.3665762.1803696.4694782.3546338.1029116.1742668.1312034.3813436.0793741.5747731l-2.4819972 9.2629398c-.2622317.989829-.841442 1.8673351-1.6523452 2.5039074-.8108544.6364851-1.8111529.997267-2.8532571 1.0300006l.0277462.789787c.348876-.014093.694379-.060384 1.034206-.1375196l-.4713642 1.759155c-.0540312.201647.0687764.4096048.2744297.4647094.2056533.0551047.4159866-.0635884.4700177-.2652353l.5867643-2.189834c1.6599129-.6524738 2.8963407-2.047156 3.328116-3.755282l2.480057-9.2556987c.106014-.3882056.0496705-.8032664-.1556585-1.1536253-.2055825-.3494504-.5436803-.6062777-.9401075-.7125l-.0001124-.0001503z"/>
</svg>