<svg xmlns="http://www.w3.org/2000/svg" viewBox="2 2 20 19">
    <g>
        <path fill="none" d="M0 0L24 0 24 23 0 23z"/>
        <path d="M12 2c-5.472 0-9.913 4.256-9.913 9.5S6.528 21 12 21s9.913-4.256 9.913-9.5S17.472 2 12 2zm.991 16.15H11.01v-1.9h1.982v1.9zm2.052-7.362l-.892.873c-.714.694-1.16 1.264-1.16 2.689H11.01v-.475c0-1.045.446-1.995 1.16-2.688l1.229-1.197c.367-.342.585-.818.585-1.34 0-1.045-.893-1.9-1.983-1.9s-1.983.855-1.983 1.9H8.035c0-2.1 1.774-3.8 3.965-3.8 2.19 0 3.965 1.7 3.965 3.8 0 .836-.357 1.596-.922 2.137z"/>
    </g>
</svg>
