<svg xmlns="http://www.w3.org/2000/svg" width="20" height="20">
    <path fill="#4452FC" fill-rule="nonzero" d="M18.15 10.798l-1.146-6.835a3.69 3.69 0 0 1 1.657.782 3.716 3.716 0 0 1 1.284 2.201 3.724 3.724 0 0 1-1.795 3.852zm-.378 3.796a1.849 1.849 0 0 1-1.645 1.028c-.221 0-.442-.041-.649-.118L12.26 14.31a4.56 4.56 0 0 0-2.375-.216l-.142.025.54 3.063A2.32 2.32 0 0 1 9.9 18.91a2.304 2.304 0 0 1-1.487.95 2.305 2.305 0 0 1-2.669-1.875l-.539-3.068-.792.14a3.132 3.132 0 0 1-3.627-2.548l-.74-4.214a3.144 3.144 0 0 1 2.538-3.64l5.473-.967a4.563 4.563 0 0 0 2.158-1.017L12.831.444a1.841 1.841 0 0 1 2.867.612l-.19.034 2.264 13.504zm-9.364 4.154a1.212 1.212 0 0 1-1.395-.958l-.552-3.07 2.359-.408.55 3.068a1.18 1.18 0 0 1-.962 1.368zm8.161-4.44a.698.698 0 0 1-.705.122l-3.212-1.192a5.67 5.67 0 0 0-2.958-.268l-5.46.97a2.005 2.005 0 0 1-2.308-1.628l-.738-4.214a2.006 2.006 0 0 1 1.617-2.323l5.46-.967a5.67 5.67 0 0 0 2.683-1.27l2.611-2.227a.708.708 0 0 1 .705-.127c.24.087.416.297.46.55l.496 2.831v.024c0 .009.008.014.01.023l1.084 6.145v.024c0 .008.006.016.009.024l.496 2.83-.001-.001a.71.71 0 0 1-.249.675zM5 16c1.333-.667 3-1 5-1"/>
</svg>