<svg xmlns="http://www.w3.org/2000/svg" width="20" height="20">
    <path fill="#000" fill-rule="nonzero" d="M19.945 6.946a3.716 3.716 0 0 0-1.284-2.2 3.686 3.686 0 0 0-2.395-.848l-.416-2.361A1.849 1.849 0 0 0 14.657.11a1.841 1.841 0 0 0-1.826.334l-2.615 2.227a4.563 4.563 0 0 1-2.158 1.017l-5.473.968A3.144 3.144 0 0 0 .048 8.295l.739 4.214a3.132 3.132 0 0 0 3.627 2.548l.792-.14.539 3.068a2.305 2.305 0 0 0 2.669 1.876A2.304 2.304 0 0 0 9.9 18.91a2.32 2.32 0 0 0 .382-1.728l-.54-3.063.142-.025a4.55 4.55 0 0 1 2.375.216l3.218 1.194c.207.077.428.118.649.118a1.849 1.849 0 0 0 1.409-.667c.35-.42.497-.972.404-1.511l-.414-2.359a3.702 3.702 0 0 0 1.966-1.624 3.724 3.724 0 0 0 .453-2.515zM8.408 18.748a1.212 1.212 0 0 1-1.395-.958l-.552-3.07 2.359-.408.55 3.068a1.18 1.18 0 0 1-.962 1.368zm8.161-4.44a.698.698 0 0 1-.705.122l-3.212-1.192a5.67 5.67 0 0 0-2.958-.268l-5.46.97a2.005 2.005 0 0 1-2.308-1.628l-.738-4.214a2.006 2.006 0 0 1 1.617-2.323l5.46-.967a5.67 5.67 0 0 0 2.683-1.27l2.611-2.227a.708.708 0 0 1 .705-.127c.24.087.416.297.46.55l.496 2.831v.024c0 .009.008.014.01.023l1.084 6.145v.024c0 .008.006.016.009.024l.496 2.83-.001-.001a.71.71 0 0 1-.249.675z" opacity=".34"/>
</svg>