<?xml version="1.0" encoding="UTF-8"?>
<svg width="24px" height="24px" viewBox="0 0 24 24" version="1.1" xmlns="http://www.w3.org/2000/svg">

    <g id="icon_feed_selected" fill="none" fill-rule="evenodd">
        <g transform="translate(2.000000, 2.000000)" fill="#4452FC" >
            <g>
                <path d="M17.8572219,1.33228666e-15 L2.14279806,1.33228666e-15 C0.961752051,1.33228666e-15 0,0.961792311 0,2.14288776 L0,17.8571122 C0,19.0382077 0.961752051,20 2.14279806,20 L17.8563648,20 C19.0374108,20 19.9991628,19.0382077 19.9991628,17.8571122 L20,2.14288776 C20,0.961792311 19.0382479,0 17.8572019,0 L17.8572219,1.33228666e-15 Z M17.8572219,18.5719796 L2.14279806,18.5719796 C1.74940176,18.5719796 1.42881774,18.2522179 1.42881774,17.8579694 L1.42881774,10.0004286 L18.5712022,10.0004286 L18.5712022,17.8579694 C18.5712022,18.2522179 18.2506182,18.5719796 17.8572219,18.5719796 Z M8.86343323,4.54545455 C8.48707294,4.54545455 8.1810205,4.1394194 8.18181974,3.63636364 C8.18181974,3.13333515 8.48707294,2.72727273 8.86343323,2.72727273 L15.6820229,2.72727273 C16.0583832,2.72727273 16.3636364,3.13333515 16.3636364,3.63636364 C16.3636364,4.13939212 16.0583832,4.54545455 15.6820229,4.54545455 L8.86343323,4.54545455 Z M8.86343323,7.27272564 C8.48707294,7.27272564 8.1810205,6.86586491 8.18181974,6.36310383 C8.18181974,5.86037001 8.48707294,5.45454545 8.86343323,5.45454545 L15.6820229,5.45561053 C16.0583832,5.45561053 16.3636364,5.86143509 16.3636364,6.3641689 C16.3636364,6.86690272 16.0583832,7.27272727 15.6820229,7.27272727 L8.86343323,7.27272727 Z M5,7.27272727 C3.74645455,7.27272727 2.72727273,6.25265909 2.72727273,5 C2.72727273,3.74645455 3.74645455,2.72727273 5,2.72727273 C6.25265909,2.72727273 7.27272727,3.74645455 7.27272727,5 C7.27272727,6.25265909 6.25265909,7.27272727 5,7.27272727 Z" fill-rule="nonzero"></path>
            </g>
        </g>
    </g>
</svg>