<svg xmlns="http://www.w3.org/2000/svg" width="24" height="24">
    <g fill="#000" fill-rule="nonzero" opacity=".34">
        <path d="M19.857 2H4.143A2.146 2.146 0 0 0 2 4.143v15.714C2 21.038 2.962 22 4.143 22h15.713A2.146 2.146 0 0 0 22 19.857L22 4.143A2.146 2.146 0 0 0 19.857 2zM4.143 3.429h15.713c.394 0 .714.32.714.714v6.429H3.43v-6.43c0-.393.32-.713.714-.713zm15.714 17.143H4.143a.715.715 0 0 1-.714-.714V12H20.57v7.858c0 .394-.32.714-.714.714z"/>
        <path d="M10.863 6.545h6.819c.376 0 .682-.406.682-.909s-.306-.909-.682-.909h-6.819c-.376 0-.681.406-.681.91-.001.502.305.908.681.908zM10.863 9.273h6.819c.376 0 .682-.406.682-.909s-.306-.908-.682-.908l-6.819-.001c-.376 0-.681.405-.681.908-.001.503.305.91.681.91zM7 9.273A2.276 2.276 0 0 0 9.273 7 2.275 2.275 0 0 0 7 4.727 2.275 2.275 0 0 0 4.727 7 2.275 2.275 0 0 0 7 9.273z"/>
    </g>
</svg>