<svg xmlns="http://www.w3.org/2000/svg" width="18" height="20">
    <g fill="#000" fill-rule="nonzero" opacity=".34">
        <path d="M15.006 12.76c.23-.302.46-.603.638-.956a7.686 7.686 0 0 0 .793-5.984 7.785 7.785 0 0 0-3.754-4.777C8.877-1.119 3.974.189 1.753 3.96A7.686 7.686 0 0 0 .96 9.944a7.765 7.765 0 0 0 1.43 2.816L.093 16.707a.6.6 0 0 0 .026.679.646.646 0 0 0 .612.301l2.375-.176 1.048 2.112c.102.226.332.351.587.377a.722.722 0 0 0 .614-.327l2.298-3.947a7.72 7.72 0 0 0 2.145 0l2.298 3.947a.678.678 0 0 0 .588.327c.281 0 .486-.151.613-.377l1.022-2.237 2.349.327c.255.025.51-.076.638-.277.101-.226.126-.502-.002-.73l-2.298-3.946zm-9.627.83c-3.192-1.81-4.29-5.833-2.452-8.976a6.555 6.555 0 0 1 4.06-3.067 7.043 7.043 0 0 1 1.761-.226c1.15 0 2.299.302 3.32.88 3.192 1.81 4.29 5.833 2.452 8.976a6.555 6.555 0 0 1-4.06 3.067 6.764 6.764 0 0 1-5.081-.654z"/>
        <path d="M6.364 9.823h.876c0 .633.762 1.203 1.753 1.203.991 0 1.753-.57 1.753-1.203 0-.633-.761-1.204-1.753-1.204-1.429 0-2.63-.898-2.63-2.078 0-1.18 1.2-2.078 2.63-2.078 1.429 0 2.63.899 2.63 2.078h-.877c0-.632-.762-1.203-1.753-1.203-.991 0-1.753.57-1.753 1.203 0 .633.762 1.203 1.753 1.203 1.43 0 2.63.899 2.63 2.079 0 1.18-1.2 2.078-2.63 2.078s-2.63-.898-2.63-2.078z"/>
        <path d="M8.994 5.29h-.877V3.635h.877zM8.994 12.727h-.877v-1.653h.877z"/>
    </g>
</svg>