<svg xmlns="http://www.w3.org/2000/svg" width="18" height="20">
    <g fill="none" fill-rule="evenodd">
        <path fill="#4452FC" fill-rule="nonzero" d="M8.117 11.784v.943h.876v-.826c1.43 0 2.63-.899 2.63-2.078 0-1.18-1.2-2.079-2.63-2.079-.99 0-1.753-.57-1.753-1.203 0-.633.762-1.203 1.753-1.203.99 0 1.753.57 1.753 1.203h.877c0-1.18-1.201-2.078-2.63-2.078v-.827h-.876v.944c-1.012.28-1.753 1.034-1.753 1.961 0 1.18 1.2 2.078 2.63 2.078.99 0 1.752.57 1.752 1.204 0 .632-.762 1.203-1.753 1.203-.991 0-1.753-.57-1.753-1.203h-.876c0 .927.741 1.68 1.753 1.96zm7.338 1.747l1.85 3.176c.127.227.102.503.001.729-.127.201-.383.302-.638.277l-2.35-.327-1.02 2.237c-.128.226-.333.377-.614.377a.678.678 0 0 1-.588-.327L10.2 16.416a8.487 8.487 0 0 0 5.255-2.885zM7.3 16.33l-1.946 3.342A.722.722 0 0 1 4.74 20c-.255-.026-.485-.151-.587-.377L3.106 17.51l-2.375.176a.646.646 0 0 1-.612-.301.6.6 0 0 1-.026-.68l2.103-3.61A8.501 8.501 0 0 0 7.3 16.33zM9 15.5a7.5 7.5 0 1 1 0-15 7.5 7.5 0 0 1 0 15z"/>
    </g>
</svg>