<svg xmlns="http://www.w3.org/2000/svg" width="39" height="20"><g fill="#000" fill-rule="nonzero" opacity=".54"><path d="M36.92138 19.56639L38.57077 2.9105c.00323-.02436-.00646-.04548-.00646-.06984-.00162-.03248 0-.0666-.0097-.09907-.00969-.03086-.02423-.05847-.03877-.0877-.0113-.02275-.01453-.0471-.03069-.06822-.00323-.00487-.0097-.0065-.0113-.01137-.00324-.00487-.00485-.01137-.00809-.01462-.01776-.02111-.042-.0341-.06461-.0536-.02262-.01949-.042-.04222-.06785-.05684-.02423-.01462-.0517-.02112-.07916-.03086-.0323-.01137-.06139-.02436-.09531-.02924-.00485 0-.0097-.00324-.01454-.00487L14.3181 0c-.00646 0-.0113.00162-.01615.00162-.03231-.00162-.063.00488-.09532.00975-.0307.00487-.063.00487-.09208.01462-.01938.0065-.03715.02111-.05654.03086-.03716.01949-.0727.03735-.10339.06496-.00323.00325-.00808.00325-.0113.0065-.01455.01462-.021.03248-.03393.04872-.02423.02924-.04847.05685-.06462.09096-.01454.03086-.021.06334-.02908.09582-.00646.02274-.01777.04223-.021.0666l-1.64938 16.65422c-.00647.06334 0 .12506.01777.18678.01777.0601.04846.11694.08723.16728.04362.0536.09854.0942.15831.12344.02262.01137.04524.013.06947.02112.0323.00974.06139.02598.09531.02923l23.8262 2.38427c.01453.00163.0323.00325.04684.00325.05331 0 .10823-.00974.15993-.02761.0517-.01787.10016-.04548.14378-.0812.04846-.04061.08884-.09096.11954-.14618.02746-.05522.04685-.11531.0517-.17866v.00004zM14.64107 1.57709l7.01928 7.50032-8.4506 6.95481 1.43132-14.45514zm10.57131 9.89606L15.49217 1.08521l21.2886 2.1309-11.56839 8.25704zm-2.8965-1.6956l2.48617 2.6571c.02585.02761.05977.04223.08885.06334.01938.013.03715.03086.05815.0406.063.03087.13086.04873.20032.04873.05331 0 .10662-.01136.15831-.03085.01616-.0065.0307-.01462.04685-.02274.02423-.01137.04847-.0195.07108-.03573l2.95788-2.1114 6.96262 8.54312-21.5322-2.15364 8.50197-6.99853zm6.8493.05034l8.35177-5.96234-1.43128 14.4568L29.1652 9.8279zM10.94627 4.28571H.4823c-.2665 0-.4823.15954-.4823.35654 0 .19701.21582.35654.4823.35654L10.94627 5c.2665 0 .4823-.15954.4823-.35654 0-.19822-.21582-.35774-.4823-.35774zM10.23423 7.85714H2.62291c-.26526 0-.48005.15954-.48005.35654 0 .19701.2148.35654.48005.35654l7.61132.0012c.26526 0 .48006-.15953.48006-.35653 0-.19822-.21481-.35775-.48006-.35775zM10.26952 10.71429H5.44477c-.24577 0-.44477.15954-.44477.35653 0 .197.19902.35654.44477.35654l4.82475.00121c.24576 0 .44477-.15954.44477-.35654 0-.197-.19902-.35774-.44477-.35774zM10.23322 14.28571h-2.6093c-.26582 0-.48106.15955-.48106.35654 0 .19701.21526.35654.48107.35654L10.23322 15c.26582 0 .48107-.15954.48107-.35654 0-.197-.21527-.35774-.48107-.35774z"/></g></svg>