<?xml version="1.0" encoding="UTF-8"?>
<svg width="10px" height="22px" viewBox="0 0 10 22" version="1.1" xmlns="http://www.w3.org/2000/svg" xmlns:xlink="http://www.w3.org/1999/xlink">
    <path d="M4.85924998,4.07115789 C5.98901623,4.07115789 6.90487272,3.15979816 6.90487272,2.03557895 C6.90487272,0.911359738 5.98901623,0 4.85924998,0 C3.72948374,0 2.81362725,0.911359738 2.81362725,2.03557895 C2.81362725,3.15979816 3.72948374,4.07115789 4.85924998,4.07115789 Z M0.837820981,13.7048421 C0.423576558,13.7048421 0.00467770388,13.4802105 0,13.0216842 L0.00930886343,6.64863158 C-0.0348849657,5.62042105 0.537610135,5.00210526 1.43126103,5.00210526 L2.96256906,5.00210526 C3.19063621,5.00210526 3.39540794,5.13410526 3.49084706,5.34021053 L4.27974996,7.05157895 L4.61486905,7.78105263 C4.66141336,7.88294737 4.7591797,7.93389474 4.85457228,7.93389474 C4.94996486,7.93389474 5.0477312,7.88294737 5.09427551,7.78105263 L5.4293946,7.05157895 L6.21827423,5.34021053 C6.31371335,5.13410526 6.51848508,5.00210526 6.7465755,5.00210526 L8.27786026,5.00210526 C9.17153443,5.00210526 9.74400626,5.62042105 9.6998357,6.64863158 L9.70909802,13.0216842 C9.70909802,13.2995789 9.55319783,13.4941053 9.33674348,13.6006316 L9.33674348,13.7905263 L9.33674348,13.9757895 L9.33674348,14.4134737 L9.54619291,14.4134737 C9.79755549,14.4134737 10,14.6149474 10,14.8650526 L10,18.6861053 C10,18.9362337 9.79755549,19.1376842 9.54619291,19.1376842 L8.19640771,19.1376842 C7.94509167,19.1376842 7.74260062,18.9362337 7.74260062,18.6861053 L7.74260062,14.8650526 C7.74260062,14.6149474 7.94509167,14.4134737 8.19640771,14.4134737 L8.40585714,14.4134737 L8.40585714,13.9711579 L8.40585714,13.7858947 L8.40585714,13.5936842 C8.20573985,13.4894737 8.06377968,13.3111579 8.06377968,13.0564211 L8.05447081,8.00336842 L7.39121429,7.99873684 L7.37026935,21.0181053 C7.37026935,21.6734505 6.81408803,22 6.25788344,22 C5.69935164,22 5.14081983,21.6711347 5.14081983,21.0134505 L5.14081983,14.5755558 L4.57297916,14.5755558 L4.57297916,21.0134505 C4.57297916,21.6711579 4.01444736,22 3.45591555,22 C2.89968769,22 2.3434831,21.6711579 2.3434831,21.0181053 L2.32256143,7.99873684 L1.65930491,7.99642105 L1.64999604,13.0587368 C1.64999604,13.4871579 1.24508376,13.7048421 0.837820981,13.7048421 Z M5.30605216,5.00210526 C5.45033954,5.00210526 5.54342818,5.15031579 5.48289729,5.27768421 L5.0337679,6.21557895 L5.23853963,6.64168421 L4.85922671,7.46610526 L4.47989053,6.64168421 L4.68468552,6.21557895 L4.23553286,5.27768421 C4.17269803,5.15031579 4.26809061,5.00210526 4.41007405,5.00210526 L5.30605216,5.00210526 Z" id="Shape-Copy-14"></path>
</svg>