<svg width="20px" height="27px" viewBox="0 0 20 27" version="1.1" xmlns="http://www.w3.org/2000/svg" xmlns:xlink="http://www.w3.org/1999/xlink">
    <g id="Registration" stroke="none" stroke-width="1" fill="none" fill-rule="evenodd">
        <g id="Enter-the-confirmation-code-" transform="translate(-135.000000, -435.000000)" fill="#4A4A4A" fill-rule="nonzero">
            <path d="M153.008443,437.162359 L142.169808,447.955068 L137.515166,447.955068 C136.252189,447.955068 135.218845,448.988412 135.218845,450.251389 L135.218845,457.140351 C135.218845,458.403328 136.252189,459.436672 137.515166,459.436672 L144.404129,459.436672 C145.667105,459.436672 146.70045,458.403328 146.70045,457.140351 L146.70045,452.027593 L148.87851,449.849532 L148.87851,446.979131 L151.748911,446.979131 L153.184112,445.543931 L153.184112,442.67353 L156.223292,442.67353 L156.223292,437.162359 L153.008443,437.162359 Z M139.29137,456.910719 C138.497991,456.910719 137.85617,456.268898 137.85617,455.475519 C137.85617,454.682369 138.497991,454.040318 139.29137,454.040318 C140.084749,454.040318 140.726571,454.682369 140.726571,455.475519 C140.726571,456.268898 140.084749,456.910719 139.29137,456.910719 Z" id="Shape" transform="translate(145.721069, 448.299516) rotate(107.000000) translate(-145.721069, -448.299516) "></path>
        </g>
    </g>
</svg>