<svg xmlns="http://www.w3.org/2000/svg" width="17" height="17" viewBox="0 0 17 17">
    <path fill="#4A4A4A" fill-rule="nonzero" d="M8.641 2.122a4.809 4.809 0 0 1 1.037 5.453l5.979 5.774c.661.638.66 1.704-.033 2.332-.638.567-1.626.494-2.244-.102l-.52-.502-1.463.026a.808.808 0 0 1-.819-.791l-.025-1.464-1.464.026a.808.808 0 0 1-.82-.792l-.025-1.463-.768-.741a4.811 4.811 0 0 1-5.524-.829 4.819 4.819 0 0 1-.118-6.807 4.819 4.819 0 0 1 6.807-.12zM3.028 5.626a1.61 1.61 0 0 0 2.269-.04 1.61 1.61 0 0 0-.04-2.269 1.61 1.61 0 0 0-2.269.04 1.61 1.61 0 0 0 .04 2.269z" opacity=".9"/>
</svg>
