<?xml version="1.0" encoding="UTF-8"?>
<svg width="28px" height="34px" viewBox="0 0 28 34" version="1.1" xmlns="http://www.w3.org/2000/svg" xmlns:xlink="http://www.w3.org/1999/xlink">
    <!-- Generator: sketchtool 51.3 (57544) - http://www.bohemiancoding.com/sketch -->
    <title>77EF6287-75C0-4982-958E-ECA0C3612B67</title>
    <desc>Created with sketchtool.</desc>
    <defs></defs>
    <g id="Upload-Docs." stroke="none" stroke-width="1" fill="none" fill-rule="evenodd" opacity="0.25">
        <g id="Upload-Flow_4" transform="translate(-480.000000, -312.000000)" fill="#000000" fill-rule="nonzero">
            <g id="noun_lecture_1949729" transform="translate(480.000000, 312.000000)">
                <path d="M27.9999209,22.0999496 L27.9999209,19.8332881 C27.9999209,19.5203274 27.7412342,19.2666227 27.4221281,19.2666227 L26.2665423,19.2666227 L26.2665423,2.83332687 C26.2665423,2.52036622 26.0078557,2.2666615 25.6887495,2.2666615 L15.8662709,2.2666615 L15.8662709,0.566665374 C15.8662709,0.25370473 15.6075843,0 15.2884781,0 L12.9773066,0 C12.6582005,0 12.3995138,0.25370473 12.3995138,0.566665374 L12.3995138,2.2666615 L2.57703523,2.2666615 C2.25792905,2.2666615 1.99924238,2.52036622 1.99924238,2.83332687 L1.99924238,19.2666227 L0.843656664,19.2666227 C0.524550481,19.2666227 0.265863807,19.5203274 0.265863807,19.8332881 L0.265863807,22.0999496 C0.265863807,22.4129102 0.524550481,22.666615 0.843656664,22.666615 L5.58155808,22.666615 L0.0775033363,32.0165936 C-0.0820422217,32.2876185 0.0126355956,32.6341737 0.288975522,32.7906585 L2.2881388,33.9239893 C2.56448575,34.0804622 2.91784613,33.9876077 3.07740385,33.7165897 L9.5839292,22.666615 L12.3995138,22.666615 L12.3995138,31.1665956 C12.3995138,31.4795562 12.6582005,31.7332609 12.9773066,31.7332609 L15.2884781,31.7332609 C15.6075843,31.7332609 15.8662709,31.4795562 15.8662709,31.1665956 L15.8662709,22.666615 L18.4160708,22.666615 L24.9225962,33.7165897 C24.9991799,33.8467353 25.1253347,33.9417204 25.2733164,33.9806558 C25.4213751,34.0195649 25.5791307,33.9991805 25.7118612,33.9239893 L27.7110245,32.7906585 C27.9873644,32.6341737 28.0820422,32.2876185 27.9224967,32.0165936 L22.4195975,22.666615 L27.4221281,22.666615 C27.7412342,22.666615 27.9999209,22.4129102 27.9999209,22.0999496 Z M13.5550995,1.13333075 L14.7106852,1.13333075 L14.7106852,2.2666615 L13.5550995,2.2666615 L13.5550995,1.13333075 Z M3.15482809,3.39999224 L25.1109566,3.39999224 L25.1109566,19.2666227 L3.15482809,19.2666227 L3.15482809,3.39999224 Z M2.36614084,32.6591922 L1.3665592,32.0925268 L6.9145262,22.666615 L8.2492277,22.666615 L2.36614084,32.6591922 Z M14.7106852,30.5999302 L13.5550995,30.5999302 L13.5550995,22.666615 L14.7106852,22.666615 L14.7106852,30.5999302 Z M26.6334408,32.0925268 L25.6338592,32.6591922 L19.7507723,22.666615 L21.0854738,22.666615 L26.6334408,32.0925268 Z M26.8443352,21.5332842 L1.42144952,21.5332842 L1.42144952,20.3999535 L26.8443352,20.3999535 L26.8443352,21.5332842 Z" id="Shape"></path>
            </g>
        </g>
    </g>
</svg>