<svg width="24px" height="21px" viewBox="0 0 24 21" version="1.1" xmlns="http://www.w3.org/2000/svg" xmlns:xlink="http://www.w3.org/1999/xlink">
    <path d="M6.384576,13.85465 L7.80598231,12.5132945 C8.00955283,12.3212001 8.3293339,12.3315244 8.52017179,12.5364862 C8.71100969,12.7413972 8.70070231,13.063233 8.49718231,13.2553783 L7.075776,14.5967338 C6.97826021,14.6886869 6.85411706,14.7342566 6.73027706,14.7342566 C6.59547283,14.7342566 6.46102231,14.6802952 6.36158652,14.5735421 C6.17074862,14.3685803 6.181056,14.0467445 6.384576,13.85465 Z M2.52627538,1.767554 L21.5241701,1.767554 L21.5241701,0 L2.52627538,0 L2.52627538,1.767554 Z M23.7206754,6.27605761 L19.7197996,6.27605761 L18.3484143,2.57286062 L21.583968,2.57286062 L23.7206754,6.27605761 Z M9.93661642,2.57288604 L9.21257431,6.27608305 L5.1183259,6.27608305 L6.48971117,2.57288604 L9.93661642,2.57288604 Z M10.7090627,2.57288604 L13.3202627,2.57288604 L14.0442543,6.27608305 L9.98502062,6.27608305 L10.7090627,2.57288604 Z M14.8166956,6.27605761 L14.0926535,2.57286062 L17.5396093,2.57286062 L18.910944,6.27605761 L14.8166956,6.27605761 Z M2.36768337,2.57288604 L5.68084548,2.57288604 L4.30951073,6.27608305 L0.272912842,6.27608305 L2.36768337,2.57288604 Z M2.09689263,10.5416078 L2.09684211,10.5416078 C0.940648421,10.5416078 0,9.5947656 0,8.4309589 L0,7.03894783 L4.19368421,7.03894783 L4.19368421,8.4309589 C4.19368421,9.5947656 3.25308631,10.5416078 2.09689263,10.5416078 Z M7.04847158,10.5416078 L7.04842106,10.5416078 C5.89222738,10.5416078 4.95157894,9.5947656 4.95157894,8.4309589 L4.95157894,7.03894783 L9.14526317,7.03894783 L9.14526317,8.4309589 C9.14526317,9.5947656 8.20466527,10.5416078 7.04847158,10.5416078 Z M12.0000505,10.5416078 L12,10.5416078 C10.8438063,10.5416078 9.9031579,9.5947656 9.9031579,8.4309589 L9.9031579,7.03894783 L14.0968421,7.03894783 L14.0968421,8.4309589 C14.0968421,9.5947656 13.1562442,10.5416078 12.0000505,10.5416078 Z M16.9516295,10.5416078 L16.9515789,10.5416078 C15.7953853,10.5416078 14.8547368,9.5947656 14.8547368,8.4309589 L14.8547368,7.03894783 L19.0484211,7.03894783 L19.0484211,8.4309589 C19.0484211,9.5947656 18.1078232,10.5416078 16.9516295,10.5416078 Z M24,8.4309589 C24,9.5947656 23.0594021,10.5416078 21.9032084,10.5416078 L21.9031579,10.5416078 C20.7469642,10.5416078 19.8063158,9.5947656 19.8063158,8.4309589 L19.8063158,7.03894783 L24,7.03894783 L24,8.4309589 Z M22.6538981,11.2029274 C22.6490981,11.2042498 22.6443992,11.2057756 22.6395486,11.207047 C22.6137297,11.2140147 22.5876581,11.2202704 22.561536,11.226526 C22.5477928,11.229781 22.5340497,11.233036 22.520256,11.2360875 C22.4951444,11.2417329 22.4700328,11.2470222 22.4447192,11.2519555 C22.4285507,11.2551088 22.4123318,11.2578552 22.3960118,11.2607541 C22.3623107,11.2667046 22.3283571,11.2720957 22.2941507,11.2768764 C22.2672707,11.2805891 22.2403402,11.284251 22.2133086,11.2872008 C22.1955234,11.2891843 22.177536,11.2907101 22.1596497,11.2923376 C22.1325171,11.2948297 22.1053339,11.2969149 22.0780497,11.2985932 C22.0626897,11.2995087 22.0472792,11.3005259 22.0318181,11.3012379 C21.9902855,11.3031197 21.9486518,11.3043403 21.9069676,11.3043912 C21.9056539,11.3043912 21.9044413,11.3044929 21.9032286,11.3044929 C21.9021676,11.3044929 21.9012581,11.3043912 21.9001971,11.3043912 C21.858816,11.3043912 21.817536,11.3031197 21.7764581,11.3012888 C21.7629171,11.3006785 21.7494771,11.2999664 21.7359865,11.2992035 C21.7037507,11.2972201 21.671616,11.2948297 21.6396328,11.2917781 C21.6147739,11.2894386 21.5900665,11.2866414 21.5654602,11.2836915 C21.5459065,11.2813012 21.5264034,11.2789617 21.5069507,11.2761644 C21.4810307,11.2725534 21.4552623,11.2685356 21.4296455,11.2642125 C21.4260076,11.2636022 21.4224707,11.2629411 21.4188834,11.2622799 C21.1918686,11.2230676 20.9742518,11.1563914 20.7688623,11.0665236 L20.7688623,18.913916 C20.7688623,19.1948104 20.542656,19.4225061 20.2635992,19.4225061 L3.75255917,19.4225061 C3.47355283,19.4225061 3.247296,19.1948104 3.247296,18.913916 L3.247296,11.0595051 C3.0372581,11.1529839 2.81418442,11.2219996 2.58130862,11.2622799 C2.57767073,11.2628902 2.57408338,11.2636022 2.57044548,11.2642125 C2.5447781,11.2685356 2.51900969,11.2725534 2.49314021,11.2761644 C2.47368758,11.2789617 2.45408338,11.281352 2.43452969,11.2836915 C2.40992338,11.2866414 2.38531705,11.2894386 2.36050863,11.2917781 C2.32847495,11.2947788 2.29634021,11.2972201 2.26405389,11.2992035 C2.25061389,11.2999664 2.23712337,11.3006785 2.22363284,11.3012888 C2.18250442,11.3031197 2.14127495,11.3043912 2.09984337,11.3043912 C2.09888337,11.3043912 2.09787284,11.3044929 2.09691284,11.3044929 C2.09564968,11.3044929 2.09453811,11.3043912 2.09327495,11.3043912 C2.05174232,11.3043403 2.01026021,11.3031197 1.96877811,11.3012379 C1.95372126,11.3005259 1.93866442,11.2996104 1.92360758,11.298695 C1.89581811,11.2970166 1.86807916,11.2948805 1.84039074,11.2923376 C1.82341389,11.2908118 1.80648758,11.2894386 1.78961179,11.2876077 C1.75272758,11.2835898 1.71594442,11.2789108 1.67926232,11.2734689 C1.65652547,11.2700613 1.63394021,11.2659926 1.61135495,11.2620765 C1.59422653,11.2590758 1.57704758,11.256126 1.56002021,11.2527693 C1.53571705,11.2481411 1.51156547,11.2432078 1.48751495,11.2378676 C1.47291284,11.2347143 1.45836126,11.2312051 1.44380968,11.2277466 C1.39985179,11.2173205 1.35629811,11.2059281 1.31314863,11.1934677 C1.29991074,11.1896533 1.28652126,11.1862457 1.27338442,11.1822278 L1.27338442,21 L22.7427739,21 L22.7427739,11.1774979 C22.7134181,11.1866017 22.6836581,11.19479 22.6538981,11.2029274 Z M16.7707907,14.9836285 C16.9744118,14.791534 17.2940413,14.8018584 17.4849802,15.0068202 C17.6758181,15.2116803 17.6655107,15.533567 17.4619907,15.7257123 L16.0405844,17.0670678 C15.9430686,17.1590209 15.8189255,17.2045905 15.6950855,17.2045905 C15.5602813,17.2045905 15.4258813,17.1506291 15.3263949,17.0438761 C15.1355571,16.8389143 15.1458644,16.5170785 15.3493844,16.324984 L16.7707907,14.9836285 Z M14.4201853,14.7630581 L15.1823242,14.04381 C15.3858947,13.8517155 15.7056758,13.8620398 15.8965137,14.0670017 C16.0873516,14.2719635 16.0770442,14.5937993 15.8735242,14.7858937 L15.1113853,15.5051418 C15.0138695,15.5970949 14.8897263,15.6426646 14.7658863,15.6426646 C14.6310821,15.6426646 14.4966316,15.5887032 14.3971958,15.4819501 C14.2063579,15.2769883 14.2166653,14.9551525 14.4201853,14.7630581 Z M9.10450862,13.6736632 C9.30812969,13.4815687 9.62786021,13.4918931 9.8186981,13.6968549 C10.009536,13.9017658 9.99922862,14.2236016 9.79570862,14.415747 L9.03356969,15.1348933 C8.9360539,15.2268973 8.81191073,15.2725178 8.68807073,15.2725178 C8.55326652,15.2725178 8.418816,15.2185564 8.31938021,15.1117016 C8.12854231,14.9067907 8.13884969,14.5849549 8.34236969,14.3928604 L9.10450862,13.6736632 Z" id="Marketplace"></path>
</svg>