<svg xmlns="http://www.w3.org/2000/svg" width="13" height="14">
    <path fill="#3E45A0" fill-rule="nonzero" d="M1.3988075 0C.629743 0 0 .6265012 0 1.3916065v7.9326693c0 .7651052.6297431 1.3916065 1.3988075 1.3916065h1.91794c-.1224977 1.7051703-.1498255 2.5253664-.0819833 2.4605883l3.7593607-2.4605883h4.5461243c.7690644 0 1.3988075-.6265013 1.3988075-1.3916065V1.3916117c0-.7651053-.6297431-1.3916065-1.3988075-1.3916065L1.3988075 0zm10.1413543.6958032c.3934146 0 .6994037.2917803.6994037.6669264v7.8623136c0 .375146-.3059891.6669263-.6994037.6669263H6.8520585l-.2458754-.007417-2.5627279 1.6448593.4337554-1.2727169c.0184415-.1849721-.1550439-.3653756-.3497019-.3647254H1.3987725c-.3934146 0-.6994037-.2917803-.6994037-.6669263V1.3627296c0-.375146.3059891-.6669264.6994037-.6669264h10.1413893zM2.622764 3.3484407c-.1932977 0-.3497018.160201-.3497018.358179 0 .1979835.1564094.3581791.3497018.3581791h7.6934412c.1932977 0 .3497019-.160201.3497019-.358179 0-.1979836-.1564094-.3581791-.3497019-.3581791H2.622764zm0 2.328164c-.1932977 0-.3497018.160201-.3497018.358179 0 .1979835.1564094.358179.3497018.358179h7.6934412c.1932977 0 .3497019-.1602009.3497019-.358179 0-.1979835-.1564094-.358179-.3497019-.358179H2.622764z"/>
</svg>