<svg xmlns="http://www.w3.org/2000/svg" width="16" height="27" viewBox="0 0 16 27">
    <g fill="none" fill-rule="evenodd">
        <path fill="#3293F6" fill-rule="nonzero" d="M15.302 13.5c-.385 0-.697.33-.697.738 0 1.701-.748 3.377-2.052 4.596-1.22 1.14-2.823 1.795-4.4 1.795h-.306c-1.577 0-3.18-.654-4.4-1.795-1.304-1.22-2.052-2.894-2.052-4.596 0-.408-.312-.738-.697-.738-.386 0-.698.33-.698.738 0 2.124.92 4.202 2.522 5.701 1.332 1.245 3.048 2.008 4.78 2.142v3.444h-3.24c-.386 0-.698.33-.698.737 0 .408.312.738.698.738h7.876c.385 0 .698-.33.698-.738 0-.407-.313-.737-.698-.737h-3.24V22.08c1.732-.134 3.448-.897 4.78-2.142C15.08 18.439 16 16.362 16 14.238c0-.408-.312-.738-.698-.738z"/>
        <path fill="#F00" d="M8.12 18h.26c2.461 0 4.62-2.371 4.62-5.075v-7.85C13 2.37 10.841 0 8.38 0h-.26C5.659 0 3.5 2.371 3.5 5.075v7.85C3.5 15.63 5.659 18 8.12 18z"/>
    </g>
</svg>
