<svg xmlns="http://www.w3.org/2000/svg" xmlns:xlink="http://www.w3.org/1999/xlink" width="176" height="102" viewBox="0 0 176 102">
    <defs>
        <rect id="b" width="1085" height="1005" x="113" y="32" rx="4"/>
        <filter id="a" width="104.1%" height="104.5%" x="-2.1%" y="-1.9%" filterUnits="objectBoundingBox">
            <feOffset dy="3" in="SourceAlpha" result="shadowOffsetOuter1"/>
            <feGaussianBlur in="shadowOffsetOuter1" result="shadowBlurOuter1" stdDeviation="7"/>
            <feColorMatrix in="shadowBlurOuter1" values="0 0 0 0 0 0 0 0 0 0 0 0 0 0 0 0 0 0 0.324109484 0"/>
        </filter>
        <path id="c" d="M.017.088H176v101.636H.017z"/>
        <path id="e" d="M.231 22.873V.194L.215.174h.444v22.7H.231"/>
        <linearGradient id="f" x1="0%" x2="100.013%" y1="50.001%" y2="50.001%">
            <stop offset="0%" stop-color="#D4EBDE"/>
            <stop offset="100%" stop-color="#B0DCDF"/>
        </linearGradient>
        <path id="h" d="M7.477 3.107L5.376.244.58 1.5.146 3.365l7.331-.258"/>
        <linearGradient id="i" x1="0%" x2="100.001%" y1="50.005%" y2="50.005%">
            <stop offset="0%" stop-color="#D4EBDE"/>
            <stop offset="100%" stop-color="#B0DCDF"/>
        </linearGradient>
        <path id="k" d="M27.095 11.028V9.913h-4.96L17.691.274H.226l5.087 10.754h21.782"/>
        <linearGradient id="l" x1="0%" x2="99.999%" y1="50%" y2="50%">
            <stop offset="0%" stop-color="#D4EBDE"/>
            <stop offset="100%" stop-color="#B0DCDF"/>
        </linearGradient>
        <path id="n" d="M14.258.12l-.033 13.303H.163L.677.121h13.581"/>
        <linearGradient id="o" x1="0%" y1="50%" y2="50%">
            <stop offset="0%" stop-color="#B0DCDF"/>
            <stop offset="100%" stop-color="#D4EBDE"/>
        </linearGradient>
        <path id="q" d="M11.045 4.107L5.31.797 2.382.183.17.524l10.875 3.583"/>
        <path id="s" d="M.12 1.797l1.577-1.5 11.838 3.766-10.19-.355-3.226-1.91"/>
        <path id="u" d="M8.676 2.47L9.324.245.077 1.57l8.599.902"/>
        <path id="w" d="M.069.235L6.697 2.34l-.988 2.567L.069.236"/>
        <path id="y" d="M1.764.026L3.19 1.503l-1.522 8.702-1.446.828L1.764.026"/>
        <linearGradient id="z" x1="45.073%" x2="54.544%" y1="51.142%" y2="47.74%">
            <stop offset="0%" stop-color="#D4EBDE"/>
            <stop offset="100%" stop-color="#B0DCDF"/>
        </linearGradient>
        <linearGradient id="B" x1="0%" y1="50.016%" y2="50.016%">
            <stop offset="0%" stop-color="#D4EBDE"/>
            <stop offset="100%" stop-color="#B0DCDF"/>
        </linearGradient>
        <path id="C" d="M7.239 35.523H.189v-1.107h7.05c1.904 0 3.535-1.475 3.794-3.43l4.822-30.8 1.054.177-4.82 30.787c-.33 2.487-2.416 4.373-4.85 4.373"/>
        <linearGradient id="D" x1="0%" y1="50%" y2="50%">
            <stop offset="0%" stop-color="#D4EBDE"/>
            <stop offset="100%" stop-color="#B0DCDF"/>
        </linearGradient>
    </defs>
    <g fill="none" fill-rule="evenodd">
        <path fill="#F0F0F7" stroke="#979797" d="M-961.5-180.5h1365v2613h-1365z"/>
        <path fill="#000" fill-opacity=".8" d="M-962-181H404V863H-962z"/>
        <g transform="translate(-962 -181)">
            <use fill="#000" filter="url(#a)" xlink:href="#b"/>
            <use fill="#F0F0F7" xlink:href="#b"/>
        </g>
        <path fill="#FFF" d="M-36-133h252a4 4 0 0 1 4 4v440H-40v-440a4 4 0 0 1 4-4z"/>
        <g opacity=".492">
            <g>
                <mask id="d" fill="#fff">
                    <use xlink:href="#c"/>
                </mask>
                <path fill="#FFFFFE" d="M.017 101.724H176V.088H.017z" mask="url(#d)"/>
            </g>
            <path fill="#13374D" d="M125.694 41.221s-10.786-18.5-1.373-31.021c25.63 7.58 18.218 33.15 18.218 33.15l-16.845-2.129"/>
            <path fill="#005C5A" d="M125.078 10.2c.09.026.176.053.265.08l6.94 23.887 8.421-13.041c.091.147.18.295.267.443l-8.517 13.188 2.003 6.893-.502-.062-3.992-13.741-8.596-2.717a27.145 27.145 0 0 1-.047-.5l8.488 2.681-4.903-16.875c.058-.079.113-.158.173-.236"/>
            <path fill="#21837F" d="M129.864 34.323s2.973-20.707 16.964-25.823c13.66 11.477 2.996 28.446 2.996 28.446L134.75 47.6l-4.886-13.277"/>
            <path fill="#005C5A" d="M135.231 19.754l5.899 7.12 5.518-18.247c.107-.042.214-.086.322-.127.053.045.102.091.154.137l-2.956 9.773 7.789-3.562.102.221.09.197-8.159 3.73-4.926 16.288 13.868-5.813-.15.562-13.89 5.822-3.498 11.565-.25.18-.154-.427 5.98-19.771-5.971-7.21c.076-.146.154-.292.232-.438"/>
            <path fill="#FACB57" d="M161.099 34.077c-11.19-4.367-23.563 8.116-23.563 8.116l-.837 6.052c1.735.183 3.513.718 4.616 1.677 2.409 2.099 3.701 3.526 5.321 6.266.46.777.86 1.608 1.2 2.462 7.691-4.451 15.456-12.13 13.263-24.573"/>
            <path fill="#FFFFFE" d="M160.621 34.364l-.043-.271c-.08-.033-.162-.062-.242-.093l-10.672 9.61.526-9.494c-.159.054-.316.109-.473.166l-.54 9.768-7.352 6.62.338.317.405-.364 12.851 2.077c.12-.135.236-.271.352-.41l-12.764-2.063 17.614-15.863"/>
            <path fill="#FACB57" d="M34.868 55.734S43.537 41.992 36.63 32.3c-19.763 5.134-14.686 24.65-14.686 24.65l12.924-1.216"/>
            <path fill="#FFFFFE" d="M36.838 32.3l-.199.054-5.696 18.082-5.958-10.155c-.071.11-.14.22-.208.332l6.025 10.27-1.644 5.217.374-.036 3.277-10.401 6.446-1.875c.016-.127.032-.254.046-.382l-6.364 1.852 4.024-12.774c-.041-.061-.08-.123-.123-.184"/>
            <path fill="#5BBDB7" d="M31.612 50.169S29.838 34.043 19.315 29.75c-10.66 8.58-2.948 21.988-2.948 21.988l11.216 8.612 4.029-10.181"/>
            <path fill="#21837F" d="M28.019 38.756l-4.875 5.381-3.96-14.28c-.085-.036-.168-.073-.254-.107l-.126.102 2.122 7.649-6.125-2.947c-.03.056-.058.112-.087.169l-.076.15 6.415 3.087 3.535 12.746L13.67 45.87c.035.149.07.296.107.44l10.935 4.844 2.51 9.052.194.145.133-.328-4.29-15.472 4.935-5.449c-.057-.115-.116-.23-.175-.345"/>
            <path fill="#13374D" d="M25.602 55.97s-9.004-10.072-17.52-6.903C4.441 67.206 27.34 73.1 27.34 73.1l-1.738-17.13"/>
            <path fill="#21837F" d="M8.584 49.365l-.04.204 13.278 12.42-9.944 1.27c.086.107.174.213.263.318L22.154 62.3l5.186 4.851-.056-.537-10.098-9.445-.187-7.41c-.12-.047-.24-.093-.362-.136l.182 7.203L8.774 49.3l-.19.064v.001"/>
            <path fill="#FACB57" d="M103.51 64.6L91.417 29.75h42.719v22.58h-29.148L103.51 64.6"/>
            <path fill="#13374D" d="M63.922 47.6l11.262-29.75H32.466v22.329h29.148l2.308 7.421"/>
            <path fill="#F0AB85" d="M131.796 47.6l-10.571 26.63h-4.481c-1.275 0-1.697.336-2.8.975l-2.876 2.145h11.608s12.644-14.976 14.023-24.34c-4.147-4.16-4.903-5.41-4.903-5.41"/>
            <path fill="#EC967C" d="M149.515 39.484l-2.982-4.634-3.853 1.883 1.31 4.019a.929.929 0 0 0 .115.048c1.254-1.292 3.661-.68 5.41-1.316"/>
            <path fill="#F0AB85" d="M145.056 26.35l1.041 5.948c-.57.114-.76.822-.527 1.346a1.16 1.16 0 0 0 .003.456c-.815.965-2.382 2.345-4.78 2.448-3.752.16-3.213-7.558-3.213-7.558l7.476-2.64"/>
            <path fill="#1B2441" d="M147.507 30.896c-.072-.448.294-1.526.549-1.894 1.644-2.372-.506-3.28-1.26-3.56-.832-.308-.998-1.716-2.107-2.253-1.694-.82-2.801.731-3.758.778-.956.048-1.81-1.087-2.992-.086-1.181 1.003-.79 2.06-1.113 2.627-.323.566-1.394-.517-2.367 1.259-1.48 2.702 2.61 2.7 2.61 2.7s2.328.398 4.88-1.444c.349-.252.826-.277 1.149.012.885.795 2.02 5.815 2.02 5.815l.754-1.045s1.964-.856 1.635-2.91"/>
            <path fill="#F0AB85" d="M146.086 31.584a.853.853 0 0 1-.978.705.85.85 0 1 1 .27-1.678.85.85 0 0 1 .708.973"/>
            <path fill="#5BBDB7" d="M155.914 71.4h-19.16V52.856l-4.327-5.481s4.83-9.125 13.953-9.125c9.122 0 15.096 9.125 15.096 9.125l-5.562 8.008V71.4"/>
            <g transform="translate(135.845 48.45)">
                <mask id="g" fill="#fff">
                    <use xlink:href="#e"/>
                </mask>
                <path fill="url(#f)" d="M.231 22.873V.194L.215.174h.444v22.7H.231" mask="url(#g)"/>
            </g>
            <g transform="translate(142.68 35.7)">
                <mask id="j" fill="#fff">
                    <use xlink:href="#h"/>
                </mask>
                <path fill="url(#i)" d="M7.477 3.107L5.376.244.58 1.5.146 3.365l7.331-.258" mask="url(#j)"/>
            </g>
            <path fill="#1B2441" d="M157.204 95.2c-.17-8.029-.618-16.219-1.508-23.8h-11.973c-.443 7.233-.069 15.512.725 23.8h12.756"/>
            <path fill="#1B2441" d="M146.61 95.2c-.07-13.743.341-23.8.341-23.8h-11.47s-1.4 12.381-1.343 23.8h12.471"/>
            <path fill="#13374D" d="M146.84 95.2c-.031-4.754.024-9.089.111-12.75a6.54 6.54 0 0 1-.736.094 419.87 419.87 0 0 0-.109 12.656h.734"/>
            <path fill="#F0AB85" d="M161.364 47.6s6.947 7.76 6.947 13.004S155.89 79.9 155.89 79.9l-2.105-3.985 8.105-14.262-6.21-6.083 5.683-7.97"/>
            <path fill="#13374D" d="M155.968 79.9l.382-.179-3.036-4.921-.382.179 3.036 4.921M136.699 87.55H43.573c0-.939 1.523-1.7 3.403-1.7h86.32c1.88 0 3.403.761 3.403 1.7"/>
            <path fill="#21837F" d="M110.062 85.85h16.552l-.569-7.954 1.127 1.747 6.11-2.329-1.163-2.288c-2.314-4.618-6.587-7.711-11.83-7.866-.216-.007-.436-.01-.66-.01-2.773 0-5.001.371-6.73.859-2.552.719-4.778 2.269-6.389 4.339l-2.277 3.494 5.938-.103-.109 10.111"/>
            <path fill="#EC967C" d="M117.41 65.271l-.36 2.356s-.154 1.223 2.357 1.223c1.023 0 1.682-.203 2.104-.443.486-.277.727-.784.65-1.284l-.779-5.073-3.973 3.221"/>
            <path fill="#F0AB85" d="M134.326 85.85c.164-.067.287-.15.357-.252 1.232-1.774-1.642-8.248-1.642-8.248l-5.318 2.066 1.727 2.841-12.401-.835v2.193s7.107 1.628 12.316 2.235h4.961M99.44 85.85h5.81c.424-.077.692-.134.692-.134l-3.1-4.966s-3.733 2.56-3.735 4.498c0 .257.123.453.333.602M116.962 66.22c-.587.11-1.148.127-1.483-.081-2.24-2.51-1.816-10.709-1.816-10.709l6.338-.18 1.196 5.166c.32 1.379.01 2.838-.835 3.932-.946.956-2.12 1.63-3.4 1.871"/>
            <path fill="#1B2441" d="M111.956 53.325c.885-1.008 2.285-1.21 2.95-.816.493.293 2.196-2.56 5.574-2.348 2.32.146 5.421 3.797 1.613 11.039-.252-.808-1.98-5.263-3.151-4.438-1.11.98-2.365 1.399-3.365 1.57-1.304.223-3.144-.511-3.932-1.588-.665-.908-.978-1.931.31-3.419"/>
            <path fill="#F0AB85" d="M121.743 57.094c-.53-.325-1.34-.082-1.81.543-.469.625-.42 1.394.11 1.72.53.324 1.34.08 1.81-.544.47-.625.42-1.395-.11-1.719"/>
            <path fill="#1B2441" d="M120.466 49.506s.787-1.498 3.492-.925c4.87 1.294 4.26 6.996 3.76 9.91a5.461 5.461 0 0 0 1.131 4.36c2.411 2.999 6.003 8.772 1.23 12.071-.904.625-2.042.897-3.112.62-1.044-.271-1.695-.915-2.1-1.588-.541-.904-.64-2.003-.344-3.01.226-.767.441-1.82.133-2.357-.52-.906-3.501-2.677-3.695-5.42-.194-2.742 1.588-3.798 2.024-6.69.767-5.092-.368-5.734-.368-5.734l-2.151-1.237"/>
            <path fill="#FFFFFE" d="M122.636 51.85l-2.17-1.497.542-1.053 2.021 1.508-.393 1.042"/>
            <g transform="translate(98.252 75.65)">
                <mask id="m" fill="#fff">
                    <use xlink:href="#k"/>
                </mask>
                <path fill="url(#l)" d="M27.095 11.028V9.913h-4.96L17.691.274H.226l5.087 10.754h21.782" mask="url(#m)"/>
            </g>
            <path fill="#FFFFFE" d="M108.505 81.6c0 .47.382.85.854.85s.855-.38.855-.85-.383-.85-.855-.85a.852.852 0 0 0-.854.85"/>
            <path fill="#EE9E35" d="M122.872 31.45l-4.514-.024s.344-1.36.215-2.404a1.33 1.33 0 0 0-.63-.955c-4.425-2.74-3.34-5.87-3.34-5.87s.481-3.973 6.168-4.328c6.062-.377 5.67 4.956 5.67 4.956s.26 2.971-2.895 4.97a1.8 1.8 0 0 0-.806 1.295 6.368 6.368 0 0 0 .132 2.36"/>
            <path fill="#21837F" d="M118.765 31.45l-.008 1.506c-.003.564.369 1.027.826 1.03l2.6.014c.458.002.835-.457.838-1.022l.008-1.505-4.264-.023"/>
            <path fill="#13374D" d="M119.612 34l.328.84 1.83.01.405-.835-2.563-.015"/>
            <path fill="#FAD473" d="M118.522 24.08a1.3 1.3 0 0 1 1.31.193.547.547 0 0 1 .224.434l-.005.874c-.65.042-1.279-.09-1.671-.55-.267-.313-.223-.775.142-.952zm3.022.837c-.004-.137.256-1.231 1.116-.62.09.063.142.16.126.253-.068.385-.765.644-1.258.77a2.666 2.666 0 0 1 .016-.403zm-1.703.844c.065 0 .138-.003.208-.005l-.039 5.688.349.001.04-5.71c.248-.02.508-.055.77-.105.003.108.006.212.004.31-.01.628-.022 1.255-.033 1.882l-.065 3.626.35.002.104-5.9c.443-.11.852-.264 1.131-.472 1.192-.884-.838-1.854-1.38-.612-.121.28-.128.616-.119.941-.229.052-.53.107-.802.142 0 0 .01-.525.004-.862a.698.698 0 0 0-.239-.523c-.898-.78-2.812-.226-2.043.912.331.49 1.096.681 1.76.685z"/>
            <path fill="#EE9E35" d="M126.51 16.934a.222.222 0 0 1 .002-.314l2.121-2.106a.22.22 0 0 1 .313.002.222.222 0 0 1-.002.314l-2.12 2.106a.22.22 0 0 1-.313-.002M116.128 16.936a.218.218 0 0 0 .002-.31l-2.117-2.11a.225.225 0 0 0-.316-.002.218.218 0 0 0-.001.31l2.117 2.11a.225.225 0 0 0 .315.002M120.876 17c-.228-.001-.411-.124-.41-.276l.03-3.701c.001-.152.187-.274.414-.273.228.001.411.124.41.276l-.03 3.701c-.001.152-.187.274-.414.273"/>
            <path fill="#5BBDB7" d="M73.492 60.35L67.495 13.6h38.447v33.475h-28.69l-3.76 13.275"/>
            <g transform="translate(85.437 10.2)">
                <mask id="p" fill="#fff">
                    <use xlink:href="#n"/>
                </mask>
                <path fill="url(#o)" d="M14.258.12l-.033 13.303H.163L.677.121h13.581" mask="url(#p)"/>
            </g>
            <path fill="#FFFFFE" d="M87.146 21.25h.845l.009-.34h-.508l.014-.51h-.337l-.023.85M94.696 21.253l.993-.003-.002 1h-.994l.003-.997zm-1.968.006l.98-.002-.003.993h-.982l.005-.99zm-1.946.006l.97-.003-.005.988h-.97l.005-.985zm-1.921.006l.958-.003-.006.982h-.959l.007-.979zM96.544 21.25h.848l.006-.85h-.34l-.003.51h-.509l-.002.34M97.478 14.456l.92-.006-.025 1.41-.922.004.027-1.408zm-.053 2.823l.924-.004-.026 1.423-.925.002.027-1.421zM97.05 14.45l.343-.007.005-.843-.852.019-.002.336.51-.01-.003.505M94.696 13.652l.993-.052-.002.66-.994.05.003-.658zm-1.968.101l.98-.05-.003.655-.981.05.004-.655zm-1.945.101l.97-.05-.006.652-.97.049.006-.65zm-1.922.1l.958-.05-.006.648-.959.048.007-.646zM87.146 14.45l.332-.007.014-.5.5-.01L88 13.6l-.832.018-.022.832M87.402 14.455l.744-.005-.084 1.41-.745.004.085-1.409zm-.17 2.824l.746-.003-.084 1.422-.748.002.085-1.421z"/>
            <path fill="#21837F" d="M98.135 8.843c-.478-.433-.97-.835-1.455-1.193-.736 4.034-3.062 8.807-3.988 8.595-.807-.186-2.035-1.387-3.162-3.771-.53.415-1.052.871-1.525 1.298-.158 3.294 3.555 6.35 4.733 6.62 1.23.283 6.35-7.25 5.397-11.549"/>
            <path fill="#FACB57" d="M74.33 26.775c0 3.051-2.486 5.525-5.553 5.525-3.067 0-5.554-2.474-5.554-5.525s2.487-5.525 5.554-5.525 5.553 2.474 5.553 5.525"/>
            <path fill="#FFFFFE" d="M65.786 27.2h5.981s-.63 3.4-3.04 3.4-2.94-3.4-2.94-3.4M70.893 25.5a.989.989 0 0 0 .02-.189c0-.365-.192-.661-.428-.661s-.427.296-.427.661c0 .066.008.129.02.189h.815M66.621 25.5c.011-.06.02-.123.02-.189 0-.365-.191-.661-.427-.661s-.428.296-.428.661a.97.97 0 0 0 .02.189h.815"/>
            <path fill="#13374D" d="M81.607 33.313c-2.206 1.057-2.512 7.14-1.825 8.098.721 1.008 9.512 2.008 12.053-.412 2.242-2.135 1.168-7.123-.24-8.162-1.318-.974-7.936-.508-9.988.476"/>
            <path fill="#FFFFFE" d="M83.728 34l.197 5.1 4.93-3.373L83.727 34"/>
            <g transform="translate(46.136 9.35)">
                <mask id="r" fill="#fff">
                    <use xlink:href="#q"/>
                </mask>
                <path d="M11.045 4.107L5.31.797 2.382.183.17.524l10.875 3.583" mask="url(#r)"/>
            </g>
            <path fill="#A0D2BB" d="M57.243 13.6l-10.968-2.74-.14-.66"/>
            <path fill="#5BBDB7" d="M46.136 12.75l.014.023.454 1.677 10.639-.776-11.107-.924"/>
            <g transform="translate(43.573 10.2)">
                <mask id="t" fill="#fff">
                    <use xlink:href="#s"/>
                </mask>
                <path d="M.12 1.797l1.577-1.5 11.838 3.766-10.19-.355-3.226-1.91" mask="url(#t)"/>
            </g>
            <path fill="#5BBDB7" d="M19.278 33.592c.341-.117.68-.26 1.005-.425a.154.154 0 0 1 .205.063.146.146 0 0 1-.065.2 8.237 8.237 0 0 1-1.431.564.154.154 0 0 1-.135-.023.147.147 0 0 1 .047-.26c.125-.037.25-.077.374-.12M41.172 10.202c.449.096.916.218 1.429.375.078.024.13.148.115.278-.014.13-.09.215-.167.191-.508-.155-.97-.277-1.413-.37a.122.122 0 0 1-.068-.046.324.324 0 0 1-.057-.222c.01-.13.082-.223.161-.206M38.504 10.297a.166.166 0 0 1-.057-.127c0-.087.062-.159.141-.16.457-.004.94.017 1.437.063.078.008.137.084.13.172-.007.087-.075.152-.154.145a13.808 13.808 0 0 0-1.41-.062.134.134 0 0 1-.087-.031M22.77 31.51c.07-.08.18-.081.248.003a.23.23 0 0 1-.003.29c-.425.484-.89.926-1.383 1.312a.155.155 0 0 1-.202-.005.188.188 0 0 1-.041-.05c-.054-.095-.033-.222.048-.285a9.913 9.913 0 0 0 1.334-1.266M23.15 31.413c-.096-.058-.11-.163-.03-.233.126-.115.25-.231.37-.35a8.8 8.8 0 0 0 .864-.994c.06-.08.196-.11.306-.066.106.044.15.145.09.225a9.1 9.1 0 0 1-.899 1.032 9.892 9.892 0 0 1-.384.362.284.284 0 0 1-.308.028l-.009-.004M24.026 28.889a.18.18 0 0 1-.036-.018c-.06-.04-.085-.111-.055-.175.2-.427.367-.88.51-1.384.024-.08.115-.127.205-.107.089.02.144.1.122.179-.149.519-.321.985-.527 1.424-.035.076-.133.112-.219.08M28.999 14.728a13.588 13.588 0 0 0-1.257 1.343c-.063.079-.198.103-.3.053l-.014-.007c-.09-.052-.116-.15-.055-.224a13.698 13.698 0 0 1 1.29-1.378.25.25 0 0 1 .306-.023c.093.059.107.164.03.236M27.324 17.223c-.217.447-.407.91-.563 1.376-.026.08-.108.12-.182.092a.153.153 0 0 1-.036-.02.16.16 0 0 1-.05-.175c.162-.48.356-.955.579-1.414a.138.138 0 0 1 .192-.065.16.16 0 0 1 .06.206M30.69 13.943c-.466.403-.912.84-1.326 1.297a.176.176 0 0 1-.259.006.2.2 0 0 1-.006-.273c.424-.468.881-.916 1.359-1.329a.176.176 0 0 1 .258.027.2.2 0 0 1-.026.272M33.531 11.887a.145.145 0 0 1-.15-.018.158.158 0 0 1 .029-.268c.465-.213.945-.397 1.426-.545a.15.15 0 0 1 .187.106.157.157 0 0 1-.101.193c-.47.145-.937.323-1.39.532M25.015 23.8a.436.436 0 0 1-.13-.028c-.074-.03-.118-.078-.107-.13l.039-.18c.089-.413.177-.826.28-1.238.02-.078.155-.133.301-.123.147.01.25.082.23.16-.101.41-.19.822-.278 1.233l-.039.18c-.016.078-.15.134-.296.125M31.014 12.729a.215.215 0 0 1-.19-.002.141.141 0 0 1-.037-.027c-.052-.053-.034-.126.04-.163.448-.228.92-.438 1.4-.623.079-.03.177-.009.22.048.042.057.012.128-.067.159-.469.18-.928.385-1.366.608M25.418 24.651c.135.01.228.081.211.16a14.84 14.84 0 0 1-.369 1.423c-.025.077-.152.128-.285.113a.334.334 0 0 1-.1-.025c-.072-.031-.112-.086-.094-.141.13-.408.246-.855.365-1.406.017-.078.139-.134.272-.124M17.77 34.005c.078-.027.154.064.169.204.015.14-.035.277-.113.304a6.82 6.82 0 0 1-1.44.336c-.035.005-.068-.014-.095-.05a.35.35 0 0 1-.058-.19c-.005-.143.054-.267.134-.277a6.658 6.658 0 0 0 1.404-.327M26.33 19.555c.111.021.179.1.148.177a11.01 11.01 0 0 0-.431 1.397c-.02.08-.128.132-.241.119a.268.268 0 0 1-.09-.026c-.061-.032-.095-.085-.082-.14.127-.525.271-.991.44-1.425.03-.077.145-.123.256-.102M36.08 10.286c.167-.035.335-.063.503-.085.079-.01.148.093.154.23.006.138-.053.259-.132.27a6.378 6.378 0 0 0-1.403.344c-.041.015-.083-.003-.115-.044a.305.305 0 0 1-.055-.15c-.016-.134.033-.267.111-.296.31-.114.625-.204.937-.27"/>
            <path fill="#A0D2BB" d="M166.444 17.962l1.012 2.438-2.126-.594L158.058 17l8.386.962"/>
            <path fill="#5BBDB7" d="M167.456 20.4l-4.272-.283 1.047-.567 3.225.85"/>
            <g transform="translate(158.058 16.15)">
                <mask id="v" fill="#fff">
                    <use xlink:href="#u"/>
                </mask>
                <path d="M8.676 2.47L9.324.245.077 1.57l8.599.902" mask="url(#v)"/>
            </g>
            <g transform="translate(158.058 17.85)">
                <mask id="x" fill="#fff">
                    <use xlink:href="#w"/>
                </mask>
                <path d="M.069.235L6.697 2.34l-.988 2.567L.069.236" mask="url(#x)"/>
            </g>
            <path fill="#5BBDB7" d="M166.525 22.931a.15.15 0 0 0 .042-.04.2.2 0 0 0-.014-.244 4.093 4.093 0 0 0-.593-.523c-.067-.049-.153-.021-.193.062-.04.082-.017.187.05.236.194.138.38.302.552.486a.121.121 0 0 0 .156.023M162.857 26.929a2.445 2.445 0 0 0-1.554-.145.17.17 0 0 1-.205-.12.168.168 0 0 1 .122-.202 2.758 2.758 0 0 1 1.778.165.166.166 0 0 1 .006.3.171.171 0 0 1-.147.002zm-2.82 1.901a.17.17 0 0 1-.206-.121c-.12-.473-.072-.932.139-1.328.076-.143.173-.274.288-.39a.17.17 0 0 1 .238-.004c.067.064.069.17.004.235-.093.094-.17.2-.232.314-.173.327-.21.694-.11 1.092a.165.165 0 0 1-.122.202zm8.711-4.075a.17.17 0 0 1-.214-.103 5.064 5.064 0 0 0-.767-1.435.165.165 0 0 1 .033-.233.17.17 0 0 1 .236.033 5.41 5.41 0 0 1 .817 1.527.166.166 0 0 1-.105.211zm-4.047 3.978c-.363-.555-.694-.958-1.043-1.268a.165.165 0 0 1-.012-.235.17.17 0 0 1 .238-.012c.372.33.72.755 1.1 1.335.05.077.028.18-.05.23l-.015.009a.17.17 0 0 1-.218-.059zm-3.053 2.062a4.422 4.422 0 0 1-.396-.226 3.584 3.584 0 0 1-.954-.899.165.165 0 0 1 .039-.232.17.17 0 0 1 .235.038c.233.32.532.601.863.814.117.075.24.145.367.209a.166.166 0 0 1 0 .296.17.17 0 0 1-.154 0zm7.242-3.38a.167.167 0 0 1-.137-.193 4.971 4.971 0 0 0 .016-1.62.167.167 0 0 1 .142-.19.168.168 0 0 1 .192.14 5.309 5.309 0 0 1-.017 1.728.166.166 0 0 1-.09.12.172.172 0 0 1-.106.015zm-4.504 3.882c-.6.05-1.188.005-1.748-.135a.166.166 0 1 1 .083-.322c.523.13 1.074.173 1.636.125a.169.169 0 0 1 .183.152.166.166 0 0 1-.154.18zm3.204-1.563a.164.164 0 0 1-.003-.235 4.258 4.258 0 0 0 .895-1.344.17.17 0 0 1 .22-.09.166.166 0 0 1 .092.217 4.555 4.555 0 0 1-.966 1.45.17.17 0 0 1-.239.003zm-1.333 1.4a.17.17 0 0 1-.226-.075 7.664 7.664 0 0 0-.064-.126c-.178.069-.36.129-.545.18a.17.17 0 0 1-.208-.116.166.166 0 0 1 .118-.205 5.25 5.25 0 0 0 .481-.157c-.175-.33-.368-.675-.587-1.045a.165.165 0 0 1 .062-.228.17.17 0 0 1 .23.06c.227.384.426.74.607 1.084.245-.111.482-.241.703-.387a.17.17 0 0 1 .234.046c.052.077.03.18-.047.231-.232.153-.48.29-.736.406l.055.11a.165.165 0 0 1-.077.223zm.948 2.519a.169.169 0 0 1-.206-.118 11.97 11.97 0 0 0-.548-1.568.167.167 0 0 1 .09-.217.17.17 0 0 1 .222.089c.234.552.424 1.094.562 1.61a.166.166 0 0 1-.12.204zm.235 2.668a.168.168 0 0 1-.157-.178l.005-.075c.027-.506 0-1.033-.083-1.565a.166.166 0 0 1 .141-.19.168.168 0 0 1 .193.14c.085.554.114 1.104.086 1.633l-.005.08a.167.167 0 0 1-.092.137.173.173 0 0 1-.088.018zm-.86 2.53a.165.165 0 0 1-.063-.226 5.92 5.92 0 0 0 .612-1.515.17.17 0 0 1 .204-.122c.09.022.146.112.124.202a6.236 6.236 0 0 1-.647 1.6.171.171 0 0 1-.23.063zm-1.923 1.867a.165.165 0 0 1 .06-.228c.454-.265.87-.62 1.237-1.058.06-.07.166-.081.238-.022a.165.165 0 0 1 .022.234 5.062 5.062 0 0 1-1.335 1.138.17.17 0 0 1-.222-.064zM163.117 41.369c.052-.064.08-.21.063-.35-.019-.16-.087-.252-.153-.208-.19.132-.384.213-.58.239-.068.009-.12.15-.117.316.004.166.062.293.13.283.214-.028.428-.115.635-.259a.126.126 0 0 0 .022-.021M41.958 28.625a2.974 2.974 0 0 1 2.96-2.988 2.974 2.974 0 0 1 3.004 2.944 2.974 2.974 0 0 1-2.96 2.989 2.975 2.975 0 0 1-3.004-2.945zm-4.993 1.195c.186.254.839.299 1.478.275.153.664.407 1.29.744 1.86-.485.525-.815 1.053-.792 1.22.039.28 1.175 1.697 1.837 1.801.292.046.744-.327 1.158-.758.59.37 1.241.652 1.936.824.04.66.175 1.204.302 1.301.226.17 2.037.373 2.578-.019.228-.165.288-.702.282-1.268a6.642 6.642 0 0 0 1.991-.83c.484.42.946.696 1.1.675.282-.038 1.706-1.169 1.81-1.827.044-.278-.297-.701-.706-1.098.36-.605.625-1.273.777-1.981.66-.04 1.206-.174 1.303-.3.172-.225.375-2.026-.02-2.565-.174-.24-.767-.293-1.37-.278a6.577 6.577 0 0 0-.844-1.865c.48-.522.807-1.046.784-1.213-.038-.28-1.174-1.696-1.836-1.8-.314-.05-.814.386-1.251.857a6.644 6.644 0 0 0-1.834-.702c-.02-.756-.17-1.415-.312-1.522-.226-.17-2.036-.373-2.578.019-.267.194-.304.9-.272 1.563a6.652 6.652 0 0 0-1.764.75c-.562-.537-1.157-.914-1.337-.89-.281.038-1.705 1.169-1.81 1.827-.05.325.422.847.915 1.294a6.573 6.573 0 0 0-.752 1.776c-.762.019-1.428.168-1.536.31-.172.224-.375 2.025.019 2.564z"/>
            <path fill="#FFFFFE" d="M45.251 24.773a4.132 4.132 0 0 0-2.924 1.23 4.09 4.09 0 0 0-1.194 2.927 4.09 4.09 0 0 0 1.237 2.91 4.133 4.133 0 0 0 2.942 1.187 4.133 4.133 0 0 0 2.924-1.23 4.09 4.09 0 0 0 1.194-2.927 4.089 4.089 0 0 0-1.237-2.91 4.132 4.132 0 0 0-2.942-1.187zm-2.968 7.154a4.21 4.21 0 0 1-1.273-2.996 4.21 4.21 0 0 1 1.229-3.014 4.254 4.254 0 0 1 3.011-1.267 4.254 4.254 0 0 1 3.03 1.223 4.211 4.211 0 0 1 1.273 2.996 4.209 4.209 0 0 1-1.229 3.014 4.254 4.254 0 0 1-3.011 1.267 4.254 4.254 0 0 1-3.03-1.223z"/>
            <path fill="#FFFFFE" d="M39.438 27.21c.03-.002.059-.006.087-.01a4.9 4.9 0 0 0-.141 1.206c.025 3.067 2.894 5.544 6.394 5.522 2.292-.015 4.295-1.098 5.397-2.705.03.006.058.01.087.014-1.113 1.64-3.15 2.748-5.483 2.763-3.546.023-6.452-2.487-6.478-5.593-.003-.41.045-.81.137-1.196M49.515 24.65c-1.15-1.013-2.587-1.612-4.143-1.598l-.09.003.029-.102.06-.003c1.57-.013 3.02.588 4.182 1.606l-.038.094"/>
            <path fill="#EC967C" d="M48.824 50.399c2.143 7.193 1.837 32.88 1.837 32.88h3.363c.557 0 1.105.135 1.6.393l4.182 2.178h-8.188a3.389 3.389 0 0 1-3.32-2.768l-4.725-24.836s3.107-15.041 5.251-7.847"/>
            <path fill="#EC967C" d="M49.553 43.822l-1.57 4.628-4.41-2.13 3.937-6.37 2.043 3.872"/>
            <path fill="#F0AB85" d="M50.3 45.539c.537.256 1.066.425 1.425.338 2.613-1.54 3.809-8.699 3.809-8.699l-1.935-2.328-4.045.432-2.142 4.108c-.572 1.097-.562 2.436.027 3.607.711 1.081 1.695 1.983 2.862 2.542"/>
            <path fill="#1B2441" d="M49.41 37.81c.53-.606 1.24-2.244 1.907-1.784.486.336 2.261 1.27 2.871 1.561 1.453.692 4.321 1.373 5.406-.773.542-1.073-.063-2.508-.603-3.107-.53-.587-1.289-.932-2.088-1.026-1.874-.219-4.6-.031-5.363-.6-1.283-.955-3.112-.82-3.686.363-.612 1.264-.891 3.472-.862 4.972.018.869.195 1.725.52 2.534l1.898-2.14"/>
            <path fill="#F0AB85" d="M47.438 36.582c.416-.156.934.275 1.158.961.224.687.07 1.37-.345 1.525-.415.156-.933-.275-1.158-.961-.224-.687-.07-1.37.345-1.525"/>
            <path fill="#21837F" d="M43.465 44.26c-12.86-1.43-24.669 22.904-24.669 22.904L34.341 78.2S51.123 62.661 48.4 48.922c-.486-2.448-2.483-4.388-4.936-4.661"/>
            <path fill="#1B2441" d="M41.01 95.2c-1.966-7.952-6.934-16.858-6.934-16.858l-6.337-4.392-8.089 5.873s3.002 8.004 6.207 15.377H41.01"/>
            <path fill="#F0AB85" d="M47.592 52.7s7.005 7.004 11.518 10.283c3.684 2.676 11.477 5.054 14.217 5.837a2.54 2.54 0 0 0 1.867-.187l2.57-1.329 7.673.15s0 1.36-4.664 1.639a12.149 12.149 0 0 1-1.655 2.31c-.58.63-1.43.931-2.284.827-3.456-.425-13.432-1.833-20.13-4.627-8.216-3.428-16.549-10.283-16.549-10.283l7.437-4.62"/>
            <path fill="#13374D" d="M25.908 94.35l4.85-18.949-12.094-8.251c-5.106 5.01-6.47 13.636-5.608 27.2h12.852"/>
            <g transform="translate(87.146 62.9)">
                <mask id="A" fill="#fff">
                    <use xlink:href="#y"/>
                </mask>
                <path fill="url(#z)" d="M1.764.026L3.19 1.503l-1.522 8.702-1.446.828L1.764.026" mask="url(#A)"/>
            </g>
            <path fill="#EC967C" d="M29.903 73.557s6.497 12.38 10.462 13.087c3.964.708 22.004-5.55 22.004-5.55v-2.47l-18.04.415-4.28-8.489-10.146 3.007"/>
            <path fill="#FACB57" d="M41.06 94.35c.696-3.115 2.66-15.506-4.148-35.7-19.422.962-19.13 30.491-18.926 35.7H41.06"/>
            <path fill="#EC967C" d="M33.12 52.7l-.654 6.523s.86 1.74 2.709 1.955c1.848.215 1.992-1.221 1.992-1.221l.425-4.25-2.658-1.086-1.815-1.921"/>
            <path fill="#F0AB85" d="M38.268 56.932c.615.049 1.195.008 1.52-.233 2.074-2.717.879-10.799.879-10.799l-6.546.474-.754 5.242a4.539 4.539 0 0 0 1.226 3.81c1.062.851 2.335 1.399 3.675 1.506"/>
            <path fill="#1B2441" d="M37.447 47.338s2.21.628 4.628.471c2.418-.156 1.182-2.777 1.182-2.777s-1.843.578-4.914-.175c-2.072-.508-2.594-.951-4.022-.41-1.94.737-1.854 3.91-1.854 3.91l.255 6.72.387.468s.535-4.355.688-5.694c.466-.57.897-.526 1.21-.34.34.202.503.59.46.967l-.786 6.87s4.423 2.359 5.643 2.137c1.22-.222 1.013-5.393 1.013-5.393s-1.298-.696-2.48.31c-1.171.999-2.307-.279-2.307-.279l.897-6.785"/>
            <path fill="#F0AB85" d="M34.134 48.45c.471.014.871.596.894 1.3.023.704-.341 1.263-.812 1.25-.472-.014-.872-.595-.895-1.3-.022-.704.341-1.263.813-1.25"/>
            <path fill="#EC967C" d="M62.26 79.05l3.141.563 2.949 3.572s-1.437.779-3.593-1.716c-4.254-.337-3.1-1.192-3.1-1.192l.603-1.227"/>
            <path fill="#F0AB85" d="M26.485 77.809s6.498 12.39 10.462 13.097c3.964.708 21.297-7.422 21.297-7.422l.707-2.666-18.04 2.478-4.28-8.496-10.146 3.009"/>
            <path fill="#F0AB85" d="M65.463 81.812a.67.67 0 0 0-.423-.676l-2.657-1.04a2.85 2.85 0 0 0-2.047-.012l-2.627.518-.28.474-.186 2.432c.51-.21.809-.34.809-.34l1.685-.216s3.624 2.46 4.796-.355c.488 2.725 1.253 2.39 1.253 2.39l-.323-3.175"/>
            <path fill="url(#B)" d="M60.66 86.7h10.253v-.85H60.66z"/>
            <g transform="translate(74.33 51)">
                <mask id="E" fill="#fff">
                    <use xlink:href="#C"/>
                </mask>
                <path fill="url(#D)" d="M7.239 35.523H.189v-1.107h7.05c1.904 0 3.535-1.475 3.794-3.43l4.822-30.8 1.054.177-4.82 30.787c-.33 2.487-2.416 4.373-4.85 4.373" mask="url(#E)"/>
            </g>
            <path fill="#1B2441" d="M90.563 51l-.701.564-4.425 27.613.62.723L90.564 51"/>
            <path fill="#43425D" d="M2 3h173v96H2z" style="mix-blend-mode:hue"/>
        </g>
    </g>
</svg>
