<svg xmlns="http://www.w3.org/2000/svg" width="20" height="19" viewBox="0 0 20 19">
    <g fill="#BEC0D2" fill-rule="evenodd">
        <path d="M7.027 15.676c-.896 0-1.622.726-1.622 1.621 0 .896.726 1.622 1.622 1.622.896 0 1.622-.726 1.622-1.622 0-.895-.726-1.621-1.622-1.621M18.919 16.486h-7.885c-.437 0-.765.366-.764.803v.017c0 .437.327.802.764.802h7.885c.447 0 .81-.363.81-.81 0-.448-.363-.812-.81-.812m-5.641-9.039l-4.685 2.87c-.328.2-.75-.035-.75-.42v-5.74c0-.385.422-.62.75-.42l4.685 2.87c.314.192.314.648 0 .84M18.378 0H1.622C.726 0 0 .726 0 1.622v10.81c0 .896.726 1.622 1.622 1.622h16.756c.896 0 1.622-.726 1.622-1.622V1.622C20 .726 19.274 0 18.378 0M3.02 16.486H1.081c-.447 0-.81.364-.81.811 0 .448.363.811.81.811H3.02c.437 0 .765-.365.764-.802v-.017c0-.437-.327-.803-.764-.803"/>
    </g>
</svg>
