<?xml version="1.0" encoding="UTF-8"?>
<svg width="16px" height="20px" viewBox="0 0 16 20" version="1.1" xmlns="http://www.w3.org/2000/svg" xmlns:xlink="http://www.w3.org/1999/xlink">
    <path d="M3.6438089e-16,1.25 L3.6438089e-16,18.75 C0,19.4403559 0.551034154,20 1.23076923,20 L14.7692308,20 C15.4489658,20 16,19.4403559 16,18.75 L16,5.72291667 C15.9997127,5.39150775 15.8698543,5.07377893 15.6389744,4.83958333 L11.2348718,0.366666667 C11.0042792,0.132179188 10.6914385,0.0002917534 10.3651282,0 L1.23076923,0 C0.551034154,0 3.6438089e-16,0.559644063 3.6438089e-16,1.25 Z M2.42424242,2.43902439 L8.92929293,2.43902439 L8.92929293,5.90447154 C8.92929293,6.60044013 9.48403775,7.16463415 10.1683502,7.16463415 L13.5757576,7.16463415 L13.5757576,17.5609756 L2.42424242,17.5609756 L2.42424242,2.43902439 Z" id="Shape-Copy-5"></path>
</svg>