<?xml version="1.0" encoding="UTF-8"?>
<svg width="17px" height="17px" viewBox="0 0 17 17" version="1.1" xmlns="http://www.w3.org/2000/svg" xmlns:xlink="http://www.w3.org/1999/xlink">
    <!-- Generator: sketchtool 49.3 (51167) - http://www.bohemiancoding.com/sketch -->
    <title>88257940-7EC6-41A7-938F-4154F81496C4</title>
    <desc>Created with sketchtool.</desc>
    <defs></defs>
    <g id="Menu-not-reg'" stroke="none" stroke-width="1" fill="none" fill-rule="evenodd">
        <g id="Reg'-user-menu-web" transform="translate(-1000.000000, -211.000000)" fill="#4A4A4A" fill-rule="nonzero">
            <g id="Group-4" transform="translate(984.000000, 64.000000)">
                <g id="Group-14">
                    <g id="Group-5">
                        <g id="Group-3" transform="translate(16.000000, 27.000000)">
                            <g id="Group-12" transform="translate(0.000000, 120.000000)">
                                <path d="M16.1919643,4.70089286 L15.6670312,4.70089286 L15.6696429,0.522321429 C15.6696429,0.319138393 15.5515982,0.134758929 15.3677411,0.0490982143 C15.2972277,0.0161919643 15.2220134,0 15.1473214,0 C15.0266652,0 14.9065312,0.0417857143 14.8104241,0.123267857 C13.3045714,1.39355357 10.3299509,3.13392857 7.3125,3.13392857 L1.04464286,3.13392857 C0.468,3.13392857 0,3.60140625 0,4.17857143 L0,9.40178571 C0,9.97895089 0.468,10.4464286 1.04464286,10.4464286 L7.37987946,10.4464286 C10.3576339,10.4464286 13.3306875,11.8358036 14.8354955,12.9551384 C14.9274241,13.0235625 15.0371116,13.0580357 15.1473214,13.0580357 C15.2272366,13.0580357 15.3081964,13.0397545 15.3818437,13.0021473 C15.5583884,12.9143973 15.6696429,12.7336741 15.6696429,12.5357143 L15.6670312,8.87946429 L16.1919643,8.87946429 C16.480808,8.87946429 16.7142857,8.64598661 16.7142857,8.35714286 L16.7142857,5.22321429 C16.7142857,4.93437054 16.480808,4.70089286 16.1919643,4.70089286 Z" id="Shape"></path>
                                <path d="M5.07435268,11.4910714 L2.61160714,11.4910714 C2.45282143,11.4910714 2.30239286,11.5636741 2.20367411,11.686942 C2.10495536,11.8112545 2.06734821,11.9736964 2.10234375,12.1288259 L3.02162946,16.1888304 C3.08483036,16.4787188 3.38829911,16.7142857 3.69699107,16.7142857 L6.15973661,16.7142857 C6.31852232,16.7142857 6.46895089,16.641683 6.56766964,16.5184152 C6.66638839,16.3941027 6.70399554,16.2316607 6.669,16.0765313 L5.74971429,12.0165268 C5.68599107,11.7266384 5.38304464,11.4910714 5.07435268,11.4910714 Z" id="Shape"></path>
                            </g>
                        </g>
                    </g>
                </g>
            </g>
        </g>
    </g>
</svg>