<svg xmlns="http://www.w3.org/2000/svg" width="12" height="20"><g fill="#000" fill-rule="nonzero" opacity=".44074"><path d="M6 5c.5836 0 5.8336-.0414 5.8336-1.6664V1.66642c0-1.625-5.25-1.6664-5.8336-1.6664-.5836 0-5.8336.0414-5.8336 1.6664v1.6664C.1664 4.9586 5.4164 5 6 5zM1 3.2914V2.625c.125.0414.25.125.4164.1664v.7914C1.20858 3.4586 1.0414 3.375 1 3.2914zm4.1664.04219v.8336c-.4586 0-.875-.0414-1.25-.0836V3.25c.4586.04141.875.04141 1.25.0836zm-2.0828.625c-.2914-.0414-.5836-.0836-.8336-.1664V3c.25.0414.5414.0836.8336.125v.83359zM6 4.1664v-.83282c.4586 0 3.5-.0414 5-.7086v.7086c-.2086.2914-2.0414.83282-5 .83282zM6.5414.8336H8.2086c.0836 0 .16641 0 .25.0414.0836 0 .125 0 .16641.04141.0836 0 .125 0 .2086.0414.0414 0 .125 0 .1664.04141.0836 0 .125 0 .2086.0414.04141 0 .125 0 .16641.04141.04141 0 .125.04141.16641.04141.0414 0 .0836.0414.1664.0414.04141 0 .125.04141.16641.04141.0414 0 .0836.0414.125.0414.0414 0 .0836.04141.125.04141.0414 0 .0836.04141.125.04141.0414 0 .0836.0414.125.0414.0414 0 .0836.04141.0836.04141.0414 0 .08359.0414.08359.0414.0414 0 .0414.04141.0836.04141.0414 0 .0414.04141.08359.04141.0414 0 .0414.0414.0836.0414.0414 0 .0414.04141.08359.04141l.0414.0414.0414.04141.04141.04141c-.2914.3336-2.0836.8336-4.9586.8336-2.875 0-4.6664-.5-4.9586-.8336 0 0 .04141 0 .04141-.0414l.0414-.04141s.04141 0 .04141-.0414c0 0 .0414-.04141.0836-.04141.0414 0 .0414-.04141.08359-.04141.0414 0 .0414-.0414.0836-.0414.0414 0 .0414-.04141.08359-.04141.0414 0 .0836-.0414.125-.0414.0414 0 .0836-.04141.0836-.04141.0414 0 .08359-.04141.125-.04141.0414 0 .08359-.0414.125-.0414C1.9586 1.25 2.04141 1.25 2.0836 1.25c.0414 0 .08359-.0414.125-.0414.0414 0 .08359-.04141.1664-.04141.0414 0 .0836-.0414.1664-.0414.04141 0 .125-.04141.16641-.04141s.125 0 .16641-.0414c.0414 0 .125 0 .2086-.04141.0414 0 .125 0 .1664-.04141.0836 0 .125 0 .2086-.0414.04141 0 .125 0 .16641-.04141.0836 0 .1664 0 .25-.0414H6.08284c.2086-.00235.29219-.00235.4586-.00235H6.5414z"/><path d="M2.875 10.75c1.5414 0 3.2914-.3336 3.625-.375.5836-.125 5.7086-1.1664 5.4164-2.75L11.5828 6c-.3336-1.5836-5.4586-.625-6.0414-.5-.9164.1664-1.75.4164-2.5414.6664-.4586.1664-.875.2914-1.25.4586C.5414 7.1664 0 7.7086.125 8.25l.3336 1.625c.125.6664 1.20782.875 2.4164.875zM1.125 9c.125.0414.2914.0414.4586.0836l.1664.75c-.25-.04141-.375-.0836-.4586-.16641L1.125 9zM1 8l.0414-.0414.04141-.04141.0414-.0414.04141-.04141c.04141 0 .04141-.04141.0836-.04141.0414 0 .0414-.0414.0836-.0414.0414 0 .0414-.04141.08359-.04141.0414 0 .0414-.0414.08359-.0414.0414 0 .0836-.04141.125-.04141.0414 0 .0836-.04141.125-.04141.0414 0 .0836-.0414.125-.0414.0414 0 .0836-.04141.125-.04141.0414 0 .0836-.0414.125-.0414.0414 0 .0836-.04141.125-.04141.0414-.04141.125-.04141.1664-.0836.04141-.0414.0836-.0414.16641-.0836.0414-.0414.125-.0414.1664-.08359.04141-.0414.125-.0414.16641-.08359.04141-.0414.125-.0414.16641-.0836.0836-.0414.125-.0414.2086-.08359.0836 0 .125-.0414.2086-.0414.0836-.04141.125-.04141.2086-.0836.0836 0 .125-.0414.2086-.0414.0836-.04141.1664-.04141.25-.0836.0836 0 .125-.0414.2086-.0414.0836-.04141.1664-.04141.25-.0836.0414 0 .125-.0414.1664-.0414.0836-.04141.2086-.04141.2914-.0836h.04141c.1664-.0414.2914-.0836.4586-.0836.1664-.0414.375-.08359.5414-.08359h.125c.125-.0414.25-.0414.375-.0414.0414 0 .0836 0 .1664-.0414.125 0 .2086-.04141.3336-.04141h.16641c.0836 0 .2086-.04141.2914-.04141h.16641c.0836 0 .1664 0 .2914-.0414H10.41566c.0414 0 .0414 0 .08359.0414h.0414s.04141 0 .04141.0414c0 0 .0414 0 .0414.04141h.04141c-.25.375-1.875 1.2086-4.7086 1.7914-2.8336.5414-4.6664.4164-5.0414.125L1.00003 8H1zm4.3336.875l.1664.8336c-.4586.0836-.875.125-1.25.1664l-.1664-.8336C4.54142 9 5 8.9164 5.3336 8.875zm-2.75 1.0414l-.1664-.7914h.125c.25 0 .5 0 .7086-.0414l.1664.7914c-.29218.0414-.5836.0414-.8336.0414zm3.75-.375l-.1664-.8336c.4586-.0836 3.4164-.7086 4.75-1.6664l.125.6664C10.9164 8.08358 9.25 8.95858 6.3336 9.5414zM7.25 13.6664c-1.2914-.75-2.5414-1.3336-3.5836-1.6664-1.25-.375-2-.3336-2.2914.1664L.5414 13.625C-.2922 15.0414 4.25 17.7086 4.75 18c1.2914.75 2.5414 1.3336 3.5836 1.6664.5414.16641 1 .25 1.375.25.4586 0 .75-.125.9164-.4164l.8336-1.4586c.83282-1.4164-3.6672-4.0828-4.2086-4.375zm.0414 1c.04141.0414.0836.0836.16641.0836.0836.0414.2086.125.2914.1664.0414.0414.125.0836.1664.125.0836.0414.16641.0836.25.1664.04141.04141.125.0836.16641.125.0836.04141.125.0836.2086.125.04141.04141.0836.0836.16641.125.0836.04141.125.0836.2086.125l.125.125c.0414.04141.125.0836.1664.125.04141.04141.0836.0836.125.0836.04141.0414.125.0836.16641.125.0414.0414.0836.0836.125.0836l.125.125c.0414.0414.0836.0414.0836.08359a4146518015967.3 4146518015967.3 0 0 0 .41718.41719c.04141.0414.0836.08359.0836.125.0414.0414.0414.0414.0414.08359.04141.0414.04141.0836.0836.0836 0 .0414.0414.0414.0414.0414l.0836.0836.0414.0414c0 .0414.04141.0414.04141.0836 0 0 0 .0414.0414.0414 0 .0414.04141.0414.04141.0414v.08281c-.4164.125-2.2086-.3336-4.7086-1.7914-2.5-1.4586-3.7914-2.7914-3.875-3.2086h.33281c.7086.0836 2.3336.5836 4.4164 1.7914.08594.125.25234.2086.37734.2914l.00002.00002zM2.5 14.375c.2086.1664.4164.375.6664.5414l-.4164.7086c-.25-.2086-.4586-.375-.625-.5414l.375-.7086zm1.3336 1.0414c.3336.25.6664.4586 1.0414.7086l-.4164.7086c-.375-.25-.7086-.4586-1.0414-.7086l.4164-.7086zm-2.2086-2c.0836.125.16641.2086.2914.3336l-.375.6664c-.1664-.2086-.2086-.3336-.25-.4164l.3336-.5836zm3.5414 3.875c0-.0414-.0414-.0414 0 0l.4164-.7086c1.2914.75 2.5414 1.3336 3.5836 1.625.4164.125.7914.2086 1.0836.25l-.3336.5836c-.33281.16719-2.1664-.2914-4.75-1.75z"/></g></svg>