<svg width="14px" height="15px" viewBox="0 0 14 15" version="1.1" xmlns="http://www.w3.org/2000/svg">
    <g id="Ask-your-question-web-active" transform="translate(-413.000000, -388.000000)">
        <g id="Group-15" transform="translate(408.000000, 384.000000)">
            <path d="M5,19 L5,17.488665 L8.03208556,17.488665 L8.03208556,17.4130982 C6.62433155,16.2040302 5.2526738,14.0125945 5.2526738,11.1788413 C5.2526738,6.98488665 8.06818182,4 11.8221925,4 C15.7566845,4 18.2112299,7.09823678 18.2112299,10.9899244 C18.2112299,14.0125945 16.8395722,16.2040302 15.4318182,17.4130982 L15.4318182,17.488665 L18.5,17.488665 L18.5,19 L13.1938503,19 L13.1938503,17.790932 C14.8542781,16.581864 16.3342246,14.2392947 16.3342246,11.2921914 C16.3342246,8.60957179 14.8181818,5.54911839 11.8221925,5.54911839 C8.82620321,5.51133501 7.1657754,8.38287154 7.1657754,11.2921914 C7.1657754,14.0503778 8.64572193,16.6952141 10.3061497,17.790932 L10.3061497,19 L5,19 Z"
                  id="Shape-Copy"></path>
        </g>
    </g>
</svg>