<svg xmlns="http://www.w3.org/2000/svg" width="14" height="14">
    <g fill="#3E45A0" fill-rule="nonzero">
        <path d="M9.1105688 13.1563185l.0733164.3853482H.2579752l.0733164-.3853482c.4415623-2.3208356 1.9342726-3.5120877 4.3896385-3.5120877 2.455366 0 3.9480763 1.1912521 4.3896386 3.5120877zm-4.3896386-2.8625151c-2.0050012 0-3.2019672.8493572-3.6629606 2.5982906H8.383891c-.4609935-1.7489334-1.6579595-2.5982906-3.6629607-2.5982906zM4.883721 8.9946581c-1.2586956 0-2.2790698-1.0178825-2.2790698-2.2735043 0-1.2556217 1.0203742-2.2735042 2.2790697-2.2735042S7.1627907 5.465532 7.1627907 6.7211539c0 1.2556217-1.0203743 2.2735042-2.2790698 2.2735042zm0-.6495726c.8990681 0 1.627907-.727059 1.627907-1.6239316 0-.8968727-.7288389-1.6239317-1.627907-1.6239317-.8990683 0-1.627907.727059-1.627907 1.6239317 0 .8968726.7288387 1.6239316 1.627907 1.6239316z"/>
        <path d="M.9767442 8.8091658c0 .194476-.3255814.3521301-.3255814.3521301s-.3255814-.157654-.3255814-.35213V1.4085202C.3255814.630616.9086524 0 1.627907 0h11.0697674C13.416929 0 14 .630616 14 1.4085203v11.0207298c0 .7779043-.583071 1.4085203-1.3023256 1.4085203h-.5495114c-.1798136 0-.3255814-.157654-.3255814-.35213 0-.1944761.1457678-.3521301.3255814-.3521301h.5495114c.3596273 0 .6511628-.315308.6511628-.7042602V1.4085203c0-.3889521-.2915355-.7042601-.6511628-.7042601H1.627907c-.3596273 0-.6511628.315308-.6511628.7042601v7.4006455z"/>
    </g>
</svg>