<svg width="16px" height="14px" viewBox="0 0 16 14" version="1.1" xmlns="http://www.w3.org/2000/svg">
        <g id="Ask-your-question-web-active" transform="translate(-372.000000, -390.000000)">
            <g id="Group-14" transform="translate(368.000000, 384.000000)">
                <path d="M6.52020202,16.5686245 C8.16161616,14.7873956 9.17171717,11.8186809 9.12121212,8.13747461 C9.12121212,8.13747461 7.85858586,8.13747461 7.85858586,8.13747461 C6.09090909,8.08997518 5.58585859,9.34871023 5.13131313,10.0849515 L4.5,10.0849515 C5.81313131,7.66248025 4.95454545,6 10.0555556,6 L19.4494949,6 L19.4494949,8.13747461 L15.9141414,8.13747461 C15.0808081,15.4048883 15.2070707,16.4498759 16.4191919,17.114868 C16.9747475,17.4236143 18.6919192,17.5661126 18.9191919,15.4523877 L19.5,15.4523877 C19.5,20.3448296 13.3131313,20.8673234 13.1868687,16.6636233 C13.1616162,16.022381 13.3888889,13.3861623 13.8939394,8.11372489 L10.510101,8.11372489 C10.510101,8.11372489 9.87878788,15.594886 9.6010101,16.6398736 C9.3989899,17.3998646 9.24747475,19.1810934 7.60606061,19.3948409 C6.46969697,19.5848386 4.85353535,18.3498533 6.52020202,16.5686245 Z" id="Shape-Copy-2"></path>
            </g>
        </g>
</svg>