<svg xmlns="http://www.w3.org/2000/svg" xmlns:xlink="http://www.w3.org/1999/xlink" width="19" height="21" viewBox="0 0 19 21">
    <defs>
        <path id="a" d="M0 .29h12.136v4.996H0z"/>
        <path id="c" d="M0 .075h12.136v3.538H0z"/>
        <path id="e" d="M.973.543H13.11v5H.973z"/>
        <path id="g" d="M0 .02h5.727v3.495H0z"/>
    </defs>
    <g fill="#4452FC" fill-rule="evenodd">
        <path fill="#BDC0D1" d="M17.441 17.025c-.2.119-.402.23-.622.331-1.271.58-2.969.917-4.839.92-1.875-.003-3.57-.34-4.835-.92-.221-.1-.428-.212-.626-.33-.418.357-.614.726-.606 1.04-.021.502.514 1.157 1.635 1.67 1.1.498 2.684.83 4.432.828 1.75.001 3.332-.33 4.43-.829 1.127-.512 1.658-1.167 1.635-1.669.014-.314-.187-.683-.604-1.04"/>
        <g transform="translate(0 .259)">
            <mask id="b" fill="#fff">
                <use xlink:href="#a"/>
            </mask>
            <path fill="#BDC0D1" d="M1.563 4.42c.026.014.046.025.075.038 1.098.504 2.677.832 4.43.828 1.75.004 3.33-.324 4.433-.828l.072-.038h-.001c1.071-.5 1.583-1.137 1.564-1.63.02-.507-.514-1.16-1.635-1.669C9.398.617 7.819.286 6.069.29c-1.754-.004-3.333.327-4.43.831C.511 1.63-.022 2.283 0 2.791c-.021.492.492 1.129 1.563 1.63" mask="url(#b)"/>
        </g>
        <g transform="translate(0 5.198)">
            <mask id="d" fill="#fff">
                <use xlink:href="#c"/>
            </mask>
            <path fill="#BDC0D1" d="M1.563 2.747l.074.038c1.1.5 2.678.831 4.432.828.291 0 .574-.01.85-.028l.152-.009c.274-.02.542-.046.799-.085h.005A10.437 10.437 0 0 0 9.957 3h.009a11.037 11.037 0 0 0 .535-.216c.024-.01.044-.025.072-.038h-.001c1.071-.504 1.583-1.14 1.564-1.633.013-.31-.188-.68-.61-1.04-.194.12-.398.234-.619.335-1.274.576-2.968.917-4.838.917-1.872 0-3.568-.34-4.839-.917A6.74 6.74 0 0 1 .608.078C.189.434-.012.804 0 1.114c-.016.493.492 1.129 1.563 1.633" mask="url(#d)"/>
        </g>
        <g transform="translate(4.94 8.49)">
            <mask id="f" fill="#fff">
                <use xlink:href="#e"/>
            </mask>
            <path fill="#BDC0D1" d="M13.041 2.705c-.003-.008-.003-.015-.008-.023a1.465 1.465 0 0 0-.094-.181c-.001-.002-.005-.008-.011-.012a1.657 1.657 0 0 0-.137-.19h-.001c-.269-.32-.7-.648-1.32-.926C10.374.871 8.79.54 7.045.543c-.297 0-.581.01-.868.028-.048.003-.095.008-.142.012-1.188.084-2.258.322-3.103.657a7.585 7.585 0 0 0-.321.133c-.61.277-1.042.6-1.31.915-.019.028-.04.05-.061.074-.022.033-.048.066-.068.1-.041.054-.07.113-.099.167-.01.015-.015.033-.021.046-.02.051-.035.099-.05.148a.127.127 0 0 1-.011.048.812.812 0 0 0-.016.175.777.777 0 0 0 .069.336c.023.059.052.116.085.176.007.01.01.02.018.028.228.37.684.759 1.388 1.09.03.011.048.024.076.04.128.053.267.111.407.167l.154.051c.094.036.191.07.292.1.066.024.133.04.199.061.09.027.183.051.277.076l.233.058.272.057c.084.022.171.037.26.051l.27.047c.092.014.186.03.282.042l.27.03c.102.012.2.026.306.033.089.007.18.016.273.018.307.025.62.036.939.036 1.747 0 3.329-.329 4.427-.828.43-.196.772-.41 1.03-.632.078-.066.149-.133.211-.2.04-.042.064-.078.1-.12.017-.026.047-.052.063-.079.03-.04.048-.075.071-.11.015-.026.026-.05.041-.07l.008-.017c.015-.031.03-.06.042-.09.011-.032.023-.063.03-.096h.002v-.007c.007-.021.019-.05.022-.075a.636.636 0 0 0 .015-.173h.005c0-.061-.005-.12-.02-.18a.863.863 0 0 0-.05-.161" mask="url(#f)"/>
        </g>
        <path fill="#BDC0D1" d="M.608 8.538c-.42.359-.619.73-.607 1.039-.022.504.512 1.162 1.636 1.67.873.403 2.053.687 3.377.79a2.032 2.032 0 0 1-.074-.501c0-.099.011-.196.025-.288.008-.031.013-.068.02-.102.013-.058.026-.119.046-.176.008-.037.023-.07.036-.11.016-.048.04-.1.064-.154.016-.033.033-.072.054-.109a2.973 2.973 0 0 1 .665-.815c-1.781-.026-3.398-.36-4.618-.913a6.746 6.746 0 0 1-.624-.331"/>
        <g transform="translate(0 11.783)">
            <mask id="h" fill="#fff">
                <use xlink:href="#g"/>
            </mask>
            <path fill="#BDC0D1" d="M5.598 1.261C3.916 1.21 2.393.881 1.232.351A6.035 6.035 0 0 1 .608.02C.188.38-.011.747 0 1.059c-.02.505.513 1.162 1.639 1.669.876.403 2.051.685 3.375.787a2.305 2.305 0 0 1-.08-.499c.016-.64.318-1.179.793-1.633-.042-.04-.09-.08-.129-.122" mask="url(#h)"/>
        </g>
        <path fill="#BDC0D1" d="M18.027 14.612c-.054-.267-.248-.561-.586-.853a4.38 4.38 0 0 1-.296.167h-.004c-.107.057-.214.115-.322.166-.162.072-.33.143-.507.207l-.139.046a5.994 5.994 0 0 1-.41.139c-.03.013-.065.018-.093.026-.163.05-.328.092-.498.137-.014 0-.03.005-.046.008-.186.044-.378.087-.573.123-.798.15-1.664.233-2.57.233a14.26 14.26 0 0 1-2.306-.186 12.588 12.588 0 0 1-1.32-.295c-.014-.005-.029-.012-.047-.015a7.354 7.354 0 0 1-.538-.173c-.023-.01-.051-.018-.077-.028a9.331 9.331 0 0 1-.55-.222 6.262 6.262 0 0 1-.626-.336c-.365.316-.565.64-.6.922a.762.762 0 0 0-.006.122.914.914 0 0 0 .013.161l.02.076c.007.021.015.05.025.072.156.445.671.95 1.577 1.36 1.101.507 2.682.833 4.432.83 1.75.003 3.332-.323 4.43-.83.768-.349 1.25-.76 1.48-1.152.012-.018.024-.036.033-.053.02-.041.037-.079.053-.115.013-.03.022-.063.033-.09.007-.032.018-.058.022-.086a.637.637 0 0 0 .018-.173.662.662 0 0 0-.017-.166c-.001-.007-.001-.017-.005-.022"/>
        <path d="M-2-2h24v24H-2z"/>
    </g>
</svg>