<?xml version="1.0" encoding="utf-8"?>
<!-- Generator: Adobe Illustrator 22.1.0, SVG Export Plug-In . SVG Version: 6.00 Build 0)  -->
<svg version="1.1" id="Layer_1" xmlns="http://www.w3.org/2000/svg" xmlns:xlink="http://www.w3.org/1999/xlink" x="0px" y="0px"
	 viewBox="0 0 15.3 20" style="enable-background:new 0 0 15.3 20;" xml:space="preserve">
<g>
	<defs>
		<path id="SVGID_1_" d="M10.9,8.1L4,8.1l0-2.7C4,3.5,5.6,2,7.4,2c1.9,0,3.4,1.5,3.4,3.4L10.9,8.1z M8.1,14.4l0,2.3l-0.8,0l0-2.3
			c-0.5-0.2-0.8-0.6-0.8-1.1C6.5,12.6,7,12,7.7,12c0.7,0,1.2,0.5,1.2,1.2C8.9,13.8,8.6,14.2,8.1,14.4z M13.4,8.1l-0.5,0l0-2.7
			c0-3-2.4-5.4-5.4-5.4C4.5,0,2,2.4,2,5.4l0,2.7H1.9C0.8,8.1,0,9,0,10l0,8.1c0,1,0.8,1.9,1.9,1.9l11.6,0c1,0,1.9-0.8,1.9-1.9l0-8.1
			C15.3,9,14.4,8.1,13.4,8.1z"/>
	</defs>
	<use xlink:href="#SVGID_1_"  style="overflow:visible;fill:#1D1D1B;"/>
	<clipPath id="SVGID_2_">
		<use xlink:href="#SVGID_1_"  style="overflow:visible;"/>
	</clipPath>
</g>
</svg>
