<?xml version="1.0" encoding="utf-8"?>
<!-- Generator: Adobe Illustrator 22.1.0, SVG Export Plug-In . SVG Version: 6.00 Build 0)  -->
<svg version="1.1" id="Layer_1" xmlns="http://www.w3.org/2000/svg" xmlns:xlink="http://www.w3.org/1999/xlink" x="0px" y="0px"
	 viewBox="0 0 19.7 20" style="enable-background:new 0 0 19.7 20;" xml:space="preserve">
<g>
	<defs>
		<path id="SVGID_1_" d="M19.7,18.3c0-0.6-0.2-2-0.4-2.6c-0.3-0.8-0.7-1.2-1.1-1.5c-0.2-0.2-1.1-0.5-2.3-0.9
			c-1.1-0.4-2.4-0.9-2.9-1.2c-0.4-0.2-0.7-1.3-0.7-1.7c0,0,0-0.1,0.3-0.4c0.5-0.5,1.2-1.6,1.4-2.6c0.4-1.4,0.6-4.2-0.6-5.9
			c-0.7-1-1.9-1.5-3.3-1.5L9.8,0l0,0c-1.5,0-2.6,0.6-3.3,1.5C5.2,3.3,5.4,6,5.8,7.4c0.3,1,0.9,2,1.4,2.6c0,0,0,0,0,0c0,0,0,0,0,0
			c0.1,0.1,0.2,0.3,0.3,0.4c0.1,0.4-0.3,1.4-0.7,1.7c-0.5,0.3-1.8,0.8-2.9,1.2c-1.3,0.5-2.1,0.8-2.3,0.9c-0.5,0.3-0.8,0.7-1.1,1.5
			C0.2,16.4,0,17.8,0,18.3l0,0.2l0.1,0.1c0.3,0.3,2,1.4,9.7,1.4c7.6,0,9.4-1.1,9.7-1.4l0.1-0.1L19.7,18.3z"/>
	</defs>
	<use xlink:href="#SVGID_1_"  style="overflow:visible;"/>
	<clipPath id="SVGID_2_">
		<use xlink:href="#SVGID_1_"  style="overflow:visible;"/>
	</clipPath>
</g>
</svg>
