<svg xmlns="http://www.w3.org/2000/svg" width="13" height="11">
    <g fill="#4452FC" fill-opacity=".25" fill-rule="nonzero">
        <path d="M8.65 6.07a2.27 2.27 0 0 0-2.15.61s-.87-.95-2.15-.6C2.6 6.53 2.05 9.73 0 8.97c0 0 .44 2 2.97 2.02 2.52.03 3.53-2.3 3.53-2.3s1 2.33 3.53 2.3C12.56 10.97 13 8.97 13 8.97c-2.05.77-2.61-2.43-4.35-2.9zM3.47 5c1.3 0 2.37-1.03 2.45-2.33.38-.12.78-.12 1.16 0A2.48 2.48 0 0 0 9.53 5 2.49 2.49 0 0 0 12 2.5C12 1.12 10.9 0 9.53 0 8.3 0 7.3.92 7.1 2.11c-.4-.1-.8-.1-1.2 0A2.48 2.48 0 0 0 3.47 0 2.49 2.49 0 0 0 1 2.5C1 3.88 2.1 5 3.47 5zM9.53.55c1.07 0 1.93.87 1.93 1.95s-.86 1.95-1.93 1.95A1.94 1.94 0 0 1 7.61 2.5c0-1.08.86-1.95 1.92-1.95zm-6.06 0c1.06 0 1.92.87 1.92 1.95s-.86 1.95-1.92 1.95A1.94 1.94 0 0 1 1.54 2.5c0-1.08.86-1.95 1.93-1.95z"/>
    </g>
</svg>