<svg xmlns="http://www.w3.org/2000/svg" width="20" height="18" viewBox="0 0 20 18">
    <g fill="none" fill-rule="evenodd">
        <path fill="#FFF" fill-rule="nonzero" d="M4.347 0v.548h-1.19C1.706.548.528 1.776.528 3.29v10.42c0 1.514 1.178 2.742 2.63 2.742l1.19-.001V17h-1.19C1.415 17 0 15.527 0 13.71V3.29C0 1.473 1.414 0 3.158 0h1.189zm12.495 0C18.586 0 20 1.473 20 3.29v10.42c0 1.817-1.414 3.29-3.158 3.29h-1.19v-.549h1.19c1.453 0 2.632-1.227 2.632-2.741V3.29c0-1.514-1.179-2.742-2.632-2.742h-1.19V0h1.19z"/>
        <path fill="#7A798C" fill-rule="nonzero" d="M5.347 0v1.78H3.88c-1.3 0-2.354 1.115-2.354 2.49v9.46c0 1.375 1.054 2.49 2.354 2.49l1.467-.001V18h-2.19C1.415 18 0 16.44 0 14.516V3.484C0 1.56 1.414 0 3.158 0h2.189zm11.495 0C18.586 0 20 1.56 20 3.484v11.032C20 16.44 18.586 18 16.842 18h-2.19v-1.781h1.468c1.3 0 2.354-1.114 2.354-2.49V4.27c0-1.375-1.054-2.49-2.354-2.49h-1.468V0h2.19z"/>
        <ellipse cx="10.111" cy="9" fill="#7A798C" rx="4.111" ry="4"/>
    </g>
</svg>
