<svg xmlns="http://www.w3.org/2000/svg" width="18" height="20" viewBox="0 0 18 20">
    <g fill="#FFF" fill-rule="nonzero" stroke="#FFF" stroke-width=".3">
        <path d="M5.351 13.374a.75.75 0 0 0-.287 1.02l.638 1.141a.83.83 0 0 1 .088.155 6.052 6.052 0 0 1-4.1-6.434A6.09 6.09 0 0 1 5.45 4.284a.668.668 0 0 0-.503-1.236 7.423 7.423 0 0 0-4.585 6.06 7.385 7.385 0 0 0 5.079 7.879.305.305 0 0 1-.065.028l-1.248.7a.75.75 0 0 0 .733 1.307l2.781-1.558a.746.746 0 0 0 .287-1.02l-1.558-2.782a.75.75 0 0 0-1.02-.288zm1.24 3.206a.348.348 0 0 0 .005-.025c.007.01.005.018-.005.025zM12.738.987L9.957 2.545a.75.75 0 0 0-.287 1.02l1.558 2.783a.75.75 0 0 0 1.308-.733l-.638-1.14a.737.737 0 0 1-.08-.142 6.053 6.053 0 0 1 4.056 6.42 6.09 6.09 0 0 1-3.762 4.972.668.668 0 0 0 .503 1.236 7.423 7.423 0 0 0 4.585-6.06 7.384 7.384 0 0 0-5.056-7.87.336.336 0 0 1 .08-.036l1.248-.7a.75.75 0 0 0-.734-1.308z"/>
    </g>
</svg>
