<?xml version="1.0" encoding="UTF-8"?>
<svg width="24px" height="24px" viewBox="0 0 24 24" version="1.1" xmlns="http://www.w3.org/2000/svg" xmlns:xlink="http://www.w3.org/1999/xlink">
    <!-- Generator: sketchtool 49.3 (51167) - http://www.bohemiancoding.com/sketch -->
    <title>0C1C18C2-B822-4399-A271-4BD82231E031</title>
    <desc>Created with sketchtool.</desc>
    <defs></defs>
    <g id="Header" stroke="none" stroke-width="1" fill="none" fill-rule="evenodd">
        <g id="Reg-header-web" transform="translate(-1220.000000, -24.000000)" fill="#FFFFFF" fill-rule="nonzero">
            <g id="Group" transform="translate(1220.000000, 24.000000)">
                <path d="M15.85,2.3 L21.7,8.15 C23.7,3.95 24,0 24,0 C24,0 20.05,0.3 15.85,2.3 Z" id="Shape"></path>
                <path d="M3.95,15.45 L8.55,20.05 C12.4,18.75 18.5,14.3 21.25,9 L15,2.75 C9.85,5.45 5.3,11.45 3.95,15.45 Z M16.95,9.8 C16.95,11.3 15.75,12.5 14.25,12.5 C12.75,12.5 11.5,11.3 11.5,9.8 C11.5,8.3 12.7,7.1 14.2,7.1 C15.7,7.1 16.95,8.3 16.95,9.8 Z" id="Shape"></path>
                <path d="M8.6,21 C8.3,22.6 8.1,24 8.1,24 C8.1,24 14,21.7 15.1,20.3 C15.85,19.35 16,18.05 15.5,17 C13.45,18.7 11.15,20.15 8.6,21 Z" id="Shape"></path>
                <path d="M7,8.5 C5.95,8.05 4.65,8.15 3.7,8.9 C2.3,10 0,15.9 0,15.9 C0,15.9 1.4,15.7 3,15.4 C3.85,12.85 5.25,10.65 7,8.5 Z" id="Shape"></path>
                <path d="M4.05,17.4 C3.55,16.9 2.65,17 2,17.6 C1.35,18.2 0.6,20.8 0.6,20.8 C0.6,20.8 1.2,20.6 1.9,20.35 C1.35,21.3 0.8,23.15 0.8,23.15 C0.8,23.15 2.65,22.6 3.6,22.05 C3.35,22.75 3.15,23.35 3.15,23.35 C3.15,23.35 5.75,22.55 6.35,21.95 C6.95,21.35 7.05,20.4 6.55,19.9 L4.05,17.4 Z" id="Shape"></path>
            </g>
        </g>
    </g>
</svg>