<?xml version="1.0" encoding="UTF-8"?>
<svg width="33px" height="38px" version="1.1" xmlns="http://www.w3.org/2000/svg" xmlns:xlink="http://www.w3.org/1999/xlink">
    <!-- Generator: sketchtool 51.3 (57544) - http://www.bohemiancoding.com/sketch -->
    <title>30CCF4C6-19DE-4800-A6F9-DFE9660DDBED</title>
    <desc>Created with sketchtool.</desc>
    <defs></defs>
    
        <g id="13" transform="translate(-415.000000, -170.000000)" fill="#4452FC" fill-rule="nonzero">
            <g id="Group-2" transform="translate(322.000000, 138.000000)">
                <g id="baseline-account_balance-24px-copy" transform="translate(93.000000, 32.000000)">
                    <path d="M3.44829303,16.1750776 L3.44829303,28.7556936 L8.62073256,28.7556936 L8.62073256,16.1750776 L3.44829303,16.1750776 Z M13.7931721,16.1750776 L13.7931721,28.7556936 L18.9656116,28.7556936 L18.9656116,16.1750776 L13.7931721,16.1750776 Z M0,37.7418478 L32.7587837,37.7418478 L32.7587837,32.3501553 L0,32.3501553 L0,37.7418478 Z M24.1380512,16.1750776 L24.1380512,28.7556936 L29.3104907,28.7556936 L29.3104907,16.1750776 L24.1380512,16.1750776 Z M16.3793919,0 L0,8.98615424 L0,12.5806159 L32.7587837,12.5806159 L32.7587837,8.98615424 L16.3793919,0 Z" id="Shape"></path>
                </g>
            </g>
        </g>
</svg>