<svg xmlns="http://www.w3.org/2000/svg" width="17" height="17" viewBox="0 0 17 17">
    <path  fill-rule="nonzero" d="M15.33 8.5c0-.927.743-1.67 1.67-1.762a8.403 8.403 0 0 0-1.236-2.967 1.88 1.88 0 0 1-2.442-.155c-.68-.649-.711-1.7-.093-2.41A9.144 9.144 0 0 0 10.355 0c-.093.896-.897 1.576-1.855 1.576S6.77.896 6.645 0c-1.05.216-2.009.65-2.874 1.205.618.711.587 1.731-.093 2.411-.68.65-1.7.68-2.442.155C.65 4.667.247 5.656 0 6.738c.927.093 1.67.835 1.67 1.762S.926 10.17 0 10.262a8.403 8.403 0 0 0 1.236 2.967 1.88 1.88 0 0 1 2.442.155c.68.649.711 1.7.093 2.41A9.144 9.144 0 0 0 6.645 17c.093-.896.897-1.576 1.855-1.576s1.73.68 1.855 1.576c1.05-.216 2.009-.65 2.874-1.205-.618-.711-.587-1.731.093-2.411.68-.65 1.7-.68 2.442-.155.587-.896.989-1.885 1.236-2.967-.927-.093-1.67-.835-1.67-1.762zM8.5 12A3.51 3.51 0 0 1 5 8.5 3.51 3.51 0 0 1 8.5 5 3.51 3.51 0 0 1 12 8.5 3.51 3.51 0 0 1 8.5 12z"/>
</svg>
