<svg xmlns="http://www.w3.org/2000/svg" width="32" height="32" viewBox="0 0 32 32">
    <g fill="none" fill-rule="nonzero">
        <circle cx="15.886" cy="15.886" r="15.886" fill="#55ACEE"/>
        <path fill="#F1F2F2" d="M25.617 11.417a7.576 7.576 0 0 1-2.18.597 3.808 3.808 0 0 0 1.67-2.1 7.602 7.602 0 0 1-2.412.921 3.798 3.798 0 0 0-6.47 3.464 10.78 10.78 0 0 1-7.828-3.968 3.797 3.797 0 0 0 1.175 5.07 3.77 3.77 0 0 1-1.72-.476v.048a3.8 3.8 0 0 0 3.046 3.723 3.784 3.784 0 0 1-1.715.066 3.801 3.801 0 0 0 3.548 2.637 7.619 7.619 0 0 1-5.622 1.572 10.74 10.74 0 0 0 5.82 1.707c6.985 0 10.804-5.786 10.804-10.805 0-.164-.003-.328-.01-.49a7.7 7.7 0 0 0 1.894-1.966z"/>
    </g>
</svg>
