<svg xmlns="http://www.w3.org/2000/svg" width="32" height="32" viewBox="0 0 32 32">
    <g fill="none" fill-rule="nonzero">
        <circle cx="16" cy="16" r="16" fill="#FF2800"/>
        <path fill="#EA0A0A" d="M25.988 9.217H5.972l7.252 7.55 2.092 2.119c-1.138-.26-1.209-.423-1.713-.835-.265-.216-.776-.803-1.553-1.596L5.514 9.78v12.427l.516.516-.058.06 9.195 9.196c.276.014.554.021.833.021 8.837 0 16-7.163 16-16 0-.265-.007-.53-.02-.791l-5.992-5.992z"/>
        <g fill="#FFF">
            <path d="M5.514 9.78v12.427l6.06-6.239zM26.486 9.78v12.427l-6.03-6.214zM5.972 9.217h20.016l-7.866 8.19a2.97 2.97 0 0 1-4.283 0l-7.867-8.19z"/>
            <path d="M18.576 17.843a3.616 3.616 0 0 1-2.596 1.106c-.974 0-1.92-.403-2.595-1.105l-1.334-1.39-6.079 6.33h20.016l-6.078-6.33-1.334 1.39z"/>
        </g>
    </g>
</svg>
