<svg xmlns="http://www.w3.org/2000/svg" width="18" height="15" viewBox="0 0 18 15">
    <path fill="#FFF" d="M15.882 0H1.588C.711 0 0 .711 0 1.588v2.383h1.588V1.588h14.294v11.118h-5.558v1.588h5.558c.878 0 1.589-.711 1.589-1.588V1.588C17.47.711 16.76 0 15.882 0zM0 11.912v2.382h2.382c.001-.632-.25-1.238-.696-1.685-.447-.447-1.054-.698-1.686-.697zm0-3.177v1.589c2.193 0 3.97 1.777 3.97 3.97H5.56c0-1.475-.584-2.89-1.627-3.932C2.889 9.32 1.475 8.734 0 8.735zM0 5.56v1.588c3.947 0 7.146 3.2 7.147 7.147h1.588c0-2.317-.92-4.538-2.558-6.177C4.539 6.48 2.317 5.56 0 5.56z"/>
</svg>
