<svg xmlns="http://www.w3.org/2000/svg" viewBox="0 0 224 224">
    <g fill="none" stroke-miterlimit="10" font-family="none" font-size="none" font-weight="none" style="mix-blend-mode:normal" text-anchor="none">
        <path fill="#fff" d="M196 58.005c-6.18 2.735-12.815 4.557-19.815 5.414 7.11-4.229 12.596-10.974 15.167-18.94-6.672 3.92-14.055 6.781-21.894 8.294C163.188 46.12 154.237 42 144.32 42c-19.03 0-34.471 15.294-34.471 34.161 0 2.662.31 5.269.893 7.784-28.638-1.422-54.05-15.039-71.039-35.71-2.99 5.049-4.667 10.955-4.667 17.208 0 11.849 6.07 22.294 15.331 28.437-5.65-.164-10.974-1.75-15.622-4.265v.4c0 16.57 11.885 30.37 27.635 33.524a34.5 34.5 0 0 1-9.06 1.221c-2.224 0-4.393-.255-6.49-.638 4.376 13.545 17.1 23.443 32.193 23.735-11.812 9.15-26.669 14.638-42.82 14.638-2.789 0-5.523-.164-8.221-.492 15.276 9.661 33.396 15.33 52.846 15.33 63.401 0 98.091-52.062 98.091-97.234 0-1.477-.054-2.953-.127-4.393A68.197 68.197 0 0 0 196 58.006"/>
    </g>
</svg>