<svg xmlns="http://www.w3.org/2000/svg" width="24" height="22">
    <g fill="none" fill-rule="evenodd">
        <path fill="#FFF" fill-rule="nonzero" d="M22.248.244L.934 9.115s-1.008.367-.93 1.042c.08.678.903.987.903.987l5.363 1.915s1.619 5.632 1.938 6.703c.318 1.069.574 1.093.574 1.093.296.137.566-.08.566-.08l3.465-3.35 5.4 4.391c1.46.677 1.993-.732 1.993-.732L24 .78c0-1.352-1.752-.536-1.752-.536zm-3.773 19.207l-5.778-4.698-1.793 1.733.394-3.686L19 5.5 8.502 11.732l-4.656-1.661 17.766-7.395-3.137 16.775z"/>
    </g>
</svg>