<svg xmlns="http://www.w3.org/2000/svg" width="30" height="21">
    <path fill="#FFF" fill-rule="nonzero" d="M17.015 0c1.367 0 2.56.507 3.578 1.521.058.06.115.09.175.09h.057A10.982 10.982 0 0 0 23.501.598c.03-.03.32-.18.378-.209a5.256 5.256 0 0 1-2.181 2.832c.494-.059.96-.149 1.425-.267.466-.12.93-.299 1.424-.507a8.592 8.592 0 0 1-.727.984 10.845 10.845 0 0 1-1.687 1.61c-.058.059-.087.089-.087.179v.894c-.115 3.545-1.308 6.705-3.547 9.447-1.833 2.177-4.102 3.667-6.835 4.412a15.43 15.43 0 0 1-2.56.478H6.661c-.697 0-1.366-.119-2.036-.268-1.629-.359-3.113-.985-4.538-1.88L0 18.214c.378.031.727.06 1.105.06.931 0 1.891-.119 2.793-.388a9.368 9.368 0 0 0 3.49-1.818c-2.297-.209-3.868-1.401-4.683-3.578.29.06.611.06.902.06.436 0 .902-.06 1.339-.18-1.164-.267-2.124-.894-2.88-1.848C1.31 9.568.962 8.465.962 7.211c.698.389 1.454.627 2.24.627-1.077-.804-1.775-1.819-2.066-3.13-.29-1.311-.088-2.564.552-3.757.088.09.145.15.203.24C4.014 3.723 6.66 5.332 9.86 6.05c.697.149 1.366.238 2.065.298H12.042c.058 0 .058-.03.058-.12a5.467 5.467 0 0 1-.088-1.37c.088-1.461.67-2.654 1.745-3.609.785-.714 1.687-1.133 2.734-1.222.117.003.32-.027.524-.027z"/>
</svg>