<svg xmlns="http://www.w3.org/2000/svg" width="14" height="25">
    <g fill="none" fill-rule="evenodd">
        <path fill="#FFF" fill-rule="nonzero" d="M13.473.005L10.114 0c-3.772 0-6.21 2.415-6.21 6.152V8.99H.528A.52.52 0 0 0 0 9.5v4.11c0 .282.237.51.528.51h3.377V24.49c0 .281.236.51.528.51h4.405a.52.52 0 0 0 .528-.51V14.12h3.947a.52.52 0 0 0 .528-.51l.002-4.11a.501.501 0 0 0-.155-.361.538.538 0 0 0-.373-.15h-3.95V6.585c0-1.156.285-1.742 1.845-1.742l2.262-.001a.52.52 0 0 0 .528-.51V.515a.52.52 0 0 0-.527-.51z"/>
    </g>
</svg>