<svg xmlns="http://www.w3.org/2000/svg" viewBox="0 0 50 35"  stroke="#00000">
    <g  >
        <path class= "spread" d="M39.8 15.15s-.07-.03 0 0l-5.63-2.03c-.45-.17-.86.02-1 .39-.14.36.14.75.5.89l5.57 2c.44.17.86-.03 1-.4.19-.27-.07-.71-.43-.85zM32.63 10.78a.7.7 0 0 0 .57-.02l3.83-1.66a.8.8 0 0 0 .4-1.05.84.84 0 0 0-1.06-.41l-3.76 1.7a.8.8 0 0 0-.4 1.04c.09.2.27.35.42.4zM30.53 7.57c.06.02.06.02 0 0 .36.14.72-.06.95-.47l2.22-5.43c.17-.44.04-.82-.3-1.03-.37-.14-.72.05-.95.47L30.2 6.6c-.14.36.02.84.33.96z"/>
        <path   fill-opacity=".87" d="M27.34 2.55c-.02-.17-.04-.34-.15-.46l-.5-1a1.74 1.74 0 0 0-1.36-1.1 1.5 1.5 0 0 0-1.45.42L5.85 17.13l-.04-.1a1.54 1.54 0 0 0-2.04-.78l-2.04.91a1.55 1.55 0 0 0-.79 2.05L4.7 27.7c.17.39.47.66.9.82.34.14.82.16 1.2-.02l2.05-.91c.4-.17.67-.47.83-.9.16-.42.16-.83-.01-1.22l-.05-.1 5.37-.53 1.73 3.9c.3.69.87 1.31 1.64 1.6.77.3 1.51.27 2.3-.08l4.08-1.83c.68-.3 1.3-.88 1.6-1.65.3-.78.3-1.6-.08-2.3l-.26-.59 8.12-.77c.5-.05.94-.36 1.27-.8.3-.54.37-1.16.1-1.74L27.35 2.55zm-2.95 24.4l-4.14 1.94c-.7.32-1.54 0-1.91-.73l-1.5-3.51 7.87-.84.47 1.1c.17.4.13.72-.02 1.09-.2.5-.47.82-.77.96zM7.95 25.62l.26.6-2.07.92-3.82-8.59 2.07-.92.27.6 3.3 7.4zm25.4-4.18l-24.82 2.6-1.13-2.65 1.76-1.7c.35-.27.3-.78.04-1.13-.26-.35-.76-.3-1.1-.02l-1.4 1.35-.46-1.08 18.5-17.47c.06.02.13.05.22.25l.33.78-14.71 13.85c-.35.28-.3.79-.04 1.13.04.1.18.15.32.2.28.11.54.05.79-.18l14.34-13.5 7.4 17.26c.04.1-.02.24-.04.3z"/>
    </g>
</svg>