<svg xmlns="http://www.w3.org/2000/svg" width="14" height="14"><path fill="#000" fill-opacity=".87" fill-rule="nonzero" d="M13.9793 5.57083c-.05396-.16863-.21163-.28078-.38617-.28078H8.8503L7.3849.78077C7.33093.61214 7.17326.5 6.99872.5c-.17706 0-.33221.11467-.38618.28077L5.1463 5.28833H.40605c-.17706 0-.3322.11466-.38617.28077-.05396.16863.00422.3516.14671.45531l3.83562 2.7866-1.46542 4.50927c-.05396.16863.00422.3516.14671.45531.1425.10371.33642.10371.47893 0l3.83561-2.7866 3.83562 2.7866c.07082.05144.15514.07757.23946.07757s.16863-.02613.23946-.07757c.1425-.1037.2032-.28666.14671-.4553L9.99388 8.811l3.83562-2.7866c.14502-.1037.20573-.2875.15008-.45363l-.00028.00005z"/></svg>