<svg xmlns="http://www.w3.org/2000/svg" viewBox="0.7 2.6 20.5 16.8">
    <g>
        <path fill="none" d="M0 0L22 0 22 22 0 22z"/>
        <path fill="none" d="M0 0L22 0 22 22 0 22z"/>
        <path d="M19.25 2.75H2.75c-1.008 0-1.833.825-1.833 1.833v2.75H2.75v-2.75h16.5v12.834h-6.417v1.833h6.417c1.008 0 1.833-.825 1.833-1.833V4.583c0-1.008-.825-1.833-1.833-1.833z"/>
        <path d="M7.713 11L5.042 13.671 2.371 11 0.917 12.454 3.588 15.125 0.917 17.796 2.371 19.25 5.042 16.579 7.713 19.25 9.167 17.796 6.496 15.125 9.167 12.454z"/>
    </g>
</svg>
