<svg xmlns="http://www.w3.org/2000/svg" width="16" height="16"><path fill="#000" fill-rule="nonzero" d="M13.01673 10.07155H11.0279V5.92938h1.98884C14.66181 5.92938 16 4.59952 16 2.96469S14.6618 0 13.01673 0s-2.98326 1.32986-2.98326 2.96469v1.97646H5.96653V2.96469C5.96653 1.32986 4.62833 0 2.98327 0 1.33819 0 0 1.32986 0 2.96469c0 1.5798 1.25078 2.87106 2.81919 2.95703v.00772h2.15297v4.14118H2.98332c-1.64508 0-2.98327 1.32986-2.98327 2.96469S1.33825 16 2.98332 16s2.98326-1.32986 2.98326-2.96469v-1.97646h4.06594v1.97646c0 1.63483 1.3382 2.96469 2.98327 2.96469s2.98327-1.32986 2.98327-2.96469c0-1.63387-1.33723-2.9637-2.98228-2.9637l-.00005-.00006zm-1.98884-6.8934c.00583-.0058.00874-.01351.01457-.0193-.0068-.0637-.01457-.12836-.01457-.19398 0-1.08958.89244-1.97646 1.98884-1.97646s1.98885.88688 1.98885 1.97646c0 1.08957-.89148 1.9755-1.9869 1.97646l-.00195.00193v-.00193H11.0279V3.17815zm-8.1468 1.76317l-.01165-.00579C1.82646 4.87666.9942 4.01678.9942 2.96485c0-1.08957.89245-1.97646 1.98885-1.97646s1.98884.8869 1.98884 1.97646c0 .01834-.00194.03668-.00388.05501.00194.0029.00194.0058.00388.00869v1.9118l-2.0908.00097zm.10197 10.07155c-1.0964 0-1.98885-.88689-1.98885-1.97646 0-1.08957.89245-1.97646 1.98885-1.97646.06798 0 .13401.00579.20005.01351.0068-.00482.01554-.00869.02233-.01351h1.76647v1.65993c-.00486.03378-.0068.06755-.01457.10037.00874.07045.01457.14283.01457.21617 0 1.08957-.89148 1.97646-1.98884 1.97646l-.00001-.00001zm2.98326-4.94115V5.92955h4.06595v4.14118l-4.06595.00099zm7.0502 4.94115c-1.0964 0-1.98884-.88689-1.98884-1.97646 0-.01448.00291-.02702.00291-.0415-.00097-.00193-.00194-.00482-.0029-.00579v-1.9282h1.87716c.00486.00289.00874.00482.0136.00771.03301-.0029.06506-.00772.09808-.00772 1.0964 0 1.98884.88689 1.98884 1.97646 0 1.08859-.89244 1.9755-1.98884 1.9755z" opacity=".54"/></svg>