<?xml version="1.0" encoding="utf-8"?>
<!-- Generator: Adobe Illustrator 22.1.0, SVG Export Plug-In . SVG Version: 6.00 Build 0)  -->
<svg version="1.1" id="Layer_1" xmlns="http://www.w3.org/2000/svg" xmlns:xlink="http://www.w3.org/1999/xlink" x="0px" y="0px"
	 viewBox="0 0 16 19.6" style="enable-background:new 0 0 16 19.6;" xml:space="preserve">
<g>
	<g>
		<defs>
			<path id="SVGID_1_" d="M11.1,4.8h4.6c0,0,0,0,0,0l-4.6-4.3V4.8z"/>
		</defs>
		<use xlink:href="#SVGID_1_"  style="overflow:visible;"/>
		<clipPath id="SVGID_2_">
			<use xlink:href="#SVGID_1_"  style="overflow:visible;"/>
		</clipPath>
	</g>
	<g>
		<defs>
			<path id="SVGID_3_" d="M11.6,11.9H4.3c-0.6,0-1-0.4-1-0.8c0-0.5,0.5-0.8,1-0.8h7.4c0.6,0,1,0.4,1,0.8
				C12.7,11.5,12.2,11.9,11.6,11.9z M11.6,15.8H4.3c-0.6,0-1-0.4-1-0.8c0-0.5,0.5-0.8,1-0.8h7.4c0.6,0,1,0.4,1,0.8
				C12.7,15.4,12.2,15.8,11.6,15.8z M10.2,6.4C9.8,6.4,9.4,6,9.4,5.6V0H0.8C0.4,0,0,0.4,0,0.8v18c0,0.5,0.4,0.8,0.8,0.8h14.3
				c0.5,0,0.8-0.4,0.8-0.8V6.4H10.2z"/>
		</defs>
		<use xlink:href="#SVGID_3_"  style="overflow:visible;"/>
		<clipPath id="SVGID_4_">
			<use xlink:href="#SVGID_3_"  style="overflow:visible;"/>
		</clipPath>
	</g>
</g>
</svg>
