<svg xmlns="http://www.w3.org/2000/svg" width="35" height="35">
    <g fill="none" fill-rule="evenodd" opacity=".25">
        <path fill="#000" fill-rule="nonzero" d="M28.64 1H8.54a2.37 2.37 0 0 0-2.36 2.36v1.18C5.48 4.54 5 5 5 5.7c0 .71.47 1.18 1.18 1.18v2.36c-.7 0-1.18.47-1.18 1.18 0 .7.47 1.18 1.18 1.18v2.35c-.7 0-1.18.48-1.18 1.18 0 .71.47 1.18 1.18 1.18v2.36c-.7 0-1.18.47-1.18 1.18 0 .7.47 1.18 1.18 1.18v2.35c-.7 0-1.18.47-1.18 1.18 0 .7.47 1.18 1.18 1.18v2.36c-.7 0-1.18.47-1.18 1.18 0 .7.47 1.17 1.18 1.17v1.18c0 1.3 1.07 2.36 2.37 2.36h20.09c1.3 0 2.36-1.06 2.36-2.36V3.36C31 2.06 29.94 1 28.64 1zM8.54 32.82c-.7 0-1.18-.47-1.18-1.18v-1.18h2.37v-2.35H7.36v-2.36h2.37v-2.36H7.36v-2.35h2.37v-2.36H7.36v-2.36h2.37v-2.36H7.36v-2.35h2.37V9.25H7.36V6.89h2.37V4.54H7.36V3.36c0-.71.48-1.18 1.19-1.18h3.54v30.64H8.55zm21.28-1.18c0 .71-.47 1.18-1.18 1.18H13.27V2.18h15.37c.7 0 1.18.47 1.18 1.18v28.28z"/>
        <path fill="#000" fill-rule="nonzero" d="M25.8 8.25v2.5h-9.6v-2.5h9.6zm0-1.25h-9.6c-.72 0-1.2.5-1.2 1.25v2.5c0 .75.48 1.25 1.2 1.25h9.6c.72 0 1.2-.5 1.2-1.25v-2.5C27 7.5 26.52 7 25.8 7z"/>
    </g>
</svg>