<?xml version="1.0" encoding="UTF-8"?>
<svg width="24px" height="19px" viewBox="0 0 24 19" version="1.1" xmlns="http://www.w3.org/2000/svg" xmlns:xlink="http://www.w3.org/1999/xlink">
    <path d="M23.20128,1.06907594 C22.8648,1.06907594 22.54896,1.07245603 22.23264,1.08066484 L22.23264,0 L21.88032,0 C15.03456,0 12.73968,1.64707228 11.99952,2.53603741 C11.25936,1.64707228 8.96448,0 2.11872,0 L1.7664,0 L1.7664,1.08018197 C1.45056,1.07149029 1.13472,1.06907594 0.79872,1.06907594 L0,1.06907594 L0,16.6899461 L0.79872,16.6899461 C9.24432,16.6899461 10.968,18.6383298 11.21376,19 L12.79872,19 C13.06608,18.6214293 14.82336,16.6899461 23.20176,16.6899461 L24,16.6899461 L24,1.06907594 L23.20128,1.06907594 Z M11.47152,15.9854376 C10.29216,15.1104758 7.81824,14.0954813 2.64768,14.0278794 L2.64768,0.892828098 C9.88944,0.986505032 11.28816,2.98221002 11.47152,3.30718207 L11.47152,15.9854376 Z M21.35232,14.0278794 C16.18176,14.0954813 13.70784,15.10951 12.52848,15.9854376 L12.52848,3.3115279 C12.72816,2.95565213 14.16624,0.986987903 21.35232,0.89379384 L21.35232,14.0278794 Z" id="textbooks"></path>
</svg>