<svg xmlns="http://www.w3.org/2000/svg" width="27" height="34">
    <g fill="#000" fill-rule="nonzero" opacity=".25">
        <path d="M24.353 0h-20.7a2.44 2.44 0 0 0-2.435 2.429v1.214C.488 3.643 0 4.129 0 4.857c0 .729.487 1.214 1.218 1.214V8.5C.488 8.5 0 8.986 0 9.714c0 .729.487 1.215 1.218 1.215v2.428c-.73 0-1.218.486-1.218 1.214 0 .729.487 1.215 1.218 1.215v2.428C.488 18.214 0 18.7 0 19.43c0 .728.487 1.214 1.218 1.214v2.428c-.73 0-1.218.486-1.218 1.215 0 .728.487 1.214 1.218 1.214v2.429c-.73 0-1.218.485-1.218 1.214 0 .728.487 1.214 1.218 1.214v1.214A2.44 2.44 0 0 0 3.653 34h20.7a2.44 2.44 0 0 0 2.435-2.429V2.43A2.44 2.44 0 0 0 24.353 0zm-20.7 32.786c-.73 0-1.218-.486-1.218-1.215v-1.214h2.436V27.93H2.435V25.5h2.436v-2.429H2.435v-2.428h2.436v-2.429H2.435v-2.428h2.436v-2.429H2.435V10.93h2.436V8.5H2.435V6.071h2.436V3.643H2.435V2.429c0-.729.487-1.215 1.218-1.215h3.653v31.572H3.653zM25.57 31.57c0 .729-.487 1.215-1.217 1.215H8.523V1.214h15.83c.73 0 1.217.486 1.217 1.215V31.57z"/>
        <path d="M21.43 7.47v2.575h-9.89V7.47h9.89zm0-1.288h-9.89c-.742 0-1.237.515-1.237 1.288v2.575c0 .773.495 1.288 1.236 1.288h9.891c.742 0 1.237-.515 1.237-1.288V7.47c0-.773-.495-1.288-1.237-1.288z"/>
    </g>
</svg>