<?xml version="1.0" encoding="UTF-8"?>
<svg width="16px" height="22px" viewBox="0 0 16 22" version="1.1" xmlns="http://www.w3.org/2000/svg" xmlns:xlink="http://www.w3.org/1999/xlink">
    <!-- Generator: sketchtool 50.2 (55047) - http://www.bohemiancoding.com/sketch -->
    <title>0D78FE0A-05BB-4E14-84DC-077E5309CF1B</title>
    <desc>Created with sketchtool.</desc>
    <defs></defs>
    <g id="Post-to-sell" stroke="none" stroke-width="1" fill="none" fill-rule="evenodd">
        <g id="Gallery" transform="translate(-608.000000, -365.000000)" fill="#FFFFFF">
            <path d="M614.367485,367.641829 L617.646063,367.641829 L617.646063,366.449619 L614.367485,366.449619 L614.367485,367.641829 Z M624,368.725656 C624,368.427604 623.887282,368.170195 623.661304,367.953429 C623.435597,367.745605 623.160034,367.641829 622.834886,367.641829 L619.095682,367.641829 L619.095682,366.449619 C619.095682,365.898764 618.991634,365.519424 618.784081,365.3116 C618.576257,365.103776 618.197189,365 617.646063,365 L614.367485,365 C613.392041,365 612.904318,365.483116 612.904318,366.449619 L612.904318,367.641829 L609.165114,367.641829 C608.848908,367.641829 608.577951,367.745605 608.352244,367.953429 C608.117324,368.170195 608,368.427604 608,368.725656 C608,369.03265 608.117324,369.290059 608.352244,369.497883 C608.577951,369.714649 608.848908,369.823031 609.165114,369.823031 L622.834886,369.823031 C623.160034,369.823031 623.435597,369.714649 623.661304,369.497883 C623.887282,369.290059 624,369.03265 624,368.725656 Z M611.319221,372.600339 C611.454699,372.455919 611.62188,372.383573 611.820491,372.383573 C612.019102,372.383573 612.190889,372.455919 612.335309,372.600339 C612.479729,372.735817 612.552075,372.902997 612.552075,373.101609 L613.554615,383.628281 C613.554615,383.836105 613.482269,384.007621 613.337849,384.143099 C613.202371,384.28779 613.030855,384.359865 612.823031,384.359865 C612.62442,384.359865 612.452633,384.28779 612.308213,384.143099 C612.163793,384.007621 612.091448,383.836105 612.091448,383.628281 L611.102456,373.101609 C611.102456,372.902997 611.174801,372.735817 611.319221,372.600339 Z M620.694327,372.600339 C620.839018,372.735817 620.911092,372.902997 620.911092,373.101609 L619.908552,383.628281 C619.908552,383.836105 619.836478,384.007621 619.691787,384.143099 C619.556308,384.28779 619.384793,384.359865 619.176969,384.359865 C618.978357,384.359865 618.811177,384.28779 618.675699,384.143099 C618.531008,383.998408 618.458933,383.826892 618.458933,383.628281 L619.447925,373.101609 C619.447925,372.902997 619.520271,372.735817 619.664691,372.600339 C619.809111,372.455919 619.980898,372.383573 620.179509,372.383573 C620.378391,372.383573 620.549636,372.455919 620.694327,372.600339 Z M615.275191,372.939035 C615.275191,372.740423 615.347536,372.573243 615.491956,372.437765 C615.636376,372.293345 615.808163,372.220999 616.006774,372.220999 C616.205385,372.220999 616.372566,372.293345 616.508044,372.437765 C616.652735,372.573243 616.724809,372.740423 616.724809,372.939035 L616.724809,383.790855 C616.724809,383.989467 616.652735,384.161253 616.508044,384.305673 C616.372566,384.450093 616.205385,384.522439 616.006774,384.522439 C615.808163,384.522439 615.636376,384.450093 615.491956,384.305673 C615.347536,384.170195 615.275191,383.998408 615.275191,383.790855 L615.275191,372.939035 Z M610.221846,385.064352 L610.303133,385.294666 C610.375478,385.475123 610.474649,385.642574 610.601185,385.795936 C610.989467,386.292599 611.53138,386.541067 612.226926,386.541067 L619.786622,386.541067 C620.481897,386.541067 621.02381,386.292599 621.412362,385.795936 C621.529958,385.642574 621.629128,385.475123 621.710415,385.294666 L621.778154,385.064352 L623.268417,370.64945 L608.731583,370.64945 L610.221846,385.064352 Z" id="trask-icon"></path>
        </g>
    </g>
</svg>