<?xml version="1.0" encoding="UTF-8"?>
<svg width="16px" height="22px" viewBox="0 0 16 22" version="1.1" xmlns="http://www.w3.org/2000/svg" xmlns:xlink="http://www.w3.org/1999/xlink">
    <path d="M15.9745731,6.99482107 C16.0196633,8.70880132 15.9935206,10.42619 15.9812887,12.1418745 C15.9800895,12.3456531 15.9194097,12.5718304 15.823953,12.7483411 C15.5558107,13.2423278 14.8338892,13.3382522 14.4789245,12.831362 C14.3304629,12.6197926 14.2685839,12.3889896 14.2690636,12.1231279 C14.2736206,10.7901674 14.2717018,9.45696343 14.2717018,8.12302909 C14.2717018,7.95650033 14.2764986,7.78997156 14.2697831,7.62319934 C14.2606691,7.41284722 14.2225344,7.39044861 14.0148321,7.38582281 C13.8500613,7.38144048 13.7855441,7.45788789 13.8018532,7.63220747 C13.8056907,7.67067464 13.8030525,7.71060259 13.8030525,7.74980015 C13.8030525,10.2399408 13.8030525,12.7300814 13.8030525,15.2204655 C13.8040118,15.7896822 13.8030525,16.7313975 13.8040118,17.2998838 C13.8044915,19.1336479 13.8056907,18.7270645 13.8044915,20.5605852 C13.8040118,20.7555991 13.826317,20.9676555 13.7677958,21.1434358 C13.4833444,21.9911744 12.6640474,22.2192993 12.0442982,21.7847177 C11.66439,21.5171517 11.5478272,21.0983952 11.5483069,20.6212075 C11.5519045,17.532878 11.5504655,16.3114236 11.5504655,13.2230942 C11.5504655,13.1541941 11.5535834,13.0852941 11.549746,13.0166375 C11.5382336,12.8126154 11.48331,12.7666009 11.2993519,12.762462 C11.1329023,12.759297 11.1096377,12.868125 11.1108369,13.0103074 C11.1120361,13.0981976 11.1101174,13.1865747 11.1101174,13.2747084 C11.1101174,16.3338222 11.1101174,17.5263045 11.1096377,20.5849315 C11.1096377,20.799179 11.0974058,21.0044184 11.0168192,21.2135532 C10.8395767,21.6736985 10.5289826,21.9346909 10.0905531,21.9799751 C9.60031808,22.0301285 9.20985689,21.8304887 8.96785729,21.327007 C8.83042838,21.0397206 8.85153439,20.7370959 8.85153439,20.436419 C8.85009534,15.6419001 8.85201407,12.7142563 8.85273359,7.91998086 C8.85273359,7.80238818 8.85537184,7.68406511 8.84649773,7.56695936 C8.84194075,7.51364094 8.81723712,7.42161189 8.79253349,7.41771648 C8.67165362,7.39848289 8.54118009,7.37851892 8.42701576,7.41065605 C8.38000692,7.42331613 8.34091283,7.56817668 8.33971363,7.65363223 C8.33059967,8.07482339 8.33707538,8.49674495 8.33563633,8.91793612 C8.33515665,9.16894658 8.27807448,9.38562874 8.11402322,9.58624234 C7.87370251,9.87961538 7.30815736,9.9078571 6.95439184,9.64418656 C6.17394913,9.06279667 5.39158769,8.4865195 4.60586847,7.91413775 C4.27200976,7.6716485 4.1185115,7.34126907 4.20101681,6.91350439 C4.24083043,6.70753461 4.170557,6.6052801 4.03096952,6.5057037 C3.70502556,6.27197912 3.3831589,6.03095064 3.06009303,5.7923568 C2.25758495,5.19806337 1.45483702,4.60425686 0.653288298,4.0094765 C0.478204346,3.87898028 0.304319599,3.74629288 0.135231673,3.60751892 C-0.023543089,3.47702269 -0.0348156174,3.40422722 0.0613606357,3.2717833 C0.161614186,3.13471357 0.223733013,3.13276586 0.376991431,3.24792391 C0.904641697,3.64622955 1.43325133,4.04161363 1.9621008,4.4377281 C2.66627406,4.96506918 3.37020749,5.49314065 4.07534011,6.01926442 C4.17751239,6.0952249 4.29047752,6.15414297 4.39073107,6.23278156 C4.48690732,6.30849858 4.56125804,6.30289893 4.67973951,6.26029289 C4.97282525,6.15609068 5.2683094,6.14659562 5.5424477,6.37228591 C5.84033026,6.61672287 6.15260328,6.84046546 6.46319741,7.06615576 C6.601106,7.16670602 6.63972041,7.13895123 6.65938737,6.95440619 C6.81720277,5.4848629 7.75426168,4.88350904 8.77478526,4.7016421 C9.26382112,4.61399538 9.77516219,4.67510462 10.2757104,4.66682688 C10.4061839,4.66414878 10.4759777,4.72282339 10.5428933,4.85526732 C10.7556323,5.27061537 10.9971522,5.66867755 11.2190052,6.07964326 C11.2664937,6.16631613 11.300791,6.16948115 11.3564341,6.10788498 C11.3926501,6.06722665 11.4274271,6.02413368 11.4540494,5.97592798 C11.6521581,5.6175503 11.8497871,5.25941607 12.0438185,4.89860375 C12.1268035,4.74376122 12.227057,4.65221909 12.4069378,4.66000991 C12.7554268,4.67559155 13.1051151,4.67486116 13.4533642,4.66707034 C13.8706876,4.6587926 14.2645066,4.75228243 14.6472929,4.92587162 C15.5917869,5.355584 15.9510687,6.09765953 15.9745731,6.99482107 Z M11.2621332,4.1721692 C10.2478455,4.17265613 9.3400472,3.27792922 9.35395798,2.09664625 C9.37026717,0.724975122 10.3061269,-0.0134484696 11.2323929,0.000185464178 C12.2637094,0.0150367135 13.1244988,0.781702025 13.1292956,2.0652395 C13.1796623,3.27232957 12.2471603,4.17143881 11.2621332,4.1721692 Z" id="Tutor-Copy"></path>
</svg>