<svg xmlns="http://www.w3.org/2000/svg" width="30" height="17">
    <path fill="#FFF" fill-rule="nonzero" d="M19.7321431 2.3939779c-.7258375.3213623-1.5059882.5383506-2.3250915.6359953.8355101-.5000069 1.4777443-1.291547 1.7799219-2.2347868-.7820226.4628442-1.6484745.7992035-2.5705609.980265C15.8779396.9903386 14.8257271.5 13.6614196.5c-2.2361202 0-4.0484428 1.8084186-4.0484428 4.0390304 0 .3167754.0358693.6249811.1048276.9205796-3.3645309-.1684543-6.3474926-1.7765021-8.3440894-4.2202294-.3485353.5964156-.5481426 1.2903385-.5481426 2.030653 0 1.4012223.7146885 2.637506 1.8008984 3.3618623-.6636236-.0207924-1.2878543-.2026505-1.8335745-.5051981-.0003854.0168921-.0003854.0337842-.0003854.050951 0 1.9570144 1.3954899 3.5894802 3.2474532 3.9606949-.3397812.0922887-.6974834.1416467-1.0665822.1416467-.2608853 0-.5145306-.0254893-.7617344-.0724301.5152189 1.6045595 2.0101958 2.7724232 3.7817767 2.8048891-1.3855522 1.0836503-3.1310638 1.7292865-5.0279257 1.7292865-.3267604 0-.648841-.0190345-.9654985-.0563345C1.7916214 15.8315663 3.9193904 16.5 6.205667 16.5c7.4463379 0 11.5183174-6.1548307 11.5183174-11.492632 0-.1751562-.0040191-.3492412-.0118096-.5225297.7908868-.5694431 1.477469-1.28078 2.0199683-2.0908604z"/>
</svg>