
<svg xmlns="http://www.w3.org/2000/svg" width="32" height="32">
    <path fill="#26A6D1" fill-rule="evenodd" d="M15.999.002c8.837 0 16 7.164 16 16 0 8.837-7.163 16-16 16s-16-7.163-16-16c0-8.836 7.163-16 16-16z" clip-rule="evenodd"/>
    <path fill="#fff" d="M26.002 10.781a7.964 7.964 0 0 1-2.24.597 3.815 3.815 0 0 0 1.715-2.095 7.906 7.906 0 0 1-2.477.919 3.95 3.95 0 0 0-2.846-1.194c-2.152 0-3.898 1.693-3.898 3.783 0 .297.034.586.101.863A11.184 11.184 0 0 1 8.321 9.7a3.676 3.676 0 0 0-.528 1.902c0 1.312.688 2.472 1.734 3.149a3.964 3.964 0 0 1-1.767-.474v.048c0 1.834 1.344 3.363 3.128 3.711a4.032 4.032 0 0 1-1.76.065c.496 1.504 1.936 2.598 3.643 2.628a7.971 7.971 0 0 1-4.843 1.62c-.315 0-.625-.018-.931-.053a11.283 11.283 0 0 0 5.978 1.701c7.172 0 11.094-5.768 11.094-10.768l-.011-.49a7.779 7.779 0 0 0 1.944-1.958z"/>
</svg>