<svg xmlns="http://www.w3.org/2000/svg" width="20" height="20">
    <path fill="#A5A4BF" fill-rule="nonzero" d="M10 0L5.4762504 3.6612498v16.3387494H8.33375v-7.6249997H11.6675v7.6249997h2.8574997V3.6612498L10 0zm0 5.4762498c1.1824553.000005 2.1413433.9579679 2.1424897 2.1404226.0011464 1.1824548-.9558821 2.1422752-2.1383352 2.1445732-1.182453.0022979-2.143205-.9537956-2.1466543-2.136246-.0013277-.569207.2237731-1.115574.6256778-1.518651.4019046-.403077.9476135-.6297685 1.516822-.6300988zM.9525007 9.0474996c-.2527204-.0003323-.4951856.0999134-.673886.2786139-.1787005.1787005-.2789462.4211657-.2786139.673886v9.0474997c-.0003323.2527204.0999134.4951857.2786139.6738861.1787004.1787005.4211656.2789462.673886.2786139L4.5237504 20V9.0474988l-3.5712497 8e-7zm14.5237488-8e-7V20l3.5712498-8e-7c.2527204.0003323.4951856-.0999134.673886-.2786139.1787005-.1787004.2789462-.4211657.2786139-.6738861V9.9999996c.0003323-.2527204-.0999134-.4951856-.2786139-.6738861-.1787004-.1787005-.4211656-.2789462-.673886-.2786139l-3.5712498-8e-7z"/>
</svg>