<?xml version="1.0" encoding="UTF-8"?>
<svg width="26px" height="18px" viewBox="0 0 26 18" version="1.1" xmlns="http://www.w3.org/2000/svg" xmlns:xlink="http://www.w3.org/1999/xlink">
    <!-- Generator: sketchtool 51.3 (57544) - http://www.bohemiancoding.com/sketch -->
    <title>7CF0BFD7-5CC9-4E5F-B58A-91C3150A16F2</title>
    <desc>Created with sketchtool.</desc>
    <defs></defs>
    <g id="Upload-Docs." stroke="none" stroke-width="1" fill="none" fill-rule="evenodd">
        <g id="Upload-Flow_1" transform="translate(-667.000000, -347.000000)" fill="#000000" fill-rule="nonzero">
            <g id="Group-16" transform="translate(556.000000, 331.000000)">
                <g id="Group-11" transform="translate(82.000000, 0.000000)">
                    <g id="Group-10" transform="translate(18.000000, 0.000000)">
                        <g id="Group-19" transform="translate(11.000000, 16.000000)">
                            <path d="M23.5480729,0 L2.58238035,0 C2.2609064,0 2,0.272874082 2,0.609093933 L2,16.0648525 C2,16.4010723 2.2609064,16.6739464 2.58238035,16.6739464 L23.5480729,16.6739464 C23.8695468,16.6739464 24.1304532,16.4010723 24.1304532,16.0648525 L24.1304532,0.609093933 C24.1304532,0.272874082 23.869838,0 23.5480729,0 Z M13.0649354,0.557625495 C13.2815809,0.557625495 13.4571686,0.741267316 13.4571686,0.967545712 C13.4571686,1.19382411 13.2815809,1.37746593 13.0649354,1.37746593 C12.8485811,1.37746593 12.6729934,1.19382411 12.6729934,0.967545712 C12.6729934,0.741267316 12.8485811,0.557625495 13.0649354,0.557625495 Z M23.0020913,15.2273483 L3.12836192,15.2273483 L3.12836192,1.94148691 L23.0020913,1.94148691 L23.0020913,15.2273483 Z" id="Shape"></path>
                            <path d="M0,16.6739464 L0,17.1052571 L0,17.2727117 L0,17.4401662 C0,17.6521729 0.260906396,17.8242363 0.582380347,17.8242363 L25.0842863,17.8242363 C25.4057603,17.8242363 25.6666667,17.6521729 25.6666667,17.4401662 L25.6666667,17.2727117 L25.6666667,17.1052571 L25.6666667,16.6739464 L0,16.6739464 Z M14.8306067,17.280009 L10.7824809,17.280009 L10.7824809,17.060705 L14.8303155,17.060705 L14.8303155,17.280009 L14.8306067,17.280009 Z" id="Shape"></path>
                        </g>
                    </g>
                </g>
            </g>
        </g>
    </g>
</svg>