<?xml version="1.0" encoding="UTF-8"?>
<svg width="73px" height="36px" viewBox="0 0 73 36" version="1.1" xmlns="http://www.w3.org/2000/svg" xmlns:xlink="http://www.w3.org/1999/xlink">
    <!-- Generator: sketchtool 51.3 (57544) - http://www.bohemiancoding.com/sketch -->
    <title>11489DCD-454C-4971-A6A5-294E3C2CE35C</title>
    <desc>Created with sketchtool.</desc>
    <defs>
        <path d="M6.25622231,14.919414 L65.2814999,0.0501136005 C66.1692372,-0.173519966 67.0683203,0.372306995 67.289658,1.26925224 L69.9504009,12.0515986 C70.1717386,12.9485438 69.631515,13.8569525 68.7437777,14.080586 L9.71850013,28.9498864 C8.83076278,29.17352 7.93167974,28.627693 7.71034196,27.7307478 L5.04959914,16.9484014 C4.82826136,16.0514562 5.36848495,15.1430475 6.25622231,14.919414 Z" id="path-1"></path>
        <filter x="-7.7%" y="-13.8%" width="115.4%" height="134.5%" filterUnits="objectBoundingBox" id="filter-2">
            <feOffset dx="0" dy="1" in="SourceAlpha" result="shadowOffsetOuter1"></feOffset>
            <feGaussianBlur stdDeviation="1.5" in="shadowOffsetOuter1" result="shadowBlurOuter1"></feGaussianBlur>
            <feColorMatrix values="0 0 0 0 0   0 0 0 0 0   0 0 0 0 0  0 0 0 0.266332654 0" type="matrix" in="shadowBlurOuter1"></feColorMatrix>
        </filter>
    </defs>
    <g id="Upload-Docs." stroke="none" stroke-width="1" fill="none" fill-rule="evenodd">
        <g id="Upload-Flow_1" transform="translate(-505.000000, -451.000000)">
            <g id="Rectangle-5" transform="translate(505.000000, 453.000000)">
                <g id="Group-17">
                    <g id="Group-18">
                        <path d="M1.39516952,19.6605175 L61.3700507,10.0209052 C62.2720701,9.87592592 63.1191169,10.5004456 63.2619827,11.4158089 L64.9793995,22.4195624 C65.1222654,23.3349257 64.5068498,24.1945032 63.6048305,24.3394825 L3.62994927,33.9790948 C2.72792993,34.1240741 1.88088313,33.4995544 1.7380173,32.5841911 L0.020600477,21.5804376 C-0.122265352,20.6650743 0.493150168,19.8054968 1.39516952,19.6605175 Z" id="Rectangle-5-Copy" fill-opacity="0.09" fill="#4452FC"></path>
                        <g id="Rectangle-5">
                            <use fill="black" fill-opacity="1" filter="url(#filter-2)" xlink:href="#path-1"></use>
                            <use fill="#FFFFFF" fill-rule="evenodd" xlink:href="#path-1"></use>
                        </g>
                    </g>
                </g>
            </g>
        </g>
    </g>
</svg>