<svg xmlns="http://www.w3.org/2000/svg" width="50" height="50">
    <g fill="none" fill-rule="evenodd" transform="translate(1 1)">
        <circle cx="24" cy="24" r="24" stroke="#D1D1D1"/>
        <g fill="#000" fill-rule="nonzero">
            <path d="M25.118 18.309c-.146-.088-.158-.247-.027-.355l3.503-2.862a.467.467 0 0 1 .504-.034l5.786 3.71c.145.089.156.248.023.354l-3.498 2.788a.48.48 0 0 1-.507.033l-5.784-3.634zM30.896 22.092a.458.458 0 0 0-.486-.04l-5.295 3.08c-.14.081-.155.235-.03.338l2.94 2.437a.467.467 0 0 0 .489.043l5.369-3.01c.142-.08.157-.231.032-.335l-3.02-2.513z"/>
            <path d="M24.234 26.06c-.128-.114-.234-.061-.234.117v6.628c0 .177.117.247.26.154l5.48-3.57a.655.655 0 0 0 .26-.493v-.637c0-.177-.118-.25-.263-.16l-1.613 1a.446.446 0 0 1-.497-.044l-3.393-2.995zM23.882 18.309c.146-.088.158-.247.027-.355l-3.503-2.862a.467.467 0 0 0-.503-.034l-5.787 3.71c-.145.089-.155.248-.023.354l3.499 2.788a.48.48 0 0 0 .506.033l5.784-3.634zM17.105 22.092a.457.457 0 0 1 .485-.04l5.294 3.08c.142.081.155.235.03.338l-2.94 2.437a.466.466 0 0 1-.488.043l-5.369-3.01c-.142-.08-.157-.231-.032-.335l3.02-2.513z"/>
            <path d="M23.766 26.06c.128-.114.234-.061.234.117v6.628c0 .177-.117.247-.26.154l-5.48-3.57a.656.656 0 0 1-.26-.493v-.637c0-.177.118-.25.263-.16l1.613 1c.144.09.369.07.498-.044l3.392-2.995z"/>
        </g>
    </g>
</svg>