<svg xmlns="http://www.w3.org/2000/svg" width="18" height="16"><g fill="#000" fill-rule="nonzero" opacity=".54"><path d="M1.55562 16H16.4426c.8514 0 1.55645-.73031 1.55645-1.6122L18 4.0817c0-.8819-.70505-1.6122-1.55645-1.6122h-1.92132c-.21855 0-.41334-.12599-.53497-.32776L13.37817.8819C13.1102.32776 12.57523 0 11.99181 0H6.00724c-.58342 0-1.11936.32776-1.38636.8819l-.60814 1.23425c-.09692.20177-.29171.32776-.53497.32776H1.55645C.70505 2.4439 0 3.1742 0 4.0561V14.3612c-.00095.90847.7041 1.63878 1.5555 1.63878L1.55562 16zM.97219 4.08156c0-.32776.26797-.60432.58343-.60432h1.92133c.58342 0 1.11936-.32777 1.38636-.8819l.60814-1.23425c.09692-.20177.2917-.32776.53496-.32776h5.98457c.21855 0 .41334.12598.53497.32776l.60814 1.23425c.26797.55413.80294.8819 1.38636.8819h1.92133c.31642 0 .58342.27757.58342.60432v10.30508c0 .32776-.26797.60432-.58342.60432l-14.88602.00098c-.31642 0-.58342-.27757-.58342-.60432L.97219 4.08156z"/><path d="M9 14c2.75508 0 5-2.24487 5-5s-2.24487-5-5-5C6.24492 4 4 6.24487 4 9s2.24487 5 5 5zm0-8.97842c2.19406 0 3.9797 1.78553 3.9797 3.9797 0 2.19416-1.78554 3.9797-3.9797 3.9797-2.19406 0-3.9797-1.78554-3.9797-3.9797 0-2.19417 1.78554-3.9797 3.9797-3.9797z"/></g></svg>