<svg xmlns="http://www.w3.org/2000/svg" width="50" height="50">
    <g fill="none" fill-rule="evenodd" transform="translate(1 1)">
        <circle cx="24" cy="24" r="24" stroke="#D1D1D1"/>
        <g fill="#000" fill-rule="nonzero">
            <path d="M34.548 16H13.582a.596.596 0 0 0-.582.61v15.455c0 .336.26.609.582.609h20.966a.596.596 0 0 0 .582-.61V16.61c0-.336-.26-.609-.582-.609zm-10.483.558c.217 0 .392.183.392.41 0 .226-.175.41-.392.41a.401.401 0 0 1-.392-.41c0-.227.176-.41.392-.41zm9.937 14.67H14.128V17.94h19.874v13.286zM11 32.674v.766c0 .212.26.384.582.384h24.502c.322 0 .583-.172.583-.384v-.766H11zm14.83.606h-4.048v-.22h4.048v.22z"/>
        </g>
    </g>
</svg>