<svg xmlns="http://www.w3.org/2000/svg" width="28" height="20"><path fill="#000" fill-rule="nonzero" d="M13.57128 0c2.08282 0 4.17035.79073 5.7585 2.38636 1.23226 1.23816 1.9662 2.78764 2.24306 4.39394 3.1537.51491 5.57002 3.24455 5.57002 6.55303 0 3.67425-2.97818 6.66667-6.63492 6.66667H5.73016C2.5659 20 0 17.42188 0 14.24242c0-3.09545 2.43743-5.59787 5.48527-5.72909-.08836-2.20524.6656-4.44727 2.3373-6.12697C9.40943.79191 11.48867 0 13.57143 0h-.00015zm0 1.21212c-1.77653 0-3.54365.67236-4.9008 2.036C7.1013 4.82482 6.44628 6.9651 6.69132 9.0151c.0212.17282-.03181.348-.14726.47821-.11545.13021-.28156.20478-.45591.2036H5.73c-2.51638 0-4.5238 2.01703-4.5238 4.54546 0 2.52842 2.00742 4.54545 4.5238 4.54545H20.5078c3.00526 0 5.42857-2.4349 5.42857-5.45454 0-2.85158-2.16177-5.18334-4.92914-5.43576-.28392-.02486-.51246-.24621-.54663-.5303-.17435-1.5057-.827-2.96164-1.97916-4.1194-1.35597-1.36245-3.1338-2.036-4.91015-2.036v.00031zm0 6.0606c.1614.00356.31926.07221.40527.15152l3.31746 3.0303c.2474.21662.26036.625.04712.86176-.21323.23676-.6232.25213-.85765.03788l-2.30901-2.11176v6.51516c0 .335-.26978.60606-.60318.60606-.3334 0-.60317-.27107-.60317-.60606V9.24242l-2.30901 2.11176c-.23444.21425-.63382.18703-.85766-.03788-.23208-.23319-.18849-.64866.04712-.86175l3.31746-3.0303c.13313-.12193.24504-.15152.40528-.15152h-.00003z" opacity=".54"/></svg>