<?xml version="1.0" encoding="UTF-8"?>
<svg width="21px" height="18px" viewBox="0 0 21 18" version="1.1" xmlns="http://www.w3.org/2000/svg" xmlns:xlink="http://www.w3.org/1999/xlink">
    <!-- Generator: sketchtool 51.3 (57544) - http://www.bohemiancoding.com/sketch -->
    <title>92F7C3AB-5F9E-4742-AC85-D8FEF97B690D</title>
    <desc>Created with sketchtool.</desc>
    <defs></defs>
    <g id="Upload-Docs." stroke="none" stroke-width="1" fill="none" fill-rule="evenodd">
        <g id="Upload-Flow_1" transform="translate(-573.000000, -346.000000)" fill="#000000" fill-rule="nonzero">
            <g id="Group-16" transform="translate(556.000000, 331.000000)">
                <g id="Group-14">
                    <g id="Group-9" transform="translate(3.000000, 0.000000)">
                        <g id="Group-7" transform="translate(14.000000, 15.000000)">
                            <path d="M11.1176311,3.30867287 C10.971929,3.22130562 10.9597872,3.06156312 11.0912358,2.95403418 L14.5944211,0.0915933299 C14.7258697,-0.0159356023 14.9523415,-0.0309276169 15.0975157,0.0579905386 L20.884423,3.7677387 C21.0290693,3.85665686 21.0396275,4.01588239 20.9065951,4.12186042 L17.4086889,6.90985817 C17.2756565,7.01583621 17.047601,7.03031125 16.9018989,6.942944 L11.1176311,3.30867287 Z" id="Shape"></path>
                            <path d="M16.8955898,7.09154507 C16.7701129,6.98720272 16.5518034,6.9694842 16.4100042,7.05167842 L11.1154891,10.1312546 C10.9742,10.2134488 10.9604281,10.3665171 11.0859051,10.4698751 L14.0254321,12.9071551 C14.1509091,13.0114974 14.3707488,13.0306925 14.5135681,12.950467 L19.8825533,9.94028836 C20.0253726,9.86006287 20.0401646,9.70896332 19.9146876,9.60462096 L16.8955898,7.09154507 Z" id="Shape"></path>
                            <path d="M10.2343305,11.0603362 C10.1055263,10.9462392 10,10.9988994 10,11.1766275 L10,17.8046798 C10,17.9824079 10.1174239,18.0515244 10.2601948,17.9588206 L15.7398052,14.3888988 C15.8825761,14.2956464 16,14.0740348 16,13.8963067 L16,13.2594475 C16,13.0817194 15.8815415,13.0093117 15.7367014,13.0992728 L14.1243211,14.0992678 C13.979481,14.1886804 13.7554962,14.1694814 13.626692,14.0553843 L10.2343305,11.0603362 Z" id="Shape"></path>
                            <path d="M9.88210484,3.30867287 C10.0283348,3.22130562 10.0399488,3.06156312 9.90902806,2.95403418 L6.40584281,0.0915933299 C6.27439417,-0.0159356023 6.04792243,-0.0309276169 5.90274824,0.0579905386 L0.115840964,3.7677387 C-0.0293332292,3.85665686 -0.0393634461,4.01588239 0.0931409989,4.12186042 L3.59157509,6.90985817 C3.72407954,7.01583621 3.9526629,7.03031125 4.098365,6.942944 L9.88210484,3.30867287 Z" id="Shape"></path>
                            <path d="M3.10485997,7.09154507 C3.22982442,6.98720272 3.44863973,6.9694842 3.58992607,7.05167842 L8.88433845,10.1312546 C9.02613485,10.2134488 9.03939639,10.3665171 8.91392187,10.4698751 L5.97445188,12.9071551 C5.84948742,13.0114974 5.62914194,13.0306925 5.48632542,12.950467 L0.117444427,9.94028836 C-0.0253720918,9.86006287 -0.0401638027,9.70896332 0.0853107103,9.60462096 L3.10485997,7.09154507 Z" id="Shape"></path>
                            <path d="M9.76564925,11.0603362 C9.89446456,10.9462392 10,10.9988994 10,11.1766275 L10,17.8046798 C10,17.9824079 9.88308329,18.0515244 9.74030005,17.9588206 L4.25969995,14.3888988 C4.11743404,14.2956464 4,14.0740348 4,13.8963067 L4,13.2594475 C4,13.0817194 4.1184687,13.0093117 4.26332126,13.0992728 L5.87584066,14.0992678 C6.02017589,14.1886804 6.24469736,14.1694814 6.37351267,14.0553843 L9.76564925,11.0603362 Z" id="Shape"></path>
                        </g>
                    </g>
                </g>
            </g>
        </g>
    </g>
</svg>