<svg xmlns="http://www.w3.org/2000/svg" width="19" height="13" viewBox="0 0 19 13">
    <path fill="#7A798C" d="M12.955 5.182c1.433 0 2.582-1.157 2.582-2.591C15.537 1.157 14.388 0 12.955 0c-1.434 0-2.591 1.157-2.591 2.59 0 1.435 1.157 2.592 2.59 2.592zm-6.91 0c1.434 0 2.583-1.157 2.583-2.591C8.628 1.157 7.479 0 6.045 0c-1.433 0-2.59 1.157-2.59 2.59 0 1.435 1.157 2.592 2.59 2.592zm0 1.727C4.033 6.91 0 7.92 0 9.932v2.159h12.09V9.93c0-2.011-4.032-3.022-6.045-3.022zm6.91 0c-.25 0-.536.017-.838.043 1.002.726 1.701 1.702 1.701 2.98v2.159H19V9.93c0-2.011-4.033-3.022-6.045-3.022z"/>
</svg>
