<svg width="25px" height="17px" viewBox="0 0 25 17" version="1.1" xmlns="http://www.w3.org/2000/svg" xmlns:xlink="http://www.w3.org/1999/xlink">
    <g id="Registration" stroke="none" stroke-width="1" fill="none" fill-rule="evenodd">
        <g id="Your-Username" transform="translate(-134.000000, -376.000000)" fill="#4A4A4A" fill-rule="nonzero">
            <path d="M150.310501,392.978356 L134,392.978356 L134.000017,390.744164 C133.997792,390.274097 134.211801,389.827702 134.583417,389.527263 C136.062162,388.368143 137.665063,387.367516 139.364326,386.542729 C139.415644,386.518724 139.448305,386.468258 139.448376,386.412862 L139.448376,384.876104 C139.217487,384.495842 139.059985,384.077726 138.983634,383.642368 C138.805647,383.627939 138.573276,383.385039 138.321129,382.521665 C137.977517,381.338433 138.343377,381.165277 138.652381,381.191732 C138.594713,381.03514 138.550072,380.874293 138.518892,380.710743 C138.397191,380.198022 138.397191,379.665062 138.518892,379.15234 C138.673662,378.54734 138.997,377.995606 139.45332,377.557863 C139.710764,377.291952 140.00143,377.058459 140.318531,376.862835 C140.577084,376.685607 140.860033,376.544734 141.159022,376.444375 C141.405562,376.362538 141.66269,376.314775 141.92288,376.302483 C142.586166,376.234672 143.254447,376.373628 143.831288,376.699299 C144.215873,376.892774 144.53894,377.184623 144.765716,377.543434 C144.765716,377.543434 146.31568,377.651656 145.79161,380.713148 C145.760398,380.876691 145.715758,381.037536 145.65812,381.194137 C145.967124,381.165277 146.332985,381.340838 145.989372,382.52407 C145.742169,383.387444 145.494966,383.630344 145.326868,383.644773 C145.250509,384.075597 145.092948,384.488977 144.862126,384.864079 L144.862126,386.420077 C144.862196,386.475473 144.894857,386.525939 144.946175,386.549944 C146.645101,387.372455 148.247988,388.370655 149.727084,389.527263 C150.0987,389.827702 150.312709,390.274097 150.310484,390.744164 L150.310501,392.978356 Z M149.603483,386.826512 L149.603483,387.721151 C149.604872,387.820319 149.577452,387.917853 149.524378,388.002529 C149.828438,388.221379 150.13497,388.452253 150.43903,388.695153 C151.071104,389.20725 151.43397,389.968003 151.427842,390.768213 L151.427842,393 L158.344588,393 L158.344588,390.88846 C158.285202,390.296683 157.909341,389.779274 157.355775,389.527263 C156.893438,389.303038 156.409985,389.122637 155.912108,388.988556 C155.884916,388.974126 154.347312,388.58212 153.618063,388.204544 L153.55379,388.166065 C153.399539,388.068932 153.306459,387.902314 153.306587,387.723556 L153.306587,387.040552 L153.306587,386.800058 C153.306587,386.800058 155.420174,386.862586 156.421347,385.86694 C156.421347,385.86694 154.962848,385.465315 155.224883,382.880001 C155.486919,380.294688 154.898575,378.026827 152.752851,378.219223 C152.752851,378.219223 151.828311,377.136998 149.986648,377.817597 C149.363696,378.058091 147.655522,378.649707 147.754403,382.230667 C147.853284,385.811626 146.444226,385.838081 146.444226,385.838081 C146.444226,385.838081 147.161115,386.848157 149.603483,386.826512 Z" id="Shape"></path>
        </g>
    </g>
</svg>