<?xml version="1.0" encoding="UTF-8"?>
<svg width="22px" height="18px" viewBox="0 0 22 18" version="1.1" xmlns="http://www.w3.org/2000/svg" xmlns:xlink="http://www.w3.org/1999/xlink">
    <!-- Generator: sketchtool 49.3 (51167) - http://www.bohemiancoding.com/sketch -->
    <title>EDCE7F15-9DF3-4239-A93B-CC4CF528B259</title>
    <desc>Created with sketchtool.</desc>
    <defs></defs>
    <g id="Header" stroke="none" stroke-width="1" fill="none" fill-rule="evenodd">
        <g id="Reg-header-web" transform="translate(-1107.000000, -30.000000)" fill="#3532D5">
            <g id="noun_1492935_cc" transform="translate(1107.000000, 30.000000)">
                <path d="M3.07424878e-15,18 L20.6847074,18 L20.6847074,13.6204724 L18.0679673,13.6204724 C17.5833858,13.6204724 17.1403398,13.4220472 16.8219006,13.0818898 C16.4896161,12.7559055 16.2957835,12.3023622 16.2957835,11.792126 L16.2957835,10.3322835 C16.2957835,9.83622047 16.4896161,9.38267717 16.8080554,9.04251969 C17.1403398,8.71653543 17.5833858,8.51811024 18.0679673,8.51811024 L20.6847074,8.51811024 L20.6847074,4.13858268 L0,4.13858268 L3.07424878e-15,18 Z M2.87979862,3.4015748 L17.8325991,3.4015748 L17.8325991,0 L2.87979862,3.4015748 Z M18.0679673,12.8976378 L22,12.8976378 L22,9.24094488 L18.0679673,9.24094488 C17.7772184,9.24094488 17.5141598,9.36850394 17.3203272,9.56692913 C17.1264947,9.76535433 17.001888,10.0346457 17.001888,10.3322835 L17.001888,11.792126 C17.001888,12.103937 17.1264947,12.3732283 17.3203272,12.5716535 C17.5141598,12.7700787 17.7772184,12.8976378 18.0679673,12.8976378 Z" id="Shape"></path>
            </g>
        </g>
    </g>
</svg>