<svg xmlns="http://www.w3.org/2000/svg" width="28" height="26">
    <path fill="#000" fill-opacity=".25" fill-rule="nonzero" d="M8.17 17.53c-1.74 0-3.5.57-3.5 1.68v5.1c0 1.11 1.76 1.69 3.5 1.69 1.75 0 3.51-.58 3.51-1.69v-5.1c0-1.1-1.76-1.68-3.5-1.68zm2.54 6.78c0 .19-.87.72-2.54.72-1.66 0-2.53-.53-2.53-.72v-.5c.67.32 1.6.49 2.53.49.94 0 1.87-.17 2.54-.5v.51zm0-1.7c0 .19-.87.72-2.54.72-1.66 0-2.53-.53-2.53-.72v-.5c.67.32 1.6.49 2.53.49.94 0 1.87-.17 2.54-.5v.51zm0-1.7c0 .19-.87.72-2.54.72-1.63 0-2.53-.54-2.53-.72v-.5c.67.32 1.6.49 2.53.49.94 0 1.87-.17 2.54-.5v.51zm-2.54-.98c-1.66 0-2.53-.53-2.53-.72 0-.18.9-.72 2.53-.72 1.67 0 2.54.54 2.54.72 0 .19-.87.72-2.54.72zM26.25 9.25h-1.01V5.57a2.42 2.42 0 0 0-2.42-2.42H2.28a1.09 1.09 0 0 1 0-2.18h20.05a.48.48 0 1 0 0-.97H2.28C1.14 0 .22.92.22 2.06v17.77a2.42 2.42 0 0 0 2.42 2.42h.7a.48.48 0 1 0 0-.97h-.7c-.8 0-1.45-.65-1.45-1.45V3.8c.32.2.69.31 1.09.31h20.54c.8 0 1.45.66 1.45 1.46v3.68h-4.24c-.62 0-1.13.5-1.13 1.13v4.64c0 .62.51 1.13 1.13 1.13h4.24v3.68c0 .8-.65 1.45-1.45 1.45h-9.79a.48.48 0 1 0 0 .97h9.79a2.42 2.42 0 0 0 2.42-2.42v-3.68h1c.63 0 1.14-.51 1.14-1.13v-4.64c0-.63-.51-1.13-1.13-1.13zm.16 5.77c0 .09-.07.16-.16.16h-6.22a.16.16 0 0 1-.16-.16v-4.64c0-.1.07-.17.16-.17h6.22c.09 0 .16.08.16.17v4.64zm-4.94-3.95a.48.48 0 0 0-.49.49v2.28a.48.48 0 1 0 .97 0v-2.28a.48.48 0 0 0-.48-.49zm.86-9.5H2.64a.48.48 0 1 0 0 .97h19.7a.48.48 0 1 0 0-.97z"/>
</svg>