<svg xmlns="http://www.w3.org/2000/svg" width="32" height="32">
    <g fill="none">
        <path fill="#4CAF50" d="M16.004 0h-.008C7.174 0 0 7.176 0 16c0 3.5 1.128 6.744 3.046 9.378l-1.994 5.944 6.15-1.966A15.862 15.862 0 0 0 16.004 32C24.826 32 32 24.822 32 16S24.826 0 16.004 0z"/>
        <path fill="#FAFAFA" d="M25.314 22.594c-.386 1.09-1.918 1.994-3.14 2.258-.836.178-1.928.32-5.604-1.204-4.702-1.948-7.73-6.726-7.966-7.036-.226-.31-1.9-2.53-1.9-4.826S7.87 8.372 8.34 7.892c.386-.394 1.024-.574 1.636-.574.198 0 .376.01.536.018.47.02.706.048 1.016.79.386.93 1.326 3.226 1.438 3.462.114.236.228.556.068.866-.15.32-.282.462-.518.734-.236.272-.46.48-.696.772-.216.254-.46.526-.188.996.272.46 1.212 1.994 2.596 3.226 1.786 1.59 3.234 2.098 3.752 2.314.386.16.846.122 1.128-.178.358-.386.8-1.026 1.25-1.656.32-.452.724-.508 1.148-.348.432.15 2.718 1.28 3.188 1.514.47.236.78.348.894.546.112.198.112 1.128-.274 2.22z"/>
    </g>
</svg>