<svg xmlns="http://www.w3.org/2000/svg">
    <g fill="none" fill-rule="evenodd">
        <rect width="100%" height="100%" fill="#25D366" rx="4"/>
        <g fill="#FFF">
            <path fill-rule="nonzero" d="M6.0337263 19.3710947l1.065979-3.8937052C6.442021 14.338 6.0962105 13.0454315 6.0966316 11.7213263c.001642-4.1429895 3.3723158-7.5134737 7.5137684-7.5134737 2.0100842.000821 3.8965895.7833053 5.3151789 2.2037474 1.4185895 1.420021 2.1994316 3.3077684 2.1985895 5.315579-.0016421 4.1426736-3.3725263 7.5135789-7.5135579 7.5135789 0 0 .0002105 0 0 0h-.0032842c-1.2574105-.0004211-2.4931158-.316-3.5904631-.9146947l-3.9831369 1.0450315zm4.167558-2.405221l.2281894.1352842c.9586947.5690737 2.057979.8700632 3.1784631.8708842h.0026737c3.4420211 0 6.2436211-2.8018105 6.2450737-6.2454737.0006105-1.6685895-.6484421-3.2376631-1.8277263-4.4181895-1.1788632-1.1802947-2.7469053-1.8307789-4.4148842-1.8314105-3.4449053 0-6.2465053 2.8014105-6.2477263 6.2446526-.0006316 1.1798948.3296631 2.3293685.9547579 3.3234106l.148442.236421-.6307578 2.3044842 2.3634947-.6200631z"/>
            <path d="M17.3959789 13.5137684c-.0470947-.0783158-.1720842-.1252-.3597894-.2195579-.1879158-.0937684-1.110821-.5479158-1.2829053-.6106105-.1720842-.0625053-.2972842-.0939579-.4226947.0939579-.1249895.1881053-.484779.6110105-.5941685.7362105-.1095789.125221-.2191578.1410527-.4068631.0472842-.1877053-.0941473-.7924421-.2925473-1.5096632-.9321473-.5581684-.4977474-.9350315-1.1126737-1.0444-1.3005685-.109579-.1879158-.0117263-.289579.0822316-.3830315.0845053-.084379.1877053-.2193685.2816632-.3289474.0937473-.109579.1250105-.1881053.1877052-.3133053.0625053-.125221.0312421-.2350105-.015621-.3289473-.0470737-.093958-.4224842-1.0181053-.5789474-1.3939158-.1523368-.365958-.3071579-.316421-.4222947-.322379-.1093684-.0054526-.234779-.0065684-.359979-.0065684-.1250105 0-.3285473.0470737-.5006316.2348842-.1720631.188-.6570736.6421684-.6570736 1.5662947 0 .9241474.6727158 1.8169264.7666736 1.9420211.0937474.1254105 1.3237895 2.0217895 3.2072211 2.8349263.4477895.1934527.7974947.3089895 1.0703158.3955579.4496421.1428842.8589684.1227369 1.1823579.0744211.360821-.0540842 1.110821-.4541685 1.2672842-.8926948.1564421-.4387158.1564421-.8145473.1095789-.8928842z"/>
        </g>
        <text fill="#FFF" font-family="OpenSans, Open Sans" font-size="11">
            <tspan x="30.0483398" y="17">Text</tspan>
        </text>
    </g>
</svg>