<svg xmlns="http://www.w3.org/2000/svg" viewBox="0 0 21 17">
    <g>
        <path d="M4.545 2.25c.198-.394.678-.554 1.074-.357.362.181.527.6.4.973l-.043.1-4.565 9.13c-.197.396-.678.556-1.073.359-.362-.181-.527-.6-.4-.973l.042-.1L4.545 2.25z" transform="translate(1.304 1)"/>
        <path d="M4.903 1.893c.362-.181.796-.061 1.018.264l.055.094 4.566 9.13c.197.396.037.876-.358 1.074-.362.18-.796.061-1.018-.264l-.055-.094-4.566-9.13c-.197-.396-.037-.876.358-1.074z" transform="translate(1.304 1)"/>
        <path d="M8.196 7.678c.441 0 .8.358.8.8 0 .408-.306.745-.7.794l-.1.006h-5.87c-.442 0-.8-.358-.8-.8 0-.408.305-.744.7-.794l.1-.006h5.87zM15.557-.53c.266-.267.683-.29.976-.073l.084.073 1.957 1.956c.293.293.293.768 0 1.06-.266.267-.683.291-.977.073l-.084-.072-1.426-1.427-1.426 1.427c-.267.266-.683.29-.977.072l-.084-.072c-.266-.266-.29-.683-.073-.977l.073-.084L15.557-.53zM13.6 12.513c.266-.266.683-.29.977-.072l.084.072 1.426 1.426 1.426-1.426c.266-.266.683-.29.977-.072l.084.072c.266.266.29.683.072.977l-.072.084-1.957 1.956c-.266.267-.683.29-.976.073l-.084-.073-1.957-1.956c-.293-.293-.293-.768 0-1.06z" transform="translate(1.304 1)"/>
        <path d="M16.087-.8c.408 0 .744.305.794.7l.006.1v15c0 .442-.358.8-.8.8-.408 0-.744-.305-.794-.7l-.006-.1V0c0-.442.358-.8.8-.8z" transform="translate(1.304 1)"/>
    </g>
</svg>