
<svg style="position: absolute; overflow: hidden;" version="1.1" xmlns="http://www.w3.org/2000/svg" xmlns:xlink="http://www.w3.org/1999/xlink">
  <defs>
    <symbol id="icon-flash_2" viewBox="0 0 36 32">
      <title>flash_2</title>
      <path fill="#fff" style="fill: var(--color1, #fff)" d="M35.274 13.080c0.726 0.854 0.726 2.070 0.726 4.5v7.988c0 2.35 0 3.648-0.726 4.5-0.808 0.932-2.14 0.932-4.16 0.932h-17.074c-4.44-0.040-4.762-0.69-4.762-5.352 2.824-0.892 16.912-5.188 16.994-5.188 2.14-0.65 3.552-1.096 4.118-2.312 0.524-1.134 0.12-2.512-0.646-5.026l-0.284-0.974h1.616c2.18 0 3.43 0.040 4.198 0.934zM28.29 12.88c0.646 2.228 1.050 3.444 0.566 4.458-0.486 1.094-1.778 1.5-3.674 2.068-0.12 0-15.5 4.702-15.622 4.742l-0.484 0.162c-1.374 0.406-2.14 0.608-2.826 0.608-1.858 0-2.3-1.46-3.19-4.418l-2.26-7.5c-0.686-2.31-1.050-3.486-0.606-4.46 0.486-1.094 1.776-1.46 3.714-2.068l0.324-0.080c0.12-0.040 15.5-4.702 15.62-4.744 1.296-0.404 2.182-0.648 2.948-0.648 1.898 0 2.34 1.46 3.23 4.38l2.26 7.5z"></path>
    </symbol>
    <symbol id="icon-flashcard" viewBox="0 0 40 32">
      <title>flashcard</title>
      <path fill="#fff" style="fill: var(--color1, #fff)" d="M38.234 12.92c0.766 0.898 0.766 2.18 0.766 4.748v8.432c0 2.48 0 3.85-0.766 4.75-0.854 0.984-2.26 0.984-4.39 0.984h-18.024c-4.686-0.044-5.028-0.728-5.028-5.65 2.984-0.94 17.854-5.476 17.94-5.476 2.258-0.686 3.748-1.156 4.346-2.44 0.554-1.2 0.128-2.654-0.682-5.306l-0.3-1.028h1.706c2.3 0 3.62 0.044 4.432 0.984zM30.862 12.704c0.68 2.354 1.108 3.64 0.596 4.708-0.512 1.156-1.874 1.584-3.878 2.182-0.128 0-16.36 4.964-16.49 5.008l-0.51 0.17c-1.45 0.428-2.26 0.642-2.984 0.642-1.96 0-2.428-1.54-3.366-4.664l-2.386-7.916c-0.724-2.44-1.108-3.68-0.64-4.708 0.512-1.156 1.876-1.54 3.92-2.182l0.342-0.086c0.128-0.042 16.362-4.964 16.49-5.006 1.364-0.428 2.3-0.686 3.11-0.686 2.004 0 2.472 1.54 3.41 4.622l2.386 7.916z"></path>
    </symbol>
    <symbol id="icon-jobs" viewBox="0 0 15 32">
      <title>jobs</title>
      <path fill="#fff" style="fill: var(--color1, #fff)" d="M7.113 5.99c1.569 0 2.841-1.272 2.841-2.841s-1.272-2.841-2.841-2.841v0c-1.569 0-2.841 1.272-2.841 2.841s1.272 2.841 2.841 2.841v0zM1.527 19.436c-0.576 0-1.158-0.313-1.164-0.953l0.013-8.897c-0.061-1.436 0.733-2.298 1.975-2.298h2.127c0.317 0 0.601 0.185 0.733 0.473l1.097 2.388 0.465 1.018c0.059 0.126 0.185 0.212 0.331 0.212 0.001 0 0.002 0 0.003 0h-0c0 0 0.001 0 0.001 0 0.146 0 0.272-0.086 0.33-0.21l0.001-0.002 0.465-1.018 1.097-2.388c0.13-0.281 0.409-0.472 0.733-0.473h2.127c1.242 0 2.036 0.863 1.975 2.298l0.015 8.896c0 0.003 0 0.006 0 0.010 0 0.354-0.21 0.658-0.512 0.795l-0.005 0.002v1.135h0.291c0.349 0 0.63 0.282 0.63 0.631v5.332c0 0.349-0.281 0.631-0.63 0.631h-1.876c-0 0-0.001 0-0.001 0-0.347 0-0.628-0.281-0.628-0.628 0-0.001 0-0.002 0-0.003v0-5.332c0-0.349 0.282-0.631 0.631-0.631h0.291v-1.143c-0.283-0.134-0.476-0.417-0.476-0.745 0-0.002 0-0.004 0-0.005v0l-0.013-7.053-0.921-0.006-0.029 18.172c0 0.915-0.772 1.37-1.545 1.37-0.777 0-1.552-0.458-1.552-1.376v-8.986h-0.788v8.986c0 0.916-0.777 1.376-1.552 1.376-0.772 0-1.545-0.458-1.545-1.37l-0.029-18.172-0.922-0.004-0.012 7.066c0 0.598-0.563 0.902-1.129 0.902zM7.734 7.29c0.199 0 0.329 0.205 0.246 0.384l-0.625 1.309 0.285 0.593-0.527 1.152-0.527-1.152 0.284-0.593-0.624-1.309c-0.017-0.034-0.027-0.075-0.027-0.118 0-0.148 0.12-0.268 0.268-0.268 0.001 0 0.002 0 0.003 0h1.245z"></path>
    </symbol>
    <symbol id="icon-normal-logo" viewBox="0 0 160 32">
      <title>normal-logo</title>
      <path fill="#fff" style="fill: var(--color1, #fff)" d="M8.725 5.514c-0.301 0.291-0.488 0.699-0.488 1.15 0 0.002 0 0.004 0 0.007v-0 1.654c0 0.44 0.163 0.882 0.488 1.157 0.325 0.331 0.704 0.496 1.138 0.496h11.435c0.651 0 1.301 0.112 1.898 0.387 0.595 0.275 1.138 0.606 1.571 1.046 0.432 0.442 0.758 0.992 1.029 1.6 0.272 0.605 0.381 1.267 0.381 1.928v5.018c0 0.661-0.109 1.323-0.381 1.93-0.27 0.606-0.595 1.157-1.029 1.598s-0.976 0.771-1.571 1.048c-0.536 0.243-1.161 0.385-1.82 0.385-0.027 0-0.054-0-0.081-0.001l0.004 0h-21.298v-5.016h16.366c0.432 0 0.867-0.165 1.138-0.496 0.301-0.291 0.488-0.699 0.488-1.15 0-0.002 0-0.004 0-0.007v0-1.656c0-0.442-0.163-0.882-0.488-1.158-0.283-0.305-0.687-0.496-1.135-0.496-0.001 0-0.002 0-0.002 0h-11.435c-0.65 0-1.301-0.11-1.896-0.384-0.597-0.277-1.139-0.608-1.571-1.048-0.434-0.442-0.76-0.992-1.030-1.6-0.24-0.547-0.38-1.184-0.38-1.854 0-0.027 0-0.053 0.001-0.080l-0 0.004v-5.014c0-0.661 0.109-1.323 0.379-1.93 0.272-0.606 0.597-1.158 1.030-1.6 0.432-0.44 0.976-0.771 1.571-1.046 0.537-0.244 1.163-0.386 1.824-0.386 0.025 0 0.051 0 0.076 0.001l-0.004-0h21.298v5.016h-16.366c-0.438 0.053-0.827 0.232-1.139 0.498l0.003-0.002zM37.069 31.475h-8.216v-19.968c0-0.659 0.109-1.32 0.381-1.925s0.598-1.155 1.034-1.595 0.979-0.77 1.578-1.045c0.6-0.275 1.253-0.384 1.904-0.384h16.435c0.653 0 1.306 0.109 1.904 0.384 0.6 0.275 1.144 0.605 1.579 1.045s0.762 0.99 1.034 1.595c0.272 0.605 0.381 1.264 0.381 1.925v8.307c0 0.659-0.109 1.32-0.381 1.925s-0.598 1.155-1.034 1.595-0.979 0.77-1.578 1.045c-0.6 0.275-1.253 0.384-1.904 0.384h-11.483v-5.003h6.584c0.435 0 0.87-0.165 1.142-0.494 0.303-0.29 0.491-0.698 0.491-1.15 0-0.002 0-0.004 0-0.005v0-5.008c0-0.44-0.163-0.88-0.491-1.154-0.285-0.306-0.69-0.496-1.14-0.496-0.001 0-0.002 0-0.002 0h-6.582c-0.435 0-0.87 0.165-1.142 0.496-0.303 0.29-0.491 0.698-0.491 1.15 0 0.001 0 0.002 0 0.004v-0 18.373zM64.262 5.006h-7.869v-5.006h7.869v5.006zM56.394 6.654h7.869v18.264h-7.869v-18.262zM85.246 11.606h-10.010v6.656c0 0.44 0.165 0.88 0.496 1.155 0.333 0.33 0.72 0.496 1.162 0.496h8.352v5.005h-13.384c-0.664 0-1.328-0.11-1.936-0.384-0.608-0.277-1.162-0.608-1.603-1.046-0.443-0.44-0.774-0.99-1.051-1.595-0.245-0.545-0.388-1.181-0.388-1.851 0-0.026 0-0.052 0.001-0.077l-0 0.004v-19.968h8.352v6.656h10.010v4.95zM94.774 18.344c0 0.442 0.163 0.883 0.49 1.16 0.326 0.331 0.707 0.496 1.142 0.496h6.586c0.435 0 0.87-0.165 1.142-0.496 0.326-0.333 0.49-0.72 0.49-1.16v-5.029c0-0.442-0.163-0.883-0.49-1.16-0.285-0.306-0.689-0.496-1.139-0.496-0.001 0-0.003 0-0.004 0h-6.585v-5.030h11.483c0.653 0 1.306 0.11 1.904 0.387 0.598 0.275 1.142 0.608 1.579 1.050 0.435 0.442 0.762 0.994 1.034 1.602s0.381 1.27 0.381 1.934v8.342c0 0.662-0.109 1.326-0.381 1.934s-0.598 1.16-1.034 1.6c-0.437 0.443-0.981 0.774-1.579 1.051-0.539 0.245-1.169 0.388-1.833 0.388-0.025 0-0.050-0-0.075-0.001l0.004 0h-16.435c-0.653 0-1.306-0.112-1.904-0.387-0.598-0.277-1.142-0.608-1.578-1.050s-0.763-0.995-1.035-1.602c-0.241-0.548-0.381-1.186-0.381-1.858 0-0.027 0-0.055 0.001-0.082l-0 0.004v-19.942h8.218v18.344zM132.112 13.229c0-0.442-0.165-0.882-0.491-1.158-0.285-0.306-0.69-0.496-1.139-0.496-0.001 0-0.002 0-0.003 0h-6.584c-0.437 0-0.872 0.166-1.144 0.496-0.302 0.291-0.49 0.699-0.49 1.151 0 0.003 0 0.005 0 0.008v-0 5.018c0 0.442 0.163 0.882 0.49 1.158 0.326 0.33 0.707 0.496 1.144 0.496h6.584v5.018h-11.483c-0.653 0-1.306-0.112-1.904-0.386-0.598-0.277-1.142-0.608-1.578-1.048-0.435-0.442-0.762-0.992-1.034-1.6-0.242-0.548-0.383-1.186-0.383-1.858 0-0.025 0-0.050 0.001-0.076l-0 0.004v-8.435c0-0.662 0.109-1.323 0.382-1.93 0.272-0.608 0.598-1.158 1.034-1.6 0.435-0.44 0.979-0.771 1.578-1.046 0.54-0.245 1.17-0.388 1.834-0.388 0.025 0 0.049 0 0.073 0.001l-0.004-0h16.435c0.653 0 1.306 0.112 1.904 0.387s1.144 0.606 1.579 1.046c0.435 0.442 0.762 0.992 1.034 1.6 0.272 0.606 0.381 1.267 0.381 1.93v13.344h-8.218v-11.637zM142.95 0h7.869v24.918h-7.869zM152.131 0h7.869v24.918h-7.869z"></path>
    </symbol>
    <symbol id="icon-note" viewBox="0 0 27 32">
      <title>note</title>
      <path fill="#fff" style="fill: var(--color1, #fff)" d="M0.247 2.165v26.448c0.007 1.045 0.856 1.89 1.902 1.89 0.004 0 0.009 0 0.013-0h21.062c0.004 0 0.008 0 0.012 0 1.046 0 1.895-0.845 1.902-1.889v-19.688c0-0.501-0.203-0.981-0.562-1.335l-6.853-6.761c-0.348-0.342-0.825-0.553-1.351-0.553h-14.212c-0.004-0-0.008-0-0.013-0-1.046 0-1.894 0.844-1.902 1.887v0.001zM4.018 3.964h10.121v5.237c0 1.052 0.864 1.904 1.927 1.904h5.301v15.712h-17.349v-22.853z"></path>
    </symbol>
    <symbol id="icon-path" viewBox="0 0 28 32">
      <title>path</title>
      <path fill="#fff" style="fill: var(--color1, #fff)" d="M26.748 22.359c-0.64-0.24-2.722-1.442-2.722-6.768v-2.4c0-6.649-3.765-8.889-6.848-9.652 0-0.119 0.041-0.24 0.041-0.359 0-4.235-6.407-4.242-6.407 0 0 0.119 0 0.24 0.039 0.359-3.083 0.761-6.848 3.004-6.848 9.652v2.4c0 5.326-2.080 6.528-2.722 6.768-0.761 0.279-1.282 1.040-1.282 1.881v1.764c0 0.519 0.32 0.96 0.841 1.12 0.121 0.041 3.243 1.081 8.61 1.483 1.348 4.494 7.698 4.544 9.17 0.039 5.365-0.4 8.489-1.44 8.61-1.481 0.48-0.16 0.841-0.64 0.841-1.122v-1.803c-0.041-0.88-0.562-1.6-1.323-1.881z"></path>
    </symbol>
    <symbol id="icon-upload" viewBox="0 0 26 32">
      <title>upload</title>
      <path fill="#fff" style="fill: var(--color1, #fff)" d="M14.285 21.109v-15.472l3.672 3.414 2.043-2.152-6.198-5.789c-0.557-0.518-1.446-0.518-2.040 0l-6.162 5.789 2.042 2.152 3.672-3.414v15.472h2.97z"></path>
      <path fill="#fff" style="fill: var(--color1, #fff)" d="M0.074 12.723v15.323c0 1.446 1.152 2.597 2.598 2.597h20.256c1.448 0 2.598-1.15 2.598-2.597v-15.323c0-1.446-1.152-2.597-2.598-2.597h-4.934v2.968h4.566v14.581h-19.52v-14.581h4.565v-2.966h-4.933c-1.448 0-2.598 1.15-2.598 2.597z"></path>
    </symbol>
    <symbol id="icon-purchase" viewBox="0 0 26 32">
      <title>purchase</title>
      <path fill="#fff" style="fill: var(--color1, #fff)" d="M5.683 16.934c-2.552 0-4.627 2.043-4.627 4.557 0.005 0.667 0.548 1.206 1.216 1.206 0.002 0 0.005 0 0.007-0h14.747c0 0 0.001 0 0.002 0 0.667 0 1.208-0.54 1.211-1.206v-0c0-2.514-2.075-4.557-4.627-4.557h-7.928zM1.589 27.728h16c0.336 0 0.619 0.266 0.619 0.603-0.008 1.452-1.187 2.626-2.64 2.626-0.007 0-0.015-0-0.022-0h-11.906c-0.006 0-0.014 0-0.021 0-1.454 0-2.633-1.173-2.643-2.625v-0.001c0-0.336 0.269-0.603 0.611-0.603zM2.624 23.52h13.947c0.906 0 1.637 0.72 1.637 1.614 0 0.898-0.731 1.624-1.637 1.624h-13.947c-0.002 0-0.005 0-0.008 0-0.901 0-1.632-0.726-1.64-1.625v-0.001c0-0.893 0.741-1.616 1.646-1.616zM8.622 0.4l2.454 7.739h14.39l-1.008 9.483-0.694 6.792-0.546 5.056c-0.086 0.87-0.845 1.541-1.75 1.541h-3.282c0.693-0.666 1.138-1.6 1.138-2.616-0.002-0.556-0.291-1.044-0.727-1.324l-0.006-0.004c0.443-0.48 0.733-1.106 0.733-1.808 0-0.79-0.373-1.474-0.922-1.968 0.542-0.398 0.893-1.029 0.902-1.742l0-0.002c0-3.074-2.544-5.587-5.68-5.587h-3.152l-0.816-7.821h0.093l-2.333-7.36 1.206-0.379z"></path>
    </symbol>
    <symbol id="icon-search-icon" viewBox="0 0 32 32">
      <title>search-icon</title>
      <path fill="#fff" style="fill: var(--color1, #fff)" d="M13.2 0c-7.264 0-13.2 5.938-13.2 13.2 0 7.26 5.938 13.198 13.2 13.198 2.791-0.001 5.378-0.876 7.502-2.366l-0.042 0.028 7.238 7.238c0.436 0.434 1.036 0.703 1.7 0.703s1.264-0.268 1.7-0.703l-0 0c0.434-0.433 0.703-1.032 0.703-1.694s-0.269-1.261-0.703-1.694l-7.238-7.236c1.464-2.087 2.34-4.679 2.34-7.476v-0c0-7.26-5.94-13.198-13.2-13.198zM13.2 4.8c4.666 0 8.398 3.732 8.398 8.4 0 4.666-3.732 8.398-8.4 8.398-0.011 0-0.023 0-0.036 0-4.619 0-8.364-3.745-8.364-8.364 0-0.013 0-0.025 0-0.038v0.002c0-4.666 3.734-8.4 8.4-8.4z"></path>
    </symbol>
    <symbol id="icon-settings" viewBox="0 0 30 32">
      <title>settings</title>
      <path fill="#fff" style="fill: var(--color1, #fff)" d="M29.199 18.281l-0.914-0.987c0.107-0.954 0.107-1.917 0-2.872l0.914-0.98c0.546-0.582 1.524-1.353 1.219-2.088l-1.253-3.045c-0.305-0.734-1.547-0.582-2.342-0.61l-1.349-0.049c-0.607-0.754-1.271-1.42-1.999-2.009l-0.025-0.019-0.043-1.35c-0.024-0.792 0.131-2.037-0.61-2.342l-3.046-1.265c-0.731-0.305-1.509 0.686-2.088 1.219l-0.983 0.914c-0.431-0.051-0.931-0.080-1.438-0.080s-1.006 0.029-1.498 0.086l0.060-0.006-0.977-0.914c-0.579-0.542-1.353-1.524-2.088-1.219l-3.045 1.253c-0.734 0.305-0.579 1.551-0.61 2.342l-0.049 1.347c-0.756 0.608-1.422 1.272-2.012 2l-0.019 0.025-1.347 0.043c-0.792 0.024-2.037-0.131-2.342 0.61l-1.265 3.046c-0.305 0.731 0.686 1.504 1.219 2.083l0.914 0.983c-0.107 0.955-0.107 1.92 0 2.875l-0.914 0.981c-0.542 0.579-1.524 1.349-1.219 2.083l1.253 3.046c0.305 0.734 1.551 0.582 2.347 0.61l1.341 0.046c0.6 0.75 1.28 1.432 2.030 2.034l0.040 1.342c0.024 0.792-0.131 2.042 0.61 2.347l3.046 1.263c0.731 0.305 1.504-0.686 2.083-1.219l0.986-0.914c0.954 0.107 1.917 0.107 2.869 0l0.981 0.914c0.582 0.546 1.349 1.524 2.083 1.219l3.046-1.253c0.734-0.305 0.582-1.547 0.61-2.345l0.046-1.346c0.75-0.599 1.432-1.278 2.034-2.027l1.346-0.041c0.792-0.024 2.042 0.131 2.347-0.61l1.263-3.046c0.317-0.719-0.677-1.493-1.216-2.077zM15.269 23.063c-3.855 0-6.979-3.23-6.979-7.218s3.124-7.22 6.979-7.22c3.855 0 6.979 3.23 6.979 7.218 0 3.986-3.124 7.218-6.979 7.218z"></path>
    </symbol>
    <symbol id="icon-small-logo" viewBox="0 0 69 32">
      <title>small-logo</title>
      <path fill="#fff" style="fill: var(--color1, #fff)" d="M1.813 17.227c0.534 0.533 1.227 1.013 1.974 1.333 0.746 0.32 1.546 0.48 2.4 0.48h14.4c0.586 0 1.066 0.213 1.44 0.587 0.373 0.373 0.586 0.906 0.586 1.44v0.746c3.414-0.48 6.88-1.226 10.294-2.24v-0.533c0-0.004 0-0.009 0-0.014 0-1.703-0.693-3.245-1.813-4.358l-0-0c-0.554-0.549-1.209-0.998-1.933-1.318l-0.041-0.016c-0.747-0.32-1.547-0.48-2.4-0.48h-14.4c-0.012 0-0.025 0-0.039 0-0.548 0-1.044-0.224-1.401-0.586l-0-0c-0.363-0.371-0.587-0.879-0.587-1.44v-2.080c0-0.587 0.214-1.067 0.587-1.44 0.373-0.374 0.907-0.587 1.44-0.587h20.587v-6.187h-26.72c-0.854 0-1.654 0.16-2.4 0.48-0.8 0.32-1.44 0.8-1.974 1.334-0.548 0.554-0.997 1.208-1.317 1.932l-0.016 0.041c-0.32 0.747-0.48 1.547-0.48 2.4v6.187c0 0.853 0.16 1.653 0.48 2.4 0.32 0.746 0.8 1.386 1.333 1.92zM20.693 25.333h-20.693v6.187h26.773c0.004 0 0.009 0 0.014 0 1.703 0 3.245-0.693 4.358-1.813l0-0c0.534-0.534 1.014-1.227 1.334-1.974 0.32-0.746 0.48-1.546 0.48-2.4v-1.333c-4.16 0.853-8.267 1.28-12.267 1.333zM66.133 10.347c-0.554-0.549-1.208-0.998-1.932-1.318l-0.041-0.016c-0.326-0.139-0.718-0.267-1.122-0.363l-0.051-0.010c-2.364 2.133-4.96 4.118-7.709 5.884l-0.238 0.143h0.533c0.587 0 1.067 0.213 1.44 0.586 0.374 0.374 0.587 0.907 0.587 1.44v6.24c0 0.587-0.213 1.067-0.587 1.44-0.371 0.363-0.879 0.587-1.44 0.587h-8.213c-0.011 0-0.024 0-0.037 0-0.549 0-1.045-0.225-1.402-0.587l-0-0c-0.363-0.371-0.587-0.879-0.587-1.44v-3.093c-1.973 0.853-4 1.6-6.080 2.24-1.386 0.427-2.773 0.8-4.213 1.12v1.76c0 0.004-0 0.009-0 0.014 0 1.703 0.693 3.245 1.813 4.358l0 0c0.534 0.534 1.227 1.014 1.974 1.334 0.746 0.32 1.546 0.48 2.4 0.48h20.586c0.004 0 0.009 0 0.014 0 1.703 0 3.245-0.693 4.358-1.813l0-0c0.534-0.534 1.014-1.229 1.334-1.974 0.32-0.747 0.48-1.547 0.48-2.4v-10.24c0-0.853-0.16-1.653-0.48-2.4-0.427-0.747-0.853-1.387-1.387-1.973zM54.080 8.533h-6.72v4.534c2.347-1.387 4.64-2.88 6.72-4.534zM45.28 14.24v-13.92h-10.293v18.4c3.626-1.227 7.093-2.72 10.293-4.48z"></path>
    </symbol>
    <symbol id="icon-tutor" viewBox="0 0 18 22" width="18" height="22">
      <title>tutor</title>
      <path fill="#FFF" fill-rule="evenodd" d="M17.25 7.323c.049 1.645.02 3.293.008 4.94a1.206 1.206 0 0 1-.166.581c-.283.474-1.045.566-1.42.08a1.06 1.06 0 0 1-.221-.68c.004-1.279.002-2.558.002-3.838 0-.16.006-.32-.002-.48-.01-.202-.05-.223-.269-.227-.174-.005-.242.069-.224.236.004.037 0 .075 0 .113v7.169c.002.546 0 1.45.002 1.995 0 1.76.002 1.37 0 3.129 0 .187.023.39-.038.56-.3.813-1.166 1.032-1.82.615-.4-.257-.524-.659-.523-1.117.004-2.963.002-4.136.002-7.1 0-.065.003-.131 0-.197-.013-.196-.07-.24-.265-.244-.176-.003-.2.101-.199.238v.253l-.001 7.015c0 .206-.013.403-.098.604-.187.441-.515.692-.978.735-.517.048-.93-.143-1.185-.627-.145-.275-.123-.566-.123-.854-.001-4.601 0-7.41.001-12.01 0-.114.003-.227-.006-.34-.005-.05-.031-.14-.057-.143-.128-.018-.265-.037-.386-.007-.05.012-.09.152-.092.234-.01.404-.003.809-.004 1.213 0 .24-.061.449-.234.641-.254.282-.85.309-1.224.056-.824-.558-1.65-1.111-2.48-1.66-.352-.233-.514-.55-.427-.96.042-.198-.032-.296-.18-.392-.343-.224-.683-.456-1.024-.685l-2.54-1.71a14.724 14.724 0 0 1-.547-.386c-.168-.125-.18-.195-.078-.322.105-.132.171-.134.333-.023.557.382 1.115.761 1.673 1.142l2.23 1.517c.108.073.228.13.334.205.101.073.18.067.305.026.309-.1.62-.109.91.108.315.234.644.45.972.666.146.096.186.07.207-.107.167-1.41 1.156-1.988 2.233-2.162.516-.084 1.056-.026 1.584-.034.138-.002.212.054.282.181.225.399.48.78.714 1.175.05.083.087.086.145.027a.717.717 0 0 0 .103-.126c.21-.344.418-.688.623-1.034.087-.149.193-.237.383-.23.368.016.737.015 1.105.008.44-.008.856.081 1.26.248.997.412 1.376 1.124 1.4 1.985zm-4.973-2.708c-1.07 0-2.03-.858-2.014-1.992.017-1.316 1.005-2.025 1.982-2.012 1.089.015 1.998.75 2.003 1.982.053 1.158-.932 2.021-1.971 2.022z"/>
    </symbol>
    <symbol id="icon-ask" viewBox="0 0 45 32">
      <title>ask</title>
      <path fill="#fff" style="fill: var(--color1, #fff)" d="M10.494 2.502c-5.528 1.875-11.475 7.379-7.445 13.365 1.19 1.769 3.345 3.332 5.242 4.248 1.525 0.734 2.965 0.649 2.334 2.829-0.328 1.139-1.199 2.349-4.939 3.373 6.313 0.986 9.801-1.946 11.076-3.704 2.481 3.038 6.227 4.087 10.21 4.456 5.489 0.504 3.763 1.404 7.093 2.443 3.194 0.998 5.589 0.913 8.744 0.169-2.673-0.36-4.337-1.090-5.85-2.549-1.135-1.096 0.053-1.352 0.659-1.643 9.003-4.341 6.965-13.175-1.869-16.171-0.326-0.119-0.795-0.262-1.272-0.388l-0.134-0.030c-1.086-2.618-3.703-4.988-7.863-6.4-5.018-1.702-10.965-1.702-15.985 0zM19.268 14.989h-2.383c-0.038-2.086 0.211-2.831 1.903-4.211 1.073-0.872 2.673-2.161 1.107-3.535-0.862-0.768-2.453-0.708-3.324 0.026-0.448 0.382-0.757 0.96-0.926 1.741l-2.402-0.305c0.070-1.118 0.544-2.065 1.423-2.842 1.796-1.592 5.274-1.568 7.063 0.011 2.773 2.449 0.875 4.732-1.25 6.502-1.082 0.898-1.235 1.201-1.21 2.613zM16.885 18.505v-2.618h2.383v2.616h-2.383zM19.912 22.082c2.18-0.224 4.35-0.311 6.569-1.069 5.613-1.92 8.433-5.591 8.439-9.257 1.069 0.377 1.995 0.847 2.845 1.421l-0.044-0.028c2.528 1.705 4.297 4.288 2.381 7.138-2.824 4.194-7.364 2.334-6.099 6.628-1.129-0.768-2.409-1.713-3.654-1.984-2.398-0.518-4.873-0.344-7.123-1.112-1.267-0.427-2.366-1.017-3.344-1.757l0.029 0.021z"></path>
    </symbol>
    <symbol id="icon-chat" viewBox="0 0 36 32">
      <title>chat</title>
      <path fill="#fff" style="fill: var(--color1, #fff)" d="M18 1.692c-9.626 0-17.432 6.132-17.432 13.696 0 3.58 1.752 6.844 4.618 9.286-0.11 2.378-0.604 5.574-2.346 7.224 3.33 0 6.74-2.192 8.76-3.77 1.982 0.616 4.14 0.956 6.4 0.956 9.626 0 17.432-6.134 17.432-13.696 0-7.564-7.806-13.696-17.432-13.696z"></path>
    </symbol>
    <symbol id="icon-menu" stroke="none" stroke-width="1" fill="none" fill-rule="evenodd">
      <g id="Size-640" transform="translate(-16.000000, -21.000000)" fill-rule="nonzero" fill="#FFFFFF">
        <g id="Group" transform="translate(16.000000, 21.000000)">
          <path d="M16.5210421,12.2727273 L1.44288577,12.2727273 C0.649298597,12.2727273 0,12.8863636 0,13.6363636 C0,14.3863636 0.649298597,15 1.44288577,15 L16.5571142,15 C17.3507014,15 18,14.3863636 18,13.6363636 C18,12.8863636 17.3146293,12.2727273 16.5210421,12.2727273 Z" id="Shape"></path>
          <path d="M16.5210421,6.13636364 L1.44288577,6.13636364 C0.649298597,6.13636364 0,6.75 0,7.5 C0,8.25 0.649298597,8.86363636 1.44288577,8.86363636 L16.5571142,8.86363636 C17.3507014,8.86363636 18,8.25 18,7.5 C18,6.75 17.3146293,6.13636364 16.5210421,6.13636364 Z" id="Shape"></path>
          <path d="M16.5210421,0 L1.44288577,0 C0.649298597,0 0,0.613636364 0,1.36363636 C0,2.11363636 0.649298597,2.72727273 1.44288577,2.72727273 L16.5571142,2.72727273 C17.3507014,2.72727273 18,2.11363636 18,1.36363636 C18,0.613636364 17.3146293,0 16.5210421,0 Z" id="Shape"></path>
        </g>
      </g>
    </symbol>
    <symbol id="icon-post" viewBox="0 0 17 18">
      <g id="New-wed-layout" stroke="none" stroke-width="1" fill="none" fill-rule="evenodd">
        <g id="Size-641" transform="translate(-27.000000, -516.000000)" fill-rule="nonzero" fill="#FFFFFF">
          <g id="Group-16" transform="translate(16.000000, 78.000000)">
            <g id="Group-13" transform="translate(0.000000, 357.000000)">
              <g id="Group" transform="translate(11.000000, 81.266667)">
                <path d="M16.7735909,2.41245455 C17.0757273,2.11109091 17.0757273,1.62118182 16.7735909,1.31904545 L15.6809545,0.226409091 C15.3788182,-0.0757272727 14.8896818,-0.0757272727 14.5883182,0.226409091 L13.4956818,1.31904545 L15.6809545,3.50509091 L16.7735909,2.41245455 Z" id="Shape"></path>
                <path d="M0,3.09090909 L0,15.4545455 C0,16.3076364 0.691590909,17 1.54545455,17 L13.9090909,17 C14.7621818,17 15.4545455,16.3076364 15.4545455,15.4545455 L15.4545455,4.80018182 L13.9090909,6.34563636 L13.9090909,15.4545455 L1.54545455,15.4545455 L1.54545455,3.09090909 L10.6072273,3.09090909 L12.1526818,1.54545455 L1.54545455,1.54545455 C0.691590909,1.54545455 0,2.23781818 0,3.09090909 Z" id="Shape"></path>
                <rect id="Rectangle-path" transform="translate(10.216732, 6.783779) rotate(-45.000000) translate(-10.216732, -6.783779) " x="4.80730689" y="5.23833938" width="10.8188508" height="3.09087945"></rect>
                <polygon id="Shape" points="3.11331818 13.8866818 6.93754545 12.2477273 4.75227273 10.0616818"></polygon>
              </g>
            </g>
          </g>
        </g>
      </g>
    </symbol>
    <symbol id="icon-mic" viewBox="0 0 19 32">
      <title>mic</title>
      <path d="M17.853 15.75c-0.45 0-0.814 0.385-0.814 0.861 0 1.985-0.872 3.94-2.393 5.362-1.423 1.331-3.294 2.094-5.133 2.094h-0.358c-1.839 0-3.71-0.763-5.133-2.094-1.521-1.422-2.393-3.377-2.393-5.362 0-0.475-0.364-0.861-0.814-0.861s-0.814 0.385-0.814 0.861c0 2.478 1.073 4.903 2.943 6.652 1.554 1.453 3.556 2.342 5.577 2.498v4.018h-3.781c-0.45 0-0.814 0.385-0.814 0.861s0.364 0.861 0.814 0.861h9.189c0.45 0 0.814-0.385 0.814-0.861s-0.364-0.861-0.814-0.861h-3.78v-4.018c2.021-0.156 4.023-1.046 5.577-2.498 1.87-1.749 2.943-4.173 2.943-6.652 0-0.475-0.364-0.861-0.814-0.861zM9.485 1.75h0.281c1.911 0 3.651 1.999 3.651 4.195v9.11c0 2.195-1.74 4.195-3.651 4.195h-0.281c-1.911 0-3.651-1.999-3.651-4.195v-9.11c-0-2.195 1.74-4.195 3.651-4.195zM9.473 21h0.304c2.871 0 5.39-2.767 5.39-5.921v-9.159c-0-3.154-2.519-5.92-5.39-5.92h-0.304c-2.871 0-5.39 2.767-5.39 5.92v9.159c0 3.154 2.518 5.921 5.39 5.921z"></path>
    </symbol>
    <symbol id="icon-white-mic" viewBox="0 0 19 32">
      <title>mic</title>
      <path fill="#fff" style="fill: var(--color1, #fff)" d="M17.853 15.75c-0.45 0-0.814 0.385-0.814 0.861 0 1.985-0.872 3.94-2.393 5.362-1.423 1.331-3.294 2.094-5.133 2.094h-0.358c-1.839 0-3.71-0.763-5.133-2.094-1.521-1.422-2.393-3.377-2.393-5.362 0-0.475-0.364-0.861-0.814-0.861s-0.814 0.385-0.814 0.861c0 2.478 1.073 4.903 2.943 6.652 1.554 1.453 3.556 2.342 5.577 2.498v4.018h-3.781c-0.45 0-0.814 0.385-0.814 0.861s0.364 0.861 0.814 0.861h9.189c0.45 0 0.814-0.385 0.814-0.861s-0.364-0.861-0.814-0.861h-3.78v-4.018c2.021-0.156 4.023-1.046 5.577-2.498 1.87-1.749 2.943-4.173 2.943-6.652 0-0.475-0.364-0.861-0.814-0.861zM9.485 1.75h0.281c1.911 0 3.651 1.999 3.651 4.195v9.11c0 2.195-1.74 4.195-3.651 4.195h-0.281c-1.911 0-3.651-1.999-3.651-4.195v-9.11c-0-2.195 1.74-4.195 3.651-4.195zM9.473 21h0.304c2.871 0 5.39-2.767 5.39-5.921v-9.159c-0-3.154-2.519-5.92-5.39-5.92h-0.304c-2.871 0-5.39 2.767-5.39 5.92v9.159c0 3.154 2.518 5.921 5.39 5.921z"></path>
    </symbol>
    <symbol id="icon-book" viewBox="0 0 41 32">
      <title>book</title>
      <path fill="#fff" style="fill: var(--color1, #fff)" d="M38.416 1.789c-0.557 0-1.080 0.006-1.604 0.019v-1.808h-0.583c-11.335 0-15.135 2.756-16.36 4.243-1.226-1.487-5.025-4.243-16.36-4.243h-0.583v1.807c-0.523-0.015-1.046-0.019-1.602-0.019h-1.323v26.137h1.323c13.984 0 16.838 3.26 17.245 3.865h2.624c0.443-0.633 3.352-3.865 17.225-3.865h1.322v-26.137h-1.322zM18.994 26.747c-1.953-1.464-6.049-3.162-14.61-3.275v-21.978c11.991 0.157 14.307 3.496 14.61 4.040v21.213zM35.355 23.471c-8.561 0.113-12.658 1.81-14.61 3.275v-21.206c0.331-0.595 2.712-3.889 14.61-4.045v21.976z"></path>
    </symbol>
    <symbol id="icon-menu-blue" viewBox="0 0 38 32">
      <title>menu-blue</title>
      <path fill="#3293f6" style="fill: var(--color1, #3293f6)" d="M35.245 26.182h-32.167c-1.693 0-3.078 1.309-3.078 2.909s1.385 2.909 3.078 2.909h32.244c1.693 0 3.078-1.309 3.078-2.909s-1.462-2.909-3.155-2.909z"></path>
      <path fill="#3293f6" style="fill: var(--color1, #3293f6)" d="M35.245 13.091h-32.167c-1.693 0-3.078 1.309-3.078 2.909s1.385 2.909 3.078 2.909h32.244c1.693 0 3.078-1.309 3.078-2.909s-1.462-2.909-3.155-2.909z"></path>
      <path fill="#3293f6" style="fill: var(--color1, #3293f6)" d="M35.245 0h-32.167c-1.693 0-3.078 1.309-3.078 2.909s1.385 2.909 3.078 2.909h32.244c1.693 0 3.078-1.309 3.078-2.909s-1.462-2.909-3.155-2.909z"></path>
    </symbol>
    <symbol id="icon-create-flashcard-1" viewBox="0 0 25 21">
      <title>create-flashcard</title>
      <path fill="none" stroke="#fff" stroke-width="2.2857" stroke-miterlimit="4" stroke-linecap="butt" stroke-linejoin="miter" style="stroke: var(--color1, #fff)" d="M35.957 14.587c0.615 0.72 0.615 1.749 0.615 3.806v6.756c0 1.989 0 3.086-0.615 3.806-0.683 0.789-1.81 0.789-3.517 0.789-0.102 0-13.419 0-14 0h-0.444c-3.756-0.034-4.029-0.583-4.029-4.527 2.39-0.754 14.307-4.389 14.375-4.389 1.81-0.549 3.005-0.926 3.483-1.955 0.444-0.96 0.102-2.126-0.546-4.252l-0.239-0.823h1.366c1.844 0 2.902 0.034 3.551 0.789zM25.822 11.572c0.546 1.886 0.888 2.915 0.478 3.772-0.41 0.926-1.502 1.269-3.107 1.749-0.102 0-13.112 3.978-13.214 4.012l-0.41 0.137c-1.161 0.343-1.81 0.514-2.39 0.514-1.571 0-1.946-1.235-2.697-3.738l-1.912-6.344c-0.58-1.955-0.888-2.949-0.512-3.772 0.41-0.926 1.502-1.235 3.141-1.749l0.273-0.069c0.102-0.034 13.112-3.978 13.214-4.012 1.093-0.343 1.844-0.549 2.493-0.549 1.605 0 1.98 1.235 2.732 3.704l1.912 6.344z"></path>
    </symbol>
    <symbol id="icon-create-flashcard" stroke="none" stroke-width="1" fill="none" fill-rule="evenodd" viewBox="0 0 25 21">
      <g id="Size-640-Copy" transform="translate(-22.000000, -533.000000)" stroke="#FFFFFF" stroke-width="1.5" fill-rule="nonzero">
        <g id="Group-2" transform="translate(-1.000000, 0.000000)">
          <path d="M46.5966563,542.57261 C47,543.045204 47,543.720339 47,545.070608 L47,549.503992 C47,550.809253 47,551.529396 46.5966563,552.00199 C46.1484966,552.519594 45.4090331,552.519594 44.2886339,552.519594 C44.2214099,552.519594 35.4822961,552.519594 35.1013603,552.519594 L34.8100565,552.519594 C32.3451782,552.497089 32.1659144,552.137017 32.1659144,549.549001 C33.7344733,549.053903 41.5548598,546.668427 41.5996758,546.668427 C42.7872989,546.308355 43.5715784,546.060806 43.8852902,545.385671 C44.176594,544.755545 43.9525141,543.990393 43.5267624,542.595115 L43.3699065,542.055007 L44.2662259,542.055007 C45.4762571,542.055007 46.1709046,542.077511 46.5966563,542.57261 Z M39.9454391,540.593815 C40.3039668,541.831562 40.5280467,542.506696 40.2591509,543.069308 C39.9902551,543.67693 39.2731996,543.901974 38.2200243,544.217037 C38.1528003,544.217037 29.6153583,546.827558 29.5481344,546.850062 L29.2792385,546.94008 C28.5173671,547.165125 28.0916154,547.277648 27.7106796,547.277648 C26.6799124,547.277648 26.4334245,546.467486 25.9404489,544.824658 L24.6856018,540.661328 C24.304666,539.378572 24.1029942,538.725942 24.349482,538.185835 C24.6183778,537.578213 25.3354333,537.375673 26.4110165,537.038106 L26.5902804,536.993097 C26.6575044,536.970592 35.1949464,534.382576 35.2621704,534.360072 C35.9792259,534.135027 36.4722015,534 36.8979532,534 C37.9511285,534 38.1976163,534.810162 38.690592,536.430485 L39.9454391,540.593815 Z" id="Shape-Copy-6"></path>
        </g>
      </g>
    </symbol>
    <symbol id="icon-my-likes" viewBox="0 0 27 32">
      <title>my-likes</title>
      <path fill="#fff" style="fill: var(--color1, #fff)" d="M1.373 15.63c1.141-1.106 1.002-1.233 2.115-1.233 0.572 0 1.124 0.038 1.647 0.078 0.041 0 0.12-0.023 0.188-0.048 0.109-0.033 0.239-0.074 0.388-0.081 0.531-0.116 0.942-0.227 1.329-0.537 0.787-0.706 1.479-1.59 2.149-2.444l0.478-0.608c0.877-1.066 1.95-2.483 2.486-4.006 0.283-0.76 0.398-1.566 0.358-2.541-0.008-0.186-0.018-0.365-0.027-0.541-0.041-0.708-0.080-1.377 0.149-2.063 0.324-1.023 1.122-1.608 2.191-1.608 0.717 0 1.472 0.275 2.045 0.735 1.438 1.009 2.362 2.921 2.475 5.12 0.058 1.231-0.314 2.293-0.674 3.316-0.314 0.892-0.611 1.735-0.607 2.645 0.003 1.381 1.186 1.765 2.859 2.158 0.184 0.043 0.364 0.085 0.505 0.123 0.192 0.034 0.387 0.067 0.585 0.101 1.255 0.209 2.676 0.45 3.705 1.44 0.778 0.779 1.147 2.063 0.942 3.273-0.149 0.873-0.575 1.592-1.191 2.018 0.389 1.487-0.333 3.215-1.731 4.138 0.135 0.672 0.010 1.431-0.362 2.141-0.415 0.794-1.074 1.414-1.808 1.71-0.002 1.361-0.924 2.546-2.373 2.96-0.401 0.081-0.838 0.121-1.336 0.121-0.732 0-1.467-0.086-2.178-0.167-0.237-0.027-0.473-0.054-0.745-0.083-0.419-0.088-0.857-0.141-1.297-0.2-0.905-0.117-1.84-0.238-2.688-0.607-0.685-0.309-1.29-0.754-1.876-1.183-0.191-0.139-0.379-0.277-0.57-0.412-0.188-0.138-0.379-0.317-0.575-0.503-0.337-0.32-0.684-0.651-1.021-0.716-0.299-0.058-0.585-0.090-0.861-0.121-0.309-0.033-0.607-0.065-0.901-0.128h-0.145c-0.309 0-0.649 0.019-1.002 0.041-0.401 0.022 0.929 0.050 0.516 0.050-1.018 0-2.294-0.132-3.115-1.153-1.212-1.451-1.388-3.663-1.395-5.835-0.021-1.687-0.033-4.097 1.369-5.355z"></path>
    </symbol>
      <symbol id="icon-paid" viewBox="0 0 30 32">
          <title>paid</title>
          <path fill="#f5a623" style="fill: var(--color1, #f5a623)" d="M19.080 9.552c2.138-0.48 3.818-2.4 3.818-4.732 0-2.66-2.138-4.82-4.8-4.82-2.244 0-4.294 1.614-4.73 3.816 2.981 0.415 5.31 2.752 5.708 5.702l0.004 0.034zM12.452 15.264c2.66 0 4.82-2.18 4.82-4.796 0-2.64-2.16-4.84-4.82-4.84-2.65 0.002-4.798 2.151-4.798 4.802 0 0.006 0 0.011 0 0.017v-0.001c0 2.594 2.028 4.82 4.798 4.82zM0 17.444v13.086h4.36v-13.084h-4.36zM6.542 17.444v9.552c2.006 0.634 4.274 1.352 6.76 1.352 6.564 0 11.34-3.924 15.614-7 1.156-0.828 1.308-1.92 0.828-2.638-0.414-0.632-1.33-0.98-2.464-0.632l-5.234 1.658c0 1.744-2.136 3.052-3.336 3.052h-7.218c0.132-0.654 1.046-1.744 3.49-1.744h3.51c1.308 0 1.94-0.894 1.94-1.788s-0.654-1.81-1.94-1.81h-11.95z"></path>
      </symbol>
      <symbol id="icon-location" viewBox="0 0 23 32">
          <title>location</title>
          <path fill="#f5a623" style="fill: var(--color1, #f5a623)" d="M11.431 0c-0 0-0.001 0-0.001 0-6.313 0-11.431 5.118-11.431 11.431 0 1.774 0.404 3.455 1.126 4.953l-0.030-0.068c0.229 0.466 0.491 0.917 0.786 1.349l8.69 13.033c0.188 0.277 0.502 0.456 0.857 0.456s0.669-0.179 0.855-0.453l0.002-0.004 8.645-12.965c1.207-1.78 1.928-3.976 1.928-6.341 0-6.292-5.1-11.392-11.392-11.392-0.013 0-0.026 0-0.039 0h0.002zM11.431 16.919c-3.037 0-5.499-2.462-5.499-5.499s2.462-5.499 5.499-5.499v0c3.037 0 5.499 2.462 5.499 5.499s-2.462 5.499-5.499 5.499v0z"></path>
      </symbol>
      <symbol id="icon-company" viewBox="0 0 28 32">
          <title>company</title>
          <path fill="#f5a623" style="fill: var(--color1, #f5a623)" d="M0 0v32h7.898v-7.112h3.59v7.112h7.896v-32h-19.384zM2.154 2.134h3.59v3.554h-3.59v-3.554zM7.898 2.134h3.59v3.554h-3.59v-3.554zM13.642 2.134h3.588v3.554h-3.588v-3.554zM20.1 6.4v25.6h7.9v-25.6h-7.898zM2.152 7.822h3.59v3.558h-3.588v-3.56zM7.896 7.822h3.59v3.558h-3.588v-3.56zM13.64 7.822h3.588v3.558h-3.586v-3.56zM22.254 8.534h3.59v3.554h-3.59v-3.554zM2.154 13.512h3.59v3.554h-3.59v-3.554zM7.898 13.512h3.59v3.554h-3.59v-3.554zM13.642 13.512h3.588v3.554h-3.588v-3.554zM22.256 14.222h3.59v3.558h-3.59v-3.56zM2.154 19.2h3.59v3.556h-3.59v-3.556zM7.898 19.2h3.59v3.556h-3.59v-3.556zM13.642 19.2h3.588v3.556h-3.588v-3.556zM22.256 19.912h3.59v3.554h-3.59v-3.554zM22.256 25.6h3.59v3.556h-3.59v-3.556z"></path>
      </symbol>
      <symbol id="icon-calander" viewBox="0 0 30 32">
          <title>calander</title>
          <path fill="#f5a623" style="fill: var(--color1, #f5a623)" d="M27.034 3.066h-2.539v2.846c0 1.225-0.993 2.219-2.219 2.219s-2.219-0.993-2.219-2.219v0-2.846h-10.447v2.846c0 1.225-0.993 2.219-2.219 2.219s-2.219-0.993-2.219-2.219v0-2.846h-2.571c-1.446 0-2.603 1.152-2.603 2.59v22.413c0 1.44 1.156 2.59 2.603 2.59h24.431c1.446 0 2.603-1.152 2.603-2.59v-22.413c0-1.438-1.156-2.59-2.603-2.59zM28.126 28.068c0 0.608-0.482 1.088-1.092 1.088h-24.431c-0.003 0-0.007 0-0.011 0-0.597 0-1.082-0.484-1.082-1.082 0-0.002 0-0.005 0-0.007v0-15.251h26.65v15.253h-0.032z"></path>
          <path fill="#f49c20" style="fill: var(--color2, #f49c20)" d="M7.153 6.643c0.568-0.009 1.025-0.472 1.025-1.041 0-0.012-0-0.024-0.001-0.036l0 0.002v-4.493c0-0.010 0.001-0.022 0.001-0.034 0-0.57-0.458-1.033-1.026-1.041h-0.001c-0.567 0.010-1.022 0.472-1.022 1.041 0 0.012 0 0.024 0.001 0.036l-0-0.002v4.493c0 0.599 0.452 1.075 1.024 1.075zM21.973 6.643c0.567-0.010 1.022-0.473 1.022-1.041 0-0.012-0-0.024-0.001-0.036l0 0.002v-4.493c0-0.010 0.001-0.022 0.001-0.034 0-0.569-0.457-1.032-1.024-1.041h-0.001c-0.567 0.010-1.022 0.472-1.022 1.041 0 0.012 0 0.024 0.001 0.036l-0-0.002v4.493c0.032 0.599 0.482 1.075 1.024 1.075zM9.722 17.884h3.040c0.572-0.008 1.032-0.473 1.035-1.045v-1.997c0-0.57-0.469-1.045-1.035-1.045h-3.040c-0.572 0.008-1.032 0.473-1.035 1.045v1.997c0 0.57 0.469 1.045 1.035 1.045zM15.853 17.884h3.040c0.572-0.008 1.032-0.473 1.035-1.045v-1.997c0-0.57-0.469-1.045-1.035-1.045h-3.040c-0.572 0.008-1.032 0.473-1.035 1.045v1.997c0 0.57 0.469 1.045 1.035 1.045zM22.496 17.884h3.040c0.572-0.008 1.032-0.473 1.035-1.045v-1.997c0-0.57-0.469-1.045-1.035-1.045h-3.040c-0.572 0.008-1.032 0.473-1.035 1.045v1.997c0 0.57 0.439 1.045 1.035 1.045zM3.59 22.995h3.040c0.572-0.008 1.032-0.473 1.035-1.045v-1.997c0-0.572-0.469-1.045-1.035-1.045h-3.040c-0.572 0.008-1.032 0.473-1.035 1.045v1.995c0 0.572 0.437 1.045 1.035 1.045zM9.722 22.995h3.040c0.572-0.008 1.032-0.473 1.035-1.045v-1.997c0-0.572-0.469-1.045-1.035-1.045h-3.040c-0.572 0.008-1.032 0.473-1.035 1.045v1.995c0 0.572 0.469 1.045 1.035 1.045zM15.853 22.995h3.040c0.572-0.008 1.032-0.473 1.035-1.045v-1.997c0-0.572-0.469-1.045-1.035-1.045h-3.040c-0.572 0.008-1.032 0.473-1.035 1.045v1.995c0 0.572 0.469 1.045 1.035 1.045zM22.496 22.995h3.040c0.572-0.008 1.032-0.473 1.035-1.045v-1.997c0-0.572-0.469-1.045-1.035-1.045h-3.040c-0.572 0.008-1.032 0.473-1.035 1.045v1.995c0 0.572 0.439 1.045 1.035 1.045zM3.59 28.105h3.040c0.572-0.008 1.032-0.473 1.035-1.045v-1.997c0-0.572-0.469-1.045-1.035-1.045h-3.040c-0.572 0.008-1.032 0.473-1.035 1.045v1.997c0 0.57 0.437 1.045 1.035 1.045zM9.722 28.105h3.040c0.572-0.008 1.032-0.473 1.035-1.045v-1.997c0-0.572-0.469-1.045-1.035-1.045h-3.040c-0.572 0.008-1.032 0.473-1.035 1.045v1.997c0 0.57 0.469 1.045 1.035 1.045zM15.853 28.105h3.040c0.572-0.008 1.032-0.473 1.035-1.045v-1.997c0-0.572-0.469-1.045-1.035-1.045h-3.040c-0.572 0.008-1.032 0.473-1.035 1.045v1.997c0 0.57 0.469 1.045 1.035 1.045z"></path>
      </symbol>
  </defs>
</svg>

