<svg xmlns="http://www.w3.org/2000/svg" width="174" height="48" viewBox="0 0 174 48">
  <g fill="none" fill-rule="evenodd">
    <path fill="#FFF" d="M-22-21h1280v807H-22z"/>
    <path fill="#3532D5" d="M8.625 5.484c-.314.32-.472.714-.473 1.18l-.004 1.664c-.002.465.154.86.467 1.182.312.323.696.484 1.15.486l11.346.03c.67.002 1.302.137 1.896.405a4.968 4.968 0 0 1 1.537 1.069c.43.445.775.973 1.033 1.583.258.611.386 1.26.384 1.948l-.012 4.991a4.928 4.928 0 0 1-.395 1.946 5.091 5.091 0 0 1-1.041 1.577 4.949 4.949 0 0 1-1.543 1.061 4.584 4.584 0 0 1-1.897.394L0 24.943l.013-4.991 16.21.044c.454.001.837-.159 1.152-.48.314-.32.472-.713.473-1.18l.004-1.663a1.632 1.632 0 0 0-.467-1.183 1.547 1.547 0 0 0-1.15-.485l-11.347-.03a4.599 4.599 0 0 1-1.894-.405 4.94 4.94 0 0 1-1.538-1.07 5.1 5.1 0 0 1-1.034-1.583A4.923 4.923 0 0 1 .04 9.969L.05 4.98a4.92 4.92 0 0 1 .395-1.946 5.094 5.094 0 0 1 1.041-1.578A4.944 4.944 0 0 1 3.03.395 4.585 4.585 0 0 1 4.927 0L26 .057l-.013 4.991-16.21-.043a1.546 1.546 0 0 0-1.152.479M35.109 31L27 30.978l.051-19.993a4.938 4.938 0 0 1 .395-1.948 5.104 5.104 0 0 1 1.042-1.58 4.953 4.953 0 0 1 1.544-1.063A4.591 4.591 0 0 1 31.93 6l16.218.044c.67.002 1.302.137 1.896.405a4.967 4.967 0 0 1 1.538 1.07c.431.446.776.975 1.034 1.586.258.612.386 1.262.384 1.95l-.021 8.331a4.937 4.937 0 0 1-.394 1.948 5.106 5.106 0 0 1-1.043 1.58A4.954 4.954 0 0 1 50 23.976a4.584 4.584 0 0 1-1.899.395l-11.352-.03.013-4.999 6.487.018c.455 0 .838-.16 1.153-.48.314-.321.472-.715.473-1.182l.013-4.998c.001-.467-.155-.861-.467-1.184a1.545 1.545 0 0 0-1.15-.487l-6.488-.018a1.544 1.544 0 0 0-1.152.48 1.63 1.63 0 0 0-.474 1.182L35.11 31zM55.046 6.66l7.937.023L62.937 25 55 24.978l.046-18.317zm7.941-1.609L55.05 5.03 55.063 0 63 .022l-.013 5.03zM81.987 11.692l-9.8-.026-.017 6.654c-.001.466.156.86.47 1.182.316.323.702.484 1.16.486l8.166.022-.014 4.99-13.066-.035a4.65 4.65 0 0 1-1.909-.404 4.983 4.983 0 0 1-1.549-1.07 5.08 5.08 0 0 1-1.04-1.582A4.886 4.886 0 0 1 64 19.96L64.052 0l8.166.022-.018 6.654 9.8.026-.013 4.99zM91.123 18.314c-.002.465.154.86.467 1.181.313.323.698.484 1.152.486l6.495.017a1.55 1.55 0 0 0 1.154-.48c.314-.32.473-.713.474-1.178l.013-4.988c0-.466-.155-.86-.468-1.183a1.552 1.552 0 0 0-1.152-.485l-6.495-.018.013-4.989 11.366.032c.67.001 1.304.136 1.899.403a4.98 4.98 0 0 1 1.54 1.069c.431.445.776.972 1.035 1.583.258.61.386 1.26.384 1.946l-.021 8.315a4.916 4.916 0 0 1-.395 1.944 5.093 5.093 0 0 1-1.043 1.577c-.434.443-.95.795-1.545 1.06a4.604 4.604 0 0 1-1.9.394l-16.238-.044a4.605 4.605 0 0 1-1.898-.404 4.952 4.952 0 0 1-1.54-1.069 5.089 5.089 0 0 1-1.036-1.582A4.914 4.914 0 0 1 83 19.954L83.051 0l8.119.022-.047 18.292zM128.877 13.56a1.582 1.582 0 0 0-.467-1.16 1.565 1.565 0 0 0-1.152-.476l-6.495-.017a1.567 1.567 0 0 0-1.154.47 1.58 1.58 0 0 0-.474 1.157l-.013 4.894c0 .457.155.843.468 1.16.313.315.697.474 1.152.475l6.495.018-.013 4.893-11.366-.03a4.672 4.672 0 0 1-1.898-.397 4.956 4.956 0 0 1-1.54-1.048 4.976 4.976 0 0 1-1.036-1.552 4.734 4.734 0 0 1-.384-1.91l.021-8.156c.002-.674.133-1.31.395-1.907a4.991 4.991 0 0 1 1.043-1.548c.434-.433.949-.78 1.546-1.04a4.685 4.685 0 0 1 1.9-.386l16.237.043c.67.002 1.304.135 1.899.397a4.978 4.978 0 0 1 1.54 1.048 5 5 0 0 1 1.035 1.553A4.74 4.74 0 0 1 137 11.95L136.966 25l-8.118-.022.03-11.418zM139.063 0L147 .022 146.937 25 139 24.978zM148.063 0L156 .022 155.937 25 148 24.978z"/>
    <g fill="#FF6F00">
      <path d="M169.77 31.381c.417-.768.8-1.44 1.153-1.952.288-.416.544-.48.768-.192.48.576.736 1.952-.032 3.552-.704 1.44-2.304 3.84-3.072 5.536-.8 1.792-.832 3.168.256 3.104 1.312-.064 3.072-2.24 4.192-4.448.16-.288.384-.32.512-.032.128.288.128 1.088-.288 1.984-.832 1.76-2.848 3.52-4.608 3.424-1.728-.096-2.624-1.12-2.624-2.624-1.024 1.312-2.464 2.496-4 2.496-2.976 0-3.584-4.064-.928-7.936 2.592-3.776 5.12-5.216 6.72-5.216 1.376 0 2.016 1.056 1.952 2.304zm-2.526 4.545c2.016-3.52 2.304-5.504 1.376-5.6-1.024-.096-3.36 1.984-5.12 4.832-1.696 2.752-2.112 5.568-.864 5.6 1.312.032 2.976-2.016 4.608-4.832z"/>
      <path d="M156.338 31.26c-1.088 0-1.824-.48-2.08-.833-.32-.448-.128-.672.352-.64.896.032 1.792-.032 2.656-.128.992-1.76 1.888-3.264 2.432-3.968.288-.416.608-.384.768 0 .352.896.352 1.952-.416 3.616 1.248-.032 1.728.544 1.984.96.224.384.096.608-.384.608-.704-.096-1.696 0-2.496.128-1.248 2.144-3.072 5.248-4.288 7.936-1.056 2.336-.704 4.32.64 4.384 1.44.064 3.264-2.208 4.448-4.608.192-.384.544-.448.672 0 .16.512 0 1.088-.32 1.824-.416.928-2.528 3.744-5.088 3.648-2.112-.064-3.808-2.432-2.272-6.112.672-1.6 2.016-4.288 3.392-6.816z"/>
      <path d="M144.86 39.54c-1.024 2.943-.256 4.96 1.44 5.055 2.656.128 4.992-2.432 6.368-4.544.16-.256.416-.256.544.032.128.256.032 1.152-.544 1.984-1.344 1.952-3.808 3.424-6.272 3.456-4.064.064-5.472-3.936-3.392-8.064 2.08-4.128 5.344-5.792 6.944-4.864.8.48 1.376.96 1.888 1.664.576.768.32 2.72-1.024 4.352-1.568 1.92-3.712 2.752-5.952.928zm.19-1.143c1.569.992 2.88-.384 3.809-1.6 1.024-1.344 1.728-3.008 1.28-3.36-.672-.544-3.328 1.376-4.832 4.416a7.841 7.841 0 0 0-.256.544zM135.733 30.166c-1.28-.064-1.952-.768-2.176-1.28-.16-.352-.064-.512.32-.544 2.24-.192 5.12-1.76 7.264-1.888 1.632-.096 3.2.416 3.776 2.592.576 2.144-.032 3.936-1.12 5.344-.928 1.184-2.624 2.784-4.992 3.808.608.288 1.12.736 1.536 1.344.672.992.64 2.88-.736 4.384-1.408 1.536-3.808 2.656-5.6 2.976-1.216.224-1.984.192-2.688-.16-.64-.32-1.216-.864-1.632-1.472-.48-.704-.8-1.216-.064-3.264 1.28-3.584 3.712-8.256 6.112-11.84zM134 37.731c6.336-1.472 10.272-5.792 9.472-7.968-.64-1.664-3.808-.192-6.016.512.064.704-.16 1.664-.96 3.136-.64 1.184-1.568 2.688-2.496 4.32zM136.605 39c-.448.096-.896.16-1.344.224-.896.096-1.536 0-1.984-.224-.864 1.664-1.664 3.36-2.144 4.96-.352 1.12 0 1.504 1.024 1.376 2.048-.256 4.8-1.568 6.176-3.264 1.184-1.472 1.184-2.912-1.728-3.072z"/>
    </g>
  </g>
</svg>
