<?xml version="1.0" encoding="UTF-8"?>
<svg width="165px" height="33px" viewBox="0 0 165 33" version="1.1" xmlns="http://www.w3.org/2000/svg" xmlns:xlink="http://www.w3.org/1999/xlink">
    <!-- Generator: sketchtool 48.1 (47250) - http://www.bohemiancoding.com/sketch -->
    <title>CE9F3619-3E39-4E87-8540-EEA84783470E</title>
    <desc>Created with sketchtool.</desc>
    <defs></defs>
    <g id="Home-page1" stroke="none" stroke-width="1" fill-rule="evenodd" transform="translate(-35.000000, -18.000000)">
        <g id="Page-1-Copy" transform="translate(35.000000, 18.000000)">
            <path d="M8.96561749,5.98467493 C8.63906397,6.30950522 8.47492559,6.70757311 8.47363316,7.1793094 L8.46932507,8.86463577 C8.46803264,9.33637206 8.63001697,9.73616319 8.95484726,10.0622859 C9.27924674,10.3892702 9.67817624,10.552547 10.1499125,10.5538394 L21.9446123,10.5848577 C22.6408003,10.5870117 23.2977846,10.7235783 23.9155653,10.9945574 C24.5320535,11.2659674 25.0645339,11.6269856 25.5130065,12.0771815 C25.9606175,12.5282389 26.3190509,13.0624426 26.5870144,13.6810849 C26.8554086,14.2997272 26.9880979,14.9571423 26.9863747,15.6537611 L26.9730196,20.7084478 C26.9708655,21.4046358 26.8347298,22.0616201 26.5633198,22.67897 C26.2919099,23.2963198 25.9308916,23.8288003 25.4806958,24.2764112 C25.0300692,24.7248838 24.4954347,25.0828864 23.8772232,25.3508499 C23.2581501,25.6188133 22.600735,25.7519334 21.9049778,25.7497794 L4.30809399e-05,25.6920509 L0.0133981723,20.6373642 L16.8632154,20.6817376 C17.3353825,20.68303 17.7338812,20.5210457 18.0608655,20.1962154 C18.3869883,19.8718159 18.5511266,19.4733172 18.5524191,19.0011501 L18.557158,17.3162546 C18.5584504,16.8445183 18.3960352,16.445158 18.0716358,16.1181736 C17.7463747,15.7920509 17.3483068,15.6283433 16.8765705,15.6270509 L5.08143995,15.5960326 C4.38525196,15.5938786 3.72826762,15.4568812 3.11177937,15.1863329 C2.49399869,14.914923 1.96108747,14.5543355 1.5134765,14.1037089 C1.06500392,13.6526514 0.707432115,13.1188786 0.439037859,12.4998055 C0.171074413,11.881594 0.0383851175,11.2241789 0.0401083551,10.5271292 L0.0534634465,5.47244256 C0.0551866841,4.77625457 0.191753264,4.11927023 0.463163185,3.50192037 C0.734573107,2.88500131 1.09472977,2.35252089 1.54578721,1.9040483 C1.99598303,1.45643734 2.53018668,1.09800392 3.1496906,0.83004047 C3.76790209,0.562077023 4.42531723,0.428956919 5.12150522,0.430680157 L27.0264399,0.488839426 L27.0130849,5.54352611 L10.1632676,5.49915274 C9.69196214,5.49786031 9.29174021,5.66027546 8.96561749,5.98467493" id="Fill-1"></path>
            <path d="M37.1459804,32.5299439 L28.7210718,32.5079726 L28.7744922,12.2879334 C28.7766462,11.5921762 28.912782,10.9351919 29.1841919,10.317842 C29.4556018,9.70092298 29.8161893,9.16801175 30.2668159,8.71996997 C30.7170117,8.2719282 31.2516462,7.91392559 31.8707193,7.64553133 C32.4889308,7.37799869 33.146346,7.24487859 33.8429648,7.24660183 L50.692782,7.29140601 C51.38897,7.29269843 52.0455235,7.42969582 52.6633042,7.70067493 C53.2802232,7.97208486 53.8127037,8.33310313 54.2611762,8.78329896 C54.7087872,9.23392559 55.0672206,9.76856005 55.3351841,10.3872023 C55.6031475,11.0058446 55.7358368,11.6632598 55.7341136,12.3594478 L55.7121423,20.7843564 C55.7099883,21.4809752 55.5738525,22.1375287 55.3024426,22.7548786 C55.0310326,23.3722285 54.6700144,23.9047089 54.2198185,24.3527507 C53.7687611,24.8012232 53.2345574,25.158795 52.616346,25.4267585 C51.9972728,25.6947219 51.3398577,25.827842 50.6436697,25.825688 L38.8485392,25.7946697 L38.8618943,20.739983 L45.6023381,20.7576462 C46.0745052,20.7589386 46.4730039,20.5969543 46.7999883,20.272124 C47.126111,19.9477245 47.2902493,19.5492258 47.2915418,19.0770587 L47.3053277,14.0223721 C47.3061893,13.5506358 47.144205,13.1512755 46.8193747,12.8247219 C46.4945444,12.4981684 46.0964765,12.33403 45.6247402,12.3327376 L38.8842963,12.3146436 C38.4129909,12.3133512 38.0131997,12.4757663 37.687077,12.8005966 C37.3600927,13.1254269 37.1963851,13.5239256 37.1950927,13.9956619 L37.1459804,32.5299439 Z" id="Fill-4"></path>
            <path d="M57.303983,7.30863838 L65.7284608,7.33104047 L65.6793486,25.8657533 L57.2548708,25.8433512 L57.303983,7.30863838 Z M65.7327689,5.67974804 L57.3082911,5.65734595 L57.322077,0.568625326 L65.7465548,0.591027415 L65.7327689,5.67974804 Z" id="Fill-6"></path>
            <path d="M86.0853251,12.4394491 L75.9750901,12.4127389 L75.9574269,19.1531828 C75.9561345,19.6249191 76.1181188,20.0242794 76.4429491,20.3504021 C76.7677794,20.6773864 77.1667089,20.841094 77.6380144,20.8423864 L86.0633538,20.8647885 L86.0495679,25.9194752 L72.5695418,25.8841488 C71.8733538,25.8819948 71.2163695,25.745859 70.5998812,25.4744491 C69.9821005,25.2030392 69.4496201,24.8424517 69.0015783,24.3918251 C68.5531057,23.9416292 68.1955339,23.4069948 67.9275705,22.7883525 C67.6591762,22.1697102 67.5264869,21.512295 67.5282102,20.8156762 L67.5816305,0.596067885 L76.0065392,0.618469974 L75.9884452,7.35805222 L86.0986802,7.3847624 L86.0853251,12.4394491 Z" id="Fill-8"></path>
            <path d="M96.2579413,19.2068185 C96.2566488,19.6785548 96.4186332,20.0779151 96.7434634,20.4040379 C97.0678629,20.7310222 97.4672232,20.8947298 97.9380979,20.8960222 L104.678542,20.9141162 C105.150709,20.9149778 105.549208,20.7534243 105.876192,20.4281632 C106.202315,20.1037637 106.366884,19.705265 106.368176,19.2335287 L106.381531,14.178842 C106.382393,13.7066749 106.220409,13.3073146 105.896009,12.9807611 C105.570748,12.6546384 105.17268,12.4900692 104.700944,12.4887768 L97.9605,12.4711136 L97.9738551,7.41599608 L109.768986,7.44744517 C110.465174,7.44916841 111.121727,7.5861658 111.739508,7.8567141 C112.356427,8.12812402 112.888907,8.48957311 113.33738,8.93933812 C113.784991,9.39039556 114.143424,9.92459922 114.411388,10.5432415 C114.679351,11.1618838 114.812471,11.8197298 114.810317,12.5154869 L114.788346,20.9408264 C114.786192,21.6370144 114.650056,22.2939987 114.378646,22.9113486 C114.107236,23.5282676 113.746218,24.0611789 113.296022,24.5087898 C112.845396,24.9572624 112.310761,25.3148342 111.69298,25.5827977 C111.073477,25.8511919 110.416061,25.9838812 109.720304,25.982158 L92.8700561,25.9377846 C92.1738681,25.9356305 91.5168838,25.7994948 90.8999648,25.5280849 C90.2821841,25.2566749 89.7501345,24.8960875 89.3020927,24.4454608 C88.8536201,23.995265 88.4960483,23.4606305 88.227654,22.8419883 C87.9596906,22.223346 87.8270013,21.5659308 87.8287245,20.869312 L87.8821449,0.649703655 L96.3070535,0.672105744 L96.2579413,19.2068185 Z" id="Fill-10"></path>
            <path d="M135.38543,14.2554399 C135.386722,13.7832728 135.224307,13.3843433 134.899907,13.057359 C134.575077,12.7312363 134.177009,12.5666671 133.705273,12.5653747 L126.964829,12.5477115 C126.493523,12.5464191 126.093732,12.7088342 125.767179,13.0332337 C125.440625,13.358064 125.276487,13.7565627 125.275195,14.2287298 L125.261839,19.2834164 C125.260978,19.7555836 125.422531,20.1545131 125.747362,20.4810666 C126.072192,20.8076201 126.471121,20.9713277 126.942427,20.9726201 L133.682871,20.9907141 L133.669516,26.0454008 L121.874385,26.0143825 C121.177766,26.0126593 120.521213,25.8760927 119.904294,25.6046828 C119.286513,25.3332728 118.754033,24.9726854 118.305991,24.5220587 C117.857518,24.0718629 117.499946,23.5372285 117.231983,22.9185862 C116.96402,22.2999439 116.830899,21.6425287 116.833054,20.9459099 L116.855025,12.5210013 C116.857179,11.8248133 116.993315,11.1682598 117.264725,10.5509099 C117.536134,9.93356005 117.896722,9.40107963 118.347349,8.95260705 C118.797544,8.50499608 119.331748,8.14656266 119.951252,7.87859922 C120.569463,7.61106658 121.226879,7.47751567 121.923067,7.4792389 L138.773315,7.52404308 C139.469072,7.52576632 140.126056,7.66276371 140.743837,7.93374282 C141.360325,8.20515274 141.892805,8.56574021 142.341278,9.01593603 C142.78932,9.46699347 143.147322,10.0011971 143.415717,10.6202702 C143.68368,11.2389125 143.816369,11.8963277 143.814646,12.5920849 L143.778889,26.072111 L135.354411,26.0497089 L135.38543,14.2554399 Z" id="Fill-12"></path>
            <polygon id="Fill-14" points="146.029868 0.803373368 154.454346 0.825775457 154.388001 26.1000705 145.963093 26.0776684"></polygon>
            <polygon id="Fill-16" points="156.290025 0.83051436 164.714933 0.852916449 164.647727 26.1272115 156.223249 26.1048094"></polygon>
        </g>
    </g>
</svg>