<?xml version="1.0" encoding="UTF-8"?>
<svg viewBox="0 0 128 25" version="1.1" xmlns="http://www.w3.org/2000/svg" xmlns:xlink="http://www.w3.org/1999/xlink">
    <g stroke="none" stroke-width="1" fill-rule="evenodd">
        <g class="filler"  transform="translate(-42.000000, -23.000000)" fill-rule="nonzero">
            <g  transform="translate(0.000000, -1.000000)">
                <g  transform="translate(42.000000, 24.000000)">
                    <path d="M6.81256198,4.30442478 C6.55867769,4.56269027 6.43173554,4.864 6.43173554,5.20835398 L6.43173554,6.49968142 C6.43173554,6.8440354 6.55867769,7.18838938 6.81256198,7.40361062 C7.06644628,7.66187611 7.36264463,7.79100885 7.70115702,7.79100885 L16.6294215,7.79100885 C17.1371901,7.79100885 17.6449587,7.87709735 18.1104132,8.09231858 C18.5758678,8.30753982 18.9990083,8.56580531 19.3375207,8.91015929 C19.6760331,9.25451327 19.9299174,9.68495575 20.1414876,10.1584425 C20.3530579,10.6319292 20.437686,11.1484602 20.437686,11.6649912 L20.437686,15.5820177 C20.437686,16.0985487 20.3530579,16.6150796 20.1414876,17.0885664 C19.9299174,17.5620531 19.6760331,17.9924956 19.3375207,18.3368496 C18.9990083,18.6812035 18.5758678,18.939469 18.1104132,19.1546903 C17.6449587,19.3699115 17.1371901,19.456 16.6294215,19.456 L0,19.456 L0,15.5389735 L12.778843,15.5389735 C13.1173554,15.5389735 13.4558678,15.4098407 13.667438,15.1515752 C13.9213223,14.8933097 14.0482645,14.592 14.0482645,14.247646 L14.0482645,12.9563186 C14.0482645,12.6119646 13.9213223,12.2676106 13.667438,12.0523894 C13.4135537,11.7941239 13.1173554,11.6649912 12.778843,11.6649912 L3.85057851,11.6649912 C3.34280992,11.6649912 2.83504132,11.5789027 2.36958678,11.3636814 C1.90413223,11.1484602 1.48099174,10.8901947 1.14247934,10.5458407 C0.803966942,10.2014867 0.550082645,9.77104425 0.338512397,9.29755752 C0.126942149,8.8240708 0.0423140496,8.30753982 0.0423140496,7.79100885 L0.0423140496,3.8739823 C0.0423140496,3.35745133 0.126942149,2.84092035 0.338512397,2.36743363 C0.550082645,1.8939469 0.803966942,1.46350442 1.14247934,1.11915044 C1.48099174,0.77479646 1.90413223,0.516530973 2.36958678,0.301309735 C2.83504132,0.0860884956 3.34280992,0 3.85057851,0 L20.48,0 L20.48,3.91702655 L7.70115702,3.91702655 C7.36264463,3.9600708 7.06644628,4.08920354 6.81256198,4.30442478 Z" id="XMLID_625_"></path>
                    <path d="M28.9439336,24.576 L22.528,24.576 L22.528,8.98543046 C22.528,8.47003974 22.6129793,7.95464901 22.8254274,7.48220751 C23.0378755,7.009766 23.2928133,6.58027373 23.6327303,6.23667991 C23.9726473,5.89308609 24.3975436,5.63539073 24.8649295,5.42064459 C25.3323154,5.20589845 25.8421909,5.12 26.3520664,5.12 L39.1839336,5.12 C39.6938091,5.12 40.2036846,5.20589845 40.6710705,5.42064459 C41.1384564,5.63539073 41.5633527,5.89308609 41.9032697,6.23667991 C42.2431867,6.58027373 42.4981245,7.009766 42.7105726,7.48220751 C42.9230207,7.95464901 43.008,8.47003974 43.008,8.98543046 L43.008,15.4707638 C43.008,15.9861545 42.9230207,16.5015453 42.7105726,16.9739868 C42.4981245,17.4464283 42.2431867,17.8759205 41.9032697,18.2195143 C41.5633527,18.5631082 41.1384564,18.8208035 40.6710705,19.0355497 C40.2036846,19.2502958 39.6938091,19.3361943 39.1839336,19.3361943 L30.2186224,19.3361943 L30.2186224,15.4278146 L35.3598672,15.4278146 C35.6997842,15.4278146 36.0397012,15.2989669 36.2521494,15.0412715 C36.5070871,14.7835762 36.634556,14.4829316 36.634556,14.1393377 L36.634556,10.2309581 C36.634556,9.88736424 36.5070871,9.54377042 36.2521494,9.32902428 C35.9972116,9.07132892 35.6997842,8.94248124 35.3598672,8.94248124 L30.2186224,8.94248124 C29.8787054,8.94248124 29.5387884,9.07132892 29.3263402,9.32902428 C29.0714025,9.58671965 28.9439336,9.88736424 28.9439336,10.2309581 L28.9439336,24.576 Z" id="XMLID_565_"></path>
                    <path d="M51.2,3.90837969 L45.056,3.90837969 L45.056,0 L51.2,0 L51.2,3.90837969 Z M45.056,5.19685651 L51.2,5.19685651 L51.2,19.456 L45.056,19.456 L45.056,5.19685651 L45.056,5.19685651 Z" id="XMLID_525_"></path>
                    <path d="M59.7682892,9.06228698 L59.7682892,14.2591435 C59.7682892,14.6027373 59.8978313,14.9463311 60.1569157,15.1610773 C60.416,15.4187726 60.7182651,15.5476203 61.0637108,15.5476203 L67.584,15.5476203 L67.584,19.456 L57.1342651,19.456 C56.6160964,19.456 56.0979277,19.3701015 55.6229398,19.1553554 C55.1479518,18.9406093 54.7161446,18.6829139 54.3706988,18.3393201 C54.025253,17.9957263 53.7661687,17.566234 53.5502651,17.0937925 C53.3343614,16.621351 53.248,16.1059603 53.248,15.5905695 L53.248,0 L59.7682892,0 L59.7682892,5.19685651 L67.584,5.19685651 L67.584,9.06228698 L59.7682892,9.06228698 Z" id="XMLID_519_"></path>
                    <path d="M75.0239336,14.3223769 C75.0239336,14.6674945 75.1514025,15.012612 75.4063402,15.2283104 C75.661278,15.4871486 75.9587054,15.6165676 76.2986224,15.6165676 L81.4398672,15.6165676 C81.7797842,15.6165676 82.1197012,15.4871486 82.3321494,15.2283104 C82.5870871,14.9694723 82.714556,14.6674945 82.714556,14.3223769 L82.714556,10.3966652 C82.714556,10.0515477 82.5870871,9.70643016 82.3321494,9.49073171 C82.0772116,9.23189357 81.7797842,9.1024745 81.4398672,9.1024745 L76.2986224,9.1024745 L76.2986224,5.17676275 L85.2639336,5.17676275 C85.7738091,5.17676275 86.2836846,5.26304213 86.7510705,5.47874058 C87.2184564,5.69443902 87.6433527,5.95327716 87.9832697,6.29839468 C88.3231867,6.6435122 88.5781245,7.07490909 88.7905726,7.54944568 C89.0030207,8.02398226 89.088,8.54165854 89.088,9.05933481 L89.088,15.5734279 C89.088,16.0911042 89.0030207,16.6087805 88.7905726,17.0833171 C88.5781245,17.5578537 88.3231867,17.9892506 87.9832697,18.3343681 C87.6433527,18.6794856 87.2184564,18.9383237 86.7510705,19.1540222 C86.2836846,19.3697206 85.7738091,19.456 85.2639336,19.456 L72.4320664,19.456 C71.9221909,19.456 71.4123154,19.3697206 70.9449295,19.1540222 C70.4775436,18.9383237 70.0526473,18.6794856 69.7127303,18.3343681 C69.3728133,17.9892506 69.1178755,17.5578537 68.9054274,17.0833171 C68.6929793,16.6087805 68.608,16.0911042 68.608,15.5734279 L68.608,0 L75.0239336,0 L75.0239336,14.3223769 L75.0239336,14.3223769 Z" id="XMLID_225_"></path>
                    <path d="M105.200066,10.3291772 C105.200066,9.98476877 105.072598,9.64036036 104.81766,9.42510511 C104.562722,9.1667988 104.265295,9.03764565 103.925378,9.03764565 L98.7841328,9.03764565 C98.4442158,9.03764565 98.1042988,9.1667988 97.8918506,9.42510511 C97.6369129,9.68341141 97.509444,9.98476877 97.509444,10.3291772 L97.509444,14.2468228 C97.509444,14.5912312 97.6369129,14.9356396 97.8918506,15.1508949 C98.1467884,15.4092012 98.4442158,15.5383544 98.7841328,15.5383544 L103.925378,15.5383544 L103.925378,19.456 L94.9600664,19.456 C94.4501909,19.456 93.9403154,19.3698979 93.4729295,19.1546426 C93.0055436,18.9393874 92.5806473,18.6810811 92.2407303,18.3366727 C91.9008133,17.9922643 91.6458755,17.5617538 91.4334274,17.0881922 C91.2209793,16.6146306 91.136,16.098018 91.136,15.5814054 L91.136,8.99459459 C91.136,8.47798198 91.2209793,7.96136937 91.4334274,7.48780781 C91.6458755,7.01424625 91.9008133,6.58373574 92.2407303,6.23932733 C92.5806473,5.89491892 93.0055436,5.63661261 93.4729295,5.42135736 C93.9403154,5.2061021 94.4501909,5.12 94.9600664,5.12 L107.791934,5.12 C108.301809,5.12 108.811685,5.2061021 109.279071,5.42135736 C109.746456,5.63661261 110.171353,5.89491892 110.51127,6.23932733 C110.851187,6.58373574 111.106124,7.01424625 111.318573,7.48780781 C111.531021,7.96136937 111.616,8.47798198 111.616,8.99459459 L111.616,19.4129489 L105.200066,19.4129489 L105.200066,10.3291772 L105.200066,10.3291772 Z" id="XMLID_163_"></path>
                    <polygon id="XMLID_161_" points="114.688 0 120.832 0 120.832 19.456 114.688 19.456"></polygon>
                    <polygon id="XMLID_159_" points="121.856 0 128 0 128 19.456 121.856 19.456"></polygon>
                </g>
            </g>
        </g>
    </g>
</svg>