<svg xmlns="http://www.w3.org/2000/svg" width="36" height="21" viewBox="0 0 36 21">
    <g fill="none" fill-rule="nonzero">
        <path fill="#3293F6" d="M1.038 13.784c.247.246.567.468.913.616.345.148.715.222 1.11.222h6.657a.91.91 0 0 1 .666.271c.172.173.27.42.27.666v.345a32.859 32.859 0 0 0 4.76-1.036v-.246a2.842 2.842 0 0 0-.838-2.022 2.976 2.976 0 0 0-.913-.616 2.787 2.787 0 0 0-1.11-.222H5.896a.91.91 0 0 1-.666-.272.953.953 0 0 1-.271-.665v-.962a.91.91 0 0 1 .271-.666.953.953 0 0 1 .666-.271h9.518v-2.86H3.06c-.394 0-.764.074-1.11.222-.37.148-.665.37-.912.616a2.976 2.976 0 0 0-.616.912A2.787 2.787 0 0 0 .2 8.926v2.86c0 .395.074.765.222 1.11.148.345.37.641.616.888z"/>
        <path fill="#FFF" d="M9.767 17.482H.2v2.86h12.378a2.842 2.842 0 0 0 2.022-.838c.247-.246.468-.567.616-.912.148-.345.222-.715.222-1.11v-.616a30.218 30.218 0 0 1-5.67.616zM30.775 10.701a2.976 2.976 0 0 0-.912-.616 3.492 3.492 0 0 0-.542-.173 27.652 27.652 0 0 1-3.674 2.787h.246a.91.91 0 0 1 .666.27c.173.173.271.42.271.667v2.885a.91.91 0 0 1-.271.665.953.953 0 0 1-.666.272h-3.797a.91.91 0 0 1-.666-.272.953.953 0 0 1-.271-.665v-1.43c-.912.394-1.85.74-2.811 1.035a25.09 25.09 0 0 1-1.948.518v.814a2.842 2.842 0 0 0 .838 2.022c.247.246.567.468.913.616.345.148.715.222 1.11.222h9.517a2.842 2.842 0 0 0 2.022-.838c.247-.247.468-.568.616-.913.148-.345.222-.715.222-1.11v-4.734c0-.394-.074-.764-.222-1.11a5.014 5.014 0 0 0-.64-.912z"/>
        <path fill="#3293F6" d="M25.203 9.863h-3.107v2.096c1.085-.641 2.145-1.332 3.107-2.096zM21.134 12.501V6.066h-4.759v8.507a29.51 29.51 0 0 0 4.76-2.072z"/>
        <g fill="#FFF">
            <path d="M32.113.395c.052-.1.154-.222.206-.395-.154.05-.36.099-.36.271.051.025.051 0 .103 0 .025.05.025.099.025.148.026.025 0-.074.026-.024zM33.636.641c-.42.05-.765-.173-1.06-.296.221.197.764.543 1.06.296zM34.036 2.195c-.072.123-.18.221-.252.345.108.148.252.345.324.518-.072-.321-.108-.642 0-.987-.036.05-.144.074-.072.124-.036-.025-.036-.025 0 0z"/>
            <path d="M30.85.888c-.05.024-.05.049-.075.098.05.05.124 0 .148.025-.024.05-.098.173-.148.123.025.05-.024.099-.024.173.172-.099.394.025.616 0-.025.271.197.592.32.789-.049-.074-.024-.148 0-.197-.024 0 0 .049-.024.049 0-.05.025-.05.025-.074-.074-.222-.05-.469 0-.69-.025-.025-.05-.025-.05-.074.025-.025.025-.148-.024-.148.049.024.123.049.123-.025l-.074-.074c.025-.025.025-.05.074-.05.345.395.962.568 1.233 1.012.05 0 .123-.025.197-.025v.173c-.025 0-.099-.074-.123-.074.024.024.074.074.074.123-.05.05-.148-.074-.222-.05.197.568.567 1.012.912 1.455.074 0 .148-.024.222-.024 0-.074-.025-.173-.025-.247v.074c-.147-.394-.493-.69-.468-1.183-.05 0-.025.074-.05.074-.37-.148.1-.839-.049-1.085-.172.074-.37.098-.542.148-.296-.173-.345-.69-.814-.617.025-.074.123-.222.148-.222-.074 0-.074.123-.148.074-.024.074-.098.148-.05.271-.295 0-.369-.246-.468-.419-.172 0-.246.025-.32.124-.025-.074-.197-.173-.247-.148.074.123.173.221.247.32-.123.123-.37.148-.543.222.025.074.099.074.148.099z"/>
            <path d="M33.512 2.047c.074-.124.05-.395.148-.444.074.197.074.493.173.715.074-.173 0-.296.05-.42-.075-.024-.025-.172-.075-.147 0-.025.025-.025.025-.025-.123-.123-.074-.32-.222-.444 0 .296-.074.493-.099.765zM35.682 5.277c-.074-.025-.098.148-.123.098 0 .074.074.05.074.124-.148.27-.469.394-.814.468 0 .025 0 .074-.024.148-1.579.074-3.379-.394-4.685-1.01-.099-.321-.395-.815-.247-1.086.025.099.05.173.074.222 0-.099.074-.123.05-.222-.05-.024 0 .05-.025.05-.025-.05.074-.074.024-.124.099 0 .05.099.099.05.025.098-.05.024-.05.123.05.024 0-.05.025-.05.025.025 0 .05 0 .074 0-.024.025-.024.05-.024-.025.05 0 .024.024.05-.024.024-.074-.026-.074.024s-.024.05.025.074c-.025 0-.074.024-.099.024.025.148.124.173.296.173.197-.493.05-1.085.444-1.331 0 .073-.074.123-.05.197.346-.271.272-.987.247-1.307.198.173.345.37.493.567 0 .025-.074 0-.074.025 0 .098.198.024.198.172-.124.099-.173.346-.124.493.025-.123-.024-.295.074-.32 0 .025-.049.05 0 .074.05-.074.05-.173.124-.197.098.074.27.172.394.197-.05-.05-.074-.123-.098-.173.024 0 .049 0 .049-.049-.025-.074-.148-.099-.173-.173.025 0 .05 0 .025-.024-.493-.247-.838-.937-1.529-.765.025-.074.197-.172.074-.246-.098.074-.246.074-.37.074-.024-.025-.098-.074-.098-.124.123-.049.27-.123.394-.123 0-.098.148-.025.197-.05 0-.048.05-.048.025-.073a.245.245 0 0 1-.222-.025c-.024.025-.024.05-.074.025 0 .05-.024.074-.05.074 0-.025.026-.05 0-.074-.073.074-.147.172-.295.148-.025.05-.05.05-.05.098l.1.1-.05.098c.05.123.099.27.173.394.246-.074.517-.123.74-.246.123.049.123.27.073.419-.27.074-.468-.025-.715-.05.074.148.395.124.518.272-.32 0-.542-.124-.616-.272.024.05.049.074 0 .124-.124-.025-.198.098-.296.05-.05.048-.099.073-.099.147 0 .025.074.025.05.074-.05.025-.1.074-.1.123 0-.049 0-.098.025-.148-.123.05-.246.074-.32.148 0 .124.025.247.074.346.025-.025.074-.025.123-.05.05.05.074.074.123.099-.024.05-.098.024-.074.098.716.1.148.987.272 1.48.098.394.493.764 1.01.888.075.123-.024.27-.024.419.025 0 .025-.025.074 0-.025.024-.05.05-.025.098-.049-.024-.049.025-.098.05-.79-.518-1.06-1.48-1.381-2.293.025-.025 0-.05.025-.074-.074-.05-.025-.148-.05-.247.074-.05.123.05.197 0-.049-.074-.147-.099-.172-.173.025-.049 0-.074.05-.098-.1-.074-.173-.025-.272.024 0-.024-.025-.049-.025-.074 0 .025.025.05.025.1-.025 0-.025.024-.05.024-.049-.025-.049-.05-.073-.099-.148.592-.173 1.06-.222 1.652.764.839 1.775 1.554 2.81 2.195.025-.025.05-.05.05-.099.37.592 1.11.025 1.627 0 .025.074-.024.197.025.247 1.011-.346 1.948-1.184 2.49-1.874.05-.05.05-.124.025-.198.099-.074.05-.246.099-.32a.889.889 0 0 0-.247.37zm-3.55 1.01c-.025.025.024.025.049.025-.025.025-.074 0-.099.025-.024-.099-.05-.148-.05-.271-.172-.124-.344-.271-.542-.345.173.024.37.147.494.246 0-.025-.025-.025 0-.05.123.149.345.247.443.395-.074.05-.197-.024-.295-.024zm.863-.073c-.074 0-.173.024-.173.098h-.025c.025-.024-.05-.024-.074-.024h0c-.27-.173-.542-.395-.887-.518.419.123.912.222 1.306.394-.049.025-.098.025-.172.025-.025 0 0 .025.025.025zm.789.098c-.025 0 .024.025 0 .05-.198.074-.42.197-.716.123.025-.025.05-.025 0-.025.025-.024.025-.049.025-.074.123.099.271-.049.42-.049 0-.025-.025-.025 0-.05.049-.024.197-.049.27.025z"/>
            <path d="M35.953 3.773c-.049-.05.05-.124.025-.124 0 .025-.05 0-.074-.024 0 0 0-.025.025-.074-.025 0-.05 0-.05-.025h.05c-.074-.025-.025-.099-.05-.148-.024 0-.098-.123-.049-.148-.123-.197-.172-.468-.32-.666.049.247.049.617.123.814-.247-.173-.518.074-.79-.025-.024 0-.048.05-.098.05-.05-.124-.222-.148-.296-.271-.049 0-.024.049-.024.073.246.124.246.395.468.568.074.024.099.024.148.049-.025-.05-.05-.05-.074-.099.05 0 .05-.024.074-.024-.025-.025-.05-.05-.074-.025 0-.074-.197-.074-.099-.173.148 0 .296-.049.42-.074.049-.024.024-.098.098-.074-.024.025.025.025.025.05-.025.024 0 .024 0 .05.099 0 .148.048.222.048.025-.049.025-.024.05-.049.024.025.024.05.024.05-.025.098.025.197.098.172-.024.05.025 0 .025.025 0 .074-.123.098-.05.172-.048.025-.073.05-.122.05 0-.025 0-.025-.025-.05-.05 0-.099 0-.123.025.049-.05-.074-.074.024-.099h-.05c.05-.05-.048-.123-.098-.074-.024.099.025.148 0 .247.05 0 .099-.074.124-.05-.05.1-.074.247-.198.247 0 .05-.024.05-.024.099-.099-.025-.074.05-.148 0 0 .074-.124 0-.124.098.05.05.1.05.173.05 0 .024-.025.074 0 .098h.05c.024 0 0-.024.024-.024.025 0 .074 0 .074.024 0 .05-.05 0-.05.025.025 0 .075.025.075 0 .098-.123.27-.37.296-.542.049 0 .074-.074.123-.074.024.147.074.394-.05.542 0-.025 0-.025-.024-.025 0 .074-.074.198-.025.272.025-.05.05 0 .074-.025.025-.222.148-.641.197-.912-.024.024-.049.098-.074.123 0-.074.05-.123.074-.123zM34.72 5.178c.124-.074.05-.197 0-.32-.098-.025-.147.024-.197.074.099.024.222.073.124.147-.1-.147-.518-.123-.592.05.024 0 .024.024.05.024-.026-.024-.075 0-.026.025.025 0 .1.05.1.123h-.026c-.049 0-.148-.123-.098-.172-.05-.025-.05-.074-.074-.124.05-.024.148-.049.123-.123-.074.074-.197.05-.271.074 0 .074.123.025.123.074-.271.099-.69 0-1.01.05-.543-.124-1.184-.494-1.702-.716-.123.025-.296 0-.296-.148-.099-.049-.197-.221-.222-.37.025 0 .025.025.025.025-.025-.074.024-.148-.05-.197-.024.05.05.099.025.123 0-.05 0-.05-.05-.024-.024-.05.025-.025 0-.05-.32.05.223-.542.272-.616.025-.074.074-.123.074-.197-.05.049-.099.074-.148.098a4.062 4.062 0 0 1-.469.666c.025.173-.073.42-.123.616.05 0 .025.025.05 0 0 .124.073.124.098.222.025 0 .05-.024.05 0 0 .025-.025.025-.025.05h.05c0 .049.048.074.024.123.123.074.345.222.394.42 0-.026.05 0 .05-.026.049.025.049.074.074.124 0-.074.049-.124.024-.148.074 0 .05-.123.124-.148.517.345 2.219.025 2.663.592-.025.024-.025.024-.025.074.025.024.074.049.025.049.197-.05.32-.222.468-.247-.025 0-.025 0-.025-.024.124 0 .148-.099.247-.124-.025.05 0 .05-.025.074.025 0 .05 0 .05.05-.025 0-.025-.025-.025 0 .025.024.05.024.05.049-.075-.025-.025-.025-.05.025-.025-.025-.099-.025-.123-.025.024 0 .024.05 0 .05.049 0 .049.049.024.073.074.074.222.198.272.222 0-.172-.025-.32.024-.493-.05-.025-.05 0-.123 0 .025-.025.05-.05.05-.074 0 .025 0 0 .024 0 .025-.025 0 0 .025 0z"/>
            <path d="M34.472 5.35H34.4c.036.037.072.037.072 0z"/>
        </g>
    </g>
</svg>
