<?xml version="1.0" encoding="UTF-8"?>
<svg width="19px" height="19px" viewBox="0 0 19 19" version="1.1" xmlns="http://www.w3.org/2000/svg" xmlns:xlink="http://www.w3.org/1999/xlink">
    <!-- Generator: sketchtool 46.2 (44496) - http://www.bohemiancoding.com/sketch -->
    <title>4AFCE510-1060-4BBA-BDE3-73E7B16AF097</title>
    <desc>Created with sketchtool.</desc>
    <defs></defs>
    <g id="Breakpoints" stroke="none" stroke-width="1" fill="none" fill-rule="evenodd">
        <g id="Screen-1280" transform="translate(-307.000000, -23.000000)" fill-rule="nonzero" fill="#BBBBBB">
            <g id="Header-+-Search-bar" transform="translate(0.000000, -1.000000)">
                <path d="M314.83678,24 C310.525565,24 307,27.5255134 307,31.8367983 C307,36.1480594 310.525565,39.6735823 314.83678,39.6735823 C316.479875,39.6735823 318.004054,39.1583259 319.26722,38.2858217 L323.564113,42.5826975 C324.120528,43.139089 325.026281,43.1391127 325.582671,42.5826975 C326.13911,42.0262584 326.13911,41.1279855 325.582671,40.5715465 L321.285801,36.2746708 C322.158732,35.0113127 322.673584,33.4803394 322.673584,31.8367983 C322.673584,27.5255134 319.148019,24 314.83678,24 L314.83678,24 Z M315,27 C317.778299,27 320,29.2216925 320,32.0000048 C320,34.7782979 317.778299,37 315,37 C312.221725,37 310,34.7782979 310,32.0000048 C310,29.2216925 312.221725,27 315,27 Z" id="Search-icon"></path>
            </g>
        </g>
    </g>
</svg>