<svg xmlns="http://www.w3.org/2000/svg" width="128" height="25" viewBox="0 0 128 25">
    <g fill="#3293F6" fill-rule="nonzero">
        <path d="M6.813 4.304a1.25 1.25 0 0 0-.381.904V6.5c0 .344.127.688.38.904.254.258.55.387.89.387h8.927c.508 0 1.016.086 1.481.301.466.216.889.474 1.228.818.338.345.592.775.803 1.248.212.474.297.99.297 1.507v3.917a3.68 3.68 0 0 1-.297 1.507c-.211.473-.465.903-.803 1.248-.339.344-.762.602-1.228.818a3.512 3.512 0 0 1-1.48.301H0v-3.917h12.779c.338 0 .677-.13.888-.387.254-.259.381-.56.381-.904v-1.292c0-.344-.127-.688-.38-.904a1.208 1.208 0 0 0-.89-.387H3.852a3.512 3.512 0 0 1-1.481-.301c-.466-.216-.889-.474-1.228-.818C.804 10.2.55 9.77.34 9.298A3.68 3.68 0 0 1 .042 7.79V3.874c0-.517.085-1.033.297-1.507.211-.473.465-.903.803-1.248.339-.344.762-.602 1.228-.818A3.512 3.512 0 0 1 3.85 0h16.63v3.917H7.701a1.67 1.67 0 0 0-.888.387zM28.944 24.576h-6.416V8.986c0-.516.085-1.031.297-1.504.213-.472.468-.902.808-1.245.34-.344.765-.602 1.232-.816.467-.215.977-.301 1.487-.301h12.832c.51 0 1.02.086 1.487.3.467.215.892.473 1.232.817.34.343.595.773.808 1.245.212.473.297.988.297 1.503v6.486c0 .515-.085 1.03-.297 1.503-.213.472-.468.902-.808 1.246-.34.343-.765.6-1.232.816-.467.214-.977.3-1.487.3h-8.965v-3.908h5.14c.34 0 .68-.129.893-.387.255-.257.383-.558.383-.902v-3.908c0-.344-.128-.687-.383-.902a1.217 1.217 0 0 0-.892-.387h-5.141c-.34 0-.68.13-.893.387a1.243 1.243 0 0 0-.382.902v14.345zM51.2 3.908h-6.144V0H51.2v3.908zm-6.144 1.289H51.2v14.259h-6.144V5.196zM59.768 9.062v5.197c0 .344.13.687.389.902.259.258.561.387.907.387h6.52v3.908h-10.45a3.654 3.654 0 0 1-1.511-.3c-.475-.215-.907-.473-1.252-.817-.346-.343-.605-.773-.82-1.245a3.601 3.601 0 0 1-.303-1.503V0h6.52v5.197h7.816v3.865h-7.816zM75.024 14.322c0 .345.127.69.382.906.255.26.553.389.893.389h5.14c.34 0 .68-.13.893-.389a1.25 1.25 0 0 0 .383-.906v-3.925c0-.345-.128-.69-.383-.906a1.214 1.214 0 0 0-.892-.389h-5.141V5.177h8.965c.51 0 1.02.086 1.487.302.467.215.892.474 1.232.82.34.345.595.776.808 1.25.212.475.297.993.297 1.51v6.514c0 .518-.085 1.036-.297 1.51-.213.475-.468.906-.808 1.251-.34.345-.765.604-1.232.82a3.533 3.533 0 0 1-1.487.302H72.432c-.51 0-1.02-.086-1.487-.302-.467-.216-.892-.475-1.232-.82-.34-.345-.595-.776-.808-1.25a3.682 3.682 0 0 1-.297-1.51V0h6.416v14.322zM105.2 10.33c0-.345-.127-.69-.382-.905a1.215 1.215 0 0 0-.893-.387h-5.14c-.34 0-.68.129-.893.387-.255.258-.383.56-.383.904v3.918c0 .344.128.689.383.904.255.258.552.387.892.387h5.141v3.918H94.96a3.54 3.54 0 0 1-1.487-.301c-.467-.216-.892-.474-1.232-.818-.34-.345-.595-.775-.808-1.249a3.668 3.668 0 0 1-.297-1.507V8.995c0-.517.085-1.034.297-1.507.213-.474.468-.904.808-1.249.34-.344.765-.602 1.232-.818a3.54 3.54 0 0 1 1.487-.301h12.832c.51 0 1.02.086 1.487.301.467.216.892.474 1.232.818.34.345.595.775.808 1.249.212.473.297.99.297 1.507v10.418H105.2v-9.084zM114.688 0h6.144v19.456h-6.144zM121.856 0H128v19.456h-6.144z"/>
    </g>
</svg>
