<svg xmlns="http://www.w3.org/2000/svg" xmlns:xlink="http://www.w3.org/1999/xlink" viewBox="0 0 243 85">
    <defs>
        <linearGradient id="a" x1="11.43%" x2="89.79%" y1="60.301%" y2="15.297%">
            <stop offset="0%" stop-color="#4C59FF"/>
            <stop offset="100%" stop-color="#3892E4"/>
        </linearGradient>
        <linearGradient id="b" x1="11.43%" x2="89.79%" y1="72.819%" y2="-26.876%">
            <stop offset="0%" stop-color="#4C59FF"/>
            <stop offset="100%" stop-color="#3892E4"/>
        </linearGradient>
        <linearGradient id="c" x1="-129.141%" x2="342.813%" y1="447.188%" y2="0%">
            <stop offset="0%" stop-color="#4C59FF"/>
            <stop offset="100%" stop-color="#3892E4"/>
        </linearGradient>
        <linearGradient id="d" x1="-129.141%" x2="342.813%" y1="79.543%" y2="46.281%">
            <stop offset="0%" stop-color="#4C59FF"/>
            <stop offset="100%" stop-color="#3892E4"/>
        </linearGradient>
        <linearGradient id="e" x1="49.504%" x2="50.811%" y1="447.188%" y2="0%">
            <stop offset="0%" stop-color="#4C59FF"/>
            <stop offset="100%" stop-color="#3892E4"/>
        </linearGradient>
        <linearGradient id="f" x1="-21.032%" x2="91.703%" y1="154.102%" y2="0%">
            <stop offset="0%" stop-color="#4C59FF"/>
            <stop offset="100%" stop-color="#3892E4"/>
        </linearGradient>
        <linearGradient id="g" x1="-109.823%" x2="143.832%" y1="106.872%" y2="22.684%">
            <stop offset="0%" stop-color="#4C59FF"/>
            <stop offset="100%" stop-color="#3892E4"/>
        </linearGradient>
        <path id="h" d="M0 24h32V0H0z"/>
        <linearGradient id="i" x1="0%" x2="121.257%" y1="100%" y2="0%">
            <stop offset="0%" stop-color="#4C59FF"/>
            <stop offset="100%" stop-color="#5AA0F3"/>
        </linearGradient>
        <linearGradient id="k" x1="0%" y1="78.543%" y2="21.457%">
            <stop offset="0%" stop-color="#4C59FF"/>
            <stop offset="100%" stop-color="#3892E4"/>
            <stop offset="100%" stop-color="#3892E4"/>
        </linearGradient>
        <linearGradient id="l" x1="2.15%" x2="97.85%" y1="100%" y2="0%">
            <stop offset="0%" stop-color="#4C59FF"/>
            <stop offset="100%" stop-color="#3892E4"/>
            <stop offset="100%" stop-color="#3892E4"/>
        </linearGradient>
        <linearGradient id="m" x1="22.064%" x2="77.936%" y1="100%" y2="0%">
            <stop offset="0%" stop-color="#4C59FF"/>
            <stop offset="100%" stop-color="#3892E4"/>
            <stop offset="100%" stop-color="#3892E4"/>
        </linearGradient>
        <linearGradient id="n" x1="13.401%" x2="86.599%" y1="100%" y2="0%">
            <stop offset="0%" stop-color="#4C59FF"/>
            <stop offset="100%" stop-color="#3892E4"/>
            <stop offset="100%" stop-color="#3892E4"/>
        </linearGradient>
        <linearGradient id="o" x1="6.375%" x2="93.625%" y1="100%" y2="0%">
            <stop offset="0%" stop-color="#4C59FF"/>
            <stop offset="100%" stop-color="#3892E4"/>
            <stop offset="100%" stop-color="#3892E4"/>
        </linearGradient>
        <linearGradient id="p" x1="17.936%" x2="82.064%" y1="100%" y2="0%">
            <stop offset="0%" stop-color="#4C59FF"/>
            <stop offset="100%" stop-color="#3892E4"/>
            <stop offset="100%" stop-color="#3892E4"/>
        </linearGradient>
    </defs>
    <g fill="none" fill-rule="evenodd" transform="translate(0 1)">
        <ellipse cx="121.5" cy="65.5" fill="#F5F5F9" opacity=".741" rx="121.5" ry="18.5"/>
        <g fill="#FFF" stroke-linecap="round" stroke-linejoin="round" stroke-width="2">
            <path stroke="url(#a)" d="M6 64h61.905C69.616 64 71 62.624 71 60.929V27.143C71 23.752 68.227 21 64.81 21H18.38c-3.417 0-6.19 2.752-6.19 6.143v27.643" transform="translate(84 4)"/>
            <path stroke="url(#b)" d="M12.381 27.429v30.476c0 3.364-2.773 6.095-6.19 6.095C2.772 64 0 61.27 0 57.905V3.048C0 1.365 1.384 0 3.095 0H16.04c1.29 0 2.445.79 2.897 1.978l1.978 5.187a3.093 3.093 0 0 0 2.897 1.978H58.81c3.417 0 6.19 2.73 6.19 6.095v6.095H18.571c-3.417 0-6.19 2.731-6.19 6.096z" transform="translate(84 4)"/>
        </g>
        <g stroke-linecap="round" stroke-linejoin="round" stroke-width="2">
            <path stroke="url(#c)" d="M6.5 5.5l5-5M16.5 5.5l-5-5" transform="translate(115 36)"/>
            <path stroke="url(#d)" d="M22.5 17.5v5c0 .552-.459 1-1 1H1.479a.99.99 0 0 1-.979-1v-5" transform="translate(115 36)"/>
            <path stroke="url(#e)" d="M11.5 19.5V.5" transform="translate(115 36)"/>
        </g>
        <g opacity=".402">
            <path stroke="url(#f)" stroke-linecap="round" stroke-linejoin="round" stroke-width="1.5" d="M20.667 11.333l-8-5.333v12z" transform="translate(183)"/>
            <g transform="translate(183)">
                <path stroke="url(#g)" stroke-linecap="round" stroke-linejoin="round" stroke-width="1.5" d="M30 23.333H2A1.332 1.332 0 0 1 .667 22V2C.667 1.263 1.263.667 2 .667h28c.737 0 1.333.596 1.333 1.333v20c0 .737-.596 1.333-1.333 1.333z"/>
                <mask id="j" fill="#fff">
                    <use xlink:href="#h"/>
                </mask>
                <path stroke="url(#i)" stroke-linecap="round" stroke-linejoin="round" d="M4.667 6H6V4.667H4.667zM4.667 12.667H6v-1.334H4.667zM4.667 19.333H6V18H4.667zM26 6h1.333V4.667H26zM26 12.667h1.333v-1.334H26zM26 19.333h1.333V18H26z" mask="url(#j)"/>
            </g>
        </g>
        <g stroke-linecap="round" stroke-linejoin="round" stroke-width="1.5" opacity=".5">
            <path stroke="url(#k)" d="M26.875 22.361H3.125c-1.38 0-2.5-1.145-2.5-2.555V3.194c0-1.41 1.12-2.555 2.5-2.555h23.75c1.38 0 2.5 1.145 2.5 2.555v16.612c0 1.41-1.12 2.555-2.5 2.555z" transform="translate(13 21)"/>
            <path stroke="url(#l)" d="M26.802 5.43c0 1.411-1.12 2.556-2.5 2.556s-2.5-1.145-2.5-2.555c0-1.411 1.12-2.556 2.5-2.556s2.5 1.145 2.5 2.556z" transform="translate(13 21)"/>
            <path stroke="url(#m)" d="M.625 14.481l6.765-9.05" transform="translate(13 21)"/>
            <path stroke="url(#n)" d="M21.875 22.361L7.39 5.431" transform="translate(13 21)"/>
            <path stroke="url(#o)" d="M14.154 12.672l3.383-3.622" transform="translate(13 21)"/>
            <path stroke="url(#p)" d="M27.684 21.722L17.537 9.05" transform="translate(13 21)"/>
        </g>
    </g>
</svg>
