<svg xmlns="http://www.w3.org/2000/svg" width="18" height="20" viewBox="0 0 18 20">
    <path fill="none" fill-rule="evenodd" stroke="#4C59FF" stroke-width="1.5" d="M3.887 12.003l.06.082.056.084c3.552 5.11 9.688 8.115 10.824 6.544l1.436-2.245c.12-.192.1-.426-.05-.642-.002-.004-.01-.01-.016-.015-.2-.322-.382-.333-1.433-.904-.544-.338-1.123-.704-1.507-.98-.371-.266-.902-.282-1.206-.04l-.593.482c-.202.163-.478.255-.761.25-.851-.011-2.48-1.904-3.387-3.07-.256-.333-.459-.61-.578-.779-.116-.168-.304-.454-.521-.804-.764-1.234-1.922-3.35-1.504-3.96.138-.203.375-.353.648-.414l.804-.177c.407-.094.66-.48.569-.878-.096-.413-.187-1.01-.264-1.567-.067-1.035.013-1.17-.223-1.476-.002-.005-.004-.016-.007-.018-.15-.217-.386-.348-.647-.36L2.51 1C.286 1.013.337 6.897 3.887 12.003z"/>
</svg>
