<svg xmlns="http://www.w3.org/2000/svg" width="18" height="18" viewBox="0 0 20 20">
    <path fill="#5BBDB7" fill-rule="evenodd" d="M9 16.217c-3.494 0-6.336-2.8-6.336-6.24 0-3.442 2.842-6.241 6.336-6.241 3.493 0 6.335 2.799 6.335 6.24 0 3.44-2.842 6.24-6.335 6.24zM9 1.952C4.5 1.952.854 5.544.854 9.976.854 14.407 4.5 18 9 18c4.498 0 8.146-3.593 8.146-8.024 0-4.432-3.648-8.024-8.146-8.024zM4.169 0l1.16 1.37-4.17 3.426L0 3.426 4.169 0zm9.661 0L18 3.427l-1.159 1.369L12.67 1.37 13.83 0zM7.678 11.34L5.75 9.44l-.96.946 2.879 2.835 5.43-5.349-.959-.945-4.462 4.412z"/>
</svg>
