<svg xmlns="http://www.w3.org/2000/svg" width="190" height="210" viewBox="0 0 190 210">
    <g fill="none" fill-rule="evenodd">
        <rect width="189" height="209" x=".5" y=".5" fill="#F0F0F7" stroke="#43425D" stroke-opacity=".157" rx="6"/>
        <path d="M65 75h60v60H65z"/>
        <path fill="#A5A4BF" fill-rule="nonzero" d="M110.381 124.952H75.048V89.62h22.714v-5.048H75.048A5.062 5.062 0 0 0 70 89.62v35.333A5.062 5.062 0 0 0 75.048 130h35.333a5.062 5.062 0 0 0 5.048-5.048v-22.714h-5.048v22.714zm-19.66-8l-4.947-5.956-6.94 8.909h27.761l-8.934-11.887-6.94 8.934zm24.708-32.38V77h-5.048v7.571h-7.571c.025.026 0 5.048 0 5.048h7.571v7.546c.025.025 5.048 0 5.048 0V89.62H123v-5.048h-7.571z"/>
    </g>
</svg>
