<svg xmlns="http://www.w3.org/2000/svg" viewBox="0 0 300 300">
    <g fill="none" fill-rule="evenodd">
        <path fill="#000" fill-rule="nonzero" d="M282.9970369 85.9483759c.0481174-1.6294052-.4918487-3.1646515-1.4701947-4.1810848-.8447119-.8697494-1.9514091-1.3517572-3.2184974-1.3885087-2.7961346-.0576341-4.8009207 1.9124185-4.9292993 4.9407944l-1.6787757 11.8463177c-2.2935694-1.1159977-4.5978143-.1886129-6.190913 2.5253903l-6.7736806 10.4945606-8.4844825 4.0500403c-.2512689.1100278-.4544301.3038838-.5934293.5344256l-5.3730129 9.1218793-2.3042448-1.3098551c-.3207686-.1781374-.6950099-.2252973-1.0371703-.1362219-.3528494.0890714-.6522398.3143727-.8340227.6234876l-1.603911 2.7454968-1.6092487-2.7402658c-.1817693-.3143593-.4811596-.5344256-.8340228-.6234876-.3528495-.0890713-.7164017-.0471559-1.0371702.136222l-2.3042449 1.309855-5.3730129-9.1218792c-.1389992-.2357729-.3421603-.4243992-.5827402-.5344256l-8.5058333-4.0448093-6.7416544-10.4527122c-1.6199241-2.7507278-3.9241689-3.6885613-6.2177384-2.5726038l-1.6787757-11.8463178c-.1229642-3.0283759-2.0529622-4.9826427-4.9292993-4.9407943-1.267061.0314359-2.3737718.5134611-3.2184974 1.3885086-.9783597 1.0164468-1.5183709 2.5463145-1.4701947 4.1338713l.0320769 23.9649183c-.090886 5.9572277.6361993 8.4040181 5.4959169 12.1502552l13.4351326 9.2318654 1.6894511 2.860714-2.3042449 1.3098551c-.3207822.1781374-.5453215.4715457-.6361993.8173584-.090886.3457992-.048116.7178074.1389992 1.0164468l5.0522033 8.57168c.2512689.4348747.7164017.6706475 1.1868722.6706475.2298908 0 .4651192-.0576328.6843208-.1781374l19.7275989-11.1704391 19.7440225 11.1652081c.6629426.3667637 1.4915455.1466974 1.8712067-.4925102l5.0522033-8.57168c.1817693-.3143727.2298907-.6706475.1389992-1.0164468-.0908873-.3457993-.3207822-.6392075-.6361993-.8173449l-2.3042449-1.3098551 1.6894511-2.860714 13.4939842-9.2790791c4.7902453-3.6990234 5.5334177-6.1458138 5.4263899-12.0821174l.0161267-23.9385082zm-67.8066068 43.7020747c0-.0104782-.0106931-.0104782-.0106931-.0209577-.048116-.0785905-.1122711-.120506-.1710802-.1886129-.069501-.0681123-.1122711-.1467109-.1924584-.1991018-.0106918 0-.0106918-.0104796-.0106918-.0104796l-13.6168882-9.3576789c-3.8226158-2.949776-4.4801112-4.4482708-4.3892334-9.9811128l-.0320782-24.022594c-.0320769-.9273848.2405798-1.7552187.7164017-2.2582044.3421604-.3457992.7645095-.52395 1.299142-.5501455h.080194c1.710802 0 2.0209362 1.5089569 2.042287 2.4154041 0 .0471559 0 .0995495.0106918.1467108l2.0422869 14.4189216c-.2031612 1.1736331.1015778 2.5358524.9676706 3.9924988l3.7424134 6.3502272-1.3899924 4.4587329c-.2192016.7020875.1817693 1.4617433.9142115 1.6766188.7164017.2252973 1.4915455-.1781374 1.7108019-.8959448l1.5610725-5.0193943c.1122711-.3562882.069501-.7387585-.1229642-1.0636067l-4.0363976-6.8532129c-1.3365605-2.2686664-.3314713-2.8293277.090886-3.0755895.4330519-.2462483 1.4381685-.8173583 2.7961347 1.4984949l6.9822615 10.8194222c.1389993.2148218.3314713.3824837.561362.4925101l8.4738071 4.0343472 5.1644319 8.7656313-13.322904 7.5447845-1.860675-3.1176686zm43.2408602 13.6691377l-19.2417311-10.88756c-.2192016-.1205073-.443741-.1781374-.6843208-.1781374-.2405798 0-.4651191.0576341-.6843207.1781374l-19.2417311 10.88756-3.6835618-6.2507031 17.9948987-10.180161 2.3042448-1.2941351 2.1118139 3.5890372c.4918624.8278339 1.8818821.8278339 2.3737718 0l2.1118139-3.5890372 2.3042449 1.2941351 17.9948987 10.180161-3.6600212 6.2507031zm17.4720776-23.4941238l-13.6864152 9.3995273-.0106932.0104782c-.0801941.0576341-.1389992.136222-.2031611.2148219-.0588092.0681123-.1229642.1100277-.1710802.1886129 0 .0104782-.0106932.0104782-.0106932.0209577l-1.8337059 3.1174379-13.3335794-7.5447845 5.1644319-8.7656313 8.4738071-4.0343472c.2298907-.1100278.4223491-.2776883.561362-.4925101l7.0036124-10.8666359c1.3365606-2.2686664 2.3362711-1.697543 2.7693092-1.4512812.4330519.2462484 1.4274932.817345.0908861 3.0755895l-4.0363976 6.8532128c-.1924721.3248483-.2405798.7020875-.1229642 1.0636068l1.5610725 5.0193942c.2192016.7020875.9944002 1.1055222 1.7108019.8959449.7164017-.2148218 1.1280617-.9588114.9142114-1.6766188l-1.3846546-4.463964 3.7424134-6.3502272c.8554009-1.4512812 1.1761831-2.8293277.9676706-3.9924988l2.0422869-14.4189216c.0106932-.0471545.0106932-.0995496.0106932-.1467108.021385-.9273848.3902818-2.5044661 2.1224892-2.4154041.5346188.0104782.9569816.1886129 1.2991419.5501456.4918624.5029856.7538204 1.3308195.7164018 2.2895906l-.0320769 24.0064984c.090886 5.5171489-.561362 7.0051816-4.3251809 9.9129751l.0000109.0007417z"/>
        <path fill="#000" fill-rule="nonzero" d="M238.5 110.1326531c9.860509 0 17.8831776-7.7866814 17.8831776-17.3571429S248.360509 75.4183674 238.5 75.4183674s-17.8831776 7.7866813-17.8831776 17.3571428c0 9.5704615 8.0226686 17.3571429 17.8831776 17.3571429zm0-32.0439561c8.345116 0 15.1319195 6.5871692 15.1319195 14.6868132S246.845116 107.4623234 238.5 107.4623234s-15.1319195-6.5871692-15.1319195-14.6868132S230.154884 78.088697 238.5 78.088697z"/>
        <path fill="#FFCA54" d="M238.5 78.088697c8.345116 0 15.1319195 6.5871692 15.1319195 14.6868132S246.845116 107.4623234 238.5 107.4623234s-15.1319195-6.5871692-15.1319195-14.6868132S230.154884 78.088697 238.5 78.088697z"/>
        <path fill="#000" fill-rule="nonzero" d="M234.0915888 96.6224088c0-.7334374-.5978405-1.3316341-1.3308411-1.3316341-.7330007 0-1.3308412.5981967-1.3308412 1.3316341 0 2.6944285 2.2821264 4.9624678 5.3233645 5.4826041v.9102917c0 .7334375.5978405 1.3316342 1.3308411 1.3316342.7330007 0 1.3308412-.5981967 1.3308412-1.3316342v-.9102917c3.0412381-.520163 5.3233645-2.7724623 5.3233645-5.4826041 0-2.741302-2.6720628-4.0729361-5.3233645-5.1600822V85.360779c1.5283379.4109289 2.6616822 1.4980884 2.6616822 2.741302 0 .7334374.5978405 1.3316341 1.3308411 1.3316341.7330007 0 1.3308412-.5981967 1.3308412-1.3316341 0-2.7101418-2.2821264-4.9624678-5.3233645-5.4826041v-.9102917c0-.7334375-.5978405-1.3316342-1.3308412-1.3316342-.7330006 0-1.3308411.5981967-1.3308411 1.3316342v.9102917c-3.0412381.520163-5.3233645 2.7724623-5.3233645 5.4826041 0 2.741302 2.6720628 4.0729361 5.3233645 5.1600822v6.1015476c-1.5283379-.4109289-2.6616822-1.4980884-2.6616822-2.741302zm7.9850467 0c0 1.2432003-1.1332911 2.3303597-2.6616822 2.741302v-5.0040147c1.4503506.655417 2.6616822 1.3888944 2.6616822 2.2627127zm-7.9850467-8.5203278c0-1.2432003 1.1332911-2.3303598 2.6616822-2.741302v5.0040147c-1.4503506-.655417-2.6616822-1.3888944-2.6616822-2.2627127zM238.0841121 72.1122449c.9162509 0 1.6635515-.5940705 1.6635515-1.322449v-3.967347c0-.7283784-.7473006-1.3224489-1.6635515-1.3224489-.9162508 0-1.6635514.5940705-1.6635514 1.322449v3.967347c0 .7283784.7473006 1.3224489 1.6635514 1.3224489zM221.536756 78.3139625c.2699177.2682153.6334696.4105273.9970216.4105273s.7160907-.142312.9970217-.4105273c.5508346-.5473605.5508346-1.4340502 0-1.9869877l-2.9965787-2.977679c-.5508487-.5473604-1.4431523-.5473604-1.9995993 0-.5508346.5473605-.5508346 1.4340502 0 1.9869877l3.0021347 2.977679zM212.1327103 94.4285714h4.4915888c.8246257 0 1.4971962-.7425881 1.4971962-1.6530612s-.6725705-1.6530612-1.4971962-1.6530612h-4.4915888c-.8246258 0-1.4971963.7425881-1.4971963 1.6530612s.6725705 1.6530612 1.4971963 1.6530612zM260.3757009 94.4285714h4.4915888c.8246258 0 1.4971963-.7425881 1.4971963-1.6530612s-.6725705-1.6530612-1.4971963-1.6530612h-4.4915888c-.8246257 0-1.4971962.7425881-1.4971962 1.6530612s.6725705 1.6530612 1.4971962 1.6530612zM253.6400027 78.7244898c.363552 0 .7160906-.1425814.9970216-.4113043l2.9965787-2.9723643c.5508346-.5484104.5508346-1.4367644 0-1.9907484-.5508346-.5483964-1.4431523-.5483964-1.9995993 0l-2.9965787 2.9723643c-.5508346.5483964-.5508346 1.4367644 0 1.9907484.2864306.2796875.6499967.4113043 1.0025354.4113043h.0000423z"/>
        <g fill="#000" fill-rule="nonzero">
            <path d="M239 171h-4v6h4zM239 158h-4v6h4zM239 184h-4v6h4zM239 196h-4v6h4zM239 209h-4v6h4zM239 221h-4v6h4zM225 239v-4h-7v4zM185 239v-4h-7v4zM145 239v-4h-7v4zM213 239v-4h-7v4zM173 239v-4h-7v4zM133 239v-4h-7v4zM239 239v-4h-7v4zM199 239v-4h-7v4zM159 239v-4h-7v4z"/>
        </g>
        <path fill="#5158AF" d="M258.491025 143.224999l-19.222001-10.88756c-.218977-.120507-.443286-.178137-.683619-.178137-.240333 0-.464643.057634-.683619.178137l-19.222001 10.88756L215 136.974296l17.976447-10.180161L235.278329 125.5l2.109648 3.589037c.491359.827834 1.879953.827834 2.371338 0L241.868964 125.5l2.301882 1.294135 17.976447 10.180161-3.656268 6.250703z"/>
        <g fill="#000" fill-rule="nonzero">
            <path stroke="#000" d="M114.554115 216.042125H88.8731771l9.9576823-16.1107955c.0093581-.0142492.0093581-.0284972.0187174-.0427465.0514721-.0902435.0748698-.1899857.1076256-.2897268.0233966-.0759943.0608315-.1519886.0701896-.2279829.0140384-.0949929-.0046791-.1852316-.0093581-.2754764-.0046803-.085493 0-.1709811-.0233966-.2564839-.0187186-.0807436-.0655116-.1567428-.1029465-.2327371-.042114-.0902436-.0748698-.1804896-.1310281-.2612259-.0093594-.0142493-.0093594-.0284985-.0233966-.0427465l-20.2567708-25.7103977c-2.1852396-3.6905273-5.5123333-6.397749-9.3914271-7.6278841-3.9727708-1.2587091-8.0437708-.8264413-11.4550781 1.2206511-.6597885.394222-.8750422 1.2538454-.4866536 1.9188261l3.1023645 5.3290864c-3.9447395 2.6787693-5.2782604 7.9366034-2.9105781 12.0071023 1.1932328 2.0518466 3.1305156 3.4909966 5.4514792 4.046667.6925396.1662391 1.3944948.2469755 2.0916823.2469755 1.4600208 0 2.9012343-.3799716 4.2300833-1.0781709l3.0930208 5.3148602c.2573605.4417154.7206188.6887031 1.188561.6887031.2386489 0 .4819698-.0617463.7019073-.19474 3.4113073-2.0471046 5.7509583-5.4526228 6.5791979-9.5942523.3088349-1.5341125.3930604-3.1015409.2667281-4.6641057l15.0206771 19.0654545-10.3553906 16.7710341H2.4452984c-.7627375 0-1.3803593.6269471-1.3803593 1.4010921 0 .774145.6176698 1.401092 1.3803593 1.401092h10.210323v50.4845458c0 .774193.6176697 1.401092 1.3803593 1.401092.7627375 0 1.3803594-.626947 1.3803594-1.401092l.0046791-50.4796821h86.1565628v50.4845451c0 .774194.617669 1.401092 1.380359 1.401092.76269 0 1.380359-.626947 1.380359-1.401092l.004679-50.4845451h10.210323c.762738 0 1.38036-.6269471 1.38036-1.4010921.00468-.7741936-.61767-1.4058341-1.38036-1.4058341l.000813-.0000097zm-51.1222921-29.2815227c-1.5862812-.3799716-2.9012344-1.3584137-3.7107864-2.7452796-1.595625-2.7405375-.7019073-6.2790761 1.9372708-8.1645863l6.0410937 10.3827693c-1.3336406.6649563-2.8310364.8739346-4.2675781.527206v-.0001094zM77.9709375 184.3193c-.5708792 2.8593318-2.0261562 5.2720602-4.136526 6.9391932l-13.5508334-23.2822273c2.4566875-1.0686746 5.2408854-1.2016586 7.9830365-.3324782 3.2662396 1.0354196 6.0784687 3.34375 7.9175104 6.5023171 1.8390417 3.153825 2.4707031 6.7682363 1.7875313 10.1737545l-.0007188-.0005593z"/>
            <path d="M17.8786458 208.1484432c-.7627375 0-1.3803593.626947-1.3803593 1.401092 0 .7741937.6176697 1.4058341 1.3803593 1.4058341H52.735625c5.4654948 0 9.9108437-3.813942 9.9108437-8.4971375 0-4.6831954-4.4453489-8.4971375-9.9108437-8.4971375H17.8786458c-.7627375 0-1.3803593.6269471-1.3803593 1.4010921 0 .774145.6176697 1.401092 1.3803593 1.401092 3.9400677 0 7.1453334 2.5506125 7.1453334 5.6900898 0 3.1442193-3.2053854 5.6948318-7.1453334 5.6948318v.0002432zm34.5943183-11.5678551c3.8386165 0 6.961351 2.634739 6.961351 5.8777653s-3.1228512 5.8777653-6.961351 5.8777653H25.6349766c1.5590914-1.5602196 2.5393152-3.6110381 2.5393152-5.8777653s-.9756022-4.3175456-2.5347637-5.8777653h26.833436z"/>
        </g>
        <path fill="#5158AF" d="M51.9546744 197c3.8553062 0 6.9916178 2.634739 6.9916178 5.877765 0 3.243027-3.1364289 5.877766-6.9916178 5.877766H25c1.5658701-1.56022 2.5503557-3.611038 2.5503557-5.877766 0-2.266727-.9798439-4.317545-2.5457843-5.877765h26.950103zM78.7642609 184.246436c-.5733612 2.859332-2.0349656 5.27206-4.1545109 6.939193L61 167.903402c2.4673687-1.068675 5.2636719-1.201659 8.0177453-.332478 3.2804406 1.035419 6.1048969 3.34375 7.9519344 6.502317 1.8470375 3.153825 2.4814453 6.768236 1.7953031 10.173754l-.0007219-.000559z"/>
        <g fill="#C2C5F3" fill-rule="nonzero">
            <path d="M148.5027415 46l1.2081884-4.2857234L154 40.5l-4.2890701-1.2142766L148.5027415 35l-1.2136714 4.2857234L143 40.5l4.2890701 1.2142766zM159.0058681 83l1.5339724-5.4529946L166 76l-5.4601595-1.5470054L159.0058681 69l-1.5457086 5.4529946L152 76l5.4601595 1.5470054zM199.002636 71l.8765694-3.117577L203 67l-3.1207946-.882423L199.002636 63l-.8818414 3.117577L195 67l3.1207946.882423zM172.4972585 67l-1.2081884-4.2857234L167 61.5l4.2890701-1.2142766L172.4972585 56l1.2136714 4.2857234L178 61.5l-4.2890701 1.2142766zM137.9941319 23l-1.5339724-5.4529946L131 16l5.4601595-1.5470054L137.9941319 9l1.5457086 5.4529946L145 16l-5.4601595 1.5470054zM134.997364 36l-.8765694-3.117577L131 32l3.1207946-.882423L134.997364 28l.8818414 3.117577L139 32l-3.1207946.882423zM109.502741 93l1.208189-4.2857234L115 87.5l-4.28907-1.2142766L109.502741 82l-1.213671 4.2857234L104 87.5l4.28907 1.2142766zM177.0058681 50l1.5339724-5.4529946L184 43l-5.4601595-1.5470054L177.0058681 36l-1.5457086 5.4529946L170 43l5.4601595 1.5470054zM100.002636 107l.876569-3.117577L104 103l-3.120795-.882423L100.002636 99l-.881841 3.117577L96 103l3.120795.882423zM127.4972585 89l-1.2081884-4.2857234L122 83.5l4.2890701-1.2142766L127.4972585 78l1.2136714 4.2857234L133 83.5l-4.2890701 1.2142766zM99.997364 79l-.876569-3.117577L96 75l3.120795-.882423L99.997364 71l.881841 3.117577L104 75l-3.120795.882423zM119.002636 63l.8765694-3.117577L123 59l-3.1207946-.882423L119.002636 55l-.8818414 3.117577L115 59l3.1207946.882423zM143.002636 88l.8765694-3.117577L147 84l-3.1207946-.882423L143.002636 80l-.8818414 3.117577L139 84l3.1207946.882423zM132.0058681 77l1.5339724-5.4529946L139 70l-5.4601595-1.5470054L132.0058681 63l-1.5457086 5.4529946L125 70l5.4601595 1.5470054zM124.9941319 50l-1.5339724-5.4529946L118 43l5.4601595-1.5470054L124.9941319 36l1.5457086 5.4529946L132 43l-5.4601595 1.5470054zM157.0058681 61l1.5339724-5.4529946L164 54l-5.4601595-1.5470054L157.0058681 47l-1.5457086 5.4529946L150 54l5.4601595 1.5470054zM152.002636 30l.8765694-3.117577L156 26l-3.1207946-.882423L152.002636 22l-.8818414 3.117577L148 26l3.1207946.882423zM170.4972585 28l-1.2081884-4.2857234L165 22.5l4.2890701-1.2142766L170.4972585 17l1.2136714 4.2857234L176 22.5l-4.2890701 1.2142766zM136.002636 56l.8765694-3.117577L140 52l-3.1207946-.882423L136.002636 48l-.8818414 3.117577L132 52l3.1207946.882423zM189.4972585 32l-1.2081884-4.2857234L184 26.5l4.2890701-1.2142766L189.4972585 21l1.2136714 4.2857234L195 26.5l-4.2890701 1.2142766zM203.997364 27l-.8765694-3.117577L200 23l3.1207946-.882423L203.997364 19l.8818414 3.117577L208 23l-3.1207946.882423zM188.002636 61l.8765694-3.117577L192 57l-3.1207946-.882423L188.002636 53l-.8818414 3.117577L184 57l3.1207946.882423zM105.497259 58l-1.208189-4.2857234L100 52.5l4.28907-1.2142766L105.497259 47l1.213671 4.2857234L111 52.5l-4.28907 1.2142766zM127.002636 14l.8765694-3.117577L131 10l-3.1207946-.882423L127.002636 6l-.8818414 3.117577L123 10l3.1207946.882423zM111.002636 42l.876569-3.117577L115 38l-3.120795-.882423L111.002636 34l-.881841 3.117577L107 38l3.120795.882423zM147.997364 67l-.8765694-3.117577L144 63l3.1207946-.882423L147.997364 59l.8818414 3.117577L152 63l-3.1207946.882423zM172.002636 89l.8765694-3.117577L176 85l-3.1207946-.882423L172.002636 81l-.8818414 3.117577L168 85l3.1207946.882423zM162.002636 42l.8765694-3.117577L166 38l-3.1207946-.882423L162.002636 34l-.8818414 3.117577L158 38l3.1207946.882423zM117.002636 79l.8765694-3.117577L121 75l-3.1207946-.882423L117.002636 71l-.8818414 3.117577L113 75l3.1207946.882423zM151.002636 8l.8765694-3.117577L155 4l-3.1207946-.882423L151.002636 0l-.8818414 3.117577L147 4l3.1207946.882423zM193.997364 12l-.8765694-3.117577L190 8l3.1207946-.882423L193.997364 4l.8818414 3.117577L198 8l-3.1207946.882423zM92.002636 51l.876569-3.117577L96 47l-3.120795-.882423L92.002636 43l-.881841 3.117577L88 47l3.120795.882423zM137.002636 102l.8765694-3.117577L141 98l-3.1207946-.882423L137.002636 94l-.8818414 3.117577L133 98l3.1207946.882423zM210 61l.8812607-3.1155225L214 57.002636l-3.1187393-.8818414L210 53l-.8812607 3.1207946L206 57.002636l3.1187393.8818415zM164.002636 105l.8765694-3.117577L168 101l-3.1207946-.882423L164.002636 97l-.8818414 3.117577L160 101l3.1207946.882423zM88.997364 88l-.876569-3.117577L85 84l3.120795-.882423L88.997364 80l.881841 3.117577L93 84l-3.120795.882423z"/>
        </g>
    </g>
</svg>