<svg xmlns="http://www.w3.org/2000/svg" xmlns:xlink="http://www.w3.org/1999/xlink" >
    <defs>
        <path id="a" d="M0 0h69v50H0z"/>
    </defs>
    <g fill="none" fill-rule="evenodd">
        <path fill="#FFCA54" d="M178.720379 170.086608h-69.557956c-1.1951231 0-2.2954497-.679152-2.826576-1.751785-.5374882-1.079019-.4236708-2.361117.2971944-3.325972l6.4499225-8.632187c.3288094-.437954.5058731-.971127.5058731-1.523327v-25.388785c0-10.8854113 5.7858932-20.9398578 15.176193-26.3848382 9.3902997-5.4396184 20.9617624-5.4396184 30.352386 0 9.3902997 5.4459553 15.176193 15.4999143 15.176193 26.3848382v25.388785c0 .5522.1770637 1.085373.5058731 1.523327l6.4499225 8.632187c.7208651.958421.8346825 2.246888.3035238 3.325972-.5374881 1.072682-1.6314205 1.751785-2.8328893 1.751785h.0003399z"/>
        <path fill="#000" fill-rule="nonzero" d="M241.282899 22h-91.5654723C142.6974072 22.0063329 137.0063485 27.6746263 137 34.6665766v35.4664145h5.0869707V34.6665766c0-4.1988992 3.4147003-7.599946 7.630456-7.599946h91.5654723c4.215756 0 7.630456 3.4010468 7.630456 7.599946v58.267063h-78.8488595v5.0666306h78.8488595v5.0666307c0 4.1988992-3.4147 7.5999459-7.630456 7.5999459h-55.9566776v5.0666307h18.3635576l3.815309 15.1998915h-22.1791921V136h35.6087951v-5.066631h-8.189942l-3.815309-15.1998915h32.353133c7.02002-.0063329 12.711078-5.6746264 12.717427-12.6665766V34.6665766C253.993642 27.6746263 248.302593 22.0063232 241.282573 22h.000326z"/>
        <path fill="#000" fill-rule="nonzero" d="M147 32h5v5h-5zM157 32h5v5h-5zM167 32h5v5h-5zM179.4112751 153.844943V129.30121c-.012646-7.115164-2.1436069-14.0589037-6.1274587-19.9420878-3.98369-5.8838339-9.6305288-10.4347831-16.2138399-13.0625306l6.8798741-13.2783139c.594405-1.1615255.214992-2.5897254-.8789565-3.3004456l-2.5293655-1.6312118c-3.895142-2.4753245-8.7895654-2.7673144-12.9503514-.7743568-2.2700347 1.0853676-4.9068881 1.0853676-7.1707714 0-4.1670993-1.9930714-9.0615227-1.7010814-12.9566647.7807036l-2.5293655 1.6312117c-1.0939485.704536-1.4733614 2.1326384-.8789565 3.2940989l6.8735609 13.2783139c-6.5826636 2.6277475-12.2295025 7.1786967-16.2138399 13.0625306-3.98369 5.883834-6.1146703 12.8275738-6.1274588 19.9420878v24.543733l-5.9440494 7.95295c-1.8653362 2.500844-2.16886 5.845812-.777782 8.638484C103.2570092 173.235549 106.1088708 175 109.2200309 175h69.5579559c3.1174734 0 5.9629893-1.764451 7.3541808-4.557286 1.3911591-2.799172 1.0939486-6.143977-.7777819-8.644821l-5.9431105-7.95295zm-49.8038137-71.1142682l.5817621-.3744849c2.4155643-1.5360103 5.4508029-1.7200924 8.0306748-.4823928 3.6549129 1.7517775 7.9042469 1.7517775 11.5591598 0 2.5800338-1.2376996 5.6152724-1.0536338 8.0306748.4823928l.5880755.3744849-6.2223201 12.0151364h-.006323c-5.3685682-1.3202108-10.9710521-1.3202108-16.3401059 0l-6.221598-12.0151364zm49.1708653 87.1907792h-69.557956c-1.1951232 0-2.2954498-.679149-2.826576-1.751778-.5374882-1.079014-.4236708-2.361105.2971943-3.325956l6.4499225-8.632147c.3288094-.437952.5058731-.971122.5058731-1.52332v-25.388668c0-10.8853607 5.7858933-20.9397607 15.176193-26.384716 9.3902998-5.4395932 20.9617625-5.4395932 30.352386 0 9.3902998 5.4459302 15.176193 15.4998427 15.176193 26.384716v25.388668c0 .552198.1770637 1.085368.5058731 1.52332l6.4499225 8.632147c.7208652.958416.8346826 2.246877.3035239 3.325956-.5374881 1.072678-1.6314205 1.751778-2.8328894 1.751778h.00034z"/>
        <path fill="#000" fill-rule="nonzero" d="M146.8618289 121.0666883h-.3624136V116h-4.9988626v5.0666883h-.3624136c-3.3117265 0-6.1861125 2.3053837-6.948499 5.5670337-.756084 3.267974.799818 6.630958 3.7554655 8.131994l9.8727938 5.003294c.8873021.449663 1.3496929 1.456677 1.1247361 2.432011-.2311954.975333-1.0872567 1.665602-2.0808066 1.665602h-5.7236578c-1.1809793 0-2.1369538-.96901-2.1369538-2.165948v-.367331h-4.9988626v.367331c.0062481 3.996279 3.1930335 7.226313 7.1358164 7.232637h.3624136V154h4.9988626v-5.066688h.3624136c3.3117265 0 6.1861125-2.305384 6.948499-5.567034.756084-3.267974-.799818-6.630958-3.7554655-8.131994l-9.8727938-5.003294c-.8873021-.449663-1.3496929-1.456677-1.1247361-2.432011.2311954-.975333 1.0872567-1.665602 2.0808066-1.665602h5.7298964-.0062498c1.1809793 0 2.1369538.96901 2.1369538 2.165948v2.90074h4.9988626v-2.90074c-.0062481-3.996279-3.1930335-7.2263135-7.1358164-7.2326367h.0000112z"/>
        <g fill="#EFA90F" fill-rule="nonzero">
            <path d="M63.5027415 46l1.2081884-4.2857234L69 40.5l-4.2890701-1.2142766L63.5027415 35l-1.2136714 4.2857234L58 40.5l4.2890701 1.2142766zM74.0058681 83l1.5339724-5.4529946L81 76l-5.4601595-1.5470054L74.0058681 69l-1.5457086 5.4529946L67 76l5.4601595 1.5470054zM114.002636 71l.8765694-3.117577L118 67l-3.1207946-.882423L114.002636 63l-.8818414 3.117577L110 67l3.1207946.882423zM87.4972585 67l-1.2081884-4.2857234L82 61.5l4.2890701-1.2142766L87.4972585 56l1.2136714 4.2857234L93 61.5l-4.2890701 1.2142766zM52.9941319 23l-1.5339724-5.4529946L46 16l5.4601595-1.5470054L52.9941319 9l1.5457086 5.4529946L60 16l-5.4601595 1.5470054zM49.997364 36l-.8765694-3.117577L46 32l3.1207946-.882423L49.997364 28l.8818414 3.117577L54 32l-3.1207946.882423zM24.502741 93l1.208189-4.2857234L30 87.5l-4.28907-1.2142766L24.502741 82l-1.213671 4.2857234L19 87.5l4.28907 1.2142766zM92.0058681 50l1.5339724-5.4529946L99 43l-5.4601595-1.5470054L92.0058681 36l-1.5457086 5.4529946L85 43l5.4601595 1.5470054zM15.002636 107l.876569-3.117577L19 103l-3.120795-.882423L15.002636 99l-.881841 3.117577L11 103l3.120795.882423zM42.4972585 89l-1.2081884-4.2857234L37 83.5l4.2890701-1.2142766L42.4972585 78l1.2136714 4.2857234L48 83.5l-4.2890701 1.2142766zM14.997364 79l-.876569-3.117577L11 75l3.120795-.882423L14.997364 71l.881841 3.117577L19 75l-3.120795.882423zM34.002636 63l.8765694-3.117577L38 59l-3.1207946-.882423L34.002636 55l-.8818414 3.117577L30 59l3.1207946.882423zM58.002636 88l.8765694-3.117577L62 84l-3.1207946-.882423L58.002636 80l-.8818414 3.117577L54 84l3.1207946.882423zM47.0058681 77l1.5339724-5.4529946L54 70l-5.4601595-1.5470054L47.0058681 63l-1.5457086 5.4529946L40 70l5.4601595 1.5470054zM39.9941319 50l-1.5339724-5.4529946L33 43l5.4601595-1.5470054L39.9941319 36l1.5457086 5.4529946L47 43l-5.4601595 1.5470054zM72.0058681 61l1.5339724-5.4529946L79 54l-5.4601595-1.5470054L72.0058681 47l-1.5457086 5.4529946L65 54l5.4601595 1.5470054zM67.002636 30l.8765694-3.117577L71 26l-3.1207946-.882423L67.002636 22l-.8818414 3.117577L63 26l3.1207946.882423zM85.4972585 28l-1.2081884-4.2857234L80 22.5l4.2890701-1.2142766L85.4972585 17l1.2136714 4.2857234L91 22.5l-4.2890701 1.2142766zM51.002636 56l.8765694-3.117577L55 52l-3.1207946-.882423L51.002636 48l-.8818414 3.117577L47 52l3.1207946.882423zM104.4972585 32l-1.2081884-4.2857234L99 26.5l4.2890701-1.2142766L104.4972585 21l1.2136714 4.2857234L110 26.5l-4.2890701 1.2142766zM118.997364 27l-.8765694-3.117577L115 23l3.1207946-.882423L118.997364 19l.8818414 3.117577L123 23l-3.1207946.882423zM103.002636 61l.8765694-3.117577L107 57l-3.1207946-.882423L103.002636 53l-.8818414 3.117577L99 57l3.1207946.882423zM20.497259 58l-1.208189-4.2857234L15 52.5l4.28907-1.2142766L20.497259 47l1.213671 4.2857234L26 52.5l-4.28907 1.2142766zM42.002636 14l.8765694-3.117577L46 10l-3.1207946-.882423L42.002636 6l-.8818414 3.117577L38 10l3.1207946.882423zM26.002636 42l.876569-3.117577L30 38l-3.120795-.882423L26.002636 34l-.881841 3.117577L22 38l3.120795.882423zM62.997364 67l-.8765694-3.117577L59 63l3.1207946-.882423L62.997364 59l.8818414 3.117577L67 63l-3.1207946.882423zM87.002636 89l.8765694-3.117577L91 85l-3.1207946-.882423L87.002636 81l-.8818414 3.117577L83 85l3.1207946.882423zM77.002636 42l.8765694-3.117577L81 38l-3.1207946-.882423L77.002636 34l-.8818414 3.117577L73 38l3.1207946.882423zM32.002636 79l.8765694-3.117577L36 75l-3.1207946-.882423L32.002636 71l-.8818414 3.117577L28 75l3.1207946.882423zM66.002636 8l.8765694-3.117577L70 4l-3.1207946-.882423L66.002636 0l-.8818414 3.117577L62 4l3.1207946.882423zM108.997364 12l-.8765694-3.117577L105 8l3.1207946-.882423L108.997364 4l.8818414 3.117577L113 8l-3.1207946.882423zM7.002636 51l.876569-3.117577L11 47l-3.120795-.882423L7.002636 43l-.881841 3.117577L3 47l3.120795.882423zM52.002636 102l.8765694-3.117577L56 98l-3.1207946-.882423L52.002636 94l-.8818414 3.117577L48 98l3.1207946.882423zM125 61l.8812607-3.1155225L129 57.002636l-3.1187393-.8818414L125 53l-.8812607 3.1207946L121 57.002636l3.1187393.8818415zM79.002636 105l.8765694-3.117577L83 101l-3.1207946-.882423L79.002636 97l-.8818414 3.117577L75 101l3.1207946.882423zM3.997364 88l-.876569-3.117577L0 84l3.120795-.882423L3.997364 80l.881841 3.117577L8 84l-3.120795.882423z"/>
        </g>
        <g transform="translate(167 43)">
            <mask id="b" fill="#fff">
                <use xlink:href="#a"/>
            </mask>
            <g fill="#5158AF" fill-rule="nonzero" mask="url(#b)">
                <path d="M24.6132261 3.0000864L71 3v72H34.3901637c-7.7471087 0-11.9510218-.2935778-14.8917803-1.9675242C15.544323 70.7878756 15 66.4649899 15 62.1282807V8.5585389c0-3.3783047 3.7728122-5.5584525 9.6132261-5.5584525zM23 19v3h20v-3H23zm1 10v3h38v-3H24zm0 11v3h38v-3H24z"/>
            </g>
        </g>
    </g>
</svg>