<svg xmlns="http://www.w3.org/2000/svg" viewBox="0 0 300 300">
    <g fill="none" fill-rule="evenodd">
        <g fill="#000" fill-rule="nonzero">
            <path d="M101.638745 120.720834v4h-6v-4zM114.638745 120.720834v4h-6v-4zM88.638745 120.720834v4h-6v-4zM76.638745 120.720834v4h-6v-4zM63.638745 120.720834v4h-6v-4zM51.638745 120.720834v4h-6v-4zM33.638745 134.720834h4v7h-4zM33.638745 146.720834h4v7h-4zM33.638745 120.720834h4v7h-4z"/>
        </g>
        <g fill="#EFA90F" fill-rule="nonzero">
            <path d="M85.5027415 46.5l1.2081884-4.2857234L91 41l-4.2890701-1.2142766L85.5027415 35.5l-1.2136714 4.2857234L80 41l4.2890701 1.2142766zM96.0058681 83.5l1.5339724-5.4529946L103 76.5l-5.4601595-1.5470054L96.0058681 69.5l-1.5457086 5.4529946L89 76.5l5.4601595 1.5470054zM136.002636 71.5l.8765694-3.117577L140 67.5l-3.1207946-.882423L136.002636 63.5l-.8818414 3.117577L132 67.5l3.1207946.882423zM109.4972585 67.5l-1.2081884-4.2857234L104 62l4.2890701-1.2142766L109.4972585 56.5l1.2136714 4.2857234L115 62l-4.2890701 1.2142766zM74.9941319 23.5l-1.5339724-5.4529946L68 16.5l5.4601595-1.5470054L74.9941319 9.5l1.5457086 5.4529946L82 16.5l-5.4601595 1.5470054zM71.997364 36.5l-.8765694-3.117577L68 32.5l3.1207946-.882423L71.997364 28.5l.8818414 3.117577L76 32.5l-3.1207946.882423zM46.502741 93.5l1.208189-4.2857234L52 88l-4.28907-1.2142766L46.502741 82.5l-1.213671 4.2857234L41 88l4.28907 1.2142766zM114.0058681 50.5l1.5339724-5.4529946L121 43.5l-5.4601595-1.5470054L114.0058681 36.5l-1.5457086 5.4529946L107 43.5l5.4601595 1.5470054zM37.002636 107.5l.876569-3.117577L41 103.5l-3.120795-.882423L37.002636 99.5l-.881841 3.117577L33 103.5l3.120795.882423zM64.4972585 89.5l-1.2081884-4.2857234L59 84l4.2890701-1.2142766L64.4972585 78.5l1.2136714 4.2857234L70 84l-4.2890701 1.2142766zM36.997364 79.5l-.876569-3.117577L33 75.5l3.120795-.882423L36.997364 71.5l.881841 3.117577L41 75.5l-3.120795.882423zM56.002636 63.5l.8765694-3.117577L60 59.5l-3.1207946-.882423L56.002636 55.5l-.8818414 3.117577L52 59.5l3.1207946.882423zM80.002636 88.5l.8765694-3.117577L84 84.5l-3.1207946-.882423L80.002636 80.5l-.8818414 3.117577L76 84.5l3.1207946.882423zM69.0058681 77.5l1.5339724-5.4529946L76 70.5l-5.4601595-1.5470054L69.0058681 63.5l-1.5457086 5.4529946L62 70.5l5.4601595 1.5470054zM61.9941319 50.5l-1.5339724-5.4529946L55 43.5l5.4601595-1.5470054L61.9941319 36.5l1.5457086 5.4529946L69 43.5l-5.4601595 1.5470054zM94.0058681 61.5l1.5339724-5.4529946L101 54.5l-5.4601595-1.5470054L94.0058681 47.5l-1.5457086 5.4529946L87 54.5l5.4601595 1.5470054zM89.002636 30.5l.8765694-3.117577L93 26.5l-3.1207946-.882423L89.002636 22.5l-.8818414 3.117577L85 26.5l3.1207946.882423zM107.4972585 28.5l-1.2081884-4.2857234L102 23l4.2890701-1.2142766L107.4972585 17.5l1.2136714 4.2857234L113 23l-4.2890701 1.2142766zM73.002636 56.5l.8765694-3.117577L77 52.5l-3.1207946-.882423L73.002636 48.5l-.8818414 3.117577L69 52.5l3.1207946.882423zM126.4972585 32.5l-1.2081884-4.2857234L121 27l4.2890701-1.2142766L126.4972585 21.5l1.2136714 4.2857234L132 27l-4.2890701 1.2142766zM140.997364 27.5l-.8765694-3.117577L137 23.5l3.1207946-.882423L140.997364 19.5l.8818414 3.117577L145 23.5l-3.1207946.882423zM125.002636 61.5l.8765694-3.117577L129 57.5l-3.1207946-.882423L125.002636 53.5l-.8818414 3.117577L121 57.5l3.1207946.882423zM42.497259 58.5l-1.208189-4.2857234L37 53l4.28907-1.2142766L42.497259 47.5l1.213671 4.2857234L48 53l-4.28907 1.2142766zM64.002636 14.5l.8765694-3.117577L68 10.5l-3.1207946-.882423L64.002636 6.5l-.8818414 3.117577L60 10.5l3.1207946.882423zM48.002636 42.5l.876569-3.117577L52 38.5l-3.120795-.882423L48.002636 34.5l-.881841 3.117577L44 38.5l3.120795.882423zM84.997364 67.5l-.8765694-3.117577L81 63.5l3.1207946-.882423L84.997364 59.5l.8818414 3.117577L89 63.5l-3.1207946.882423zM109.002636 89.5l.8765694-3.117577L113 85.5l-3.1207946-.882423L109.002636 81.5l-.8818414 3.117577L105 85.5l3.1207946.882423zM99.002636 42.5l.8765694-3.117577L103 38.5l-3.1207946-.882423L99.002636 34.5l-.8818414 3.117577L95 38.5l3.1207946.882423zM54.002636 79.5l.8765694-3.117577L58 75.5l-3.1207946-.882423L54.002636 71.5l-.8818414 3.117577L50 75.5l3.1207946.882423zM88.002636 8.5l.8765694-3.117577L92 4.5l-3.1207946-.882423L88.002636.5l-.8818414 3.117577L84 4.5l3.1207946.882423zM130.997364 12.5l-.8765694-3.117577L127 8.5l3.1207946-.882423L130.997364 4.5l.8818414 3.117577L135 8.5l-3.1207946.882423zM29.002636 51.5l.876569-3.117577L33 47.5l-3.120795-.882423L29.002636 43.5l-.881841 3.117577L25 47.5l3.120795.882423zM74.002636 102.5l.8765694-3.117577L78 98.5l-3.1207946-.882423L74.002636 94.5l-.8818414 3.117577L70 98.5l3.1207946.882423zM147 61.5l.8812607-3.1155225L151 57.502636l-3.1187393-.8818414L147 53.5l-.8812607 3.1207946L143 57.502636l3.1187393.8818415zM101.002636 105.5l.8765694-3.117577L105 101.5l-3.1207946-.882423L101.002636 97.5l-.8818414 3.117577L97 101.5l3.1207946.882423zM25.997364 88.5l-.876569-3.117577L22 84.5l3.120795-.882423L25.997364 80.5l.881841 3.117577L30 84.5l-3.120795.882423z"/>
        </g>
        <path fill="#5158AF" d="M29 214H6c-2.209139 0-4-1.790861-4-4v-34c0-2.209139 1.790861-4 4-4h1.5351288C7.1947886 172.5883467 7 173.2714257 7 174v30c0 2.209139 1.790861 4 4 4h18v6zm9 0v-6h18c2.209139 0 4-1.790861 4-4v-30c0-.7285743-.1947886-1.4116533-.5351288-2H62c2.209139 0 4 1.790861 4 4v34c0 2.209139-1.790861 4-4 4H38z"/>
        <path fill="#000" fill-rule="nonzero" d="M40.4791083 204.7999244c.3571379 0 .7142479-.1367167.9869239-.4101572.5452474-.5468739.5452474-1.4328271 0-1.979666l-6.9791662-6.999986c-.5452474-.5468739-1.4285656-.5468739-1.973778 0l-6.9791663 6.999986c-.5452473.5468739-.5452473 1.4328271 0 1.979666.5452474.5468389 1.4285656.5468739 1.973778 0l4.5964091-4.6101208v21.8203564c0 .7738485.6243074 1.3999972 1.3958333 1.3999972.7715259 0 1.3958332-.6261697 1.3958332-1.3999972v-21.8203564l4.5964091 4.6101208c.2726202.2734405.6297581.4101572.9869239.4101572zm-26.5208317-25.1999496h13.9583325c.7715468 0 1.3958332-.6261697 1.3958332-1.3999972s-.6243073-1.3999972-1.3958332-1.3999972H13.9582766c-.7715468 0-1.3958332.6261697-1.3958332 1.3999972s.6243073 1.3999972 1.3958332 1.3999972zm0 6.999986h13.9583325c.7715468 0 1.3958332-.6261697 1.3958332-1.3999972s-.6243073-1.3999972-1.3958332-1.3999972H13.9582766c-.7715468 0-1.3958332.6261697-1.3958332 1.3999972s.6243073 1.3999972 1.3958332 1.3999972zm15.3541657 5.5999888c0-.7738485-.6243073-1.3999972-1.3958332-1.3999972H13.9582766c-.7715468 0-1.3958332.6261697-1.3958332 1.3999972s.6243073 1.3999972 1.3958332 1.3999972h13.9583325c.7715468 0 1.3958332-.6261697 1.3958332-1.3999972zm-15.3541657 5.5999888c-.7715468 0-1.3958332.6261697-1.3958332 1.3999972s.6243073 1.3999972 1.3958332 1.3999972h8.3749995c.7715468 0 1.3958333-.6261697 1.3958333-1.3999972s-.6243074-1.3999972-1.3958333-1.3999972h-8.3749995zm25.1249985-18.1999636h13.9583324c.7715468 0 1.3958333-.6261697 1.3958333-1.3999972s-.6243074-1.3999972-1.3958333-1.3999972H39.0832751c-.7715469 0-1.3958333.6261697-1.3958333 1.3999972s.6243074 1.3999972 1.3958333 1.3999972zm0 6.999986h13.9583324c.7715468 0 1.3958333-.6261697 1.3958333-1.3999972s-.6243074-1.3999972-1.3958333-1.3999972H39.0832751c-.7715469 0-1.3958333.6261697-1.3958333 1.3999972s.6243074 1.3999972 1.3958333 1.3999972zm0 6.999986h13.9583324c.7715468 0 1.3958333-.6261697 1.3958333-1.3999972s-.6243074-1.3999972-1.3958333-1.3999972H39.0832751c-.7715469 0-1.3958333.6261697-1.3958333 1.3999972s.6243074 1.3999972 1.3958333 1.3999972zm13.9583324 4.1999916H44.666608c-.7715468 0-1.3958332.6261697-1.3958332 1.3999972s.6243074 1.3999972 1.3958332 1.3999972h8.3749995c.7715468 0 1.3958333-.6261697 1.3958333-1.3999972s-.6243074-1.3999972-1.3958333-1.3999972zm8.3749995-26.5999468h-.1990179C60.5932817 168.7910164 58.4259226 167 55.8333019 167H37.6874697c-1.6657176 0-3.1623998.7355585-4.1874997 1.9003562C32.4748701 167.7354885 30.9781879 167 29.3124703 167H11.1666381c-2.5954124 0-4.7600008 1.7910164-5.3842872 4.1999916h-.199018C2.2436625 171.1999916 0 173.4503471 0 176.7999804v33.5999328c0 3.0871338 2.505381 5.5999888 5.583333 5.5999888h22.3333319c.7715468 0 1.3958333-.6261697 1.3958333-1.3999972s-.6243074-1.3999972-1.3958333-1.3999972H5.5833329c-1.5403019 0-2.7916664-1.2578275-2.7916664-2.7999944v-33.5999328c0-.8421683.2726202-2.7999944 2.7916665-2.7999944v30.7999384c0 3.0871338 2.505381 5.5999888 5.583333 5.5999888h16.7499989c.7715468 0 1.3958333-.6261697 1.3958333-1.3999972s-.6243074-1.3999972-1.3958333-1.3999972H11.166666c-1.540302 0-2.7916665-1.2578275-2.7916665-2.7999944v-32.1915356c0-.002735.002726-.0054691.002726-.0082033v-.0054684c0-1.542167 1.2513645-2.7945344 2.7889447-2.7945344h18.1458322c1.5403019 0 2.7916664 1.2550975 2.7916664 2.7999944v16.7999664c0 .7738485.6243074 1.3999972 1.3958333 1.3999972.7715259 0 1.3958332-.6261697 1.3958332-1.3999972v-16.7999664c0-1.544897 1.2513645-2.7999944 2.7916665-2.7999944H55.833334c1.540302 0 2.7916665 1.2550975 2.7916665 2.7999944v32.1999356c0 1.5421669-1.2513645 2.7999944-2.7916665 2.7999944H39.0833351c-.7715468 0-1.3958333.6261697-1.3958333 1.3999972s.6243074 1.3999972 1.3958333 1.3999972H55.833334c3.0779519 0 5.583333-2.512855 5.583333-5.5999888v-30.7999384c2.5190603 0 2.7916665 1.957826 2.7916665 2.7999944v33.5999328c0 1.5421669-1.2513645 2.7999944-2.7916665 2.7999944H39.0833351c-.7715468 0-1.3958333.6261697-1.3958333 1.3999972s.6243074 1.3999972 1.3958333 1.3999972H61.416667c3.0779519 0 5.583333-2.512855 5.583333-5.5999888v-33.5999328c0-3.3496333-2.2436624-5.5999888-5.583333-5.5999888l-.00006-.0001883z"/>
        <g transform="translate(145 179)">
            <circle cx="64" cy="64" r="22" fill="#5158AF"/>
            <path fill="#000" fill-rule="nonzero" d="M29 0C18.531 0 10 8.5312 10 19s8.5312 19 19 19 19-8.5312 19-19S39.4688 0 29 0zm0 4c8.3086 0 15 6.6914 15 15s-6.6914 15-15 15-15-6.6914-15-15S20.6914 4 29 4zm35 36c-6.793 0-12.941 2.8516-17.312 7.4062C41.7739 44.0117 35.629 42 29 42 13.129 42 0 53.527 0 68c0 1.1055.89453 2 2 2h38.75C43.418 80.344 52.836 88 64 88c13.23 0 24-10.77 24-24S77.23 40 64 40zm-35 6c5.7422 0 10.984 1.6992 15.156 4.5312-2.6211 3.8438-4.1562 8.4766-4.1562 13.469 0 .66797.039062 1.3438.09375 2h-35.875c1.1562-11.109 11.621-20 24.781-20L29 46zm35 39c-11.5979797 0-21-9.4020203-21-21s9.4020203-21 21-21 21 9.4020203 21 21-9.4020203 21-21 21z"/>
        </g>
        <path fill="#EFA90F" d="M152.2876961 132.539689c.0086049.0056968.0172097.0113928.0258138.0170896.0717053-.0683572.14628-.1367144.2151172-.2079226.5879836-.598124 1.0296579-1.2902201 1.3508982-2.0564044.6826376-1.6263553.8317738-3.3181878.5937182-5.0499044-.1806949-1.3215732-.5851126-2.5776693-1.2017692-3.7653717-.7485818-1.4440694-1.7438761-2.6887179-3.0690017-3.6542502-1.1673323-.8487964-2.4552307-1.381363-3.9237579-1.4155599-.1692257-.002848-.3413151 0-.5535687.0341786.0745718.0398755.1032522.0569644.1319399.0712053 1.3881988.6465464 2.5813771 1.5494307 3.5967169 2.6830306 2.1540357 2.4010707 3.3185044 5.2150555 3.5336436 8.4194239.1089941 1.6434173-.1089941 3.2469505-.671161 4.8020685-.0114721.0341793-.0172089.0797537-.0286818.1224743l.0000925-.0000576zM166.1839103 92.4762786c-.9490561-.1153923-1.8750007-.0086546-2.7865005.2682861-1.3483975.4125246-2.5202729 1.1337614-3.5706644 2.0597798-2.9803563 2.6280637-4.6846869 6.8629787-4.3634952 10.7519753.0810238.966415.2777834 1.9068343.6336942 2.8126914.4716539 1.1943192 1.1632086 2.2299326 2.1817476 3.0319551.0520848.0403869.1070614.0778907.2025522.1471261-.0347221-.0952014-.0491906-.1442385-.0694458-.193283-.5410998-1.315435-.8333501-2.6886216-.9114998-4.1050848-.0636591-1.1654436.0115743-2.3251267.2285898-3.4732891.558463-2.9425215 1.8027029-5.5561104 3.7963726-7.8001486 1.2992114-1.4655003 2.8299088-2.6223033 4.6470565-3.3838554.0405097-.0201938.0752311-.0403876.1128467-.0576961-.0375919-.0469176-.0694214-.0555722-.1012539-.0584568zM140.7337001 83.8773898c-.0114377.0142838-.0200154.0285676-.0314538.0428522.0514699.0457088.1000806.088558.1486934.1342669.4746652.4370933.9178685.9027674 1.3182053 1.4084166 1.9615698 2.4682761 2.96523 5.2965183 3.1825641 8.4191984.1200937 1.6940785-.034313 3.3710436-.4460729 5.0194132-.7948907 3.1910605-2.3733259 5.916403-4.8753393 8.0820502-.0285946.025711-.0686261.0371383-.1029354.057136.0142969.0171405.0257346.031425.0371722.0485655.1115146-.0428515.2258913-.0799941.334551-.1257029 1.6098385-.6570661 2.9508826-1.6826696 4.0603916-3.0082253 1.9729891-2.3568928 2.9709396-5.1022741 3.1911285-8.1478708.0943636-1.3112946-.0028592-2.6111071-.2830832-3.8995106-.3688677-1.7026352-1.0351367-3.2767737-2.0730551-4.6851172-1.0093699-1.3684123-2.2675503-2.4339763-3.8459123-3.1053474-.1972989-.088558-.408894-.1599808-.6147721-.2399676l-.000082-.0001572z"/>
        <path fill="#FFCA54" stroke="#979797" d="M122.4304982 96.0556813c.020016.3371044.0371722.8999152.0915013 1.4569777.1458313 1.5112432.5518704 2.9511075 1.2209943 4.3165944.7691971 1.5626565 1.8100435 2.9053987 3.219677 3.9509239 1.858649 1.3798212 3.9488331 1.9340315 6.242077 1.7198217 1.3210602-.1257029 2.550619-.5599294 3.697241-1.2284336 1.755655-1.0255596 3.119611-2.4483106 4.1433284-4.1938023 1.5097726-2.5739549 2.113096-5.3593405 1.8814877-8.3277808-.0943635-1.2083948-.3545714-2.3825629-.7806165-3.5195789-.6948394-1.8483183-1.7499453-3.4539045-3.279775-4.7222693-1.681356-1.3912301-3.6143041-2.10831-5.8046273-2.0911967-1.3782302.0114272-2.6850162.3428162-3.9174299.9513285-1.6670085.8199065-3.0138354 2.0140402-4.0975777 3.5110222-1.721397 2.3740063-2.527707 5.0450833-2.6163535 8.1763932h.0000732z"/>
        <path fill="#000" fill-rule="nonzero" d="M134.3286042 81.000294c.3517093.0142846.7034187.031425 1.0551206.037139.6976943.0142838 1.3953593.025711 2.095967.0342808.3860187.0028574.7749068-.0171404 1.1580413 0 2.2074523.0971295 4.1862243.8341677 5.9504439 2.1511667 1.5898546 1.185577 2.7965014 2.6911157 3.7029506 4.4451641.8092381 1.568361 1.3153505 3.2310649 1.5526684 4.9794089.1572653 1.1455726.2001611 2.2939975.1086598 3.4481269-.2773663 3.4938357-1.4440381 6.6391874-3.7029507 9.3472702-1.4354002 1.7226739-3.182564 3.0338953-5.2899503 3.8395406-1.3782303.5256514-2.8079209.7484545-4.2834353.7141985-1.423981-.031425-2.8479619-.0428522-4.2719428-.037139-2.6163535.0114279-4.9639127-.7713454-7.0370409-2.3597451-1.8271725-1.3998599-3.142523-3.2024694-4.0632464-5.2993705-.5918967-1.3484467-.969329-2.7567902-1.146622-4.2194724-.0428914-.3428161-.068626-.6884918-.1057975-1.0313371-.0085785-.0657066-.034313-.1285552-.0514699-.1914066v-1.5855475c.0257353-.1314146.057189-.2628293.074343-.3942367.0714853-.5627889.1143767-1.1341637.2087403-1.6912262.3688676-2.191171 1.1551865-4.228029 2.3761807-6.0878294 1.2781644-1.9483657 2.9109148-3.5281356 4.9668408-4.6508904 1.3725205-.7484544 2.8336876-1.2198769 4.3920657-1.376969.1744236-.0171404.3459923-.0457088.5175537-.0714198h1.7928412l.0000388.000294zm-11.898106 15.0553873c.020016.3371044.0371722.8999152.0915013 1.4569777.1458313 1.5112432.5518704 2.9511075 1.2209943 4.3165944.7691971 1.5626565 1.8100435 2.9053987 3.219677 3.9509239 1.858649 1.3798212 3.9488331 1.9340315 6.242077 1.7198217 1.3210602-.1257029 2.550619-.5599294 3.697241-1.2284336 1.755655-1.0255596 3.119611-2.4483106 4.1433284-4.1938023 1.5097726-2.5739549 2.113096-5.3593405 1.8814877-8.3277808-.0943635-1.2083948-.3545714-2.3825629-.7806165-3.5195789-.6948394-1.8483183-1.7499453-3.4539045-3.279775-4.7222693-1.681356-1.3912301-3.6143041-2.10831-5.8046273-2.0911967-1.3782302.0114272-2.6850162.3428162-3.9174299.9513285-1.6670085.8199065-3.0138354 2.0140402-4.0975777 3.5110222-1.721397 2.3740063-2.527707 5.0450833-2.6163535 8.1763932h.0000732zM140.7337 83.8773898c-.0114377.0142838-.0200154.0285676-.0314538.0428522.0514699.0457088.1000806.088558.1486934.1342669.4746652.4370933.9178685.9027674 1.3182053 1.4084166 1.9615698 2.4682761 2.96523 5.2965183 3.1825641 8.4191984.1200937 1.6940785-.034313 3.3710436-.4460729 5.0194132-.7948907 3.1910605-2.3733259 5.916403-4.8753393 8.0820502-.0285946.025711-.0686261.0371383-.1029354.057136.0142969.0171405.0257346.031425.0371722.0485655.1115146-.0428515.2258913-.0799941.334551-.1257029 1.6098385-.6570661 2.9508826-1.6826696 4.0603916-3.0082253 1.9729891-2.3568928 2.9709396-5.1022741 3.1911285-8.1478708.0943636-1.3112946-.0028592-2.6111071-.2830832-3.8995106-.3688677-1.7026352-1.0351367-3.2767737-2.0730551-4.6851172-1.0093699-1.3684123-2.2675503-2.4339763-3.8459123-3.1053474-.1972989-.088558-.408894-.1599808-.6147721-.2399676l-.000082-.0001572z"/>
        <path fill="#FFCA54" d="M159.9048381 106.4504678c.0086801.5740738.052084 1.1395218.1388916 1.7020453.1678256 1.0904847.4861209 2.1318584 1.0272059 3.0982734.6828878 1.2231212 1.6232919 2.1837757 2.9109474 2.775175 1.3918058.6404289 2.8327978.6952412 4.3027533.3057877 1.3107671-.3461769 2.4624199-.9924105 3.5012556-1.8462765 1.739072-1.427984 2.9890972-3.2108223 3.8137064-5.2907635.8709804-2.1924902 1.2008389-4.4570589.7957197-6.7994668-.1880853-1.0876045-.5410998-2.1203376-1.1140224-3.0693976-.6973548-1.1568029-1.6348477-2.0539455-2.8848729-2.5991879-1.3628422-.5942721-2.7633889-.6375414-4.1898621-.2625183-1.3107671.3432892-2.4769387.9750555-3.5012556 1.8462764-3.1308778 2.6569394-4.6326117 6.0898319-4.8004669 10.13975v.0003028z"/>
        <path fill="#000" fill-rule="nonzero" d="M178.994111 103.0262159c-.0115743.0519261-.0318295.1038493-.0318295.1557814-.052084 1.5894963-.4166751 3.1126743-.9693529 4.5955297-.7928307 2.1232178-1.9675951 4.0156512-3.5706644 5.6253826-1.4294362 1.4337445-3.0787286 2.5271093-5.0203232 3.1444303-1.1632086.3721429-2.3553807.5163814-3.5735534.4269478-1.079281-.0807783-2.1007089-.3750231-3.0758397-.839465-.6857767-.325986-1.3889168-.6202307-2.0891531-.9144976-.5410998-.227897-1.0909108-.447146-1.6406256-.6548521-1.8084808-.6865859-3.2031756-1.8780324-4.2391223-3.4935242-.7668303-1.1943193-1.2529141-2.503994-1.5249196-3.8915815-.2517384-1.2779925-.3269769-2.5675058-.1938706-3.8598993.4427201-4.2521961 2.2136001-7.8348586 5.4861845-10.6360291 1.3455085-1.1510426 2.879095-1.9732264 4.6095001-2.4001594 1.9907808-.4904153 3.9237086-.3548321 5.8132281.4731047 1.1053556.4846475 2.2367117.9000967 3.359475 1.3443108.2806797.1096245.5700337.2019383.8477948.3173306 1.8258145.7442709 3.2089535 1.9991481 4.2159367 3.6752716.7089254 1.1827986 1.1516528 2.4635974 1.3975837 3.8137424.0954908.5250367.1707219 1.0529684.1736109 1.5894963 0 .0605808.0202552.1182799.0318295.1788599-.0057868.447146-.0057868.9000967-.0057868 1.3500712l-.0001022-.0002511zm-19.0892729 3.4242519c.0086801.5740738.052084 1.1395218.1388916 1.7020453.1678256 1.0904847.4861209 2.1318584 1.0272059 3.0982734.6828878 1.2231212 1.6232919 2.1837757 2.9109474 2.775175 1.3918058.6404289 2.8327978.6952412 4.3027533.3057877 1.3107671-.3461769 2.4624199-.9924105 3.5012556-1.8462765 1.739072-1.427984 2.9890972-3.2108223 3.8137064-5.2907635.8709804-2.1924902 1.2008389-4.4570589.7957197-6.7994668-.1880853-1.0876045-.5410998-2.1203376-1.1140224-3.0693976-.6973548-1.1568029-1.6348477-2.0539455-2.8848729-2.5991879-1.3628422-.5942721-2.7633889-.6375414-4.1898621-.2625183-1.3107671.3432892-2.4769387.9750555-3.5012556 1.8462764-3.1308778 2.6569394-4.6326117 6.0898319-4.8004669 10.13975v.0003028zm6.2790722-13.9741892c-.9490561-.1153923-1.8750007-.0086546-2.7865005.2682861-1.3483975.4125246-2.5202729 1.1337614-3.5706644 2.0597798-2.9803563 2.6280637-4.6846869 6.8629787-4.3634952 10.7519753.0810238.966415.2777834 1.9068343.6336942 2.8126914.4716539 1.1943192 1.1632086 2.2299326 2.1817476 3.0319551.0520848.0403869.1070614.0778907.2025522.1471261-.0347221-.0952014-.0491906-.1442385-.0694458-.193283-.5410998-1.315435-.8333501-2.6886216-.9114998-4.1050848-.0636591-1.1654436.0115743-2.3251267.2285898-3.4732891.558463-2.9425215 1.8027029-5.5561104 3.7963726-7.8001486 1.2992114-1.4655003 2.8299088-2.6223033 4.6470565-3.3838554.0405097-.0201938.0752311-.0403876.1128467-.0576961-.0375919-.0469176-.0694214-.0555722-.1012539-.0584568zM144.1248141 137.9941953c-.2065117-.0313306-.4130233-.0626612-.619535-.0968376-1.2735068-.2136173-2.4437027-.6864233-3.5250527-1.3756757-1.7381489-1.1050904-3.0775926-2.5833566-4.1043868-4.3491972-.9035114-1.5579616-1.4799818-3.2298884-1.7352852-5.0071766-.3011656-2.0906012-.1319399-4.1384746.6396097-6.1179543.5478267-1.4041852 1.3595625-2.6260844 2.532622-3.597304.2868181-.236403.6051948-.4357801.9063751-.655092.3269749-.2392467.6969777-.3873577 1.0669584-.5411633 1.1530142-.4785006 2.308892-.9570013 3.4590425-1.446913.5134118-.2193119 1.0239306-.4386238 1.5660374-.5724946 1.637775-.4072925 3.2382494-.270578 4.8100141.3076112 1.405454.5155266 2.6301323 1.3215732 3.7028915 2.3554992 1.9303056 1.8542128 3.1607846 4.1042777 3.7946744 6.6847907.3097637 1.2560961.433098 2.5292542.3613972 3.8194742-.1147287 2.0079892-.6596918 3.8821076-1.8184773 5.5540345-.6023238.8658583-1.3423073 1.5921585-2.2343642 2.1675259-.0229457.0142409-.0487595.0256337-.0688372.0455714-.2495322.2677344-.5908546.3788121-.9149659.5155266-1.4369539.6152151-2.8711176 1.2304302-4.3109351 1.8370779-.1405454.0598132-.2982946.091143-.4474456.1310199-.2179882.0569643-.4330981.1139287-.6539499.1566492-.3011655.0569644-.6023238.1025323-.9035113.1538056-.0516283.0085449-.1032595.0256346-.1577492.0370267-.4474456-.0056961-.8977842-.0056961-1.345171-.0056961l.0000441-.0001086zm6.4878799-9.6071993c-.0172097-1.6035331-.3527917-3.1359018-1.0038853-4.5998768-.7141888-1.6092205-1.720967-3.002031-3.1177567-4.0985904-1.0583676-.8345052-2.2372278-1.4098726-3.5938533-1.5693363-1.4713908-.1708968-2.7936528.1879805-3.9523942 1.1107777-.8432283.6721831-1.4312266 1.5323687-1.8385227 2.5149629-.6596918 1.5807839-.8117284 3.2242012-.5965891 4.9103463.1778313 1.3785194.5937182 2.6887179 1.2419334 3.9219918.7485818 1.4297782 1.7410125 2.6602084 3.0575472 3.614366 1.0325215.7518932 2.1712175 1.2560961 3.4590424 1.381363 1.2160875.1196234 2.3404653-.142409 3.3672596-.7975375.9522665-.6095205 1.6349113-1.455444 2.125326-2.4608604.6023238-1.2389613.8403647-2.5576908.8518927-3.9276792v.0000729zm1.6750021 4.152693c.0086049.0056968.0172097.0113928.0258138.0170896.0717053-.0683572.14628-.1367144.2151172-.2079226.5879836-.598124 1.0296579-1.2902201 1.3508982-2.0564044.6826376-1.6263553.8317738-3.3181878.5937182-5.0499044-.1806949-1.3215732-.5851126-2.5776693-1.2017692-3.7653717-.7485818-1.4440694-1.7438761-2.6887179-3.0690017-3.6542502-1.1673323-.8487964-2.4552307-1.381363-3.9237579-1.4155599-.1692257-.002848-.3413151 0-.5535687.0341786.0745718.0398755.1032522.0569644.1319399.0712053 1.3881988.6465464 2.5813771 1.5494307 3.5967169 2.6830306 2.1540357 2.4010707 3.3185044 5.2150555 3.5336436 8.4194239.1089941 1.6434173-.1089941 3.2469505-.671161 4.8020685-.0114721.0341793-.0172089.0797537-.0286818.1224743l.0000925-.0000576z"/>
        <path fill="#FFCA54" d="M150.612694 128.386996c-.0172097-1.6035331-.3527917-3.1359018-1.0038853-4.5998768-.7141888-1.6092205-1.720967-3.002031-3.1177567-4.0985904-1.0583676-.8345052-2.2372278-1.4098726-3.5938533-1.5693363-1.4713908-.1708968-2.7936528.1879805-3.9523942 1.1107777-.8432283.6721831-1.4312266 1.5323687-1.8385227 2.5149629-.6596918 1.5807839-.8117284 3.2242012-.5965891 4.9103463.1778313 1.3785194.5937182 2.6887179 1.2419334 3.9219918.7485818 1.4297782 1.7410125 2.6602084 3.0575472 3.614366 1.0325215.7518932 2.1712175 1.2560961 3.4590424 1.381363 1.2160875.1196234 2.3404653-.142409 3.3672596-.7975375.9522665-.6095205 1.6349113-1.455444 2.125326-2.4608604.6023238-1.2389613.8403647-2.5576908.8518927-3.9276792v.0000729z"/>
        <g fill="#000" fill-rule="nonzero">
            <path d="M203 123v-4h5v4zM191 123v-4h5v4zM215 123v-4h5v4zM216 131h4v7h-4zM216 172h4v7h-4zM216 145h4v7h-4zM216 186h4v7h-4zM216 158h4v7h-4zM216 199h4v7h-4z"/>
        </g>
        <path fill="#000" fill-rule="nonzero" d="M204.2 247.654272c0-.887368-.718752-1.611113-1.6-1.611113-.881248 0-1.6.723745-1.6 1.611113 0 3.259926 2.74368 6.003974 6.4 6.633274v1.101341c0 .887369.718752 1.611113 1.6 1.611113.881248 0 1.6-.723744 1.6-1.611113v-1.101341c3.65632-.629332 6.4-3.354337 6.4-6.633274 0-3.316637-3.21248-4.92775-6.4-6.243062v-7.382119c1.83744.497173 3.2 1.812502 3.2 3.316637 0 .887368.718752 1.611113 1.6 1.611113.881248 0 1.6-.723745 1.6-1.611113 0-3.278937-2.74368-6.003974-6.4-6.633274v-1.101341c0-.887369-.718752-1.611113-1.6-1.611113-.881248 0-1.6.723744-1.6 1.611113v1.101341c-3.65632.629332-6.4 3.354337-6.4 6.633274 0 3.316637 3.21248 4.92775 6.4 6.243062v7.382119c-1.83744-.497173-3.2-1.812502-3.2-3.316637zm9.6 0c0 1.504119-1.362496 2.819448-3.2 3.316637v-6.05424c1.74368.792974 3.2 1.680391 3.2 2.737603zm-9.6-10.308544c0-1.504119 1.362496-2.819448 3.2-3.316637v6.05424c-1.74368-.792974-3.2-1.680391-3.2-2.737603z"/>
    </g>
</svg>