<svg xmlns="http://www.w3.org/2000/svg"  viewBox="0 0 300 300">
    <g fill="none" fill-rule="evenodd">
        <path fill="#5158AF" d="M122.4347281 151H126c2.209139 0 4-1.790861 4-4 0-1.1946925-.5237549-2.2670555-1.3541756-3H133c2.209139 0 4-1.790861 4-4s-1.790861-4-4-4h-4.3541756C129.4762451 135.2670555 130 134.1946925 130 133c0-2.209139-1.790861-4-4-4h-3.5652719c4.1433267-8.8610342 13.1373832-15 23.5652719-15 14.3594035 0 26 11.6405965 26 26s-11.6405965 26-26 26c-10.4278887 0-19.4219452-6.1389658-23.5652719-15zm24.578968-13.6926047c-.8567389-.350513-1.8384023-.1572146-2.4920223.489689-.6562066.6469036-.8514726 1.6211022-.4973579 2.4664902.3541148.845388 1.187382 1.3969058 2.1118494 1.3969058 1.26291-.0025771 2.2837038-1.0154816 2.2889035-2.2628792-.0000067-.9149232-.5572603-1.7396598-1.4113727-2.0902058z"/>
        <path fill="#000" fill-rule="nonzero" d="M169.475561 121.5905552l-1.8540011 1.8530842c3.8877228 5.1262326 5.773055 11.4717559 5.309488 17.8657737-.4609071 6.3942816-3.2419688 12.4073371-7.8301083 16.9328317-4.5856063 4.5257584-10.6685725 7.260321-17.131445 7.6984211-.6145429.0386597-1.2212463.0592781-1.8254032.0592781-7.6061243.0154641-14.8636068-3.1726627-19.9519106-8.7679395-.5911045-.6803747-.5260025-1.7010027.145823-2.3015429.6718187-.6005138 1.7056117-.559277 2.3279673.0902064 5.5751358 6.1107702 13.9963353 8.8530523 22.1497538 7.2187543 8.152752-1.6366073 14.8269428-7.4094334 17.5614144-15.1857097 2.7316052-7.7782557 1.1145206-16.4043405-4.2548966-22.6934518-.5624598-.6572095-.5207961-1.6288877.09374-2.2370815l2.9060595-2.8762853c.4218432-.4613378.4036179-1.1700703-.0390599-1.6082363-.4452816-.4407194-1.1613839-.4587581-1.627484-.0412368l-3.0205846 2.9896371h.0026038c-.588498.5798954-1.5180917.6443238-2.1795112.1494818-3.3460947-2.4819292-7.2988129-4.0360629-11.4551831-4.4999607-.8436732-.0902064-1.4842942-.7937925-1.4842942-1.6340341v-5.319551c-.0078114-.4407194.1640483-.8685465.476526-1.183002.3150842-.3144293.7421471-.4922623 1.1900485-.4922623h1.5259578c.6509936 0 1.1795826-.523193 1.1795826-1.167497 0-.6443239-.528609-1.1674972-1.1795826-1.1674972h-8.7467096c-.6509936 0-1.1795825.5231931-1.1795825 1.1674971 0 .6443238.5286089 1.1674971 1.1795825 1.1674971h1.5259579c.4426751 0 .8671381.17268 1.1795825.4819563.3124444.3092762.4869453.729397.4869453 1.1674971v5.3453487c0 .8376025-.6379745 1.5412018-1.4790945 1.6340341-5.3876158.6108197-10.3979252 3.0412327-14.1863217 6.8842412-.6457873.6520565-1.7030119.6623624-2.3618316.0231956-.6588064-.6417507-.669219-1.6881369-.0234357-2.3402066 3.9710502-4.0154115 9.1220162-6.6882838 14.7176172-7.6337618v-2.2628792c-2.3513657-.2113371-4.137705-2.1804056-4.1012409-4.518039.0364561-2.3350602 1.8852656-4.2499665 4.2418975-4.3891161h8.7467096c2.356632.139176 4.2054335 2.054122 4.2418976 4.3891161.036456 2.3376334-1.7524751 4.3066425-4.1012409 4.518039v2.2370815c3.7236678.6237053 7.2754812 2.0206046 10.4185904 4.0978851l1.9998574-1.9793678c1.7602744-1.7473859 4.6194706-1.7473859 6.3823448-.0051543 1.7628743 1.7448127 1.7654742 4.5721417.0026039 6.3195276l.0203705.013428zM104 132.9257348c0 .4355665.2740356.8556807.7648434 1.1649239.4949017.3092762 1.157521.4845361 1.8527666.4845361h18.1758546c1.4478698 0 2.6176413-.7396898 2.6176413-1.6494732 0-.9123566-1.1697715-1.6494732-2.6176413-1.6494732h-18.164337c-1.4437863 0-2.6135579.7345434-2.6176414 1.6417537L104 132.9257348zm29.7594412 6.675088c0-.4355665-.2781192-.8556807-.7689374-1.1649239-.4908182-.3092433-1.157521-.4845361-1.848683-.4845361h-18.1685252c-1.4478698 0-2.6176414.7396898-2.6176414 1.6494732 0 .9123566 1.1697716 1.6494731 2.6176414 1.6494731h18.1685252c.6912248 0 1.3579276-.17268 1.848683-.4819562.4907554-.3092762.7689374-.7293971.7689374-1.1674971v-.000033zm-27.1292352 9.3351178h18.164337c1.4478698 0 2.6176414-.7396898 2.6176414-1.6494732 0-.9123566-1.1697716-1.6494732-2.6176414-1.6494732h-18.164337c-1.4478697 0-2.6176413.7371166-2.6176413 1.6494732 0 .9097834 1.1697716 1.6494732 2.6176413 1.6494732zm48.7530266-16.3605539l-4.273162 4.2293811c1.299374 2.4381193.5989173 5.450981-1.6430828 7.0848172-2.2420401 1.6366072-5.3537516 1.4046253-7.3221445-.5463847-1.9711928-1.9484237-2.2055761-5.02832-.5520407-7.2471253 1.650949-2.2190692 4.6949986-2.9123758 7.1581563-1.6262486l4.2731619-4.2293811c.6509936-.6443238 1.7082115-.6443238 2.3592318 0 .6509936.6443238.6509936 1.69071 0 2.3350602l-.00012-.0001188zm-8.3695365 4.7320086c-.8567389-.350513-1.8384023-.1572146-2.4920223.489689-.6562066.6469036-.8514726 1.6211022-.4973579 2.4664902.3541148.845388 1.187382 1.3969058 2.1118494 1.3969058 1.26291-.0025771 2.2837038-1.0154816 2.2889035-2.2628792-.0000067-.9149232-.5572603-1.7396598-1.4113727-2.0902058zm15.6366183 13.0103845c3.6898702-5.450981 4.3850873-12.3631312 1.8514013-18.4279142-2.5310862-6.064387-7.9580992-10.4741545-14.4576357-11.7548055-6.5021364-1.2834881-13.2203906.7345434-17.9073897 5.3736537-.6509936.6469036-.6509936 1.69071 0 2.3376333.6536.6443238 1.7082115.6443238 2.3618315 0 3.0935128-3.0695376 7.29348-4.796338 11.6765007-4.7989112 4.3798877-.0025778 8.5827213 1.7190809 11.6811671 4.7834722 3.0987123 3.0669644 4.8407881 7.2240326 4.8407881 11.5614873 0 4.3350134-1.7420758 8.4921476-4.8407881 11.5595079-3.0987124 3.0643912-7.3014794 4.7860453-11.6811671 4.7834721-4.3824875-.0025771-8.5827213-1.7293736-11.6765007-4.796338-.6536-.6469036-1.7082115-.6469036-2.3618315 0-.6509936.6443238-.6509936 1.69071 0 2.3350602 3.7106687 3.6803705 8.7467096 5.7499315 13.9990017 5.7525706 6.6301939.0099787 12.827552-3.2580394 16.5146224-8.7088884z"/>
        <path fill="#000" fill-rule="nonzero" d="M97.9866448 159.9994586c-5.949409 0-10.7896582-4.8855845-10.7896582-10.8902666 0-.342384.0339228-.6452645.0782838-.921816C82.9853926 146.6967067 80 142.5775267 80 137.8870663c0-6.0075813 4.8404496-10.8929636 10.7923303-10.8929636.344438 0 .6862441.0158028 1.0281304.0474076C92.6111145 121.8530588 96.9766775 118 102.4017006 118c5.1039786 0 9.5505042 3.6582719 10.5705517 8.6989982.1513438.758516-.3313918 1.5012548-1.082907 1.6565989-.7489033.152755-1.4899909-.3344819-1.6412946-1.0956342-.756719-3.7399219-4.0576116-6.4526447-7.849089-6.4526447-4.4463919 0-7.9272458 3.4870833-7.9272458 7.9404822 0 .4661738-.2270156.9007125-.610599 1.1641366-.3809713.2607407-.866339.3134121-1.2942646.1422234l-.27399-.1106152c-.4905714-.0948111-.9941957-.1422234-1.4978066-.1422234-4.4177344 0-8.0107467 3.6266502-8.0107467 8.0854431 0 3.8558232 2.7137807 7.1900571 6.455692 7.9330656.4122875.0816433.7645346.3476498.9602608.7190058.1957062.3766217.2139695.8190624.0495788 1.2089059l-.1174223.2791743c-.0156568.0842795-.0313129.1659228-.0469696.2475729-.0600158.3160483-.1069881.5662507-.1069881.8322774 0 4.4589277 3.5931459 8.0854431 8.0107467 8.0854431 3.2617474 0 6.1712543-1.9647924 7.413548-5.0120038.2896414-.7163762 1.1037489-1.0587535 1.8135069-.7637751.7097581.2949785 1.0489723 1.1140409.756719 1.8304171C106.3003571 157.3501835 102.3810231 160 97.9869361 160l-.0002913-.0005414z"/>
        <path fill="#C2C5F3" fill-rule="nonzero" d="M184 65.4972585l-4.2857234-1.2081884L178.5 60l-1.2142766 4.2890701L173 65.4972585l4.2857234 1.2136714L178.5 71l1.2142766-4.2890701zm37-10.5031266l-5.4529946-1.5339724L214 48l-1.5470054 5.4601595L207 54.9941319l5.4529946 1.5457086L214 62l1.5470054-5.4601595zM209 14.997364l-3.117577-.8765694L205 11l-.882423 3.1207946L201 14.997364l3.117577.8818414L205 19l.882423-3.1207946zm-4 26.5053775l-4.2857234 1.2081884L199.5 47l-1.2142766-4.2890701L194 41.5027415l4.2857234-1.2136714L199.5 36l1.2142766 4.2890701zm-44 34.5031266l-5.4529946 1.5339724L154 83l-1.5470054-5.4601595L147 76.0058681l5.4529946-1.5457086L154 69l1.5470054 5.4601595zm13 2.9967679l-3.117577.8765694L170 83l-.882423-3.1207946L166 79.002636l3.117577-.8818414L170 75l.882423 3.1207946zm57 25.494623l-4.2857234-1.208189L225.5 99l-1.2142766 4.28907L220 104.497259l4.2857234 1.213671L225.5 110l1.2142766-4.28907zm-43-67.5031271l-5.4529946-1.5339724L181 30l-1.5470054 5.4601595L174 36.9941319l5.4529946 1.5457086L181 44l1.5470054-5.4601595zm57 77.0032321l-3.117577-.876569L241 110l-.882423 3.120795L237 113.997364l3.117577.881841L241 118l.882423-3.120795zm-18-27.4946225l-4.2857234 1.2081884L221.5 92l-1.2142766-4.2890701L216 86.5027415l4.2857234-1.2136714L221.5 81l1.2142766 4.2890701zm-10 27.4998945l-3.117577.876569L213 118l-.882423-3.120795L209 114.002636l3.117577-.881841L213 110l.882423 3.120795zm-16-19.005272l-3.117577-.8765694L197 91l-.882423 3.1207946L193 94.997364l3.117577.8818414L197 99l.882423-3.1207946zm25-24l-3.117577-.8765694L222 67l-.882423 3.1207946L218 70.997364l3.117577.8818414L222 75l.882423-3.1207946zm-11 10.9967679l-5.4529946-1.5339724L208 75l-1.5470054 5.4601595L201 81.9941319l5.4529946 1.5457086L208 89l1.5470054-5.4601595zm-27 7.0117362l-5.4529946 1.5339724L181 96l-1.5470054-5.4601595L174 89.0058681l5.4529946-1.5457086L181 82l1.5470054 5.4601595zm11-32.0117362l-5.4529946-1.5339724L192 50l-1.5470054 5.4601595L185 56.9941319l5.4529946 1.5457086L192 64l1.5470054-5.4601595zm-31 5.0032321l-3.117577-.8765694L164 58l-.882423 3.1207946L160 61.997364l3.117577.8818414L164 66l.882423-3.1207946zm-2-18.4946225l-4.2857234 1.2081884L160.5 49l-1.2142766-4.2890701L155 43.5027415l4.2857234-1.2136714L160.5 38l1.2142766 4.2890701zm28 34.4946225l-3.117577-.8765694L190 74l-.882423 3.1207946L186 77.997364l3.117577.8818414L190 82l.882423-3.1207946zm-24-53.4946225l-4.2857234 1.2081884L164.5 30l-1.2142766-4.2890701L159 24.5027415l4.2857234-1.2136714L164.5 19l1.2142766 4.2890701zm-5-14.5001055l-3.117577.8765694L161 14l-.882423-3.1207946L157 10.002636l3.117577-.8818414L161 6l.882423 3.1207946zm34 15.994728l-3.117577-.8765694L195 22l-.882423 3.1207946L191 25.997364l3.117577.8818414L195 30l.882423-3.1207946zm-3 82.505377l-4.2857234 1.208189L190.5 114l-1.2142766-4.28907L185 108.502741l4.2857234-1.213671L190.5 103l1.2142766 4.28907zm-44-21.505377l-3.117577-.8765694L148 83l-.882423 3.1207946L144 86.997364l3.117577.8818414L148 91l.882423-3.1207946zm28 16l-3.117577-.876569L176 99l-.882423 3.120795L172 102.997364l3.117577.881841L176 107l.882423-3.120795zm25-36.994728l-3.117577.8765694L201 70l-.882423-3.1207946L197 66.002636l3.117577-.8818414L201 62l.882423 3.1207946zm22-24.005272l-3.117577-.8765694L223 38l-.882423 3.1207946L219 41.997364l3.117577.8818414L223 46l.882423-3.1207946zm-47 10l-3.117577-.8765694L176 48l-.882423 3.1207946L172 51.997364l3.117577.8818414L176 56l.882423-3.1207946zm37 45l-3.117577-.8765694L213 93l-.882423 3.1207946L209 96.997364l3.117577.8818414L213 101l.882423-3.1207946zm-71-34l-3.117577-.8765694L142 59l-.882423 3.1207946L138 62.997364l3.117577.8818414L142 67l.882423-3.1207946zm4-42.994728l-3.117577.8765694L146 24l-.882423-3.1207946L142 20.002636l3.117577-.8818414L146 16l.882423 3.1207946zm39 101.994728l-3.117577-.876569L185 118l-.882423 3.120795L181 121.997364l3.117577.881841L185 126l.882423-3.120795zm51-45l-3.117577-.8765694L236 73l-.882423 3.1207946L232 76.997364l3.117577.8818414L236 81l.882423-3.1207946zM199 4l-3.1155225-.8812607L195.002636 0l-.8818414 3.1187393L191 4l3.1207946.8812607L195.002636 8l.8818415-3.1187393zm44 45.997364l-3.117577-.8765694L239 46l-.882423 3.1207946L235 49.997364l3.117577.8818414L239 54l.882423-3.1207946zm-17 75.005272l-3.117577.876569L222 129l-.882423-3.120795L218 125.002636l3.117577-.881841L222 121l.882423 3.120795z"/>
        <path fill="#000" fill-rule="nonzero" d="M205 144v-4h5v4zm-12 0v-4h5v4zm24 0v-4h5v4zm12 0v-4h5v4zm12-4h4v7h-4zm0 41h4v7h-4zm0-27h4v7h-4zm0 13h4v7h-4zM52 144v-4h-5v4zm12 0v-4h-5v4zm-24 0v-4h-5v4zm-12 0v-4h-5v4zm-12-4h-4v7h4zm0 14h-4v7h4zM210.1609195 204.0093158c-3.3872735 0-6.1609195 2.7990066-6.1609195 6.2105263v31.0526316c0 3.4145474 2.773646 6.2105263 6.1609195 6.2105263h6.9070069l-1.3958333 13.8036711c-.0571572.6246935.3038335 1.2675684.8663793 1.5374934.5595347.2729216 1.2845517.1576852 1.7327586-.275957l14.9933679-15.0651842h5.3908045v2.3774671c0 2.5321092 2.0816977 4.609375 4.5966621 4.609375h11.5755977l8.1585977 8.0783421c.4632704.4609375 1.2274092.5761738 1.801915.2698939.5745057-.3062798.9145115-1.0068039.797223-1.6526986l-1.1792-6.6957237h1.2274091c2.5148874 0 4.5966621-2.0772658 4.5966621-4.609375v-14.8470395c0-2.5321092-2.0816977-4.609375-4.5966621-4.609375h-4.6447172v-20.1842105c0-3.4145474-2.773646-6.2105263-6.1609195-6.2105263l-44.6670518.000163zm0 3.1052632h44.6666667c1.7327586 0 3.0804598 1.3585526 3.0804598 3.1052631v31.0526316c0 1.7467105-1.3477012 3.1052631-3.0804598 3.1052631h-22.1885517c-.4000978 0-.797223.1576853-1.0829356.4366777l-12.3942299 12.4451184 1.1551724-11.1836053c.081224-.8612447-.6828763-1.7012184-1.5402299-1.6981908h-8.616046c-1.7327586 0-3.0804597-1.3585526-3.0804597-3.1052631v-31.0526316c0-1.7467105 1.3477011-3.1052631 3.0804597-3.1052631h.000154zm50.8275862 26.3947368h4.6447173c.8693827 0 1.5162023.6550164 1.5162023 1.5041118v14.8470395c0 .8491342-.6467733 1.5041118-1.5162023 1.5041118h-3.0564322c-.8934874 0-1.6696092.9309579-1.5162023 1.819529l.6497845 3.7603184-5.1742483-5.1430921c-.2857819-.2789924-.6828763-.439713-1.0829356-.4366776h-12.2017012c-.8693827 0-1.5162023-.6550165-1.5162023-1.5041119v-2.3774671h13.0919541c3.3872735 0 6.1609195-2.7959789 6.1609195-6.2105263l.0003465-7.7632355z"/>
        <path fill="#FFCA54" d="M260.939477 234h4.569028c.855216 0 1.491495.642855 1.491495 1.476186v14.57138c0 .833369-.636234 1.476185-1.491495 1.476185h-3.006625c-.878928 0-1.642402.913674-1.491495 1.785747L261.649581 257l-5.089931-5.047602c-.281125-.273813-.671748-.431549-1.065289-.42857h-12.002866c-.855216 0-1.491495-.642855-1.491495-1.476186v-2.333326h12.878612c3.332076 0 6.060524-2.744067 6.060524-6.095217L260.939477 234z"/>
        <path fill="#5158AF" fill-rule="nonzero" d="M215.541667 214C214.68951 214 214 214.670897 214 215.5s.689534 1.5 1.541667 1.5h33.916666C250.31049 217 251 216.329103 251 215.5s-.689534-1.5-1.541667-1.5h-33.916666zm0 10C214.68951 224 214 224.670897 214 225.5s.689534 1.5 1.541667 1.5h33.916666C250.31049 227 251 226.329103 251 225.5s-.689534-1.5-1.541667-1.5h-33.916666zm0 10C214.68951 234 214 234.670897 214 235.5s.689534 1.5 1.541667 1.5h33.916666C250.31049 237 251 236.329103 251 235.5s-.689534-1.5-1.541667-1.5h-33.916666zM25.0925436 200.9385945c-.0212039-.7557137.1085643-1.5088523.3825154-2.2121617.195077-.4986443.5241701-.9311064.9499375-1.2500662.3782814-.2579278.7887846-.5167139 1.2332251-.7746197l1.2332251-.6877928h-.0008483c.4266142-.2338496.7718269-.5957937.9864151-1.0368394.2536061-.5373368.372332-1.1296969.345191-1.7246322.0381668-.9534459-.3519872-1.8725131-1.0601954-2.5000443-.7311153-.6499587-1.6793592-.9938551-2.6513569-.9620515-1.00676-.0361086-1.982145.3585106-2.6878345 1.087571-.6929441.7161628-1.0517274 1.6979788-.9864151 2.6996692h-2.8235399c-.1136538-1.7444186.5300977-3.4519495 1.7633228-4.6743499 1.2518765-1.2689722 2.9651077-1.956765 4.7344884-1.9000248 1.7056534-.0421281 3.3587618.6001075 4.5996515 1.7874029 1.2374592 1.1391609 1.9261693 2.7674581 1.8863045 4.4619595.0305326.9156337-.1467312 1.8260953-.5182208 2.6618131-.2714107.6301943-.6954845 1.1804285-1.2323783 1.5999711-.4707347.3301406-.9609676.6301943-1.4673114.8992808-.458011.244172-.8744419.5605567-1.2332251.9379733-.3477532.3688331-.5343317.8640439-.5182208 1.3747273v1.8372761h-2.9347097l-.0000202-1.6250618zm.1730254 7.4985922c-.5555451-.5562428-.7243192-1.3979471-.4266142-2.1295826.2968582-.7324938 1.0016792-1.2087986 1.782821-1.2070818.6412023.0017196 1.2391527.326707 1.5945487.8666189.3562212.5407702.423227 1.2251295.1789617 1.8260954-.2442696.6001074-.7667244 1.0385781-1.3952247 1.167531-.6284786.12982-1.2781707-.0670604-1.7344881-.5235809h-.0000044z"/>
        <path stroke="#000" stroke-width="3" d="M49.9091003 178C51.6477314 178 53 179.3897553 53 181.1765835v31.7658352c0 1.7868282-1.3522686 3.1765835-3.0908997 3.1765835H27.6453496c-.4014538 0-.7999249.1613069-1.0866058.4467071l-11.9787974 12.4732482c-.3825491.3983397-1.0155847.4111405-1.4139245.0285913-.2545506-.24446-.3613922-.6049964-.2811309-.9486748l2.3967051-10.2626777c.0814993-.8810254-.6851906-1.7402913-1.5454498-1.7371941H5.0908997C3.3522687 216.1190022 2 214.7292469 2 212.9424187v-31.7658352C2 179.3897553 3.3522686 178 5.0908997 178h44.8182006z"/>
    </g>
</svg>