<svg xmlns="http://www.w3.org/2000/svg"  viewBox="0 0 198 220">
  <g fill="none" fill-rule="nonzero">
    <g fill="#C2C5F3">
      <path d="M123.4972585 61l-1.2081884 4.2857234L118 66.5l4.2890701 1.2142766L123.4972585 72l1.2136714-4.2857234L129 66.5l-4.2890701-1.2142766zM112.9941319 24l-1.5339724 5.4529946L106 31l5.4601595 1.5470054L112.9941319 38l1.5457086-5.4529946L120 31l-5.4601595-1.5470054zM72.997364 36l-.8765694 3.117577L69 40l3.1207946.882423L72.997364 44l.8818414-3.117577L77 40l-3.1207946-.882423zM99.5027415 40l1.2081884 4.2857234L105 45.5l-4.2890701 1.2142766L99.5027415 51l-1.2136714-4.2857234L94 45.5l4.2890701-1.2142766zM134.0058681 84l1.5339724 5.4529946L141 91l-5.4601595 1.5470054L134.0058681 98l-1.5457086-5.4529946L127 91l5.4601595-1.5470054zM137.002636 71l.8765694 3.117577L141 75l-3.1207946.882423L137.002636 79l-.8818414-3.117577L133 75l3.1207946-.882423zM162.497259 14l-1.208189 4.2857234L157 19.5l4.28907 1.2142766L162.497259 25l1.213671-4.2857234L168 19.5l-4.28907-1.2142766zM94.9941319 57l-1.5339724 5.4529946L88 64l5.4601595 1.5470054L94.9941319 71l1.5457086-5.4529946L102 64l-5.4601595-1.5470054zM171.997364 0l-.876569 3.117577L168 4l3.120795.882423L171.997364 8l.881841-3.117577L176 4l-3.120795-.882423zM144.5027415 18l1.2081884 4.2857234L150 23.5l-4.2890701 1.2142766L144.5027415 29l-1.2136714-4.2857234L139 23.5l4.2890701-1.2142766zM172.002636 28l.876569 3.117577L176 32l-3.120795.882423L172.002636 36l-.881841-3.117577L168 32l3.120795-.882423zM152.997364 44l-.8765694 3.117577L149 48l3.1207946.882423L152.997364 52l.8818414-3.117577L157 48l-3.1207946-.882423zM128.997364 19l-.8765694 3.117577L125 23l3.1207946.882423L128.997364 27l.8818414-3.117577L133 23l-3.1207946-.882423zM139.9941319 30l-1.5339724 5.4529946L133 37l5.4601595 1.5470054L139.9941319 44l1.5457086-5.4529946L147 37l-5.4601595-1.5470054zM147.0058681 57l1.5339724 5.4529946L154 64l-5.4601595 1.5470054L147.0058681 71l-1.5457086-5.4529946L140 64l5.4601595-1.5470054zM114.9941319 46l-1.5339724 5.4529946L108 53l5.4601595 1.5470054L114.9941319 60l1.5457086-5.4529946L122 53l-5.4601595-1.5470054zM119.997364 77l-.8765694 3.117577L116 81l3.1207946.882423L119.997364 85l.8818414-3.117577L124 81l-3.1207946-.882423zM101.5027415 79l1.2081884 4.2857234L107 84.5l-4.2890701 1.2142766L101.5027415 90l-1.2136714-4.2857234L96 84.5l4.2890701-1.2142766zM135.997364 51l-.8765694 3.117577L132 55l3.1207946.882423L135.997364 59l.8818414-3.117577L140 55l-3.1207946-.882423zM82.5027415 75l1.2081884 4.2857234L88 80.5l-4.2890701 1.2142766L82.5027415 86l-1.2136714-4.2857234L77 80.5l4.2890701-1.2142766zM68.002636 80l.8765694 3.117577L72 84l-3.1207946.882423L68.002636 88l-.8818414-3.117577L64 84l3.1207946-.882423zM83.997364 46l-.8765694 3.117577L80 50l3.1207946.882423L83.997364 54l.8818414-3.117577L88 50l-3.1207946-.882423zM166.502741 49l1.208189 4.2857234L172 54.5l-4.28907 1.2142766L166.502741 60l-1.213671-4.2857234L161 54.5l4.28907-1.2142766zM144.997364 93l-.8765694 3.117577L141 97l3.1207946.882423L144.997364 101l.8818414-3.117577L149 97l-3.1207946-.882423zM160.997364 65l-.876569 3.117577L157 69l3.120795.882423L160.997364 73l.881841-3.117577L165 69l-3.120795-.882423zM124.002636 40l.8765694 3.117577L128 44l-3.1207946.882423L124.002636 48l-.8818414-3.117577L120 44l3.1207946-.882423zM99.997364 18l-.8765694 3.117577L96 22l3.1207946.882423L99.997364 26l.8818414-3.117577L104 22l-3.1207946-.882423zM109.997364 65l-.8765694 3.117577L106 69l3.1207946.882423L109.997364 73l.8818414-3.117577L114 69l-3.1207946-.882423zM154.997364 28l-.8765694 3.117577L151 32l3.1207946.882423L154.997364 36l.8818414-3.117577L159 32l-3.1207946-.882423zM120.997364 99l-.8765694 3.117577L117 103l3.1207946.882423L120.997364 107l.8818414-3.117577L125 103l-3.1207946-.882423zM78.002636 95l.8765694 3.117577L82 99l-3.1207946.882423L78.002636 103l-.8818414-3.117577L74 99l3.1207946-.882423zM179.997364 56l-.876569 3.117577L176 60l3.120795.882423L179.997364 64l.881841-3.117577L184 60l-3.120795-.882423zM134.997364 5l-.8765694 3.117577L131 9l3.1207946.882423L134.997364 13l.8818414-3.117577L139 9l-3.1207946-.882423zM62 46l-.8812607 3.1155225L58 49.997364l3.1187393.8818414L62 54l.8812607-3.1207946L66 49.997364l-3.1187393-.8818415zM107.997364 2l-.8765694 3.117577L104 6l3.1207946.882423L107.997364 10l.8818414-3.117577L112 6l-3.1207946-.882423zM183.002636 19l.876569 3.117577L187 23l-3.120795.882423L183.002636 27l-.881841-3.117577L179 23l3.120795-.882423z"/>
    </g>
    <g fill="#000">
      <path d="M77.6700515 152l9.2719988-8.8822036L87 143.0619067 85.903405 142l-8.1664342 7.8289257-4.5245072-4.8925145-.0534923-.0601898L72 145.8736436l5.6122695 6.0661985zM77.7369066 167.8246025l-4.5244565-4.8925145-.0534917-.0601898L72 163.8693205l5.6122068 6.0704908.057949.0601887 9.2718951-8.8864959L87 161.0576143 85.9034172 160zM77.7369066 185.8246025l-4.5244565-4.8925145-.0534917-.0601898L72 181.8693205l5.6122068 6.0704908.057949.0601887 9.2718951-8.8864959L87 179.0576143 85.9034172 178zM93 146h35v2H93zM93 165h35v2H93zM93 183h35v2H93zM154.3345819 128.00043c-1.3776098.0045268-2.6756113.443647-3.7431796 1.2902279-1.6036204 1.2721487-2.542704 3.3590196-2.5603947 5.6995785-.0221486.9823719-.0132896 1.9602008-.0177191 2.9471388L148 139.2547218v1.4984862l.0797354 46.1575463 5.789749 17.0581733.2126291.4391271c.9701218 1.4124942 2.29458 2.3088045 3.7652931 2.535142 1.2934654.2082467 2.5914674-.1629792 3.6501894-1.0004742.761927-.6066262 1.390992-1.462212 1.798446-2.4672291 1.541589-3.7981352 2.70657-7.8136841 3.831747-11.6981589.558154-1.8922879 1.103017-3.7755362 1.687764-5.6316657l.079737-.2625654.026578-43.0249801.070876-3.5265916c.00443-1.3988189.017719-2.7840784-.008859-4.1784934-.004429-4.0245885-2.631271-6.998846-6.245966-7.0803182-2.799681-.0451272-5.6036637-.0768168-8.4033371-.0722901zm-2.7995599 58.3175357l-.0797365-43.531429h1.3111562l1.6522699.0090546.0442972 43.3286177c-1.1074405.8420264-2.0199199.9778405-2.7021475.8375066l-.2258393-.6437499zm9.01899.1177001c-2.9502716 1.3942991-4.3367268.1901328-4.7087994-.2308804l-.0442972-43.3958352 5.0145316.0226349-.261435 43.6040807zm3.264736 4.3459576c-.974556 3.3680592-1.993384 6.8403055-3.233777 10.0952539l-4.2216238-.353112-4.1152522-12.096828c.8106442-.0181082 1.7674866-.276148 2.8262095-1.0276394.8505164.7514914 2.7862919 1.8470899 6.0156465.3395294.540429.4798633 1.625734 1.1227057 3.39322.7379088-.221486.7741252-.442972 1.5391644-.664469 2.3042847l.000046.0006026zm1.625734-5.4550459c-.159467.502497-.310087 1.0140567-.465131 1.5301247-1.851631.7197949-2.755333.0588524-3.043261-.2308804l.256928-43.7804895 3.269159.0271616-.017695 42.4540836zm.093024-46.067614l-12.6420761-.0135814-1.4352182-.0045268.0044295-1.3083071c0-.9687892 0-1.9330819.0132896-2.9063446.0310087-2.0100344 1.1872075-3.4993651 2.8527456-3.4993651 2.7862919.0045268 5.5637386.0181082 8.3457206.063378 1.705456.0407431 2.866014 1.4802911 2.861591 3.5945126.017238 1.3625886-.000482 2.7162095-.000482 4.0742344z"/>
      <path d="M59.0066925 137.5135341l-.0045428 38.0626614c-.0045416 8.021258-.0045416 16.0510625.0272522 24.073129.0090833 1.2677545.2043854 2.6392206.590448 4.0692412C60.9551337 208.6676241 65.8831497 213.995496 73.5494044 214h.2770563c3.9878291-.067671 8.0028662-.054138 12.0087177-.036091 1.7441012.009022 3.4836677.013533 5.2232341.013533h3.1975188l15.6515637.009024c5.8408785 0 11.6819895-.013535 17.5224029-.067672 6.7810652-.063159 12.8993721-5.8016193 13.3621402-12.5331795.2316399-3.4105909.2134664-6.9655467.1953045-10.1010359l-.0045417-2.6932709c.0181678-16.9311107.027251-33.8622214 0-50.7852477-.013626-8.5671882-6.2996933-14.7933559-14.9515977-14.80606h-2.071062v4.6738412l.317938-.0090234c1.6123634-.0315789 3.3791378-.1082736 5.3504372.5594196 4.101312 1.3939871 6.5539833 4.9580668 6.558518 9.5325849l.0136249 30.4159436v15.2079717c0 1.6060302-.0090833 3.2166801-.0181666 4.8227103-.0227105 3.6632872-.0499615 7.3716162.054502 11.0213908.0726709 2.6527332-.9129323 5.1611015-2.7660281 7.0558614-1.9303712 1.9669423-4.5873348 3.054183-7.4851008 3.054183-7.6395118-.0451146-15.2794887-.0541369-22.9093499-.0541369l-29.140442.0180456c-6.0135444 0-10.2193862-4.16406-10.2193862-10.1235569-.0090845-20.0401523-.0136261-40.07453.0227093-60.1100627 0-1.5609884.0454188-3.2075562.5268581-4.6603287 1.2671476-3.8391813 4.033292-6.1039772 7.9892623-6.5550885.9447214-.1082737 2.2982602-.126325 3.7834205-.0812058v-4.7685446l-2.7252162.0135345c-1.067355.0090222-2.0802476.1218093-3.0112488.3338409-6.7538573 1.5654925-11.2957292 7.2542764-11.2957292 14.1662349l-.0000512-.0000808z"/>
      <path d="M119.9962929 124.7025316l-.0045032-1.329006c0-2.8692424-.3242503-5.0607448-4.4133782-5.0607448-.2657065 0-.5584368.0044015-.8646675.0132022l-.3963059.0088007c-1.8914313 0-3.319055-.4884663-4.3503151-1.483007-.8646675-.844922-1.5762312-2.019927-2.2651982-3.1596704l-.0945739-.1540236C106.2113164 111.2233344 104.103603 110 101.5006079 110h-.1846468c-.2611988.0088018-.5269053.0088018-.7836078.0088018L99.1363188 110c-.2972266 0-.5989609.0044004-.8736716.0088018-2.4543874.0440058-4.4088818 1.1485307-5.6518125 3.203719-.2521947.4136625-.4863813.8361235-.7250641 1.2498085l-.0765588.132022c-.1305994.2332322-.2657065.4664645-.40531.7041016-.9096994 1.5534172-2.1931426 2.473143-3.9179813 2.8164066-.7926119.1496188-1.6662719.1584173-2.5940025.167227-.37379.0044004-.74758.0088007-1.1438859.022003-2.2788024.1056152-3.7109223 1.5358428-3.7378999 3.7361323-.0135096 1.390629-.0135096 3.3972624 0 4.7659234 0 2.7812579 1.4231274 4.1938548 4.2332967 4.1938548h31.7586605c2.5129543 0 3.9675556-1.4169905 3.9945332-3.8769527.0045032-.6644918.0045032-1.5753853 0-2.4203073l-.0003297-.0002084zm-25.7866904-8.8804682l1.12137.334454c.193651-.3388475.3873019-.6821.5944532-1.0253523.5584368-.9153322 1.2970012-1.3377932 2.4274098-1.3553675.2611988-.0088019.5223975-.0088019.7791-.0088019l1.3915382.0044004c.2972266 0 .5944532 0 .981755-.0132022 1.2339382 0 2.0626355.5060745 2.7740839 1.6942376l.0990759.1584172c.7746037 1.2761702 1.6572794 2.7240285 2.8642399 3.8989207 1.7968943 1.7426798 4.1116669 2.5876018 7.0929251 2.5876018l.4728693-.0088007c.4953853-.0176025.9457272-.0176025 1.3014975-.0088018.0225183.3124409.0225183.805312.0225183 1.289351l.0045032 1.3377931c.0045032.8229202.0045032 1.7074184-.0045032 2.3587969 0 .0572091 0 .1056153-.0045032.1496188H84.2386756c-.1576232 0-.2747107-.0044003-.3602782-.0088018-.0045032-.1012138-.0090063-.2420308-.0090063-.4356643-.018014-1.3685484-.018014-3.3356394 0-4.7043004v-.0088007h.0360278c.3377621-.0132022.6800206-.0132022 1.0538106-.0176026 1.0493143-.0132021 2.1346911-.0220029 3.273977-.2376371 2.8101693-.5588765 5.066375-2.1651408 6.5209763-4.6382838l.4638538-.8097169-1.0084341-.5324574z"/>
    </g>
    <path fill="#5158AF" stroke="#000" stroke-width="4" d="M26.5087263 66.5090216c-.0901178-.1883649-.2403141-.2938428-.3454563-.4746737-.1652149-.2561722-.3379392-.5123444-.5632384-.7383878-.2177822-.2185015-.4731111-.3767261-.7209422-.5500343-.1652149-.1130198-.2928755-.2637141-.4881451-.3541199-.0675879-.0226043-.1351757-.0150682-.2027674-.0452086-.2928755-.1280881-.5932681-.1657607-.9086947-.2260434C23.0166363 64.0753471 22.7763222 64 22.5134763 64c-.2703436 0-.5331895.0753471-.8185673.128088-.2928755.0452087-.5857703.0979496-.863631.2185016-.0750991.0226043-.1501963.007536-.2177822.0452086-.1952504.0904154-.3229244.2486497-.4956429.3616617-.2553289.1657626-.50316.323991-.7134252.5349507-.2252992.2260434-.3905007.4822156-.5632384.7459296-.1051384.1657626-.2628459.2863203-.3454563.4671512L2.4246828 100.655856c-1.0438666 2.207583-.0976271 4.859769 2.1178396 5.914664.6083022.28632 1.2541318.42948 1.8924636.42948 1.6596665 0 3.2517375-.949367 4.0026708-2.546677l5.2419224-11.1360935h13.6454163l5.2419223 11.1360935C35.3178896 106.050653 36.9023859 107 38.5770865 107c.630834 0 1.2766636-.135624 1.8849657-.42948 2.2078133-1.054857 3.1540739-3.707081 2.1178397-5.914664L26.5087263 66.5090216zm-7.1147869 17.0364329l2.4848485-5.2121212 2.4848485 5.2121212h-4.969697z"/>
  </g>
</svg>