<svg xmlns="http://www.w3.org/2000/svg" xmlns:xlink="http://www.w3.org/1999/xlink" width="209" height="88">
    <defs>
        <path id="a" d="M.402.553h25.545v17.036H.402z"/>
    </defs>
    <g fill="none" fill-rule="evenodd">
        <g transform="translate(-9.164 79.041)">
            <mask id="b" fill="#fff">
                <use xlink:href="#a"/>
            </mask>
        </g>
        <g fill="none">
            <path d="M-388-124L599 2.935V681h-987z"/>
        </g>
        <g fill="#FFCA54" fill-rule="nonzero">
            <g opacity=".433">
                <path d="M159.002 41l.879-3.117L163 37l-3.119-.883-.879-3.117-.883 3.117L155 37l3.119.883zM166.505 70l1.205-4.284L172 64.5l-4.29-1.216L166.505 59l-1.215 4.284L161 64.5l4.29 1.216zM198.002 60l.657-2.338L201 57l-2.341-.662-.657-2.338-.661 2.338L195 57l2.341.662zM176.998 57l-.879-3.117L173 53l3.119-.883.879-3.117.883 3.117L181 53l-3.119.883zM150.495 24l-1.205-4.284L145 18.5l4.29-1.216L150.495 13l1.215 4.284L156 18.5l-4.29 1.216zM147.998 34l-.657-2.338L145 31l2.341-.662.657-2.338.661 2.338L151 31l-2.341.662zM129.002 77l.879-3.117L133 73l-3.119-.883-.879-3.117-.883 3.117L125 73l3.119.883zM180.505 44l1.205-4.284L186 38.5l-4.29-1.216L180.505 33l-1.215 4.284L175 38.5l4.29 1.216zM122.002 88l.657-2.338L125 85l-2.341-.662-.657-2.338-.661 2.338L119 85l2.341.662zM142.998 74l-.879-3.117L139 70l3.119-.883.879-3.117.883 3.117L147 70l-3.119.883zM121.998 67l-.657-2.338L119 64l2.341-.662.657-2.338.661 2.338L125 64l-2.341.662zM136.002 54l.657-2.338L139 51l-2.341-.662-.657-2.338-.661 2.338L133 51l2.341.662zM155.002 73l.657-2.338L158 70l-2.341-.662-.657-2.338-.661 2.338L152 70l2.341.662zM145.505 65l1.205-4.284L151 59.5l-4.29-1.216L145.505 54l-1.215 4.284L140 59.5l4.29 1.216zM140.495 44l-1.205-4.284L135 38.5l4.29-1.216L140.495 33l1.215 4.284L146 38.5l-4.29 1.216zM165.505 53l1.205-4.284L171 47.5l-4.29-1.216L165.505 42l-1.215 4.284L160 47.5l4.29 1.216zM161.002 29l.657-2.338L164 26l-2.341-.662-.657-2.338-.661 2.338L158 26l2.341.662zM175.998 27l-.879-3.117L172 23l3.119-.883.879-3.117.883 3.117L180 23l-3.119.883zM149.002 49l.657-2.338L152 46l-2.341-.662-.657-2.338-.661 2.338L146 46l2.341.662zM189.998 31l-.879-3.117L186 27l3.119-.883.879-3.117.883 3.117L194 27l-3.119.883zM200.998 27l-.657-2.338L198 24l2.341-.662.657-2.338.661 2.338L204 24l-2.341.662zM189.002 53l.657-2.338L192 50l-2.341-.662-.657-2.338-.661 2.338L186 50l2.341.662zM125.998 50l-.879-3.117L122 46l3.119-.883.879-3.117.883 3.117L130 46l-3.119.883zM142.002 17l.657-2.338L145 14l-2.341-.662-.657-2.338-.661 2.338L139 14l2.341.662zM130.002 38l.657-2.338L133 35l-2.341-.662-.657-2.338-.661 2.338L127 35l2.341.662zM157.998 57l-.657-2.338L155 54l2.341-.662.657-2.338.661 2.338L161 54l-2.341.662zM177.002 74l.657-2.338L180 71l-2.341-.662-.657-2.338-.661 2.338L174 71l2.341.662zM169.002 38l.657-2.338L172 35l-2.341-.662-.657-2.338-.661 2.338L166 35l2.341.662zM135.002 67l.657-2.338L138 64l-2.341-.662-.657-2.338-.661 2.338L132 64l2.341.662zM161.002 12l.657-2.338L164 9l-2.341-.662L161.002 6l-.661 2.338L158 9l2.341.662zM193.998 15l-.657-2.338L191 12l2.341-.662.657-2.338.661 2.338L197 12l-2.341.662zM115.002 45l.657-2.338L118 42l-2.341-.662-.657-2.338-.661 2.338L112 42l2.341.662zM150.002 84l.657-2.338L153 81l-2.341-.662-.657-2.338-.661 2.338L147 81l2.341.662zM206 53l.661-2.337 2.339-.661-2.339-.661L206 47l-.661 2.341-2.339.661 2.339.661zM171.002 86l.657-2.338L174 83l-2.341-.662-.657-2.338-.661 2.338L168 83l2.341.662zM112.998 73l-.657-2.338L110 70l2.341-.662.657-2.338.661 2.338L116 70l-2.341.662z"/>
            </g>
            <g opacity=".433">
                <path d="M49.998 41l-.879-3.117L46 37l3.119-.883.879-3.117.883 3.117L54 37l-3.119.883zM42.495 70l-1.205-4.284L37 64.5l4.29-1.216L42.495 59l1.215 4.284L48 64.5l-4.29 1.216zM10.998 60l-.657-2.338L8 57l2.341-.662.657-2.338.661 2.338L14 57l-2.341.662zM32.002 57l.879-3.117L36 53l-3.119-.883L32.002 49l-.883 3.117L28 53l3.119.883zM58.505 24l1.205-4.284L64 18.5l-4.29-1.216L58.505 13l-1.215 4.284L53 18.5l4.29 1.216zM61.002 34l.657-2.338L64 31l-2.341-.662L61.002 28l-.661 2.338L58 31l2.341.662zM79.998 77l-.879-3.117L76 73l3.119-.883.879-3.117.883 3.117L84 73l-3.119.883zM28.495 44l-1.205-4.284L23 38.5l4.29-1.216L28.495 33l1.215 4.284L34 38.5l-4.29 1.216zM86.998 88l-.657-2.338L84 85l2.341-.662.657-2.338.661 2.338L90 85l-2.341.662zM66.002 74l.879-3.117L70 70l-3.119-.883L66.002 66l-.883 3.117L62 70l3.119.883zM87.002 67l.657-2.338L90 64l-2.341-.662L87.002 61l-.661 2.338L84 64l2.341.662zM72.998 54l-.657-2.338L70 51l2.341-.662.657-2.338.661 2.338L76 51l-2.341.662zM53.998 73l-.657-2.338L51 70l2.341-.662.657-2.338.661 2.338L57 70l-2.341.662zM63.495 65l-1.205-4.284L58 59.5l4.29-1.216L63.495 54l1.215 4.284L69 59.5l-4.29 1.216zM68.505 44l1.205-4.284L74 38.5l-4.29-1.216L68.505 33l-1.215 4.284L63 38.5l4.29 1.216zM43.495 53l-1.205-4.284L38 47.5l4.29-1.216L43.495 42l1.215 4.284L49 47.5l-4.29 1.216zM47.998 29l-.657-2.338L45 26l2.341-.662.657-2.338.661 2.338L51 26l-2.341.662zM33.002 27l.879-3.117L37 23l-3.119-.883L33.002 19l-.883 3.117L29 23l3.119.883zM59.998 49l-.657-2.338L57 46l2.341-.662.657-2.338.661 2.338L63 46l-2.341.662zM19.002 31l.879-3.117L23 27l-3.119-.883L19.002 23l-.883 3.117L15 27l3.119.883zM8.002 27l.657-2.338L11 24l-2.341-.662L8.002 21l-.661 2.338L5 24l2.341.662zM19.998 53l-.657-2.338L17 50l2.341-.662.657-2.338.661 2.338L23 50l-2.341.662zM83.002 50l.879-3.117L87 46l-3.119-.883L83.002 42l-.883 3.117L79 46l3.119.883zM66.998 17l-.657-2.338L64 14l2.341-.662.657-2.338.661 2.338L70 14l-2.341.662zM78.998 38l-.657-2.338L76 35l2.341-.662.657-2.338.661 2.338L82 35l-2.341.662zM51.002 57l.657-2.338L54 54l-2.341-.662L51.002 51l-.661 2.338L48 54l2.341.662zM31.998 74l-.657-2.338L29 71l2.341-.662.657-2.338.661 2.338L35 71l-2.341.662zM39.998 38l-.657-2.338L37 35l2.341-.662.657-2.338.661 2.338L43 35l-2.341.662zM73.998 67l-.657-2.338L71 64l2.341-.662.657-2.338.661 2.338L77 64l-2.341.662zM47.998 12l-.657-2.338L45 9l2.341-.662L47.998 6l.661 2.338L51 9l-2.341.662zM15.002 15l.657-2.338L18 12l-2.341-.662L15.002 9l-.661 2.338L12 12l2.341.662zM93.998 45l-.657-2.338L91 42l2.341-.662.657-2.338.661 2.338L97 42l-2.341.662zM58.998 84l-.657-2.338L56 81l2.341-.662.657-2.338.661 2.338L62 81l-2.341.662zM3 53l-.661-2.337L0 50.002l2.339-.661L3 47l.661 2.341L6 50.002l-2.339.661zM37.998 86l-.657-2.338L35 83l2.341-.662.657-2.338.661 2.338L41 83l-2.341.662zM96.002 73l.657-2.338L99 70l-2.341-.662L96.002 67l-.661 2.338L93 70l2.341.662z"/>
            </g>
            <path d="M79 17.018v7.14c0 1.817 1.525 3.292 3.405 3.292h22.677l-.002-13.725H82.402c-1.88 0-3.402 1.475-3.402 3.293zM131.595 13.725h-22.677V27.45h22.677c1.88 0 3.405-1.475 3.405-3.293v-7.139c-.003-1.817-1.525-3.292-3.405-3.292v-.001zM82.068 58.82c0 1.206.96 2.18 2.14 2.18h20.107V29.738H82.068V58.82zM108.918 61h20.106c1.184 0 2.14-.977 2.14-2.18V29.738h-22.246V61zM92.762 11.264c.707.401 2.143.936 6.448.936 2.372 0 4.472-.166 4.56-.17a1.417 1.417 0 0 0 1.133-.742c.231-.426.24-.941.021-1.373-.649-1.289-4.018-7.782-6.424-9.152A5.81 5.81 0 0 0 95.633 0c-2.137 0-4.11 1.183-5.15 3.085-1.58 2.896-.559 6.564 2.279 8.178zm.21-6.762a3.04 3.04 0 0 1 2.661-1.596c.514 0 1.024.136 1.479.394.883.502 2.675 3.185 4.22 5.95-.638.025-1.37.041-2.122.041-3.768 0-4.826-.434-5.06-.567-1.468-.833-1.995-2.727-1.178-4.222zM110.23 12.029c.088.008 2.188.171 4.56.171 4.305 0 5.741-.535 6.448-.936 2.838-1.615 3.859-5.284 2.28-8.179C122.474 1.183 120.501 0 118.363 0c-.997 0-1.99.263-2.864.763-2.409 1.37-5.775 7.863-6.424 9.153-.218.431-.21.947.021 1.373.231.423.657.703 1.133.74zm6.655-8.73a2.988 2.988 0 0 1 1.479-.393c1.103 0 2.124.61 2.662 1.596.816 1.495.29 3.39-1.176 4.225-.234.133-1.292.567-5.06.567-.752 0-1.481-.019-2.122-.04 1.542-2.769 3.335-5.45 4.217-5.954z"/>
        </g>
    </g>
</svg>