<svg xmlns="http://www.w3.org/2000/svg" xmlns:xlink="http://www.w3.org/1999/xlink" viewBox="0 0 198 82">
    <defs>
        <path id="a" d="M.402.553h25.545v17.036H.402z"/>
        <path id="b" d="M0 0h1227v810H0z"/>
    </defs>
    <g fill="none" fill-rule="evenodd">
        <g transform="translate(-505 -180)">
            <mask id="c" fill="#fff">
                <use xlink:href="#b"/>
            </mask>
            <use fill="none" xlink:href="#b"/>
            <g mask="url(#c)">
            </g>
            <path fill="none" d="M0-17h1227v827H0z" mask="url(#c)" style="mix-blend-mode:hue"/>
            <path fill="none" d="M1 7.102l1227 115.085V810H1z" mask="url(#c)"/>
        </g>
        <g fill="#FFCA54" fill-rule="nonzero">
            <g opacity=".433">
                <path d="M150.527 36.146l.834-3.041 2.962-.861-2.962-.862-.834-3.041-.838 3.041-2.962.862 2.962.861zM157.651 64.439l1.144-4.18 4.074-1.186-4.074-1.186-1.144-4.18-1.153 4.18-4.074 1.186 4.074 1.186zM187.557 54.683l.625-2.281 2.222-.646-2.222-.646-.625-2.281-.628 2.281-2.222.646 2.222.646zM167.614 51.756l-.834-3.041-2.962-.861 2.962-.862.834-3.041.838 3.041 2.962.862-2.962.861zM142.45 19.561l-1.144-4.18-4.074-1.186 4.074-1.186 1.144-4.18 1.153 4.18 4.074 1.186-4.074 1.186zM140.079 29.317l-.624-2.281-2.223-.646 2.223-.645.624-2.282.628 2.282 2.222.645-2.222.646zM122.042 71.268l.835-3.041 2.961-.861-2.961-.862-.835-3.041-.838 3.041-2.962.862 2.962.861zM170.944 39.073l1.144-4.18 4.074-1.186-4.074-1.186-1.144-4.18-1.153 4.18-4.074 1.186 4.074 1.186zM115.396 82l.624-2.281 2.222-.646-2.222-.646-.624-2.281-.628 2.281-2.223.646 2.223.646zM135.331 68.341l-.834-3.04-2.962-.862 2.962-.862.834-3.04.839 3.04 2.961.862-2.961.862zM115.392 61.512l-.624-2.281-2.223-.646 2.223-.645.624-2.281.628 2.281 2.222.645-2.222.646zM128.689 48.829l.624-2.281 2.222-.646-2.222-.645-.624-2.281-.628 2.281-2.223.645 2.223.646zM146.729 67.366l.624-2.281 2.223-.646-2.223-.646-.624-2.281-.628 2.281-2.222.646 2.222.646zM137.711 59.561l1.145-4.18 4.073-1.186-4.073-1.186-1.145-4.18-1.153 4.18-4.073 1.186 4.073 1.186zM132.955 39.073l-1.144-4.18-4.074-1.186 4.074-1.186 1.144-4.18 1.153 4.18 4.074 1.186-4.074 1.186zM156.701 47.854l1.145-4.18 4.073-1.186-4.073-1.186-1.145-4.18-1.153 4.18-4.073 1.186 4.073 1.186zM152.426 24.439l.624-2.281 2.223-.646-2.223-.645-.624-2.282-.628 2.282-2.222.645 2.222.646zM166.665 22.488l-.835-3.041-2.961-.862 2.961-.861.835-3.041.838 3.041 2.962.861-2.962.862zM141.032 43.951l.624-2.281 2.223-.646-2.223-.645-.624-2.281-.628 2.281-2.222.645 2.222.646zM179.958 26.39l-.835-3.041-2.961-.861 2.961-.862.835-3.041.838 3.041 2.962.862-2.962.861zM190.402 22.488l-.624-2.281-2.222-.646 2.222-.646.624-2.281.628 2.281 2.223.646-2.223.646zM179.012 47.854l.624-2.281 2.223-.646-2.223-.646-.624-2.281-.628 2.281-2.222.646 2.222.646zM119.19 44.927l-.834-3.041-2.962-.862 2.962-.861.834-3.041.838 3.041 2.962.861-2.962.862zM134.386 12.732l.624-2.281 2.222-.646-2.222-.646-.624-2.281-.628 2.281-2.223.646 2.223.646zM122.992 33.22l.624-2.282 2.222-.645-2.222-.646-.624-2.281-.628 2.281-2.223.646 2.223.645zM149.574 51.756l-.624-2.281-2.223-.646 2.223-.645.624-2.282.628 2.282 2.222.645-2.222.646zM167.618 68.341l.624-2.281 2.223-.645-2.223-.646-.624-2.281-.628 2.281-2.222.646 2.222.645zM160.022 33.22l.624-2.282 2.223-.645-2.223-.646-.624-2.281-.628 2.281-2.222.646 2.222.645zM127.739 61.512l.624-2.281 2.223-.646-2.223-.645-.624-2.281-.628 2.281-2.222.645 2.222.646zM152.426 7.854l.624-2.281 2.223-.646-2.223-.646L152.426 2l-.628 2.281-2.222.646 2.222.646zM183.756 10.78l-.625-2.281-2.222-.645 2.222-.646.625-2.281.628 2.281 2.222.646-2.222.645zM108.749 40.049l.625-2.281 2.222-.646-2.222-.646-.625-2.281-.628 2.281-2.222.646 2.222.646zM141.982 78.098l.624-2.282 2.222-.645-2.222-.646-.624-2.281-.628 2.281-2.223.646 2.223.645zM195.152 47.854l.627-2.28 2.221-.645-2.221-.645-.627-2.284-.628 2.284-2.221.645 2.221.645zM161.921 80.049l.624-2.281 2.223-.646-2.223-.646-.624-2.281-.628 2.281-2.222.646 2.222.646zM106.847 67.366l-.625-2.281-2.222-.646 2.222-.646.625-2.281.628 2.281 2.222.646-2.222.646z"/>
            </g>
            <g opacity=".433">
                <path d="M47.473 36.146l-.834-3.041-2.962-.861 2.962-.862.834-3.041.838 3.041 2.962.862-2.962.861zM40.349 64.439l-1.144-4.18-4.074-1.186 4.074-1.186 1.144-4.18 1.153 4.18 4.074 1.186-4.074 1.186zM10.443 54.683l-.625-2.281-2.222-.646 2.222-.646.625-2.281.628 2.281 2.222.646-2.222.646zM30.386 51.756l.834-3.041 2.962-.861-2.962-.862-.834-3.041-.838 3.041-2.962.862 2.962.861zM55.55 19.561l1.144-4.18 4.074-1.186-4.074-1.186-1.144-4.18-1.153 4.18-4.074 1.186 4.074 1.186zM57.921 29.317l.624-2.281 2.223-.646-2.223-.645-.624-2.282-.628 2.282-2.222.645 2.222.646zM75.958 71.268l-.835-3.041-2.961-.861 2.961-.862.835-3.041.838 3.041 2.962.862-2.962.861zM27.056 39.073l-1.144-4.18-4.074-1.186 4.074-1.186 1.144-4.18 1.153 4.18 4.074 1.186-4.074 1.186zM82.604 82l-.624-2.281-2.222-.646 2.222-.646.624-2.281.628 2.281 2.223.646-2.223.646zM62.669 68.341l.834-3.04 2.962-.862-2.962-.862-.834-3.04-.839 3.04-2.961.862 2.961.862zM82.608 61.512l.624-2.281 2.223-.646-2.223-.645-.624-2.281-.628 2.281-2.222.645 2.222.646zM69.311 48.829l-.624-2.281-2.222-.646 2.222-.645.624-2.281.628 2.281 2.223.645-2.223.646zM51.271 67.366l-.624-2.281-2.223-.646 2.223-.646.624-2.281.628 2.281 2.222.646-2.222.646zM60.289 59.561l-1.145-4.18-4.073-1.186 4.073-1.186 1.145-4.18 1.153 4.18 4.073 1.186-4.073 1.186zM65.045 39.073l1.144-4.18 4.074-1.186-4.074-1.186-1.144-4.18-1.153 4.18-4.074 1.186 4.074 1.186zM41.299 47.854l-1.145-4.18-4.073-1.186 4.073-1.186 1.145-4.18 1.153 4.18 4.073 1.186-4.073 1.186zM45.574 24.439l-.624-2.281-2.223-.646 2.223-.645.624-2.282.628 2.282 2.222.645-2.222.646zM31.335 22.488l.835-3.041 2.961-.862-2.961-.861-.835-3.041-.838 3.041-2.962.861 2.962.862zM56.968 43.951l-.624-2.281-2.223-.646 2.223-.645.624-2.281.628 2.281 2.222.645-2.222.646zM18.042 26.39l.835-3.041 2.961-.861-2.961-.862-.835-3.041-.838 3.041-2.962.862 2.962.861zM7.598 22.488l.624-2.281 2.222-.646-2.222-.646-.624-2.281-.628 2.281-2.223.646 2.223.646zM18.988 47.854l-.624-2.281-2.223-.646 2.223-.646.624-2.281.628 2.281 2.222.646-2.222.646zM78.81 44.927l.834-3.041 2.962-.862-2.962-.861-.834-3.041-.838 3.041-2.962.861 2.962.862zM63.614 12.732l-.624-2.281-2.222-.646 2.222-.646.624-2.281.628 2.281 2.223.646-2.223.646zM75.008 33.22l-.624-2.282-2.222-.645 2.222-.646.624-2.281.628 2.281 2.223.646-2.223.645zM48.426 51.756l.624-2.281 2.223-.646-2.223-.645-.624-2.282-.628 2.282-2.222.645 2.222.646zM30.382 68.341l-.624-2.281-2.223-.645 2.223-.646.624-2.281.628 2.281 2.222.646-2.222.645zM37.978 33.22l-.624-2.282-2.223-.645 2.223-.646.624-2.281.628 2.281 2.222.646-2.222.645zM70.261 61.512l-.624-2.281-2.223-.646 2.223-.645.624-2.281.628 2.281 2.222.645-2.222.646zM45.574 7.854l-.624-2.281-2.223-.646 2.223-.646L45.574 2l.628 2.281 2.222.646-2.222.646zM14.244 10.78l.625-2.281 2.222-.645-2.222-.646-.625-2.281-.628 2.281-2.222.646 2.222.645zM89.251 40.049l-.625-2.281-2.222-.646 2.222-.646.625-2.281.628 2.281 2.222.646-2.222.646zM56.018 78.098l-.624-2.282-2.222-.645 2.222-.646.624-2.281.628 2.281 2.223.646-2.223.645zM2.848 47.854l-.627-2.28L0 44.929l2.221-.645L2.848 42l.628 2.284 2.221.645-2.221.645zM36.079 80.049l-.624-2.281-2.223-.646 2.223-.646.624-2.281.628 2.281 2.222.646-2.222.646zM91.153 67.366l.625-2.281L94 64.439l-2.222-.646-.625-2.281-.628 2.281-2.222.646 2.222.646z"/>
            </g>
            <path d="M72.5 39.75h16.864V28.91H72.5v10.84zm11.51-7.798c1.398 0 2.53 1.063 2.53 2.378 0 1.312-1.132 2.377-2.53 2.377-1.397 0-2.529-1.063-2.529-2.377 0-1.315 1.132-2.378 2.53-2.378z"/>
            <path d="M125.5 20.422c0-2.627-2.443-4.763-5.446-4.763H80.36c-3.005 0-5.45 2.136-5.45 4.763v6.693h14.478c.474 0 .858.38.858.85v12.73a.853.853 0 0 1-.858.846H74.91v6.694c0 2.627 2.446 4.765 5.451 4.765h39.694c3-.002 5.444-2.14 5.444-4.767V20.422zM107.655 0L89.364 12.045l4.419-1.854 16.058-6.741zM114.601 2.41l-2.994 1.333v.002l-18.63 8.3h7.98l9.01-4.017c.678 1.786 2.566 2.639 4.215 1.903l.804 2.114h3.287L114.6 2.41z"/>
        </g>
    </g>
</svg>