<svg xmlns="http://www.w3.org/2000/svg" xmlns:xlink="http://www.w3.org/1999/xlink" width="297" height="100%">
  <defs>
    <linearGradient id="a" x1="2.899%" x2="84.357%" y1="-3.768%" y2="87.667%">
      <stop offset="0%" stop-color="#727BCE"/>
      <stop offset="42.643%" stop-color="#656EC3"/>
      <stop offset="62.471%" stop-color="#555DB4"/>
      <stop offset="100%" stop-color="#3E45A0"/>
    </linearGradient>
    <rect id="c" width="100" height="90" x="320" y="50" rx="12"/>
    <filter id="b" width="105.9%" height="108.1%" x="-3%" y="-2.6%" filterUnits="objectBoundingBox">
      <feOffset dy="13" in="SourceAlpha" result="shadowOffsetOuter1"/>
      <feGaussianBlur in="shadowOffsetOuter1" result="shadowBlurOuter1" stdDeviation="10.5"/>
      <feColorMatrix in="shadowBlurOuter1" values="0 0 0 0 0 0 0 0 0 0 0 0 0 0 0 0 0 0 0.513134058 0"/>
    </filter>
    <path id="d" fill="none" d="M0 0h1227v797H0z"/>
  </defs>
  <g fill="none" fill-rule="evenodd">
    <g transform="translate(-812 -280)">
      <use fill="none"  filter="url(#b)" xlink:href="#c"/>
      <use fill="none" xlink:href="#c"/>
    </g>
    <g transform="translate(-466 -206)">
      <mask id="e" fill="none">
        <use xlink:href="#d"/>
      </mask>
      <use  xlink:href="#d"/>
    </g>
    <g fill="#FFCA54" fill-rule="nonzero">
      <g opacity=".433">
        <path d="M225.478 59.36l1.246-4.419 4.423-1.253-4.423-1.252-1.246-4.419-1.25 4.419-4.424 1.252 4.423 1.253zM236.116 100.478l1.71-6.075 6.082-1.723-6.083-1.723-1.709-6.075-1.722 6.075-6.083 1.723 6.083 1.723zM280.775 86.3l.932-3.316 3.32-.938-3.32-.938-.932-3.316-.938 3.316-3.318.938 3.318.938zM250.994 82.046l-1.246-4.419-4.422-1.253 4.422-1.252 1.246-4.419 1.252 4.419 4.423 1.252-4.423 1.253zM213.417 35.256l-1.709-6.075-6.083-1.723 6.083-1.724 1.71-6.074 1.721 6.074 6.083 1.724-6.083 1.723zM209.876 49.435l-.932-3.315-3.319-.939 3.32-.938.931-3.315.938 3.315 3.318.938-3.318.939zM182.942 110.403l1.246-4.419 4.423-1.252-4.423-1.252-1.246-4.42-1.252 4.42-4.422 1.252 4.422 1.252zM255.966 63.614l1.71-6.075 6.082-1.724-6.083-1.723-1.709-6.075-1.722 6.075-6.083 1.723 6.083 1.724zM173.017 126l.932-3.315 3.32-.939-3.32-.938-.932-3.315-.938 3.315-3.319.938 3.32.939zM202.787 106.15l-1.246-4.42-4.423-1.252 4.423-1.252 1.246-4.419 1.251 4.419 4.423 1.252-4.423 1.252zM173.011 96.225l-.932-3.316-3.319-.938 3.32-.938.931-3.316.938 3.316 3.32.938-3.32.938zM192.867 77.792l.932-3.315 3.32-.938-3.32-.939-.932-3.315-.938 3.315-3.318.939 3.318.938zM219.807 104.732l.932-3.315 3.318-.939-3.318-.938-.932-3.315-.938 3.315-3.319.938 3.32.939zM206.341 93.389l1.71-6.075 6.081-1.723-6.082-1.724-1.709-6.075-1.722 6.075-6.083 1.724 6.083 1.723zM199.238 63.614l-1.709-6.075-6.083-1.724 6.083-1.723 1.71-6.075 1.721 6.075 6.083 1.723-6.083 1.724zM234.698 76.374l1.71-6.074 6.082-1.724-6.083-1.723-1.709-6.075-1.722 6.075-6.083 1.723 6.083 1.724zM228.314 42.345l.932-3.315 3.32-.938-3.32-.939-.932-3.315-.938 3.315-3.319.939 3.32.938zM249.576 39.51l-1.246-4.42-4.422-1.252 4.422-1.252 1.246-4.419 1.252 4.419 4.423 1.252-4.423 1.252zM211.3 70.703l.932-3.315 3.318-.939-3.318-.938-.933-3.315-.937 3.315-3.319.938 3.32.939zM269.427 45.181l-1.246-4.419-4.423-1.252 4.423-1.252 1.246-4.42 1.251 4.42 4.423 1.252-4.423 1.252zM285.023 39.51l-.932-3.316-3.319-.938 3.32-.938.931-3.316.938 3.316 3.32.938-3.32.938zM268.014 76.374l.932-3.315 3.32-.938-3.32-.939-.932-3.315-.937 3.315-3.319.939 3.32.938zM178.683 72.121l-1.246-4.42-4.423-1.252 4.423-1.252 1.246-4.419 1.251 4.419 4.423 1.252-4.423 1.252zM201.374 25.331l.932-3.315 3.32-.939-3.32-.938-.932-3.315-.937 3.315-3.319.938 3.32.939zM184.36 55.106l.932-3.315 3.32-.938-3.32-.939-.932-3.315-.938 3.315-3.319.939 3.32.938zM224.055 82.046l-.932-3.315-3.319-.939 3.32-.938.931-3.315.937 3.315 3.32.938-3.32.939zM251 106.15l.932-3.315 3.32-.939-3.32-.938-.932-3.315-.938 3.315-3.319.938 3.32.939zM239.657 55.106l.932-3.315 3.32-.938-3.32-.939-.932-3.315-.938 3.315-3.319.939 3.32.938zM191.45 96.225l.931-3.316 3.32-.938-3.32-.938-.932-3.316-.938 3.316-3.318.938 3.318.938zM228.314 18.242l.932-3.316 3.32-.938-3.32-.938-.932-3.316-.938 3.316-3.319.938 3.32.938zM275.098 22.495l-.932-3.315-3.319-.938 3.32-.939.931-3.315.938 3.315 3.32.939-3.32.938zM163.092 65.031l.932-3.315 3.32-.938-3.32-.939-.932-3.315-.938 3.315-3.319.939 3.32.938zM212.717 120.329l.932-3.316 3.32-.938-3.32-.938-.932-3.316-.937 3.316-3.319.938 3.32.938zM292.115 76.374l.938-3.313 3.316-.937-3.316-.938-.938-3.319-.937 3.319-3.316.938 3.316.937zM242.493 123.164l.932-3.315 3.318-.938-3.318-.939-.932-3.315-.938 3.315-3.319.939 3.32.938zM160.25 104.732l-.932-3.315-3.318-.939 3.318-.938.932-3.315.938 3.315 3.32.938-3.32.939z"/>
      </g>
      <g opacity=".433">
        <path d="M70.704 58.246l-1.242-4.409-4.411-1.249 4.411-1.25 1.242-4.409 1.248 4.41 4.412 1.25-4.412 1.248zM60.094 99.271l-1.704-6.06-6.067-1.72 6.067-1.72 1.704-6.06 1.718 6.06 6.067 1.72-6.067 1.72zM15.553 85.124l-.93-3.307-3.31-.937 3.31-.936.93-3.308.935 3.308 3.31.936-3.31.937zM45.255 80.88l1.243-4.409 4.411-1.249-4.411-1.249-1.243-4.41-1.248 4.41-4.411 1.25 4.411 1.248zM82.734 34.197l1.704-6.06 6.067-1.72-6.067-1.72-1.704-6.06-1.718 6.06-6.067 1.72 6.067 1.72zM86.265 48.344l.93-3.308 3.31-.936-3.31-.936-.93-3.308-.935 3.308-3.31.936 3.31.936zM113.128 109.173l-1.242-4.409-4.411-1.25 4.411-1.249 1.242-4.409 1.249 4.41 4.411 1.248-4.411 1.25zM40.297 62.49l-1.705-6.06-6.067-1.72 6.067-1.72 1.705-6.06 1.717 6.06 6.067 1.72-6.067 1.72zM123.028 124.734l-.93-3.308-3.31-.936 3.31-.936.93-3.308.935 3.308 3.31.936-3.31.936zM93.336 104.93l1.243-4.41 4.411-1.249-4.411-1.25-1.243-4.409-1.248 4.41-4.411 1.25 4.411 1.248zM123.033 95.027l.93-3.308 3.31-.936-3.31-.936-.93-3.308-.935 3.308-3.31.936 3.31.936zM103.23 76.636l-.93-3.307-3.31-.936 3.31-.937.93-3.307.935 3.307 3.31.937-3.31.936zM76.361 103.514l-.93-3.307-3.31-.936 3.31-.937.93-3.307.935 3.307 3.31.937-3.31.936zM89.791 92.197l-1.704-6.06-6.067-1.72 6.067-1.72 1.704-6.06 1.718 6.06 6.067 1.72-6.067 1.72zM96.875 62.49l1.705-6.06 6.066-1.72-6.066-1.72-1.705-6.06-1.717 6.06-6.067 1.72 6.067 1.72zM61.509 75.222l-1.705-6.06-6.067-1.72 6.067-1.72 1.705-6.06 1.717 6.06 6.067 1.72-6.067 1.72zM67.876 41.271l-.93-3.308-3.31-.936 3.31-.937.93-3.307.935 3.307 3.31.937-3.31.936zM46.669 38.441l1.243-4.409 4.411-1.249-4.411-1.249-1.243-4.41-1.248 4.41-4.411 1.25 4.411 1.248zM84.846 69.563l-.93-3.307-3.31-.937 3.31-.936.93-3.308.935 3.308 3.31.936-3.31.937zM26.872 44.1l1.242-4.409 4.411-1.25-4.411-1.249-1.242-4.409-1.249 4.41-4.411 1.248 4.411 1.25zM11.316 38.441l.93-3.307 3.31-.937-3.31-.936-.93-3.307-.935 3.307-3.31.936 3.31.937zM28.28 75.222l-.93-3.308-3.31-.936 3.31-.936.93-3.308.935 3.308 3.31.936-3.31.936zM117.377 70.978l1.242-4.409 4.411-1.25-4.411-1.249-1.242-4.409-1.249 4.41-4.411 1.248 4.411 1.25zM94.745 24.295l-.93-3.308-3.31-.936 3.31-.936.93-3.308.935 3.308 3.31.936-3.31.936zM111.714 54.002l-.929-3.307-3.31-.937 3.31-.936.929-3.308.936 3.308 3.31.936-3.31.937zM72.124 80.88l.93-3.307 3.31-.937-3.31-.936-.93-3.307-.935 3.307-3.31.936 3.31.937zM45.25 104.93l-.93-3.309-3.31-.936 3.31-.936.93-3.308.935 3.308 3.31.936-3.31.936zM56.563 54.002l-.93-3.307-3.31-.937 3.31-.936.93-3.308.935 3.308 3.31.936-3.31.937zM104.644 95.027l-.93-3.308-3.31-.936 3.31-.936.93-3.308.935 3.308 3.31.936-3.31.936zM67.876 17.222l-.93-3.308-3.31-.936 3.31-.936.93-3.308.935 3.308 3.31.936-3.31.936zM21.215 21.466l.93-3.308 3.31-.936-3.31-.936-.93-3.308-.935 3.308-3.31.936 3.31.936zM132.926 63.905l-.929-3.308-3.31-.936 3.31-.936.929-3.308.936 3.308 3.31.936-3.31.936zM83.432 119.075l-.93-3.307-3.31-.936 3.31-.937.93-3.307.935 3.307 3.31.937-3.31.936zM4.242 75.222l-.934-3.306L0 70.981l3.308-.936.934-3.31.935 3.31 3.308.936-3.308.935zM53.735 121.905l-.93-3.308-3.31-.936 3.31-.936.93-3.308.935 3.308 3.31.936-3.31.936zM135.76 103.514l.93-3.307 3.31-.936-3.31-.937-.93-3.307-.935 3.307-3.31.937 3.31.936z"/>
      </g>
      <path  d="M112 24.728v10.064c0 2.563 2.152 4.642 4.803 4.642h31.992l-.004-19.35H116.8c-2.652 0-4.8 2.08-4.8 4.643zM186.197 20.084h-31.992v19.35h31.992c2.651 0 4.803-2.08 4.803-4.642V24.728c-.004-2.563-2.152-4.643-4.803-4.643zM116.329 83.662c0 1.699 1.353 3.072 3.019 3.072h28.364V42.66H116.33v41.003zM154.205 86.734h28.365c1.67 0 3.019-1.377 3.019-3.072V42.659h-31.384v44.075zM131.414 16.615c.997.566 3.023 1.32 9.096 1.32 3.346 0 6.31-.234 6.434-.242a2 2 0 0 0 1.598-1.044 2.09 2.09 0 0 0 .03-1.936c-.916-1.817-5.668-10.971-9.063-12.904a8.2 8.2 0 0 0-4.044-1.075c-3.016 0-5.8 1.668-7.266 4.35-2.228 4.082-.788 9.254 3.215 11.53zm.296-9.534a4.29 4.29 0 0 1 3.755-2.25c.724 0 1.444.192 2.086.555 1.245.708 3.773 4.492 5.953 8.39-.9.034-1.932.057-2.994.057-5.315 0-6.808-.612-7.138-.8-2.07-1.174-2.814-3.844-1.662-5.952zM156.056 17.693c.124.012 3.088.241 6.434.241 6.073 0 8.098-.753 9.096-1.32 4.003-2.276 5.443-7.448 3.215-11.53-1.47-2.682-4.254-4.35-7.27-4.35a8.175 8.175 0 0 0-4.04 1.075c-3.398 1.932-8.147 11.087-9.063 12.905a2.09 2.09 0 0 0 .03 1.936c.327.596.927.99 1.598 1.044zm9.39-12.307a4.217 4.217 0 0 1 2.085-.554c1.557 0 2.997.86 3.755 2.25 1.152 2.107.409 4.778-1.658 5.956-.33.187-1.823.8-7.138.8-1.062 0-2.09-.027-2.994-.058 2.176-3.902 4.704-7.682 5.95-8.394z"/>
    </g>
  </g>
</svg>
