<svg xmlns="http://www.w3.org/2000/svg" viewBox="0 0 300 200">
    <g fill="none" fill-rule="evenodd">
        <path fill="#FFF" fill-rule="nonzero" d="M100.2333413 111.3011052l3.7326722 1.145832 2.4781335-2.135821-.6106086 3.214037 2.8586558 2.659673-3.730698-1.1492515-2.4781335 2.1358211.6106086-3.2140371-2.86063-2.6562535zm-28.8433328-8.6465336l3.8413466.9554224 2.8656453-2.804831-.9962323 3.884137 2.7480932 2.8489926-3.837196-.962611-2.8656453 2.804831.9962322-3.884137-2.7522437-2.841804zm-5.6914175 33.299685l2.3052829.5747457 1.7186458-1.6839298-.5990029 2.330356 1.6503861 1.7090607-2.3033254-.5781367-1.718646 1.6839298.599003-2.330356-1.6523435-1.7056698zm12.0907954-17.0348952l3.730698 1.1492516 2.4781334-2.1358211-.6106086 3.2140371 2.86063 2.6562534-3.7326722-1.145832-2.4781335 2.1358211.6106086-3.214037-2.8586557-2.659673zm44.8108014-7.2890027l3.8371956.9626102 2.8656458-2.8048301-.996232 3.8841366 2.7522435 2.8418043-3.8413466-.9554226-2.8656454 2.8048314.9962317-3.884138-2.7480926-2.8489918zm-9.161524-7.573637l2.3033253.5781375 1.7186459-1.68393-.5990032 2.330356 1.6523444 1.7056696-2.3052834-.574746-1.7186458 1.6839298.5990031-2.3303559-1.6503863-1.709061zm-29.505826-38.7548746l3.7326725 1.1458316 2.4781334-2.135821-.6106085 3.214037 2.8586554 2.6596733-3.730698-1.1492514-2.4781334 2.135821.6106086-3.214037-2.86063-2.6562535zm4.2105864 63.0326328l3.8413458.9554219 2.8656452-2.804831-.9962315 3.8841375 2.7480925 2.8489921-3.8371954-.9626106-2.865646 2.8048306.9962323-3.884137-2.752243-2.8418035zm-8.2135487-75.6341824l2.3052829.5747457 1.718646-1.6839298-.599003 2.330356 1.6503858 1.7090606-2.3033249-.5781371-1.7186459 1.6839298.599003-2.330356-1.6523439-1.7056692zm.4571054 26.5571074l3.730698 1.1492515 2.4781334-2.135821-.6106086 3.214037 2.86063 2.6562534-3.7326725-1.1458315-2.4781334 2.135821.6106085-3.214037-2.8586554-2.6596734zM98.5413097 63.441092l2.3033248.5781372 1.718646-1.6839298-.599003 2.330356 1.6523438 1.7056692-2.3052828-.5747458-1.718646 1.6839299.599003-2.330356-1.6503858-1.7090607zm2.2270968 19.5844156l2.305283.574746 1.718646-1.68393-.5990032 2.330356 1.6503855 1.7090604-2.3033245-.578137-1.7186459 1.68393.5990032-2.330356-1.6523441-1.7056694zM76.630707 89.670439l2.3052829.5747457 1.7186459-1.6839298-.599003 2.330356 1.6503859 1.7090606-2.3033254-.5781362-1.7186459 1.6839296.599003-2.3303558-1.6523434-1.7056701zm10.7267702-2.951404l3.8413464.9554224 2.865645-2.8048305-.996232 3.8841366 2.7480934 2.8489923-3.8371964-.9626105-2.865645 2.8048305.996232-3.8841366-2.7522434-2.8418043zm20.594019 7.3068577l3.8371952.962611 2.8656454-2.8048314-.9962317 3.884138 2.7522432 2.841803-3.8413457-.9554222-2.8656463 2.804831.9962326-3.8841375-2.7480927-2.8489919zM87.60614 109.7301997l3.8413467.9554223 2.8656451-2.804831-.9962323 3.884137 2.7480934 2.8489926-3.8371963-.962611-2.8656452 2.804831.9962324-3.884137-2.7522438-2.841804zm23.9745059 9.2656356l2.3052825.5747455 1.7186458-1.6839298-.5990031 2.3303558 1.6503864 1.709061-2.3033258-.5781368-1.7186458 1.6839298.5990032-2.3303558-1.6523432-1.7056697zm-5.7327344 13.8363633l3.730698 1.1492516 2.4781335-2.1358213-.6106087 3.2140373 2.86063 2.6562534-3.7326721-1.1458321-2.4781335 2.135821.6106086-3.214037-2.8586558-2.659673zm-5.9453701-36.586039l2.3052834.574746 1.7186458-1.6839298-.5990032 2.3303559 1.6503864 1.709061-2.3033254-.5781375-1.7186458 1.68393.5990032-2.330356-1.6523444-1.7056696zm-5.3597399 48.3531098l3.730698 1.1492515 2.4781335-2.135821-.6106086 3.214037 2.86063 2.6562535-3.7326722-1.145832-2.4781335 2.135821.6106086-3.214037-2.8586558-2.659673zm-1.0723493 9.6713175l2.3033248.5781363 1.7186458-1.6839298-.5990022 2.3303563 1.6523431 1.7056697-2.3052824-.5747456-1.7186467 1.6839293.5990031-2.3303558-1.6503855-1.7090604zm-17.7455688-23.9614473l2.3052825.5747456 1.7186458-1.6839298-.5990031 2.3303558 1.6503864 1.709061-2.3033257-.5781369-1.7186458 1.6839298.599003-2.3303558-1.652343-1.7056697zM108.609796 77.257776l3.730698 1.1492515 2.4781335-2.135821-.6106086 3.214037 2.86063 2.6562535-3.7326725-1.1458316-2.4781334 2.135821.6106086-3.214037-2.8586556-2.6596734zM133.325 108.682345l2.3052834.574746 1.7186459-1.68393-.5990032 2.330356 1.6503855 1.7090604-2.303325-.578136-1.7186458 1.6839299.5990031-2.330356-1.6523438-1.7056704zm-14.3600697-22.0113496l2.3052825.5747455 1.7186458-1.6839299-.5990031 2.330356 1.6503864 1.7090609-2.303326-.5781366-1.7186458 1.68393.5990032-2.330356-1.652343-1.70567zm-31.7686895 15.9552163l2.3033252.5781365 1.7186463-1.6839295-.5990031 2.3303558 1.6523431 1.7056697-2.3052824-.5747457-1.7186458 1.6839298.5990026-2.330356-1.650386-1.7090606zm-24.1396574 6.6483223l2.3052828.5747457 1.718646-1.6839297-.599003 2.3303559 1.6503858 1.7090606-2.3033251-.5781366-1.7186459 1.6839298.599003-2.330356-1.6523436-1.7056697zm36.1044252 11.69786l2.3052824.5747456 1.7186459-1.68393-.5990032 2.330356 1.6503865 1.7090608-2.3033258-.5781368-1.7186458 1.6839298.5990031-2.3303558-1.6523431-1.7056697zm-7.5530294-45.5224212l2.3052828.5747458 1.718646-1.6839298-.599003 2.330356 1.6503858 1.7090606-2.3033248-.5781371-1.718646 1.6839298.599003-2.330356-1.6523438-1.7056693zm35.1986013 52.33656l2.3052825.5747455 1.7186458-1.6839298-.5990023 2.3303563 1.6503856 1.7090605-2.3033249-.5781363-1.7186467 1.6839293.5990032-2.3303558-1.6523432-1.7056697zm-20.214917 27.1993094l2.3033257.5781368 1.7186458-1.6839299-.5990031 2.3303559 1.6523431 1.7056697-2.3052824-.5747457-1.7186459 1.68393.5990032-2.330356-1.6503864-1.7090608zm14.2293277-83.2505687l2.3052825.5747456 1.7186459-1.68393-.5990032 2.330356 1.6503864 1.709061-2.3033259-.5781366-1.7186458 1.6839299.5990031-2.330356-1.652343-1.7056699zm-52.3605156 8.6445608l2.305283.5747458 1.7186459-1.6839299-.599003 2.330356 1.6503859 1.7090607-2.3033255-.5781363-1.7186454 1.683929.5990026-2.3303551-1.6523435-1.7056702zm-1.6463782 65.3632392l2.3037635.5743666 1.7175137-1.682821-.5986089 2.328821 1.6526433 1.709866-2.307109-.5762982-1.7175136 1.682821.5986089-2.328821-1.6492979-1.7079344zm-10.937549-47.4742144l2.3052828.5747457 1.7186459-1.6839297-.599003 2.3303559 1.6503859 1.7090606-2.3033252-.5781366-1.718646 1.6839299.599003-2.330356-1.6523435-1.7056698zM97.426782 53.6505805l2.3033254.5781362 1.7186459-1.6839298-.599003 2.330356 1.6523434 1.7056701-2.3052829-.5747457-1.7186455 1.6839289.5990026-2.330355-1.6503859-1.7090607zM202.7666585 113.301105l-3.732672 1.1458324-2.4781334-2.135821.6106086 3.214037-2.858656 2.6596725 3.730698-1.1492515 2.4781334 2.135821-.6106086-3.214037 2.86063-2.6562535zm28.843333-8.6465334l-3.8413465.9554226-2.8656455-2.8048314.9962325 3.8841375-2.7480933 2.8489923 3.8371963-.9626105 2.865645 2.8048305-.996232-3.8841366 2.7522435-2.8418044zm5.6914176 33.2996851l-2.3052829.5747458-1.7186458-1.68393.5990032 2.330356-1.6503864 1.7090609 2.3033254-.5781374 1.7186458 1.6839299-.5990032-2.330356 1.6523439-1.7056692zm-12.0907956-17.0348954l-3.730698 1.1492515-2.4781334-2.135821.6106085 3.214037-2.86063 2.6562535 3.7326725-1.1458316 2.4781335 2.135821-.6106086-3.214037 2.8586555-2.6596734zm-44.8108013-7.2890026l-3.8371956.9626102-2.8656458-2.8048301.996232 3.8841366-2.7522435 2.8418043 3.8413466-.9554226 2.8656454 2.8048314-.9962317-3.884138 2.7480926-2.8489918zm9.161524-7.573637l-2.3033253.5781375-1.7186459-1.68393.5990032 2.330356-1.6523444 1.7056696 2.3052834-.574746 1.7186458 1.6839298-.5990031-2.3303559 1.6503863-1.709061zm29.505826-38.7548746l-3.7326725 1.1458316-2.4781334-2.135821.6106085 3.214037-2.8586554 2.6596733 3.730698-1.1492514 2.4781334 2.135821-.6106086-3.214037 2.86063-2.6562535zm-4.2105864 63.0326327l-3.8413457.9554222-2.8656454-2.8048315.9962317 3.884138-2.7480927 2.8489918 3.8371957-.9626101 2.8656458 2.80483-.996232-3.8841365 2.7522426-2.8418039zm8.2135487-75.6341823l-2.3052829.5747457-1.718646-1.6839298.599003 2.330356-1.6503858 1.7090606 2.3033249-.5781371 1.7186459 1.6839298-.599003-2.330356 1.6523439-1.7056692zm-.4571054 26.5571074l-3.730698 1.1492515-2.4781334-2.135821.6106086 3.214037-2.86063 2.6562534 3.7326725-1.1458315 2.4781334 2.135821-.6106085-3.214037 2.8586554-2.6596734zM204.4586903 65.441092l-2.3033248.5781372-1.718646-1.6839298.599003 2.330356-1.6523438 1.7056692 2.3052828-.5747458 1.718646 1.6839299-.599003-2.330356 1.6503858-1.7090607zm-2.2270965 19.5844155l-2.3052834.574746-1.7186458-1.6839299.5990031 2.330356-1.6503855 1.7090604 2.3033245-.578137 1.7186459 1.68393-.5990032-2.330356 1.6523444-1.7056695zm24.1376992 6.6449314l-2.3052829.5747457-1.7186459-1.6839298.599003 2.330356-1.6503859 1.7090606 2.3033254-.5781362 1.718646 1.6839298-.599003-2.330356 1.6523433-1.7056701zm-10.7267702-2.951404l-3.8413464.9554224-2.865645-2.8048305.996232 3.8841366-2.7480931 2.8489922 3.837196-.9626104 2.865645 2.8048305-.996232-3.8841366 2.7522435-2.8418043zm-20.594019 7.3068577l-3.8371952.962611-2.8656454-2.8048314.9962317 3.884138-2.7522432 2.841803 3.8413457-.9554222 2.8656463 2.804831-.9962326-3.8841375 2.7480927-2.8489919zm20.3453564 15.704307l-3.8413466.9554226-2.8656454-2.8048314.9962326 3.8841374-2.7480935 2.8489924 3.837196-.9626115 2.8656454 2.8048315-.9962326-3.8841375 2.752244-2.8418035zm-23.9745059 9.2656358l-2.3052825.5747455-1.7186458-1.6839299.5990031 2.330356-1.6503864 1.7090609 2.3033254-.5781375 1.7186459 1.68393-.5990032-2.330356 1.6523435-1.705669zm5.7327343 13.836363l-3.730698 1.1492515-2.4781335-2.135821.6106086 3.214037-2.86063 2.6562535 3.7326725-1.1458316 2.4781334 2.135821-.6106085-3.214037 2.8586555-2.6596734zm5.9453701-36.5860389l-2.3052834.574746-1.7186458-1.6839298.5990032 2.3303559-1.6503864 1.709061 2.3033254-.5781375 1.7186458 1.68393-.5990032-2.330356 1.6523444-1.7056696zm5.3597397 48.3531095l-3.730698 1.1492515-2.4781334-2.135821.6106085 3.214037-2.86063 2.6562535 3.7326725-1.1458316 2.4781335 2.135821-.6106086-3.214037 2.8586555-2.6596734zm1.0723497 9.6713181l-2.303325.578136-1.7186459-1.6839299.5990023 2.3303564-1.652343 1.70567 2.3052825-.5747456 1.7186467 1.6839294-.5990031-2.3303559 1.6503855-1.7090604zm17.7455686-23.9614476l-2.3052825.5747456-1.7186459-1.68393.5990032 2.330356-1.6503864 1.709061 2.3033259-.5781366 1.7186458 1.6839299-.5990031-2.330356 1.652343-1.7056699zM194.390204 79.257776l-3.730698 1.1492515-2.4781335-2.135821.6106086 3.214037-2.86063 2.6562535 3.7326725-1.1458316 2.4781334 2.135821-.6106086-3.214037 2.8586556-2.6596734zM169.675 110.682345l-2.3052834.574746-1.7186459-1.68393.5990032 2.330356-1.6503855 1.7090604 2.303325-.578136 1.7186458 1.6839299-.5990031-2.330356 1.6523438-1.7056704zm14.3600697-22.0113496l-2.3052825.5747455-1.7186458-1.6839299.5990031 2.330356-1.6503864 1.7090609 2.303326-.5781366 1.7186458 1.68393-.5990032-2.330356 1.652343-1.70567zm31.7686893 15.955216l-2.3033245.5781368-1.7186467-1.6839294.5990032 2.330356-1.6523435 1.705669 2.3052825-.5747455 1.7186458 1.6839299-.5990023-2.3303564 1.6503855-1.7090605zm24.1396576 6.6483225l-2.3052829.5747457-1.718646-1.6839298.599003 2.330356-1.6503858 1.7090606 2.3033254-.5781362 1.7186459 1.6839298-.599003-2.330356 1.6523434-1.7056701zm-36.1044254 11.6978597l-2.3052825.5747455-1.7186453-1.683929.5990026 2.330355-1.6503864 1.709061 2.303326-.5781366 1.7186458 1.68393-.5990032-2.330356 1.652343-1.70567zm7.5530296-45.5224208l-2.3052828.5747458-1.718646-1.6839298.599003 2.330356-1.6503858 1.7090606 2.3033248-.5781371 1.718646 1.6839298-.599003-2.330356 1.6523438-1.7056693zm-35.1986012 52.3365602l-2.3052825.5747455-1.7186458-1.6839299.5990023 2.3303564-1.6503856 1.7090605 2.3033246-.578137 1.7186467 1.6839295-.5990032-2.330356 1.6523435-1.705669zm20.2149168 27.199309l-2.3033253.5781374-1.7186459-1.68393.5990032 2.330356-1.6523435 1.705669 2.3052825-.5747455 1.7186458 1.68393-.5990031-2.330356 1.6503863-1.709061zm-14.2293276-83.2505685l-2.3052825.5747456-1.7186459-1.68393.5990032 2.330356-1.6503864 1.709061 2.3033259-.5781366 1.7186458 1.6839299-.5990031-2.330356 1.652343-1.7056699zm52.3605156 8.6445608l-2.305283.5747458-1.7186459-1.6839299.599003 2.330356-1.6503859 1.7090607 2.3033255-.5781363 1.7186454 1.683929-.5990026-2.3303551 1.6523435-1.7056702zm1.6463783 65.3632394l-2.3037637.5743663-1.7175134-1.6828205.5986086 2.3288205-1.652643 1.7098662 2.3071085-.5762987 1.717514 1.6828214-.5986092-2.3288214 1.6492982-1.7079338zm10.9375492-47.4742143l-2.3052829.5747458-1.718646-1.6839299.599003 2.330356-1.6503858 1.7090607 2.3033249-.5781371 1.718646 1.6839298-.599003-2.330356 1.6523438-1.7056693zm-41.550234-44.618279l-2.3033253.5781363-1.7186459-1.6839298.599003 2.330356-1.6523434 1.7056701 2.3052829-.5747457 1.7186455 1.6839289-.5990026-2.330355 1.6503859-1.7090607z"/>
        <path fill="#FFCA54" d="M174.915681 99H129.08373c-.78747 0-1.512479-.4394779-1.862439-1.1335769-.354153-.6982312-.279158-1.5278736.195822-2.1522294l4.249874-5.5858707c.216653-.2833995.333321-.6284144.333321-.9857419V72.7135497c0-7.0439275 3.812343-13.5501394 9.99964-17.0735752 6.187298-3.519966 13.81177-3.519966 19.999281 0 6.187297 3.5240667 9.99964 10.0299631 9.99964 17.0735752v16.4290314c0 .3573275.116668.7023424.333321.9857419l4.249874 5.5858707c.47498.620192.549975 1.4539562.199993 2.1522294C176.427904 98.5605536 175.707109 99 174.915457 99h.000224zm-18.079763-22.5506121l4.121783-3.3764902c.582759-.4792386.281165-1.419013-.482229-1.4588164l-5.30765-.3200252c-.322022-.0202933-.603188-.2201173-.724147-.5198412l-1.95093-4.9548366c-.281166-.6993558-1.266855-.6993558-1.548021 0l-1.950146 4.9352546c-.120952.2997239-.402126.4995399-.724147.5198412l-5.328159.3200253c-.763414.0398073-1.065008.9787785-.482228 1.4580371l4.121783 3.357108c.241114.199816.362073.5393433.281165.8390672l-1.346958 5.1350706c-.180643.7196572.603188 1.2988038 1.246427.8991718l4.483897-2.8575681c.281166-.1795227.623616-.1795227.884353 0l4.5034 2.8575681c.64324.399632 1.427866-.1795226 1.246427-.8991718l-1.346958-5.1156884c-.059692-.2989447.04084-.6189699.302378-.8187859l-.00004.0000799z"/>
        <path fill="#FFCA54" fill-rule="nonzero" d="M174.146746 88.7513786V73.3805558c-.008088-4.4559613-1.370912-8.804566-3.918724-12.4889843-2.547709-3.6848253-6.159059-6.5349147-10.369316-8.1805747l4.399919-8.3157118c.380143-.72742.137495-1.6218482-.562123-2.0669457l-1.617617-1.021567c-2.49108-1.5502032-5.621234-1.7330656-8.282202-.4849507-1.451766.6797251-3.138126.6797251-4.585958 0-2.665006-1.2481861-5.79516-1.0653237-8.286239.4889254l-1.617618 1.021567c-.699618.4412245-.942266 1.3355917-.562123 2.062971l4.395882 8.3157118c-4.209843 1.64566-7.821194 4.4957494-10.369317 8.1805747-2.547708 3.6848253-3.910544 8.03343-3.918723 12.4889843v15.3708228l-3.801427 4.980635c-1.192948 1.5661856-1.387062 3.6610135-.497419 5.4099597C125.443436 100.89499 127.267301 102 129.256996 102h44.48474c1.993733 0 3.813539-1.10501 4.703255-2.854058.889695-1.7530167.699618-3.8477428-.497419-5.4139284l-3.800826-4.980635zm-31.851277-44.5362085l.372058-.2345259c1.544837-.9619459 3.485978-1.0772296 5.135896-.3021046 2.337445 1.0970728 5.055042 1.0970728 7.392486 0 1.650022-.775125 3.591163-.6598514 5.135897.3021046l.376095.2345259-3.979391 7.5246308h-.004044c-3.433386-.8267986-7.01637-.8267986-10.450068 0l-3.978929-7.5246308zm31.446484 54.6043263h-44.484739c-.764323 0-1.46802-.4253256-1.807694-1.0970727-.343743-.6757464-.270952-1.4786722.190066-2.0829221l4.12495-5.4059911c.210286-.2742733.323524-.6081778.323524-.9539984V73.3795382c0-6.8170947 3.70028-13.1137897 9.705705-16.5237617 6.005424-3.4066139 13.405778-3.4066139 19.411409 0 6.005425 3.4105826 9.705705 9.7069723 9.705705 16.5237617v15.8999739c0 .3458206.113239.6797251.323524.9539984l4.12495 5.4059911c.461019.6002202.533809 1.407135.194114 2.0829221-.343742.6717777-1.04335 1.0970727-1.811731 1.0970727h.000217z"/>
    </g>
</svg>