<svg xmlns="http://www.w3.org/2000/svg"  viewBox="0 0 300 300">
    <g fill="none" fill-rule="evenodd">
        <g fill="#EFA90F" fill-rule="nonzero">
            <path d="M80.8976536 117.1010166l1.4591532-5.1919771 5.1799957-1.471046-5.1799957-1.471046-1.4591532-5.1919771-1.4657751 5.1919771-5.1799956 1.471046 5.1799956 1.471046zM93.5824892 161.9249901l1.8526092-6.6060779 6.5943436-1.8741333-6.5943436-1.8741332-1.8526092-6.606078-1.8667831 6.606078-6.5943436 1.8741332 6.5943436 1.8741333zM141.8873842 147.3874852l1.0586503-3.776816 3.769046-1.069019-3.769046-1.069019-1.0586503-3.776816-1.0650175 3.776816-3.7690459 1.069019 3.7690459 1.069019zM109.8763108 142.5416502l-1.4591532-5.1919771-5.1799957-1.471046 5.1799957-1.471046 1.4591532-5.1919771 1.4657751 5.1919771 5.1799956 1.471046-5.1799956 1.471046zM68.2061961 89.237465l-1.8526091-6.606078-6.594344-1.874133 6.594344-1.874133 1.8526091-6.606078 1.8667831 6.606078 6.5943436 1.874133-6.5943436 1.874133zM64.5869397 104.9864291l-1.0586504-3.7768159-3.7690463-1.069019 3.7690463-1.0690191 1.0586504-3.7768159 1.0650175 3.7768159 3.7690459 1.0690191-3.7690459 1.069019zM33.796575 174.0395776l1.459153-5.1919771 5.179996-1.471046-5.179996-1.471046-1.459153-5.1919771-1.465775 5.1919771-5.179995 1.471046 5.179995 1.471046zM115.3214485 121.9468516l1.8526091-6.606078 6.5943436-1.8741333-6.5943436-1.8741332-1.8526091-6.606078-1.8667831 6.606078-6.5943436 1.8741332 6.5943436 1.8741333zM22.323108 191l1.058651-3.776816 3.769046-1.069019-3.769046-1.069019-1.058651-3.776816-1.065017 3.776816-3.769046 1.069019 3.769046 1.069019zM55.528913 169.1937426l-1.459154-5.1919771-5.179995-1.471046 5.179995-1.471046 1.459154-5.1919771 1.465775 5.1919771 5.1799953 1.471046-5.1799953 1.471046zM22.316741 157.0791552l-1.05865-3.776816-3.769046-1.069019 3.769046-1.069019 1.05865-3.776816 1.065018 3.776816 3.769046 1.069019-3.769046 1.069019zM45.269787 137.6958152l1.058651-3.7768159 3.769046-1.069019-3.769046-1.0690191-1.058651-3.7768159-1.065017 3.7768159-3.769046 1.0690191 3.769046 1.069019zM74.2550665 167.9822839l1.0586503-3.776816 3.769046-1.069019-3.769046-1.069019-1.0586503-3.776816-1.0650175 3.776816-3.7690459 1.069019 3.7690459 1.069019zM60.9740503 154.6562377l1.8526092-6.606078 6.5943436-1.8741332-6.5943436-1.8741333-1.8526092-6.606078-1.8667833 6.606078-6.594343 1.8741333 6.594343 1.8741332zM52.505837 121.9468516l-1.852609-6.606078-6.594344-1.8741333 6.594344-1.8741332 1.852609-6.606078 1.866783 6.606078 6.5943434 1.8741332-6.5943434 1.8741333zM91.1670493 135.2728977l1.8526092-6.6060779 6.5943436-1.8741333-6.5943436-1.8741332-1.8526092-6.606078-1.8667831 6.606078-6.5943436 1.8741332 6.5943436 1.8741333zM85.1245461 97.7176767l1.0586504-3.776816 3.7690459-1.069019-3.7690459-1.069019-1.0586504-3.7768157-1.0650175 3.7768157-3.7690459 1.069019 3.7690459 1.069019zM107.4608709 95.2947592l-1.4591533-5.1919772-5.1799956-1.471046 5.1799956-1.471046 1.4591533-5.191977 1.465775 5.191977 5.1799957 1.471046-5.1799957 1.471046zM65.8010268 129.215604l1.0586503-3.7768159 3.7690459-1.0690191-3.7690459-1.069019-1.0586503-3.7768159-1.0650175 3.7768159-3.7690459 1.069019 3.7690459 1.0690191zM130.4075501 100.1405942l-1.4591532-5.1919772-5.1799957-1.4710459 5.1799957-1.471046 1.4591532-5.1919771 1.4657751 5.1919771 5.1799956 1.471046-5.1799956 1.4710459zM147.9196168 94.0833004l-1.0586503-3.7768164-3.7690459-1.069019 3.7690459-1.069019 1.0586503-3.776816 1.0650175 3.776816 3.769046 1.069019-3.769046 1.069019zM128.6024647 135.2728977l1.0586503-3.7768159 3.7690459-1.069019-3.7690459-1.069019-1.0586503-3.776816-1.0650175 3.776816-3.769046 1.069019 3.769046 1.069019zM28.959074 131.6385215l-1.459154-5.1919771-5.179995-1.471046 5.179995-1.471046 1.459154-5.1919771 1.465775 5.1919771 5.179995 1.471046-5.179995 1.471046zM54.931547 78.334337l1.05865-3.776816 3.769046-1.069019-3.769046-1.069019-1.05865-3.776816-1.065017 3.776816-3.769046 1.069019 3.769046 1.069019zM35.608028 112.2551816l1.05865-3.776816 3.769046-1.069019-3.769046-1.069019-1.05865-3.776816-1.065018 3.776816-3.769046 1.069019 3.769046 1.069019zM80.2872991 142.5416502l-1.0586503-3.7768159-3.7690459-1.0690191 3.7690459-1.069019 1.0586503-3.7768159 1.0650175 3.7768159 3.7690459 1.069019-3.7690459 1.0690191zM109.2789453 169.1937426l1.0586503-3.776816 3.769046-1.069019-3.769046-1.069019-1.0586503-3.776816-1.0650175 3.776816-3.7690459 1.069019 3.7690459 1.069019zM97.2017457 112.2551816l1.0586504-3.776816 3.7690459-1.069019-3.7690459-1.069019-1.0586504-3.776816-1.0650175 3.776816-3.7690459 1.069019 3.7690459 1.069019zM42.854348 157.0791552l1.05865-3.776816 3.769046-1.069019-3.769046-1.069019-1.05865-3.776816-1.065018 3.776816-3.769046 1.069019 3.769046 1.069019zM83.9168262 71.065584l1.0586503-3.776816 3.7690459-1.069019-3.7690459-1.069019-1.0586503-3.776816-1.0650175 3.776816-3.7690459 1.069019 3.7690459 1.069019zM135.8424172 75.911419l-1.0586503-3.776816-3.7690459-1.069019 3.7690459-1.069019 1.0586503-3.776816 1.0650175 3.776816 3.769046 1.069019-3.769046 1.069019zM12.661349 123.1583103l1.05865-3.776816 3.769046-1.069019-3.769046-1.069019-1.05865-3.776816-1.065018 3.776816-3.769046 1.069019 3.769046 1.069019zM67.0087468 184.9427063l1.0586503-3.776816 3.7690459-1.069019-3.7690459-1.069019-1.0586503-3.776816-1.0650176 3.776816-3.7690459 1.069019 3.7690459 1.069019zM155.1691202 135.2728977l1.0643161-3.774327L160 130.4302562l-3.7665637-1.0683145-1.0643161-3.7807139-1.0643161 3.7807139-3.7665638 1.0683145 3.7665638 1.0683145zM99.6171856 188.5770825l1.0586504-3.776816 3.7690459-1.069019-3.7690459-1.069019-1.0586504-3.7768159-1.0650175 3.7768159-3.7690459 1.069019 3.7690459 1.069019zM9.031822 167.9822839l-1.058651-3.776816-3.769046-1.069019 3.769046-1.069019 1.058651-3.776816 1.065017 3.776816 3.769046 1.069019-3.769046 1.069019z"/>
        </g>
        <path fill="#000" fill-rule="nonzero" d="M174.93629 104.772898h110.585055c8.478217.00766 15.351411 6.874575 15.35909 15.345035v82.864171c-.007667 8.470459-6.880873 15.337363-15.35909 15.345035H246.44782l4.607825 18.414042h9.891156v6.138014h-55.174487v-6.138014h38.955288l-4.607826-18.414042h-55.888943v-6.138014h101.290905c5.091452 0 9.215454-4.120228 9.215454-9.207021v-6.138014h-95.227341v-6.138014h95.227341v-70.588143c0-5.086793-4.124002-9.207021-9.215454-9.207021H174.93629c-5.091453 0-9.215454 4.120228-9.215454 9.207021v42.966098H159.5772v-42.966098c.007667-8.47046 6.880872-15.337363 15.35909-15.345035zm-3.281891 12.114587h6.0386v6.057294h-6.0386v-6.057294zm12.0772 0h6.0386v6.057294h-6.0386v-6.057294zm12.077199 0h6.0386v6.057294h-6.0386v-6.057294z"/>
        <path fill="#5158AF" fill-rule="nonzero" d="M225.059502 133.848012l53.72934-.000104V190.5875h-64.864244v-50.005652c0-4.092677 4.370011-6.733836 11.134904-6.733836zm-1.868584 19.383236v3.634376h23.165802v-3.634376h-23.165802zm1.15829 12.114587v3.634376h44.015023v-3.634376h-44.015023zm0 13.326046v3.634376h44.015023v-3.634376h-44.015023z"/>
        <path fill="#EFA90F" fill-rule="nonzero" stroke="#000" stroke-width="4" d="M142.682012 179.384262c-.116494-.254074-.31065-.396346-.446565-.640258-.213571-.345534-.436849-.691069-.728089-.995965-.281523-.294723-.611583-.508142-.93195-.741907-.21357-.152445-.378595-.355707-.631017-.47765-.087369-.030489-.174739-.020324-.262114-.060979-.378595-.17277-.766907-.223584-1.174654-.304895-.339776-.060977-.650426-.162608-.990202-.162608-.349469 0-.689245.101631-1.058148.17277-.378596.060979-.757216.132118-1.116401.294723-.09708.030489-.194157.010165-.281524.060979-.252397.121956-.417439.335388-.640709.487823-.330059.223586-.650426.437011-.922232.721561-.291241.304896-.504794.65043-.728089 1.006138-.135911.223586-.339777.386199-.446566.630111l-20.774772 46.068678c-1.349388 2.97767-.126201 6.555036 2.737695 7.977918.786342.386199 1.621195.579299 2.446356.579299 2.145422 0 4.203465-1.280541 5.174184-3.435053l6.776143-15.020777h17.639197l6.776144 15.020777C154.069467 232.719485 156.117718 234 158.282575 234c.815469 0 1.650321-.182935 2.436663-.579299 2.854003-1.42283 4.077218-5.000248 2.737695-7.977918l-20.774921-46.058521zm-9.197164 22.979374l3.212122-7.030303 3.212121 7.030303h-6.424243z"/>
        <path fill="#EFA90F" fill-rule="nonzero" stroke="#000" stroke-width="3" d="M175.962213 180.11752c0-2.827548-2.002594-5.11752-4.458441-5.11752-2.455847 0-4.45844 2.298632-4.45844 5.11752v5.26496h-4.586891c-2.463392 0-4.458441 2.27243-4.458441 5.10886s2.002594 5.12618 4.458441 5.12618h4.586891v5.2563c0 2.827548 2.002593 5.12618 4.45844 5.12618 2.463392 0 4.458441-2.298632 4.458441-5.12618v-5.2563h4.586891c2.455847 0 4.450896-2.28109 4.450896-5.12618 0-2.827548-1.987311-5.10886-4.450896-5.10886h-4.586891v-5.26496z"/>
    </g>
</svg>