<svg xmlns="http://www.w3.org/2000/svg" viewBox="0 0 300 300" >
    <g fill="none" fill-rule="evenodd">
        <path fill="#5158AF" d="M225 240l36.642857 5.375L263 283l-38-6.71875z"/>
        <path fill="#5158AF" d="M299 240l-36.642857 5.375L261 283l38-6.71875z"/>
        <path fill="#000" fill-rule="nonzero" d="M261.266579 242.557574c2.456584.263514 2.235057 3.442426-.239891 3.442426-1.792301 0-3.567384-.201354-5.489224-.584997-2.4369-.486461-1.802469-3.665332.678406-3.399212l5.050709.541783zm-.479782 3.429608l.239891-1.714804v-1.727623c-1.472136 0-2.960246-.168801-4.612194-.498568l-.438515 1.684408-.239891 1.714804 5.050709.541783z"/>
        <path stroke="#000" stroke-linejoin="round" stroke-width="3.125" d="M259.5 214c-8.556 0-15.5 6.944-15.5 15.5 0 1.891.3875 3.68125 1.0075 5.35525L259.5 245l14.4925-10.14475c.62-1.674 1.0075-3.46425 1.0075-5.35525 0-8.556-6.944-15.5-15.5-15.5z"/>
        <path stroke="#000" stroke-linejoin="round" stroke-width="3.125" d="M299 276.571429L260 283v-38.571429L299 238z"/>
        <path stroke="#000" stroke-linejoin="round" stroke-width="3.125" d="M262 283l-39-6.428571V238l39 6.428571z"/>
        <path stroke="#000" stroke-linejoin="round" stroke-width="3.125" d="M291 223l-31 23 31-5.478929z"/>
        <path stroke="#000" stroke-linejoin="round" stroke-width="3.125" d="M299 276.571429L260 283v-38.571429L299 238z"/>
        <path stroke="#000" stroke-linejoin="round" stroke-width="3.125" d="M299 276.571429L260 283v-38.571429L299 238z"/>
        <path stroke="#000" stroke-linejoin="round" stroke-width="3.125" d="M299 276.571429L260 283v-38.571429L299 238z"/>
        <path stroke="#000" stroke-linejoin="round" stroke-width="3.125" d="M261 246l-31-23v17.521071z"/>
        <path fill="#EFA90F" fill-rule="nonzero" d="M80.9970093 92l1.3240051 5.0649459L87 98.5l-4.6789856 1.4350541L80.9970093 105l-1.3180237-5.0649459L75 98.5l4.6789856-1.4350541L80.9970093 92zM68.9932936 50l1.7665241 6.2319938L77 58l-6.2401823 1.7680062L68.9932936 66l-1.7531113-6.2319938L61 58l6.2401823-1.7680062L68.9932936 50zM23.4970345 64l.9920716 3.5072742L28 68.5l-3.5108939.9927258L23.4970345 73l-.9861406-3.5072742L19 68.5l3.5108939-.9927258L23.4970345 64zm30.5059562 4l1.3180237 5.0649459L60 74.5l-4.6789856 1.4350541L54.0029907 81l-1.3240051-5.0649459L48 74.5l4.6789856-1.4350541L54.0029907 68zm39.0037157 51l1.7531113 6.231994L101 127l-6.2401823 1.768006L93.0067064 135l-1.7665241-6.231994L85 127l6.2401823-1.768006L93.0067064 119zm3.4962591-15l.9861406 3.5072742L101 108.5l-3.5108939.9927258L96.5029655 113l-.9920716-3.5072742L92 108.5l3.5108939-.9927258L96.5029655 104zm28.4940435-65l1.324005 5.0649459L131 45.5l-4.678986 1.4350541L124.997009 52l-1.318023-5.0649459L119 45.5l4.678986-1.4350541L124.997009 39zM48.9932936 88l1.7665241 6.2319938L57 96l-6.2401823 1.7680062L48.9932936 104l-1.7531113-6.2319938L41 96l6.2401823-1.7680062L48.9932936 88zm86.5037404-65l.992072 3.5072742L140 27.5l-3.510894.9927258L135.497034 32l-.98614-3.5072742L131 27.5l3.510894-.9927258L135.497034 23zm-30.4940433 20l1.3180237 5.0649459L111 49.5l-4.6789856 1.4350541L105.0029907 56l-1.3240051-5.0649459L99 49.5l4.6789856-1.4350541L105.0029907 43zm30.4999753 12l.98614 3.5072742L140 59.5l-3.510894.9927258L135.502966 64l-.992072-3.5072742L131 59.5l3.510894-.9927258L135.502966 55zm-21.005932 18l.992072 3.5072742L119 77.5l-3.510894.9927258L114.497034 82l-.98614-3.5072742L110 77.5l3.510894-.9927258L114.497034 73zM87.4970345 45l.9920716 3.5072742L92 49.5l-3.5108939.9927258L87.4970345 54l-.9861406-3.5072742L83 49.5l3.5108939-.9927258L87.4970345 45zm12.4962591 12l1.7665241 6.2319938L108 65l-6.2401823 1.7680062L99.9932936 73l-1.7531113-6.2319938L92 65l6.2401823-1.7680062L99.9932936 57zm8.0134124 31l1.753112 6.2319938L116 96l-6.240182 1.7680062L108.006706 104l-1.7665237-6.2319938L100 96l6.2401823-1.7680062L108.006706 88zM71.9932936 75l1.7665241 6.2319938L80 83l-6.2401823 1.7680062L71.9932936 91l-1.7531113-6.2319938L64 83l6.2401823-1.7680062L71.9932936 75zm5.5037409 36l.9920716 3.5072742L82 115.5l-3.5108939.9927258L77.4970345 120l-.9861406-3.5072742L73 115.5l3.5108939-.9927258L77.4970345 111zm-21.4940438 2l1.3180237 5.0649459L62 119.5l-4.6789856 1.4350541L56.0029907 126l-1.3240051-5.0649459L50 119.5l4.6789856-1.4350541L56.0029907 113zm39.4940438-32l.9920716 3.5072742L100 85.5l-3.5108939.9927258L95.4970345 90l-.9861406-3.5072742L91 85.5l3.5108939-.9927258L95.4970345 81zm-61.4940438 27l1.3180237 5.0649459L40 114.5l-4.6789856 1.4350541L34.0029907 121l-1.3240051-5.0649459L28 114.5l4.6789856-1.4350541L34.0029907 108zm-15.5000252 6l.9861406 3.5072742L23 118.5l-3.5108939.9927258L18.5029655 123l-.9920716-3.5072742L14 118.5l3.5108939-.9927258L18.5029655 114zm17.994069-39l.9920716 3.5072742L41 79.5l-3.5108939.9927258L36.4970345 84l-.9861406-3.5072742L32 79.5l3.5108939-.9927258L36.4970345 75zm92.5059565 4l1.318023 5.0649459L135 85.5l-4.678986 1.4350541L129.002991 92l-1.324005-5.0649459L123 85.5l4.678986-1.4350541L129.002991 79zm-23.5059565 50l.9920716 3.507274L110 133.5l-3.5108939.992726L105.4970345 138l-.9861406-3.507274L101 133.5l3.5108939-.992726L105.4970345 129zm17.9999995-32l.992072 3.5072742L128 101.5l-3.510894.9927258L123.497034 106l-.98614-3.5072742L119 101.5l3.510894-.9927258L123.497034 97zM81.5029655 68l.9861406 3.5072742L86 72.5l-3.5108939.9927258L81.5029655 77l-.9920716-3.5072742L77 72.5l3.5108939-.9927258L81.5029655 68zm-27.005931-25l.9920716 3.5072742L59 47.5l-3.5108939.9927258L54.4970345 52l-.9861406-3.5072742L50 47.5l3.5108939-.9927258L54.4970345 43zm11 54l.9920716 3.5072742L70 101.5l-3.5108939.9927258L65.4970345 106l-.9861406-3.5072742L61 101.5l3.5108939-.9927258L65.4970345 97zm50.9999995-42l.992072 3.5072742L121 59.5l-3.510894.9927258L116.497034 64l-.98614-3.5072742L112 59.5l3.510894-.9927258L116.497034 55zm-37.9999995 81l.9920716 3.507274L83 140.5l-3.5108939.992726L78.4970345 145l-.9861406-3.507274L74 140.5l3.5108939-.992726L78.4970345 136zm-48.994069-5l.9861406 3.507274L34 135.5l-3.5108939.992726L29.5029655 140l-.9920716-3.507274L25 135.5l3.5108939-.992726L29.5029655 131zM144.497034 87l.992072 3.5072742L149 91.5l-3.510894.9927258L144.497034 96l-.98614-3.5072742L140 91.5l3.510894-.9927258L144.497034 87zM94.4970345 29l.9920716 3.5072742L99 33.5l-3.5108939.9927258L94.4970345 38l-.9861406-3.5072742L90 33.5l3.5108939-.9927258L94.4970345 29zM11.5 75l.9914183 3.5049628L16 79.4970345l-3.5085817.9920716L11.5 84l-.9914183-3.5108939L7 79.4970345l3.5085817-.9920717L11.5 75zm51.9970345-50l.9920716 3.5072742L68 29.5l-3.5108939.9927258L63.4970345 34l-.9861406-3.5072742L59 29.5l3.5108939-.9927258L63.4970345 25zm85.0059315 20l.98614 3.5072742L153 49.5l-3.510894.9927258L148.502966 54l-.992072-3.5072742L144 49.5l3.510894-.9927258L148.502966 45z"/>
        <path fill="#000" fill-rule="nonzero" d="M262 174h-5v-7h5v7zm0 29h-5v-7h5v7zm0-43h-5v-7h5v7zm0 29h-5v-7h5v7zm0-43h-5v-7h5v7zm0-14h-5v-7h5v7zm0-13h-5v-7h5v7zm-15-7v5h-7v-5h7zm-13 0v5h-7v-5h7zm-16 0v5h-7v-5h7zM59 169h5v7h-5v-7zm0-14h5v7h-5v-7zm0-14h5v7h-5v-7zm0-14h5v7h-5v-7zm0-13h5v7h-5v-7zm15 3v-5h7v5h-7zm13 0v-5h7v5h-7zm16 0v-5h7v5h-7z"/>
        <path fill="#5158AF" d="M55.640625 238H28c-2.209139 0-4-1.790861-4-4v-42c0-2.209139 1.790861-4 4-4h2.2005916c-.2193566.494978-.3412166 1.042782-.3412166 1.619048v37.238095c0 2.209139 1.790861 4 4 4h21.78125V238zm10.546875 0v-7.142857h21.78125c2.209139 0 4-1.790861 4-4v-37.238095c0-.576266-.12186-1.12407-.3412166-1.619048H95c2.209139 0 4 1.790861 4 4v42c0 2.209139-1.790861 4-4 4H66.1875z"/>
        <path fill="#000" fill-rule="nonzero" d="M69.7290979 226.549911c.4211028 0 .8421728-.161131 1.1636863-.4834.6429036-.64453.6429036-1.688689 0-2.333177l-8.2291661-8.249984c-.6429036-.64453-1.684428-.64453-2.3272905 0l-8.2291661 8.249984c-.6429037.644529-.6429037 1.688689 0 2.333177.6429036.644489 1.684428.64453 2.3272904 0l5.4196466-5.433356v25.716848c0 .912036.7361236 1.649997 1.6458332 1.649997s1.6458332-.737986 1.6458332-1.649997v-25.716848l5.4196466 5.433356c.3214477.322269.7425505.4834 1.1636864.4834zM38.4582665 196.84997h16.4583323c.9097343 0 1.6458332-.737985 1.6458332-1.649996s-.7361236-1.649997-1.6458332-1.649997H38.4582665c-.9097343 0-1.6458333.737986-1.6458333 1.649997 0 .912011.7361236 1.649996 1.6458333 1.649996zm0 8.249984h16.4583323c.9097343 0 1.6458332-.737986 1.6458332-1.649997 0-.912011-.7361236-1.649997-1.6458332-1.649997H38.4582665c-.9097343 0-1.6458333.737986-1.6458333 1.649997 0 .912011.7361236 1.649997 1.6458333 1.649997zm18.1041655 6.599987c0-.912036-.7361236-1.649997-1.6458332-1.649997H38.4582665c-.9097343 0-1.6458333.737986-1.6458333 1.649997 0 .912011.7361236 1.649996 1.6458333 1.649996h16.4583323c.9097343 0 1.6458332-.737985 1.6458332-1.649996zm-18.1041655 6.599986c-.9097343 0-1.6458333.737986-1.6458333 1.649997 0 .912011.7361236 1.649997 1.6458333 1.649997h9.8749994c.9097343 0 1.6458332-.737986 1.6458332-1.649997 0-.912011-.7361236-1.649997-1.6458332-1.649997h-9.8749994zm29.6249981-21.449957h16.4583323c.9097343 0 1.6458333-.737985 1.6458333-1.649996s-.7361236-1.649997-1.6458333-1.649997H68.0832646c-.9097343 0-1.6458332.737986-1.6458332 1.649997 0 .912011.7361236 1.649996 1.6458332 1.649996zm0 8.249984h16.4583323c.9097343 0 1.6458333-.737986 1.6458333-1.649997 0-.912011-.7361236-1.649997-1.6458333-1.649997H68.0832646c-.9097343 0-1.6458332.737986-1.6458332 1.649997 0 .912011.7361236 1.649997 1.6458332 1.649997zm0 8.249983h16.4583323c.9097343 0 1.6458333-.737985 1.6458333-1.649996s-.7361236-1.649997-1.6458333-1.649997H68.0832646c-.9097343 0-1.6458332.737986-1.6458332 1.649997 0 .912011.7361236 1.649996 1.6458332 1.649996zm16.4583323 4.94999h-9.8749994c-.9097343 0-1.6458332.737986-1.6458332 1.649997 0 .912011.7361236 1.649997 1.6458332 1.649997h9.8749994c.9097343 0 1.6458333-.737986 1.6458333-1.649997 0-.912011-.7361236-1.649997-1.6458333-1.649997zm9.8749994-31.349937h-.2346629C93.4458098 184.110841 90.8902669 182 87.8332963 182h-21.395832c-1.9640551 0-3.7287998.866908-4.9374997 2.239706C60.2912647 182.866826 58.52652 182 56.5624649 182h-21.395832c-3.0602623 0-5.6125382 2.110841-6.3486371 4.94999h-.2346629C24.6455123 186.94999 22 189.602195 22 193.549977v39.599921c0 3.638407 2.9541061 6.599987 6.5833329 6.599987h26.3333317c.9097343 0 1.6458332-.737986 1.6458332-1.649997 0-.912011-.7361236-1.649997-1.6458332-1.649997H28.5833329c-1.8161769 0-3.2916664-1.482439-3.2916664-3.299993v-39.599921c0-.992556.3214476-3.299993 3.2916664-3.299993v36.299927c0 3.638408 2.9541061 6.599987 6.5833329 6.599987h19.7499988c.9097343 0 1.6458332-.737986 1.6458332-1.649997 0-.912011-.7361236-1.649997-1.6458332-1.649997H35.1666658c-1.8161769 0-3.2916664-1.482439-3.2916664-3.299993v-37.940024c0-.003223.0032143-.006446.0032143-.009668v-.006445c0-1.817554 1.4754895-3.293559 3.2884571-3.293559h21.395832c1.8161769 0 3.2916664 1.479222 3.2916664 3.299994v19.79996c0 .912036.7361236 1.649997 1.6458333 1.649997.9097096 0 1.6458332-.737986 1.6458332-1.649997v-19.79996c0-1.820772 1.4754895-3.299994 3.2916665-3.299994h21.395832c1.8161769 0 3.2916664 1.479222 3.2916664 3.299994v37.949924c0 1.817554-1.4754895 3.299993-3.2916664 3.299993H68.0833354c-.9097343 0-1.6458332.737986-1.6458332 1.649997 0 .912011.7361236 1.649997 1.6458332 1.649997h19.7499988c3.6292268 0 6.5833329-2.961579 6.5833329-6.599987v-36.299928c2.9702352 0 3.2916664 2.307438 3.2916664 3.299994v39.599921c0 1.817553-1.4754895 3.299993-3.2916664 3.299993H68.0833354c-.9097343 0-1.6458332.737986-1.6458332 1.649997 0 .912011.7361236 1.649996 1.6458332 1.649996h26.3333317c3.6292268 0 6.5833329-2.961579 6.5833329-6.599986v-39.599921c0-3.947782-2.6455123-6.599987-6.5833329-6.599987l-.0000708-.000222z"/>
        <path fill="#FFCA54" d="M191.281367 135.264212h-57.659885c-.990694 0-1.902807-.547094-2.343083-1.41116-.445549-.86921-.3512-1.902011.246359-2.679255l5.346646-6.953706c.272566-.352797.419342-.782297.419342-1.227125v-20.452077c0-8.7688035 4.796201-16.8682187 12.580266-21.2544529 7.784064-4.3819148 17.376198-4.3819148 25.16053 0 7.784064 4.3870196 12.580265 12.4860421 12.580265 21.2544529v20.452077c0 .444828.146777.874328.419343 1.227125l5.346646 6.953706c.597559.772061.691908 1.809992.251605 2.679255-.445549.864105-1.352362 1.41116-2.348316 1.41116h.000282zm-22.745641-28.072674l5.185499-4.203306c.733154-.596592.353727-1.766493-.606678-1.816043l-6.677405-.398391c-.405126-.025263-.758853-.274018-.911028-.647137l-2.454411-6.1681479c-.353727-.8706101-1.593795-.8706101-1.947521 0l-2.453424 6.1437709c-.152166.373119-.505903.621864-.911029.647137l-6.703206.398391c-.96043.049555-1.339857 1.218456-.606678 1.815073l5.185499 4.179177c.303339.248746.455514.671415.353727 1.044533l-1.694571 6.392517c-.227261.895883.758854 1.616847 1.568095 1.119356l5.641064-3.557313c.353727-.223483.784553-.223483 1.11258 0l5.6656 3.557313c.809242.497491 1.796358-.223483 1.568095-1.119356l-1.69457-6.368388c-.075096-.372149.051379-.77054.380413-1.019286l-.000051.0001z"/>
        <path fill="#000" fill-rule="nonzero" d="M191.73489 122.118692v-19.585403c-.01044-5.6777573-1.769722-11.2187214-5.058716-15.9133834-3.28886-4.6951806-7.950785-8.3267461-13.385845-10.4236355l5.679897-10.5958263c.490729-.9268739.177493-2.0665486-.725651-2.6336889l-2.088197-1.3016741c-3.215756-1.9752589-7.256501-2.208261-10.691569-.617921-1.874098.8661014-4.051035.8661014-5.920055 0-3.44028-1.5904307-7.481025-1.3574286-10.696782.6229856l-2.088197 1.3016741c-.903143.5622054-1.21638 1.7018023-.72565 2.6286243l5.674684 10.5958263c-5.434525 2.0968894-10.09645 5.7284549-13.385845 10.4236355-3.28886 4.6951807-5.048158 10.2361447-5.058715 15.9133834v19.585403l-4.907297 6.346293c-1.539987 1.995624-1.790571 4.66484-.642122 6.893336C128.863345 137.592003 131.217789 139 133.786304 139h57.425755c2.573728 0 4.922933-1.407997 6.071475-3.636622 1.148515-2.233683.903143-4.902769-.642123-6.898393l-4.906521-6.346293zm-41.117102-56.7477495l.480292-.2988313c1.994245-1.2257053 4.500081-1.372599 6.629976-.3849398 3.017428 1.3978831 6.525599 1.3978831 9.543027 0 2.130028-.9876592 4.635864-.8407784 6.629976.3849398l.485504.2988313-5.137032 9.5878361h-.00522c-4.43219-1.0535015-9.057497-1.0535015-13.490088 0l-5.136435-9.5878361zm40.594551 69.5764805h-57.425754c-.986671 0-1.895081-.541947-2.333568-1.397883-.443741-.861032-.349775-1.884115.245358-2.654046l5.324936-6.888279c.271459-.349477.417639-.774936.417639-1.215579v-20.259644c0-8.6862979 4.776726-16.709506 12.529183-21.0544703 7.752456-4.3406855 17.305641-4.3406855 25.058365 0 7.752457 4.3457423 12.529182 12.3685614 12.529182 21.0544703v20.259644c0 .440643.146181.866102.41764 1.215579l5.324936 6.888279c.595133.764797.689098 1.792962.250584 2.654046-.443741.855975-1.346871 1.397883-2.338781 1.397883h.00028z"/>
        <path fill="#000" d="M149.809 148.991c.62067.452669.931 1.117662.931 1.995 0 .63467-.144665 1.231997-.434 1.792s-.75133 1.019665-1.386 1.379c-.63467.359335-1.446662.539-2.436.539h-1.092L144.93 158h-2.044l1.358-9.688h2.94c1.129339 0 2.00433.226331 2.625.679zm-1.68 3.57c.322002-.415335.483-.916997.483-1.505 0-.840004-.536661-1.26-1.61-1.26h-.938l-.462 3.388h.882c.774671 0 1.322998-.207665 1.645-.623zm3.065 4.83c-.532003-.555336-.798-1.322995-.798-2.303 0-.74667.135332-1.481663.406-2.205.270668-.723337.711664-1.325331 1.323-1.806s1.392995-.721 2.345-.721c.961338 0 1.707997.275331 2.24.826.532003.550669.798 1.306662.798 2.268 0 .74667-.130665 1.483996-.392 2.212-.261335.728004-.69533 1.336998-1.302 1.827-.60667.490002-1.395328.735-2.366.735-.970672 0-1.721997-.277664-2.254-.833zm3.85-1.729c.289335-.709337.438667-1.479329.448-2.31 0-.522669-.095666-.905332-.287-1.148-.191334-.242668-.478331-.364-.861-.364-.485336 0-.870332.184331-1.155.553-.284668.368669-.482999.811997-.595 1.33-.112001.518003-.168 1.019664-.168 1.505 0 .513336.095666.891332.287 1.134.191334.242668.478331.364.861.364.69067 0 1.180665-.354663 1.47-1.064zm6.124-5.082l-1.036 7.42h-1.96l1.036-7.42h1.96zm-1.498-1.792c-.196001-.196001-.294-.443332-.294-.742 0-.373335.125999-.681332.378-.924.252001-.242668.564665-.364.938-.364.326668 0 .587999.095666.784.287.196001.191334.294.440998.294.749 0 .373335-.125999.681332-.378.924-.252001.242668-.564665.364-.938.364-.326668 0-.587999-.097999-.784-.294zm8.595 2.044c.303335.317335.455.760664.455 1.33 0 .149334-.014.317332-.042.504l-.742 5.334h-1.96l.7-4.97c.018667-.186668.028-.303333.028-.35 0-.252001-.046666-.429333-.14-.532-.093334-.102667-.228666-.154-.406-.154-.569336 0-1.17133.611327-1.806 1.834l-.588 4.172h-1.96l1.036-7.42h1.694l-.056 1.344c.336002-.494669.718665-.879665 1.148-1.155.429335-.275335.891331-.413 1.386-.413.532003 0 .949665.158665 1.253.476zm3.709 4.83c-.018667.186668-.028.303333-.028.35 0 .224001.046666.382666.14.476.093334.093334.233332.14.42.14.242668 0 .541332-.083999.896-.252l.532 1.302c-.289335.177334-.604332.312666-.945.406-.340668.093334-.669665.14-.987.14-.66267 0-1.168998-.174998-1.519-.525-.350002-.350002-.525-.851663-.525-1.505 0-.168001.014-.349999.042-.546l.518-3.654h-1.092l.196-1.414h1.176l.462-1.666 1.666-.196-.252 1.862h1.708l-.406 1.414h-1.498l-.504 3.668zm7.258-5.054c.448002.168001.844665.396665 1.19.686l-.882 1.106c-.261335-.196001-.545998-.345333-.854-.448-.308002-.102667-.611332-.154-.91-.154-.354668 0-.627666.062999-.819.189s-.287.296332-.287.511c0 .140001.044333.259.133.357.088667.098.228666.189.42.273.191334.084.487665.191333.889.322.66267.205334 1.157332.487665 1.484.847.326668.359335.49.823664.49 1.393 0 .485336-.125999.919331-.378 1.302-.252001.382669-.622998.683666-1.113.903-.490002.219334-1.08033.329-1.771.329-.625336 0-1.199331-.109666-1.722-.329-.522669-.219334-.951998-.506332-1.288-.861l1.008-1.05c.60667.522669 1.28333.784 2.03.784.420002 0 .734999-.083999.945-.252s.315-.368666.315-.602c0-.186668-.042-.335999-.126-.448-.084-.112001-.226332-.214666-.427-.308-.200668-.093334-.510998-.209999-.931-.35-.66267-.224001-1.147998-.501665-1.456-.833-.308002-.331335-.462-.762997-.462-1.295 0-.410669.116666-.793332.35-1.148.233335-.354668.580998-.639332 1.043-.854.462002-.214668 1.019663-.322 1.673-.322.522669 0 1.007998.083999 1.456.252z"/>
    </g>
</svg>