
<svg viewBox="0 0 300 300" xmlns="http://www.w3.org/2000/svg" xmlns:xlink="http://www.w3.org/1999/xlink">
  <defs>
    <linearGradient id="f" x1="2.899%" x2="84.357%" y1="-3.7679%" y2="87.667%">
      <stop stop-color="#727BCE" offset="0"/>
      <stop stop-color="#656EC3" offset=".42643"/>
      <stop stop-color="#555DB4" offset=".62471"/>
      <stop stop-color="#3E45A0" offset="1"/>
    </linearGradient>
    <rect id="d" x="320" y="50" width="1280" height="944" rx="12"/>
    <filter id="e" x="-3%" y="-2.6%" width="105.9%" height="108.1%">
      <feOffset dy="13" in="SourceAlpha" result="shadowOffsetOuter1"/>
      <feGaussianBlur in="shadowOffsetOuter1" rM-538-294h1934V903H-538zesult="shadowBlurOuter1" stdDeviation="10.5"/>
      <feColorMatrix in="shadowBlurOuter1" values="0 0 0 0 0 0 0 0 0 0 0 0 0 0 0 0 0 0 0.513134058 0"/>
    </filter>
  </defs>
  <g fill="none" fill-rule="evenodd">
    <path transform="translate(-1329 -294)" d="M798 13h1920v1197H798z" fill="url(#f)"/>

    <g transform="translate(-531 -281)">

      <use fill="#FFF" xlink:href="#d"/>
    </g>
    <path d="M0 0h300v300H0z"/>
    <g transform="translate(16 92)">
      <path d="m166.02 134.49l-3.6599-4.5196-28.206 22.841c-2.8206 2.2841-4.964 5.4574-3.3944 7.3957l31.671 39.111c2.611 3.2243 5.0022 5.2704 8.179 4.7647 2.7274-0.4369 5.886-2.6682 11.122-6.9079l25.097-20.323-36.878-45.545-3.9306 3.1831zm-4.6025 41.113c-0.080334 0.1311-0.25221 0.17315-0.38522 0.090472l-0.90355-0.55442c-0.13301-0.082682-0.17315-0.25221-0.090472-0.38522 0.028491-0.046384 0.070282-0.076341 0.11353-0.099705l1.3007 0.80011c7.908e-4 0.053756-0.0064658 0.10237-0.034959 0.14875l1.12e-5 1.38e-5zm0.11794-0.46851l-1.1312-0.69642 0.96078-1.5629 1.1312 0.69642-0.96078 1.5629zm-0.4562-2.8088l1.4582-2.3736 2.0366 1.2532-1.4582 2.3736-2.0366-1.2532zm7.2629-5.9047l-2.3877 3.8839c-0.25084 0.40516-0.63604 0.65881-1.0373 0.73898l-2.3897-1.4685c-0.11081-0.39594-0.060262-0.85651 0.19059-1.2617l2.3877-3.8839 3.2364 1.9912zm-3.1251-2.2951c-0.002065-0.34801 0.087285-0.70789 0.29185-1.0406l2.3751-3.866 3.8499 2.3648-2.3774 3.8679c-0.20223 0.33084-0.48326 0.57395-0.79592 0.73l-3.3434-2.056zm19.399 8.765l-10.092-1.1252c-0.020204 0.17178-0.074376 0.33998-0.15694 0.49232l4.3687 5.3949-0.78144 0.63279-4.3687-5.3949c-0.16852 0.050989-0.34621 0.066663-0.52079 0.052612l-0.9982 10.11-1.0653 0.8627 1.1243-11.471c-0.0057009-0.00704-0.011848-0.0098327-0.015648-0.014526-0.36865-0.45524-0.40762-1.0647-0.14731-1.5398l0.039892-0.032304-3.4466-4.261 0.67114-0.54348 3.4724 4.2401 0.046932-0.038005c0.51876-0.15587 1.1069 0.0089771 1.4755 0.46424 0.0057009 0.00704 0.0090553 0.01598 0.016656 0.025367l11.445 1.2843-1.0674 0.86065zm-12.333-11.344l-4.6181-2.8384 2.432-3.9588 4.6181 2.8384-2.432 3.9588zm3.8018-4.6134c-0.27698 0.44964-0.86706 0.58946-1.3148 0.31479l-4.3923-2.6987c-0.44964-0.27698-0.5918-0.86516-0.31479-1.3148 0.27698-0.44964 0.86706-0.58946 1.3148-0.31479l4.3923 2.6987c0.45199 0.27508 0.5918 0.86516 0.31479 1.3148zm-0.1587-1.5539l-4.4004-2.7038c0.087816-0.14105 1.1442 0.3478 2.3583 1.0937 1.2159 0.74826 2.1299 1.469 2.0421 1.6101l5.46e-5 5.52e-5zm-11.85-19.311l-26.261 21.266c-1.9289 1.562-3.4216 2.017-3.9289 2.0431l-0.69171-0.85419c0.13336-0.49265 0.88828-1.8538 2.8172-3.4159l26.261-21.266 1.8033 2.2269z" fill="#000" fill-rule="nonzero"/>
      <circle cx="32.5" cy="134.5" r="32.5" fill="#DFE0EF"/>
      <circle cx="151.5" cy="32.5" r="32.5" fill="#FFCA54"/>
      <circle cx="65.5" cy="52.5" r="32.5" fill="#DFE0EF"/>
      <circle cx="234.5" cy="65.5" r="32.5" fill="#DFE0EF"/>
      <path d="m249 56.241v-4.2412h-19.573c-7.2803 0-8.7522 2.7374-10.424 8.4428h0.95431c1.9495-3.2004 3.0236-4.1634 7.3201-4.2016 0.71607 0 1.2334 0.53955 1.1544 1.1952-0.51732 6.2452-1.3532 11.104-5.2915 16.308-4.536 5.9761 2.2285 7.8652 4.536 4.8191 2.3864-3.2387 3.2223-16.924 3.4617-21.282 0.03949-0.57782 0.55678-1.0409 1.1544-1.0409h4.257c0.71607 0 1.2334 0.53955 1.1544 1.1952-0.47783 5.4363-0.99512 10.833-1.3532 16.23-0.27905 7.5948 11.219 9.9087 12.651-1.8509h-0.95431c-0.79506 2.7756-3.3026 5.4748-6.047 2.6213-1.8297-2.0052-0.43702-14.149-0.19876-17.195 0.03949-0.57782 0.55678-1.0026 1.1544-1.0026h6.047l-0.0026149 0.0013389zm-185.43-20.383c-4.2746 0-8.2143 1.4156-11.354 3.7815-0.41295-0.33308-0.9319-0.53579-1.5029-0.53579-1.3039 0-2.3809 1.0481-2.3809 2.317 0 0.55211 0.21391 1.0481 0.55057 1.4482-2.4349 3.0574-3.8839 6.9025-3.8839 11.068 0 4.6448 1.8006 8.8826 4.7619 12.081-0.28832 0.38376-0.47619 0.85624-0.47619 1.3613 0 1.269 1.077 2.317 2.3809 2.317 0.64362 0 1.2351-0.26791 1.6667-0.68066 2.9353 1.888 6.4581 2.985 10.238 2.985 10.251 0 18.571-8.086 18.571-18.066 0-4.2992-1.5439-8.2529-4.122-11.357 0.50038-0.73311 0.78866-1.6075 0.78866-2.5506 0-2.5488-2.1429-4.636-4.7619-4.636-1.4844 0-2.8162 0.66434-3.6905 1.7088-0.66219-0.25343-1.343-0.47245-2.0387-0.65165 0.027902-1.3522-0.98028-2.4745-2.3661-2.4474-1.3858 0.039824-2.1019 1.0227-2.3809 1.8536l9.52e-5 0.0035683zm2.3809 2.7805c0.92819 0 1.7225-0.53946 2.1131-1.3033 0.59895 0.15387 1.1849 0.33851 1.7559 0.5503-0.34226 0.639-0.53571 1.3776-0.53571 2.1433 0 2.5488 2.1429 4.636 4.7619 4.636 1.3095 0 2.5-0.52134 3.3631-1.3613 2.3679 2.9235 3.7798 6.6198 3.7798 10.633 0 9.4781-7.8833 17.152-17.619 17.152-3.5882 0-6.9195-1.0481-9.7024-2.8402 0.11347-0.26972 0.17857-0.56295 0.17857-0.86889 0-1.269-1.077-2.317-2.3809-2.317-0.44085 0-0.84819 0.1249-1.2053 0.33308-2.805-3.0375-4.5089-7.0489-4.5089-11.459 0-3.948 1.3616-7.5883 3.6607-10.488 0.33296 0.17197 0.70128 0.28963 1.1012 0.28963 1.3039 0 2.3809-1.0481 2.3809-2.317 0-0.38738-0.12091-0.74943-0.29762-1.0716 2.978-2.2447 6.7152-3.5788 10.774-3.5788 0.13393 1.148 1.4099 1.8431 2.3809 1.8684z" fill="#000" fill-rule="nonzero"/>
      <path d="m79.286 67.849c0 1.269 1.077 2.317 2.3809 2.317s2.3809-1.0481 2.3809-2.317-1.077-2.317-2.3809-2.317c-1.4881 0.061546-2.3512 1.3377-2.3809 2.317z" stroke="#000"/>
      <path d="m80.102 42.785c0 1.269 1.077 2.317 2.3809 2.317 1.3039 0 2.3809-1.0481 2.3809-2.317s-1.077-2.317-2.3809-2.317c-1.5476 0.032584-2.3512 1.3377-2.3809 2.317zm-16.667-0.70003c-6.5643 0-11.905 5.2134-11.905 11.603s5.3405 11.589 11.905 11.589 11.905-5.199 11.905-11.589-5.3405-11.603-11.905-11.603z" fill="#5158AF"/>
      <g fill-rule="nonzero">
        <path d="m24.202 154.77l-0.53361-0.1613c-3.3622-0.91122-5.3906-4.3969-4.4294-7.8284l7.8436-28.852-3.4143-0.96571 1.1214-3.9675 19.21 5.2558-1.0672 3.9152-3.2017-0.85888-7.8457 29.12c-0.90672 3.3244-4.321 5.2537-7.683 4.3425l-2.134e-4 1.501e-4zm0.31892-38.288l3.4143 0.96571-8.0042 29.549c-0.80042 3.0039 0.96093 6.1671 3.9479 6.9715l0.53361 0.1613c2.9349 0.8044 5.9759-0.96571 6.8308-3.9152l8.0586-29.708 3.2017 0.85888 0.69412-2.5745-17.876-4.9332-0.80074 2.6243z" fill="#000" stroke="#000"/>
        <path d="m26.155 132.38l-4.6043 15.68c-0.54116 1.8816 0.63105 3.8056 2.6618 4.3071l0.36137 0.083299c1.9849 0.50141 4.0156-0.5847 4.5587-2.4255l5.1896-17.645" fill="#5158AF"/>
      </g>
      <g fill="#000">
        <path d="m131.72 34.547c-0.20696 0.074172-0.43549-0.034905-0.50879-0.2487l-0.50448-1.4442c-0.0733-0.2138 0.034494-0.44067 0.24577-0.51485 0.0733-0.026179 0.1466-0.021816 0.21559-0.0087267l0.72438 2.0812c-0.04743 0.061084-0.099171 0.10908-0.17247 0.13525v2.57e-5zm0.69712-0.65182l-0.62951-1.8107 2.4707-0.88134 0.62951 1.8107zm2.6819-3.5865l3.7512-1.3394 1.1339 3.2593-3.7512 1.3394zm13.703-0.62822l-6.14 2.1902c-0.64245 0.22687-1.2979 0.16143-1.8152-0.11344l-1.3323-3.8221c0.23284-0.54538 0.70282-1.0166 1.3453-1.2435l6.14-2.1902 1.8022 5.179zm-0.45698-5.4452c0.31045-0.39267 0.733-0.71554 1.259-0.90315l6.1098-2.1815 2.1472 6.1563-6.1141 2.1815c-0.52173 0.18761-1.0521 0.20506-1.5393 0.095987l-1.8627-5.3491zm12.875 27.522l-10.189-10.441c-0.17679 0.17452-0.38806 0.31414-0.61658 0.41013v10.031h-1.4358v-10.031c-0.23284-0.095988-0.44411-0.23996-0.62521-0.41449l-10.193 10.445h-1.9575l11.556-11.859c0-0.01309-0.0043115-0.021815-0.0043115-0.030542 0-0.84643 0.50448-1.5663 1.2203-1.8631h0.0733l0.0043115-7.9189h1.2332l0.043117 7.9189h0.086235c0.71576 0.29669 1.2203 1.0166 1.2203 1.8631 0 0.01309-0.0043115 0.026179-0.0043115 0.043631l11.547 11.85-1.9579-0.0041539zm-2.5742-24.337l-2.5741-7.3867 6.2564-2.2339 2.5741 7.3867zm8.3178-2.1467c-0.71144 0.25306-1.4919-0.12653-1.7419-0.84208l-2.4491-7.0246c-0.25008-0.71991 0.12074-1.5097 0.83217-1.7627 0.71144-0.25306 1.4919 0.12653 1.7419 0.84208l2.4491 7.0246c0.2544 0.71991-0.12073 1.5097-0.83217 1.7627z"/>
        <path d="m167.36 23.723l-2.4534-7.0377c0.22421-0.078536 0.95721 1.431 1.6342 3.3726 0.67695 1.9459 1.0434 3.5864 0.81924 3.6649l1.1e-5 1.117e-4z"/>
      </g>
    </g>
    <path d="m164 218v-7h4v7zm0-14v-7h4v7zm0-14v-7h4v7zm0-14v-7h4v7z" fill="#000" fill-rule="nonzero"/>
    <g fill="#EFA90F" fill-rule="nonzero">
      <path d="m110.37 65.867l-1.4425 4.2509-4.3821 0.99618 4.254 1.4488 0.99022 4.3784 1.448-4.2506 4.3821-0.99618-4.254-1.4488zm-8.6218-37.804l-1.832 5.4089-5.5786 1.2694 5.4154 1.8455 1.2566 5.5707 1.8439-5.4082 5.5786-1.2694-5.4154-1.8455zm-40.9 9.9707l-1.047 3.0924-3.1884 0.72372 3.0953 1.053 0.718 3.1849 1.0523-3.0921 3.1884-0.72372-3.0953-1.053zm26.473 5.4255l0.99022 4.3784 4.254 1.4488-4.3821 0.99618-1.4425 4.2509-0.99574-4.3787-4.254-1.4488 4.3821-0.99618zm32.415 46.117l1.2566 5.5707 5.4154 1.8455-5.5786 1.2694-1.832 5.4089-1.2684-5.5714-5.4154-1.8455 5.5786-1.2694zm3.7029-12.93l0.718 3.1849 3.0953 1.053-3.1884 0.72372-1.047 3.0924-0.72331-3.1851-3.0953-1.053 3.1884-0.72372zm28.674-56.04l-1.4425 4.2509-4.3821 0.99618 4.254 1.4488 0.99022 4.3784 1.448-4.2506 4.3821-0.99618-4.254-1.4488zm-70.228 39.729l-1.832 5.4089-5.5786 1.2694 5.4154 1.8455 1.2566 5.5707 1.8439-5.4082 5.5786-1.2694-5.4154-1.8455zm80.53-53.322l-1.047 3.0924-3.1884 0.72372 3.0953 1.053 0.718 3.1849 1.0523-3.0921 3.1884-0.72372-3.0953-1.053zm-28.63 16.671l0.99022 4.3784 4.254 1.4488-4.3821 0.99618-1.4425 4.2509-0.99574-4.3787-4.254-1.4488 4.3821-0.99618zm27.158 11.518l0.718 3.1849 3.0953 1.053-3.1884 0.72372-1.047 3.0924-0.72331-3.1851-3.0953-1.053 3.1884-0.72372zm-19.978 15.105l-1.047 3.0924-3.1884 0.72372 3.0953 1.053 0.718 3.1849 1.0523-3.0921 3.1884-0.72372-3.0953-1.053zm-22.843-26.435l-1.047 3.0924-3.1884 0.72372 3.0953 1.053 0.718 3.1849 1.0523-3.0921 3.1884-0.72372-3.0953-1.053zm10.491 11.654l-1.832 5.4089-5.5786 1.2694 5.4154 1.8455 1.2566 5.5707 1.8439-5.4082 5.5786-1.2694-5.4154-1.8455zm5.6345 27.552l1.2566 5.5707 5.4154 1.8455-5.5786 1.2694-1.832 5.4089-1.2684-5.5714-5.4154-1.8455 5.5786-1.2694zm-31.647-12.763l-1.832 5.4089-5.5786 1.2694 5.4154 1.8455 1.2566 5.5707 1.8439-5.4082 5.5786-1.2694-5.4154-1.8455zm3.4014 31.473l-1.047 3.0924-3.1884 0.72372 3.0953 1.053 0.718 3.1849 1.0523-3.0921 3.1884-0.72372-3.0953-1.053zm-18.725 1.0377l0.99022 4.3784 4.254 1.4488-4.3821 0.99618-1.4425 4.2509-0.99574-4.3787-4.254-1.4488 4.3821-0.99618zm36.205-26.369l-1.047 3.0924-3.1884 0.72372 3.0953 1.053 0.718 3.1849 1.0523-3.0921 3.1884-0.72372-3.0953-1.053zm-55.122 21.34l0.99022 4.3784 4.254 1.4488-4.3821 0.99618-1.4425 4.2509-0.99574-4.3787-4.254-1.4488 4.3821-0.99618zm-14.862 4.2687l0.718 3.1849 3.0953 1.053-3.1884 0.72372-1.047 3.0924-0.72331-3.1851-3.0953-1.053 3.1884-0.72372zm17.897-33.386l-1.047 3.0924-3.1884 0.72372 3.0953 1.053 0.718 3.1849 1.0523-3.0921 3.1884-0.72372-3.0953-1.053zm82.904 7.3734l0.99022 4.3784 4.254 1.4488-4.3821 0.99618-1.4425 4.2509-0.99574-4.3787-4.254-1.4488 4.3821-0.99618zm-23.972 43.162l-1.047 3.0924-3.1884 0.72372 3.0953 1.053 0.718 3.1849 1.0523-3.0921 3.1884-0.72372-3.0953-1.053zm17.585-27.345l-1.047 3.0924-3.1884 0.72372 3.0953 1.053 0.718 3.1849 1.0523-3.0921 3.1884-0.72372-3.0953-1.053zm-35.925-27.121l0.718 3.1849 3.0953 1.053-3.1884 0.72372-1.047 3.0924-0.72331-3.1851-3.0953-1.053 3.1884-0.72372zm-23.007-23.415l-1.047 3.0924-3.1884 0.72372 3.0953 1.053 0.718 3.1849 1.0523-3.0921 3.1884-0.72372-3.0953-1.053zm7.5877 47.845l-1.047 3.0924-3.1884 0.72372 3.0953 1.053 0.718 3.1849 1.0523-3.0921 3.1884-0.72372-3.0953-1.053zm47.256-34.875l-1.047 3.0924-3.1884 0.72372 3.0953 1.053 0.718 3.1849 1.0523-3.0921 3.1884-0.72372-3.0953-1.053zm-37.976 69.685l-1.047 3.0924-3.1884 0.72372 3.0953 1.053 0.718 3.1849 1.0523-3.0921 3.1884-0.72372-3.0953-1.053zm-43.074-6.2955l0.718 3.1849 3.0953 1.053-3.1884 0.72372-1.047 3.0924-0.72331-3.1851-3.0953-1.053 3.1884-0.72372zm104.74-33.882l-1.047 3.0924-3.1884 0.72372 3.0953 1.053 0.718 3.1849 1.0523-3.0921 3.1884-0.72372-3.0953-1.053zm-42.613-53.719l-1.047 3.0924-3.1884 0.72372 3.0953 1.053 0.718 3.1849 1.0523-3.0921 3.1884-0.72372-3.0953-1.053zm-75.653 37.425l-1.0516 3.0901-3.1863 0.72324 3.0933 1.0523 0.72255 3.1884 1.0519-3.0954 3.1863-0.72324-3.0933-1.0523zm48.629-41.87l-1.047 3.0924-3.1884 0.72372 3.0953 1.053 0.718 3.1849 1.0523-3.0921 3.1884-0.72372-3.0953-1.053zm74.615 21.072l0.718 3.1849 3.0953 1.053-3.1884 0.72372-1.047 3.0924-0.72331-3.1851-3.0953-1.053 3.1884-0.72372z"/>
    </g>
  </g>
</svg>
