<svg xmlns="http://www.w3.org/2000/svg" viewBox="0 0 32 29">
    <g fill="#FFF">
        <path d="M4.993 28.762h21.85c1.786 0 3.384-.93 4.277-2.42.893-1.536.893-3.351 0-4.887L20.17 2.467C19.279.93 17.68 0 15.896 0c-1.786 0-3.384.93-4.276 2.467L.669 21.455c-.892 1.536-.892 3.351 0 4.887.94 1.536 2.538 2.42 4.324 2.42zm-2.256-6.143L13.64 3.63c.47-.791 1.316-1.303 2.256-1.303.94 0 1.785.465 2.255 1.303L29.052 22.62c.47.79.47 1.768 0 2.56-.47.79-1.316 1.256-2.255 1.256H4.993c-.94 0-1.786-.466-2.256-1.257-.47-.79-.47-1.768 0-2.56z"/>
        <path d="M14.713 8.788H17.076V19.973H14.713zM14.713 21.571H17.076V23.169H14.713z"/>
    </g>
</svg>
