<?xml version="1.0" encoding="UTF-8"?>
<svg width="121px" height="98px" viewBox="0 0 121 98" version="1.1" xmlns="http://www.w3.org/2000/svg" xmlns:xlink="http://www.w3.org/1999/xlink">
    <!-- Generator: sketchtool 48.2 (47327) - http://www.bohemiancoding.com/sketch -->
    <title>D356561C-9A73-40C5-AE6A-41C077AA78C9</title>
    <desc>Created with sketchtool.</desc>
    <defs></defs>
    <g id="No-results" stroke="none" stroke-width="1" fill="none" fill-rule="evenodd" transform="translate(-247.000000, -175.000000)">
        <g id="No-match-icon" transform="translate(248.000000, 176.000000)">
            <path d="M38.4792542,86.2072086 C35.6997837,88.5760466 32.097729,90.0055096 28.1623616,90.0055096 C19.3648324,90.0055096 12.2330258,82.8617996 12.2330258,74.0495868 C12.2330258,72.4078225 12.4805692,70.8239715 12.9403087,69.33344 C5.15658146,64.3244042 0,55.5753166 0,45.6198347 C0,30.1047661 12.5240476,17.5197278 27.9980445,17.4547978 C33.6624191,7.05537167 44.6770513,0 57.3368081,0 C71.8473698,0 84.1966242,9.26910109 88.8052627,22.2186823 C105.664065,22.4808399 119.25,36.2517402 119.25,53.2011019 C119.25,70.3143219 105.40011,84.1873278 88.3154059,84.1873278 C86.5997724,84.1873278 84.9167589,84.047432 83.2771146,83.7784075 C78.1416738,91.1655409 69.6009833,96 59.9330258,96 C51.3697394,96 43.6908316,92.207205 38.4792542,86.2072086 Z" id="Mask" stroke="#003B78" fill="#F0F0F0"></path>
            <path d="M86.8571429,32.0296195 C86.8512,30.8369362 85.8911042,29.8689228 84.7131048,29.8689228 L57.5960094,29.8689228 C56.7587318,29.8482558 56.1056817,28.2942342 56.1056817,27.698226 L56.1056817,27.4502225 C56.1056817,26.1855383 55.0828561,25.1428571 53.8216573,25.1428571 L39.3918258,25.1428571 C38.1345889,25.1428571 37.1150648,26.1828716 37.1150648,27.4502225 L37.1150648,27.698226 C37.1150648,28.302901 36.4547513,29.8795896 35.5976643,29.8795896 L35.6220959,29.8795896 C34.4553219,29.8962565 33.507772,30.8556032 33.507772,32.0382862 L33.5170164,43.2764423 L28.9034058,43.2764423 C28.9034058,43.2764423 26.8617164,43.1651075 27.5827788,45.6184749 L32.4492894,70.8461586 C32.4492894,72.1175096 33.3248652,73.1428571 34.5840831,73.1428571 L85.7913968,73.1428571 C87.0486338,73.1428571 86.8419556,70.8461586 86.8419556,70.8461586 L86.8571429,32.0296195 Z M84.2165491,46.5244874 L84.2145681,46.5244874 L84.1881556,71.861506 L79.3493781,44.7024621 C78.9393234,43.2104414 77.2693905,43.3137762 77.2693905,43.3137762 L36.1516674,43.3137762 L36.1516674,34.6936565 L84.2165491,34.6936565 L84.2165491,46.5244874 Z" id="Shape" fill="#9B9B9B" fill-rule="nonzero" transform="translate(57.142857, 49.142857) scale(-1, 1) translate(-57.142857, -49.142857) "></path>
            <g id="noun_320" transform="translate(58.857143, 60.000000) rotate(90.000000) translate(-58.857143, -60.000000) translate(50.285714, 48.000000)" fill="#E6E8E9" fill-rule="nonzero"><rect id="Rectangle-path" x="0" y="6.68131868" width="4.57142857" height="2.28571429" rx="1.14285714"></rect>
                <rect id="Rectangle-path" x="0" y="14.6666667" width="4.57142857" height="2.28571429" rx="1.14285714"></rect>
                <path d="M15.9842886,1.70530257e-13 C14.4839575,2.5536 13.5090494,4.43328 13.0598102,5.63904 C12.3812821,7.4724 12.0416494,9.59088 12.0416494,11.99376 C12.0416494,14.42184 12.4289585,16.64064 13.2030851,18.65016 C13.6810776,19.88928 14.6220715,21.67248 16.0270499,24 L14.2925147,24 C12.8971208,22.09104 12.032065,20.8728 11.6973474,20.34528 C11.3628755,19.81776 10.9996504,19.10208 10.607672,18.19776 C10.0724188,16.95864 9.69985496,15.63576 9.48948912,14.22936 C9.38430621,13.50072 9.33220626,12.80592 9.33220626,12.14424 C9.33220626,9.666 9.77628461,7.45968 10.6649328,5.52576 C11.2291851,4.29504 12.4046288,2.45304 14.1920012,1.70530257e-13 L15.9842886,1.70530257e-13 Z" id="Shape"></path>
            </g>
        </g>
    </g>
</svg>