<svg xmlns="http://www.w3.org/2000/svg" width="44" height="43">
    <g fill="#43425D" fill-rule="nonzero" stroke="#43425D" stroke-width=".25">
        <path d="M22.001498 1C14.8802668 1 8.2445074 4.5249325 4.3745926 10.3607892.5047618 16.1948831-.071085 23.5492033 2.842417 29.8912693c-.1000677.1185104-.2099791.2370208-.3182485.3523333C1.2544669 31.588847.7344327 33.4514112 1.1297814 35.238866c.255914 1.2539817.6414021 2.4791414 1.154885 3.6562508.843192 1.8769547 2.7379175 3.0925208 4.8379184 3.1037134.613517-.0336316 1.2238002-.1297236 1.8176211-.2866701.6217481-.1121064 1.2500476-.1905777 1.8816227-.2338188 1.3746912-.0800743 2.7362796-.3122942 4.0568802-.6934495 5.8336393 2.0531254 12.3001556 1.4845985 17.6630218-1.5550751 5.3628662-3.0380747 9.0765565-8.236609 10.1445102-14.2006682 1.0679537-5.9640593-.6201102-12.0835031-4.6098811-16.7179793-3.9896029-4.6348863-9.8740571-7.3108617-16.0747399-7.3108617L22.001498 1zm-9.7018743 38.6731135c-.9088315.1217165-1.8242144.1937838-2.7362796.3074892-.4691773.0576521-.9416303.1185104-1.4025764.2162017h.0016404c-.4051925.1073014-.8218582.1601486-1.2401786.1569466-1.0334751-.0640602-1.98825-.5557354-2.6263766-1.3500823-.1902914-.2370208-.3510598-.4964515-.4740908-.7735197-.4659016-1.0714151-.8169447-2.1860427-1.0466198-3.3279344-.2755976-1.2187639.0492149-2.4919329.8776286-3.4400244.0295281-.0320302.0623386-.0656633.0918659-.0976914l.0016404-.0016014c.3822291-.3971735.7398403-.8151742 1.0712293-1.2539817 1.9603649-2.5992261 2.9101843-5.6373008 3.5105986-7.5638227.1181132-.3683474.2181809-.6966474.3149686-.9753146.1033475-.3042871.3609037-.536507.6791564-.6117803.303487-.0752693.6250238.0080074.8481056.2210067.8153068.7671239 1.5584229 3.1357332 1.6503097 4.1285542.0229667.536507.3198906 1.0249638.7923352 1.2988341.4724445.2738703 1.054809.2962801 1.546958.0592552l6.1402088-2.5960283c.6578225-.280262 1.4239102-.0032028 1.7356032.6277698.1656861.3219043.1853738.6998453.0492149 1.0361564-.1295949.3395172-.4002705.6101815-.743116.7462966l-4.9261097 1.98105c-.4740908.1777657-.8382785.5605322-.9859358 1.0345575-.1476405.4756652-.0623386.991345.2296667 1.3964927.6922591 1.0041365 2.2474483 3.5665459 1.768402 5.6131116-.2345845.9240664-.8661638 1.7039818-1.7339654 2.1396324-.259194.1473406-.5282234.27706-.8071177.3891665-.8300893.3203011-1.6995288.5349081-2.5870265.6390034l-.0001394.0002566zm9.7018743.6854548c-1.6683679.0016014-3.3301425-.2097978-4.942908-.6277698 1.0154589-.6710233 1.7339654-1.6927892 2.0079041-2.8619039.6004143-2.5544147-.9793425-5.3826998-2.0079041-6.8914465l4.9261097-1.9842479c.7447538-.2994821 1.335341-.877615 1.6404407-1.6047243.3067668-.7270683.3018449-1.5438414-.0114834-2.2677118-.3133283-.7238705-.9104693-1.2956363-1.6584989-1.5886939-.7480295-.2914751-1.5830324-.280262-2.3228728.0336315l-6.1402088 2.5944293c-.0918658-1.0121722-.8481055-3.9268822-2.1539236-5.1617176-.6397643-.6021867-1.5518715-.8407983-2.4147596-.6310087-.8825841.2033897-1.5929014.8407983-1.8767092 1.6799977-.0967877.2914751-.2066992.6310087-.3231704 1.016969-.5085274 1.6239117-1.276295 4.0870636-2.7166256 6.2891778h-.0016404c-.8776286-2.1828449-1.325472-4.5082007-1.3221963-6.8545478 0-5.0014133 2.0358313-9.7978338 5.6580967-13.3355988 3.6237773-3.536125 8.5369103-5.5237348 13.6599803-5.5237348 5.1230701 0 10.036161 1.9874868 13.6599803 5.5237348 3.6221395 3.537724 5.6580968 8.3341855 5.6580968 13.3355988 0 5.0014133-2.0358313 9.7978338-5.6580968 13.3355988-3.6237773 3.5361251-8.5369102 5.5237348-13.6599803 5.5237348l.0003696.0002333z"/>
        <path d="M28.5006109 11.0000153c-.6072-.0014922-1.1547418.3640292-1.3860034.9250068-.2327434.5609851-.1044362 1.2069889.3252405 1.6351373.4281871.4296762 1.0741917.5579679 1.6351395.32524.5594581-.2312498.9264975-.7788023.925008-1.3860015 0-.8280337-.6713651-1.4993979-1.4993999-1.4993979l.0000153.0000153zM14.5006403 11.0000153c-.60719-.0014922-1.1547227.3640292-1.3859804.9250068-.2327396.5609851-.1044345 1.2069889.3237455 1.6351373.4296696.4296762 1.0756635.5579679 1.6351124.32524C15.6344944 13.6541496 16 13.1065971 16 12.4993979 16 11.6713642 15.328646 11 14.500625 11l.0000153.0000153zM25 20.1787537c0 .2497684-.1146391.4851256-.3144357.642025-.1997967.155305-.4602082.2145439-.7091155.1585061-1.9570481-.4531146-3.9959333-.4531146-5.9528976 0-.2489283.0560378-.509302-.003202-.7091155-.1585061C17.1146391 20.6638752 17 20.428518 17 20.1787537c.0016376-.3858585.273492-.7204747.6583446-.8053184 2.1994152-.4979137 4.4838537-.4979137 6.6832269 0 .3848568.084856.6567096.419464.6583447.8053184H25z"/>
    </g>
</svg>